<?xml version="1.0" standalone="no"?>
 <!DOCTYPE svg PUBLIC "-//W3C//DTD SVG 1.1//EN" 
 "http://www.w3.org/Graphics/SVG/1.1/DTD/svg11.dtd"> 
<svg
  xmlns:svg="http://www.w3.org/2000/svg"
  xmlns="http://www.w3.org/2000/svg"
  xmlns:xlink="http://www.w3.org/1999/xlink"
  xmlns:inkscape="http://www.inkscape.org/namespaces/inkscape"
  version="1.1"
  width="43.9928mm" height="84.9884mm" viewBox="0.0000 0.0000 43.9928 84.9884">
<title>SVG Image created as nano_IPBL_2026-B_Cu.svg date 2026-07-13T09:17:21 </title>
  <desc>Image generated by PCBNEW </desc>
<g style="fill:#000000; fill-opacity:1.0000;stroke:#000000; stroke-opacity:1.0000;
stroke-linecap:round; stroke-linejoin:round;"
 transform="translate(0 0) scale(1 1)">
<path style="fill:#000000; fill-opacity:1.0000; stroke:none;fill-rule:evenodd;"
d="M 25.4428,29.7500
25.3471,29.7690
25.2660,29.8232
25.2118,29.9043
25.1928,30.0000
25.1928,31.2000
25.2118,31.2957
25.2660,31.3768
25.3471,31.4310
25.4428,31.4500
26.5428,31.4500
26.6385,31.4310
26.7196,31.3768
26.7738,31.2957
26.7928,31.2000
26.7928,30.0000
26.7738,29.9043
26.7196,29.8232
26.6385,29.7690
26.5428,29.7500
Z" /> 
</g>
<g style="fill:#000000; fill-opacity:1.0000; stroke:none;">
<circle cx="25.9928" cy="33.1000" r="0.8500" /> 
<path style="fill:#000000; fill-opacity:1.0000; stroke:none;fill-rule:evenodd;"
d="M 24.2828,42.6400
24.2828,41.0400
22.5828,41.0400
22.5828,42.6400
Z" /> 
</g>
<g style="fill:none; 
stroke:#000000; stroke-width:1.6000; stroke-opacity:1; 
stroke-linecap:round; stroke-linejoin:round;">
<path d="M23.4828 44.3800
L23.3828 44.3800
" />
<path d="M23.4828 46.9200
L23.3828 46.9200
" />
<path d="M23.4828 49.4600
L23.3828 49.4600
" />
<path d="M23.4828 52.0000
L23.3828 52.0000
" />
<path d="M23.4828 54.5400
L23.3828 54.5400
" />
<path d="M23.4828 57.0800
L23.3828 57.0800
" />
<path d="M23.4828 59.6200
L23.3828 59.6200
" />
<path d="M23.4828 62.1600
L23.3828 62.1600
" />
<path d="M23.4828 64.7000
L23.3828 64.7000
" />
<path d="M23.4828 67.2400
L23.3828 67.2400
" />
<path d="M23.4828 69.7800
L23.3828 69.7800
" />
<path d="M23.4828 72.3200
L23.3828 72.3200
" />
<path d="M23.4828 74.8600
L23.3828 74.8600
" />
<path d="M23.4828 77.4000
L23.3828 77.4000
" />
<path d="M8.2428 77.4000
L8.1428 77.4000
" />
<path d="M8.2428 74.8600
L8.1428 74.8600
" />
<path d="M8.2428 72.3200
L8.1428 72.3200
" />
<path d="M8.2428 69.7800
L8.1428 69.7800
" />
<path d="M8.2428 67.2400
L8.1428 67.2400
" />
<path d="M8.2428 64.7000
L8.1428 64.7000
" />
<path d="M8.2428 62.1600
L8.1428 62.1600
" />
<path d="M8.2428 59.6200
L8.1428 59.6200
" />
<path d="M8.2428 57.0800
L8.1428 57.0800
" />
<path d="M8.2428 54.5400
L8.1428 54.5400
" />
<path d="M8.2428 52.0000
L8.1428 52.0000
" />
<path d="M8.2428 49.4600
L8.1428 49.4600
" />
<path d="M8.2428 46.9200
L8.1428 46.9200
" />
<path d="M8.2428 44.3800
L8.1428 44.3800
" />
<path d="M8.2428 41.8400
L8.1428 41.8400
" />
<path style="fill:#000000; fill-opacity:1.0000; stroke:none;fill-rule:evenodd;"
d="M 35.8428,42.6455
34.1428,42.6455
34.1428,44.3455
35.8428,44.3455
Z" /> 
</g>
<g style="fill:#000000; fill-opacity:1.0000; stroke:none;">
<circle cx="37.5328" cy="43.4955" r="0.8500" /> 
<circle cx="40.0728" cy="43.4955" r="0.8500" /> 
<path style="fill:#000000; fill-opacity:1.0000; stroke:none;fill-rule:evenodd;"
d="M 35.8428,38.0036
34.1428,38.0036
34.1428,39.7036
35.8428,39.7036
Z" /> 
<circle cx="37.5328" cy="38.8536" r="0.8500" /> 
<circle cx="40.0728" cy="38.8536" r="0.8500" /> 
<path style="fill:#000000; fill-opacity:1.0000; stroke:none;fill-rule:evenodd;"
d="M 29.1428,8.3500
29.2385,8.3310
29.3196,8.2768
29.3738,8.1957
29.3928,8.1000
29.3928,6.9000
29.3738,6.8043
29.3196,6.7232
29.2385,6.6690
29.1428,6.6500
28.0428,6.6500
27.9471,6.6690
27.8660,6.7232
27.8118,6.8043
27.7928,6.9000
27.7928,8.1000
27.8118,8.1957
27.8660,8.2768
27.9471,8.3310
28.0428,8.3500
Z" /> 
<circle cx="28.5928" cy="5.0000" r="0.8500" /> 
<circle cx="38.9928" cy="8.0000" r="0.8500" /> 
<circle cx="38.9928" cy="13.0000" r="0.8500" /> 
<path style="fill:#000000; fill-opacity:1.0000; stroke:none;fill-rule:evenodd;"
d="M 35.8428,56.5709
34.1428,56.5709
34.1428,58.2709
35.8428,58.2709
Z" /> 
<circle cx="37.5328" cy="57.4209" r="0.8500" /> 
<circle cx="40.0728" cy="57.4209" r="0.8500" /> 
<path style="fill:#000000; fill-opacity:1.0000; stroke:none;fill-rule:evenodd;"
d="M 11.0028,19.6000
11.0028,21.6000
12.7028,21.6000
12.7028,19.6000
Z" /> 
</g>
<g style="fill:none; 
stroke:#000000; stroke-width:1.7000; stroke-opacity:1; 
stroke-linecap:round; stroke-linejoin:round;">
<path d="M14.3928 20.7500
L14.3928 20.4500
" />
<path d="M16.9328 20.7500
L16.9328 20.4500
" />
<path style="fill:#000000; fill-opacity:1.0000; stroke:none;fill-rule:evenodd;"
d="M 35.8428,33.3618
34.1428,33.3618
34.1428,35.0618
35.8428,35.0618
Z" /> 
</g>
<g style="fill:#000000; fill-opacity:1.0000; stroke:none;">
<circle cx="37.5328" cy="34.2118" r="0.8500" /> 
<circle cx="40.0728" cy="34.2118" r="0.8500" /> 
<path style="fill:#000000; fill-opacity:1.0000; stroke:none;fill-rule:evenodd;"
d="M 35.8428,61.2127
34.1428,61.2127
34.1428,62.9127
35.8428,62.9127
Z" /> 
<circle cx="37.5328" cy="62.0627" r="0.8500" /> 
<circle cx="40.0728" cy="62.0627" r="0.8500" /> 
<path style="fill:#000000; fill-opacity:1.0000; stroke:none;fill-rule:evenodd;"
d="M 35.8428,51.9291
34.1428,51.9291
34.1428,53.6291
35.8428,53.6291
Z" /> 
<circle cx="37.5328" cy="52.7791" r="0.8500" /> 
<circle cx="40.0728" cy="52.7791" r="0.8500" /> 
<path style="fill:#000000; fill-opacity:1.0000; stroke:none;fill-rule:evenodd;"
d="M 36.7528,22.3300
36.7718,22.4257
36.8260,22.5068
36.9071,22.5610
37.0028,22.5800
38.2028,22.5800
38.2985,22.5610
38.3796,22.5068
38.4338,22.4257
38.4528,22.3300
38.4528,21.2300
38.4338,21.1343
38.3796,21.0532
38.2985,20.9990
38.2028,20.9800
37.0028,20.9800
36.9071,20.9990
36.8260,21.0532
36.7718,21.1343
36.7528,21.2300
Z" /> 
<circle cx="40.1028" cy="21.7800" r="0.8500" /> 
<path style="fill:#000000; fill-opacity:1.0000; stroke:none;fill-rule:evenodd;"
d="M 35.8428,47.2873
34.1428,47.2873
34.1428,48.9873
35.8428,48.9873
Z" /> 
<circle cx="37.5328" cy="48.1373" r="0.8500" /> 
<circle cx="40.0728" cy="48.1373" r="0.8500" /> 
<path style="fill:#000000; fill-opacity:1.0000; stroke:none;fill-rule:evenodd;"
d="M 35.8428,28.7200
34.1428,28.7200
34.1428,30.4200
35.8428,30.4200
Z" /> 
<circle cx="37.5328" cy="29.5700" r="0.8500" /> 
<circle cx="40.0728" cy="29.5700" r="0.8500" /> 
<path style="fill:#000000; fill-opacity:1.0000; stroke:none;fill-rule:evenodd;"
d="M 23.2028,19.6500
23.2028,21.6500
24.9028,21.6500
24.9028,19.6500
Z" /> 
</g>
<g style="fill:none; 
stroke:#000000; stroke-width:1.7000; stroke-opacity:1; 
stroke-linecap:round; stroke-linejoin:round;">
<path d="M26.5928 20.8000
L26.5928 20.5000
" />
<path d="M29.1328 20.8000
L29.1328 20.5000
" />
</g>
<g style="fill:#000000; fill-opacity:1.0000; stroke:none;">
<circle cx="24.1928" cy="15.7000" r="0.8500" /> 
<circle cx="22.1928" cy="15.7000" r="0.8500" /> 
<circle cx="20.1928" cy="15.7000" r="0.8500" /> 
<circle cx="24.1928" cy="11.2000" r="0.8500" /> 
<circle cx="22.1928" cy="11.2000" r="0.8500" /> 
<circle cx="20.1928" cy="11.2000" r="0.8500" /> 
<path style="fill:#000000; fill-opacity:1.0000; stroke:none;fill-rule:evenodd;"
d="M 35.8428,70.4964
34.1428,70.4964
34.1428,72.1964
35.8428,72.1964
Z" /> 
<circle cx="37.5328" cy="71.3464" r="0.8500" /> 
<circle cx="40.0728" cy="71.3464" r="0.8500" /> 
<path style="fill:#000000; fill-opacity:1.0000; stroke:none;fill-rule:evenodd;"
d="M 13.6028,31.3000
13.6028,33.1000
15.3028,33.1000
15.3028,31.3000
Z" /> 
<circle cx="16.9928" cy="32.2000" r="0.8500" /> 
<circle cx="8.7928" cy="33.2000" r="0.8500" /> 
<circle cx="8.7928" cy="30.6600" r="0.8500" /> 
<path style="fill:#000000; fill-opacity:1.0000; stroke:none;fill-rule:evenodd;"
d="M 35.8428,65.8545
34.1428,65.8545
34.1428,67.5545
35.8428,67.5545
Z" /> 
<circle cx="37.5328" cy="66.7045" r="0.8500" /> 
<circle cx="40.0728" cy="66.7045" r="0.8500" /> 
<path style="fill:#000000; fill-opacity:1.0000; stroke:none;fill-rule:evenodd;"
d="M 35.8428,79.7800
34.1428,79.7800
34.1428,81.4800
35.8428,81.4800
Z" /> 
<circle cx="37.5328" cy="80.6300" r="0.8500" /> 
<circle cx="40.0728" cy="80.6300" r="0.8500" /> 
<path style="fill:#000000; fill-opacity:1.0000; stroke:none;fill-rule:evenodd;"
d="M 35.8428,75.1382
34.1428,75.1382
34.1428,76.8382
35.8428,76.8382
Z" /> 
<circle cx="37.5328" cy="75.9882" r="0.8500" /> 
<circle cx="40.0728" cy="75.9882" r="0.8500" /> 
</g>
<g style="fill:none; 
stroke:#000000; stroke-width:0.6000; stroke-opacity:1; 
stroke-linecap:round; stroke-linejoin:round;">
<path d="M32.5928 50.5373
L34.9928 48.1373
" />
<path d="M32.5928 53.3000
L32.5928 50.5373
" />
<path d="M23.7328 62.1600
L32.5928 53.3000
" />
<path d="M23.4328 62.1600
L23.7328 62.1600
" />
<path d="M26.4883 52.0000
L34.9928 43.4955
" />
<path d="M23.4328 52.0000
L26.4883 52.0000
" />
<path d="M37.5328 29.5700
L37.5328 80.6300
" />
<path d="M27.9928 24.0000
L26.5928 22.6000
" />
<path d="M37.5328 28.1400
L33.3928 24.0000
" />
<path d="M26.5928 22.6000
L26.5928 20.6500
" />
<path d="M37.5328 29.5700
L37.5328 28.1400
" />
<path d="M33.3928 24.0000
L27.9928 24.0000
" />
<path d="M40.0728 21.8100
L40.1028 21.7800
" />
<path d="M24.7528 67.2400
L34.5719 57.4209
" />
<path d="M23.4328 67.2400
L24.7528 67.2400
" />
<path d="M34.5719 57.4209
L34.9928 57.4209
" />
<path d="M25.1928 30.6000
L25.9928 30.6000
" />
<path d="M23.7928 25.0000
L25.9928 27.2000
" />
<path d="M14.3928 22.6000
L16.7928 25.0000
" />
<path d="M8.1928 41.8400
L13.9528 41.8400
" />
<path d="M16.7928 25.0000
L23.7928 25.0000
" />
<path d="M14.3928 20.6000
L14.3928 22.6000
" />
<path d="M25.9928 27.2000
L25.9928 30.6000
" />
<path d="M13.9528 41.8400
L25.1928 30.6000
" />
<path d="M33.5810 77.4000
L34.9928 75.9882
" />
<path d="M23.4328 77.4000
L33.5810 77.4000
" />
<path d="M21.3928 41.0000
L21.3928 52.6000
" />
<path d="M22.5928 39.8000
L21.3928 41.0000
" />
<path d="M23.3328 54.5400
L23.4328 54.5400
" />
<path d="M34.9928 38.8536
L34.0464 39.8000
" />
<path d="M34.0464 39.8000
L22.5928 39.8000
" />
<path d="M21.3928 52.6000
L23.3328 54.5400
" />
<path d="M34.9928 80.6300
L11.4228 80.6300
" />
<path d="M11.4228 80.6300
L8.1928 77.4000
" />
<path d="M18.3928 18.4000
L16.9328 19.8600
" />
<path d="M16.9328 19.8600
L16.9328 20.6000
" />
<path d="M24.1928 16.2000
L21.9928 18.4000
" />
<path d="M21.9928 18.4000
L18.3928 18.4000
" />
<path d="M24.1928 15.7000
L24.1928 16.2000
" />
<path d="M22.1928 14.4000
L22.9928 13.6000
" />
<path d="M37.6028 21.7800
L30.2628 21.7800
" />
<path d="M28.5928 10.4000
L28.5928 7.5000
" />
<path d="M38.9928 13.0000
L37.6028 14.3900
" />
<path d="M22.9928 13.6000
L25.3928 13.6000
" />
<path d="M28.5928 7.5000
L33.4928 7.5000
" />
<path d="M33.4928 7.5000
L38.9928 13.0000
" />
<path d="M30.2628 21.7800
L29.1328 20.6500
" />
<path d="M22.1928 15.7000
L22.1928 14.4000
" />
</g>
<g style="fill:none; 
stroke:#000000; stroke-width:0.2500; stroke-opacity:1; 
stroke-linecap:round; stroke-linejoin:round;">
<path d="M38.7928 13.2000
L38.9928 13.0000
" />
</g>
<g style="fill:none; 
stroke:#000000; stroke-width:0.6000; stroke-opacity:1; 
stroke-linecap:round; stroke-linejoin:round;">
<path d="M25.3928 13.6000
L28.5928 10.4000
" />
<path d="M37.6028 14.3900
L37.6028 21.7800
" />
<path d="M34.9928 34.2118
L34.9810 34.2000
" />
<path d="M34.9928 36.0000
L34.9928 34.2118
" />
<path d="M19.9928 53.6000
L19.9928 40.6000
" />
<path d="M32.3928 38.6000
L34.9928 36.0000
" />
<path d="M23.4328 57.0800
L23.4328 57.0400
" />
<path d="M21.9928 38.6000
L32.3928 38.6000
" />
<path d="M19.9928 40.6000
L21.9928 38.6000
" />
<path d="M23.4328 57.0400
L19.9928 53.6000
" />
<path d="M23.4328 64.7000
L24.2928 64.7000
" />
<path d="M24.2928 64.7000
L34.9928 54.0000
" />
<path d="M34.9928 54.0000
L34.9928 52.7791
" />
<path d="M34.9928 29.5700
L34.9928 30.8000
" />
<path d="M18.5928 54.7800
L23.4328 59.6200
" />
<path d="M34.9928 30.8000
L28.5928 37.2000
" />
<path d="M28.5928 37.2000
L21.3928 37.2000
" />
<path d="M18.5928 40.0000
L18.5928 54.7800
" />
<path d="M21.3928 37.2000
L18.5928 40.0000
" />
<path d="M23.4328 69.7800
L25.8128 69.7800
" />
<path d="M25.8128 69.7800
L33.5301 62.0627
" />
<path d="M33.5301 62.0627
L34.9928 62.0627
" />
<path d="M27.6728 72.3200
L23.4328 72.3200
" />
<path d="M33.2883 66.7045
L27.6728 72.3200
" />
<path d="M34.9928 66.7045
L33.2883 66.7045
" />
<path d="M34.9928 71.3464
L32.6464 71.3464
" />
<path d="M29.1328 74.8600
L23.4328 74.8600
" />
<path d="M32.6464 71.3464
L29.1328 74.8600
" />
<path d="M4.9928 37.0000
L4.9928 73.0000
" />
<path d="M8.7928 33.2000
L4.9928 37.0000
" />
<path d="M6.8528 74.8600
L8.1928 74.8600
" />
<path d="M4.9928 73.0000
L6.8528 74.8600
" />
<path d="M16.9928 29.4000
L16.9928 32.2000
" />
<path d="M8.7928 30.6600
L10.6528 28.8000
" />
<path d="M16.3928 28.8000
L16.9928 29.4000
" />
<path d="M10.6528 28.8000
L16.3928 28.8000
" />
</g>
<g style="fill:none; 
stroke:#000000; stroke-width:0.4000; stroke-opacity:1; 
stroke-linecap:round; stroke-linejoin:round;">
<path d="M34.9928 57.4209
L34.9928 57.4400
" />
<path style="fill:#000000; fill-opacity:1.0000; stroke:none;fill-rule:evenodd;"
d="M 0.4498,0.4197
0.4040,0.4725
0.3928,0.5240
0.3928,84.4760
0.4125,84.5430
0.4653,84.5888
0.5168,84.6000
43.4688,84.6000
43.5358,84.5803
43.5816,84.5275
43.5928,84.4760
43.5928,81.7453
40.8345,81.7453
40.8345,81.7453
40.7804,81.7846
40.5910,81.8811
40.3889,81.9468
40.1790,81.9800
39.9666,81.9800
39.7567,81.9468
39.7567,81.9468
39.5546,81.8811
39.3652,81.7846
39.3111,81.7453
39.3111,81.7453
40.0728,80.9836
40.8345,81.7453
43.5928,81.7453
43.5928,80.5238
41.4228,80.5238
41.4228,80.7362
41.3896,80.9461
41.3896,80.9461
41.3239,81.1482
41.2274,81.3375
41.1881,81.3917
40.4264,80.6300
40.4661,80.5902
40.2728,80.5902
40.2728,80.6698
40.2424,80.7433
40.1861,80.7996
40.1126,80.8300
40.0330,80.8300
39.9595,80.7996
39.9032,80.7433
39.8728,80.6698
39.8728,80.5902
39.9032,80.5167
39.9595,80.4604
40.0330,80.4300
40.1126,80.4300
40.1861,80.4604
40.2424,80.5167
40.2728,80.5902
40.4661,80.5902
41.1881,79.8683
41.1881,79.8683
41.2274,79.9224
41.3239,80.1118
41.3896,80.3139
41.3896,80.3139
41.4228,80.5238
43.5928,80.5238
43.5928,79.5147
40.8345,79.5147
40.8345,79.5147
40.0728,80.2764
40.0728,80.2764
39.3111,79.5147
39.3652,79.4754
39.5546,79.3789
39.7567,79.3132
39.9666,79.2800
40.1790,79.2800
40.3889,79.3132
40.3889,79.3132
40.5910,79.3789
40.7804,79.4754
40.8345,79.5147
43.5928,79.5147
43.5928,77.1035
40.8345,77.1035
40.8345,77.1035
40.7804,77.1428
40.5910,77.2393
40.3889,77.3049
40.1790,77.3382
39.9666,77.3382
39.7567,77.3049
39.7567,77.3049
39.5546,77.2393
39.3652,77.1428
39.3111,77.1035
39.3111,77.1035
40.0728,76.3417
40.8345,77.1035
43.5928,77.1035
43.5928,75.8819
41.4228,75.8819
41.4228,76.0944
41.3896,76.3043
41.3896,76.3043
41.3239,76.5064
41.2274,76.6957
41.1881,76.7499
40.4264,75.9882
40.4661,75.9484
40.2728,75.9484
40.2728,76.0280
40.2424,76.1015
40.1861,76.1577
40.1126,76.1882
40.0330,76.1882
39.9595,76.1577
39.9032,76.1015
39.8728,76.0280
39.8728,75.9484
39.9032,75.8749
39.9595,75.8186
40.0330,75.7882
40.1126,75.7882
40.1861,75.8186
40.2424,75.8749
40.2728,75.9484
40.4661,75.9484
41.1881,75.2265
41.1881,75.2265
41.2274,75.2806
41.3239,75.4700
41.3896,75.6721
41.3896,75.6721
41.4228,75.8819
43.5928,75.8819
43.5928,74.8729
40.8345,74.8729
40.8345,74.8729
40.0728,75.6346
40.0728,75.6346
39.3111,74.8729
39.3652,74.8336
39.5546,74.7371
39.7567,74.6714
39.9666,74.6382
40.1790,74.6382
40.3889,74.6714
40.3889,74.6714
40.5910,74.7371
40.7804,74.8336
40.8345,74.8729
43.5928,74.8729
43.5928,72.4616
40.8345,72.4616
40.8345,72.4616
40.7804,72.5010
40.5910,72.5975
40.3889,72.6631
40.1790,72.6964
39.9666,72.6964
39.7567,72.6631
39.7567,72.6631
39.5546,72.5975
39.3652,72.5010
39.3111,72.4616
39.3111,72.4616
40.0728,71.6999
40.8345,72.4616
43.5928,72.4616
43.5928,71.2401
41.4228,71.2401
41.4228,71.4526
41.3896,71.6625
41.3896,71.6625
41.3239,71.8646
41.2274,72.0539
41.1881,72.1081
40.4264,71.3464
40.4661,71.3066
40.2728,71.3066
40.2728,71.3861
40.2424,71.4597
40.1861,71.5159
40.1126,71.5464
40.0330,71.5464
39.9595,71.5159
39.9032,71.4597
39.8728,71.3861
39.8728,71.3066
39.9032,71.2331
39.9595,71.1768
40.0330,71.1464
40.1126,71.1464
40.1861,71.1768
40.2424,71.2331
40.2728,71.3066
40.4661,71.3066
41.1881,70.5846
41.1881,70.5846
41.2274,70.6388
41.3239,70.8281
41.3896,71.0302
41.3896,71.0302
41.4228,71.2401
43.5928,71.2401
43.5928,70.2311
40.8345,70.2311
40.8345,70.2311
40.0728,70.9928
40.0728,70.9928
39.3111,70.2311
39.3652,70.1917
39.5546,70.0953
39.7567,70.0296
39.9666,69.9964
40.1790,69.9964
40.3889,70.0296
40.3889,70.0296
40.5910,70.0953
40.7804,70.1917
40.8345,70.2311
43.5928,70.2311
43.5928,67.8198
40.8345,67.8198
40.8345,67.8198
40.7804,67.8592
40.5910,67.9556
40.3889,68.0213
40.1790,68.0545
39.9666,68.0545
39.7567,68.0213
39.7567,68.0213
39.5546,67.9556
39.3652,67.8592
39.3111,67.8198
39.3111,67.8198
40.0728,67.0581
40.8345,67.8198
43.5928,67.8198
43.5928,66.5983
41.4228,66.5983
41.4228,66.8108
41.3896,67.0207
41.3896,67.0207
41.3239,67.2228
41.2274,67.4121
41.1881,67.4663
40.4264,66.7045
40.4661,66.6648
40.2728,66.6648
40.2728,66.7443
40.2424,66.8178
40.1861,66.8741
40.1126,66.9045
40.0330,66.9045
39.9595,66.8741
39.9032,66.8178
39.8728,66.7443
39.8728,66.6648
39.9032,66.5913
39.9595,66.5350
40.0330,66.5045
40.1126,66.5045
40.1861,66.5350
40.2424,66.5913
40.2728,66.6648
40.4661,66.6648
41.1881,65.9428
41.1881,65.9428
41.2274,65.9970
41.3239,66.1863
41.3896,66.3884
41.3896,66.3884
41.4228,66.5983
43.5928,66.5983
43.5928,65.5893
40.8345,65.5893
40.8345,65.5893
40.0728,66.3510
40.0728,66.3510
39.3111,65.5893
39.3652,65.5499
39.5546,65.4534
39.7567,65.3878
39.9666,65.3545
40.1790,65.3545
40.3889,65.3878
40.3889,65.3878
40.5910,65.4534
40.7804,65.5499
40.8345,65.5893
43.5928,65.5893
43.5928,63.1780
40.8345,63.1780
40.8345,63.1780
40.7804,63.2174
40.5910,63.3138
40.3889,63.3795
40.1790,63.4127
39.9666,63.4127
39.7567,63.3795
39.7567,63.3795
39.5546,63.3138
39.3652,63.2173
39.3111,63.1780
39.3111,63.1780
40.0728,62.4163
40.8345,63.1780
43.5928,63.1780
43.5928,61.9565
41.4228,61.9565
41.4228,62.1690
41.3896,62.3789
41.3896,62.3789
41.3239,62.5809
41.2274,62.7703
41.1881,62.8244
40.4264,62.0627
40.4661,62.0229
40.2728,62.0229
40.2728,62.1025
40.2424,62.1760
40.1861,62.2323
40.1126,62.2627
40.0330,62.2627
39.9595,62.2323
39.9032,62.1760
39.8728,62.1025
39.8728,62.0229
39.9032,61.9494
39.9595,61.8932
40.0330,61.8627
40.1126,61.8627
40.1861,61.8932
40.2424,61.9494
40.2728,62.0229
40.4661,62.0229
41.1881,61.3010
41.1881,61.3010
41.2274,61.3552
41.3239,61.5445
41.3896,61.7466
41.3896,61.7466
41.4228,61.9565
43.5928,61.9565
43.5928,60.9475
40.8345,60.9475
40.8345,60.9475
40.0728,61.7092
40.0728,61.7092
39.3111,60.9475
39.3652,60.9081
39.5546,60.8116
39.7567,60.7460
39.9666,60.7127
40.1790,60.7127
40.3889,60.7460
40.3889,60.7460
40.5910,60.8116
40.7804,60.9081
40.8345,60.9475
43.5928,60.9475
43.5928,58.5362
40.8345,58.5362
40.8345,58.5362
40.7804,58.5755
40.5910,58.6720
40.3889,58.7377
40.1790,58.7709
39.9666,58.7709
39.7567,58.7377
39.7567,58.7377
39.5546,58.6720
39.3652,58.5755
39.3111,58.5362
39.3111,58.5362
40.0728,57.7745
40.8345,58.5362
43.5928,58.5362
43.5928,57.3147
41.4228,57.3147
41.4228,57.5272
41.3896,57.7370
41.3896,57.7370
41.3239,57.9391
41.2274,58.1285
41.1881,58.1826
40.4264,57.4209
40.4661,57.3811
40.2728,57.3811
40.2728,57.4607
40.2424,57.5342
40.1861,57.5905
40.1126,57.6209
40.0330,57.6209
39.9595,57.5905
39.9032,57.5342
39.8728,57.4607
39.8728,57.3811
39.9032,57.3076
39.9595,57.2514
40.0330,57.2209
40.1126,57.2209
40.1861,57.2514
40.2424,57.3076
40.2728,57.3811
40.4661,57.3811
41.1881,56.6592
41.1881,56.6592
41.2274,56.7133
41.3239,56.9027
41.3896,57.1048
41.3896,57.1048
41.4228,57.3147
43.5928,57.3147
43.5928,56.3056
40.8345,56.3056
40.8345,56.3056
40.0728,57.0674
40.0728,57.0674
39.3111,56.3056
39.3652,56.2663
39.5546,56.1698
39.7567,56.1042
39.9666,56.0709
40.1790,56.0709
40.3889,56.1042
40.3889,56.1042
40.5910,56.1698
40.7804,56.2663
40.8345,56.3056
43.5928,56.3056
43.5928,53.8944
40.8345,53.8944
40.8345,53.8944
40.7804,53.9337
40.5910,54.0302
40.3889,54.0958
40.1790,54.1291
39.9666,54.1291
39.7567,54.0958
39.7567,54.0958
39.5546,54.0302
39.3652,53.9337
39.3111,53.8944
39.3111,53.8944
40.0728,53.1326
40.8345,53.8944
43.5928,53.8944
43.5928,52.6728
41.4228,52.6728
41.4228,52.8853
41.3896,53.0952
41.3896,53.0952
41.3239,53.2973
41.2274,53.4866
41.1881,53.5408
40.4264,52.7791
40.4661,52.7393
40.2728,52.7393
40.2728,52.8189
40.2424,52.8924
40.1861,52.9486
40.1126,52.9791
40.0330,52.9791
39.9595,52.9486
39.9032,52.8924
39.8728,52.8189
39.8728,52.7393
39.9032,52.6658
39.9595,52.6095
40.0330,52.5791
40.1126,52.5791
40.1861,52.6095
40.2424,52.6658
40.2728,52.7393
40.4661,52.7393
41.1881,52.0174
41.1881,52.0174
41.2274,52.0715
41.3239,52.2609
41.3896,52.4630
41.3896,52.4630
41.4228,52.6728
43.5928,52.6728
43.5928,51.6638
40.8345,51.6638
40.8345,51.6638
40.0728,52.4255
40.0728,52.4255
39.3111,51.6638
39.3652,51.6245
39.5546,51.5280
39.7567,51.4623
39.9666,51.4291
40.1790,51.4291
40.3889,51.4623
40.3889,51.4623
40.5910,51.5280
40.7804,51.6245
40.8345,51.6638
43.5928,51.6638
43.5928,49.2525
40.8345,49.2525
40.8345,49.2525
40.7804,49.2919
40.5910,49.3884
40.3889,49.4540
40.1790,49.4873
39.9666,49.4873
39.7567,49.4540
39.7567,49.4540
39.5546,49.3884
39.3652,49.2919
39.3111,49.2525
39.3111,49.2525
40.0728,48.4908
40.8345,49.2525
43.5928,49.2525
43.5928,48.0310
41.4228,48.0310
41.4228,48.2435
41.3896,48.4534
41.3896,48.4534
41.3239,48.6555
41.2274,48.8448
41.1881,48.8990
40.4264,48.1373
40.4661,48.0975
40.2728,48.0975
40.2728,48.1771
40.2424,48.2506
40.1861,48.3068
40.1126,48.3373
40.0330,48.3373
39.9595,48.3068
39.9032,48.2506
39.8728,48.1771
39.8728,48.0975
39.9032,48.0240
39.9595,47.9677
40.0330,47.9373
40.1126,47.9373
40.1861,47.9677
40.2424,48.0240
40.2728,48.0975
40.4661,48.0975
41.1881,47.3756
41.1881,47.3756
41.2274,47.4297
41.3239,47.6191
41.3896,47.8211
41.3896,47.8211
41.4228,48.0310
43.5928,48.0310
43.5928,47.0220
40.8345,47.0220
40.8345,47.0220
40.0728,47.7837
40.0728,47.7837
39.3111,47.0220
39.3652,46.9826
39.5546,46.8862
39.7567,46.8205
39.9666,46.7873
40.1790,46.7873
40.3889,46.8205
40.3889,46.8205
40.5910,46.8862
40.7804,46.9827
40.8345,47.0220
43.5928,47.0220
43.5928,44.6107
40.8345,44.6107
40.8345,44.6107
40.7804,44.6501
40.5910,44.7465
40.3889,44.8122
40.1790,44.8455
39.9666,44.8455
39.7567,44.8122
39.7567,44.8122
39.5546,44.7465
39.3652,44.6501
39.3111,44.6107
39.3111,44.6107
40.0728,43.8490
40.8345,44.6107
43.5928,44.6107
43.5928,43.3892
41.4228,43.3892
41.4228,43.6017
41.3896,43.8116
41.3896,43.8116
41.3239,44.0137
41.2274,44.2030
41.1881,44.2572
40.4264,43.4955
40.4661,43.4557
40.2728,43.4557
40.2728,43.5352
40.2424,43.6087
40.1861,43.6650
40.1126,43.6955
40.0330,43.6955
39.9595,43.6650
39.9032,43.6087
39.8728,43.5352
39.8728,43.4557
39.9032,43.3822
39.9595,43.3259
40.0330,43.2955
40.1126,43.2955
40.1861,43.3259
40.2424,43.3822
40.2728,43.4557
40.4661,43.4557
41.1881,42.7337
41.1881,42.7337
41.2274,42.7879
41.3239,42.9772
41.3896,43.1793
41.3896,43.1793
41.4228,43.3892
43.5928,43.3892
43.5928,42.3802
40.8345,42.3802
40.8345,42.3802
40.0728,43.1419
40.0728,43.1419
39.3111,42.3802
39.3652,42.3408
39.5546,42.2444
39.7567,42.1787
39.9666,42.1455
40.1790,42.1455
40.3889,42.1787
40.3889,42.1787
40.5910,42.2444
40.7804,42.3408
40.8345,42.3802
43.5928,42.3802
43.5928,39.9689
40.8345,39.9689
40.8345,39.9689
40.7804,40.0083
40.5910,40.1047
40.3889,40.1704
40.1790,40.2036
39.9666,40.2036
39.7567,40.1704
39.7567,40.1704
39.5546,40.1047
39.3652,40.0083
39.3111,39.9689
39.3111,39.9689
40.0728,39.2072
40.8345,39.9689
43.5928,39.9689
43.5928,38.7474
41.4228,38.7474
41.4228,38.9599
41.3896,39.1698
41.3896,39.1698
41.3239,39.3719
41.2274,39.5612
41.1881,39.6154
40.4264,38.8536
40.4661,38.8139
40.2728,38.8139
40.2728,38.8934
40.2424,38.9669
40.1861,39.0232
40.1126,39.0536
40.0330,39.0536
39.9595,39.0232
39.9032,38.9669
39.8728,38.8934
39.8728,38.8139
39.9032,38.7403
39.9595,38.6841
40.0330,38.6536
40.1126,38.6536
40.1861,38.6841
40.2424,38.7403
40.2728,38.8139
40.4661,38.8139
41.1881,38.0919
41.1881,38.0919
41.2274,38.1461
41.3239,38.3354
41.3896,38.5375
41.3896,38.5375
41.4228,38.7474
43.5928,38.7474
43.5928,37.7384
40.8345,37.7384
40.8345,37.7384
40.0728,38.5001
40.0728,38.5001
39.3111,37.7384
39.3652,37.6990
39.5546,37.6025
39.7567,37.5369
39.9666,37.5036
40.1790,37.5036
40.3889,37.5369
40.3889,37.5369
40.5910,37.6025
40.7804,37.6990
40.8345,37.7384
43.5928,37.7384
43.5928,35.3271
40.8345,35.3271
40.8345,35.3271
40.7804,35.3664
40.5910,35.4629
40.3889,35.5286
40.1790,35.5618
39.9666,35.5618
39.7567,35.5286
39.7567,35.5286
39.5546,35.4629
39.3652,35.3664
39.3111,35.3271
39.3111,35.3271
40.0728,34.5654
40.8345,35.3271
43.5928,35.3271
43.5928,34.1056
41.4228,34.1056
41.4228,34.3181
41.3896,34.5279
41.3896,34.5279
41.3239,34.7300
41.2274,34.9194
41.1881,34.9735
40.4264,34.2118
40.4661,34.1720
40.2728,34.1720
40.2728,34.2516
40.2424,34.3251
40.1861,34.3814
40.1126,34.4118
40.0330,34.4118
39.9595,34.3814
39.9032,34.3251
39.8728,34.2516
39.8728,34.1720
39.9032,34.0985
39.9595,34.0423
40.0330,34.0118
40.1126,34.0118
40.1861,34.0423
40.2424,34.0985
40.2728,34.1720
40.4661,34.1720
41.1881,33.4501
41.1881,33.4501
41.2274,33.5043
41.3239,33.6936
41.3896,33.8957
41.3896,33.8957
41.4228,34.1056
43.5928,34.1056
43.5928,33.0965
40.8345,33.0965
40.8345,33.0965
40.0728,33.8583
40.0728,33.8583
39.3111,33.0965
39.3652,33.0572
39.5546,32.9607
39.7567,32.8951
39.9666,32.8618
40.1790,32.8618
40.3889,32.8951
40.3889,32.8951
40.5910,32.9607
40.7804,33.0572
40.8345,33.0965
43.5928,33.0965
43.5928,30.6853
40.8345,30.6853
40.8345,30.6853
40.7804,30.7246
40.5910,30.8211
40.3889,30.8868
40.1790,30.9200
39.9666,30.9200
39.7567,30.8868
39.7567,30.8868
39.5546,30.8211
39.3652,30.7246
39.3111,30.6853
39.3111,30.6853
40.0728,29.9236
40.8345,30.6853
43.5928,30.6853
43.5928,29.4638
41.4228,29.4638
41.4228,29.6762
41.3896,29.8861
41.3896,29.8861
41.3239,30.0882
41.2274,30.2775
41.1881,30.3317
40.4264,29.5700
40.4661,29.5302
40.2728,29.5302
40.2728,29.6098
40.2424,29.6833
40.1861,29.7396
40.1126,29.7700
40.0330,29.7700
39.9595,29.7396
39.9032,29.6833
39.8728,29.6098
39.8728,29.5302
39.9032,29.4567
39.9595,29.4004
40.0330,29.3700
40.1126,29.3700
40.1861,29.4004
40.2424,29.4567
40.2728,29.5302
40.4661,29.5302
41.1881,28.8083
41.1881,28.8083
41.2274,28.8624
41.3239,29.0518
41.3896,29.2539
41.3896,29.2539
41.4228,29.4638
43.5928,29.4638
43.5928,28.4547
40.8345,28.4547
40.8345,28.4547
40.0728,29.2164
40.0728,29.2164
39.3111,28.4547
39.3652,28.4154
39.5546,28.3189
39.7567,28.2532
39.9666,28.2200
40.1790,28.2200
40.3889,28.2532
40.3889,28.2532
40.5910,28.3189
40.7804,28.4154
40.8345,28.4547
43.5928,28.4547
43.5928,22.8953
40.8645,22.8953
40.8645,22.8953
40.8104,22.9346
40.6210,23.0311
40.4189,23.0968
40.2090,23.1300
39.9966,23.1300
39.7867,23.0968
39.7867,23.0968
39.5846,23.0311
39.3952,22.9346
39.3411,22.8953
39.3411,22.8953
40.1028,22.1336
40.8645,22.8953
43.5928,22.8953
43.5928,21.6738
41.4528,21.6738
41.4528,21.8862
41.4196,22.0961
41.4196,22.0961
41.3539,22.2982
41.2574,22.4875
41.2181,22.5417
40.4564,21.7800
40.4961,21.7402
40.3028,21.7402
40.3028,21.8198
40.2724,21.8933
40.2161,21.9496
40.1426,21.9800
40.0630,21.9800
39.9895,21.9496
39.9332,21.8933
39.9028,21.8198
39.9028,21.7402
39.9332,21.6667
39.9895,21.6104
40.0630,21.5800
40.1426,21.5800
40.2161,21.6104
40.2724,21.6667
40.3028,21.7402
40.4961,21.7402
41.2181,21.0183
41.2181,21.0183
41.2574,21.0724
41.3539,21.2618
41.4196,21.4639
41.4196,21.4639
41.4528,21.6738
43.5928,21.6738
43.5928,20.6647
40.8645,20.6647
40.8645,20.6647
40.1028,21.4264
40.1028,21.4264
39.3411,20.6647
39.3952,20.6254
39.5846,20.5289
39.7867,20.4632
39.9966,20.4300
40.2090,20.4300
40.4189,20.4632
40.4189,20.4632
40.6210,20.5289
40.8104,20.6254
40.8645,20.6647
43.5928,20.6647
43.5928,12.8931
40.3513,12.8931
40.3513,13.1069
40.3178,13.3181
40.2518,13.5215
40.2518,13.5215
40.1547,13.7120
40.0290,13.8850
39.8778,14.0362
39.7048,14.1619
39.6114,14.2095
39.5143,14.2590
39.5143,14.2590
39.4126,14.2920
39.3109,14.3250
39.0997,14.3585
39.0997,14.3585
38.8859,14.3585
38.8859,14.3585
38.8549,14.3536
38.7856,14.3625
38.7478,14.3884
38.4476,14.6886
38.4141,14.7499
38.4113,14.7763
38.4113,20.4105
38.4310,20.4775
38.4838,20.5233
38.4963,20.5282
38.5255,20.5379
38.5255,20.5379
38.6765,20.6310
38.8018,20.7563
38.8949,20.9073
38.8949,20.9073
38.9026,20.9303
38.9423,20.9878
38.9675,20.9982
39.7492,21.7800
39.7492,21.7800
38.9720,22.5572
38.9616,22.5594
38.9119,22.6085
38.9026,22.6297
38.8949,22.6527
38.8949,22.6527
38.8949,22.6527
38.8018,22.8037
38.6765,22.9290
38.5255,23.0221
38.3572,23.0779
38.2533,23.0885
36.9523,23.0885
36.8484,23.0779
36.6801,23.0221
36.5291,22.9290
36.4038,22.8037
36.3107,22.6527
36.3107,22.6527
36.3074,22.6474
36.2554,22.6007
36.2019,22.5885
30.1832,22.5885
30.1832,22.5885
30.0270,22.5574
29.9534,22.5270
29.8798,22.4965
29.7474,22.4080
29.5073,22.1679
29.4460,22.1344
29.4002,22.1331
29.2397,22.1585
29.2397,22.1585
29.0259,22.1585
29.0259,22.1585
28.8147,22.1250
28.6113,22.0590
28.4208,21.9619
28.2478,21.8362
28.0966,21.6850
27.9709,21.5120
27.9709,21.5120
27.9685,21.5081
27.9167,21.4613
27.8478,21.4498
27.7836,21.4775
27.7571,21.5081
27.7547,21.5120
27.7547,21.5120
27.6290,21.6850
27.4778,21.8362
27.4524,21.8547
27.4097,21.9100
27.4013,21.9550
27.4013,22.2137
27.4210,22.2808
27.4376,22.3014
28.2914,23.1552
28.3527,23.1887
28.3791,23.1915
33.4724,23.1915
33.6286,23.2226
33.6286,23.2226
33.6286,23.2226
33.6286,23.2226
33.7022,23.2530
33.7022,23.2530
33.7758,23.2835
33.7758,23.2835
33.9082,23.3720
33.9082,23.3720
38.1608,27.6246
38.1608,27.6246
38.2493,27.7570
38.2493,27.7570
38.2787,27.8280
38.2787,27.8280
38.3102,27.9042
38.3102,27.9042
38.3413,28.0604
38.3413,28.4150
38.3610,28.4821
38.3924,28.5153
38.4178,28.5338
38.5690,28.6850
38.6947,28.8580
38.6971,28.8627
38.7451,28.9135
38.8129,28.9303
38.8790,28.9077
38.9150,28.8662
38.9156,28.8666
38.9180,28.8628
38.9181,28.8627
38.9182,28.8624
38.9575,28.8083
38.9575,28.8083
39.7192,29.5700
39.7192,29.5700
38.9575,30.3317
38.9575,30.3317
38.9182,30.2776
38.9181,30.2773
38.9180,30.2773
38.9156,30.2734
38.9148,30.2739
38.8701,30.2265
38.8023,30.2097
38.7361,30.2323
38.6971,30.2773
38.6947,30.2820
38.5690,30.4550
38.4178,30.6062
38.3924,30.6247
38.3498,30.6800
38.3413,30.7250
38.3413,33.0568
38.3610,33.1239
38.3924,33.1572
38.4178,33.1756
38.5690,33.3268
38.6947,33.4998
38.6971,33.5045
38.7451,33.5553
38.8129,33.5721
38.8790,33.5495
38.9150,33.5080
38.9156,33.5084
38.9180,33.5046
38.9181,33.5045
38.9182,33.5043
38.9575,33.4501
38.9575,33.4501
39.7192,34.2118
39.7192,34.2118
38.9575,34.9735
38.9575,34.9735
38.9182,34.9194
38.9181,34.9191
38.9180,34.9191
38.9156,34.9152
38.9148,34.9157
38.8701,34.8683
38.8023,34.8515
38.7361,34.8741
38.6971,34.9191
38.6947,34.9238
38.5690,35.0968
38.4178,35.2480
38.3924,35.2665
38.3498,35.3218
38.3413,35.3668
38.3413,37.6987
38.3610,37.7657
38.3924,37.7990
38.4178,37.8174
38.5690,37.9686
38.6947,38.1416
38.6971,38.1463
38.7451,38.1971
38.8129,38.2139
38.8790,38.1914
38.9150,38.1499
38.9156,38.1502
38.9180,38.1464
38.9181,38.1463
38.9182,38.1461
38.9575,38.0919
38.9575,38.0919
39.7192,38.8536
39.7192,38.8536
38.9575,39.6154
38.9575,39.6154
38.9182,39.5612
38.9181,39.5610
38.9180,39.5609
38.9156,39.5570
38.9148,39.5575
38.8701,39.5102
38.8023,39.4934
38.7361,39.5159
38.6971,39.5609
38.6947,39.5656
38.5690,39.7386
38.4178,39.8898
38.3924,39.9083
38.3498,39.9636
38.3413,40.0086
38.3413,42.3405
38.3610,42.4075
38.3924,42.4408
38.4178,42.4592
38.5690,42.6104
38.6947,42.7834
38.6971,42.7881
38.7451,42.8389
38.8129,42.8557
38.8790,42.8332
38.9150,42.7917
38.9156,42.7921
38.9180,42.7882
38.9181,42.7881
38.9182,42.7879
38.9575,42.7337
38.9575,42.7337
39.7192,43.4955
39.7192,43.4955
38.9575,44.2572
38.9575,44.2572
38.9182,44.2030
38.9181,44.2028
38.9180,44.2027
38.9156,44.1989
38.9148,44.1994
38.8701,44.1520
38.8023,44.1352
38.7361,44.1577
38.6971,44.2028
38.6947,44.2075
38.5690,44.3805
38.4178,44.5317
38.3924,44.5501
38.3498,44.6054
38.3413,44.6504
38.3413,46.9823
38.3610,47.0493
38.3924,47.0826
38.4178,47.1011
38.5690,47.2523
38.6947,47.4253
38.6971,47.4300
38.7451,47.4808
38.8129,47.4975
38.8790,47.4750
38.9150,47.4335
38.9156,47.4339
38.9180,47.4301
38.9181,47.4300
38.9182,47.4297
38.9575,47.3756
38.9575,47.3756
39.7192,48.1373
39.7192,48.1373
38.9575,48.8990
38.9575,48.8990
38.9182,48.8448
38.9181,48.8446
38.9180,48.8445
38.9156,48.8407
38.9148,48.8412
38.8701,48.7938
38.8023,48.7770
38.7361,48.7995
38.6971,48.8446
38.6947,48.8493
38.5690,49.0223
38.4178,49.1735
38.3924,49.1919
38.3498,49.2473
38.3413,49.2922
38.3413,51.6241
38.3610,51.6912
38.3924,51.7244
38.4178,51.7429
38.5690,51.8941
38.6947,52.0671
38.6971,52.0718
38.7451,52.1226
38.8129,52.1394
38.8790,52.1168
38.9150,52.0753
38.9156,52.0757
38.9180,52.0719
38.9181,52.0718
38.9182,52.0715
38.9575,52.0174
38.9575,52.0174
39.7192,52.7791
39.7192,52.7791
38.9575,53.5408
38.9575,53.5408
38.9182,53.4866
38.9181,53.4864
38.9180,53.4863
38.9156,53.4825
38.9148,53.4830
38.8701,53.4356
38.8023,53.4188
38.7361,53.4413
38.6971,53.4864
38.6947,53.4911
38.5690,53.6641
38.5690,53.6641
38.4178,53.8153
38.4098,53.8211
38.3924,53.8337
38.3498,53.8891
38.3413,53.9341
38.3413,56.2659
38.3610,56.3330
38.3924,56.3663
38.4178,56.3847
38.5690,56.5359
38.6947,56.7089
38.6971,56.7136
38.7451,56.7644
38.8129,56.7812
38.8790,56.7586
38.9150,56.7171
38.9156,56.7175
38.9180,56.7137
38.9181,56.7136
38.9182,56.7134
38.9575,56.6592
38.9575,56.6592
39.7192,57.4209
39.7192,57.4209
38.9575,58.1826
38.9575,58.1826
38.9182,58.1285
38.9181,58.1282
38.9180,58.1282
38.9156,58.1243
38.9148,58.1248
38.8701,58.0774
38.8023,58.0606
38.7361,58.0832
38.6971,58.1282
38.6947,58.1329
38.5690,58.3059
38.4178,58.4571
38.3924,58.4756
38.3498,58.5309
38.3413,58.5759
38.3413,60.9078
38.3610,60.9748
38.3924,61.0081
38.4178,61.0265
38.5690,61.1777
38.6947,61.3507
38.6971,61.3554
38.7451,61.4062
38.8129,61.4230
38.8790,61.4005
38.9150,61.3589
38.9156,61.3593
38.9180,61.3555
38.9181,61.3554
38.9182,61.3552
38.9575,61.3010
38.9575,61.3010
39.7192,62.0627
39.7192,62.0627
38.9575,62.8244
38.9575,62.8244
38.9182,62.7703
38.9181,62.7701
38.9180,62.7700
38.9156,62.7661
38.9148,62.7666
38.8701,62.7193
38.8023,62.7024
38.7361,62.7250
38.6971,62.7700
38.6947,62.7747
38.5690,62.9477
38.4178,63.0989
38.3924,63.1174
38.3498,63.1727
38.3413,63.2177
38.3413,65.5496
38.3610,65.6166
38.3924,65.6499
38.4178,65.6683
38.5690,65.8195
38.6947,65.9925
38.6971,65.9972
38.7451,66.0480
38.8129,66.0648
38.8790,66.0423
38.9150,66.0008
38.9156,66.0011
38.9180,65.9973
38.9181,65.9972
38.9182,65.9970
38.9575,65.9428
38.9575,65.9428
39.7192,66.7045
39.7192,66.7045
38.9575,67.4663
38.9575,67.4663
38.9182,67.4121
38.9181,67.4119
38.9180,67.4118
38.9156,67.4079
38.9148,67.4084
38.8701,67.3611
38.8023,67.3443
38.7361,67.3668
38.6971,67.4119
38.6947,67.4166
38.5690,67.5895
38.5690,67.5896
38.4178,67.7408
38.4098,67.7465
38.3924,67.7592
38.3498,67.8145
38.3413,67.8595
38.3413,70.1914
38.3610,70.2584
38.3924,70.2917
38.4178,70.3102
38.5690,70.4614
38.6947,70.6344
38.6971,70.6391
38.7451,70.6898
38.8129,70.7066
38.8790,70.6841
38.9150,70.6426
38.9156,70.6430
38.9180,70.6391
38.9181,70.6390
38.9182,70.6388
38.9575,70.5846
38.9575,70.5846
39.7192,71.3464
39.7192,71.3464
38.9575,72.1081
38.9575,72.1081
38.9182,72.0539
38.9181,72.0537
38.9180,72.0536
38.9156,72.0498
38.9148,72.0503
38.8701,72.0029
38.8023,71.9861
38.7361,72.0086
38.6971,72.0537
38.6947,72.0584
38.5690,72.2314
38.4178,72.3826
38.3924,72.4010
38.3498,72.4563
38.3413,72.5013
38.3413,74.8332
38.3610,74.9002
38.3924,74.9335
38.4178,74.9520
38.5690,75.1032
38.6947,75.2762
38.6971,75.2809
38.7451,75.3317
38.8129,75.3485
38.8790,75.3259
38.9150,75.2844
38.9156,75.2848
38.9180,75.2810
38.9181,75.2809
38.9182,75.2806
38.9575,75.2265
38.9575,75.2265
39.7192,75.9882
39.7192,75.9882
38.9575,76.7499
38.9575,76.7499
38.9182,76.6957
38.9181,76.6955
38.9180,76.6954
38.9156,76.6916
38.9148,76.6921
38.8701,76.6447
38.8023,76.6279
38.7361,76.6504
38.6971,76.6955
38.6947,76.7002
38.5690,76.8732
38.4178,77.0244
38.3924,77.0428
38.3498,77.0982
38.3413,77.1432
38.3413,79.4750
38.3610,79.5421
38.3924,79.5753
38.4178,79.5938
38.5690,79.7450
38.6947,79.9180
38.6971,79.9227
38.7451,79.9735
38.8129,79.9903
38.8790,79.9677
38.9150,79.9262
38.9156,79.9266
38.9180,79.9228
38.9181,79.9227
38.9182,79.9224
38.9575,79.8683
38.9575,79.8683
39.7192,80.6300
39.7192,80.6300
38.9575,81.3917
38.9575,81.3917
38.9182,81.3376
38.9181,81.3373
38.9180,81.3373
38.9156,81.3334
38.9148,81.3339
38.8701,81.2865
38.8023,81.2697
38.7361,81.2923
38.6971,81.3373
38.6947,81.3420
38.5690,81.5150
38.4178,81.6662
38.2448,81.7919
38.1514,81.8395
38.0543,81.8890
38.0543,81.8890
37.9526,81.9220
37.8509,81.9550
37.6397,81.9885
37.6397,81.9885
37.4259,81.9885
37.4259,81.9885
37.2147,81.9550
37.0113,81.8890
36.8208,81.7919
36.6478,81.6662
36.5426,81.5610
36.4813,81.5275
36.4116,81.5325
36.3557,81.5744
36.3388,81.6054
36.2937,81.7262
36.2937,81.7262
36.2061,81.8433
36.0890,81.9309
35.9520,81.9820
35.9247,81.9849
35.8915,81.9885
35.8914,81.9885
34.0942,81.9885
34.0941,81.9885
34.0671,81.9856
34.0336,81.9820
33.8966,81.9309
33.7795,81.8433
33.6919,81.7262
33.6408,81.5892
33.6365,81.5492
33.6098,81.4847
33.5524,81.4448
33.5132,81.4385
11.3432,81.4385
11.3432,81.4385
11.1870,81.4074
11.1134,81.3770
11.0398,81.3465
10.9074,81.2580
8.3942,78.7448
8.3329,78.7113
8.3065,78.7085
8.0398,78.7085
8.0398,78.7085
7.8364,78.6763
7.6405,78.6126
7.4570,78.5191
7.2904,78.3981
7.1447,78.2524
7.0237,78.0858
6.9302,77.9023
6.8665,77.7064
6.8343,77.5030
6.8343,77.2970
6.8356,77.2891
6.8665,77.0936
6.9188,76.9326
6.9302,76.8977
6.9302,76.8977
6.9302,76.8977
6.9641,76.8311
7.0237,76.7142
7.1392,76.5552
7.1447,76.5476
7.1447,76.5476
7.2904,76.4019
7.2904,76.4019
7.4570,76.2809
7.4570,76.2809
7.4570,76.2809
7.5363,76.2405
7.5871,76.1925
7.6038,76.1247
7.5813,76.0586
7.5363,76.0195
7.4570,75.9791
7.2904,75.8581
7.1447,75.7124
7.1447,75.7124
7.1443,75.7120
7.1441,75.7118
7.1413,75.7090
7.1407,75.7096
7.0858,75.6738
7.0500,75.6685
6.7732,75.6685
6.7732,75.6685
6.6170,75.6374
6.5392,75.6052
6.4698,75.5765
6.3374,75.4880
4.3648,73.5154
4.2763,73.3830
4.2458,73.3094
4.2154,73.2358
4.1843,73.0796
4.1843,37.0858
4.1843,37.0857
4.1843,36.9204
4.2154,36.7642
4.2154,36.7642
4.2154,36.7642
4.2154,36.7642
4.2763,36.6170
4.2763,36.6170
4.3648,36.4846
4.3648,36.4846
7.4044,33.4450
7.4379,33.3837
7.4392,33.3379
7.4343,33.3069
7.4343,33.0931
7.4678,32.8819
7.5032,32.7727
7.5338,32.6785
7.5338,32.6785
7.6309,32.4880
7.6795,32.4211
7.7566,32.3150
7.9078,32.1638
8.0808,32.0381
8.0808,32.0381
8.0847,32.0357
8.1315,31.9839
8.1430,31.9150
8.1153,31.8508
8.0847,31.8243
8.0808,31.8219
8.0808,31.8219
8.0808,31.8219
7.9078,31.6962
7.7566,31.5450
7.6309,31.3720
7.5338,31.1815
7.4678,30.9781
7.4343,30.7669
7.4343,30.5531
7.4678,30.3419
7.5338,30.1385
7.5338,30.1385
7.6054,29.9981
7.6309,29.9480
7.7566,29.7750
7.9078,29.6238
8.0808,29.4981
8.1495,29.4631
8.2713,29.4010
8.2713,29.4010
8.4747,29.3350
8.5925,29.3163
8.6859,29.3015
8.8997,29.3015
8.9307,29.3064
9.0000,29.2975
9.0378,29.2716
10.1374,28.1720
10.1374,28.1720
10.2698,28.0835
10.2698,28.0835
10.2698,28.0835
10.3434,28.0530
10.3434,28.0530
10.3434,28.0530
10.4170,28.0226
10.4170,28.0226
10.5732,27.9915
10.5732,27.9915
16.4724,27.9915
16.4724,27.9915
16.6286,28.0226
16.6286,28.0226
16.6286,28.0226
16.6286,28.0226
16.7022,28.0530
16.7022,28.0530
16.7758,28.0835
16.7758,28.0835
16.9082,28.1720
16.9082,28.1720
17.6208,28.8846
17.7093,29.0170
17.7093,29.0170
17.7223,29.0485
17.7223,29.0485
17.7702,29.1642
17.7702,29.1642
17.8013,29.3204
17.8013,31.0450
17.8210,31.1121
17.8524,31.1453
17.8778,31.1638
18.0290,31.3150
18.1547,31.4880
18.2518,31.6785
18.2518,31.6785
18.3178,31.8819
18.3422,32.0357
18.3513,32.0931
18.3513,32.3069
18.3503,32.3133
18.3178,32.5181
18.2518,32.7215
18.2518,32.7215
18.1633,32.8951
18.1547,32.9120
18.0290,33.0850
17.8778,33.2362
17.7048,33.3619
17.6114,33.4095
17.5143,33.4590
17.5143,33.4590
17.4541,33.4785
17.3109,33.5250
17.0997,33.5585
17.0997,33.5585
16.8859,33.5585
16.8859,33.5585
16.6747,33.5250
16.4713,33.4590
16.2808,33.3619
16.1078,33.2362
16.0071,33.1355
15.9458,33.1020
15.8761,33.1070
15.8201,33.1489
15.7999,33.2002
15.7982,33.1998
15.7964,33.2074
15.7462,33.3421
15.7462,33.3421
15.6600,33.4572
15.6600,33.4572
15.5449,33.5433
15.5449,33.5434
15.4102,33.5936
15.4102,33.5936
15.3506,33.6000
15.3506,33.6000
14.7028,33.6000
14.2028,33.6000
13.5550,33.6000
13.5550,33.6000
13.4954,33.5936
13.4954,33.5936
13.3607,33.5434
13.3607,33.5433
13.2456,33.4572
13.2456,33.4572
13.1594,33.3421
13.1594,33.3421
13.1092,33.2074
13.1092,33.2074
13.1028,33.1478
13.1028,33.1478
13.1028,32.4500
14.2028,32.4500
14.2028,33.6000
14.7028,33.6000
14.7028,32.1602
14.6528,32.1602
14.6528,32.2398
14.6224,32.3133
14.5661,32.3696
14.4926,32.4000
14.4130,32.4000
14.3395,32.3696
14.2832,32.3133
14.2528,32.2398
14.2528,32.1602
14.2832,32.0867
14.3395,32.0304
14.4130,32.0000
14.4926,32.0000
14.5661,32.0304
14.6224,32.0867
14.6528,32.1602
14.7028,32.1602
14.7028,31.9500
14.2028,31.9500
13.1028,31.9500
13.1028,31.2522
13.1028,31.2522
13.1092,31.1926
13.1092,31.1926
13.1594,31.0579
13.1594,31.0579
13.2456,30.9428
13.2456,30.9428
13.3607,30.8566
13.3607,30.8566
13.4954,30.8064
13.4954,30.8064
13.5550,30.8000
14.2028,30.8000
14.2028,31.9500
14.7028,31.9500
14.7028,30.8000
15.3506,30.8000
15.4102,30.8064
15.4102,30.8064
15.5449,30.8566
15.5449,30.8566
15.6600,30.9428
15.6600,30.9428
15.7462,31.0579
15.7462,31.0579
15.7964,31.1926
15.7982,31.2002
15.8001,31.1997
15.8013,31.2026
15.8018,31.2162
15.8144,31.2343
15.8229,31.2546
15.8340,31.2624
15.8418,31.2735
15.8622,31.2819
15.8803,31.2945
15.8939,31.2950
15.9064,31.3001
15.9281,31.2962
15.9501,31.2970
15.9633,31.2897
15.9752,31.2876
16.0000,31.2696
16.0041,31.2674
16.0056,31.2660
16.1078,31.1638
16.1394,31.1408
16.1450,31.1356
16.1590,31.1118
16.1759,31.0900
16.1777,31.0802
16.1805,31.0754
16.1802,31.0669
16.1843,31.0450
16.1843,29.7863
16.1646,29.7192
16.1480,29.6986
16.0942,29.6448
16.0329,29.6113
16.0065,29.6085
11.0391,29.6085
10.9720,29.6282
10.9514,29.6448
10.1812,30.4150
10.1477,30.4763
10.1464,30.5221
10.1513,30.5531
10.1513,30.5531
10.1513,30.7669
10.1178,30.9781
10.0518,31.1815
10.0518,31.1815
9.9547,31.3720
9.8290,31.5450
9.6778,31.6962
9.5048,31.8219
9.5009,31.8243
9.4541,31.8761
9.4426,31.9450
9.4703,32.0092
9.5009,32.0357
9.5048,32.0381
9.6778,32.1638
9.8290,32.3150
9.9547,32.4880
10.0518,32.6785
10.0518,32.6785
10.1178,32.8819
10.1363,32.9986
10.1513,33.0931
10.1513,33.3069
10.1457,33.3421
10.1178,33.5181
10.0518,33.7215
10.0518,33.7215
9.9630,33.8957
9.9547,33.9120
9.8290,34.0850
9.6778,34.2362
9.5048,34.3619
9.4666,34.3814
9.3143,34.4590
9.3143,34.4590
9.2126,34.4920
9.1109,34.5250
8.8997,34.5585
8.8997,34.5585
8.6859,34.5585
8.6859,34.5585
8.6549,34.5536
8.5856,34.5625
8.5478,34.5884
5.8376,37.2986
5.8041,37.3599
5.8013,37.3863
5.8013,72.6137
5.8210,72.6808
5.8376,72.7014
7.0566,73.9204
7.1179,73.9539
7.1876,73.9489
7.2319,73.9204
7.2904,73.8619
7.2904,73.8619
7.4570,73.7409
7.4570,73.7409
7.4570,73.7409
7.5363,73.7005
7.5871,73.6525
7.6038,73.5847
7.5813,73.5186
7.5363,73.4795
7.4570,73.4391
7.2904,73.3181
7.1447,73.1724
7.0237,73.0058
6.9302,72.8223
6.8665,72.6264
6.8343,72.4230
6.8343,72.2170
6.8410,72.1745
6.8665,72.0136
6.8961,71.9227
6.9302,71.8177
6.9302,71.8177
6.9302,71.8177
6.9641,71.7511
7.0237,71.6342
7.0875,71.5464
7.1447,71.4676
7.1447,71.4676
7.2904,71.3219
7.2904,71.3219
7.4570,71.2009
7.4570,71.2009
7.4570,71.2009
7.5363,71.1605
7.5871,71.1125
7.6038,71.0447
7.5813,70.9786
7.5363,70.9395
7.4570,70.8991
7.2904,70.7781
7.1447,70.6324
7.0237,70.4658
6.9302,70.2823
6.8665,70.0864
6.8343,69.8830
6.8343,69.6770
6.8665,69.4736
6.9302,69.2777
6.9302,69.2777
6.9302,69.2777
6.9641,69.2111
7.0237,69.0942
7.1392,68.9352
7.1447,68.9276
7.1447,68.9276
7.2904,68.7819
7.2904,68.7819
7.4570,68.6609
7.4570,68.6609
7.4570,68.6609
7.5363,68.6205
7.5871,68.5725
7.6038,68.5047
7.5813,68.4386
7.5363,68.3995
7.4570,68.3591
7.2904,68.2381
7.1447,68.0924
7.0237,67.9258
6.9302,67.7423
6.8665,67.5464
6.8343,67.3430
6.8343,67.1370
6.8665,66.9336
6.9302,66.7377
6.9302,66.7377
6.9302,66.7377
6.9673,66.6648
7.0237,66.5542
7.0597,66.5045
7.1447,66.3876
7.1447,66.3876
7.2904,66.2419
7.2904,66.2419
7.4570,66.1209
7.4570,66.1209
7.4570,66.1209
7.5363,66.0805
7.5871,66.0325
7.6038,65.9647
7.5813,65.8986
7.5363,65.8595
7.4570,65.8191
7.2904,65.6981
7.1447,65.5524
7.0237,65.3858
6.9302,65.2023
6.8665,65.0064
6.8343,64.8030
6.8343,64.5970
6.8665,64.3936
6.9302,64.1977
6.9302,64.1977
6.9302,64.1977
6.9641,64.1311
7.0237,64.0142
7.0391,63.9929
7.1447,63.8476
7.1447,63.8476
7.2904,63.7019
7.2904,63.7019
7.4570,63.5809
7.4570,63.5809
7.4570,63.5809
7.5363,63.5405
7.5871,63.4925
7.6038,63.4247
7.5813,63.3586
7.5363,63.3195
7.5251,63.3138
7.4570,63.2791
7.2904,63.1581
7.1447,63.0124
7.0237,62.8458
6.9302,62.6623
6.8665,62.4664
6.8343,62.2630
6.8343,62.0570
6.8513,61.9494
6.8665,61.8536
6.9302,61.6577
6.9895,61.5412
7.0237,61.4742
7.0731,61.4062
7.1447,61.3076
7.1447,61.3076
7.2904,61.1619
7.2904,61.1619
7.4570,61.0409
7.4570,61.0409
7.4570,61.0409
7.5363,61.0005
7.5871,60.9525
7.6038,60.8847
7.5813,60.8186
7.5363,60.7795
7.4570,60.7391
7.2904,60.6181
7.1447,60.4724
7.0237,60.3058
6.9302,60.1223
6.8665,59.9264
6.8343,59.7230
6.8343,59.5170
6.8665,59.3136
6.9302,59.1177
6.9302,59.1177
6.9302,59.1177
6.9641,59.0511
7.0237,58.9342
7.1097,58.8157
7.1447,58.7676
7.1447,58.7676
7.2904,58.6219
7.2904,58.6219
7.4570,58.5009
7.4570,58.5009
7.4570,58.5009
7.5363,58.4605
7.5871,58.4125
7.6038,58.3447
7.5813,58.2786
7.5363,58.2395
7.4570,58.1991
7.2904,58.0781
7.1447,57.9324
7.0237,57.7658
6.9302,57.5823
6.8665,57.3864
6.8343,57.1830
6.8343,56.9770
6.8665,56.7736
6.9302,56.5777
6.9840,56.4720
7.0237,56.3942
7.0710,56.3291
7.1447,56.2276
7.1447,56.2276
7.2904,56.0819
7.2904,56.0819
7.4570,55.9609
7.4570,55.9609
7.4570,55.9609
7.5363,55.9205
7.5871,55.8725
7.6038,55.8047
7.5813,55.7386
7.5363,55.6995
7.4570,55.6591
7.2904,55.5381
7.1447,55.3924
7.0237,55.2258
6.9302,55.0423
6.8665,54.8464
6.8343,54.6430
6.8343,54.4370
6.8551,54.3054
6.8665,54.2336
6.8998,54.1311
6.9302,54.0377
6.9302,54.0377
6.9302,54.0377
6.9830,53.9341
7.0237,53.8542
7.0519,53.8154
7.1447,53.6876
7.1447,53.6876
7.2904,53.5419
7.2904,53.5419
7.4570,53.4209
7.4570,53.4209
7.4570,53.4209
7.5363,53.3805
7.5871,53.3325
7.6038,53.2647
7.5813,53.1986
7.5363,53.1595
7.4570,53.1191
7.2904,52.9981
7.1447,52.8524
7.0237,52.6858
6.9302,52.5023
6.8665,52.3064
6.8343,52.1030
6.8343,51.8970
6.8587,51.7429
6.8665,51.6936
6.8961,51.6027
6.9302,51.4977
6.9302,51.4977
6.9302,51.4977
6.9695,51.4206
7.0237,51.3142
7.1392,51.1552
7.1447,51.1476
7.1447,51.1476
7.2904,51.0019
7.2904,51.0019
7.4570,50.8809
7.4570,50.8809
7.4570,50.8809
7.5363,50.8405
7.5871,50.7925
7.6038,50.7247
7.5813,50.6586
7.5363,50.6195
7.4570,50.5791
7.2904,50.4581
7.1447,50.3124
7.0237,50.1458
6.9302,49.9623
6.8665,49.7664
6.8343,49.5630
6.8343,49.3570
6.8446,49.2919
6.8665,49.1536
6.9302,48.9577
6.9878,48.8445
7.0237,48.7742
7.1099,48.6555
7.1447,48.6076
7.1447,48.6076
7.2904,48.4619
7.2904,48.4619
7.4570,48.3409
7.4570,48.3409
7.4570,48.3409
7.5363,48.3005
7.5871,48.2525
7.6038,48.1847
7.5813,48.1186
7.5363,48.0795
7.4570,48.0391
7.2904,47.9181
7.1447,47.7724
7.0237,47.6058
6.9302,47.4223
6.8665,47.2264
6.8343,47.0230
6.8343,46.8170
6.8665,46.6136
6.9302,46.4177
6.9302,46.4177
6.9302,46.4177
6.9641,46.3511
7.0237,46.2342
7.0391,46.2129
7.1447,46.0676
7.1447,46.0676
7.2904,45.9219
7.2904,45.9219
7.4570,45.8009
7.4570,45.8009
7.4570,45.8009
7.5363,45.7605
7.5456,45.7557
7.5964,45.7077
7.6132,45.6399
7.5907,45.5738
7.5456,45.5347
7.4615,45.4919
7.2959,45.3716
7.2959,45.3716
7.1512,45.2269
7.1512,45.2269
7.0309,45.0613
6.9380,44.8790
6.8748,44.6844
6.8662,44.6300
9.5194,44.6300
9.5108,44.6844
9.4476,44.8790
9.3547,45.0613
9.2344,45.2269
9.2344,45.2269
9.0897,45.3716
8.9241,45.4919
8.8400,45.5347
8.7892,45.5827
8.7724,45.6505
8.7949,45.7167
8.8400,45.7557
8.9286,45.8009
9.0952,45.9219
9.0952,45.9219
9.2409,46.0676
9.2409,46.0676
9.3619,46.2342
9.4554,46.4177
9.5191,46.6136
9.5513,46.8170
9.5513,47.0230
9.5191,47.2264
9.4554,47.4223
9.3619,47.6058
9.2409,47.7724
9.2409,47.7724
9.0952,47.9181
9.0952,47.9181
8.9286,48.0391
8.8493,48.0795
8.7985,48.1275
8.7818,48.1953
8.8043,48.2614
8.8493,48.3005
8.9286,48.3409
9.0952,48.4619
9.0952,48.4619
9.2409,48.6076
9.2409,48.6076
9.3619,48.7742
9.4554,48.9577
9.5191,49.1536
9.5513,49.3570
9.5513,49.5630
9.5191,49.7664
9.4554,49.9623
9.3619,50.1458
9.2409,50.3124
9.2409,50.3124
9.0952,50.4581
9.0952,50.4581
8.9286,50.5791
8.8493,50.6195
8.7985,50.6675
8.7818,50.7353
8.8043,50.8014
8.8493,50.8405
8.9286,50.8809
9.0952,51.0019
9.0952,51.0019
9.2409,51.1476
9.2409,51.1476
9.3619,51.3142
9.4554,51.4977
9.5191,51.6936
9.5450,51.8572
9.5513,51.8970
9.5513,52.1030
9.5491,52.1168
9.5191,52.3064
9.4554,52.5023
9.4163,52.5791
9.3689,52.6722
9.3619,52.6858
9.2409,52.8524
9.2409,52.8524
9.0952,52.9981
9.0952,52.9981
8.9286,53.1191
8.8493,53.1595
8.7985,53.2075
8.7818,53.2753
8.8043,53.3414
8.8493,53.3805
8.9286,53.4209
9.0952,53.5419
9.0952,53.5419
9.2409,53.6876
9.2409,53.6876
9.3619,53.8542
9.4554,54.0377
9.5191,54.2336
9.5513,54.4370
9.5513,54.6430
9.5191,54.8464
9.4554,55.0423
9.3619,55.2258
9.2409,55.3924
9.2409,55.3924
9.0952,55.5381
9.0952,55.5381
8.9286,55.6591
8.8493,55.6995
8.7985,55.7475
8.7818,55.8153
8.8043,55.8814
8.8493,55.9205
8.9286,55.9609
9.0952,56.0819
9.0952,56.0819
9.2409,56.2276
9.2409,56.2276
9.3619,56.3942
9.4554,56.5777
9.5191,56.7736
9.5513,56.9770
9.5513,57.1830
9.5191,57.3864
9.4554,57.5823
9.4358,57.6209
9.3766,57.7370
9.3619,57.7658
9.2409,57.9324
9.2409,57.9324
9.0952,58.0781
9.0952,58.0781
8.9286,58.1991
8.8493,58.2395
8.7985,58.2875
8.7818,58.3553
8.8043,58.4214
8.8493,58.4605
8.9286,58.5009
9.0952,58.6219
9.0952,58.6219
9.2409,58.7676
9.2409,58.7676
9.3619,58.9342
9.4554,59.1177
9.5191,59.3136
9.5513,59.5170
9.5513,59.7230
9.5191,59.9264
9.4554,60.1223
9.3619,60.3058
9.2409,60.4724
9.2409,60.4724
9.0952,60.6181
9.0952,60.6181
8.9286,60.7391
8.8493,60.7795
8.7985,60.8275
8.7818,60.8953
8.8043,60.9614
8.8493,61.0005
8.9286,61.0409
9.0952,61.1619
9.0952,61.1619
9.2409,61.3076
9.2409,61.3076
9.3619,61.4742
9.4554,61.6577
9.5191,61.8536
9.5459,62.0229
9.5513,62.0570
9.5513,62.2630
9.5469,62.2908
9.5191,62.4664
9.4554,62.6623
9.4005,62.7701
9.3728,62.8244
9.3619,62.8458
9.2409,63.0124
9.2409,63.0124
9.0952,63.1581
9.0952,63.1581
8.9286,63.2791
8.8493,63.3195
8.7985,63.3675
8.7818,63.4353
8.8043,63.5014
8.8493,63.5405
8.9286,63.5809
9.0952,63.7019
9.0952,63.7019
9.2409,63.8476
9.2409,63.8476
9.3619,64.0142
9.4554,64.1977
9.5191,64.3936
9.5513,64.5970
9.5513,64.8030
9.5191,65.0064
9.4554,65.2023
9.3619,65.3858
9.2409,65.5524
9.2409,65.5524
9.0952,65.6981
9.0952,65.6981
8.9286,65.8191
8.8493,65.8595
8.7985,65.9075
8.7818,65.9753
8.8043,66.0414
8.8493,66.0805
8.9286,66.1209
9.0952,66.2419
9.0952,66.2419
9.2409,66.3876
9.2409,66.3876
9.3619,66.5542
9.4554,66.7377
9.5191,66.9336
9.5513,67.1370
9.5513,67.3430
9.5191,67.5464
9.4554,67.7423
9.4159,67.8198
9.3660,67.9178
9.3619,67.9258
9.2409,68.0924
9.2409,68.0924
9.0952,68.2381
9.0952,68.2381
8.9286,68.3591
8.8493,68.3995
8.7985,68.4475
8.7818,68.5153
8.8043,68.5814
8.8493,68.6205
8.9286,68.6609
9.0952,68.7819
9.0952,68.7819
9.2409,68.9276
9.2409,68.9276
9.3619,69.0942
9.4554,69.2777
9.5191,69.4736
9.5513,69.6770
9.5513,69.8830
9.5191,70.0864
9.4554,70.2823
9.4020,70.3872
9.3642,70.4614
9.3619,70.4658
9.2409,70.6324
9.2409,70.6324
9.0952,70.7781
9.0952,70.7781
8.9286,70.8991
8.8493,70.9395
8.7985,70.9875
8.7818,71.0553
8.8043,71.1214
8.8493,71.1605
8.9286,71.2009
9.0952,71.3219
9.0952,71.3219
9.2409,71.4676
9.2409,71.4676
9.3619,71.6342
9.4554,71.8177
9.5191,72.0136
9.5513,72.2170
9.5513,72.4230
9.5191,72.6264
9.4554,72.8223
9.3619,73.0058
9.2409,73.1724
9.2409,73.1724
9.0952,73.3181
9.0952,73.3181
8.9286,73.4391
8.8493,73.4795
8.7985,73.5275
8.7818,73.5953
8.8043,73.6614
8.8493,73.7005
8.9286,73.7409
9.0952,73.8619
9.0952,73.8619
9.2409,74.0076
9.2409,74.0076
9.3619,74.1742
9.4554,74.3577
9.5191,74.5536
9.5513,74.7570
9.5513,74.9630
9.5191,75.1664
9.4554,75.3623
9.3619,75.5458
9.2409,75.7124
9.2409,75.7124
9.0952,75.8581
9.0952,75.8581
8.9286,75.9791
8.8493,76.0195
8.7985,76.0675
8.7818,76.1353
8.8043,76.2014
8.8493,76.2405
8.9286,76.2809
9.0952,76.4019
9.0952,76.4019
9.2409,76.5476
9.2409,76.5476
9.3619,76.7142
9.4554,76.8977
9.5191,77.0936
9.5513,77.2970
9.5513,77.5030
9.5513,77.5030
9.5459,77.5374
9.5548,77.6067
9.5806,77.6445
11.7214,79.7852
11.7827,79.8187
11.8091,79.8215
33.5132,79.8215
33.5803,79.8018
33.6260,79.7490
33.6365,79.7108
33.6408,79.6708
33.6408,79.6708
33.6695,79.5938
33.6919,79.5338
33.7795,79.4167
33.8966,79.3291
34.0336,79.2780
34.0941,79.2715
34.0942,79.2715
35.8914,79.2715
35.8915,79.2715
35.9520,79.2780
35.9520,79.2780
36.0890,79.3291
36.2061,79.4167
36.2937,79.5338
36.3388,79.6546
36.3585,79.6810
36.3775,79.7081
36.3794,79.7089
36.3806,79.7106
36.4116,79.7221
36.4421,79.7346
36.4441,79.7342
36.4461,79.7350
36.4783,79.7280
36.5108,79.7220
36.5130,79.7204
36.5144,79.7201
36.5397,79.7018
36.5412,79.7004
36.6478,79.5938
36.6795,79.5708
36.6851,79.5655
36.6991,79.5418
36.7159,79.5200
36.7177,79.5101
36.7206,79.5053
36.7202,79.4968
36.7243,79.4750
36.7243,77.1432
36.7046,77.0761
36.6732,77.0428
36.6478,77.0244
36.5426,76.9192
36.4813,76.8857
36.4116,76.8907
36.3557,76.9326
36.3388,76.9636
36.2937,77.0844
36.2834,77.0982
36.2061,77.2014
36.0890,77.2891
35.9520,77.3402
35.9247,77.3431
35.8915,77.3467
35.8914,77.3467
34.8291,77.3467
34.7620,77.3664
34.7414,77.3830
34.0964,78.0280
34.0964,78.0280
34.0099,78.0858
33.9639,78.1165
33.9352,78.1284
33.8615,78.1589
33.8168,78.1774
33.6606,78.2085
33.6606,78.2085
33.6606,78.2085
24.5756,78.2085
24.5085,78.2282
24.4845,78.2492
24.4843,78.2490
24.4818,78.2515
24.4813,78.2520
24.4809,78.2524
24.3352,78.3981
24.3352,78.3981
24.1899,78.5037
24.1686,78.5191
24.0517,78.5787
23.9851,78.6126
23.9851,78.6126
23.9851,78.6126
23.8801,78.6467
23.7892,78.6763
23.6875,78.6924
23.5858,78.7085
23.5858,78.7085
23.2798,78.7085
23.2798,78.7085
23.0764,78.6763
22.8805,78.6126
22.6970,78.5191
22.5304,78.3981
22.3847,78.2524
22.2637,78.0858
22.1702,77.9023
22.1065,77.7064
22.0743,77.5030
22.0743,77.2970
22.0756,77.2891
22.1065,77.0936
22.1588,76.9326
22.1702,76.8977
22.1702,76.8977
22.1702,76.8977
22.2041,76.8311
22.2637,76.7142
22.3792,76.5552
22.3847,76.5476
22.3847,76.5476
22.5304,76.4019
22.5304,76.4019
22.6970,76.2809
22.6970,76.2809
22.6970,76.2809
22.7763,76.2405
22.8271,76.1925
22.8438,76.1247
22.8213,76.0586
22.7763,76.0195
22.6970,75.9791
22.5304,75.8581
22.3847,75.7124
22.2637,75.5458
22.1702,75.3623
22.1065,75.1664
22.0743,74.9630
22.0743,74.7570
22.1065,74.5536
22.1702,74.3577
22.1702,74.3577
22.1702,74.3577
22.2041,74.2911
22.2637,74.1742
22.3792,74.0152
22.3847,74.0076
22.3847,74.0076
22.5304,73.8619
22.5304,73.8619
22.6970,73.7409
22.6970,73.7409
22.6970,73.7409
22.7763,73.7005
22.8271,73.6525
22.8438,73.5847
22.8213,73.5186
22.7763,73.4795
22.6970,73.4391
22.5304,73.3181
22.3847,73.1724
22.2637,73.0058
22.1702,72.8223
22.1065,72.6264
22.0743,72.4230
22.0743,72.2170
22.0810,72.1745
22.1065,72.0136
22.1361,71.9227
22.1702,71.8177
22.1702,71.8177
22.1702,71.8177
22.2041,71.7511
22.2637,71.6342
22.3275,71.5464
22.3847,71.4676
22.3847,71.4676
22.5304,71.3219
22.5304,71.3219
22.6970,71.2009
22.6970,71.2009
22.6970,71.2009
22.7763,71.1605
22.8271,71.1125
22.8438,71.0447
22.8213,70.9786
22.7763,70.9395
22.6970,70.8991
22.5304,70.7781
22.3847,70.6324
22.2637,70.4658
22.1702,70.2823
22.1065,70.0864
22.0743,69.8830
22.0743,69.6770
22.1065,69.4736
22.1702,69.2777
22.1702,69.2777
22.1702,69.2777
22.2041,69.2111
22.2637,69.0942
22.3792,68.9352
22.3847,68.9276
22.3847,68.9276
22.5304,68.7819
22.5304,68.7819
22.6970,68.6609
22.6970,68.6609
22.6970,68.6609
22.7763,68.6205
22.8271,68.5725
22.8438,68.5047
22.8213,68.4386
22.7763,68.3995
22.6970,68.3591
22.5304,68.2381
22.3847,68.0924
22.2637,67.9258
22.1702,67.7423
22.1065,67.5464
22.0743,67.3430
22.0743,67.1370
22.1065,66.9336
22.1702,66.7377
22.1702,66.7377
22.1702,66.7377
22.2073,66.6648
22.2637,66.5542
22.2997,66.5045
22.3847,66.3876
22.3847,66.3876
22.5304,66.2419
22.5304,66.2419
22.6970,66.1209
22.6970,66.1209
22.6970,66.1209
22.7763,66.0805
22.8271,66.0325
22.8438,65.9647
22.8213,65.8986
22.7763,65.8595
22.6970,65.8191
22.5304,65.6981
22.3847,65.5524
22.2637,65.3858
22.1702,65.2023
22.1065,65.0064
22.0743,64.8030
22.0743,64.5970
22.1065,64.3936
22.1702,64.1977
22.1702,64.1977
22.1702,64.1977
22.2041,64.1311
22.2637,64.0142
22.2791,63.9929
22.3847,63.8476
22.3847,63.8476
22.5304,63.7019
22.5304,63.7019
22.6970,63.5809
22.6970,63.5809
22.6970,63.5809
22.7763,63.5405
22.8271,63.4925
22.8438,63.4247
22.8213,63.3586
22.7763,63.3195
22.7651,63.3138
22.6970,63.2791
22.5304,63.1581
22.3847,63.0124
22.2637,62.8458
22.1702,62.6623
22.1065,62.4664
22.0743,62.2630
22.0743,62.0570
22.0913,61.9494
22.1065,61.8536
22.1702,61.6577
22.2295,61.5412
22.2637,61.4742
22.3131,61.4062
22.3847,61.3076
22.3847,61.3076
22.5304,61.1619
22.5304,61.1619
22.6970,61.0409
22.6970,61.0409
22.6970,61.0409
22.7763,61.0005
22.8271,60.9525
22.8438,60.8847
22.8213,60.8186
22.7763,60.7795
22.6970,60.7391
22.5304,60.6181
22.3847,60.4724
22.2637,60.3058
22.1702,60.1223
22.1065,59.9264
22.0743,59.7230
22.0743,59.5170
22.0797,59.4826
22.0708,59.4133
22.0450,59.3755
17.9648,55.2954
17.8763,55.1630
17.8154,55.0158
17.7843,54.8596
17.7843,54.7004
17.7843,44.3402
8.3928,44.3402
8.3928,44.4198
8.3624,44.4933
8.3061,44.5496
8.2326,44.5800
8.1530,44.5800
8.0795,44.5496
8.0232,44.4933
7.9928,44.4198
7.9928,44.3402
8.0232,44.2667
8.0795,44.2104
8.1530,44.1800
8.2326,44.1800
8.3061,44.2104
8.3624,44.2667
8.3928,44.3402
17.7843,44.3402
17.7843,39.9204
17.8154,39.7642
17.8458,39.6906
17.8458,39.6906
17.8458,39.6906
17.8763,39.6170
17.8763,39.6170
17.8763,39.6170
17.8774,39.6154
17.9648,39.4846
20.8774,36.5720
20.8774,36.5720
21.0098,36.4835
21.0098,36.4835
21.0098,36.4835
21.0834,36.4530
21.0834,36.4530
21.0834,36.4530
21.1570,36.4226
21.1570,36.4226
21.3132,36.3915
21.3132,36.3915
28.2065,36.3915
28.2736,36.3718
28.2942,36.3552
30.4341,34.2153
26.7545,34.2153
26.7545,34.2153
26.7004,34.2546
26.5110,34.3511
26.3089,34.4168
26.0990,34.4500
25.8866,34.4500
25.6767,34.4168
25.6767,34.4168
25.4746,34.3511
25.2852,34.2546
25.2311,34.2153
25.2311,34.2153
25.9928,33.4536
26.7545,34.2153
30.4341,34.2153
31.6557,32.9938
27.3428,32.9938
27.3428,33.2062
27.3096,33.4161
27.3096,33.4161
27.2439,33.6182
27.1474,33.8075
27.1081,33.8617
26.3464,33.1000
26.3861,33.0602
26.1928,33.0602
26.1928,33.1398
26.1624,33.2133
26.1061,33.2696
26.0326,33.3000
25.9530,33.3000
25.8795,33.2696
25.8232,33.2133
25.7928,33.1398
25.7928,33.0602
25.8232,32.9867
25.8795,32.9304
25.9530,32.9000
26.0326,32.9000
26.1061,32.9304
26.1624,32.9867
26.1928,33.0602
26.3861,33.0602
27.1081,32.3383
27.1081,32.3383
27.1474,32.3924
27.2439,32.5818
27.3096,32.7839
27.3096,32.7839
27.3428,32.9938
31.6557,32.9938
33.7406,30.9088
33.7741,30.8474
33.7691,30.7778
33.7522,30.7468
33.6919,30.6662
33.6919,30.6662
33.6903,30.6618
33.6408,30.5292
33.6351,30.4763
33.6343,30.4687
33.6343,30.4686
33.6343,28.6714
33.6343,28.6713
33.6378,28.6390
33.6408,28.6108
33.6468,28.5946
33.6695,28.5338
33.6919,28.4738
33.7795,28.3567
33.8966,28.2691
34.0336,28.2180
34.0941,28.2115
34.0942,28.2115
35.8914,28.2115
35.8915,28.2115
35.9520,28.2180
35.9520,28.2180
36.0890,28.2691
36.2061,28.3567
36.2937,28.4738
36.3388,28.5946
36.3806,28.6506
36.4461,28.6750
36.5144,28.6601
36.5426,28.6390
36.6278,28.5538
36.6613,28.4924
36.6563,28.4228
36.6278,28.3784
33.0942,24.8448
33.0329,24.8113
33.0065,24.8085
27.9132,24.8085
27.9132,24.8085
27.7570,24.7774
27.6834,24.7470
27.6098,24.7165
27.4774,24.6280
25.9648,23.1154
25.8763,22.9830
25.8458,22.9094
25.8154,22.8358
25.7843,22.6796
25.7843,21.9550
25.7751,21.9238
25.7672,21.8922
25.7652,21.8900
25.7646,21.8879
25.7452,21.8646
25.7395,21.8593
25.7078,21.8362
25.5946,21.7230
25.5933,21.7218
25.5637,21.7068
25.5347,21.6909
25.5327,21.6911
25.5309,21.6902
25.4980,21.6936
25.4650,21.6959
25.4634,21.6971
25.4614,21.6973
25.4356,21.7180
25.4091,21.7378
25.4078,21.7401
25.4068,21.7409
25.4059,21.7436
25.3921,21.7688
25.3462,21.8921
25.3462,21.8921
25.2600,22.0072
25.2600,22.0072
25.1449,22.0933
25.1449,22.0934
25.0102,22.1436
25.0102,22.1436
24.9506,22.1500
24.9506,22.1500
24.3028,22.1500
23.8028,22.1500
23.1550,22.1500
23.1550,22.1500
23.0954,22.1436
23.0954,22.1436
22.9607,22.0934
22.9607,22.0933
22.8456,22.0072
22.8456,22.0072
22.7594,21.8921
22.7594,21.8921
22.7092,21.7574
22.7092,21.7574
22.7028,21.6978
22.7028,21.6978
22.7028,20.9000
23.8028,20.9000
23.8028,22.1500
24.3028,22.1500
24.3028,20.6102
24.2528,20.6102
24.2528,20.6898
24.2224,20.7633
24.1661,20.8196
24.0926,20.8500
24.0130,20.8500
23.9395,20.8196
23.8832,20.7633
23.8528,20.6898
23.8528,20.6102
23.8832,20.5367
23.9395,20.4804
24.0130,20.4500
24.0926,20.4500
24.1661,20.4804
24.2224,20.5367
24.2528,20.6102
24.3028,20.6102
24.3028,20.4000
23.8028,20.4000
22.7028,20.4000
22.7028,19.6022
22.7028,19.6022
22.7092,19.5426
22.7092,19.5426
22.7594,19.4079
22.7594,19.4079
22.8456,19.2928
22.8456,19.2928
22.9607,19.2066
22.9607,19.2066
23.0954,19.1564
23.0954,19.1564
23.1550,19.1500
23.8028,19.1500
23.8028,20.4000
24.3028,20.4000
24.3028,19.1500
24.9506,19.1500
25.0102,19.1564
25.0102,19.1564
25.1449,19.2066
25.1449,19.2066
25.2600,19.2928
25.2600,19.2928
25.3462,19.4079
25.3462,19.4079
25.3921,19.5312
25.4340,19.5872
25.4995,19.6116
25.5678,19.5967
25.5960,19.5756
25.7078,19.4638
25.7078,19.4638
25.8808,19.3381
26.0713,19.2410
26.0713,19.2410
26.2747,19.1750
26.3918,19.1564
26.4859,19.1415
26.6997,19.1415
26.7701,19.1526
26.9109,19.1750
27.1143,19.2410
27.1143,19.2410
27.3048,19.3381
27.4778,19.4638
27.6290,19.6150
27.7547,19.7880
27.7571,19.7919
27.8089,19.8387
27.8778,19.8502
27.9420,19.8225
27.9685,19.7919
27.9709,19.7880
28.0072,19.7380
28.0966,19.6150
28.2478,19.4638
28.4208,19.3381
28.6113,19.2410
28.6113,19.2410
28.8147,19.1750
28.9318,19.1564
29.0259,19.1415
29.2397,19.1415
29.3101,19.1526
29.4509,19.1750
29.6543,19.2410
29.6543,19.2410
29.8448,19.3381
30.0178,19.4638
30.1690,19.6150
30.2947,19.7880
30.3918,19.9785
30.3918,19.9785
30.4578,20.1819
30.4913,20.3931
30.4913,20.8137
30.4999,20.8432
30.5065,20.8732
30.5102,20.8782
30.5110,20.8808
30.5276,20.9014
30.5614,20.9352
30.6227,20.9687
30.6491,20.9715
36.2019,20.9715
36.2689,20.9518
36.3074,20.9126
36.3107,20.9073
36.3107,20.9073
36.4038,20.7563
36.5291,20.6310
36.6229,20.5731
36.6801,20.5379
36.6801,20.5379
36.6801,20.5379
36.6894,20.5348
36.7093,20.5282
36.7668,20.4884
36.7936,20.4239
36.7943,20.4105
36.7943,14.3104
36.7943,14.3104
36.8254,14.1542
36.8432,14.1110
36.8558,14.0806
36.8558,14.0806
36.8863,14.0070
36.8863,14.0070
36.8863,14.0070
36.9679,13.8850
36.9748,13.8746
36.9748,13.8746
37.6044,13.2450
37.6379,13.1837
37.6392,13.1379
37.6343,13.1069
37.6343,12.8931
37.6392,12.8621
37.6303,12.7928
37.6044,12.7550
33.1942,8.3448
33.1329,8.3113
33.1065,8.3085
29.9623,8.3085
29.8953,8.3282
29.8495,8.3810
29.8446,8.3935
29.8349,8.4227
29.7418,8.5737
29.6165,8.6990
29.4655,8.7921
29.4655,8.7921
29.4602,8.7954
29.4135,8.8474
29.4013,8.9009
29.4013,10.4796
29.3702,10.6358
29.3702,10.6358
29.3398,10.7094
29.3398,10.7094
29.3093,10.7830
29.3093,10.7830
29.2208,10.9154
29.2208,10.9154
26.0251,14.1110
26.0251,14.1111
25.9082,14.2280
25.9082,14.2280
25.8618,14.2590
25.7849,14.3104
25.7758,14.3165
25.7758,14.3165
25.7327,14.3343
25.7327,14.3343
25.7327,14.3343
25.6286,14.3774
25.4724,14.4085
25.4724,14.4085
25.4724,14.4085
25.3132,14.4085
25.1081,14.4085
25.0410,14.4282
24.9953,14.4810
24.9853,14.5501
25.0143,14.6137
25.0352,14.6328
25.0778,14.6638
25.0778,14.6638
25.2290,14.8150
25.3547,14.9880
25.4518,15.1785
25.4518,15.1785
25.5178,15.3819
25.5513,15.5931
25.5513,15.8069
25.5178,16.0181
25.4518,16.2215
25.4518,16.2215
25.3547,16.4120
25.2290,16.5850
25.0778,16.7362
24.9048,16.8619
24.8114,16.9095
24.7143,16.9590
24.7143,16.9590
24.6324,16.9856
24.5396,17.0157
24.4902,17.0460
22.5082,19.0280
22.5082,19.0280
22.4132,19.0915
22.3758,19.1165
22.3105,19.1435
22.2286,19.1774
22.0818,19.2066
22.0724,19.2085
22.0724,19.2085
22.0724,19.2085
18.7791,19.2085
18.7120,19.2282
18.6914,19.2448
18.1933,19.7429
18.1599,19.8042
18.1648,19.8739
18.1705,19.8868
18.1918,19.9285
18.1918,19.9285
18.2578,20.1319
18.2913,20.3431
18.2913,20.8569
18.2887,20.8732
18.2578,21.0681
18.1918,21.2715
18.1918,21.2715
18.1206,21.4113
18.0947,21.4620
17.9690,21.6350
17.8178,21.7862
17.6448,21.9119
17.5709,21.9496
17.4543,22.0090
17.4543,22.0090
17.3526,22.0420
17.2509,22.0750
17.0397,22.1085
17.0397,22.1085
16.8259,22.1085
16.8259,22.1085
16.6147,22.0750
16.4113,22.0090
16.2208,21.9119
16.0478,21.7862
15.8966,21.6350
15.7709,21.4620
15.7709,21.4620
15.7685,21.4581
15.7167,21.4113
15.6478,21.3998
15.5836,21.4275
15.5571,21.4581
15.5547,21.4620
15.5435,21.4775
15.4290,21.6350
15.2778,21.7862
15.2524,21.8047
15.2097,21.8600
15.2013,21.9050
15.2013,22.2137
15.2210,22.2808
15.2376,22.3014
17.0914,24.1552
17.1527,24.1887
17.1791,24.1915
23.8724,24.1915
24.0286,24.2226
24.0286,24.2226
24.0286,24.2226
24.0286,24.2226
24.1022,24.2530
24.1022,24.2530
24.1758,24.2835
24.1758,24.2835
24.3082,24.3720
24.3082,24.3720
26.6208,26.6846
26.6208,26.6846
26.7093,26.8170
26.7093,26.8170
26.7398,26.8906
26.7398,26.8906
26.7702,26.9642
26.7702,26.9642
26.7702,26.9642
26.7702,26.9642
26.8013,27.1204
26.8013,29.1991
26.8210,29.2661
26.8602,29.3046
27.0164,29.4010
27.0165,29.4010
27.1418,29.5263
27.2349,29.6773
27.2349,29.6773
27.2907,29.8456
27.3013,29.9494
27.3013,31.2505
27.3013,31.2506
27.2907,31.3544
27.2349,31.5227
27.1418,31.6737
27.0165,31.7990
26.8655,31.8921
26.8425,31.8998
26.7850,31.9395
26.7746,31.9647
25.8160,32.9232
24.8775,33.8617
24.8775,33.8617
24.8382,33.8076
24.7417,33.6182
24.6760,33.4161
24.6760,33.4161
24.6428,33.2062
24.6428,32.9938
24.6760,32.7839
24.6760,32.7839
24.7417,32.5818
24.7886,32.4897
24.8015,32.4211
24.7752,32.3563
24.7181,32.3161
24.6483,32.3131
24.5904,32.3457
14.5851,42.3510
14.5851,42.3511
14.4682,42.4680
14.4682,42.4680
14.4682,42.4680
14.3888,42.5210
14.3358,42.5565
14.2927,42.5743
14.1886,42.6174
14.0324,42.6485
14.0324,42.6485
14.0324,42.6485
13.8732,42.6485
9.3356,42.6485
9.2685,42.6682
9.2445,42.6892
9.2443,42.6890
9.2418,42.6915
9.2413,42.6920
9.2409,42.6924
9.0952,42.8381
9.0952,42.8381
8.9499,42.9437
8.9286,42.9591
8.8400,43.0043
8.7892,43.0523
8.7724,43.1201
8.7949,43.1862
8.8400,43.2253
8.9241,43.2681
9.0897,43.3884
9.0897,43.3884
9.2344,43.5331
9.2344,43.5331
9.3547,43.6987
9.4476,43.8810
9.5108,44.0756
9.5194,44.1300
6.8662,44.1300
6.8748,44.0756
6.9380,43.8810
7.0309,43.6987
7.1512,43.5331
7.1512,43.5331
7.2959,43.3884
7.4615,43.2681
7.5456,43.2253
7.5964,43.1773
7.6132,43.1095
7.5907,43.0433
7.5456,43.0043
7.4570,42.9591
7.2904,42.8381
7.1447,42.6924
7.0237,42.5258
6.9302,42.3423
6.8665,42.1464
6.8343,41.9430
6.8343,41.7370
6.8665,41.5336
6.9302,41.3377
6.9302,41.3377
6.9302,41.3377
6.9641,41.2711
7.0237,41.1542
7.1392,40.9952
7.1447,40.9876
7.1447,40.9876
7.2904,40.8419
7.2904,40.8419
7.4570,40.7209
7.4570,40.7209
7.4570,40.7209
7.5353,40.6810
7.6405,40.6274
7.8364,40.5637
8.0120,40.5359
8.0398,40.5315
8.3458,40.5315
8.3703,40.5354
8.5492,40.5637
8.7451,40.6274
8.9286,40.7209
9.0952,40.8419
9.0952,40.8419
9.2409,40.9876
9.2413,40.9880
9.2415,40.9882
9.2443,40.9910
9.2449,40.9904
9.2998,41.0262
9.3356,41.0315
13.5665,41.0315
13.6336,41.0118
13.6542,40.9952
24.6513,29.9981
24.6848,29.9368
24.6870,29.9230
24.6949,29.8456
24.7507,29.6773
24.8438,29.5263
24.9691,29.4010
24.9692,29.4010
25.1254,29.3046
25.1721,29.2526
25.1843,29.1991
25.1843,27.5863
25.1646,27.5192
25.1480,27.4986
23.4942,25.8448
23.4329,25.8113
23.4065,25.8085
16.7132,25.8085
16.7132,25.8085
16.5570,25.7774
16.4834,25.7470
16.4098,25.7165
16.2774,25.6280
13.7648,23.1154
13.6763,22.9830
13.6154,22.8358
13.6052,22.7847
13.5843,22.6796
13.5843,22.5153
13.5843,22.5152
13.5843,21.9050
13.5751,21.8738
13.5672,21.8422
13.5652,21.8400
13.5646,21.8379
13.5452,21.8146
13.5395,21.8093
13.5078,21.7862
13.3946,21.6730
13.3933,21.6718
13.3637,21.6568
13.3347,21.6409
13.3327,21.6411
13.3309,21.6402
13.2980,21.6436
13.2650,21.6459
13.2634,21.6471
13.2614,21.6473
13.2356,21.6680
13.2091,21.6878
13.2078,21.6901
13.2068,21.6909
13.2059,21.6936
13.1921,21.7188
13.1462,21.8421
13.1462,21.8421
13.0600,21.9572
13.0600,21.9572
12.9449,22.0434
12.9449,22.0434
12.8102,22.0936
12.8102,22.0936
12.7506,22.1000
12.7506,22.1000
12.1028,22.1000
11.6028,22.1000
10.9550,22.1000
10.9550,22.1000
10.8954,22.0936
10.8954,22.0936
10.7607,22.0434
10.7607,22.0434
10.6456,21.9572
10.6456,21.9572
10.5595,21.8421
10.5594,21.8421
10.5092,21.7074
10.5092,21.7074
10.5028,21.6478
10.5028,21.6478
10.5028,20.8500
11.6028,20.8500
11.6028,22.1000
12.1028,22.1000
12.1028,20.5602
12.0528,20.5602
12.0528,20.6398
12.0224,20.7133
11.9661,20.7696
11.8926,20.8000
11.8130,20.8000
11.7395,20.7696
11.6832,20.7133
11.6528,20.6398
11.6528,20.5602
11.6832,20.4867
11.7395,20.4304
11.8130,20.4000
11.8926,20.4000
11.9661,20.4304
12.0224,20.4867
12.0528,20.5602
12.1028,20.5602
12.1028,20.3500
11.6028,20.3500
10.5028,20.3500
10.5028,19.5522
10.5028,19.5522
10.5092,19.4926
10.5092,19.4926
10.5594,19.3579
10.5595,19.3579
10.6456,19.2428
10.6456,19.2428
10.7607,19.1566
10.7607,19.1566
10.8954,19.1064
10.8954,19.1064
10.9550,19.1000
11.6028,19.1000
11.6028,20.3500
12.1028,20.3500
12.1028,19.1000
12.7506,19.1000
12.8102,19.1064
12.8102,19.1064
12.9449,19.1566
12.9449,19.1566
13.0600,19.2428
13.0600,19.2428
13.1462,19.3579
13.1462,19.3579
13.1921,19.4812
13.2340,19.5372
13.2995,19.5616
13.3678,19.5467
13.3960,19.5256
13.5078,19.4138
13.5078,19.4138
13.6808,19.2881
13.7657,19.2448
13.8713,19.1910
13.8713,19.1910
14.0747,19.1250
14.1918,19.1064
14.2859,19.0915
14.4997,19.0915
14.5701,19.1027
14.7109,19.1250
14.9143,19.1910
14.9143,19.1910
15.1048,19.2881
15.2778,19.4138
15.4290,19.5650
15.5547,19.7380
15.5571,19.7419
15.6089,19.7887
15.6778,19.8002
15.7420,19.7725
15.7685,19.7419
15.7709,19.7380
15.8966,19.5650
16.0478,19.4138
16.2208,19.2881
16.3097,19.2428
16.4113,19.1910
16.4113,19.1910
16.4113,19.1910
16.4527,19.1776
16.5021,19.1473
17.8774,17.7720
17.8774,17.7720
18.0098,17.6835
18.0098,17.6835
18.0098,17.6835
18.0834,17.6530
18.0834,17.6530
18.0834,17.6530
18.1570,17.6226
18.1570,17.6226
18.3132,17.5915
18.3132,17.5915
21.6065,17.5915
21.6736,17.5718
21.6942,17.5552
22.0045,17.2449
22.0379,17.1836
22.0330,17.1139
21.9911,17.0580
21.9362,17.0348
21.8747,17.0250
21.6713,16.9590
21.4808,16.8619
21.3078,16.7362
21.2805,16.7089
21.2192,16.6754
21.1495,16.6804
21.1051,16.7089
21.0778,16.7362
20.9048,16.8619
20.8114,16.9095
20.7143,16.9590
20.7143,16.9590
20.6126,16.9920
20.5109,17.0250
20.2997,17.0585
20.2997,17.0585
20.0859,17.0585
20.0859,17.0585
19.8747,17.0250
19.6713,16.9590
19.4808,16.8619
19.3078,16.7362
19.1566,16.5850
19.0309,16.4120
18.9338,16.2215
18.8678,16.0181
18.8343,15.8069
18.8343,15.5931
18.8678,15.3819
18.9338,15.1785
18.9338,15.1785
19.0309,14.9880
19.1566,14.8150
19.3078,14.6638
19.4808,14.5381
19.6713,14.4410
19.6713,14.4410
19.8747,14.3750
20.0096,14.3536
20.0859,14.3415
20.2997,14.3415
20.3701,14.3526
20.5109,14.3750
20.7143,14.4410
20.7143,14.4410
20.9048,14.5381
21.0778,14.6638
21.1051,14.6911
21.1091,14.6933
21.1115,14.6971
21.1395,14.7099
21.1664,14.7246
21.1709,14.7243
21.1751,14.7262
21.2055,14.7218
21.2361,14.7196
21.2410,14.7167
21.2442,14.7163
21.2586,14.7063
21.2739,14.6972
21.2773,14.6943
21.3078,14.6638
21.3374,14.6423
21.3414,14.6388
21.3576,14.6137
21.3759,14.5900
21.3771,14.5834
21.3792,14.5801
21.3793,14.5719
21.3843,14.5450
21.3843,14.3204
21.3843,14.3204
21.4154,14.1642
21.4154,14.1642
21.4458,14.0906
21.4458,14.0906
21.4458,14.0906
21.4763,14.0170
21.4763,14.0170
21.4763,14.0170
21.4830,14.0070
21.5648,13.8846
22.4774,12.9720
22.4774,12.9720
22.6098,12.8835
22.6098,12.8835
22.6098,12.8835
22.6834,12.8530
22.6834,12.8530
22.6834,12.8530
22.7570,12.8226
22.7570,12.8226
22.9132,12.7915
22.9132,12.7915
23.9814,12.7915
24.0485,12.7718
24.0942,12.7190
24.1042,12.6499
24.0751,12.5863
24.0164,12.5485
24.0008,12.5450
23.8747,12.5250
23.6713,12.4590
23.4808,12.3619
23.3078,12.2362
23.2805,12.2089
23.2192,12.1754
23.1495,12.1804
23.1051,12.2089
23.0778,12.2362
22.9048,12.3619
22.8114,12.4095
22.7143,12.4590
22.7143,12.4590
22.6541,12.4785
22.5109,12.5250
22.2997,12.5585
22.2997,12.5585
22.0859,12.5585
22.0859,12.5585
21.8747,12.5250
21.6713,12.4590
21.4808,12.3619
21.3078,12.2362
21.2805,12.2089
21.2192,12.1754
21.1495,12.1804
21.1051,12.2089
21.0778,12.2362
20.9048,12.3619
20.8114,12.4095
20.7143,12.4590
20.7143,12.4590
20.6541,12.4785
20.5109,12.5250
20.2997,12.5585
20.2997,12.5585
20.0859,12.5585
20.0859,12.5585
19.8747,12.5250
19.6713,12.4590
19.4808,12.3619
19.3078,12.2362
19.1566,12.0850
19.0309,11.9120
18.9338,11.7215
18.8678,11.5181
18.8343,11.3069
18.8343,11.0931
18.8678,10.8819
18.9008,10.7802
18.9338,10.6785
18.9338,10.6785
19.0309,10.4880
19.0370,10.4796
19.1566,10.3150
19.3078,10.1638
19.4808,10.0381
19.5286,10.0137
19.6713,9.9410
19.6713,9.9410
19.8747,9.8750
19.9803,9.8582
20.0859,9.8415
20.2997,9.8415
20.3701,9.8526
20.5109,9.8750
20.7143,9.9410
20.7143,9.9410
20.9048,10.0381
21.0778,10.1638
21.1051,10.1911
21.1664,10.2246
21.2361,10.2196
21.2805,10.1911
21.3078,10.1638
21.3078,10.1638
21.4808,10.0381
21.5286,10.0137
21.6713,9.9410
21.6713,9.9410
21.8747,9.8750
21.9803,9.8582
22.0859,9.8415
22.2997,9.8415
22.3701,9.8526
22.5109,9.8750
22.7143,9.9410
22.7143,9.9410
22.9048,10.0381
23.0778,10.1638
23.1051,10.1911
23.1664,10.2246
23.2361,10.2196
23.2805,10.1911
23.3078,10.1638
23.3078,10.1638
23.4808,10.0381
23.5286,10.0137
23.6713,9.9410
23.6713,9.9410
23.8747,9.8750
23.9803,9.8582
24.0859,9.8415
24.2997,9.8415
24.3701,9.8526
24.5109,9.8750
24.7143,9.9410
24.7143,9.9410
24.9048,10.0381
25.0778,10.1638
25.2290,10.3150
25.3547,10.4880
25.4518,10.6785
25.4518,10.6785
25.5178,10.8819
25.5513,11.0931
25.5513,11.3069
25.5178,11.5181
25.4518,11.7215
25.4518,11.7215
25.3924,11.8381
25.3547,11.9120
25.2290,12.0850
25.0778,12.2362
24.9048,12.3619
24.8114,12.4095
24.7143,12.4590
24.7143,12.4590
24.6541,12.4785
24.5109,12.5250
24.3848,12.5450
24.3216,12.5750
24.2847,12.6343
24.2857,12.7041
24.3243,12.7624
24.3883,12.7905
24.4042,12.7915
25.0065,12.7915
25.0736,12.7718
25.0942,12.7552
27.7480,10.1014
27.7815,10.0401
27.7843,10.0137
27.7843,8.9009
27.7646,8.8339
27.7254,8.7954
27.7201,8.7921
27.7201,8.7921
27.5691,8.6990
27.4438,8.5737
27.3507,8.4227
27.2949,8.2544
27.2843,8.1505
27.2843,6.8495
27.2949,6.7456
27.3507,6.5773
27.4438,6.4263
27.5691,6.3010
27.7201,6.2079
27.7201,6.2079
27.7201,6.2079
27.7431,6.2002
27.8006,6.1605
27.8110,6.1353
28.5928,5.3536
29.3700,6.1308
29.3722,6.1412
29.4213,6.1909
29.4425,6.2002
29.4655,6.2079
29.4655,6.2079
29.6165,6.3010
29.7418,6.4263
29.8349,6.5773
29.8349,6.5773
29.8446,6.6065
29.8844,6.6639
29.9489,6.6908
29.9623,6.6915
33.4070,6.6915
33.4071,6.6915
33.4132,6.6915
33.5724,6.6915
33.5724,6.6915
33.7027,6.7174
33.7027,6.7174
33.7286,6.7226
33.7472,6.7303
33.7717,6.7404
33.7717,6.7404
33.8758,6.7835
33.8758,6.7835
34.0082,6.8720
34.0082,6.8720
38.7478,11.6116
38.8091,11.6451
38.8549,11.6464
38.8859,11.6415
39.0997,11.6415
39.1701,11.6526
39.3109,11.6750
39.5143,11.7410
39.5143,11.7410
39.7048,11.8381
39.8778,11.9638
40.0290,12.1150
40.1547,12.2880
40.2518,12.4785
40.2518,12.4785
40.3178,12.6819
40.3513,12.8931
43.5928,12.8931
43.5928,9.1153
39.7545,9.1153
39.7545,9.1153
39.7004,9.1546
39.5110,9.2511
39.3089,9.3168
39.0990,9.3500
38.8866,9.3500
38.6767,9.3168
38.6767,9.3168
38.4746,9.2511
38.2852,9.1546
38.2311,9.1153
38.2311,9.1153
38.9928,8.3536
39.7545,9.1153
43.5928,9.1153
43.5928,7.8938
40.3428,7.8938
40.3428,8.1062
40.3096,8.3161
40.3096,8.3161
40.2439,8.5182
40.1474,8.7075
40.1081,8.7617
39.3464,8.0000
39.3861,7.9602
39.1928,7.9602
39.1928,8.0398
39.1624,8.1133
39.1061,8.1696
39.0326,8.2000
38.9530,8.2000
38.8795,8.1696
38.8232,8.1133
38.7928,8.0398
38.7928,8.0000
38.6392,8.0000
38.6392,8.0000
37.8775,8.7617
37.8775,8.7617
37.8382,8.7076
37.7417,8.5182
37.6760,8.3161
37.6760,8.3161
37.6428,8.1062
37.6428,7.8938
37.6760,7.6839
37.6760,7.6839
37.7417,7.4818
37.8382,7.2924
37.8775,7.2383
37.8775,7.2383
38.6392,8.0000
38.7928,8.0000
38.7928,7.9602
38.8232,7.8867
38.8795,7.8304
38.9530,7.8000
39.0326,7.8000
39.1061,7.8304
39.1624,7.8867
39.1928,7.9602
39.3861,7.9602
40.1081,7.2383
40.1081,7.2383
40.1474,7.2924
40.2439,7.4818
40.3096,7.6839
40.3096,7.6839
40.3428,7.8938
43.5928,7.8938
43.5928,6.8847
39.7545,6.8847
39.7545,6.8847
38.9928,7.6464
38.9928,7.6464
38.2311,6.8847
38.2852,6.8454
38.4746,6.7489
38.6767,6.6832
38.8866,6.6500
39.0990,6.6500
39.3089,6.6832
39.3089,6.6832
39.5110,6.7489
39.7004,6.8454
39.7545,6.8847
43.5928,6.8847
43.5928,4.8938
29.9428,4.8938
29.9428,5.1062
29.9096,5.3161
29.9096,5.3161
29.8439,5.5182
29.7474,5.7075
29.7081,5.7617
28.9464,5.0000
28.9861,4.9602
28.7928,4.9602
28.7928,5.0398
28.7624,5.1133
28.7061,5.1696
28.6326,5.2000
28.5530,5.2000
28.4795,5.1696
28.4232,5.1133
28.3928,5.0398
28.3928,5.0000
28.2392,5.0000
28.2392,5.0000
27.4775,5.7617
27.4775,5.7617
27.4382,5.7076
27.3417,5.5182
27.2760,5.3161
27.2760,5.3161
27.2428,5.1062
27.2428,4.8938
27.2760,4.6839
27.2760,4.6839
27.3417,4.4818
27.4382,4.2924
27.4775,4.2383
27.4775,4.2383
28.2392,5.0000
28.3928,5.0000
28.3928,4.9602
28.4232,4.8867
28.4795,4.8304
28.5530,4.8000
28.6326,4.8000
28.7061,4.8304
28.7624,4.8867
28.7928,4.9602
28.9861,4.9602
29.7081,4.2383
29.7081,4.2383
29.7474,4.2924
29.8439,4.4818
29.9096,4.6839
29.9096,4.6839
29.9428,4.8938
43.5928,4.8938
43.5928,3.8847
29.3545,3.8847
29.3545,3.8847
28.5928,4.6464
28.5928,4.6464
27.8311,3.8847
27.8852,3.8454
28.0746,3.7489
28.2767,3.6832
28.4866,3.6500
28.6990,3.6500
28.9089,3.6832
28.9089,3.6832
29.1110,3.7489
29.3004,3.8454
29.3545,3.8847
43.5928,3.8847
43.5928,0.5240
43.5731,0.4570
43.5203,0.4112
43.4688,0.4000
0.5168,0.4000
Z" /> 
</g>
<g style="fill:#FFFFFF; fill-opacity:1.0000; stroke:none;">
<circle cx="25.9928" cy="30.6000" r="0.2000" /> 
</g>
<g style="fill:#FFFFFF; fill-opacity:1.0000; stroke:none;">
<circle cx="25.9928" cy="33.1000" r="0.2000" /> 
</g>
<g style="fill:#FFFFFF; fill-opacity:1.0000; stroke:none;">
<circle cx="23.4328" cy="41.8400" r="0.2000" /> 
</g>
<g style="fill:#FFFFFF; fill-opacity:1.0000; stroke:none;">
<circle cx="23.4328" cy="44.3800" r="0.2000" /> 
</g>
<g style="fill:#FFFFFF; fill-opacity:1.0000; stroke:none;">
<circle cx="23.4328" cy="46.9200" r="0.2000" /> 
</g>
<g style="fill:#FFFFFF; fill-opacity:1.0000; stroke:none;">
<circle cx="23.4328" cy="49.4600" r="0.2000" /> 
</g>
<g style="fill:#FFFFFF; fill-opacity:1.0000; stroke:none;">
<circle cx="23.4328" cy="52.0000" r="0.2000" /> 
</g>
<g style="fill:#FFFFFF; fill-opacity:1.0000; stroke:none;">
<circle cx="23.4328" cy="54.5400" r="0.2000" /> 
</g>
<g style="fill:#FFFFFF; fill-opacity:1.0000; stroke:none;">
<circle cx="23.4328" cy="57.0800" r="0.2000" /> 
</g>
<g style="fill:#FFFFFF; fill-opacity:1.0000; stroke:none;">
<circle cx="23.4328" cy="59.6200" r="0.2000" /> 
</g>
<g style="fill:#FFFFFF; fill-opacity:1.0000; stroke:none;">
<circle cx="23.4328" cy="62.1600" r="0.2000" /> 
</g>
<g style="fill:#FFFFFF; fill-opacity:1.0000; stroke:none;">
<circle cx="23.4328" cy="64.7000" r="0.2000" /> 
</g>
<g style="fill:#FFFFFF; fill-opacity:1.0000; stroke:none;">
<circle cx="23.4328" cy="67.2400" r="0.2000" /> 
</g>
<g style="fill:#FFFFFF; fill-opacity:1.0000; stroke:none;">
<circle cx="23.4328" cy="69.7800" r="0.2000" /> 
</g>
<g style="fill:#FFFFFF; fill-opacity:1.0000; stroke:none;">
<circle cx="23.4328" cy="72.3200" r="0.2000" /> 
</g>
<g style="fill:#FFFFFF; fill-opacity:1.0000; stroke:none;">
<circle cx="23.4328" cy="74.8600" r="0.2000" /> 
</g>
<g style="fill:#FFFFFF; fill-opacity:1.0000; stroke:none;">
<circle cx="23.4328" cy="77.4000" r="0.2000" /> 
</g>
<g style="fill:#FFFFFF; fill-opacity:1.0000; stroke:none;">
<circle cx="8.1928" cy="77.4000" r="0.2000" /> 
</g>
<g style="fill:#FFFFFF; fill-opacity:1.0000; stroke:none;">
<circle cx="8.1928" cy="74.8600" r="0.2000" /> 
</g>
<g style="fill:#FFFFFF; fill-opacity:1.0000; stroke:none;">
<circle cx="8.1928" cy="72.3200" r="0.2000" /> 
</g>
<g style="fill:#FFFFFF; fill-opacity:1.0000; stroke:none;">
<circle cx="8.1928" cy="69.7800" r="0.2000" /> 
</g>
<g style="fill:#FFFFFF; fill-opacity:1.0000; stroke:none;">
<circle cx="8.1928" cy="67.2400" r="0.2000" /> 
</g>
<g style="fill:#FFFFFF; fill-opacity:1.0000; stroke:none;">
<circle cx="8.1928" cy="64.7000" r="0.2000" /> 
</g>
<g style="fill:#FFFFFF; fill-opacity:1.0000; stroke:none;">
<circle cx="8.1928" cy="62.1600" r="0.2000" /> 
</g>
<g style="fill:#FFFFFF; fill-opacity:1.0000; stroke:none;">
<circle cx="8.1928" cy="59.6200" r="0.2000" /> 
</g>
<g style="fill:#FFFFFF; fill-opacity:1.0000; stroke:none;">
<circle cx="8.1928" cy="57.0800" r="0.2000" /> 
</g>
<g style="fill:#FFFFFF; fill-opacity:1.0000; stroke:none;">
<circle cx="8.1928" cy="54.5400" r="0.2000" /> 
</g>
<g style="fill:#FFFFFF; fill-opacity:1.0000; stroke:none;">
<circle cx="8.1928" cy="52.0000" r="0.2000" /> 
</g>
<g style="fill:#FFFFFF; fill-opacity:1.0000; stroke:none;">
<circle cx="8.1928" cy="49.4600" r="0.2000" /> 
</g>
<g style="fill:#FFFFFF; fill-opacity:1.0000; stroke:none;">
<circle cx="8.1928" cy="46.9200" r="0.2000" /> 
</g>
<g style="fill:#FFFFFF; fill-opacity:1.0000; stroke:none;">
<circle cx="8.1928" cy="44.3800" r="0.2000" /> 
</g>
<g style="fill:#FFFFFF; fill-opacity:1.0000; stroke:none;">
<circle cx="8.1928" cy="41.8400" r="0.2000" /> 
</g>
<g style="fill:#FFFFFF; fill-opacity:1.0000; stroke:none;">
<circle cx="34.9928" cy="43.4955" r="0.2000" /> 
</g>
<g style="fill:#FFFFFF; fill-opacity:1.0000; stroke:none;">
<circle cx="37.5328" cy="43.4955" r="0.2000" /> 
</g>
<g style="fill:#FFFFFF; fill-opacity:1.0000; stroke:none;">
<circle cx="40.0728" cy="43.4955" r="0.2000" /> 
</g>
<g style="fill:#FFFFFF; fill-opacity:1.0000; stroke:none;">
<circle cx="34.9928" cy="38.8536" r="0.2000" /> 
</g>
<g style="fill:#FFFFFF; fill-opacity:1.0000; stroke:none;">
<circle cx="37.5328" cy="38.8536" r="0.2000" /> 
</g>
<g style="fill:#FFFFFF; fill-opacity:1.0000; stroke:none;">
<circle cx="40.0728" cy="38.8536" r="0.2000" /> 
</g>
<g style="fill:#FFFFFF; fill-opacity:1.0000; stroke:none;">
<circle cx="28.5928" cy="7.5000" r="0.2000" /> 
</g>
<g style="fill:#FFFFFF; fill-opacity:1.0000; stroke:none;">
<circle cx="28.5928" cy="5.0000" r="0.2000" /> 
</g>
<g style="fill:#FFFFFF; fill-opacity:1.0000; stroke:none;">
<circle cx="38.9928" cy="8.0000" r="0.2000" /> 
</g>
<g style="fill:#FFFFFF; fill-opacity:1.0000; stroke:none;">
<circle cx="38.9928" cy="13.0000" r="0.2000" /> 
</g>
<g style="fill:#FFFFFF; fill-opacity:1.0000; stroke:none;">
<circle cx="34.9928" cy="57.4209" r="0.2000" /> 
</g>
<g style="fill:#FFFFFF; fill-opacity:1.0000; stroke:none;">
<circle cx="37.5328" cy="57.4209" r="0.2000" /> 
</g>
<g style="fill:#FFFFFF; fill-opacity:1.0000; stroke:none;">
<circle cx="40.0728" cy="57.4209" r="0.2000" /> 
</g>
<g style="fill:#FFFFFF; fill-opacity:1.0000; stroke:none;">
<circle cx="11.8528" cy="20.6000" r="0.2000" /> 
</g>
<g style="fill:#FFFFFF; fill-opacity:1.0000; stroke:none;">
<circle cx="14.3928" cy="20.6000" r="0.2000" /> 
</g>
<g style="fill:#FFFFFF; fill-opacity:1.0000; stroke:none;">
<circle cx="16.9328" cy="20.6000" r="0.2000" /> 
</g>
<g style="fill:#FFFFFF; fill-opacity:1.0000; stroke:none;">
<circle cx="34.9928" cy="34.2118" r="0.2000" /> 
</g>
<g style="fill:#FFFFFF; fill-opacity:1.0000; stroke:none;">
<circle cx="37.5328" cy="34.2118" r="0.2000" /> 
</g>
<g style="fill:#FFFFFF; fill-opacity:1.0000; stroke:none;">
<circle cx="40.0728" cy="34.2118" r="0.2000" /> 
</g>
<g style="fill:#FFFFFF; fill-opacity:1.0000; stroke:none;">
<circle cx="34.9928" cy="62.0627" r="0.2000" /> 
</g>
<g style="fill:#FFFFFF; fill-opacity:1.0000; stroke:none;">
<circle cx="37.5328" cy="62.0627" r="0.2000" /> 
</g>
<g style="fill:#FFFFFF; fill-opacity:1.0000; stroke:none;">
<circle cx="40.0728" cy="62.0627" r="0.2000" /> 
</g>
<g style="fill:#FFFFFF; fill-opacity:1.0000; stroke:none;">
<circle cx="34.9928" cy="52.7791" r="0.2000" /> 
</g>
<g style="fill:#FFFFFF; fill-opacity:1.0000; stroke:none;">
<circle cx="37.5328" cy="52.7791" r="0.2000" /> 
</g>
<g style="fill:#FFFFFF; fill-opacity:1.0000; stroke:none;">
<circle cx="40.0728" cy="52.7791" r="0.2000" /> 
</g>
<g style="fill:#FFFFFF; fill-opacity:1.0000; stroke:none;">
<circle cx="37.6028" cy="21.7800" r="0.2000" /> 
</g>
<g style="fill:#FFFFFF; fill-opacity:1.0000; stroke:none;">
<circle cx="40.1028" cy="21.7800" r="0.2000" /> 
</g>
<g style="fill:#FFFFFF; fill-opacity:1.0000; stroke:none;">
<circle cx="34.9928" cy="48.1373" r="0.2000" /> 
</g>
<g style="fill:#FFFFFF; fill-opacity:1.0000; stroke:none;">
<circle cx="37.5328" cy="48.1373" r="0.2000" /> 
</g>
<g style="fill:#FFFFFF; fill-opacity:1.0000; stroke:none;">
<circle cx="40.0728" cy="48.1373" r="0.2000" /> 
</g>
<g style="fill:#FFFFFF; fill-opacity:1.0000; stroke:none;">
<circle cx="34.9928" cy="29.5700" r="0.2000" /> 
</g>
<g style="fill:#FFFFFF; fill-opacity:1.0000; stroke:none;">
<circle cx="37.5328" cy="29.5700" r="0.2000" /> 
</g>
<g style="fill:#FFFFFF; fill-opacity:1.0000; stroke:none;">
<circle cx="40.0728" cy="29.5700" r="0.2000" /> 
</g>
<g style="fill:#FFFFFF; fill-opacity:1.0000; stroke:none;">
<circle cx="24.0528" cy="20.6500" r="0.2000" /> 
</g>
<g style="fill:#FFFFFF; fill-opacity:1.0000; stroke:none;">
<circle cx="26.5928" cy="20.6500" r="0.2000" /> 
</g>
<g style="fill:#FFFFFF; fill-opacity:1.0000; stroke:none;">
<circle cx="29.1328" cy="20.6500" r="0.2000" /> 
</g>
<g style="fill:#FFFFFF; fill-opacity:1.0000; stroke:none;">
<circle cx="24.1928" cy="15.7000" r="0.2000" /> 
</g>
<g style="fill:#FFFFFF; fill-opacity:1.0000; stroke:none;">
<circle cx="22.1928" cy="15.7000" r="0.2000" /> 
</g>
<g style="fill:#FFFFFF; fill-opacity:1.0000; stroke:none;">
<circle cx="20.1928" cy="15.7000" r="0.2000" /> 
</g>
<g style="fill:#FFFFFF; fill-opacity:1.0000; stroke:none;">
<circle cx="24.1928" cy="11.2000" r="0.2000" /> 
</g>
<g style="fill:#FFFFFF; fill-opacity:1.0000; stroke:none;">
<circle cx="22.1928" cy="11.2000" r="0.2000" /> 
</g>
<g style="fill:#FFFFFF; fill-opacity:1.0000; stroke:none;">
<circle cx="20.1928" cy="11.2000" r="0.2000" /> 
</g>
<g style="fill:#FFFFFF; fill-opacity:1.0000; stroke:none;">
<circle cx="34.9928" cy="71.3464" r="0.2000" /> 
</g>
<g style="fill:#FFFFFF; fill-opacity:1.0000; stroke:none;">
<circle cx="37.5328" cy="71.3464" r="0.2000" /> 
</g>
<g style="fill:#FFFFFF; fill-opacity:1.0000; stroke:none;">
<circle cx="40.0728" cy="71.3464" r="0.2000" /> 
</g>
<g style="fill:#FFFFFF; fill-opacity:1.0000; stroke:none;">
<circle cx="14.4528" cy="32.2000" r="0.2000" /> 
</g>
<g style="fill:#FFFFFF; fill-opacity:1.0000; stroke:none;">
<circle cx="16.9928" cy="32.2000" r="0.2000" /> 
</g>
<g style="fill:#FFFFFF; fill-opacity:1.0000; stroke:none;">
<circle cx="8.7928" cy="33.2000" r="0.2000" /> 
</g>
<g style="fill:#FFFFFF; fill-opacity:1.0000; stroke:none;">
<circle cx="8.7928" cy="30.6600" r="0.2000" /> 
</g>
<g style="fill:#FFFFFF; fill-opacity:1.0000; stroke:none;">
<circle cx="34.9928" cy="66.7045" r="0.2000" /> 
</g>
<g style="fill:#FFFFFF; fill-opacity:1.0000; stroke:none;">
<circle cx="37.5328" cy="66.7045" r="0.2000" /> 
</g>
<g style="fill:#FFFFFF; fill-opacity:1.0000; stroke:none;">
<circle cx="40.0728" cy="66.7045" r="0.2000" /> 
</g>
<g style="fill:#FFFFFF; fill-opacity:1.0000; stroke:none;">
<circle cx="34.9928" cy="80.6300" r="0.2000" /> 
</g>
<g style="fill:#FFFFFF; fill-opacity:1.0000; stroke:none;">
<circle cx="37.5328" cy="80.6300" r="0.2000" /> 
</g>
<g style="fill:#FFFFFF; fill-opacity:1.0000; stroke:none;">
<circle cx="40.0728" cy="80.6300" r="0.2000" /> 
</g>
<g style="fill:#FFFFFF; fill-opacity:1.0000; stroke:none;">
<circle cx="34.9928" cy="75.9882" r="0.2000" /> 
</g>
<g style="fill:#FFFFFF; fill-opacity:1.0000; stroke:none;">
<circle cx="37.5328" cy="75.9882" r="0.2000" /> 
</g>
<g style="fill:#FFFFFF; fill-opacity:1.0000; stroke:none;">
<circle cx="40.0728" cy="75.9882" r="0.2000" /> 
</g> 
</svg>
