  0
SECTION
  2
HEADER
  9
$ACADVER
  1
AC1018
  9
$HANDSEED
  5
FFFFFFFF
  9
$ANGBASE
  50
0.0
  9
$ANGDIR
  70
1
  9
$MEASUREMENT
  70
1
  9
$INSUNITS
  70
4
  0
ENDSEC
  0
SECTION
  2
TABLES
  0
TABLE
  2
APPID
  5
1
330
0
100
AcDbSymbolTable
 70
1
  0
APPID
  5
2
330
1
100
AcDbSymbolTableRecord
100
AcDbRegAppTableRecord
  2
ACAD
 70
0
  0
ENDTAB
  0
TABLE
  2
LTYPE
  5
3
330
0
100
AcDbSymbolTable
 70
6
  0
LTYPE
  5
4
330
3
100
AcDbSymbolTableRecord
100
AcDbLinetypeTableRecord
  2
ByBlock
 70
0
  3

 72
65
 73
0
 40
0
  0
LTYPE
  5
5
330
3
100
AcDbSymbolTableRecord
100
AcDbLinetypeTableRecord
  2
ByLayer
 70
0
  3

 72
65
 73
0
 40
0
  0
LTYPE
  5
6
330
3
100
AcDbSymbolTableRecord
100
AcDbLinetypeTableRecord
  2
CONTINUOUS
 70
0
  3
Solid line
 72
65
 73
0
 40
0
  0
LTYPE
  5
7
330
3
100
AcDbSymbolTableRecord
100
AcDbLinetypeTableRecord
  2
DASHDOT
 70
0
  3
Dash Dot ____ _ ____ _
 72
65
 73
4
 40
2
 49
1.25
 74
0
 49
-0.25
 74
0
 49
0.25
 74
0
 49
-0.25
 74
0
  0
LTYPE
  5
8
330
3
100
AcDbSymbolTableRecord
100
AcDbLinetypeTableRecord
  2
DASHED
 70
0
  3
Dashed __ __ __ __ __
 72
65
 73
2
 40
0.75
 49
0.5
 74
0
 49
-0.25
 74
0
  0
LTYPE
  5
9
330
3
100
AcDbSymbolTableRecord
100
AcDbLinetypeTableRecord
  2
DOTTED
 70
0
  3
Dotted .  .  .  .
 72
65
 73
2
 40
0.2
 49
0.0
 74
0
 49
-0.2
 74
0
  0
ENDTAB
  0
TABLE
  2
STYLE
  5
A
330
0
100
AcDbSymbolTable
 70
4
  0
STYLE
  5
B
330
A
100
AcDbSymbolTableRecord
100
AcDbTextStyleTableRecord
  2
KICAD
 70
0
 40
0
 41
1
 42
1
 50
0
 71
0
  3
isocp.shx
  0
STYLE
  5
C
330
A
100
AcDbSymbolTableRecord
100
AcDbTextStyleTableRecord
  2
KICADB
 70
0
 40
0
 41
1
 42
1
 50
0
 71
0
  3
isocp.shx
  0
STYLE
  5
D
330
A
100
AcDbSymbolTableRecord
100
AcDbTextStyleTableRecord
  2
KICADI
 70
0
 40
0
 41
1
 42
1
 50
15
 71
0
  3
isocp.shx
  0
STYLE
  5
E
330
A
100
AcDbSymbolTableRecord
100
AcDbTextStyleTableRecord
  2
KICADBI
 70
0
 40
0
 41
1
 42
1
 50
15
 71
0
  3
isocp.shx
  0
ENDTAB
  0
TABLE
  2
LAYER
  5
F
330
0
100
AcDbSymbolTable
 70
2
  0
LAYER
  5
12
330
F
100
AcDbSymbolTableRecord
100
AcDbLayerTableRecord
  2
0
 70
0
 62
7
  6
CONTINUOUS
390
10
  0
LAYER
  5
13
330
F
100
AcDbSymbolTableRecord
100
AcDbLayerTableRecord
  2
BLACK
 70
0
 62
250
  6
CONTINUOUS
390
10
  0
ENDTAB
  0
TABLE
  2
VPORT
  5
14
330
0
100
AcDbSymbolTable
 70
0
  0
ENDTAB
  0
TABLE
  2
VIEW
  5
15
330
0
100
AcDbSymbolTable
 70
0
  0
ENDTAB
  0
TABLE
  2
UCS
  5
16
330
0
100
AcDbSymbolTable
 70
0
  0
ENDTAB
  0
TABLE
  2
DIMSTYLE
  5
17
330
0
100
AcDbSymbolTable
 70
1
100
AcDbDimStyleTable
 71
0
  0
DIMSTYLE
105
18
330
17
100
AcDbSymbolTableRecord
100
AcDbDimStyleTableRecord
  2
Standard
 70
0
  0
ENDTAB
  0
TABLE
  2
BLOCK_RECORD
  5
19
330
0
100
AcDbSymbolTable
 70
3
  0
BLOCK_RECORD
  5
1A
330
19
100
AcDbSymbolTableRecord
100
AcDbBlockTableRecord
  2
*Model_Space
340
1D
 70
0
280
1
281
0
  0
BLOCK_RECORD
  5
1B
330
19
100
AcDbSymbolTableRecord
100
AcDbBlockTableRecord
  2
*Paper_Space
340
1E
 70
0
280
1
281
0
  0
BLOCK_RECORD
  5
1C
330
19
100
AcDbSymbolTableRecord
100
AcDbBlockTableRecord
  2
*Paper_Space0
340
1F
 70
0
280
1
281
0
  0
ENDTAB
  0
ENDSEC
  0
SECTION
  2
BLOCKS
  0
BLOCK
  5
23
330
1A
100
AcDbEntity
  8
0
100
AcDbBlockBegin
  2
*Model_Space
 70
0
 10
0.0
 20
0.0
 30
0.0
  3
*Model_Space
  1

  0
ENDBLK
  5
22
330
1A
100
AcDbEntity
  8
0
100
AcDbBlockEnd
  0
BLOCK
  5
25
330
1B
100
AcDbEntity
 67
1
  8
0
100
AcDbBlockBegin
  2
*Paper_Space
 70
0
 10
0.0
 20
0.0
 30
0.0
  3
*Paper_Space
  1

  0
ENDBLK
  5
24
330
1B
100
AcDbEntity
 67
1
  8
0
100
AcDbBlockEnd
  0
BLOCK
  5
27
330
1C
100
AcDbEntity
 67
1
  8
0
100
AcDbBlockBegin
  2
*Paper_Space0
 70
0
 10
0.0
 20
0.0
 30
0.0
  3
*Paper_Space0
  1

  0
ENDBLK
  5
26
330
1C
100
AcDbEntity
 67
1
  8
0
100
AcDbBlockEnd
  0
ENDSEC
  0
SECTION
  2
ENTITIES
  0
LINE
  5
28
330
1A
100
AcDbEntity
  8
BLACK
  6
CONTINUOUS
100
AcDbLine
 10
103.
 20
-50.
 30
0
 11
147.
 21
-50.
 31
0
  0
LINE
  5
29
330
1A
100
AcDbEntity
  8
BLACK
  6
CONTINUOUS
100
AcDbLine
 10
147.
 20
-50.
 30
0
 11
147.
 21
-135.
 31
0
  0
LINE
  5
2A
330
1A
100
AcDbEntity
  8
BLACK
  6
CONTINUOUS
100
AcDbLine
 10
147.
 20
-135.
 30
0
 11
103.
 21
-135.
 31
0
  0
LINE
  5
2B
330
1A
100
AcDbEntity
  8
BLACK
  6
CONTINUOUS
100
AcDbLine
 10
103.
 20
-135.
 30
0
 11
103.
 21
-50.
 31
0
  0
LINE
  5
2C
330
1A
100
AcDbEntity
  8
BLACK
  6
CONTINUOUS
100
AcDbLine
 10
110.3774999999999977
 20
-55.2999999999999972
 30
0
 11
110.7774999999999892
 21
-55.6999999999999957
 31
0
  0
LINE
  5
2D
330
1A
100
AcDbEntity
  8
BLACK
  6
CONTINUOUS
100
AcDbLine
 10
110.7774999999999892
 20
-55.2999999999999972
 30
0
 11
110.3774999999999977
 21
-55.6999999999999957
 31
0
  0
LINE
  5
2E
330
1A
100
AcDbEntity
  8
BLACK
  6
CONTINUOUS
100
AcDbLine
 10
110.3774999999999977
 20
-60.2999999999999972
 30
0
 11
110.7774999999999892
 21
-60.6999999999999957
 31
0
  0
LINE
  5
2F
330
1A
100
AcDbEntity
  8
BLACK
  6
CONTINUOUS
100
AcDbLine
 10
110.7774999999999892
 20
-60.2999999999999972
 30
0
 11
110.3774999999999977
 21
-60.6999999999999957
 31
0
  0
LINE
  5
30
330
1A
100
AcDbEntity
  8
BLACK
  6
CONTINUOUS
100
AcDbLine
 10
112.4485329999999976
 20
-105.7999999999999972
 30
0
 11
112.8485329999999891
 21
-106.1999999999999886
 31
0
  0
LINE
  5
31
330
1A
100
AcDbEntity
  8
BLACK
  6
CONTINUOUS
100
AcDbLine
 10
112.8485329999999891
 20
-105.7999999999999972
 30
0
 11
112.4485329999999976
 21
-106.1999999999999886
 31
0
  0
LINE
  5
32
330
1A
100
AcDbEntity
  8
BLACK
  6
CONTINUOUS
100
AcDbLine
 10
112.4485329999999976
 20
-108.3399999999999892
 30
0
 11
112.8485329999999891
 21
-108.7399999999999949
 31
0
  0
LINE
  5
33
330
1A
100
AcDbEntity
  8
BLACK
  6
CONTINUOUS
100
AcDbLine
 10
112.8485329999999891
 20
-108.3399999999999892
 30
0
 11
112.4485329999999976
 21
-108.7399999999999949
 31
0
  0
LINE
  5
34
330
1A
100
AcDbEntity
  8
BLACK
  6
CONTINUOUS
100
AcDbLine
 10
112.4485329999999976
 20
-110.8799999999999955
 30
0
 11
112.8485329999999891
 21
-111.2800000000000011
 31
0
  0
LINE
  5
35
330
1A
100
AcDbEntity
  8
BLACK
  6
CONTINUOUS
100
AcDbLine
 10
112.8485329999999891
 20
-110.8799999999999955
 30
0
 11
112.4485329999999976
 21
-111.2800000000000011
 31
0
  0
LINE
  5
36
330
1A
100
AcDbEntity
  8
BLACK
  6
CONTINUOUS
100
AcDbLine
 10
112.4485329999999976
 20
-119.7999999999999972
 30
0
 11
112.8485329999999891
 21
-120.1999999999999886
 31
0
  0
LINE
  5
37
330
1A
100
AcDbEntity
  8
BLACK
  6
CONTINUOUS
100
AcDbLine
 10
112.8485329999999891
 20
-119.7999999999999972
 30
0
 11
112.4485329999999976
 21
-120.1999999999999886
 31
0
  0
LINE
  5
38
330
1A
100
AcDbEntity
  8
BLACK
  6
CONTINUOUS
100
AcDbLine
 10
112.4485329999999976
 20
-122.3399999999999892
 30
0
 11
112.8485329999999891
 21
-122.7399999999999949
 31
0
  0
LINE
  5
39
330
1A
100
AcDbEntity
  8
BLACK
  6
CONTINUOUS
100
AcDbLine
 10
112.8485329999999891
 20
-122.3399999999999892
 30
0
 11
112.4485329999999976
 21
-122.7399999999999949
 31
0
  0
LINE
  5
3A
330
1A
100
AcDbEntity
  8
BLACK
  6
CONTINUOUS
100
AcDbLine
 10
112.4485329999999976
 20
-124.8799999999999955
 30
0
 11
112.8485329999999891
 21
-125.2800000000000011
 31
0
  0
LINE
  5
3B
330
1A
100
AcDbEntity
  8
BLACK
  6
CONTINUOUS
100
AcDbLine
 10
112.8485329999999891
 20
-124.8799999999999955
 30
0
 11
112.4485329999999976
 21
-125.2800000000000011
 31
0
  0
LINE
  5
3C
330
1A
100
AcDbEntity
  8
BLACK
  6
CONTINUOUS
100
AcDbLine
 10
113.7999999999999972
 20
-69.0499999999999972
 30
0
 11
114.1999999999999886
 21
-69.4500000000000028
 31
0
  0
LINE
  5
3D
330
1A
100
AcDbEntity
  8
BLACK
  6
CONTINUOUS
100
AcDbLine
 10
114.1999999999999886
 20
-69.0499999999999972
 30
0
 11
113.7999999999999972
 21
-69.4500000000000028
 31
0
  0
LINE
  5
3E
330
1A
100
AcDbEntity
  8
BLACK
  6
CONTINUOUS
100
AcDbLine
 10
116.374266999999989
 20
-91.4699999999999989
 30
0
 11
116.7742669999999947
 21
-91.8699999999999903
 31
0
  0
LINE
  5
3F
330
1A
100
AcDbEntity
  8
BLACK
  6
CONTINUOUS
100
AcDbLine
 10
116.7742669999999947
 20
-91.4699999999999989
 30
0
 11
116.374266999999989
 21
-91.8699999999999903
 31
0
  0
LINE
  5
40
330
1A
100
AcDbEntity
  8
BLACK
  6
CONTINUOUS
100
AcDbLine
 10
116.374266999999989
 20
-94.0099999999999909
 30
0
 11
116.7742669999999947
 21
-94.4099999999999966
 31
0
  0
LINE
  5
41
330
1A
100
AcDbEntity
  8
BLACK
  6
CONTINUOUS
100
AcDbLine
 10
116.7742669999999947
 20
-94.0099999999999909
 30
0
 11
116.374266999999989
 21
-94.4099999999999966
 31
0
  0
LINE
  5
42
330
1A
100
AcDbEntity
  8
BLACK
  6
CONTINUOUS
100
AcDbLine
 10
116.374266999999989
 20
-96.5499999999999972
 30
0
 11
116.7742669999999947
 21
-96.9499999999999886
 31
0
  0
LINE
  5
43
330
1A
100
AcDbEntity
  8
BLACK
  6
CONTINUOUS
100
AcDbLine
 10
116.7742669999999947
 20
-96.5499999999999972
 30
0
 11
116.374266999999989
 21
-96.9499999999999886
 31
0
  0
LINE
  5
44
330
1A
100
AcDbEntity
  8
BLACK
  6
CONTINUOUS
100
AcDbLine
 10
116.374266999999989
 20
-105.7999999999999972
 30
0
 11
116.7742669999999947
 21
-106.1999999999999886
 31
0
  0
LINE
  5
45
330
1A
100
AcDbEntity
  8
BLACK
  6
CONTINUOUS
100
AcDbLine
 10
116.7742669999999947
 20
-105.7999999999999972
 30
0
 11
116.374266999999989
 21
-106.1999999999999886
 31
0
  0
LINE
  5
46
330
1A
100
AcDbEntity
  8
BLACK
  6
CONTINUOUS
100
AcDbLine
 10
116.374266999999989
 20
-108.3399999999999892
 30
0
 11
116.7742669999999947
 21
-108.7399999999999949
 31
0
  0
LINE
  5
47
330
1A
100
AcDbEntity
  8
BLACK
  6
CONTINUOUS
100
AcDbLine
 10
116.7742669999999947
 20
-108.3399999999999892
 30
0
 11
116.374266999999989
 21
-108.7399999999999949
 31
0
  0
LINE
  5
48
330
1A
100
AcDbEntity
  8
BLACK
  6
CONTINUOUS
100
AcDbLine
 10
116.374266999999989
 20
-110.8799999999999955
 30
0
 11
116.7742669999999947
 21
-111.2800000000000011
 31
0
  0
LINE
  5
49
330
1A
100
AcDbEntity
  8
BLACK
  6
CONTINUOUS
100
AcDbLine
 10
116.7742669999999947
 20
-110.8799999999999955
 30
0
 11
116.374266999999989
 21
-111.2800000000000011
 31
0
  0
LINE
  5
4A
330
1A
100
AcDbEntity
  8
BLACK
  6
CONTINUOUS
100
AcDbLine
 10
116.374266999999989
 20
-119.7999999999999972
 30
0
 11
116.7742669999999947
 21
-120.1999999999999886
 31
0
  0
LINE
  5
4B
330
1A
100
AcDbEntity
  8
BLACK
  6
CONTINUOUS
100
AcDbLine
 10
116.7742669999999947
 20
-119.7999999999999972
 30
0
 11
116.374266999999989
 21
-120.1999999999999886
 31
0
  0
LINE
  5
4C
330
1A
100
AcDbEntity
  8
BLACK
  6
CONTINUOUS
100
AcDbLine
 10
116.374266999999989
 20
-122.3399999999999892
 30
0
 11
116.7742669999999947
 21
-122.7399999999999949
 31
0
  0
LINE
  5
4D
330
1A
100
AcDbEntity
  8
BLACK
  6
CONTINUOUS
100
AcDbLine
 10
116.7742669999999947
 20
-122.3399999999999892
 30
0
 11
116.374266999999989
 21
-122.7399999999999949
 31
0
  0
LINE
  5
4E
330
1A
100
AcDbEntity
  8
BLACK
  6
CONTINUOUS
100
AcDbLine
 10
116.374266999999989
 20
-124.8799999999999955
 30
0
 11
116.7742669999999947
 21
-125.2800000000000011
 31
0
  0
LINE
  5
4F
330
1A
100
AcDbEntity
  8
BLACK
  6
CONTINUOUS
100
AcDbLine
 10
116.7742669999999947
 20
-124.8799999999999955
 30
0
 11
116.374266999999989
 21
-125.2800000000000011
 31
0
  0
LINE
  5
50
330
1A
100
AcDbEntity
  8
BLACK
  6
CONTINUOUS
100
AcDbLine
 10
117.2999999999999972
 20
-69.0499999999999972
 30
0
 11
117.6999999999999886
 21
-69.4500000000000028
 31
0
  0
LINE
  5
51
330
1A
100
AcDbEntity
  8
BLACK
  6
CONTINUOUS
100
AcDbLine
 10
117.6999999999999886
 20
-69.0499999999999972
 30
0
 11
117.2999999999999972
 21
-69.4500000000000028
 31
0
  0
LINE
  5
52
330
1A
100
AcDbEntity
  8
BLACK
  6
CONTINUOUS
100
AcDbLine
 10
120.2999999999999972
 20
-91.4699999999999989
 30
0
 11
120.6999999999999886
 21
-91.8699999999999903
 31
0
  0
LINE
  5
53
330
1A
100
AcDbEntity
  8
BLACK
  6
CONTINUOUS
100
AcDbLine
 10
120.6999999999999886
 20
-91.4699999999999989
 30
0
 11
120.2999999999999972
 21
-91.8699999999999903
 31
0
  0
LINE
  5
54
330
1A
100
AcDbEntity
  8
BLACK
  6
CONTINUOUS
100
AcDbLine
 10
120.2999999999999972
 20
-94.0099999999999909
 30
0
 11
120.6999999999999886
 21
-94.4099999999999966
 31
0
  0
LINE
  5
55
330
1A
100
AcDbEntity
  8
BLACK
  6
CONTINUOUS
100
AcDbLine
 10
120.6999999999999886
 20
-94.0099999999999909
 30
0
 11
120.2999999999999972
 21
-94.4099999999999966
 31
0
  0
LINE
  5
56
330
1A
100
AcDbEntity
  8
BLACK
  6
CONTINUOUS
100
AcDbLine
 10
120.2999999999999972
 20
-96.5499999999999972
 30
0
 11
120.6999999999999886
 21
-96.9499999999999886
 31
0
  0
LINE
  5
57
330
1A
100
AcDbEntity
  8
BLACK
  6
CONTINUOUS
100
AcDbLine
 10
120.6999999999999886
 20
-96.5499999999999972
 30
0
 11
120.2999999999999972
 21
-96.9499999999999886
 31
0
  0
LINE
  5
58
330
1A
100
AcDbEntity
  8
BLACK
  6
CONTINUOUS
100
AcDbLine
 10
120.2999999999999972
 20
-105.7999999999999972
 30
0
 11
120.6999999999999886
 21
-106.1999999999999886
 31
0
  0
LINE
  5
59
330
1A
100
AcDbEntity
  8
BLACK
  6
CONTINUOUS
100
AcDbLine
 10
120.6999999999999886
 20
-105.7999999999999972
 30
0
 11
120.2999999999999972
 21
-106.1999999999999886
 31
0
  0
LINE
  5
5A
330
1A
100
AcDbEntity
  8
BLACK
  6
CONTINUOUS
100
AcDbLine
 10
120.2999999999999972
 20
-108.3399999999999892
 30
0
 11
120.6999999999999886
 21
-108.7399999999999949
 31
0
  0
LINE
  5
5B
330
1A
100
AcDbEntity
  8
BLACK
  6
CONTINUOUS
100
AcDbLine
 10
120.6999999999999886
 20
-108.3399999999999892
 30
0
 11
120.2999999999999972
 21
-108.7399999999999949
 31
0
  0
LINE
  5
5C
330
1A
100
AcDbEntity
  8
BLACK
  6
CONTINUOUS
100
AcDbLine
 10
120.2999999999999972
 20
-110.8799999999999955
 30
0
 11
120.6999999999999886
 21
-111.2800000000000011
 31
0
  0
LINE
  5
5D
330
1A
100
AcDbEntity
  8
BLACK
  6
CONTINUOUS
100
AcDbLine
 10
120.6999999999999886
 20
-110.8799999999999955
 30
0
 11
120.2999999999999972
 21
-111.2800000000000011
 31
0
  0
LINE
  5
5E
330
1A
100
AcDbEntity
  8
BLACK
  6
CONTINUOUS
100
AcDbLine
 10
120.2999999999999972
 20
-119.7999999999999972
 30
0
 11
120.6999999999999886
 21
-120.1999999999999886
 31
0
  0
LINE
  5
5F
330
1A
100
AcDbEntity
  8
BLACK
  6
CONTINUOUS
100
AcDbLine
 10
120.6999999999999886
 20
-119.7999999999999972
 30
0
 11
120.2999999999999972
 21
-120.1999999999999886
 31
0
  0
LINE
  5
60
330
1A
100
AcDbEntity
  8
BLACK
  6
CONTINUOUS
100
AcDbLine
 10
120.2999999999999972
 20
-122.3399999999999892
 30
0
 11
120.6999999999999886
 21
-122.7399999999999949
 31
0
  0
LINE
  5
61
330
1A
100
AcDbEntity
  8
BLACK
  6
CONTINUOUS
100
AcDbLine
 10
120.6999999999999886
 20
-122.3399999999999892
 30
0
 11
120.2999999999999972
 21
-122.7399999999999949
 31
0
  0
LINE
  5
62
330
1A
100
AcDbEntity
  8
BLACK
  6
CONTINUOUS
100
AcDbLine
 10
120.2999999999999972
 20
-124.8799999999999955
 30
0
 11
120.6999999999999886
 21
-125.2800000000000011
 31
0
  0
LINE
  5
63
330
1A
100
AcDbEntity
  8
BLACK
  6
CONTINUOUS
100
AcDbLine
 10
120.6999999999999886
 20
-124.8799999999999955
 30
0
 11
120.2999999999999972
 21
-125.2800000000000011
 31
0
  0
LINE
  5
64
330
1A
100
AcDbEntity
  8
BLACK
  6
CONTINUOUS
100
AcDbLine
 10
121.0499999999999972
 20
-76.9699999999999989
 30
0
 11
121.4499999999999886
 21
-77.3699999999999903
 31
0
  0
LINE
  5
65
330
1A
100
AcDbEntity
  8
BLACK
  6
CONTINUOUS
100
AcDbLine
 10
121.4499999999999886
 20
-76.9699999999999989
 30
0
 11
121.0499999999999972
 21
-77.3699999999999903
 31
0
  0
LINE
  5
66
330
1A
100
AcDbEntity
  8
BLACK
  6
CONTINUOUS
100
AcDbLine
 10
121.0499999999999972
 20
-79.5099999999999909
 30
0
 11
121.4499999999999886
 21
-79.9099999999999966
 31
0
  0
LINE
  5
67
330
1A
100
AcDbEntity
  8
BLACK
  6
CONTINUOUS
100
AcDbLine
 10
121.4499999999999886
 20
-79.5099999999999909
 30
0
 11
121.0499999999999972
 21
-79.9099999999999966
 31
0
  0
LINE
  5
68
330
1A
100
AcDbEntity
  8
BLACK
  6
CONTINUOUS
100
AcDbLine
 10
121.0499999999999972
 20
-82.0499999999999972
 30
0
 11
121.4499999999999886
 21
-82.4500000000000028
 31
0
  0
LINE
  5
69
330
1A
100
AcDbEntity
  8
BLACK
  6
CONTINUOUS
100
AcDbLine
 10
121.4499999999999886
 20
-82.0499999999999972
 30
0
 11
121.0499999999999972
 21
-82.4500000000000028
 31
0
  0
LINE
  5
6A
330
1A
100
AcDbEntity
  8
BLACK
  6
CONTINUOUS
100
AcDbLine
 10
123.0499999999999972
 20
-56.7999999999999972
 30
0
 11
123.4499999999999886
 21
-57.1999999999999957
 31
0
  0
LINE
  5
6B
330
1A
100
AcDbEntity
  8
BLACK
  6
CONTINUOUS
100
AcDbLine
 10
123.4499999999999886
 20
-56.7999999999999972
 30
0
 11
123.0499999999999972
 21
-57.1999999999999957
 31
0
  0
LINE
  5
6C
330
1A
100
AcDbEntity
  8
BLACK
  6
CONTINUOUS
100
AcDbLine
 10
123.0499999999999972
 20
-59.2999999999999972
 30
0
 11
123.4499999999999886
 21
-59.6999999999999957
 31
0
  0
LINE
  5
6D
330
1A
100
AcDbEntity
  8
BLACK
  6
CONTINUOUS
100
AcDbLine
 10
123.4499999999999886
 20
-59.2999999999999972
 30
0
 11
123.0499999999999972
 21
-59.6999999999999957
 31
0
  0
LINE
  5
6E
330
1A
100
AcDbEntity
  8
BLACK
  6
CONTINUOUS
100
AcDbLine
 10
123.7599999999999909
 20
-68.5499999999999972
 30
0
 11
124.1599999999999966
 21
-68.9500000000000028
 31
0
  0
LINE
  5
6F
330
1A
100
AcDbEntity
  8
BLACK
  6
CONTINUOUS
100
AcDbLine
 10
124.1599999999999966
 20
-68.5499999999999972
 30
0
 11
123.7599999999999909
 21
-68.9500000000000028
 31
0
  0
LINE
  5
70
330
1A
100
AcDbEntity
  8
BLACK
  6
CONTINUOUS
100
AcDbLine
 10
125.5499999999999972
 20
-76.9699999999999989
 30
0
 11
125.9499999999999886
 21
-77.3699999999999903
 31
0
  0
LINE
  5
71
330
1A
100
AcDbEntity
  8
BLACK
  6
CONTINUOUS
100
AcDbLine
 10
125.9499999999999886
 20
-76.9699999999999989
 30
0
 11
125.5499999999999972
 21
-77.3699999999999903
 31
0
  0
LINE
  5
72
330
1A
100
AcDbEntity
  8
BLACK
  6
CONTINUOUS
100
AcDbLine
 10
125.5499999999999972
 20
-79.5099999999999909
 30
0
 11
125.9499999999999886
 21
-79.9099999999999966
 31
0
  0
LINE
  5
73
330
1A
100
AcDbEntity
  8
BLACK
  6
CONTINUOUS
100
AcDbLine
 10
125.9499999999999886
 20
-79.5099999999999909
 30
0
 11
125.5499999999999972
 21
-79.9099999999999966
 31
0
  0
LINE
  5
74
330
1A
100
AcDbEntity
  8
BLACK
  6
CONTINUOUS
100
AcDbLine
 10
125.5499999999999972
 20
-82.0499999999999972
 30
0
 11
125.9499999999999886
 21
-82.4500000000000028
 31
0
  0
LINE
  5
75
330
1A
100
AcDbEntity
  8
BLACK
  6
CONTINUOUS
100
AcDbLine
 10
125.9499999999999886
 20
-82.0499999999999972
 30
0
 11
125.5499999999999972
 21
-82.4500000000000028
 31
0
  0
LINE
  5
76
330
1A
100
AcDbEntity
  8
BLACK
  6
CONTINUOUS
100
AcDbLine
 10
125.7999999999999972
 20
-91.6400000000000006
 30
0
 11
126.1999999999999886
 21
-92.039999999999992
 31
0
  0
LINE
  5
77
330
1A
100
AcDbEntity
  8
BLACK
  6
CONTINUOUS
100
AcDbLine
 10
126.1999999999999886
 20
-91.6400000000000006
 30
0
 11
125.7999999999999972
 21
-92.039999999999992
 31
0
  0
LINE
  5
78
330
1A
100
AcDbEntity
  8
BLACK
  6
CONTINUOUS
100
AcDbLine
 10
125.7999999999999972
 20
-94.1799999999999926
 30
0
 11
126.1999999999999886
 21
-94.5799999999999983
 31
0
  0
LINE
  5
79
330
1A
100
AcDbEntity
  8
BLACK
  6
CONTINUOUS
100
AcDbLine
 10
126.1999999999999886
 20
-94.1799999999999926
 30
0
 11
125.7999999999999972
 21
-94.5799999999999983
 31
0
  0
LINE
  5
7A
330
1A
100
AcDbEntity
  8
BLACK
  6
CONTINUOUS
100
AcDbLine
 10
125.7999999999999972
 20
-96.7199999999999989
 30
0
 11
126.1999999999999886
 21
-97.1199999999999903
 31
0
  0
LINE
  5
7B
330
1A
100
AcDbEntity
  8
BLACK
  6
CONTINUOUS
100
AcDbLine
 10
126.1999999999999886
 20
-96.7199999999999989
 30
0
 11
125.7999999999999972
 21
-97.1199999999999903
 31
0
  0
LINE
  5
7C
330
1A
100
AcDbEntity
  8
BLACK
  6
CONTINUOUS
100
AcDbLine
 10
125.7999999999999972
 20
-99.2599999999999909
 30
0
 11
126.1999999999999886
 21
-99.6599999999999966
 31
0
  0
LINE
  5
7D
330
1A
100
AcDbEntity
  8
BLACK
  6
CONTINUOUS
100
AcDbLine
 10
126.1999999999999886
 20
-99.2599999999999909
 30
0
 11
125.7999999999999972
 21
-99.6599999999999966
 31
0
  0
LINE
  5
7E
330
1A
100
AcDbEntity
  8
BLACK
  6
CONTINUOUS
100
AcDbLine
 10
125.7999999999999972
 20
-101.7999999999999972
 30
0
 11
126.1999999999999886
 21
-102.1999999999999886
 31
0
  0
LINE
  5
7F
330
1A
100
AcDbEntity
  8
BLACK
  6
CONTINUOUS
100
AcDbLine
 10
126.1999999999999886
 20
-101.7999999999999972
 30
0
 11
125.7999999999999972
 21
-102.1999999999999886
 31
0
  0
LINE
  5
80
330
1A
100
AcDbEntity
  8
BLACK
  6
CONTINUOUS
100
AcDbLine
 10
125.7999999999999972
 20
-104.3399999999999892
 30
0
 11
126.1999999999999886
 21
-104.7399999999999949
 31
0
  0
LINE
  5
81
330
1A
100
AcDbEntity
  8
BLACK
  6
CONTINUOUS
100
AcDbLine
 10
126.1999999999999886
 20
-104.3399999999999892
 30
0
 11
125.7999999999999972
 21
-104.7399999999999949
 31
0
  0
LINE
  5
82
330
1A
100
AcDbEntity
  8
BLACK
  6
CONTINUOUS
100
AcDbLine
 10
125.7999999999999972
 20
-106.8799999999999955
 30
0
 11
126.1999999999999886
 21
-107.2800000000000011
 31
0
  0
LINE
  5
83
330
1A
100
AcDbEntity
  8
BLACK
  6
CONTINUOUS
100
AcDbLine
 10
126.1999999999999886
 20
-106.8799999999999955
 30
0
 11
125.7999999999999972
 21
-107.2800000000000011
 31
0
  0
LINE
  5
84
330
1A
100
AcDbEntity
  8
BLACK
  6
CONTINUOUS
100
AcDbLine
 10
125.7999999999999972
 20
-109.4200000000000017
 30
0
 11
126.1999999999999886
 21
-109.8199999999999932
 31
0
  0
LINE
  5
85
330
1A
100
AcDbEntity
  8
BLACK
  6
CONTINUOUS
100
AcDbLine
 10
126.1999999999999886
 20
-109.4200000000000017
 30
0
 11
125.7999999999999972
 21
-109.8199999999999932
 31
0
  0
LINE
  5
86
330
1A
100
AcDbEntity
  8
BLACK
  6
CONTINUOUS
100
AcDbLine
 10
125.7999999999999972
 20
-111.9599999999999937
 30
0
 11
126.1999999999999886
 21
-112.3599999999999994
 31
0
  0
LINE
  5
87
330
1A
100
AcDbEntity
  8
BLACK
  6
CONTINUOUS
100
AcDbLine
 10
126.1999999999999886
 20
-111.9599999999999937
 30
0
 11
125.7999999999999972
 21
-112.3599999999999994
 31
0
  0
LINE
  5
88
330
1A
100
AcDbEntity
  8
BLACK
  6
CONTINUOUS
100
AcDbLine
 10
125.7999999999999972
 20
-114.5
 30
0
 11
126.1999999999999886
 21
-114.8999999999999915
 31
0
  0
LINE
  5
89
330
1A
100
AcDbEntity
  8
BLACK
  6
CONTINUOUS
100
AcDbLine
 10
126.1999999999999886
 20
-114.5
 30
0
 11
125.7999999999999972
 21
-114.8999999999999915
 31
0
  0
LINE
  5
8A
330
1A
100
AcDbEntity
  8
BLACK
  6
CONTINUOUS
100
AcDbLine
 10
125.7999999999999972
 20
-117.039999999999992
 30
0
 11
126.1999999999999886
 21
-117.4399999999999977
 31
0
  0
LINE
  5
8B
330
1A
100
AcDbEntity
  8
BLACK
  6
CONTINUOUS
100
AcDbLine
 10
126.1999999999999886
 20
-117.039999999999992
 30
0
 11
125.7999999999999972
 21
-117.4399999999999977
 31
0
  0
LINE
  5
8C
330
1A
100
AcDbEntity
  8
BLACK
  6
CONTINUOUS
100
AcDbLine
 10
125.7999999999999972
 20
-119.5799999999999983
 30
0
 11
126.1999999999999886
 21
-119.9799999999999898
 31
0
  0
LINE
  5
8D
330
1A
100
AcDbEntity
  8
BLACK
  6
CONTINUOUS
100
AcDbLine
 10
126.1999999999999886
 20
-119.5799999999999983
 30
0
 11
125.7999999999999972
 21
-119.9799999999999898
 31
0
  0
LINE
  5
8E
330
1A
100
AcDbEntity
  8
BLACK
  6
CONTINUOUS
100
AcDbLine
 10
125.7999999999999972
 20
-122.1199999999999903
 30
0
 11
126.1999999999999886
 21
-122.519999999999996
 31
0
  0
LINE
  5
8F
330
1A
100
AcDbEntity
  8
BLACK
  6
CONTINUOUS
100
AcDbLine
 10
126.1999999999999886
 20
-122.1199999999999903
 30
0
 11
125.7999999999999972
 21
-122.519999999999996
 31
0
  0
LINE
  5
90
330
1A
100
AcDbEntity
  8
BLACK
  6
CONTINUOUS
100
AcDbLine
 10
125.7999999999999972
 20
-124.6599999999999966
 30
0
 11
126.1999999999999886
 21
-125.0599999999999881
 31
0
  0
LINE
  5
91
330
1A
100
AcDbEntity
  8
BLACK
  6
CONTINUOUS
100
AcDbLine
 10
126.1999999999999886
 20
-124.6599999999999966
 30
0
 11
125.7999999999999972
 21
-125.0599999999999881
 31
0
  0
LINE
  5
92
330
1A
100
AcDbEntity
  8
BLACK
  6
CONTINUOUS
100
AcDbLine
 10
125.7999999999999972
 20
-127.1999999999999886
 30
0
 11
126.1999999999999886
 21
-127.5999999999999943
 31
0
  0
LINE
  5
93
330
1A
100
AcDbEntity
  8
BLACK
  6
CONTINUOUS
100
AcDbLine
 10
126.1999999999999886
 20
-127.1999999999999886
 30
0
 11
125.7999999999999972
 21
-127.5999999999999943
 31
0
  0
LINE
  5
94
330
1A
100
AcDbEntity
  8
BLACK
  6
CONTINUOUS
100
AcDbLine
 10
126.2999999999999972
 20
-68.5499999999999972
 30
0
 11
126.6999999999999886
 21
-68.9500000000000028
 31
0
  0
LINE
  5
95
330
1A
100
AcDbEntity
  8
BLACK
  6
CONTINUOUS
100
AcDbLine
 10
126.6999999999999886
 20
-68.5499999999999972
 30
0
 11
126.2999999999999972
 21
-68.9500000000000028
 31
0
  0
LINE
  5
96
330
1A
100
AcDbEntity
  8
BLACK
  6
CONTINUOUS
100
AcDbLine
 10
130.2999999999999829
 20
-76.9699999999999989
 30
0
 11
130.6999999999999886
 21
-77.3699999999999903
 31
0
  0
LINE
  5
97
330
1A
100
AcDbEntity
  8
BLACK
  6
CONTINUOUS
100
AcDbLine
 10
130.6999999999999886
 20
-76.9699999999999989
 30
0
 11
130.2999999999999829
 21
-77.3699999999999903
 31
0
  0
LINE
  5
98
330
1A
100
AcDbEntity
  8
BLACK
  6
CONTINUOUS
100
AcDbLine
 10
130.2999999999999829
 20
-79.5099999999999909
 30
0
 11
130.6999999999999886
 21
-79.9099999999999966
 31
0
  0
LINE
  5
99
330
1A
100
AcDbEntity
  8
BLACK
  6
CONTINUOUS
100
AcDbLine
 10
130.6999999999999886
 20
-79.5099999999999909
 30
0
 11
130.2999999999999829
 21
-79.9099999999999966
 31
0
  0
LINE
  5
9A
330
1A
100
AcDbEntity
  8
BLACK
  6
CONTINUOUS
100
AcDbLine
 10
130.2999999999999829
 20
-82.0499999999999972
 30
0
 11
130.6999999999999886
 21
-82.4500000000000028
 31
0
  0
LINE
  5
9B
330
1A
100
AcDbEntity
  8
BLACK
  6
CONTINUOUS
100
AcDbLine
 10
130.6999999999999886
 20
-82.0499999999999972
 30
0
 11
130.2999999999999829
 21
-82.4500000000000028
 31
0
  0
LINE
  5
9C
330
1A
100
AcDbEntity
  8
BLACK
  6
CONTINUOUS
100
AcDbLine
 10
131.2999999999999829
 20
-67.0099999999999909
 30
0
 11
131.6999999999999886
 21
-67.4099999999999966
 31
0
  0
LINE
  5
9D
330
1A
100
AcDbEntity
  8
BLACK
  6
CONTINUOUS
100
AcDbLine
 10
131.6999999999999886
 20
-67.0099999999999909
 30
0
 11
131.2999999999999829
 21
-67.4099999999999966
 31
0
  0
LINE
  5
9E
330
1A
100
AcDbEntity
  8
BLACK
  6
CONTINUOUS
100
AcDbLine
 10
131.2999999999999829
 20
-69.5499999999999972
 30
0
 11
131.6999999999999886
 21
-69.9500000000000028
 31
0
  0
LINE
  5
9F
330
1A
100
AcDbEntity
  8
BLACK
  6
CONTINUOUS
100
AcDbLine
 10
131.6999999999999886
 20
-69.5499999999999972
 30
0
 11
131.2999999999999829
 21
-69.9500000000000028
 31
0
  0
LINE
  5
A0
330
1A
100
AcDbEntity
  8
BLACK
  6
CONTINUOUS
100
AcDbLine
 10
133.0499999999999829
 20
-56.7999999999999972
 30
0
 11
133.4499999999999886
 21
-57.1999999999999957
 31
0
  0
LINE
  5
A1
330
1A
100
AcDbEntity
  8
BLACK
  6
CONTINUOUS
100
AcDbLine
 10
133.4499999999999886
 20
-56.7999999999999972
 30
0
 11
133.0499999999999829
 21
-57.1999999999999957
 31
0
  0
LINE
  5
A2
330
1A
100
AcDbEntity
  8
BLACK
  6
CONTINUOUS
100
AcDbLine
 10
133.0499999999999829
 20
-59.2999999999999972
 30
0
 11
133.4499999999999886
 21
-59.6999999999999957
 31
0
  0
LINE
  5
A3
330
1A
100
AcDbEntity
  8
BLACK
  6
CONTINUOUS
100
AcDbLine
 10
133.4499999999999886
 20
-59.2999999999999972
 30
0
 11
133.0499999999999829
 21
-59.6999999999999957
 31
0
  0
LINE
  5
A4
330
1A
100
AcDbEntity
  8
BLACK
  6
CONTINUOUS
100
AcDbLine
 10
134.7999999999999829
 20
-76.9699999999999989
 30
0
 11
135.1999999999999886
 21
-77.3699999999999903
 31
0
  0
LINE
  5
A5
330
1A
100
AcDbEntity
  8
BLACK
  6
CONTINUOUS
100
AcDbLine
 10
135.1999999999999886
 20
-76.9699999999999989
 30
0
 11
134.7999999999999829
 21
-77.3699999999999903
 31
0
  0
LINE
  5
A6
330
1A
100
AcDbEntity
  8
BLACK
  6
CONTINUOUS
100
AcDbLine
 10
134.7999999999999829
 20
-79.5099999999999909
 30
0
 11
135.1999999999999886
 21
-79.9099999999999966
 31
0
  0
LINE
  5
A7
330
1A
100
AcDbEntity
  8
BLACK
  6
CONTINUOUS
100
AcDbLine
 10
135.1999999999999886
 20
-79.5099999999999909
 30
0
 11
134.7999999999999829
 21
-79.9099999999999966
 31
0
  0
LINE
  5
A8
330
1A
100
AcDbEntity
  8
BLACK
  6
CONTINUOUS
100
AcDbLine
 10
134.7999999999999829
 20
-82.0499999999999972
 30
0
 11
135.1999999999999886
 21
-82.4500000000000028
 31
0
  0
LINE
  5
A9
330
1A
100
AcDbEntity
  8
BLACK
  6
CONTINUOUS
100
AcDbLine
 10
135.1999999999999886
 20
-82.0499999999999972
 30
0
 11
134.7999999999999829
 21
-82.4500000000000028
 31
0
  0
LINE
  5
AA
330
1A
100
AcDbEntity
  8
BLACK
  6
CONTINUOUS
100
AcDbLine
 10
141.039999999999992
 20
-91.6400000000000006
 30
0
 11
141.4399999999999977
 21
-92.039999999999992
 31
0
  0
LINE
  5
AB
330
1A
100
AcDbEntity
  8
BLACK
  6
CONTINUOUS
100
AcDbLine
 10
141.4399999999999977
 20
-91.6400000000000006
 30
0
 11
141.039999999999992
 21
-92.039999999999992
 31
0
  0
LINE
  5
AC
330
1A
100
AcDbEntity
  8
BLACK
  6
CONTINUOUS
100
AcDbLine
 10
141.039999999999992
 20
-94.1799999999999926
 30
0
 11
141.4399999999999977
 21
-94.5799999999999983
 31
0
  0
LINE
  5
AD
330
1A
100
AcDbEntity
  8
BLACK
  6
CONTINUOUS
100
AcDbLine
 10
141.4399999999999977
 20
-94.1799999999999926
 30
0
 11
141.039999999999992
 21
-94.5799999999999983
 31
0
  0
LINE
  5
AE
330
1A
100
AcDbEntity
  8
BLACK
  6
CONTINUOUS
100
AcDbLine
 10
141.039999999999992
 20
-96.7199999999999989
 30
0
 11
141.4399999999999977
 21
-97.1199999999999903
 31
0
  0
LINE
  5
AF
330
1A
100
AcDbEntity
  8
BLACK
  6
CONTINUOUS
100
AcDbLine
 10
141.4399999999999977
 20
-96.7199999999999989
 30
0
 11
141.039999999999992
 21
-97.1199999999999903
 31
0
  0
LINE
  5
B0
330
1A
100
AcDbEntity
  8
BLACK
  6
CONTINUOUS
100
AcDbLine
 10
141.039999999999992
 20
-99.2599999999999909
 30
0
 11
141.4399999999999977
 21
-99.6599999999999966
 31
0
  0
LINE
  5
B1
330
1A
100
AcDbEntity
  8
BLACK
  6
CONTINUOUS
100
AcDbLine
 10
141.4399999999999977
 20
-99.2599999999999909
 30
0
 11
141.039999999999992
 21
-99.6599999999999966
 31
0
  0
LINE
  5
B2
330
1A
100
AcDbEntity
  8
BLACK
  6
CONTINUOUS
100
AcDbLine
 10
141.039999999999992
 20
-101.7999999999999972
 30
0
 11
141.4399999999999977
 21
-102.1999999999999886
 31
0
  0
LINE
  5
B3
330
1A
100
AcDbEntity
  8
BLACK
  6
CONTINUOUS
100
AcDbLine
 10
141.4399999999999977
 20
-101.7999999999999972
 30
0
 11
141.039999999999992
 21
-102.1999999999999886
 31
0
  0
LINE
  5
B4
330
1A
100
AcDbEntity
  8
BLACK
  6
CONTINUOUS
100
AcDbLine
 10
141.039999999999992
 20
-104.3399999999999892
 30
0
 11
141.4399999999999977
 21
-104.7399999999999949
 31
0
  0
LINE
  5
B5
330
1A
100
AcDbEntity
  8
BLACK
  6
CONTINUOUS
100
AcDbLine
 10
141.4399999999999977
 20
-104.3399999999999892
 30
0
 11
141.039999999999992
 21
-104.7399999999999949
 31
0
  0
LINE
  5
B6
330
1A
100
AcDbEntity
  8
BLACK
  6
CONTINUOUS
100
AcDbLine
 10
141.039999999999992
 20
-106.8799999999999955
 30
0
 11
141.4399999999999977
 21
-107.2800000000000011
 31
0
  0
LINE
  5
B7
330
1A
100
AcDbEntity
  8
BLACK
  6
CONTINUOUS
100
AcDbLine
 10
141.4399999999999977
 20
-106.8799999999999955
 30
0
 11
141.039999999999992
 21
-107.2800000000000011
 31
0
  0
LINE
  5
B8
330
1A
100
AcDbEntity
  8
BLACK
  6
CONTINUOUS
100
AcDbLine
 10
141.039999999999992
 20
-109.4200000000000017
 30
0
 11
141.4399999999999977
 21
-109.8199999999999932
 31
0
  0
LINE
  5
B9
330
1A
100
AcDbEntity
  8
BLACK
  6
CONTINUOUS
100
AcDbLine
 10
141.4399999999999977
 20
-109.4200000000000017
 30
0
 11
141.039999999999992
 21
-109.8199999999999932
 31
0
  0
LINE
  5
BA
330
1A
100
AcDbEntity
  8
BLACK
  6
CONTINUOUS
100
AcDbLine
 10
141.039999999999992
 20
-111.9599999999999937
 30
0
 11
141.4399999999999977
 21
-112.3599999999999994
 31
0
  0
LINE
  5
BB
330
1A
100
AcDbEntity
  8
BLACK
  6
CONTINUOUS
100
AcDbLine
 10
141.4399999999999977
 20
-111.9599999999999937
 30
0
 11
141.039999999999992
 21
-112.3599999999999994
 31
0
  0
LINE
  5
BC
330
1A
100
AcDbEntity
  8
BLACK
  6
CONTINUOUS
100
AcDbLine
 10
141.039999999999992
 20
-114.5
 30
0
 11
141.4399999999999977
 21
-114.8999999999999915
 31
0
  0
LINE
  5
BD
330
1A
100
AcDbEntity
  8
BLACK
  6
CONTINUOUS
100
AcDbLine
 10
141.4399999999999977
 20
-114.5
 30
0
 11
141.039999999999992
 21
-114.8999999999999915
 31
0
  0
LINE
  5
BE
330
1A
100
AcDbEntity
  8
BLACK
  6
CONTINUOUS
100
AcDbLine
 10
141.039999999999992
 20
-117.039999999999992
 30
0
 11
141.4399999999999977
 21
-117.4399999999999977
 31
0
  0
LINE
  5
BF
330
1A
100
AcDbEntity
  8
BLACK
  6
CONTINUOUS
100
AcDbLine
 10
141.4399999999999977
 20
-117.039999999999992
 30
0
 11
141.039999999999992
 21
-117.4399999999999977
 31
0
  0
LINE
  5
C0
330
1A
100
AcDbEntity
  8
BLACK
  6
CONTINUOUS
100
AcDbLine
 10
141.039999999999992
 20
-119.5799999999999983
 30
0
 11
141.4399999999999977
 21
-119.9799999999999898
 31
0
  0
LINE
  5
C1
330
1A
100
AcDbEntity
  8
BLACK
  6
CONTINUOUS
100
AcDbLine
 10
141.4399999999999977
 20
-119.5799999999999983
 30
0
 11
141.039999999999992
 21
-119.9799999999999898
 31
0
  0
LINE
  5
C2
330
1A
100
AcDbEntity
  8
BLACK
  6
CONTINUOUS
100
AcDbLine
 10
141.039999999999992
 20
-122.1199999999999903
 30
0
 11
141.4399999999999977
 21
-122.519999999999996
 31
0
  0
LINE
  5
C3
330
1A
100
AcDbEntity
  8
BLACK
  6
CONTINUOUS
100
AcDbLine
 10
141.4399999999999977
 20
-122.1199999999999903
 30
0
 11
141.039999999999992
 21
-122.519999999999996
 31
0
  0
LINE
  5
C4
330
1A
100
AcDbEntity
  8
BLACK
  6
CONTINUOUS
100
AcDbLine
 10
141.039999999999992
 20
-124.6599999999999966
 30
0
 11
141.4399999999999977
 21
-125.0599999999999881
 31
0
  0
LINE
  5
C5
330
1A
100
AcDbEntity
  8
BLACK
  6
CONTINUOUS
100
AcDbLine
 10
141.4399999999999977
 20
-124.6599999999999966
 30
0
 11
141.039999999999992
 21
-125.0599999999999881
 31
0
  0
LINE
  5
C6
330
1A
100
AcDbEntity
  8
BLACK
  6
CONTINUOUS
100
AcDbLine
 10
141.039999999999992
 20
-127.1999999999999886
 30
0
 11
141.4399999999999977
 21
-127.5999999999999943
 31
0
  0
LINE
  5
C7
330
1A
100
AcDbEntity
  8
BLACK
  6
CONTINUOUS
100
AcDbLine
 10
141.4399999999999977
 20
-127.1999999999999886
 30
0
 11
141.039999999999992
 21
-127.5999999999999943
 31
0
  0
LINE
  5
C8
330
1A
100
AcDbEntity
  8
BLACK
  6
CONTINUOUS
100
AcDbLine
 10
141.0499999999999829
 20
-81.7999999999999972
 30
0
 11
141.4499999999999886
 21
-82.2000000000000028
 31
0
  0
LINE
  5
C9
330
1A
100
AcDbEntity
  8
BLACK
  6
CONTINUOUS
100
AcDbLine
 10
141.4499999999999886
 20
-81.7999999999999972
 30
0
 11
141.0499999999999829
 21
-82.2000000000000028
 31
0
  0
LINE
  5
CA
330
1A
100
AcDbEntity
  8
BLACK
  6
CONTINUOUS
100
AcDbLine
 10
141.0499999999999829
 20
-84.2999999999999972
 30
0
 11
141.4499999999999886
 21
-84.7000000000000028
 31
0
  0
LINE
  5
CB
330
1A
100
AcDbEntity
  8
BLACK
  6
CONTINUOUS
100
AcDbLine
 10
141.4499999999999886
 20
-84.2999999999999972
 30
0
 11
141.0499999999999829
 21
-84.7000000000000028
 31
0
  0
LINE
  5
CC
330
1A
100
AcDbEntity
  8
BLACK
  6
CONTINUOUS
100
AcDbLine
 10
105.5577679999999958
 20
-138.1648380000000031
 30
0
 11
105.5577679999999958
 21
-136.1648380000000031
 31
0
  0
LINE
  5
CD
330
1A
100
AcDbEntity
  8
BLACK
  6
CONTINUOUS
100
AcDbLine
 10
105.5577679999999958
 20
-136.1648380000000031
 30
0
 11
106.0339579999999984
 21
-136.1648380000000031
 31
0
  0
LINE
  5
CE
330
1A
100
AcDbEntity
  8
BLACK
  6
CONTINUOUS
100
AcDbLine
 10
106.0339579999999984
 20
-136.1648380000000031
 30
0
 11
106.3196729999999945
 21
-136.260075999999998
 31
0
  0
LINE
  5
CF
330
1A
100
AcDbEntity
  8
BLACK
  6
CONTINUOUS
100
AcDbLine
 10
106.3196729999999945
 20
-136.260075999999998
 30
0
 11
106.5101489999999984
 21
-136.4505519999999876
 31
0
  0
LINE
  5
D0
330
1A
100
AcDbEntity
  8
BLACK
  6
CONTINUOUS
100
AcDbLine
 10
106.5101489999999984
 20
-136.4505519999999876
 30
0
 11
106.6053869999999932
 21
-136.6410280000000057
 31
0
  0
LINE
  5
D1
330
1A
100
AcDbEntity
  8
BLACK
  6
CONTINUOUS
100
AcDbLine
 10
106.6053869999999932
 20
-136.6410280000000057
 30
0
 11
106.7006250000000023
 21
-137.021979999999985
 31
0
  0
LINE
  5
D2
330
1A
100
AcDbEntity
  8
BLACK
  6
CONTINUOUS
100
AcDbLine
 10
106.7006250000000023
 20
-137.021979999999985
 30
0
 11
106.7006250000000023
 21
-137.3076949999999954
 31
0
  0
LINE
  5
D3
330
1A
100
AcDbEntity
  8
BLACK
  6
CONTINUOUS
100
AcDbLine
 10
106.7006250000000023
 20
-137.3076949999999954
 30
0
 11
106.6053869999999932
 21
-137.6886470000000031
 31
0
  0
LINE
  5
D4
330
1A
100
AcDbEntity
  8
BLACK
  6
CONTINUOUS
100
AcDbLine
 10
106.6053869999999932
 20
-137.6886470000000031
 30
0
 11
106.5101489999999984
 21
-137.8791229999999928
 31
0
  0
LINE
  5
D5
330
1A
100
AcDbEntity
  8
BLACK
  6
CONTINUOUS
100
AcDbLine
 10
106.5101489999999984
 20
-137.8791229999999928
 30
0
 11
106.3196729999999945
 21
-138.0695999999999799
 31
0
  0
LINE
  5
D6
330
1A
100
AcDbEntity
  8
BLACK
  6
CONTINUOUS
100
AcDbLine
 10
106.3196729999999945
 20
-138.0695999999999799
 30
0
 11
106.0339579999999984
 21
-138.1648380000000031
 31
0
  0
LINE
  5
D7
330
1A
100
AcDbEntity
  8
BLACK
  6
CONTINUOUS
100
AcDbLine
 10
106.0339579999999984
 20
-138.1648380000000031
 30
0
 11
105.5577679999999958
 21
-138.1648380000000031
 31
0
  0
LINE
  5
D8
330
1A
100
AcDbEntity
  8
BLACK
  6
CONTINUOUS
100
AcDbLine
 10
107.5577679999999958
 20
-138.1648380000000031
 30
0
 11
107.5577679999999958
 21
-136.8315039999999954
 31
0
  0
LINE
  5
D9
330
1A
100
AcDbEntity
  8
BLACK
  6
CONTINUOUS
100
AcDbLine
 10
107.5577679999999958
 20
-137.2124570000000006
 30
0
 11
107.6530059999999906
 21
-137.021979999999985
 31
0
  0
LINE
  5
DA
330
1A
100
AcDbEntity
  8
BLACK
  6
CONTINUOUS
100
AcDbLine
 10
107.6530059999999906
 20
-137.021979999999985
 30
0
 11
107.7482439999999997
 21
-136.9267419999999902
 31
0
  0
LINE
  5
DB
330
1A
100
AcDbEntity
  8
BLACK
  6
CONTINUOUS
100
AcDbLine
 10
107.7482439999999997
 20
-136.9267419999999902
 30
0
 11
107.9387199999999893
 21
-136.8315039999999954
 31
0
  0
LINE
  5
DC
330
1A
100
AcDbEntity
  8
BLACK
  6
CONTINUOUS
100
AcDbLine
 10
107.9387199999999893
 20
-136.8315039999999954
 30
0
 11
108.1291969999999907
 21
-136.8315039999999954
 31
0
  0
LINE
  5
DD
330
1A
100
AcDbEntity
  8
BLACK
  6
CONTINUOUS
100
AcDbLine
 10
108.7958629999999971
 20
-138.1648380000000031
 30
0
 11
108.7958629999999971
 21
-136.8315039999999954
 31
0
  0
LINE
  5
DE
330
1A
100
AcDbEntity
  8
BLACK
  6
CONTINUOUS
100
AcDbLine
 10
108.7958629999999971
 20
-136.1648380000000031
 30
0
 11
108.7006249999999881
 21
-136.260075999999998
 31
0
  0
LINE
  5
DF
330
1A
100
AcDbEntity
  8
BLACK
  6
CONTINUOUS
100
AcDbLine
 10
108.7006249999999881
 20
-136.260075999999998
 30
0
 11
108.7958629999999971
 21
-136.3553139999999928
 31
0
  0
LINE
  5
E0
330
1A
100
AcDbEntity
  8
BLACK
  6
CONTINUOUS
100
AcDbLine
 10
108.7958629999999971
 20
-136.3553139999999928
 30
0
 11
108.8911009999999919
 21
-136.260075999999998
 31
0
  0
LINE
  5
E1
330
1A
100
AcDbEntity
  8
BLACK
  6
CONTINUOUS
100
AcDbLine
 10
108.8911009999999919
 20
-136.260075999999998
 30
0
 11
108.7958629999999971
 21
-136.1648380000000031
 31
0
  0
LINE
  5
E2
330
1A
100
AcDbEntity
  8
BLACK
  6
CONTINUOUS
100
AcDbLine
 10
108.7958629999999971
 20
-136.1648380000000031
 30
0
 11
108.7958629999999971
 21
-136.3553139999999928
 31
0
  0
LINE
  5
E3
330
1A
100
AcDbEntity
  8
BLACK
  6
CONTINUOUS
100
AcDbLine
 10
110.0339579999999984
 20
-138.1648380000000031
 30
0
 11
109.8434819999999945
 21
-138.0695999999999799
 31
0
  0
LINE
  5
E4
330
1A
100
AcDbEntity
  8
BLACK
  6
CONTINUOUS
100
AcDbLine
 10
109.8434819999999945
 20
-138.0695999999999799
 30
0
 11
109.7482439999999997
 21
-137.8791229999999928
 31
0
  0
LINE
  5
E5
330
1A
100
AcDbEntity
  8
BLACK
  6
CONTINUOUS
100
AcDbLine
 10
109.7482439999999997
 20
-137.8791229999999928
 30
0
 11
109.7482439999999997
 21
-136.1648380000000031
 31
0
  0
LINE
  5
E6
330
1A
100
AcDbEntity
  8
BLACK
  6
CONTINUOUS
100
AcDbLine
 10
111.0815769999999958
 20
-138.1648380000000031
 30
0
 11
110.8911009999999919
 21
-138.0695999999999799
 31
0
  0
LINE
  5
E7
330
1A
100
AcDbEntity
  8
BLACK
  6
CONTINUOUS
100
AcDbLine
 10
110.8911009999999919
 20
-138.0695999999999799
 30
0
 11
110.7958629999999971
 21
-137.8791229999999928
 31
0
  0
LINE
  5
E8
330
1A
100
AcDbEntity
  8
BLACK
  6
CONTINUOUS
100
AcDbLine
 10
110.7958629999999971
 20
-137.8791229999999928
 30
0
 11
110.7958629999999971
 21
-136.1648380000000031
 31
0
  0
LINE
  5
E9
330
1A
100
AcDbEntity
  8
BLACK
  6
CONTINUOUS
100
AcDbLine
 10
113.367291999999992
 20
-138.1648380000000031
 30
0
 11
113.367291999999992
 21
-136.1648380000000031
 31
0
  0
LINE
  5
EA
330
1A
100
AcDbEntity
  8
BLACK
  6
CONTINUOUS
100
AcDbLine
 10
113.367291999999992
 20
-136.1648380000000031
 30
0
 11
114.0339589999999959
 21
-137.5934089999999799
 31
0
  0
LINE
  5
EB
330
1A
100
AcDbEntity
  8
BLACK
  6
CONTINUOUS
100
AcDbLine
 10
114.0339589999999959
 20
-137.5934089999999799
 30
0
 11
114.7006249999999881
 21
-136.1648380000000031
 31
0
  0
LINE
  5
EC
330
1A
100
AcDbEntity
  8
BLACK
  6
CONTINUOUS
100
AcDbLine
 10
114.7006249999999881
 20
-136.1648380000000031
 30
0
 11
114.7006249999999881
 21
-138.1648380000000031
 31
0
  0
LINE
  5
ED
330
1A
100
AcDbEntity
  8
BLACK
  6
CONTINUOUS
100
AcDbLine
 10
116.5101489999999984
 20
-138.1648380000000031
 30
0
 11
116.5101489999999984
 21
-137.1172190000000057
 31
0
  0
LINE
  5
EE
330
1A
100
AcDbEntity
  8
BLACK
  6
CONTINUOUS
100
AcDbLine
 10
116.5101489999999984
 20
-137.1172190000000057
 30
0
 11
116.4149109999999894
 21
-136.9267419999999902
 31
0
  0
LINE
  5
EF
330
1A
100
AcDbEntity
  8
BLACK
  6
CONTINUOUS
100
AcDbLine
 10
116.4149109999999894
 20
-136.9267419999999902
 30
0
 11
116.2244349999999997
 21
-136.8315039999999954
 31
0
  0
LINE
  5
F0
330
1A
100
AcDbEntity
  8
BLACK
  6
CONTINUOUS
100
AcDbLine
 10
116.2244349999999997
 20
-136.8315039999999954
 30
0
 11
115.8434819999999945
 21
-136.8315039999999954
 31
0
  0
LINE
  5
F1
330
1A
100
AcDbEntity
  8
BLACK
  6
CONTINUOUS
100
AcDbLine
 10
115.8434819999999945
 20
-136.8315039999999954
 30
0
 11
115.6530059999999906
 21
-136.9267419999999902
 31
0
  0
LINE
  5
F2
330
1A
100
AcDbEntity
  8
BLACK
  6
CONTINUOUS
100
AcDbLine
 10
116.5101489999999984
 20
-138.0695999999999799
 30
0
 11
116.3196729999999945
 21
-138.1648380000000031
 31
0
  0
LINE
  5
F3
330
1A
100
AcDbEntity
  8
BLACK
  6
CONTINUOUS
100
AcDbLine
 10
116.3196729999999945
 20
-138.1648380000000031
 30
0
 11
115.8434819999999945
 21
-138.1648380000000031
 31
0
  0
LINE
  5
F4
330
1A
100
AcDbEntity
  8
BLACK
  6
CONTINUOUS
100
AcDbLine
 10
115.8434819999999945
 20
-138.1648380000000031
 30
0
 11
115.6530059999999906
 21
-138.0695999999999799
 31
0
  0
LINE
  5
F5
330
1A
100
AcDbEntity
  8
BLACK
  6
CONTINUOUS
100
AcDbLine
 10
115.6530059999999906
 20
-138.0695999999999799
 30
0
 11
115.5577679999999958
 21
-137.8791229999999928
 31
0
  0
LINE
  5
F6
330
1A
100
AcDbEntity
  8
BLACK
  6
CONTINUOUS
100
AcDbLine
 10
115.5577679999999958
 20
-137.8791229999999928
 30
0
 11
115.5577679999999958
 21
-137.6886470000000031
 31
0
  0
LINE
  5
F7
330
1A
100
AcDbEntity
  8
BLACK
  6
CONTINUOUS
100
AcDbLine
 10
115.5577679999999958
 20
-137.6886470000000031
 30
0
 11
115.6530059999999906
 21
-137.498170999999985
 31
0
  0
LINE
  5
F8
330
1A
100
AcDbEntity
  8
BLACK
  6
CONTINUOUS
100
AcDbLine
 10
115.6530059999999906
 20
-137.498170999999985
 30
0
 11
115.8434819999999945
 21
-137.4029329999999902
 31
0
  0
LINE
  5
F9
330
1A
100
AcDbEntity
  8
BLACK
  6
CONTINUOUS
100
AcDbLine
 10
115.8434819999999945
 20
-137.4029329999999902
 30
0
 11
116.3196729999999945
 21
-137.4029329999999902
 31
0
  0
LINE
  5
FA
330
1A
100
AcDbEntity
  8
BLACK
  6
CONTINUOUS
100
AcDbLine
 10
116.3196729999999945
 20
-137.4029329999999902
 30
0
 11
116.5101489999999984
 21
-137.3076949999999954
 31
0
  0
LINE
  5
FB
330
1A
100
AcDbEntity
  8
BLACK
  6
CONTINUOUS
100
AcDbLine
 10
117.462530000000001
 20
-136.8315039999999954
 30
0
 11
117.462530000000001
 21
-138.8315039999999954
 31
0
  0
LINE
  5
FC
330
1A
100
AcDbEntity
  8
BLACK
  6
CONTINUOUS
100
AcDbLine
 10
117.462530000000001
 20
-136.9267419999999902
 30
0
 11
117.6530059999999906
 21
-136.8315039999999954
 31
0
  0
LINE
  5
FD
330
1A
100
AcDbEntity
  8
BLACK
  6
CONTINUOUS
100
AcDbLine
 10
117.6530059999999906
 20
-136.8315039999999954
 30
0
 11
118.0339589999999959
 21
-136.8315039999999954
 31
0
  0
LINE
  5
FE
330
1A
100
AcDbEntity
  8
BLACK
  6
CONTINUOUS
100
AcDbLine
 10
118.0339589999999959
 20
-136.8315039999999954
 30
0
 11
118.2244349999999997
 21
-136.9267419999999902
 31
0
  0
LINE
  5
FF
330
1A
100
AcDbEntity
  8
BLACK
  6
CONTINUOUS
100
AcDbLine
 10
118.2244349999999997
 20
-136.9267419999999902
 30
0
 11
118.3196729999999945
 21
-137.021979999999985
 31
0
  0
LINE
  5
100
330
1A
100
AcDbEntity
  8
BLACK
  6
CONTINUOUS
100
AcDbLine
 10
118.3196729999999945
 20
-137.021979999999985
 30
0
 11
118.4149109999999894
 21
-137.2124570000000006
 31
0
  0
LINE
  5
101
330
1A
100
AcDbEntity
  8
BLACK
  6
CONTINUOUS
100
AcDbLine
 10
118.4149109999999894
 20
-137.2124570000000006
 30
0
 11
118.4149109999999894
 21
-137.7838849999999979
 31
0
  0
LINE
  5
102
330
1A
100
AcDbEntity
  8
BLACK
  6
CONTINUOUS
100
AcDbLine
 10
118.4149109999999894
 20
-137.7838849999999979
 30
0
 11
118.3196729999999945
 21
-137.9743609999999876
 31
0
  0
LINE
  5
103
330
1A
100
AcDbEntity
  8
BLACK
  6
CONTINUOUS
100
AcDbLine
 10
118.3196729999999945
 20
-137.9743609999999876
 30
0
 11
118.2244349999999997
 21
-138.0695999999999799
 31
0
  0
LINE
  5
104
330
1A
100
AcDbEntity
  8
BLACK
  6
CONTINUOUS
100
AcDbLine
 10
118.2244349999999997
 20
-138.0695999999999799
 30
0
 11
118.0339589999999959
 21
-138.1648380000000031
 31
0
  0
LINE
  5
105
330
1A
100
AcDbEntity
  8
BLACK
  6
CONTINUOUS
100
AcDbLine
 10
118.0339589999999959
 20
-138.1648380000000031
 30
0
 11
117.6530059999999906
 21
-138.1648380000000031
 31
0
  0
LINE
  5
106
330
1A
100
AcDbEntity
  8
BLACK
  6
CONTINUOUS
100
AcDbLine
 10
117.6530059999999906
 20
-138.1648380000000031
 30
0
 11
117.462530000000001
 21
-138.0695999999999799
 31
0
  0
LINE
  5
107
330
1A
100
AcDbEntity
  8
BLACK
  6
CONTINUOUS
100
AcDbLine
 10
119.2720539999999971
 20
-137.9743609999999876
 30
0
 11
119.367291999999992
 21
-138.0695999999999799
 31
0
  0
LINE
  5
108
330
1A
100
AcDbEntity
  8
BLACK
  6
CONTINUOUS
100
AcDbLine
 10
119.367291999999992
 20
-138.0695999999999799
 30
0
 11
119.2720539999999971
 21
-138.1648380000000031
 31
0
  0
LINE
  5
109
330
1A
100
AcDbEntity
  8
BLACK
  6
CONTINUOUS
100
AcDbLine
 10
119.2720539999999971
 20
-138.1648380000000031
 30
0
 11
119.1768159999999881
 21
-138.0695999999999799
 31
0
  0
LINE
  5
10A
330
1A
100
AcDbEntity
  8
BLACK
  6
CONTINUOUS
100
AcDbLine
 10
119.1768159999999881
 20
-138.0695999999999799
 30
0
 11
119.2720539999999971
 21
-137.9743609999999876
 31
0
  0
LINE
  5
10B
330
1A
100
AcDbEntity
  8
BLACK
  6
CONTINUOUS
100
AcDbLine
 10
119.2720539999999971
 20
-137.9743609999999876
 30
0
 11
119.2720539999999971
 21
-138.1648380000000031
 31
0
  0
LINE
  5
10C
330
1A
100
AcDbEntity
  8
BLACK
  6
CONTINUOUS
100
AcDbLine
 10
119.2720539999999971
 20
-136.9267419999999902
 30
0
 11
119.367291999999992
 21
-137.021979999999985
 31
0
  0
LINE
  5
10D
330
1A
100
AcDbEntity
  8
BLACK
  6
CONTINUOUS
100
AcDbLine
 10
119.367291999999992
 20
-137.021979999999985
 30
0
 11
119.2720539999999971
 21
-137.1172190000000057
 31
0
  0
LINE
  5
10E
330
1A
100
AcDbEntity
  8
BLACK
  6
CONTINUOUS
100
AcDbLine
 10
119.2720539999999971
 20
-137.1172190000000057
 30
0
 11
119.1768159999999881
 21
-137.021979999999985
 31
0
  0
LINE
  5
10F
330
1A
100
AcDbEntity
  8
BLACK
  6
CONTINUOUS
100
AcDbLine
 10
119.1768159999999881
 20
-137.021979999999985
 30
0
 11
119.2720539999999971
 21
-136.9267419999999902
 31
0
  0
LINE
  5
110
330
1A
100
AcDbEntity
  8
BLACK
  6
CONTINUOUS
100
AcDbLine
 10
119.2720539999999971
 20
-136.9267419999999902
 30
0
 11
119.2720539999999971
 21
-137.1172190000000057
 31
0
  0
LINE
  5
111
330
1A
100
AcDbEntity
  8
BLACK
  6
CONTINUOUS
100
AcDbLine
 10
102.5499999999999972
 20
-141.25
 30
0
 11
102.9499999999999886
 21
-141.6500000000000057
 31
0
  0
LINE
  5
112
330
1A
100
AcDbEntity
  8
BLACK
  6
CONTINUOUS
100
AcDbLine
 10
102.9499999999999886
 20
-141.25
 30
0
 11
102.5499999999999972
 21
-141.6500000000000057
 31
0
  0
LINE
  5
113
330
1A
100
AcDbEntity
  8
BLACK
  6
CONTINUOUS
100
AcDbLine
 10
105.9387199999999893
 20
-140.3648379999999918
 30
0
 11
106.1291969999999907
 21
-140.3648379999999918
 31
0
  0
LINE
  5
114
330
1A
100
AcDbEntity
  8
BLACK
  6
CONTINUOUS
100
AcDbLine
 10
106.1291969999999907
 20
-140.3648379999999918
 30
0
 11
106.3196729999999945
 21
-140.4600759999999866
 31
0
  0
LINE
  5
115
330
1A
100
AcDbEntity
  8
BLACK
  6
CONTINUOUS
100
AcDbLine
 10
106.3196729999999945
 20
-140.4600759999999866
 30
0
 11
106.4149109999999894
 21
-140.5553139999999814
 31
0
  0
LINE
  5
116
330
1A
100
AcDbEntity
  8
BLACK
  6
CONTINUOUS
100
AcDbLine
 10
106.4149109999999894
 20
-140.5553139999999814
 30
0
 11
106.5101489999999984
 21
-140.7457899999999995
 31
0
  0
LINE
  5
117
330
1A
100
AcDbEntity
  8
BLACK
  6
CONTINUOUS
100
AcDbLine
 10
106.5101489999999984
 20
-140.7457899999999995
 30
0
 11
106.6053869999999932
 21
-141.1267420000000072
 31
0
  0
LINE
  5
118
330
1A
100
AcDbEntity
  8
BLACK
  6
CONTINUOUS
100
AcDbLine
 10
106.6053869999999932
 20
-141.1267420000000072
 30
0
 11
106.6053869999999932
 21
-141.6029330000000073
 31
0
  0
LINE
  5
119
330
1A
100
AcDbEntity
  8
BLACK
  6
CONTINUOUS
100
AcDbLine
 10
106.6053869999999932
 20
-141.6029330000000073
 30
0
 11
106.5101489999999984
 21
-141.9838849999999866
 31
0
  0
LINE
  5
11A
330
1A
100
AcDbEntity
  8
BLACK
  6
CONTINUOUS
100
AcDbLine
 10
106.5101489999999984
 20
-141.9838849999999866
 30
0
 11
106.4149109999999894
 21
-142.1743610000000047
 31
0
  0
LINE
  5
11B
330
1A
100
AcDbEntity
  8
BLACK
  6
CONTINUOUS
100
AcDbLine
 10
106.4149109999999894
 20
-142.1743610000000047
 30
0
 11
106.3196729999999945
 21
-142.269599999999997
 31
0
  0
LINE
  5
11C
330
1A
100
AcDbEntity
  8
BLACK
  6
CONTINUOUS
100
AcDbLine
 10
106.3196729999999945
 20
-142.269599999999997
 30
0
 11
106.1291969999999907
 21
-142.3648379999999918
 31
0
  0
LINE
  5
11D
330
1A
100
AcDbEntity
  8
BLACK
  6
CONTINUOUS
100
AcDbLine
 10
106.1291969999999907
 20
-142.3648379999999918
 30
0
 11
105.9387199999999893
 21
-142.3648379999999918
 31
0
  0
LINE
  5
11E
330
1A
100
AcDbEntity
  8
BLACK
  6
CONTINUOUS
100
AcDbLine
 10
105.9387199999999893
 20
-142.3648379999999918
 30
0
 11
105.7482439999999997
 21
-142.269599999999997
 31
0
  0
LINE
  5
11F
330
1A
100
AcDbEntity
  8
BLACK
  6
CONTINUOUS
100
AcDbLine
 10
105.7482439999999997
 20
-142.269599999999997
 30
0
 11
105.6530059999999906
 21
-142.1743610000000047
 31
0
  0
LINE
  5
120
330
1A
100
AcDbEntity
  8
BLACK
  6
CONTINUOUS
100
AcDbLine
 10
105.6530059999999906
 20
-142.1743610000000047
 30
0
 11
105.5577679999999958
 21
-141.9838849999999866
 31
0
  0
LINE
  5
121
330
1A
100
AcDbEntity
  8
BLACK
  6
CONTINUOUS
100
AcDbLine
 10
105.5577679999999958
 20
-141.9838849999999866
 30
0
 11
105.462530000000001
 21
-141.6029330000000073
 31
0
  0
LINE
  5
122
330
1A
100
AcDbEntity
  8
BLACK
  6
CONTINUOUS
100
AcDbLine
 10
105.462530000000001
 20
-141.6029330000000073
 30
0
 11
105.462530000000001
 21
-141.1267420000000072
 31
0
  0
LINE
  5
123
330
1A
100
AcDbEntity
  8
BLACK
  6
CONTINUOUS
100
AcDbLine
 10
105.462530000000001
 20
-141.1267420000000072
 30
0
 11
105.5577679999999958
 21
-140.7457899999999995
 31
0
  0
LINE
  5
124
330
1A
100
AcDbEntity
  8
BLACK
  6
CONTINUOUS
100
AcDbLine
 10
105.5577679999999958
 20
-140.7457899999999995
 30
0
 11
105.6530059999999906
 21
-140.5553139999999814
 31
0
  0
LINE
  5
125
330
1A
100
AcDbEntity
  8
BLACK
  6
CONTINUOUS
100
AcDbLine
 10
105.6530059999999906
 20
-140.5553139999999814
 30
0
 11
105.7482439999999997
 21
-140.4600759999999866
 31
0
  0
LINE
  5
126
330
1A
100
AcDbEntity
  8
BLACK
  6
CONTINUOUS
100
AcDbLine
 10
105.7482439999999997
 20
-140.4600759999999866
 30
0
 11
105.9387199999999893
 21
-140.3648379999999918
 31
0
  0
LINE
  5
127
330
1A
100
AcDbEntity
  8
BLACK
  6
CONTINUOUS
100
AcDbLine
 10
107.462530000000001
 20
-142.1743610000000047
 30
0
 11
107.5577679999999958
 21
-142.269599999999997
 31
0
  0
LINE
  5
128
330
1A
100
AcDbEntity
  8
BLACK
  6
CONTINUOUS
100
AcDbLine
 10
107.5577679999999958
 20
-142.269599999999997
 30
0
 11
107.462530000000001
 21
-142.3648379999999918
 31
0
  0
LINE
  5
129
330
1A
100
AcDbEntity
  8
BLACK
  6
CONTINUOUS
100
AcDbLine
 10
107.462530000000001
 20
-142.3648379999999918
 30
0
 11
107.367291999999992
 21
-142.269599999999997
 31
0
  0
LINE
  5
12A
330
1A
100
AcDbEntity
  8
BLACK
  6
CONTINUOUS
100
AcDbLine
 10
107.367291999999992
 20
-142.269599999999997
 30
0
 11
107.462530000000001
 21
-142.1743610000000047
 31
0
  0
LINE
  5
12B
330
1A
100
AcDbEntity
  8
BLACK
  6
CONTINUOUS
100
AcDbLine
 10
107.462530000000001
 20
-142.1743610000000047
 30
0
 11
107.462530000000001
 21
-142.3648379999999918
 31
0
  0
LINE
  5
12C
330
1A
100
AcDbEntity
  8
BLACK
  6
CONTINUOUS
100
AcDbLine
 10
109.2720539999999971
 20
-141.031503999999984
 30
0
 11
109.2720539999999971
 21
-142.3648379999999918
 31
0
  0
LINE
  5
12D
330
1A
100
AcDbEntity
  8
BLACK
  6
CONTINUOUS
100
AcDbLine
 10
108.7958629999999971
 20
-140.269599999999997
 30
0
 11
108.3196729999999945
 21
-141.6981710000000021
 31
0
  0
LINE
  5
12E
330
1A
100
AcDbEntity
  8
BLACK
  6
CONTINUOUS
100
AcDbLine
 10
108.3196729999999945
 20
-141.6981710000000021
 30
0
 11
109.5577679999999958
 21
-141.6981710000000021
 31
0
  0
LINE
  5
12F
330
1A
100
AcDbEntity
  8
BLACK
  6
CONTINUOUS
100
AcDbLine
 10
110.7006249999999881
 20
-140.3648379999999918
 30
0
 11
110.8911019999999894
 21
-140.3648379999999918
 31
0
  0
LINE
  5
130
330
1A
100
AcDbEntity
  8
BLACK
  6
CONTINUOUS
100
AcDbLine
 10
110.8911019999999894
 20
-140.3648379999999918
 30
0
 11
111.0815779999999933
 21
-140.4600759999999866
 31
0
  0
LINE
  5
131
330
1A
100
AcDbEntity
  8
BLACK
  6
CONTINUOUS
100
AcDbLine
 10
111.0815779999999933
 20
-140.4600759999999866
 30
0
 11
111.1768159999999881
 21
-140.5553139999999814
 31
0
  0
LINE
  5
132
330
1A
100
AcDbEntity
  8
BLACK
  6
CONTINUOUS
100
AcDbLine
 10
111.1768159999999881
 20
-140.5553139999999814
 30
0
 11
111.2720539999999971
 21
-140.7457899999999995
 31
0
  0
LINE
  5
133
330
1A
100
AcDbEntity
  8
BLACK
  6
CONTINUOUS
100
AcDbLine
 10
111.2720539999999971
 20
-140.7457899999999995
 30
0
 11
111.367291999999992
 21
-141.1267420000000072
 31
0
  0
LINE
  5
134
330
1A
100
AcDbEntity
  8
BLACK
  6
CONTINUOUS
100
AcDbLine
 10
111.367291999999992
 20
-141.1267420000000072
 30
0
 11
111.367291999999992
 21
-141.6029330000000073
 31
0
  0
LINE
  5
135
330
1A
100
AcDbEntity
  8
BLACK
  6
CONTINUOUS
100
AcDbLine
 10
111.367291999999992
 20
-141.6029330000000073
 30
0
 11
111.2720539999999971
 21
-141.9838849999999866
 31
0
  0
LINE
  5
136
330
1A
100
AcDbEntity
  8
BLACK
  6
CONTINUOUS
100
AcDbLine
 10
111.2720539999999971
 20
-141.9838849999999866
 30
0
 11
111.1768159999999881
 21
-142.1743610000000047
 31
0
  0
LINE
  5
137
330
1A
100
AcDbEntity
  8
BLACK
  6
CONTINUOUS
100
AcDbLine
 10
111.1768159999999881
 20
-142.1743610000000047
 30
0
 11
111.0815779999999933
 21
-142.269599999999997
 31
0
  0
LINE
  5
138
330
1A
100
AcDbEntity
  8
BLACK
  6
CONTINUOUS
100
AcDbLine
 10
111.0815779999999933
 20
-142.269599999999997
 30
0
 11
110.8911019999999894
 21
-142.3648379999999918
 31
0
  0
LINE
  5
139
330
1A
100
AcDbEntity
  8
BLACK
  6
CONTINUOUS
100
AcDbLine
 10
110.8911019999999894
 20
-142.3648379999999918
 30
0
 11
110.7006249999999881
 21
-142.3648379999999918
 31
0
  0
LINE
  5
13A
330
1A
100
AcDbEntity
  8
BLACK
  6
CONTINUOUS
100
AcDbLine
 10
110.7006249999999881
 20
-142.3648379999999918
 30
0
 11
110.5101489999999984
 21
-142.269599999999997
 31
0
  0
LINE
  5
13B
330
1A
100
AcDbEntity
  8
BLACK
  6
CONTINUOUS
100
AcDbLine
 10
110.5101489999999984
 20
-142.269599999999997
 30
0
 11
110.4149109999999894
 21
-142.1743610000000047
 31
0
  0
LINE
  5
13C
330
1A
100
AcDbEntity
  8
BLACK
  6
CONTINUOUS
100
AcDbLine
 10
110.4149109999999894
 20
-142.1743610000000047
 30
0
 11
110.3196729999999945
 21
-141.9838849999999866
 31
0
  0
LINE
  5
13D
330
1A
100
AcDbEntity
  8
BLACK
  6
CONTINUOUS
100
AcDbLine
 10
110.3196729999999945
 20
-141.9838849999999866
 30
0
 11
110.2244349999999997
 21
-141.6029330000000073
 31
0
  0
LINE
  5
13E
330
1A
100
AcDbEntity
  8
BLACK
  6
CONTINUOUS
100
AcDbLine
 10
110.2244349999999997
 20
-141.6029330000000073
 30
0
 11
110.2244349999999997
 21
-141.1267420000000072
 31
0
  0
LINE
  5
13F
330
1A
100
AcDbEntity
  8
BLACK
  6
CONTINUOUS
100
AcDbLine
 10
110.2244349999999997
 20
-141.1267420000000072
 30
0
 11
110.3196729999999945
 21
-140.7457899999999995
 31
0
  0
LINE
  5
140
330
1A
100
AcDbEntity
  8
BLACK
  6
CONTINUOUS
100
AcDbLine
 10
110.3196729999999945
 20
-140.7457899999999995
 30
0
 11
110.4149109999999894
 21
-140.5553139999999814
 31
0
  0
LINE
  5
141
330
1A
100
AcDbEntity
  8
BLACK
  6
CONTINUOUS
100
AcDbLine
 10
110.4149109999999894
 20
-140.5553139999999814
 30
0
 11
110.5101489999999984
 21
-140.4600759999999866
 31
0
  0
LINE
  5
142
330
1A
100
AcDbEntity
  8
BLACK
  6
CONTINUOUS
100
AcDbLine
 10
110.5101489999999984
 20
-140.4600759999999866
 30
0
 11
110.7006249999999881
 21
-140.3648379999999918
 31
0
  0
LINE
  5
143
330
1A
100
AcDbEntity
  8
BLACK
  6
CONTINUOUS
100
AcDbLine
 10
112.6053869999999932
 20
-140.3648379999999918
 30
0
 11
112.7958639999999946
 21
-140.3648379999999918
 31
0
  0
LINE
  5
144
330
1A
100
AcDbEntity
  8
BLACK
  6
CONTINUOUS
100
AcDbLine
 10
112.7958639999999946
 20
-140.3648379999999918
 30
0
 11
112.9863399999999984
 21
-140.4600759999999866
 31
0
  0
LINE
  5
145
330
1A
100
AcDbEntity
  8
BLACK
  6
CONTINUOUS
100
AcDbLine
 10
112.9863399999999984
 20
-140.4600759999999866
 30
0
 11
113.0815779999999933
 21
-140.5553139999999814
 31
0
  0
LINE
  5
146
330
1A
100
AcDbEntity
  8
BLACK
  6
CONTINUOUS
100
AcDbLine
 10
113.0815779999999933
 20
-140.5553139999999814
 30
0
 11
113.1768159999999881
 21
-140.7457899999999995
 31
0
  0
LINE
  5
147
330
1A
100
AcDbEntity
  8
BLACK
  6
CONTINUOUS
100
AcDbLine
 10
113.1768159999999881
 20
-140.7457899999999995
 30
0
 11
113.2720539999999971
 21
-141.1267420000000072
 31
0
  0
LINE
  5
148
330
1A
100
AcDbEntity
  8
BLACK
  6
CONTINUOUS
100
AcDbLine
 10
113.2720539999999971
 20
-141.1267420000000072
 30
0
 11
113.2720539999999971
 21
-141.6029330000000073
 31
0
  0
LINE
  5
149
330
1A
100
AcDbEntity
  8
BLACK
  6
CONTINUOUS
100
AcDbLine
 10
113.2720539999999971
 20
-141.6029330000000073
 30
0
 11
113.1768159999999881
 21
-141.9838849999999866
 31
0
  0
LINE
  5
14A
330
1A
100
AcDbEntity
  8
BLACK
  6
CONTINUOUS
100
AcDbLine
 10
113.1768159999999881
 20
-141.9838849999999866
 30
0
 11
113.0815779999999933
 21
-142.1743610000000047
 31
0
  0
LINE
  5
14B
330
1A
100
AcDbEntity
  8
BLACK
  6
CONTINUOUS
100
AcDbLine
 10
113.0815779999999933
 20
-142.1743610000000047
 30
0
 11
112.9863399999999984
 21
-142.269599999999997
 31
0
  0
LINE
  5
14C
330
1A
100
AcDbEntity
  8
BLACK
  6
CONTINUOUS
100
AcDbLine
 10
112.9863399999999984
 20
-142.269599999999997
 30
0
 11
112.7958639999999946
 21
-142.3648379999999918
 31
0
  0
LINE
  5
14D
330
1A
100
AcDbEntity
  8
BLACK
  6
CONTINUOUS
100
AcDbLine
 10
112.7958639999999946
 20
-142.3648379999999918
 30
0
 11
112.6053869999999932
 21
-142.3648379999999918
 31
0
  0
LINE
  5
14E
330
1A
100
AcDbEntity
  8
BLACK
  6
CONTINUOUS
100
AcDbLine
 10
112.6053869999999932
 20
-142.3648379999999918
 30
0
 11
112.4149109999999894
 21
-142.269599999999997
 31
0
  0
LINE
  5
14F
330
1A
100
AcDbEntity
  8
BLACK
  6
CONTINUOUS
100
AcDbLine
 10
112.4149109999999894
 20
-142.269599999999997
 30
0
 11
112.3196729999999945
 21
-142.1743610000000047
 31
0
  0
LINE
  5
150
330
1A
100
AcDbEntity
  8
BLACK
  6
CONTINUOUS
100
AcDbLine
 10
112.3196729999999945
 20
-142.1743610000000047
 30
0
 11
112.2244349999999997
 21
-141.9838849999999866
 31
0
  0
LINE
  5
151
330
1A
100
AcDbEntity
  8
BLACK
  6
CONTINUOUS
100
AcDbLine
 10
112.2244349999999997
 20
-141.9838849999999866
 30
0
 11
112.1291969999999907
 21
-141.6029330000000073
 31
0
  0
LINE
  5
152
330
1A
100
AcDbEntity
  8
BLACK
  6
CONTINUOUS
100
AcDbLine
 10
112.1291969999999907
 20
-141.6029330000000073
 30
0
 11
112.1291969999999907
 21
-141.1267420000000072
 31
0
  0
LINE
  5
153
330
1A
100
AcDbEntity
  8
BLACK
  6
CONTINUOUS
100
AcDbLine
 10
112.1291969999999907
 20
-141.1267420000000072
 30
0
 11
112.2244349999999997
 21
-140.7457899999999995
 31
0
  0
LINE
  5
154
330
1A
100
AcDbEntity
  8
BLACK
  6
CONTINUOUS
100
AcDbLine
 10
112.2244349999999997
 20
-140.7457899999999995
 30
0
 11
112.3196729999999945
 21
-140.5553139999999814
 31
0
  0
LINE
  5
155
330
1A
100
AcDbEntity
  8
BLACK
  6
CONTINUOUS
100
AcDbLine
 10
112.3196729999999945
 20
-140.5553139999999814
 30
0
 11
112.4149109999999894
 21
-140.4600759999999866
 31
0
  0
LINE
  5
156
330
1A
100
AcDbEntity
  8
BLACK
  6
CONTINUOUS
100
AcDbLine
 10
112.4149109999999894
 20
-140.4600759999999866
 30
0
 11
112.6053869999999932
 21
-140.3648379999999918
 31
0
  0
LINE
  5
157
330
1A
100
AcDbEntity
  8
BLACK
  6
CONTINUOUS
100
AcDbLine
 10
114.1291969999999907
 20
-142.3648379999999918
 30
0
 11
114.1291969999999907
 21
-141.031503999999984
 31
0
  0
LINE
  5
158
330
1A
100
AcDbEntity
  8
BLACK
  6
CONTINUOUS
100
AcDbLine
 10
114.1291969999999907
 20
-141.2219800000000021
 30
0
 11
114.2244349999999997
 21
-141.1267420000000072
 31
0
  0
LINE
  5
159
330
1A
100
AcDbEntity
  8
BLACK
  6
CONTINUOUS
100
AcDbLine
 10
114.2244349999999997
 20
-141.1267420000000072
 30
0
 11
114.4149109999999894
 21
-141.031503999999984
 31
0
  0
LINE
  5
15A
330
1A
100
AcDbEntity
  8
BLACK
  6
CONTINUOUS
100
AcDbLine
 10
114.4149109999999894
 20
-141.031503999999984
 30
0
 11
114.7006259999999997
 21
-141.031503999999984
 31
0
  0
LINE
  5
15B
330
1A
100
AcDbEntity
  8
BLACK
  6
CONTINUOUS
100
AcDbLine
 10
114.7006259999999997
 20
-141.031503999999984
 30
0
 11
114.8911019999999894
 21
-141.1267420000000072
 31
0
  0
LINE
  5
15C
330
1A
100
AcDbEntity
  8
BLACK
  6
CONTINUOUS
100
AcDbLine
 10
114.8911019999999894
 20
-141.1267420000000072
 30
0
 11
114.9863399999999984
 21
-141.3172189999999944
 31
0
  0
LINE
  5
15D
330
1A
100
AcDbEntity
  8
BLACK
  6
CONTINUOUS
100
AcDbLine
 10
114.9863399999999984
 20
-141.3172189999999944
 30
0
 11
114.9863399999999984
 21
-142.3648379999999918
 31
0
  0
LINE
  5
15E
330
1A
100
AcDbEntity
  8
BLACK
  6
CONTINUOUS
100
AcDbLine
 10
114.9863399999999984
 20
-141.3172189999999944
 30
0
 11
115.0815779999999933
 21
-141.1267420000000072
 31
0
  0
LINE
  5
15F
330
1A
100
AcDbEntity
  8
BLACK
  6
CONTINUOUS
100
AcDbLine
 10
115.0815779999999933
 20
-141.1267420000000072
 30
0
 11
115.2720539999999971
 21
-141.031503999999984
 31
0
  0
LINE
  5
160
330
1A
100
AcDbEntity
  8
BLACK
  6
CONTINUOUS
100
AcDbLine
 10
115.2720539999999971
 20
-141.031503999999984
 30
0
 11
115.5577679999999958
 21
-141.031503999999984
 31
0
  0
LINE
  5
161
330
1A
100
AcDbEntity
  8
BLACK
  6
CONTINUOUS
100
AcDbLine
 10
115.5577679999999958
 20
-141.031503999999984
 30
0
 11
115.7482449999999972
 21
-141.1267420000000072
 31
0
  0
LINE
  5
162
330
1A
100
AcDbEntity
  8
BLACK
  6
CONTINUOUS
100
AcDbLine
 10
115.7482449999999972
 20
-141.1267420000000072
 30
0
 11
115.843482999999992
 21
-141.3172189999999944
 31
0
  0
LINE
  5
163
330
1A
100
AcDbEntity
  8
BLACK
  6
CONTINUOUS
100
AcDbLine
 10
115.843482999999992
 20
-141.3172189999999944
 30
0
 11
115.843482999999992
 21
-142.3648379999999918
 31
0
  0
LINE
  5
164
330
1A
100
AcDbEntity
  8
BLACK
  6
CONTINUOUS
100
AcDbLine
 10
116.7958639999999946
 20
-142.3648379999999918
 30
0
 11
116.7958639999999946
 21
-141.031503999999984
 31
0
  0
LINE
  5
165
330
1A
100
AcDbEntity
  8
BLACK
  6
CONTINUOUS
100
AcDbLine
 10
116.7958639999999946
 20
-141.2219800000000021
 30
0
 11
116.8911019999999894
 21
-141.1267420000000072
 31
0
  0
LINE
  5
166
330
1A
100
AcDbEntity
  8
BLACK
  6
CONTINUOUS
100
AcDbLine
 10
116.8911019999999894
 20
-141.1267420000000072
 30
0
 11
117.0815779999999933
 21
-141.031503999999984
 31
0
  0
LINE
  5
167
330
1A
100
AcDbEntity
  8
BLACK
  6
CONTINUOUS
100
AcDbLine
 10
117.0815779999999933
 20
-141.031503999999984
 30
0
 11
117.3672929999999894
 21
-141.031503999999984
 31
0
  0
LINE
  5
168
330
1A
100
AcDbEntity
  8
BLACK
  6
CONTINUOUS
100
AcDbLine
 10
117.3672929999999894
 20
-141.031503999999984
 30
0
 11
117.5577689999999933
 21
-141.1267420000000072
 31
0
  0
LINE
  5
169
330
1A
100
AcDbEntity
  8
BLACK
  6
CONTINUOUS
100
AcDbLine
 10
117.5577689999999933
 20
-141.1267420000000072
 30
0
 11
117.6530069999999881
 21
-141.3172189999999944
 31
0
  0
LINE
  5
16A
330
1A
100
AcDbEntity
  8
BLACK
  6
CONTINUOUS
100
AcDbLine
 10
117.6530069999999881
 20
-141.3172189999999944
 30
0
 11
117.6530069999999881
 21
-142.3648379999999918
 31
0
  0
LINE
  5
16B
330
1A
100
AcDbEntity
  8
BLACK
  6
CONTINUOUS
100
AcDbLine
 10
117.6530069999999881
 20
-141.3172189999999944
 30
0
 11
117.7482449999999972
 21
-141.1267420000000072
 31
0
  0
LINE
  5
16C
330
1A
100
AcDbEntity
  8
BLACK
  6
CONTINUOUS
100
AcDbLine
 10
117.7482449999999972
 20
-141.1267420000000072
 30
0
 11
117.938721000000001
 21
-141.031503999999984
 31
0
  0
LINE
  5
16D
330
1A
100
AcDbEntity
  8
BLACK
  6
CONTINUOUS
100
AcDbLine
 10
117.938721000000001
 20
-141.031503999999984
 30
0
 11
118.2244349999999997
 21
-141.031503999999984
 31
0
  0
LINE
  5
16E
330
1A
100
AcDbEntity
  8
BLACK
  6
CONTINUOUS
100
AcDbLine
 10
118.2244349999999997
 20
-141.031503999999984
 30
0
 11
118.4149120000000011
 21
-141.1267420000000072
 31
0
  0
LINE
  5
16F
330
1A
100
AcDbEntity
  8
BLACK
  6
CONTINUOUS
100
AcDbLine
 10
118.4149120000000011
 20
-141.1267420000000072
 30
0
 11
118.5101499999999959
 21
-141.3172189999999944
 31
0
  0
LINE
  5
170
330
1A
100
AcDbEntity
  8
BLACK
  6
CONTINUOUS
100
AcDbLine
 10
118.5101499999999959
 20
-141.3172189999999944
 30
0
 11
118.5101499999999959
 21
-142.3648379999999918
 31
0
  0
LINE
  5
171
330
1A
100
AcDbEntity
  8
BLACK
  6
CONTINUOUS
100
AcDbLine
 10
122.4149120000000011
 20
-140.269599999999997
 30
0
 11
120.7006269999999972
 21
-142.8410279999999943
 31
0
  0
LINE
  5
172
330
1A
100
AcDbEntity
  8
BLACK
  6
CONTINUOUS
100
AcDbLine
 10
124.9863409999999959
 20
-140.3648379999999918
 30
0
 11
125.1768179999999973
 21
-140.3648379999999918
 31
0
  0
LINE
  5
173
330
1A
100
AcDbEntity
  8
BLACK
  6
CONTINUOUS
100
AcDbLine
 10
125.1768179999999973
 20
-140.3648379999999918
 30
0
 11
125.3672940000000011
 21
-140.4600759999999866
 31
0
  0
LINE
  5
174
330
1A
100
AcDbEntity
  8
BLACK
  6
CONTINUOUS
100
AcDbLine
 10
125.3672940000000011
 20
-140.4600759999999866
 30
0
 11
125.4625319999999959
 21
-140.5553139999999814
 31
0
  0
LINE
  5
175
330
1A
100
AcDbEntity
  8
BLACK
  6
CONTINUOUS
100
AcDbLine
 10
125.4625319999999959
 20
-140.5553139999999814
 30
0
 11
125.5577699999999908
 21
-140.7457899999999995
 31
0
  0
LINE
  5
176
330
1A
100
AcDbEntity
  8
BLACK
  6
CONTINUOUS
100
AcDbLine
 10
125.5577699999999908
 20
-140.7457899999999995
 30
0
 11
125.6530079999999998
 21
-141.1267420000000072
 31
0
  0
LINE
  5
177
330
1A
100
AcDbEntity
  8
BLACK
  6
CONTINUOUS
100
AcDbLine
 10
125.6530079999999998
 20
-141.1267420000000072
 30
0
 11
125.6530079999999998
 21
-141.6029330000000073
 31
0
  0
LINE
  5
178
330
1A
100
AcDbEntity
  8
BLACK
  6
CONTINUOUS
100
AcDbLine
 10
125.6530079999999998
 20
-141.6029330000000073
 30
0
 11
125.5577699999999908
 21
-141.9838849999999866
 31
0
  0
LINE
  5
179
330
1A
100
AcDbEntity
  8
BLACK
  6
CONTINUOUS
100
AcDbLine
 10
125.5577699999999908
 20
-141.9838849999999866
 30
0
 11
125.4625319999999959
 21
-142.1743610000000047
 31
0
  0
LINE
  5
17A
330
1A
100
AcDbEntity
  8
BLACK
  6
CONTINUOUS
100
AcDbLine
 10
125.4625319999999959
 20
-142.1743610000000047
 30
0
 11
125.3672940000000011
 21
-142.269599999999997
 31
0
  0
LINE
  5
17B
330
1A
100
AcDbEntity
  8
BLACK
  6
CONTINUOUS
100
AcDbLine
 10
125.3672940000000011
 20
-142.269599999999997
 30
0
 11
125.1768179999999973
 21
-142.3648379999999918
 31
0
  0
LINE
  5
17C
330
1A
100
AcDbEntity
  8
BLACK
  6
CONTINUOUS
100
AcDbLine
 10
125.1768179999999973
 20
-142.3648379999999918
 30
0
 11
124.9863409999999959
 21
-142.3648379999999918
 31
0
  0
LINE
  5
17D
330
1A
100
AcDbEntity
  8
BLACK
  6
CONTINUOUS
100
AcDbLine
 10
124.9863409999999959
 20
-142.3648379999999918
 30
0
 11
124.7958649999999921
 21
-142.269599999999997
 31
0
  0
LINE
  5
17E
330
1A
100
AcDbEntity
  8
BLACK
  6
CONTINUOUS
100
AcDbLine
 10
124.7958649999999921
 20
-142.269599999999997
 30
0
 11
124.7006269999999972
 21
-142.1743610000000047
 31
0
  0
LINE
  5
17F
330
1A
100
AcDbEntity
  8
BLACK
  6
CONTINUOUS
100
AcDbLine
 10
124.7006269999999972
 20
-142.1743610000000047
 30
0
 11
124.6053889999999882
 21
-141.9838849999999866
 31
0
  0
LINE
  5
180
330
1A
100
AcDbEntity
  8
BLACK
  6
CONTINUOUS
100
AcDbLine
 10
124.6053889999999882
 20
-141.9838849999999866
 30
0
 11
124.5101509999999934
 21
-141.6029330000000073
 31
0
  0
LINE
  5
181
330
1A
100
AcDbEntity
  8
BLACK
  6
CONTINUOUS
100
AcDbLine
 10
124.5101509999999934
 20
-141.6029330000000073
 30
0
 11
124.5101509999999934
 21
-141.1267420000000072
 31
0
  0
LINE
  5
182
330
1A
100
AcDbEntity
  8
BLACK
  6
CONTINUOUS
100
AcDbLine
 10
124.5101509999999934
 20
-141.1267420000000072
 30
0
 11
124.6053889999999882
 21
-140.7457899999999995
 31
0
  0
LINE
  5
183
330
1A
100
AcDbEntity
  8
BLACK
  6
CONTINUOUS
100
AcDbLine
 10
124.6053889999999882
 20
-140.7457899999999995
 30
0
 11
124.7006269999999972
 21
-140.5553139999999814
 31
0
  0
LINE
  5
184
330
1A
100
AcDbEntity
  8
BLACK
  6
CONTINUOUS
100
AcDbLine
 10
124.7006269999999972
 20
-140.5553139999999814
 30
0
 11
124.7958649999999921
 21
-140.4600759999999866
 31
0
  0
LINE
  5
185
330
1A
100
AcDbEntity
  8
BLACK
  6
CONTINUOUS
100
AcDbLine
 10
124.7958649999999921
 20
-140.4600759999999866
 30
0
 11
124.9863409999999959
 21
-140.3648379999999918
 31
0
  0
LINE
  5
186
330
1A
100
AcDbEntity
  8
BLACK
  6
CONTINUOUS
100
AcDbLine
 10
126.5101509999999934
 20
-142.1743610000000047
 30
0
 11
126.6053889999999882
 21
-142.269599999999997
 31
0
  0
LINE
  5
187
330
1A
100
AcDbEntity
  8
BLACK
  6
CONTINUOUS
100
AcDbLine
 10
126.6053889999999882
 20
-142.269599999999997
 30
0
 11
126.5101509999999934
 21
-142.3648379999999918
 31
0
  0
LINE
  5
188
330
1A
100
AcDbEntity
  8
BLACK
  6
CONTINUOUS
100
AcDbLine
 10
126.5101509999999934
 20
-142.3648379999999918
 30
0
 11
126.4149129999999985
 21
-142.269599999999997
 31
0
  0
LINE
  5
189
330
1A
100
AcDbEntity
  8
BLACK
  6
CONTINUOUS
100
AcDbLine
 10
126.4149129999999985
 20
-142.269599999999997
 30
0
 11
126.5101509999999934
 21
-142.1743610000000047
 31
0
  0
LINE
  5
18A
330
1A
100
AcDbEntity
  8
BLACK
  6
CONTINUOUS
100
AcDbLine
 10
126.5101509999999934
 20
-142.1743610000000047
 30
0
 11
126.5101509999999934
 21
-142.3648379999999918
 31
0
  0
LINE
  5
18B
330
1A
100
AcDbEntity
  8
BLACK
  6
CONTINUOUS
100
AcDbLine
 10
127.8434839999999895
 20
-140.3648379999999918
 30
0
 11
128.033961000000005
 21
-140.3648379999999918
 31
0
  0
LINE
  5
18C
330
1A
100
AcDbEntity
  8
BLACK
  6
CONTINUOUS
100
AcDbLine
 10
128.033961000000005
 20
-140.3648379999999918
 30
0
 11
128.2244369999999947
 21
-140.4600759999999866
 31
0
  0
LINE
  5
18D
330
1A
100
AcDbEntity
  8
BLACK
  6
CONTINUOUS
100
AcDbLine
 10
128.2244369999999947
 20
-140.4600759999999866
 30
0
 11
128.3196749999999895
 21
-140.5553139999999814
 31
0
  0
LINE
  5
18E
330
1A
100
AcDbEntity
  8
BLACK
  6
CONTINUOUS
100
AcDbLine
 10
128.3196749999999895
 20
-140.5553139999999814
 30
0
 11
128.4149129999999843
 21
-140.7457899999999995
 31
0
  0
LINE
  5
18F
330
1A
100
AcDbEntity
  8
BLACK
  6
CONTINUOUS
100
AcDbLine
 10
128.4149129999999843
 20
-140.7457899999999995
 30
0
 11
128.5101510000000076
 21
-141.1267420000000072
 31
0
  0
LINE
  5
190
330
1A
100
AcDbEntity
  8
BLACK
  6
CONTINUOUS
100
AcDbLine
 10
128.5101510000000076
 20
-141.1267420000000072
 30
0
 11
128.5101510000000076
 21
-141.6029330000000073
 31
0
  0
LINE
  5
191
330
1A
100
AcDbEntity
  8
BLACK
  6
CONTINUOUS
100
AcDbLine
 10
128.5101510000000076
 20
-141.6029330000000073
 30
0
 11
128.4149129999999843
 21
-141.9838849999999866
 31
0
  0
LINE
  5
192
330
1A
100
AcDbEntity
  8
BLACK
  6
CONTINUOUS
100
AcDbLine
 10
128.4149129999999843
 20
-141.9838849999999866
 30
0
 11
128.3196749999999895
 21
-142.1743610000000047
 31
0
  0
LINE
  5
193
330
1A
100
AcDbEntity
  8
BLACK
  6
CONTINUOUS
100
AcDbLine
 10
128.3196749999999895
 20
-142.1743610000000047
 30
0
 11
128.2244369999999947
 21
-142.269599999999997
 31
0
  0
LINE
  5
194
330
1A
100
AcDbEntity
  8
BLACK
  6
CONTINUOUS
100
AcDbLine
 10
128.2244369999999947
 20
-142.269599999999997
 30
0
 11
128.033961000000005
 21
-142.3648379999999918
 31
0
  0
LINE
  5
195
330
1A
100
AcDbEntity
  8
BLACK
  6
CONTINUOUS
100
AcDbLine
 10
128.033961000000005
 20
-142.3648379999999918
 30
0
 11
127.8434839999999895
 21
-142.3648379999999918
 31
0
  0
LINE
  5
196
330
1A
100
AcDbEntity
  8
BLACK
  6
CONTINUOUS
100
AcDbLine
 10
127.8434839999999895
 20
-142.3648379999999918
 30
0
 11
127.6530079999999998
 21
-142.269599999999997
 31
0
  0
LINE
  5
197
330
1A
100
AcDbEntity
  8
BLACK
  6
CONTINUOUS
100
AcDbLine
 10
127.6530079999999998
 20
-142.269599999999997
 30
0
 11
127.5577699999999908
 21
-142.1743610000000047
 31
0
  0
LINE
  5
198
330
1A
100
AcDbEntity
  8
BLACK
  6
CONTINUOUS
100
AcDbLine
 10
127.5577699999999908
 20
-142.1743610000000047
 30
0
 11
127.4625319999999959
 21
-141.9838849999999866
 31
0
  0
LINE
  5
199
330
1A
100
AcDbEntity
  8
BLACK
  6
CONTINUOUS
100
AcDbLine
 10
127.4625319999999959
 20
-141.9838849999999866
 30
0
 11
127.3672940000000011
 21
-141.6029330000000073
 31
0
  0
LINE
  5
19A
330
1A
100
AcDbEntity
  8
BLACK
  6
CONTINUOUS
100
AcDbLine
 10
127.3672940000000011
 20
-141.6029330000000073
 30
0
 11
127.3672940000000011
 21
-141.1267420000000072
 31
0
  0
LINE
  5
19B
330
1A
100
AcDbEntity
  8
BLACK
  6
CONTINUOUS
100
AcDbLine
 10
127.3672940000000011
 20
-141.1267420000000072
 30
0
 11
127.4625319999999959
 21
-140.7457899999999995
 31
0
  0
LINE
  5
19C
330
1A
100
AcDbEntity
  8
BLACK
  6
CONTINUOUS
100
AcDbLine
 10
127.4625319999999959
 20
-140.7457899999999995
 30
0
 11
127.5577699999999908
 21
-140.5553139999999814
 31
0
  0
LINE
  5
19D
330
1A
100
AcDbEntity
  8
BLACK
  6
CONTINUOUS
100
AcDbLine
 10
127.5577699999999908
 20
-140.5553139999999814
 30
0
 11
127.6530079999999998
 21
-140.4600759999999866
 31
0
  0
LINE
  5
19E
330
1A
100
AcDbEntity
  8
BLACK
  6
CONTINUOUS
100
AcDbLine
 10
127.6530079999999998
 20
-140.4600759999999866
 30
0
 11
127.8434839999999895
 21
-140.3648379999999918
 31
0
  0
LINE
  5
19F
330
1A
100
AcDbEntity
  8
BLACK
  6
CONTINUOUS
100
AcDbLine
 10
130.4149129999999843
 20
-142.3648379999999918
 30
0
 11
129.2720559999999921
 21
-142.3648379999999918
 31
0
  0
LINE
  5
1A0
330
1A
100
AcDbEntity
  8
BLACK
  6
CONTINUOUS
100
AcDbLine
 10
129.8434839999999895
 20
-142.3648379999999918
 30
0
 11
129.8434839999999895
 21
-140.3648379999999918
 31
0
  0
LINE
  5
1A1
330
1A
100
AcDbEntity
  8
BLACK
  6
CONTINUOUS
100
AcDbLine
 10
129.8434839999999895
 20
-140.3648379999999918
 30
0
 11
129.6530079999999998
 21
-140.6505520000000047
 31
0
  0
LINE
  5
1A2
330
1A
100
AcDbEntity
  8
BLACK
  6
CONTINUOUS
100
AcDbLine
 10
129.6530079999999998
 20
-140.6505520000000047
 30
0
 11
129.4625319999999817
 21
-140.8410279999999943
 31
0
  0
LINE
  5
1A3
330
1A
100
AcDbEntity
  8
BLACK
  6
CONTINUOUS
100
AcDbLine
 10
129.4625319999999817
 20
-140.8410279999999943
 30
0
 11
129.2720559999999921
 21
-140.9362659999999892
 31
0
  0
LINE
  5
1A4
330
1A
100
AcDbEntity
  8
BLACK
  6
CONTINUOUS
100
AcDbLine
 10
132.2244369999999947
 20
-140.3648379999999918
 30
0
 11
131.2720559999999921
 21
-140.3648379999999918
 31
0
  0
LINE
  5
1A5
330
1A
100
AcDbEntity
  8
BLACK
  6
CONTINUOUS
100
AcDbLine
 10
131.2720559999999921
 20
-140.3648379999999918
 30
0
 11
131.1768179999999973
 21
-141.3172189999999944
 31
0
  0
LINE
  5
1A6
330
1A
100
AcDbEntity
  8
BLACK
  6
CONTINUOUS
100
AcDbLine
 10
131.1768179999999973
 20
-141.3172189999999944
 30
0
 11
131.2720559999999921
 21
-141.2219800000000021
 31
0
  0
LINE
  5
1A7
330
1A
100
AcDbEntity
  8
BLACK
  6
CONTINUOUS
100
AcDbLine
 10
131.2720559999999921
 20
-141.2219800000000021
 30
0
 11
131.4625319999999817
 21
-141.1267420000000072
 31
0
  0
LINE
  5
1A8
330
1A
100
AcDbEntity
  8
BLACK
  6
CONTINUOUS
100
AcDbLine
 10
131.4625319999999817
 20
-141.1267420000000072
 30
0
 11
131.9387229999999818
 21
-141.1267420000000072
 31
0
  0
LINE
  5
1A9
330
1A
100
AcDbEntity
  8
BLACK
  6
CONTINUOUS
100
AcDbLine
 10
131.9387229999999818
 20
-141.1267420000000072
 30
0
 11
132.1291989999999998
 21
-141.2219800000000021
 31
0
  0
LINE
  5
1AA
330
1A
100
AcDbEntity
  8
BLACK
  6
CONTINUOUS
100
AcDbLine
 10
132.1291989999999998
 20
-141.2219800000000021
 30
0
 11
132.2244369999999947
 21
-141.3172189999999944
 31
0
  0
LINE
  5
1AB
330
1A
100
AcDbEntity
  8
BLACK
  6
CONTINUOUS
100
AcDbLine
 10
132.2244369999999947
 20
-141.3172189999999944
 30
0
 11
132.3196749999999895
 21
-141.507694999999984
 31
0
  0
LINE
  5
1AC
330
1A
100
AcDbEntity
  8
BLACK
  6
CONTINUOUS
100
AcDbLine
 10
132.3196749999999895
 20
-141.507694999999984
 30
0
 11
132.3196749999999895
 21
-141.9838849999999866
 31
0
  0
LINE
  5
1AD
330
1A
100
AcDbEntity
  8
BLACK
  6
CONTINUOUS
100
AcDbLine
 10
132.3196749999999895
 20
-141.9838849999999866
 30
0
 11
132.2244369999999947
 21
-142.1743610000000047
 31
0
  0
LINE
  5
1AE
330
1A
100
AcDbEntity
  8
BLACK
  6
CONTINUOUS
100
AcDbLine
 10
132.2244369999999947
 20
-142.1743610000000047
 30
0
 11
132.1291989999999998
 21
-142.269599999999997
 31
0
  0
LINE
  5
1AF
330
1A
100
AcDbEntity
  8
BLACK
  6
CONTINUOUS
100
AcDbLine
 10
132.1291989999999998
 20
-142.269599999999997
 30
0
 11
131.9387229999999818
 21
-142.3648379999999918
 31
0
  0
LINE
  5
1B0
330
1A
100
AcDbEntity
  8
BLACK
  6
CONTINUOUS
100
AcDbLine
 10
131.9387229999999818
 20
-142.3648379999999918
 30
0
 11
131.4625319999999817
 21
-142.3648379999999918
 31
0
  0
LINE
  5
1B1
330
1A
100
AcDbEntity
  8
BLACK
  6
CONTINUOUS
100
AcDbLine
 10
131.4625319999999817
 20
-142.3648379999999918
 30
0
 11
131.2720559999999921
 21
-142.269599999999997
 31
0
  0
LINE
  5
1B2
330
1A
100
AcDbEntity
  8
BLACK
  6
CONTINUOUS
100
AcDbLine
 10
131.2720559999999921
 20
-142.269599999999997
 30
0
 11
131.1768179999999973
 21
-142.1743610000000047
 31
0
  0
LINE
  5
1B3
330
1A
100
AcDbEntity
  8
BLACK
  6
CONTINUOUS
100
AcDbLine
 10
132.9863420000000076
 20
-140.3648379999999918
 30
0
 11
134.3196749999999895
 21
-140.3648379999999918
 31
0
  0
LINE
  5
1B4
330
1A
100
AcDbEntity
  8
BLACK
  6
CONTINUOUS
100
AcDbLine
 10
134.3196749999999895
 20
-140.3648379999999918
 30
0
 11
133.4625319999999817
 21
-142.3648379999999918
 31
0
  0
LINE
  5
1B5
330
1A
100
AcDbEntity
  8
BLACK
  6
CONTINUOUS
100
AcDbLine
 10
134.9863420000000076
 20
-140.3648379999999918
 30
0
 11
134.9863420000000076
 21
-140.7457899999999995
 31
0
  0
LINE
  5
1B6
330
1A
100
AcDbEntity
  8
BLACK
  6
CONTINUOUS
100
AcDbLine
 10
135.7482469999999921
 20
-140.3648379999999918
 30
0
 11
135.7482469999999921
 21
-140.7457899999999995
 31
0
  0
LINE
  5
1B7
330
1A
100
AcDbEntity
  8
BLACK
  6
CONTINUOUS
100
AcDbLine
 10
138.7006289999999922
 20
-143.1267420000000072
 30
0
 11
138.6053899999999999
 21
-143.031503999999984
 31
0
  0
LINE
  5
1B8
330
1A
100
AcDbEntity
  8
BLACK
  6
CONTINUOUS
100
AcDbLine
 10
138.6053899999999999
 20
-143.031503999999984
 30
0
 11
138.4149139999999818
 21
-142.7457899999999995
 31
0
  0
LINE
  5
1B9
330
1A
100
AcDbEntity
  8
BLACK
  6
CONTINUOUS
100
AcDbLine
 10
138.4149139999999818
 20
-142.7457899999999995
 30
0
 11
138.319675999999987
 21
-142.5553139999999814
 31
0
  0
LINE
  5
1BA
330
1A
100
AcDbEntity
  8
BLACK
  6
CONTINUOUS
100
AcDbLine
 10
138.319675999999987
 20
-142.5553139999999814
 30
0
 11
138.2244379999999921
 21
-142.269599999999997
 31
0
  0
LINE
  5
1BB
330
1A
100
AcDbEntity
  8
BLACK
  6
CONTINUOUS
100
AcDbLine
 10
138.2244379999999921
 20
-142.269599999999997
 30
0
 11
138.1291999999999973
 21
-141.7934089999999969
 31
0
  0
LINE
  5
1BC
330
1A
100
AcDbEntity
  8
BLACK
  6
CONTINUOUS
100
AcDbLine
 10
138.1291999999999973
 20
-141.7934089999999969
 30
0
 11
138.1291999999999973
 21
-141.4124569999999892
 31
0
  0
LINE
  5
1BD
330
1A
100
AcDbEntity
  8
BLACK
  6
CONTINUOUS
100
AcDbLine
 10
138.1291999999999973
 20
-141.4124569999999892
 30
0
 11
138.2244379999999921
 21
-140.9362659999999892
 31
0
  0
LINE
  5
1BE
330
1A
100
AcDbEntity
  8
BLACK
  6
CONTINUOUS
100
AcDbLine
 10
138.2244379999999921
 20
-140.9362659999999892
 30
0
 11
138.319675999999987
 21
-140.6505520000000047
 31
0
  0
LINE
  5
1BF
330
1A
100
AcDbEntity
  8
BLACK
  6
CONTINUOUS
100
AcDbLine
 10
138.319675999999987
 20
-140.6505520000000047
 30
0
 11
138.4149139999999818
 21
-140.4600759999999866
 31
0
  0
LINE
  5
1C0
330
1A
100
AcDbEntity
  8
BLACK
  6
CONTINUOUS
100
AcDbLine
 10
138.4149139999999818
 20
-140.4600759999999866
 30
0
 11
138.6053899999999999
 21
-140.1743610000000047
 31
0
  0
LINE
  5
1C1
330
1A
100
AcDbEntity
  8
BLACK
  6
CONTINUOUS
100
AcDbLine
 10
138.6053899999999999
 20
-140.1743610000000047
 30
0
 11
138.7006289999999922
 21
-140.0791229999999814
 31
0
  0
LINE
  5
1C2
330
1A
100
AcDbEntity
  8
BLACK
  6
CONTINUOUS
100
AcDbLine
 10
139.7482469999999921
 20
-141.2219800000000021
 30
0
 11
139.5577710000000025
 21
-141.1267420000000072
 31
0
  0
LINE
  5
1C3
330
1A
100
AcDbEntity
  8
BLACK
  6
CONTINUOUS
100
AcDbLine
 10
139.5577710000000025
 20
-141.1267420000000072
 30
0
 11
139.4625330000000076
 21
-141.031503999999984
 31
0
  0
LINE
  5
1C4
330
1A
100
AcDbEntity
  8
BLACK
  6
CONTINUOUS
100
AcDbLine
 10
139.4625330000000076
 20
-141.031503999999984
 30
0
 11
139.3672949999999844
 21
-140.8410279999999943
 31
0
  0
LINE
  5
1C5
330
1A
100
AcDbEntity
  8
BLACK
  6
CONTINUOUS
100
AcDbLine
 10
139.3672949999999844
 20
-140.8410279999999943
 30
0
 11
139.3672949999999844
 21
-140.7457899999999995
 31
0
  0
LINE
  5
1C6
330
1A
100
AcDbEntity
  8
BLACK
  6
CONTINUOUS
100
AcDbLine
 10
139.3672949999999844
 20
-140.7457899999999995
 30
0
 11
139.4625330000000076
 21
-140.5553139999999814
 31
0
  0
LINE
  5
1C7
330
1A
100
AcDbEntity
  8
BLACK
  6
CONTINUOUS
100
AcDbLine
 10
139.4625330000000076
 20
-140.5553139999999814
 30
0
 11
139.5577710000000025
 21
-140.4600759999999866
 31
0
  0
LINE
  5
1C8
330
1A
100
AcDbEntity
  8
BLACK
  6
CONTINUOUS
100
AcDbLine
 10
139.5577710000000025
 20
-140.4600759999999866
 30
0
 11
139.7482469999999921
 21
-140.3648379999999918
 31
0
  0
LINE
  5
1C9
330
1A
100
AcDbEntity
  8
BLACK
  6
CONTINUOUS
100
AcDbLine
 10
139.7482469999999921
 20
-140.3648379999999918
 30
0
 11
140.1291999999999973
 21
-140.3648379999999918
 31
0
  0
LINE
  5
1CA
330
1A
100
AcDbEntity
  8
BLACK
  6
CONTINUOUS
100
AcDbLine
 10
140.1291999999999973
 20
-140.3648379999999918
 30
0
 11
140.319675999999987
 21
-140.4600759999999866
 31
0
  0
LINE
  5
1CB
330
1A
100
AcDbEntity
  8
BLACK
  6
CONTINUOUS
100
AcDbLine
 10
140.319675999999987
 20
-140.4600759999999866
 30
0
 11
140.4149139999999818
 21
-140.5553139999999814
 31
0
  0
LINE
  5
1CC
330
1A
100
AcDbEntity
  8
BLACK
  6
CONTINUOUS
100
AcDbLine
 10
140.4149139999999818
 20
-140.5553139999999814
 30
0
 11
140.510152000000005
 21
-140.7457899999999995
 31
0
  0
LINE
  5
1CD
330
1A
100
AcDbEntity
  8
BLACK
  6
CONTINUOUS
100
AcDbLine
 10
140.510152000000005
 20
-140.7457899999999995
 30
0
 11
140.510152000000005
 21
-140.8410279999999943
 31
0
  0
LINE
  5
1CE
330
1A
100
AcDbEntity
  8
BLACK
  6
CONTINUOUS
100
AcDbLine
 10
140.510152000000005
 20
-140.8410279999999943
 30
0
 11
140.4149139999999818
 21
-141.031503999999984
 31
0
  0
LINE
  5
1CF
330
1A
100
AcDbEntity
  8
BLACK
  6
CONTINUOUS
100
AcDbLine
 10
140.4149139999999818
 20
-141.031503999999984
 30
0
 11
140.319675999999987
 21
-141.1267420000000072
 31
0
  0
LINE
  5
1D0
330
1A
100
AcDbEntity
  8
BLACK
  6
CONTINUOUS
100
AcDbLine
 10
140.319675999999987
 20
-141.1267420000000072
 30
0
 11
140.1291999999999973
 21
-141.2219800000000021
 31
0
  0
LINE
  5
1D1
330
1A
100
AcDbEntity
  8
BLACK
  6
CONTINUOUS
100
AcDbLine
 10
140.1291999999999973
 20
-141.2219800000000021
 30
0
 11
139.7482469999999921
 21
-141.2219800000000021
 31
0
  0
LINE
  5
1D2
330
1A
100
AcDbEntity
  8
BLACK
  6
CONTINUOUS
100
AcDbLine
 10
139.7482469999999921
 20
-141.2219800000000021
 30
0
 11
139.5577710000000025
 21
-141.3172189999999944
 31
0
  0
LINE
  5
1D3
330
1A
100
AcDbEntity
  8
BLACK
  6
CONTINUOUS
100
AcDbLine
 10
139.5577710000000025
 20
-141.3172189999999944
 30
0
 11
139.4625330000000076
 21
-141.4124569999999892
 31
0
  0
LINE
  5
1D4
330
1A
100
AcDbEntity
  8
BLACK
  6
CONTINUOUS
100
AcDbLine
 10
139.4625330000000076
 20
-141.4124569999999892
 30
0
 11
139.3672949999999844
 21
-141.6029330000000073
 31
0
  0
LINE
  5
1D5
330
1A
100
AcDbEntity
  8
BLACK
  6
CONTINUOUS
100
AcDbLine
 10
139.3672949999999844
 20
-141.6029330000000073
 30
0
 11
139.3672949999999844
 21
-141.9838849999999866
 31
0
  0
LINE
  5
1D6
330
1A
100
AcDbEntity
  8
BLACK
  6
CONTINUOUS
100
AcDbLine
 10
139.3672949999999844
 20
-141.9838849999999866
 30
0
 11
139.4625330000000076
 21
-142.1743610000000047
 31
0
  0
LINE
  5
1D7
330
1A
100
AcDbEntity
  8
BLACK
  6
CONTINUOUS
100
AcDbLine
 10
139.4625330000000076
 20
-142.1743610000000047
 30
0
 11
139.5577710000000025
 21
-142.269599999999997
 31
0
  0
LINE
  5
1D8
330
1A
100
AcDbEntity
  8
BLACK
  6
CONTINUOUS
100
AcDbLine
 10
139.5577710000000025
 20
-142.269599999999997
 30
0
 11
139.7482469999999921
 21
-142.3648379999999918
 31
0
  0
LINE
  5
1D9
330
1A
100
AcDbEntity
  8
BLACK
  6
CONTINUOUS
100
AcDbLine
 10
139.7482469999999921
 20
-142.3648379999999918
 30
0
 11
140.1291999999999973
 21
-142.3648379999999918
 31
0
  0
LINE
  5
1DA
330
1A
100
AcDbEntity
  8
BLACK
  6
CONTINUOUS
100
AcDbLine
 10
140.1291999999999973
 20
-142.3648379999999918
 30
0
 11
140.319675999999987
 21
-142.269599999999997
 31
0
  0
LINE
  5
1DB
330
1A
100
AcDbEntity
  8
BLACK
  6
CONTINUOUS
100
AcDbLine
 10
140.319675999999987
 20
-142.269599999999997
 30
0
 11
140.4149139999999818
 21
-142.1743610000000047
 31
0
  0
LINE
  5
1DC
330
1A
100
AcDbEntity
  8
BLACK
  6
CONTINUOUS
100
AcDbLine
 10
140.4149139999999818
 20
-142.1743610000000047
 30
0
 11
140.510152000000005
 21
-141.9838849999999866
 31
0
  0
LINE
  5
1DD
330
1A
100
AcDbEntity
  8
BLACK
  6
CONTINUOUS
100
AcDbLine
 10
140.510152000000005
 20
-141.9838849999999866
 30
0
 11
140.510152000000005
 21
-141.6029330000000073
 31
0
  0
LINE
  5
1DE
330
1A
100
AcDbEntity
  8
BLACK
  6
CONTINUOUS
100
AcDbLine
 10
140.510152000000005
 20
-141.6029330000000073
 30
0
 11
140.4149139999999818
 21
-141.4124569999999892
 31
0
  0
LINE
  5
1DF
330
1A
100
AcDbEntity
  8
BLACK
  6
CONTINUOUS
100
AcDbLine
 10
140.4149139999999818
 20
-141.4124569999999892
 30
0
 11
140.319675999999987
 21
-141.3172189999999944
 31
0
  0
LINE
  5
1E0
330
1A
100
AcDbEntity
  8
BLACK
  6
CONTINUOUS
100
AcDbLine
 10
140.319675999999987
 20
-141.3172189999999944
 30
0
 11
140.1291999999999973
 21
-141.2219800000000021
 31
0
  0
LINE
  5
1E1
330
1A
100
AcDbEntity
  8
BLACK
  6
CONTINUOUS
100
AcDbLine
 10
141.7482469999999921
 20
-140.3648379999999918
 30
0
 11
141.9387240000000077
 21
-140.3648379999999918
 31
0
  0
LINE
  5
1E2
330
1A
100
AcDbEntity
  8
BLACK
  6
CONTINUOUS
100
AcDbLine
 10
141.9387240000000077
 20
-140.3648379999999918
 30
0
 11
142.1291999999999973
 21
-140.4600759999999866
 31
0
  0
LINE
  5
1E3
330
1A
100
AcDbEntity
  8
BLACK
  6
CONTINUOUS
100
AcDbLine
 10
142.1291999999999973
 20
-140.4600759999999866
 30
0
 11
142.2244379999999921
 21
-140.5553139999999814
 31
0
  0
LINE
  5
1E4
330
1A
100
AcDbEntity
  8
BLACK
  6
CONTINUOUS
100
AcDbLine
 10
142.2244379999999921
 20
-140.5553139999999814
 30
0
 11
142.319675999999987
 21
-140.7457899999999995
 31
0
  0
LINE
  5
1E5
330
1A
100
AcDbEntity
  8
BLACK
  6
CONTINUOUS
100
AcDbLine
 10
142.319675999999987
 20
-140.7457899999999995
 30
0
 11
142.4149139999999818
 21
-141.1267420000000072
 31
0
  0
LINE
  5
1E6
330
1A
100
AcDbEntity
  8
BLACK
  6
CONTINUOUS
100
AcDbLine
 10
142.4149139999999818
 20
-141.1267420000000072
 30
0
 11
142.4149139999999818
 21
-141.6029330000000073
 31
0
  0
LINE
  5
1E7
330
1A
100
AcDbEntity
  8
BLACK
  6
CONTINUOUS
100
AcDbLine
 10
142.4149139999999818
 20
-141.6029330000000073
 30
0
 11
142.319675999999987
 21
-141.9838849999999866
 31
0
  0
LINE
  5
1E8
330
1A
100
AcDbEntity
  8
BLACK
  6
CONTINUOUS
100
AcDbLine
 10
142.319675999999987
 20
-141.9838849999999866
 30
0
 11
142.2244379999999921
 21
-142.1743610000000047
 31
0
  0
LINE
  5
1E9
330
1A
100
AcDbEntity
  8
BLACK
  6
CONTINUOUS
100
AcDbLine
 10
142.2244379999999921
 20
-142.1743610000000047
 30
0
 11
142.1291999999999973
 21
-142.269599999999997
 31
0
  0
LINE
  5
1EA
330
1A
100
AcDbEntity
  8
BLACK
  6
CONTINUOUS
100
AcDbLine
 10
142.1291999999999973
 20
-142.269599999999997
 30
0
 11
141.9387240000000077
 21
-142.3648379999999918
 31
0
  0
LINE
  5
1EB
330
1A
100
AcDbEntity
  8
BLACK
  6
CONTINUOUS
100
AcDbLine
 10
141.9387240000000077
 20
-142.3648379999999918
 30
0
 11
141.7482469999999921
 21
-142.3648379999999918
 31
0
  0
LINE
  5
1EC
330
1A
100
AcDbEntity
  8
BLACK
  6
CONTINUOUS
100
AcDbLine
 10
141.7482469999999921
 20
-142.3648379999999918
 30
0
 11
141.5577710000000025
 21
-142.269599999999997
 31
0
  0
LINE
  5
1ED
330
1A
100
AcDbEntity
  8
BLACK
  6
CONTINUOUS
100
AcDbLine
 10
141.5577710000000025
 20
-142.269599999999997
 30
0
 11
141.4625330000000076
 21
-142.1743610000000047
 31
0
  0
LINE
  5
1EE
330
1A
100
AcDbEntity
  8
BLACK
  6
CONTINUOUS
100
AcDbLine
 10
141.4625330000000076
 20
-142.1743610000000047
 30
0
 11
141.3672949999999844
 21
-141.9838849999999866
 31
0
  0
LINE
  5
1EF
330
1A
100
AcDbEntity
  8
BLACK
  6
CONTINUOUS
100
AcDbLine
 10
141.3672949999999844
 20
-141.9838849999999866
 30
0
 11
141.2720569999999896
 21
-141.6029330000000073
 31
0
  0
LINE
  5
1F0
330
1A
100
AcDbEntity
  8
BLACK
  6
CONTINUOUS
100
AcDbLine
 10
141.2720569999999896
 20
-141.6029330000000073
 30
0
 11
141.2720569999999896
 21
-141.1267420000000072
 31
0
  0
LINE
  5
1F1
330
1A
100
AcDbEntity
  8
BLACK
  6
CONTINUOUS
100
AcDbLine
 10
141.2720569999999896
 20
-141.1267420000000072
 30
0
 11
141.3672949999999844
 21
-140.7457899999999995
 31
0
  0
LINE
  5
1F2
330
1A
100
AcDbEntity
  8
BLACK
  6
CONTINUOUS
100
AcDbLine
 10
141.3672949999999844
 20
-140.7457899999999995
 30
0
 11
141.4625330000000076
 21
-140.5553139999999814
 31
0
  0
LINE
  5
1F3
330
1A
100
AcDbEntity
  8
BLACK
  6
CONTINUOUS
100
AcDbLine
 10
141.4625330000000076
 20
-140.5553139999999814
 30
0
 11
141.5577710000000025
 21
-140.4600759999999866
 31
0
  0
LINE
  5
1F4
330
1A
100
AcDbEntity
  8
BLACK
  6
CONTINUOUS
100
AcDbLine
 10
141.5577710000000025
 20
-140.4600759999999866
 30
0
 11
141.7482469999999921
 21
-140.3648379999999918
 31
0
  0
LINE
  5
1F5
330
1A
100
AcDbEntity
  8
BLACK
  6
CONTINUOUS
100
AcDbLine
 10
144.795866999999987
 20
-142.3648379999999918
 30
0
 11
144.795866999999987
 21
-140.3648379999999918
 31
0
  0
LINE
  5
1F6
330
1A
100
AcDbEntity
  8
BLACK
  6
CONTINUOUS
100
AcDbLine
 10
145.6530099999999948
 20
-142.3648379999999918
 30
0
 11
145.6530099999999948
 21
-141.3172189999999944
 31
0
  0
LINE
  5
1F7
330
1A
100
AcDbEntity
  8
BLACK
  6
CONTINUOUS
100
AcDbLine
 10
145.6530099999999948
 20
-141.3172189999999944
 30
0
 11
145.5577719999999999
 21
-141.1267420000000072
 31
0
  0
LINE
  5
1F8
330
1A
100
AcDbEntity
  8
BLACK
  6
CONTINUOUS
100
AcDbLine
 10
145.5577719999999999
 20
-141.1267420000000072
 30
0
 11
145.3672959999999819
 21
-141.031503999999984
 31
0
  0
LINE
  5
1F9
330
1A
100
AcDbEntity
  8
BLACK
  6
CONTINUOUS
100
AcDbLine
 10
145.3672959999999819
 20
-141.031503999999984
 30
0
 11
145.0815809999999999
 21
-141.031503999999984
 31
0
  0
LINE
  5
1FA
330
1A
100
AcDbEntity
  8
BLACK
  6
CONTINUOUS
100
AcDbLine
 10
145.0815809999999999
 20
-141.031503999999984
 30
0
 11
144.8911049999999818
 21
-141.1267420000000072
 31
0
  0
LINE
  5
1FB
330
1A
100
AcDbEntity
  8
BLACK
  6
CONTINUOUS
100
AcDbLine
 10
144.8911049999999818
 20
-141.1267420000000072
 30
0
 11
144.795866999999987
 21
-141.2219800000000021
 31
0
  0
LINE
  5
1FC
330
1A
100
AcDbEntity
  8
BLACK
  6
CONTINUOUS
100
AcDbLine
 10
146.8911049999999818
 20
-142.3648379999999918
 30
0
 11
146.7006289999999922
 21
-142.269599999999997
 31
0
  0
LINE
  5
1FD
330
1A
100
AcDbEntity
  8
BLACK
  6
CONTINUOUS
100
AcDbLine
 10
146.7006289999999922
 20
-142.269599999999997
 30
0
 11
146.6053909999999973
 21
-142.1743610000000047
 31
0
  0
LINE
  5
1FE
330
1A
100
AcDbEntity
  8
BLACK
  6
CONTINUOUS
100
AcDbLine
 10
146.6053909999999973
 20
-142.1743610000000047
 30
0
 11
146.5101530000000025
 21
-141.9838849999999866
 31
0
  0
LINE
  5
1FF
330
1A
100
AcDbEntity
  8
BLACK
  6
CONTINUOUS
100
AcDbLine
 10
146.5101530000000025
 20
-141.9838849999999866
 30
0
 11
146.5101530000000025
 21
-141.4124569999999892
 31
0
  0
LINE
  5
200
330
1A
100
AcDbEntity
  8
BLACK
  6
CONTINUOUS
100
AcDbLine
 10
146.5101530000000025
 20
-141.4124569999999892
 30
0
 11
146.6053909999999973
 21
-141.2219800000000021
 31
0
  0
LINE
  5
201
330
1A
100
AcDbEntity
  8
BLACK
  6
CONTINUOUS
100
AcDbLine
 10
146.6053909999999973
 20
-141.2219800000000021
 30
0
 11
146.7006289999999922
 21
-141.1267420000000072
 31
0
  0
LINE
  5
202
330
1A
100
AcDbEntity
  8
BLACK
  6
CONTINUOUS
100
AcDbLine
 10
146.7006289999999922
 20
-141.1267420000000072
 30
0
 11
146.8911049999999818
 21
-141.031503999999984
 31
0
  0
LINE
  5
203
330
1A
100
AcDbEntity
  8
BLACK
  6
CONTINUOUS
100
AcDbLine
 10
146.8911049999999818
 20
-141.031503999999984
 30
0
 11
147.1768199999999922
 21
-141.031503999999984
 31
0
  0
LINE
  5
204
330
1A
100
AcDbEntity
  8
BLACK
  6
CONTINUOUS
100
AcDbLine
 10
147.1768199999999922
 20
-141.031503999999984
 30
0
 11
147.3672959999999819
 21
-141.1267420000000072
 31
0
  0
LINE
  5
205
330
1A
100
AcDbEntity
  8
BLACK
  6
CONTINUOUS
100
AcDbLine
 10
147.3672959999999819
 20
-141.1267420000000072
 30
0
 11
147.4625340000000051
 21
-141.2219800000000021
 31
0
  0
LINE
  5
206
330
1A
100
AcDbEntity
  8
BLACK
  6
CONTINUOUS
100
AcDbLine
 10
147.4625340000000051
 20
-141.2219800000000021
 30
0
 11
147.5577719999999999
 21
-141.4124569999999892
 31
0
  0
LINE
  5
207
330
1A
100
AcDbEntity
  8
BLACK
  6
CONTINUOUS
100
AcDbLine
 10
147.5577719999999999
 20
-141.4124569999999892
 30
0
 11
147.5577719999999999
 21
-141.9838849999999866
 31
0
  0
LINE
  5
208
330
1A
100
AcDbEntity
  8
BLACK
  6
CONTINUOUS
100
AcDbLine
 10
147.5577719999999999
 20
-141.9838849999999866
 30
0
 11
147.4625340000000051
 21
-142.1743610000000047
 31
0
  0
LINE
  5
209
330
1A
100
AcDbEntity
  8
BLACK
  6
CONTINUOUS
100
AcDbLine
 10
147.4625340000000051
 20
-142.1743610000000047
 30
0
 11
147.3672959999999819
 21
-142.269599999999997
 31
0
  0
LINE
  5
20A
330
1A
100
AcDbEntity
  8
BLACK
  6
CONTINUOUS
100
AcDbLine
 10
147.3672959999999819
 20
-142.269599999999997
 30
0
 11
147.1768199999999922
 21
-142.3648379999999918
 31
0
  0
LINE
  5
20B
330
1A
100
AcDbEntity
  8
BLACK
  6
CONTINUOUS
100
AcDbLine
 10
147.1768199999999922
 20
-142.3648379999999918
 30
0
 11
146.8911049999999818
 21
-142.3648379999999918
 31
0
  0
LINE
  5
20C
330
1A
100
AcDbEntity
  8
BLACK
  6
CONTINUOUS
100
AcDbLine
 10
148.7006289999999922
 20
-142.3648379999999918
 30
0
 11
148.5101530000000025
 21
-142.269599999999997
 31
0
  0
LINE
  5
20D
330
1A
100
AcDbEntity
  8
BLACK
  6
CONTINUOUS
100
AcDbLine
 10
148.5101530000000025
 20
-142.269599999999997
 30
0
 11
148.4149149999999793
 21
-142.0791229999999814
 31
0
  0
LINE
  5
20E
330
1A
100
AcDbEntity
  8
BLACK
  6
CONTINUOUS
100
AcDbLine
 10
148.4149149999999793
 20
-142.0791229999999814
 30
0
 11
148.4149149999999793
 21
-140.3648379999999918
 31
0
  0
LINE
  5
20F
330
1A
100
AcDbEntity
  8
BLACK
  6
CONTINUOUS
100
AcDbLine
 10
150.2244389999999896
 20
-142.269599999999997
 30
0
 11
150.033963
 21
-142.3648379999999918
 31
0
  0
LINE
  5
210
330
1A
100
AcDbEntity
  8
BLACK
  6
CONTINUOUS
100
AcDbLine
 10
150.033963
 20
-142.3648379999999918
 30
0
 11
149.6530099999999948
 21
-142.3648379999999918
 31
0
  0
LINE
  5
211
330
1A
100
AcDbEntity
  8
BLACK
  6
CONTINUOUS
100
AcDbLine
 10
149.6530099999999948
 20
-142.3648379999999918
 30
0
 11
149.4625340000000051
 21
-142.269599999999997
 31
0
  0
LINE
  5
212
330
1A
100
AcDbEntity
  8
BLACK
  6
CONTINUOUS
100
AcDbLine
 10
149.4625340000000051
 20
-142.269599999999997
 30
0
 11
149.3672959999999819
 21
-142.0791229999999814
 31
0
  0
LINE
  5
213
330
1A
100
AcDbEntity
  8
BLACK
  6
CONTINUOUS
100
AcDbLine
 10
149.3672959999999819
 20
-142.0791229999999814
 30
0
 11
149.3672959999999819
 21
-141.3172189999999944
 31
0
  0
LINE
  5
214
330
1A
100
AcDbEntity
  8
BLACK
  6
CONTINUOUS
100
AcDbLine
 10
149.3672959999999819
 20
-141.3172189999999944
 30
0
 11
149.4625340000000051
 21
-141.1267420000000072
 31
0
  0
LINE
  5
215
330
1A
100
AcDbEntity
  8
BLACK
  6
CONTINUOUS
100
AcDbLine
 10
149.4625340000000051
 20
-141.1267420000000072
 30
0
 11
149.6530099999999948
 21
-141.031503999999984
 31
0
  0
LINE
  5
216
330
1A
100
AcDbEntity
  8
BLACK
  6
CONTINUOUS
100
AcDbLine
 10
149.6530099999999948
 20
-141.031503999999984
 30
0
 11
150.033963
 21
-141.031503999999984
 31
0
  0
LINE
  5
217
330
1A
100
AcDbEntity
  8
BLACK
  6
CONTINUOUS
100
AcDbLine
 10
150.033963
 20
-141.031503999999984
 30
0
 11
150.2244389999999896
 21
-141.1267420000000072
 31
0
  0
LINE
  5
218
330
1A
100
AcDbEntity
  8
BLACK
  6
CONTINUOUS
100
AcDbLine
 10
150.2244389999999896
 20
-141.1267420000000072
 30
0
 11
150.3196769999999844
 21
-141.3172189999999944
 31
0
  0
LINE
  5
219
330
1A
100
AcDbEntity
  8
BLACK
  6
CONTINUOUS
100
AcDbLine
 10
150.3196769999999844
 20
-141.3172189999999944
 30
0
 11
150.3196769999999844
 21
-141.507694999999984
 31
0
  0
LINE
  5
21A
330
1A
100
AcDbEntity
  8
BLACK
  6
CONTINUOUS
100
AcDbLine
 10
150.3196769999999844
 20
-141.507694999999984
 30
0
 11
149.3672959999999819
 21
-141.6981710000000021
 31
0
  0
LINE
  5
21B
330
1A
100
AcDbEntity
  8
BLACK
  6
CONTINUOUS
100
AcDbLine
 10
151.0815819999999974
 20
-142.269599999999997
 30
0
 11
151.272057999999987
 21
-142.3648379999999918
 31
0
  0
LINE
  5
21C
330
1A
100
AcDbEntity
  8
BLACK
  6
CONTINUOUS
100
AcDbLine
 10
151.272057999999987
 20
-142.3648379999999918
 30
0
 11
151.6530099999999948
 21
-142.3648379999999918
 31
0
  0
LINE
  5
21D
330
1A
100
AcDbEntity
  8
BLACK
  6
CONTINUOUS
100
AcDbLine
 10
151.6530099999999948
 20
-142.3648379999999918
 30
0
 11
151.8434869999999819
 21
-142.269599999999997
 31
0
  0
LINE
  5
21E
330
1A
100
AcDbEntity
  8
BLACK
  6
CONTINUOUS
100
AcDbLine
 10
151.8434869999999819
 20
-142.269599999999997
 30
0
 11
151.9387250000000051
 21
-142.0791229999999814
 31
0
  0
LINE
  5
21F
330
1A
100
AcDbEntity
  8
BLACK
  6
CONTINUOUS
100
AcDbLine
 10
151.9387250000000051
 20
-142.0791229999999814
 30
0
 11
151.9387250000000051
 21
-141.9838849999999866
 31
0
  0
LINE
  5
220
330
1A
100
AcDbEntity
  8
BLACK
  6
CONTINUOUS
100
AcDbLine
 10
151.9387250000000051
 20
-141.9838849999999866
 30
0
 11
151.8434869999999819
 21
-141.7934089999999969
 31
0
  0
LINE
  5
221
330
1A
100
AcDbEntity
  8
BLACK
  6
CONTINUOUS
100
AcDbLine
 10
151.8434869999999819
 20
-141.7934089999999969
 30
0
 11
151.6530099999999948
 21
-141.6981710000000021
 31
0
  0
LINE
  5
222
330
1A
100
AcDbEntity
  8
BLACK
  6
CONTINUOUS
100
AcDbLine
 10
151.6530099999999948
 20
-141.6981710000000021
 30
0
 11
151.3672959999999819
 21
-141.6981710000000021
 31
0
  0
LINE
  5
223
330
1A
100
AcDbEntity
  8
BLACK
  6
CONTINUOUS
100
AcDbLine
 10
151.3672959999999819
 20
-141.6981710000000021
 30
0
 11
151.1768199999999922
 21
-141.6029330000000073
 31
0
  0
LINE
  5
224
330
1A
100
AcDbEntity
  8
BLACK
  6
CONTINUOUS
100
AcDbLine
 10
151.1768199999999922
 20
-141.6029330000000073
 30
0
 11
151.0815819999999974
 21
-141.4124569999999892
 31
0
  0
LINE
  5
225
330
1A
100
AcDbEntity
  8
BLACK
  6
CONTINUOUS
100
AcDbLine
 10
151.0815819999999974
 20
-141.4124569999999892
 30
0
 11
151.0815819999999974
 21
-141.3172189999999944
 31
0
  0
LINE
  5
226
330
1A
100
AcDbEntity
  8
BLACK
  6
CONTINUOUS
100
AcDbLine
 10
151.0815819999999974
 20
-141.3172189999999944
 30
0
 11
151.1768199999999922
 21
-141.1267420000000072
 31
0
  0
LINE
  5
227
330
1A
100
AcDbEntity
  8
BLACK
  6
CONTINUOUS
100
AcDbLine
 10
151.1768199999999922
 20
-141.1267420000000072
 30
0
 11
151.3672959999999819
 21
-141.031503999999984
 31
0
  0
LINE
  5
228
330
1A
100
AcDbEntity
  8
BLACK
  6
CONTINUOUS
100
AcDbLine
 10
151.3672959999999819
 20
-141.031503999999984
 30
0
 11
151.6530099999999948
 21
-141.031503999999984
 31
0
  0
LINE
  5
229
330
1A
100
AcDbEntity
  8
BLACK
  6
CONTINUOUS
100
AcDbLine
 10
151.6530099999999948
 20
-141.031503999999984
 30
0
 11
151.8434869999999819
 21
-141.1267420000000072
 31
0
  0
LINE
  5
22A
330
1A
100
AcDbEntity
  8
BLACK
  6
CONTINUOUS
100
AcDbLine
 10
152.6053919999999948
 20
-143.1267420000000072
 30
0
 11
152.7006299999999896
 21
-143.031503999999984
 31
0
  0
LINE
  5
22B
330
1A
100
AcDbEntity
  8
BLACK
  6
CONTINUOUS
100
AcDbLine
 10
152.7006299999999896
 20
-143.031503999999984
 30
0
 11
152.8911059999999793
 21
-142.7457899999999995
 31
0
  0
LINE
  5
22C
330
1A
100
AcDbEntity
  8
BLACK
  6
CONTINUOUS
100
AcDbLine
 10
152.8911059999999793
 20
-142.7457899999999995
 30
0
 11
152.9863440000000026
 21
-142.5553139999999814
 31
0
  0
LINE
  5
22D
330
1A
100
AcDbEntity
  8
BLACK
  6
CONTINUOUS
100
AcDbLine
 10
152.9863440000000026
 20
-142.5553139999999814
 30
0
 11
153.0815819999999974
 21
-142.269599999999997
 31
0
  0
LINE
  5
22E
330
1A
100
AcDbEntity
  8
BLACK
  6
CONTINUOUS
100
AcDbLine
 10
153.0815819999999974
 20
-142.269599999999997
 30
0
 11
153.1768199999999922
 21
-141.7934089999999969
 31
0
  0
LINE
  5
22F
330
1A
100
AcDbEntity
  8
BLACK
  6
CONTINUOUS
100
AcDbLine
 10
153.1768199999999922
 20
-141.7934089999999969
 30
0
 11
153.1768199999999922
 21
-141.4124569999999892
 31
0
  0
LINE
  5
230
330
1A
100
AcDbEntity
  8
BLACK
  6
CONTINUOUS
100
AcDbLine
 10
153.1768199999999922
 20
-141.4124569999999892
 30
0
 11
153.0815819999999974
 21
-140.9362659999999892
 31
0
  0
LINE
  5
231
330
1A
100
AcDbEntity
  8
BLACK
  6
CONTINUOUS
100
AcDbLine
 10
153.0815819999999974
 20
-140.9362659999999892
 30
0
 11
152.9863440000000026
 21
-140.6505520000000047
 31
0
  0
LINE
  5
232
330
1A
100
AcDbEntity
  8
BLACK
  6
CONTINUOUS
100
AcDbLine
 10
152.9863440000000026
 20
-140.6505520000000047
 30
0
 11
152.8911059999999793
 21
-140.4600759999999866
 31
0
  0
LINE
  5
233
330
1A
100
AcDbEntity
  8
BLACK
  6
CONTINUOUS
100
AcDbLine
 10
152.8911059999999793
 20
-140.4600759999999866
 30
0
 11
152.7006299999999896
 21
-140.1743610000000047
 31
0
  0
LINE
  5
234
330
1A
100
AcDbEntity
  8
BLACK
  6
CONTINUOUS
100
AcDbLine
 10
152.7006299999999896
 20
-140.1743610000000047
 30
0
 11
152.6053919999999948
 21
-140.0791229999999814
 31
0
  0
ENDSEC
  0
SECTION
  2
OBJECTS
  0
DICTIONARY
  5
20
330
0
100
AcDbDictionary
281
1
  3
ACAD_GROUP
350
235
  3
ACAD_LAYOUT
350
21
  3
ACAD_PLOTSTYLENAME
350
11
  0
DICTIONARY
  5
235
330
20
100
AcDbDictionary
281
1
  0
ACDBDICTIONARYWDFLT
  5
11
330
20
100
AcDbDictionary
281
1
  3
Normal
350
10
100
AcDbDictionaryWithDefault
340
10
  0
ACDBPLACEHOLDER
  5
10
330
11
  0
DICTIONARY
  5
21
330
20
100
AcDbDictionary
281
1
  3
Model
350
1D
  3
Layout1
350
1E
  3
Layout2
350
1F
  0
LAYOUT
  5
1D
330
21
100
AcDbPlotSettings
  1

  2
none_device
  4
A3
  6

 40
0.0
 41
0.0
 42
0.0
 43
0.0
 44
420.0
 45
297.0
 46
0.0
 47
0.0
 48
0.0
 49
0.0
140
0.0
141
0.0
142
1.0
143
1.0
 70
1024
 72
1
 73
0
 74
5
  7

 75
16
 76
0
 77
2
 78
300
147
1.0
148
0.0
149
0.0
100
AcDbLayout
  1
Model
 70
1
 71
0
 10
0.0
 20
0.0
 11
420.0
 21
297.0
 12
0.0
 22
0.0
 32
0.0
 14
1e+20
 24
1e+20
 34
1e+20
 15
-1e+20
 25
-1e+20
 35
-1e+20
146
0.0
 13
0.0
 23
0.0
 33
0.0
 16
1.0
 26
0.0
 36
0.0
 17
0.0
 27
1.0
 37
0.0
 76
0
330
1A
  0
LAYOUT
  5
1E
330
21
100
AcDbPlotSettings
  1

  2
none_device
  4
A3
  6

 40
0.0
 41
0.0
 42
0.0
 43
0.0
 44
420.0
 45
297.0
 46
0.0
 47
0.0
 48
0.0
 49
0.0
140
0.0
141
0.0
142
1.0
143
1.0
 70
0
 72
1
 73
0
 74
5
  7

 75
16
 76
0
 77
2
 78
300
147
1.0
148
0.0
149
0.0
100
AcDbLayout
  1
Layout1
 70
1
 71
1
 10
0.0
 20
0.0
 11
420.0
 21
297.0
 12
0.0
 22
0.0
 32
0.0
 14
1e+20
 24
1e+20
 34
1e+20
 15
-1e+20
 25
-1e+20
 35
-1e+20
146
0.0
 13
0.0
 23
0.0
 33
0.0
 16
1.0
 26
0.0
 36
0.0
 17
0.0
 27
1.0
 37
0.0
 76
0
330
1B
  0
LAYOUT
  5
1F
330
21
100
AcDbPlotSettings
  1

  2
none_device
  4
A3
  6

 40
0.0
 41
0.0
 42
0.0
 43
0.0
 44
420.0
 45
297.0
 46
0.0
 47
0.0
 48
0.0
 49
0.0
140
0.0
141
0.0
142
1.0
143
1.0
 70
0
 72
1
 73
0
 74
5
  7

 75
16
 76
0
 77
2
 78
300
147
1.0
148
0.0
149
0.0
100
AcDbLayout
  1
Layout2
 70
1
 71
2
 10
0.0
 20
0.0
 11
420.0
 21
297.0
 12
0.0
 22
0.0
 32
0.0
 14
1e+20
 24
1e+20
 34
1e+20
 15
-1e+20
 25
-1e+20
 35
-1e+20
146
0.0
 13
0.0
 23
0.0
 33
0.0
 16
1.0
 26
0.0
 36
0.0
 17
0.0
 27
1.0
 37
0.0
 76
0
330
1C
  0
ENDSEC
  0
EOF
