G04 #@! TF.GenerationSoftware,KiCad,Pcbnew,10.0.4*
G04 #@! TF.CreationDate,2026-07-23T16:06:34+08:00*
G04 #@! TF.ProjectId,nano_IPBL_2026,6e616e6f-5f49-4504-924c-5f323032362e,rev?*
G04 #@! TF.SameCoordinates,Original*
G04 #@! TF.FileFunction,Legend,Top*
G04 #@! TF.FilePolarity,Positive*
%FSLAX46Y46*%
G04 Gerber Fmt 4.6, Leading zero omitted, Abs format (unit mm)*
G04 Created by KiCad (PCBNEW 10.0.4) date 2026-07-23 16:06:34*
%MOMM*%
%LPD*%
G01*
G04 APERTURE LIST*
%ADD10C,0.150000*%
%ADD11C,0.120000*%
%ADD12C,0.250000*%
%ADD13C,0.060000*%
%ADD14C,0.000000*%
G04 APERTURE END LIST*
D10*
X106648964Y-124241540D02*
X105148964Y-124241540D01*
X105648964Y-123527254D02*
X106648964Y-123527254D01*
X105791821Y-123527254D02*
X105720393Y-123455825D01*
X105720393Y-123455825D02*
X105648964Y-123312968D01*
X105648964Y-123312968D02*
X105648964Y-123098682D01*
X105648964Y-123098682D02*
X105720393Y-122955825D01*
X105720393Y-122955825D02*
X105863250Y-122884397D01*
X105863250Y-122884397D02*
X106648964Y-122884397D01*
X105648964Y-122384396D02*
X105648964Y-121812968D01*
X105148964Y-122170111D02*
X106434678Y-122170111D01*
X106434678Y-122170111D02*
X106577536Y-122098682D01*
X106577536Y-122098682D02*
X106648964Y-121955825D01*
X106648964Y-121955825D02*
X106648964Y-121812968D01*
X106577536Y-120741539D02*
X106648964Y-120884396D01*
X106648964Y-120884396D02*
X106648964Y-121170111D01*
X106648964Y-121170111D02*
X106577536Y-121312968D01*
X106577536Y-121312968D02*
X106434678Y-121384396D01*
X106434678Y-121384396D02*
X105863250Y-121384396D01*
X105863250Y-121384396D02*
X105720393Y-121312968D01*
X105720393Y-121312968D02*
X105648964Y-121170111D01*
X105648964Y-121170111D02*
X105648964Y-120884396D01*
X105648964Y-120884396D02*
X105720393Y-120741539D01*
X105720393Y-120741539D02*
X105863250Y-120670111D01*
X105863250Y-120670111D02*
X106006107Y-120670111D01*
X106006107Y-120670111D02*
X106148964Y-121384396D01*
X106648964Y-120027254D02*
X105648964Y-120027254D01*
X105934678Y-120027254D02*
X105791821Y-119955825D01*
X105791821Y-119955825D02*
X105720393Y-119884397D01*
X105720393Y-119884397D02*
X105648964Y-119741539D01*
X105648964Y-119741539D02*
X105648964Y-119598682D01*
X105648964Y-119098683D02*
X106648964Y-119098683D01*
X105791821Y-119098683D02*
X105720393Y-119027254D01*
X105720393Y-119027254D02*
X105648964Y-118884397D01*
X105648964Y-118884397D02*
X105648964Y-118670111D01*
X105648964Y-118670111D02*
X105720393Y-118527254D01*
X105720393Y-118527254D02*
X105863250Y-118455826D01*
X105863250Y-118455826D02*
X106648964Y-118455826D01*
X106648964Y-117098683D02*
X105863250Y-117098683D01*
X105863250Y-117098683D02*
X105720393Y-117170111D01*
X105720393Y-117170111D02*
X105648964Y-117312968D01*
X105648964Y-117312968D02*
X105648964Y-117598683D01*
X105648964Y-117598683D02*
X105720393Y-117741540D01*
X106577536Y-117098683D02*
X106648964Y-117241540D01*
X106648964Y-117241540D02*
X106648964Y-117598683D01*
X106648964Y-117598683D02*
X106577536Y-117741540D01*
X106577536Y-117741540D02*
X106434678Y-117812968D01*
X106434678Y-117812968D02*
X106291821Y-117812968D01*
X106291821Y-117812968D02*
X106148964Y-117741540D01*
X106148964Y-117741540D02*
X106077536Y-117598683D01*
X106077536Y-117598683D02*
X106077536Y-117241540D01*
X106077536Y-117241540D02*
X106006107Y-117098683D01*
X105648964Y-116598682D02*
X105648964Y-116027254D01*
X105148964Y-116384397D02*
X106434678Y-116384397D01*
X106434678Y-116384397D02*
X106577536Y-116312968D01*
X106577536Y-116312968D02*
X106648964Y-116170111D01*
X106648964Y-116170111D02*
X106648964Y-116027254D01*
X106648964Y-115527254D02*
X105648964Y-115527254D01*
X105148964Y-115527254D02*
X105220393Y-115598682D01*
X105220393Y-115598682D02*
X105291821Y-115527254D01*
X105291821Y-115527254D02*
X105220393Y-115455825D01*
X105220393Y-115455825D02*
X105148964Y-115527254D01*
X105148964Y-115527254D02*
X105291821Y-115527254D01*
X106648964Y-114598682D02*
X106577536Y-114741539D01*
X106577536Y-114741539D02*
X106506107Y-114812968D01*
X106506107Y-114812968D02*
X106363250Y-114884396D01*
X106363250Y-114884396D02*
X105934678Y-114884396D01*
X105934678Y-114884396D02*
X105791821Y-114812968D01*
X105791821Y-114812968D02*
X105720393Y-114741539D01*
X105720393Y-114741539D02*
X105648964Y-114598682D01*
X105648964Y-114598682D02*
X105648964Y-114384396D01*
X105648964Y-114384396D02*
X105720393Y-114241539D01*
X105720393Y-114241539D02*
X105791821Y-114170111D01*
X105791821Y-114170111D02*
X105934678Y-114098682D01*
X105934678Y-114098682D02*
X106363250Y-114098682D01*
X106363250Y-114098682D02*
X106506107Y-114170111D01*
X106506107Y-114170111D02*
X106577536Y-114241539D01*
X106577536Y-114241539D02*
X106648964Y-114384396D01*
X106648964Y-114384396D02*
X106648964Y-114598682D01*
X105648964Y-113455825D02*
X106648964Y-113455825D01*
X105791821Y-113455825D02*
X105720393Y-113384396D01*
X105720393Y-113384396D02*
X105648964Y-113241539D01*
X105648964Y-113241539D02*
X105648964Y-113027253D01*
X105648964Y-113027253D02*
X105720393Y-112884396D01*
X105720393Y-112884396D02*
X105863250Y-112812968D01*
X105863250Y-112812968D02*
X106648964Y-112812968D01*
X106648964Y-111455825D02*
X105863250Y-111455825D01*
X105863250Y-111455825D02*
X105720393Y-111527253D01*
X105720393Y-111527253D02*
X105648964Y-111670110D01*
X105648964Y-111670110D02*
X105648964Y-111955825D01*
X105648964Y-111955825D02*
X105720393Y-112098682D01*
X106577536Y-111455825D02*
X106648964Y-111598682D01*
X106648964Y-111598682D02*
X106648964Y-111955825D01*
X106648964Y-111955825D02*
X106577536Y-112098682D01*
X106577536Y-112098682D02*
X106434678Y-112170110D01*
X106434678Y-112170110D02*
X106291821Y-112170110D01*
X106291821Y-112170110D02*
X106148964Y-112098682D01*
X106148964Y-112098682D02*
X106077536Y-111955825D01*
X106077536Y-111955825D02*
X106077536Y-111598682D01*
X106077536Y-111598682D02*
X106006107Y-111455825D01*
X106648964Y-110527253D02*
X106577536Y-110670110D01*
X106577536Y-110670110D02*
X106434678Y-110741539D01*
X106434678Y-110741539D02*
X105148964Y-110741539D01*
X106648964Y-108812968D02*
X105148964Y-108812968D01*
X105148964Y-108812968D02*
X105148964Y-108241539D01*
X105148964Y-108241539D02*
X105220393Y-108098682D01*
X105220393Y-108098682D02*
X105291821Y-108027253D01*
X105291821Y-108027253D02*
X105434678Y-107955825D01*
X105434678Y-107955825D02*
X105648964Y-107955825D01*
X105648964Y-107955825D02*
X105791821Y-108027253D01*
X105791821Y-108027253D02*
X105863250Y-108098682D01*
X105863250Y-108098682D02*
X105934678Y-108241539D01*
X105934678Y-108241539D02*
X105934678Y-108812968D01*
X106648964Y-107312968D02*
X105648964Y-107312968D01*
X105934678Y-107312968D02*
X105791821Y-107241539D01*
X105791821Y-107241539D02*
X105720393Y-107170111D01*
X105720393Y-107170111D02*
X105648964Y-107027253D01*
X105648964Y-107027253D02*
X105648964Y-106884396D01*
X106648964Y-106170111D02*
X106577536Y-106312968D01*
X106577536Y-106312968D02*
X106506107Y-106384397D01*
X106506107Y-106384397D02*
X106363250Y-106455825D01*
X106363250Y-106455825D02*
X105934678Y-106455825D01*
X105934678Y-106455825D02*
X105791821Y-106384397D01*
X105791821Y-106384397D02*
X105720393Y-106312968D01*
X105720393Y-106312968D02*
X105648964Y-106170111D01*
X105648964Y-106170111D02*
X105648964Y-105955825D01*
X105648964Y-105955825D02*
X105720393Y-105812968D01*
X105720393Y-105812968D02*
X105791821Y-105741540D01*
X105791821Y-105741540D02*
X105934678Y-105670111D01*
X105934678Y-105670111D02*
X106363250Y-105670111D01*
X106363250Y-105670111D02*
X106506107Y-105741540D01*
X106506107Y-105741540D02*
X106577536Y-105812968D01*
X106577536Y-105812968D02*
X106648964Y-105955825D01*
X106648964Y-105955825D02*
X106648964Y-106170111D01*
X105648964Y-105027254D02*
X106934678Y-105027254D01*
X106934678Y-105027254D02*
X107077536Y-105098682D01*
X107077536Y-105098682D02*
X107148964Y-105241539D01*
X107148964Y-105241539D02*
X107148964Y-105312968D01*
X105148964Y-105027254D02*
X105220393Y-105098682D01*
X105220393Y-105098682D02*
X105291821Y-105027254D01*
X105291821Y-105027254D02*
X105220393Y-104955825D01*
X105220393Y-104955825D02*
X105148964Y-105027254D01*
X105148964Y-105027254D02*
X105291821Y-105027254D01*
X106577536Y-103741539D02*
X106648964Y-103884396D01*
X106648964Y-103884396D02*
X106648964Y-104170111D01*
X106648964Y-104170111D02*
X106577536Y-104312968D01*
X106577536Y-104312968D02*
X106434678Y-104384396D01*
X106434678Y-104384396D02*
X105863250Y-104384396D01*
X105863250Y-104384396D02*
X105720393Y-104312968D01*
X105720393Y-104312968D02*
X105648964Y-104170111D01*
X105648964Y-104170111D02*
X105648964Y-103884396D01*
X105648964Y-103884396D02*
X105720393Y-103741539D01*
X105720393Y-103741539D02*
X105863250Y-103670111D01*
X105863250Y-103670111D02*
X106006107Y-103670111D01*
X106006107Y-103670111D02*
X106148964Y-104384396D01*
X106577536Y-102384397D02*
X106648964Y-102527254D01*
X106648964Y-102527254D02*
X106648964Y-102812968D01*
X106648964Y-102812968D02*
X106577536Y-102955825D01*
X106577536Y-102955825D02*
X106506107Y-103027254D01*
X106506107Y-103027254D02*
X106363250Y-103098682D01*
X106363250Y-103098682D02*
X105934678Y-103098682D01*
X105934678Y-103098682D02*
X105791821Y-103027254D01*
X105791821Y-103027254D02*
X105720393Y-102955825D01*
X105720393Y-102955825D02*
X105648964Y-102812968D01*
X105648964Y-102812968D02*
X105648964Y-102527254D01*
X105648964Y-102527254D02*
X105720393Y-102384397D01*
X105648964Y-101955825D02*
X105648964Y-101384397D01*
X105148964Y-101741540D02*
X106434678Y-101741540D01*
X106434678Y-101741540D02*
X106577536Y-101670111D01*
X106577536Y-101670111D02*
X106648964Y-101527254D01*
X106648964Y-101527254D02*
X106648964Y-101384397D01*
X106077536Y-100884397D02*
X106077536Y-99741540D01*
X105863250Y-98527254D02*
X105934678Y-98312968D01*
X105934678Y-98312968D02*
X106006107Y-98241539D01*
X106006107Y-98241539D02*
X106148964Y-98170111D01*
X106148964Y-98170111D02*
X106363250Y-98170111D01*
X106363250Y-98170111D02*
X106506107Y-98241539D01*
X106506107Y-98241539D02*
X106577536Y-98312968D01*
X106577536Y-98312968D02*
X106648964Y-98455825D01*
X106648964Y-98455825D02*
X106648964Y-99027254D01*
X106648964Y-99027254D02*
X105148964Y-99027254D01*
X105148964Y-99027254D02*
X105148964Y-98527254D01*
X105148964Y-98527254D02*
X105220393Y-98384397D01*
X105220393Y-98384397D02*
X105291821Y-98312968D01*
X105291821Y-98312968D02*
X105434678Y-98241539D01*
X105434678Y-98241539D02*
X105577536Y-98241539D01*
X105577536Y-98241539D02*
X105720393Y-98312968D01*
X105720393Y-98312968D02*
X105791821Y-98384397D01*
X105791821Y-98384397D02*
X105863250Y-98527254D01*
X105863250Y-98527254D02*
X105863250Y-99027254D01*
X106648964Y-96884397D02*
X105863250Y-96884397D01*
X105863250Y-96884397D02*
X105720393Y-96955825D01*
X105720393Y-96955825D02*
X105648964Y-97098682D01*
X105648964Y-97098682D02*
X105648964Y-97384397D01*
X105648964Y-97384397D02*
X105720393Y-97527254D01*
X106577536Y-96884397D02*
X106648964Y-97027254D01*
X106648964Y-97027254D02*
X106648964Y-97384397D01*
X106648964Y-97384397D02*
X106577536Y-97527254D01*
X106577536Y-97527254D02*
X106434678Y-97598682D01*
X106434678Y-97598682D02*
X106291821Y-97598682D01*
X106291821Y-97598682D02*
X106148964Y-97527254D01*
X106148964Y-97527254D02*
X106077536Y-97384397D01*
X106077536Y-97384397D02*
X106077536Y-97027254D01*
X106077536Y-97027254D02*
X106006107Y-96884397D01*
X106577536Y-96241539D02*
X106648964Y-96098682D01*
X106648964Y-96098682D02*
X106648964Y-95812968D01*
X106648964Y-95812968D02*
X106577536Y-95670111D01*
X106577536Y-95670111D02*
X106434678Y-95598682D01*
X106434678Y-95598682D02*
X106363250Y-95598682D01*
X106363250Y-95598682D02*
X106220393Y-95670111D01*
X106220393Y-95670111D02*
X106148964Y-95812968D01*
X106148964Y-95812968D02*
X106148964Y-96027254D01*
X106148964Y-96027254D02*
X106077536Y-96170111D01*
X106077536Y-96170111D02*
X105934678Y-96241539D01*
X105934678Y-96241539D02*
X105863250Y-96241539D01*
X105863250Y-96241539D02*
X105720393Y-96170111D01*
X105720393Y-96170111D02*
X105648964Y-96027254D01*
X105648964Y-96027254D02*
X105648964Y-95812968D01*
X105648964Y-95812968D02*
X105720393Y-95670111D01*
X106577536Y-94384396D02*
X106648964Y-94527253D01*
X106648964Y-94527253D02*
X106648964Y-94812968D01*
X106648964Y-94812968D02*
X106577536Y-94955825D01*
X106577536Y-94955825D02*
X106434678Y-95027253D01*
X106434678Y-95027253D02*
X105863250Y-95027253D01*
X105863250Y-95027253D02*
X105720393Y-94955825D01*
X105720393Y-94955825D02*
X105648964Y-94812968D01*
X105648964Y-94812968D02*
X105648964Y-94527253D01*
X105648964Y-94527253D02*
X105720393Y-94384396D01*
X105720393Y-94384396D02*
X105863250Y-94312968D01*
X105863250Y-94312968D02*
X106006107Y-94312968D01*
X106006107Y-94312968D02*
X106148964Y-95027253D01*
X106648964Y-93027254D02*
X105148964Y-93027254D01*
X106577536Y-93027254D02*
X106648964Y-93170111D01*
X106648964Y-93170111D02*
X106648964Y-93455825D01*
X106648964Y-93455825D02*
X106577536Y-93598682D01*
X106577536Y-93598682D02*
X106506107Y-93670111D01*
X106506107Y-93670111D02*
X106363250Y-93741539D01*
X106363250Y-93741539D02*
X105934678Y-93741539D01*
X105934678Y-93741539D02*
X105791821Y-93670111D01*
X105791821Y-93670111D02*
X105720393Y-93598682D01*
X105720393Y-93598682D02*
X105648964Y-93455825D01*
X105648964Y-93455825D02*
X105648964Y-93170111D01*
X105648964Y-93170111D02*
X105720393Y-93027254D01*
X106648964Y-90455825D02*
X106648964Y-91170111D01*
X106648964Y-91170111D02*
X105148964Y-91170111D01*
X106577536Y-89384396D02*
X106648964Y-89527253D01*
X106648964Y-89527253D02*
X106648964Y-89812968D01*
X106648964Y-89812968D02*
X106577536Y-89955825D01*
X106577536Y-89955825D02*
X106434678Y-90027253D01*
X106434678Y-90027253D02*
X105863250Y-90027253D01*
X105863250Y-90027253D02*
X105720393Y-89955825D01*
X105720393Y-89955825D02*
X105648964Y-89812968D01*
X105648964Y-89812968D02*
X105648964Y-89527253D01*
X105648964Y-89527253D02*
X105720393Y-89384396D01*
X105720393Y-89384396D02*
X105863250Y-89312968D01*
X105863250Y-89312968D02*
X106006107Y-89312968D01*
X106006107Y-89312968D02*
X106148964Y-90027253D01*
X106648964Y-88027254D02*
X105863250Y-88027254D01*
X105863250Y-88027254D02*
X105720393Y-88098682D01*
X105720393Y-88098682D02*
X105648964Y-88241539D01*
X105648964Y-88241539D02*
X105648964Y-88527254D01*
X105648964Y-88527254D02*
X105720393Y-88670111D01*
X106577536Y-88027254D02*
X106648964Y-88170111D01*
X106648964Y-88170111D02*
X106648964Y-88527254D01*
X106648964Y-88527254D02*
X106577536Y-88670111D01*
X106577536Y-88670111D02*
X106434678Y-88741539D01*
X106434678Y-88741539D02*
X106291821Y-88741539D01*
X106291821Y-88741539D02*
X106148964Y-88670111D01*
X106148964Y-88670111D02*
X106077536Y-88527254D01*
X106077536Y-88527254D02*
X106077536Y-88170111D01*
X106077536Y-88170111D02*
X106006107Y-88027254D01*
X106648964Y-87312968D02*
X105648964Y-87312968D01*
X105934678Y-87312968D02*
X105791821Y-87241539D01*
X105791821Y-87241539D02*
X105720393Y-87170111D01*
X105720393Y-87170111D02*
X105648964Y-87027253D01*
X105648964Y-87027253D02*
X105648964Y-86884396D01*
X105648964Y-86384397D02*
X106648964Y-86384397D01*
X105791821Y-86384397D02*
X105720393Y-86312968D01*
X105720393Y-86312968D02*
X105648964Y-86170111D01*
X105648964Y-86170111D02*
X105648964Y-85955825D01*
X105648964Y-85955825D02*
X105720393Y-85812968D01*
X105720393Y-85812968D02*
X105863250Y-85741540D01*
X105863250Y-85741540D02*
X106648964Y-85741540D01*
X106648964Y-85027254D02*
X105648964Y-85027254D01*
X105148964Y-85027254D02*
X105220393Y-85098682D01*
X105220393Y-85098682D02*
X105291821Y-85027254D01*
X105291821Y-85027254D02*
X105220393Y-84955825D01*
X105220393Y-84955825D02*
X105148964Y-85027254D01*
X105148964Y-85027254D02*
X105291821Y-85027254D01*
X105648964Y-84312968D02*
X106648964Y-84312968D01*
X105791821Y-84312968D02*
X105720393Y-84241539D01*
X105720393Y-84241539D02*
X105648964Y-84098682D01*
X105648964Y-84098682D02*
X105648964Y-83884396D01*
X105648964Y-83884396D02*
X105720393Y-83741539D01*
X105720393Y-83741539D02*
X105863250Y-83670111D01*
X105863250Y-83670111D02*
X106648964Y-83670111D01*
X105648964Y-82312968D02*
X106863250Y-82312968D01*
X106863250Y-82312968D02*
X107006107Y-82384396D01*
X107006107Y-82384396D02*
X107077536Y-82455825D01*
X107077536Y-82455825D02*
X107148964Y-82598682D01*
X107148964Y-82598682D02*
X107148964Y-82812968D01*
X107148964Y-82812968D02*
X107077536Y-82955825D01*
X106577536Y-82312968D02*
X106648964Y-82455825D01*
X106648964Y-82455825D02*
X106648964Y-82741539D01*
X106648964Y-82741539D02*
X106577536Y-82884396D01*
X106577536Y-82884396D02*
X106506107Y-82955825D01*
X106506107Y-82955825D02*
X106363250Y-83027253D01*
X106363250Y-83027253D02*
X105934678Y-83027253D01*
X105934678Y-83027253D02*
X105791821Y-82955825D01*
X105791821Y-82955825D02*
X105720393Y-82884396D01*
X105720393Y-82884396D02*
X105648964Y-82741539D01*
X105648964Y-82741539D02*
X105648964Y-82455825D01*
X105648964Y-82455825D02*
X105720393Y-82312968D01*
X105291821Y-80527253D02*
X105220393Y-80455825D01*
X105220393Y-80455825D02*
X105148964Y-80312968D01*
X105148964Y-80312968D02*
X105148964Y-79955825D01*
X105148964Y-79955825D02*
X105220393Y-79812968D01*
X105220393Y-79812968D02*
X105291821Y-79741539D01*
X105291821Y-79741539D02*
X105434678Y-79670110D01*
X105434678Y-79670110D02*
X105577536Y-79670110D01*
X105577536Y-79670110D02*
X105791821Y-79741539D01*
X105791821Y-79741539D02*
X106648964Y-80598682D01*
X106648964Y-80598682D02*
X106648964Y-79670110D01*
X105148964Y-78741539D02*
X105148964Y-78598682D01*
X105148964Y-78598682D02*
X105220393Y-78455825D01*
X105220393Y-78455825D02*
X105291821Y-78384397D01*
X105291821Y-78384397D02*
X105434678Y-78312968D01*
X105434678Y-78312968D02*
X105720393Y-78241539D01*
X105720393Y-78241539D02*
X106077536Y-78241539D01*
X106077536Y-78241539D02*
X106363250Y-78312968D01*
X106363250Y-78312968D02*
X106506107Y-78384397D01*
X106506107Y-78384397D02*
X106577536Y-78455825D01*
X106577536Y-78455825D02*
X106648964Y-78598682D01*
X106648964Y-78598682D02*
X106648964Y-78741539D01*
X106648964Y-78741539D02*
X106577536Y-78884397D01*
X106577536Y-78884397D02*
X106506107Y-78955825D01*
X106506107Y-78955825D02*
X106363250Y-79027254D01*
X106363250Y-79027254D02*
X106077536Y-79098682D01*
X106077536Y-79098682D02*
X105720393Y-79098682D01*
X105720393Y-79098682D02*
X105434678Y-79027254D01*
X105434678Y-79027254D02*
X105291821Y-78955825D01*
X105291821Y-78955825D02*
X105220393Y-78884397D01*
X105220393Y-78884397D02*
X105148964Y-78741539D01*
X105291821Y-77670111D02*
X105220393Y-77598683D01*
X105220393Y-77598683D02*
X105148964Y-77455826D01*
X105148964Y-77455826D02*
X105148964Y-77098683D01*
X105148964Y-77098683D02*
X105220393Y-76955826D01*
X105220393Y-76955826D02*
X105291821Y-76884397D01*
X105291821Y-76884397D02*
X105434678Y-76812968D01*
X105434678Y-76812968D02*
X105577536Y-76812968D01*
X105577536Y-76812968D02*
X105791821Y-76884397D01*
X105791821Y-76884397D02*
X106648964Y-77741540D01*
X106648964Y-77741540D02*
X106648964Y-76812968D01*
X105148964Y-75527255D02*
X105148964Y-75812969D01*
X105148964Y-75812969D02*
X105220393Y-75955826D01*
X105220393Y-75955826D02*
X105291821Y-76027255D01*
X105291821Y-76027255D02*
X105506107Y-76170112D01*
X105506107Y-76170112D02*
X105791821Y-76241540D01*
X105791821Y-76241540D02*
X106363250Y-76241540D01*
X106363250Y-76241540D02*
X106506107Y-76170112D01*
X106506107Y-76170112D02*
X106577536Y-76098683D01*
X106577536Y-76098683D02*
X106648964Y-75955826D01*
X106648964Y-75955826D02*
X106648964Y-75670112D01*
X106648964Y-75670112D02*
X106577536Y-75527255D01*
X106577536Y-75527255D02*
X106506107Y-75455826D01*
X106506107Y-75455826D02*
X106363250Y-75384397D01*
X106363250Y-75384397D02*
X106006107Y-75384397D01*
X106006107Y-75384397D02*
X105863250Y-75455826D01*
X105863250Y-75455826D02*
X105791821Y-75527255D01*
X105791821Y-75527255D02*
X105720393Y-75670112D01*
X105720393Y-75670112D02*
X105720393Y-75955826D01*
X105720393Y-75955826D02*
X105791821Y-76098683D01*
X105791821Y-76098683D02*
X105863250Y-76170112D01*
X105863250Y-76170112D02*
X106006107Y-76241540D01*
X109978796Y-82241541D02*
X111193082Y-82241541D01*
X111193082Y-82241541D02*
X111335939Y-82170112D01*
X111335939Y-82170112D02*
X111407368Y-82098684D01*
X111407368Y-82098684D02*
X111478796Y-81955826D01*
X111478796Y-81955826D02*
X111478796Y-81670112D01*
X111478796Y-81670112D02*
X111407368Y-81527255D01*
X111407368Y-81527255D02*
X111335939Y-81455826D01*
X111335939Y-81455826D02*
X111193082Y-81384398D01*
X111193082Y-81384398D02*
X109978796Y-81384398D01*
X111407368Y-80741540D02*
X111478796Y-80527255D01*
X111478796Y-80527255D02*
X111478796Y-80170112D01*
X111478796Y-80170112D02*
X111407368Y-80027255D01*
X111407368Y-80027255D02*
X111335939Y-79955826D01*
X111335939Y-79955826D02*
X111193082Y-79884397D01*
X111193082Y-79884397D02*
X111050225Y-79884397D01*
X111050225Y-79884397D02*
X110907368Y-79955826D01*
X110907368Y-79955826D02*
X110835939Y-80027255D01*
X110835939Y-80027255D02*
X110764510Y-80170112D01*
X110764510Y-80170112D02*
X110693082Y-80455826D01*
X110693082Y-80455826D02*
X110621653Y-80598683D01*
X110621653Y-80598683D02*
X110550225Y-80670112D01*
X110550225Y-80670112D02*
X110407368Y-80741540D01*
X110407368Y-80741540D02*
X110264510Y-80741540D01*
X110264510Y-80741540D02*
X110121653Y-80670112D01*
X110121653Y-80670112D02*
X110050225Y-80598683D01*
X110050225Y-80598683D02*
X109978796Y-80455826D01*
X109978796Y-80455826D02*
X109978796Y-80098683D01*
X109978796Y-80098683D02*
X110050225Y-79884397D01*
X109978796Y-78812969D02*
X111050225Y-78812969D01*
X111050225Y-78812969D02*
X111264510Y-78884398D01*
X111264510Y-78884398D02*
X111407368Y-79027255D01*
X111407368Y-79027255D02*
X111478796Y-79241541D01*
X111478796Y-79241541D02*
X111478796Y-79384398D01*
X110907368Y-78098684D02*
X110907368Y-76955827D01*
X111478796Y-75384398D02*
X110764510Y-75884398D01*
X111478796Y-76241541D02*
X109978796Y-76241541D01*
X109978796Y-76241541D02*
X109978796Y-75670112D01*
X109978796Y-75670112D02*
X110050225Y-75527255D01*
X110050225Y-75527255D02*
X110121653Y-75455826D01*
X110121653Y-75455826D02*
X110264510Y-75384398D01*
X110264510Y-75384398D02*
X110478796Y-75384398D01*
X110478796Y-75384398D02*
X110621653Y-75455826D01*
X110621653Y-75455826D02*
X110693082Y-75527255D01*
X110693082Y-75527255D02*
X110764510Y-75670112D01*
X110764510Y-75670112D02*
X110764510Y-76241541D01*
X113822284Y-81527254D02*
X113893712Y-81312969D01*
X113893712Y-81312969D02*
X113893712Y-80955826D01*
X113893712Y-80955826D02*
X113822284Y-80812969D01*
X113822284Y-80812969D02*
X113750855Y-80741540D01*
X113750855Y-80741540D02*
X113607998Y-80670111D01*
X113607998Y-80670111D02*
X113465141Y-80670111D01*
X113465141Y-80670111D02*
X113322284Y-80741540D01*
X113322284Y-80741540D02*
X113250855Y-80812969D01*
X113250855Y-80812969D02*
X113179426Y-80955826D01*
X113179426Y-80955826D02*
X113107998Y-81241540D01*
X113107998Y-81241540D02*
X113036569Y-81384397D01*
X113036569Y-81384397D02*
X112965141Y-81455826D01*
X112965141Y-81455826D02*
X112822284Y-81527254D01*
X112822284Y-81527254D02*
X112679426Y-81527254D01*
X112679426Y-81527254D02*
X112536569Y-81455826D01*
X112536569Y-81455826D02*
X112465141Y-81384397D01*
X112465141Y-81384397D02*
X112393712Y-81241540D01*
X112393712Y-81241540D02*
X112393712Y-80884397D01*
X112393712Y-80884397D02*
X112465141Y-80670111D01*
X112393712Y-80241540D02*
X112393712Y-79384398D01*
X113893712Y-79812969D02*
X112393712Y-79812969D01*
X112393712Y-78884398D02*
X113607998Y-78884398D01*
X113607998Y-78884398D02*
X113750855Y-78812969D01*
X113750855Y-78812969D02*
X113822284Y-78741541D01*
X113822284Y-78741541D02*
X113893712Y-78598683D01*
X113893712Y-78598683D02*
X113893712Y-78312969D01*
X113893712Y-78312969D02*
X113822284Y-78170112D01*
X113822284Y-78170112D02*
X113750855Y-78098683D01*
X113750855Y-78098683D02*
X113607998Y-78027255D01*
X113607998Y-78027255D02*
X112393712Y-78027255D01*
X113822284Y-77384397D02*
X113893712Y-77170112D01*
X113893712Y-77170112D02*
X113893712Y-76812969D01*
X113893712Y-76812969D02*
X113822284Y-76670112D01*
X113822284Y-76670112D02*
X113750855Y-76598683D01*
X113750855Y-76598683D02*
X113607998Y-76527254D01*
X113607998Y-76527254D02*
X113465141Y-76527254D01*
X113465141Y-76527254D02*
X113322284Y-76598683D01*
X113322284Y-76598683D02*
X113250855Y-76670112D01*
X113250855Y-76670112D02*
X113179426Y-76812969D01*
X113179426Y-76812969D02*
X113107998Y-77098683D01*
X113107998Y-77098683D02*
X113036569Y-77241540D01*
X113036569Y-77241540D02*
X112965141Y-77312969D01*
X112965141Y-77312969D02*
X112822284Y-77384397D01*
X112822284Y-77384397D02*
X112679426Y-77384397D01*
X112679426Y-77384397D02*
X112536569Y-77312969D01*
X112536569Y-77312969D02*
X112465141Y-77241540D01*
X112465141Y-77241540D02*
X112393712Y-77098683D01*
X112393712Y-77098683D02*
X112393712Y-76741540D01*
X112393712Y-76741540D02*
X112465141Y-76527254D01*
X112393712Y-76098683D02*
X112393712Y-75241541D01*
X113893712Y-75670112D02*
X112393712Y-75670112D01*
X114808628Y-77884398D02*
X114808628Y-77598684D01*
X114808628Y-77598684D02*
X114880057Y-77455827D01*
X114880057Y-77455827D02*
X115022914Y-77312970D01*
X115022914Y-77312970D02*
X115308628Y-77241541D01*
X115308628Y-77241541D02*
X115808628Y-77241541D01*
X115808628Y-77241541D02*
X116094342Y-77312970D01*
X116094342Y-77312970D02*
X116237200Y-77455827D01*
X116237200Y-77455827D02*
X116308628Y-77598684D01*
X116308628Y-77598684D02*
X116308628Y-77884398D01*
X116308628Y-77884398D02*
X116237200Y-78027256D01*
X116237200Y-78027256D02*
X116094342Y-78170113D01*
X116094342Y-78170113D02*
X115808628Y-78241541D01*
X115808628Y-78241541D02*
X115308628Y-78241541D01*
X115308628Y-78241541D02*
X115022914Y-78170113D01*
X115022914Y-78170113D02*
X114880057Y-78027256D01*
X114880057Y-78027256D02*
X114808628Y-77884398D01*
X116308628Y-76598684D02*
X114808628Y-76598684D01*
X114808628Y-76098683D02*
X114808628Y-75241541D01*
X116308628Y-75670112D02*
X114808628Y-75670112D01*
X111721723Y-70851065D02*
X111912200Y-70660588D01*
X111912200Y-70660588D02*
X112102676Y-70851065D01*
X112102676Y-70851065D02*
X111912200Y-71041541D01*
X111912200Y-71041541D02*
X111721723Y-70851065D01*
X111721723Y-70851065D02*
X112102676Y-70851065D01*
X115921723Y-70851065D02*
X116112200Y-70660588D01*
X116112200Y-70660588D02*
X116302676Y-70851065D01*
X116302676Y-70851065D02*
X116112200Y-71041541D01*
X116112200Y-71041541D02*
X115921723Y-70851065D01*
X115921723Y-70851065D02*
X116302676Y-70851065D01*
X121721723Y-89051065D02*
X121912200Y-88860588D01*
X121912200Y-88860588D02*
X122102676Y-89051065D01*
X122102676Y-89051065D02*
X121912200Y-89241541D01*
X121912200Y-89241541D02*
X121721723Y-89051065D01*
X121721723Y-89051065D02*
X122102676Y-89051065D01*
X121721723Y-95251065D02*
X121912200Y-95060588D01*
X121912200Y-95060588D02*
X122102676Y-95251065D01*
X122102676Y-95251065D02*
X121912200Y-95441541D01*
X121912200Y-95441541D02*
X121721723Y-95251065D01*
X121721723Y-95251065D02*
X122102676Y-95251065D01*
X120761905Y-90654819D02*
X121333333Y-90654819D01*
X121047619Y-91654819D02*
X121047619Y-90654819D01*
X121571429Y-90654819D02*
X122238095Y-91654819D01*
X122238095Y-90654819D02*
X121571429Y-91654819D01*
X123142857Y-91654819D02*
X122571429Y-91654819D01*
X122857143Y-91654819D02*
X122857143Y-90654819D01*
X122857143Y-90654819D02*
X122761905Y-90797676D01*
X122761905Y-90797676D02*
X122666667Y-90892914D01*
X122666667Y-90892914D02*
X122571429Y-90940533D01*
X115764743Y-99654819D02*
X115764743Y-98654819D01*
X115764743Y-98654819D02*
X116098076Y-99369104D01*
X116098076Y-99369104D02*
X116431409Y-98654819D01*
X116431409Y-98654819D02*
X116431409Y-99654819D01*
X117431409Y-99654819D02*
X116859981Y-99654819D01*
X117145695Y-99654819D02*
X117145695Y-98654819D01*
X117145695Y-98654819D02*
X117050457Y-98797676D01*
X117050457Y-98797676D02*
X116955219Y-98892914D01*
X116955219Y-98892914D02*
X116859981Y-98940533D01*
X124990476Y-85254819D02*
X124990476Y-84254819D01*
X124990476Y-84254819D02*
X125323809Y-84969104D01*
X125323809Y-84969104D02*
X125657142Y-84254819D01*
X125657142Y-84254819D02*
X125657142Y-85254819D01*
X126038095Y-84254819D02*
X126704761Y-84254819D01*
X126704761Y-84254819D02*
X126276190Y-85254819D01*
X141033333Y-79359580D02*
X140985714Y-79407200D01*
X140985714Y-79407200D02*
X140842857Y-79454819D01*
X140842857Y-79454819D02*
X140747619Y-79454819D01*
X140747619Y-79454819D02*
X140604762Y-79407200D01*
X140604762Y-79407200D02*
X140509524Y-79311961D01*
X140509524Y-79311961D02*
X140461905Y-79216723D01*
X140461905Y-79216723D02*
X140414286Y-79026247D01*
X140414286Y-79026247D02*
X140414286Y-78883390D01*
X140414286Y-78883390D02*
X140461905Y-78692914D01*
X140461905Y-78692914D02*
X140509524Y-78597676D01*
X140509524Y-78597676D02*
X140604762Y-78502438D01*
X140604762Y-78502438D02*
X140747619Y-78454819D01*
X140747619Y-78454819D02*
X140842857Y-78454819D01*
X140842857Y-78454819D02*
X140985714Y-78502438D01*
X140985714Y-78502438D02*
X141033333Y-78550057D01*
X141366667Y-78454819D02*
X141985714Y-78454819D01*
X141985714Y-78454819D02*
X141652381Y-78835771D01*
X141652381Y-78835771D02*
X141795238Y-78835771D01*
X141795238Y-78835771D02*
X141890476Y-78883390D01*
X141890476Y-78883390D02*
X141938095Y-78931009D01*
X141938095Y-78931009D02*
X141985714Y-79026247D01*
X141985714Y-79026247D02*
X141985714Y-79264342D01*
X141985714Y-79264342D02*
X141938095Y-79359580D01*
X141938095Y-79359580D02*
X141890476Y-79407200D01*
X141890476Y-79407200D02*
X141795238Y-79454819D01*
X141795238Y-79454819D02*
X141509524Y-79454819D01*
X141509524Y-79454819D02*
X141414286Y-79407200D01*
X141414286Y-79407200D02*
X141366667Y-79359580D01*
X115314286Y-128054819D02*
X115314286Y-127054819D01*
X115314286Y-127054819D02*
X115647619Y-127769104D01*
X115647619Y-127769104D02*
X115980952Y-127054819D01*
X115980952Y-127054819D02*
X115980952Y-128054819D01*
X116980952Y-128054819D02*
X116409524Y-128054819D01*
X116695238Y-128054819D02*
X116695238Y-127054819D01*
X116695238Y-127054819D02*
X116600000Y-127197676D01*
X116600000Y-127197676D02*
X116504762Y-127292914D01*
X116504762Y-127292914D02*
X116409524Y-127340533D01*
X117933333Y-128054819D02*
X117361905Y-128054819D01*
X117647619Y-128054819D02*
X117647619Y-127054819D01*
X117647619Y-127054819D02*
X117552381Y-127197676D01*
X117552381Y-127197676D02*
X117457143Y-127292914D01*
X117457143Y-127292914D02*
X117361905Y-127340533D01*
X111839009Y-99584819D02*
X111839009Y-98584819D01*
X111839009Y-98584819D02*
X112172342Y-99299104D01*
X112172342Y-99299104D02*
X112505675Y-98584819D01*
X112505675Y-98584819D02*
X112505675Y-99584819D01*
X112934247Y-98680057D02*
X112981866Y-98632438D01*
X112981866Y-98632438D02*
X113077104Y-98584819D01*
X113077104Y-98584819D02*
X113315199Y-98584819D01*
X113315199Y-98584819D02*
X113410437Y-98632438D01*
X113410437Y-98632438D02*
X113458056Y-98680057D01*
X113458056Y-98680057D02*
X113505675Y-98775295D01*
X113505675Y-98775295D02*
X113505675Y-98870533D01*
X113505675Y-98870533D02*
X113458056Y-99013390D01*
X113458056Y-99013390D02*
X112886628Y-99584819D01*
X112886628Y-99584819D02*
X113505675Y-99584819D01*
X111314286Y-128054819D02*
X111314286Y-127054819D01*
X111314286Y-127054819D02*
X111647619Y-127769104D01*
X111647619Y-127769104D02*
X111980952Y-127054819D01*
X111980952Y-127054819D02*
X111980952Y-128054819D01*
X112980952Y-128054819D02*
X112409524Y-128054819D01*
X112695238Y-128054819D02*
X112695238Y-127054819D01*
X112695238Y-127054819D02*
X112600000Y-127197676D01*
X112600000Y-127197676D02*
X112504762Y-127292914D01*
X112504762Y-127292914D02*
X112409524Y-127340533D01*
X113361905Y-127150057D02*
X113409524Y-127102438D01*
X113409524Y-127102438D02*
X113504762Y-127054819D01*
X113504762Y-127054819D02*
X113742857Y-127054819D01*
X113742857Y-127054819D02*
X113838095Y-127102438D01*
X113838095Y-127102438D02*
X113885714Y-127150057D01*
X113885714Y-127150057D02*
X113933333Y-127245295D01*
X113933333Y-127245295D02*
X113933333Y-127340533D01*
X113933333Y-127340533D02*
X113885714Y-127483390D01*
X113885714Y-127483390D02*
X113314286Y-128054819D01*
X113314286Y-128054819D02*
X113933333Y-128054819D01*
X107666666Y-53704819D02*
X107666666Y-54419104D01*
X107666666Y-54419104D02*
X107619047Y-54561961D01*
X107619047Y-54561961D02*
X107523809Y-54657200D01*
X107523809Y-54657200D02*
X107380952Y-54704819D01*
X107380952Y-54704819D02*
X107285714Y-54704819D01*
X108047619Y-53704819D02*
X108666666Y-53704819D01*
X108666666Y-53704819D02*
X108333333Y-54085771D01*
X108333333Y-54085771D02*
X108476190Y-54085771D01*
X108476190Y-54085771D02*
X108571428Y-54133390D01*
X108571428Y-54133390D02*
X108619047Y-54181009D01*
X108619047Y-54181009D02*
X108666666Y-54276247D01*
X108666666Y-54276247D02*
X108666666Y-54514342D01*
X108666666Y-54514342D02*
X108619047Y-54609580D01*
X108619047Y-54609580D02*
X108571428Y-54657200D01*
X108571428Y-54657200D02*
X108476190Y-54704819D01*
X108476190Y-54704819D02*
X108190476Y-54704819D01*
X108190476Y-54704819D02*
X108095238Y-54657200D01*
X108095238Y-54657200D02*
X108047619Y-54609580D01*
X115438095Y-69254819D02*
X115438095Y-68254819D01*
X115438095Y-68731009D02*
X116009523Y-68731009D01*
X116009523Y-69254819D02*
X116009523Y-68254819D01*
X116438095Y-68350057D02*
X116485714Y-68302438D01*
X116485714Y-68302438D02*
X116580952Y-68254819D01*
X116580952Y-68254819D02*
X116819047Y-68254819D01*
X116819047Y-68254819D02*
X116914285Y-68302438D01*
X116914285Y-68302438D02*
X116961904Y-68350057D01*
X116961904Y-68350057D02*
X117009523Y-68445295D01*
X117009523Y-68445295D02*
X117009523Y-68540533D01*
X117009523Y-68540533D02*
X116961904Y-68683390D01*
X116961904Y-68683390D02*
X116390476Y-69254819D01*
X116390476Y-69254819D02*
X117009523Y-69254819D01*
X127283333Y-56309580D02*
X127235714Y-56357200D01*
X127235714Y-56357200D02*
X127092857Y-56404819D01*
X127092857Y-56404819D02*
X126997619Y-56404819D01*
X126997619Y-56404819D02*
X126854762Y-56357200D01*
X126854762Y-56357200D02*
X126759524Y-56261961D01*
X126759524Y-56261961D02*
X126711905Y-56166723D01*
X126711905Y-56166723D02*
X126664286Y-55976247D01*
X126664286Y-55976247D02*
X126664286Y-55833390D01*
X126664286Y-55833390D02*
X126711905Y-55642914D01*
X126711905Y-55642914D02*
X126759524Y-55547676D01*
X126759524Y-55547676D02*
X126854762Y-55452438D01*
X126854762Y-55452438D02*
X126997619Y-55404819D01*
X126997619Y-55404819D02*
X127092857Y-55404819D01*
X127092857Y-55404819D02*
X127235714Y-55452438D01*
X127235714Y-55452438D02*
X127283333Y-55500057D01*
X128235714Y-56404819D02*
X127664286Y-56404819D01*
X127950000Y-56404819D02*
X127950000Y-55404819D01*
X127950000Y-55404819D02*
X127854762Y-55547676D01*
X127854762Y-55547676D02*
X127759524Y-55642914D01*
X127759524Y-55642914D02*
X127664286Y-55690533D01*
X119690476Y-113914819D02*
X119690476Y-112914819D01*
X119690476Y-112914819D02*
X120023809Y-113629104D01*
X120023809Y-113629104D02*
X120357142Y-112914819D01*
X120357142Y-112914819D02*
X120357142Y-113914819D01*
X120738095Y-112914819D02*
X121357142Y-112914819D01*
X121357142Y-112914819D02*
X121023809Y-113295771D01*
X121023809Y-113295771D02*
X121166666Y-113295771D01*
X121166666Y-113295771D02*
X121261904Y-113343390D01*
X121261904Y-113343390D02*
X121309523Y-113391009D01*
X121309523Y-113391009D02*
X121357142Y-113486247D01*
X121357142Y-113486247D02*
X121357142Y-113724342D01*
X121357142Y-113724342D02*
X121309523Y-113819580D01*
X121309523Y-113819580D02*
X121261904Y-113867200D01*
X121261904Y-113867200D02*
X121166666Y-113914819D01*
X121166666Y-113914819D02*
X120880952Y-113914819D01*
X120880952Y-113914819D02*
X120785714Y-113867200D01*
X120785714Y-113867200D02*
X120738095Y-113819580D01*
X120390476Y-85254819D02*
X120390476Y-84254819D01*
X120390476Y-84254819D02*
X120723809Y-84969104D01*
X120723809Y-84969104D02*
X121057142Y-84254819D01*
X121057142Y-84254819D02*
X121057142Y-85254819D01*
X121961904Y-84254819D02*
X121771428Y-84254819D01*
X121771428Y-84254819D02*
X121676190Y-84302438D01*
X121676190Y-84302438D02*
X121628571Y-84350057D01*
X121628571Y-84350057D02*
X121533333Y-84492914D01*
X121533333Y-84492914D02*
X121485714Y-84683390D01*
X121485714Y-84683390D02*
X121485714Y-85064342D01*
X121485714Y-85064342D02*
X121533333Y-85159580D01*
X121533333Y-85159580D02*
X121580952Y-85207200D01*
X121580952Y-85207200D02*
X121676190Y-85254819D01*
X121676190Y-85254819D02*
X121866666Y-85254819D01*
X121866666Y-85254819D02*
X121961904Y-85207200D01*
X121961904Y-85207200D02*
X122009523Y-85159580D01*
X122009523Y-85159580D02*
X122057142Y-85064342D01*
X122057142Y-85064342D02*
X122057142Y-84826247D01*
X122057142Y-84826247D02*
X122009523Y-84731009D01*
X122009523Y-84731009D02*
X121961904Y-84683390D01*
X121961904Y-84683390D02*
X121866666Y-84635771D01*
X121866666Y-84635771D02*
X121676190Y-84635771D01*
X121676190Y-84635771D02*
X121580952Y-84683390D01*
X121580952Y-84683390D02*
X121533333Y-84731009D01*
X121533333Y-84731009D02*
X121485714Y-84826247D01*
X133085714Y-91969104D02*
X133561904Y-91969104D01*
X132990476Y-92254819D02*
X133323809Y-91254819D01*
X133323809Y-91254819D02*
X133657142Y-92254819D01*
X134514285Y-92254819D02*
X133942857Y-92254819D01*
X134228571Y-92254819D02*
X134228571Y-91254819D01*
X134228571Y-91254819D02*
X134133333Y-91397676D01*
X134133333Y-91397676D02*
X134038095Y-91492914D01*
X134038095Y-91492914D02*
X133942857Y-91540533D01*
X132358095Y-126854819D02*
X132358095Y-127664342D01*
X132358095Y-127664342D02*
X132405714Y-127759580D01*
X132405714Y-127759580D02*
X132453333Y-127807200D01*
X132453333Y-127807200D02*
X132548571Y-127854819D01*
X132548571Y-127854819D02*
X132739047Y-127854819D01*
X132739047Y-127854819D02*
X132834285Y-127807200D01*
X132834285Y-127807200D02*
X132881904Y-127759580D01*
X132881904Y-127759580D02*
X132929523Y-127664342D01*
X132929523Y-127664342D02*
X132929523Y-126854819D01*
X133358095Y-127807200D02*
X133500952Y-127854819D01*
X133500952Y-127854819D02*
X133739047Y-127854819D01*
X133739047Y-127854819D02*
X133834285Y-127807200D01*
X133834285Y-127807200D02*
X133881904Y-127759580D01*
X133881904Y-127759580D02*
X133929523Y-127664342D01*
X133929523Y-127664342D02*
X133929523Y-127569104D01*
X133929523Y-127569104D02*
X133881904Y-127473866D01*
X133881904Y-127473866D02*
X133834285Y-127426247D01*
X133834285Y-127426247D02*
X133739047Y-127378628D01*
X133739047Y-127378628D02*
X133548571Y-127331009D01*
X133548571Y-127331009D02*
X133453333Y-127283390D01*
X133453333Y-127283390D02*
X133405714Y-127235771D01*
X133405714Y-127235771D02*
X133358095Y-127140533D01*
X133358095Y-127140533D02*
X133358095Y-127045295D01*
X133358095Y-127045295D02*
X133405714Y-126950057D01*
X133405714Y-126950057D02*
X133453333Y-126902438D01*
X133453333Y-126902438D02*
X133548571Y-126854819D01*
X133548571Y-126854819D02*
X133786666Y-126854819D01*
X133786666Y-126854819D02*
X133929523Y-126902438D01*
X134691428Y-127331009D02*
X134834285Y-127378628D01*
X134834285Y-127378628D02*
X134881904Y-127426247D01*
X134881904Y-127426247D02*
X134929523Y-127521485D01*
X134929523Y-127521485D02*
X134929523Y-127664342D01*
X134929523Y-127664342D02*
X134881904Y-127759580D01*
X134881904Y-127759580D02*
X134834285Y-127807200D01*
X134834285Y-127807200D02*
X134739047Y-127854819D01*
X134739047Y-127854819D02*
X134358095Y-127854819D01*
X134358095Y-127854819D02*
X134358095Y-126854819D01*
X134358095Y-126854819D02*
X134691428Y-126854819D01*
X134691428Y-126854819D02*
X134786666Y-126902438D01*
X134786666Y-126902438D02*
X134834285Y-126950057D01*
X134834285Y-126950057D02*
X134881904Y-127045295D01*
X134881904Y-127045295D02*
X134881904Y-127140533D01*
X134881904Y-127140533D02*
X134834285Y-127235771D01*
X134834285Y-127235771D02*
X134786666Y-127283390D01*
X134786666Y-127283390D02*
X134691428Y-127331009D01*
X134691428Y-127331009D02*
X134358095Y-127331009D01*
X134033333Y-69954819D02*
X133700000Y-69478628D01*
X133461905Y-69954819D02*
X133461905Y-68954819D01*
X133461905Y-68954819D02*
X133842857Y-68954819D01*
X133842857Y-68954819D02*
X133938095Y-69002438D01*
X133938095Y-69002438D02*
X133985714Y-69050057D01*
X133985714Y-69050057D02*
X134033333Y-69145295D01*
X134033333Y-69145295D02*
X134033333Y-69288152D01*
X134033333Y-69288152D02*
X133985714Y-69383390D01*
X133985714Y-69383390D02*
X133938095Y-69431009D01*
X133938095Y-69431009D02*
X133842857Y-69478628D01*
X133842857Y-69478628D02*
X133461905Y-69478628D01*
X134985714Y-69954819D02*
X134414286Y-69954819D01*
X134700000Y-69954819D02*
X134700000Y-68954819D01*
X134700000Y-68954819D02*
X134604762Y-69097676D01*
X134604762Y-69097676D02*
X134509524Y-69192914D01*
X134509524Y-69192914D02*
X134414286Y-69240533D01*
X119314286Y-128054819D02*
X119314286Y-127054819D01*
X119314286Y-127054819D02*
X119647619Y-127769104D01*
X119647619Y-127769104D02*
X119980952Y-127054819D01*
X119980952Y-127054819D02*
X119980952Y-128054819D01*
X120980952Y-128054819D02*
X120409524Y-128054819D01*
X120695238Y-128054819D02*
X120695238Y-127054819D01*
X120695238Y-127054819D02*
X120600000Y-127197676D01*
X120600000Y-127197676D02*
X120504762Y-127292914D01*
X120504762Y-127292914D02*
X120409524Y-127340533D01*
X121600000Y-127054819D02*
X121695238Y-127054819D01*
X121695238Y-127054819D02*
X121790476Y-127102438D01*
X121790476Y-127102438D02*
X121838095Y-127150057D01*
X121838095Y-127150057D02*
X121885714Y-127245295D01*
X121885714Y-127245295D02*
X121933333Y-127435771D01*
X121933333Y-127435771D02*
X121933333Y-127673866D01*
X121933333Y-127673866D02*
X121885714Y-127864342D01*
X121885714Y-127864342D02*
X121838095Y-127959580D01*
X121838095Y-127959580D02*
X121790476Y-128007200D01*
X121790476Y-128007200D02*
X121695238Y-128054819D01*
X121695238Y-128054819D02*
X121600000Y-128054819D01*
X121600000Y-128054819D02*
X121504762Y-128007200D01*
X121504762Y-128007200D02*
X121457143Y-127959580D01*
X121457143Y-127959580D02*
X121409524Y-127864342D01*
X121409524Y-127864342D02*
X121361905Y-127673866D01*
X121361905Y-127673866D02*
X121361905Y-127435771D01*
X121361905Y-127435771D02*
X121409524Y-127245295D01*
X121409524Y-127245295D02*
X121457143Y-127150057D01*
X121457143Y-127150057D02*
X121504762Y-127102438D01*
X121504762Y-127102438D02*
X121600000Y-127054819D01*
X111213095Y-69229819D02*
X111213095Y-68229819D01*
X111213095Y-68706009D02*
X111784523Y-68706009D01*
X111784523Y-69229819D02*
X111784523Y-68229819D01*
X112784523Y-69229819D02*
X112213095Y-69229819D01*
X112498809Y-69229819D02*
X112498809Y-68229819D01*
X112498809Y-68229819D02*
X112403571Y-68372676D01*
X112403571Y-68372676D02*
X112308333Y-68467914D01*
X112308333Y-68467914D02*
X112213095Y-68515533D01*
X129790476Y-85254819D02*
X129790476Y-84254819D01*
X129790476Y-84254819D02*
X130123809Y-84969104D01*
X130123809Y-84969104D02*
X130457142Y-84254819D01*
X130457142Y-84254819D02*
X130457142Y-85254819D01*
X131076190Y-84683390D02*
X130980952Y-84635771D01*
X130980952Y-84635771D02*
X130933333Y-84588152D01*
X130933333Y-84588152D02*
X130885714Y-84492914D01*
X130885714Y-84492914D02*
X130885714Y-84445295D01*
X130885714Y-84445295D02*
X130933333Y-84350057D01*
X130933333Y-84350057D02*
X130980952Y-84302438D01*
X130980952Y-84302438D02*
X131076190Y-84254819D01*
X131076190Y-84254819D02*
X131266666Y-84254819D01*
X131266666Y-84254819D02*
X131361904Y-84302438D01*
X131361904Y-84302438D02*
X131409523Y-84350057D01*
X131409523Y-84350057D02*
X131457142Y-84445295D01*
X131457142Y-84445295D02*
X131457142Y-84492914D01*
X131457142Y-84492914D02*
X131409523Y-84588152D01*
X131409523Y-84588152D02*
X131361904Y-84635771D01*
X131361904Y-84635771D02*
X131266666Y-84683390D01*
X131266666Y-84683390D02*
X131076190Y-84683390D01*
X131076190Y-84683390D02*
X130980952Y-84731009D01*
X130980952Y-84731009D02*
X130933333Y-84778628D01*
X130933333Y-84778628D02*
X130885714Y-84873866D01*
X130885714Y-84873866D02*
X130885714Y-85064342D01*
X130885714Y-85064342D02*
X130933333Y-85159580D01*
X130933333Y-85159580D02*
X130980952Y-85207200D01*
X130980952Y-85207200D02*
X131076190Y-85254819D01*
X131076190Y-85254819D02*
X131266666Y-85254819D01*
X131266666Y-85254819D02*
X131361904Y-85207200D01*
X131361904Y-85207200D02*
X131409523Y-85159580D01*
X131409523Y-85159580D02*
X131457142Y-85064342D01*
X131457142Y-85064342D02*
X131457142Y-84873866D01*
X131457142Y-84873866D02*
X131409523Y-84778628D01*
X131409523Y-84778628D02*
X131361904Y-84731009D01*
X131361904Y-84731009D02*
X131266666Y-84683390D01*
X134190476Y-85254819D02*
X134190476Y-84254819D01*
X134190476Y-84254819D02*
X134523809Y-84969104D01*
X134523809Y-84969104D02*
X134857142Y-84254819D01*
X134857142Y-84254819D02*
X134857142Y-85254819D01*
X135380952Y-85254819D02*
X135571428Y-85254819D01*
X135571428Y-85254819D02*
X135666666Y-85207200D01*
X135666666Y-85207200D02*
X135714285Y-85159580D01*
X135714285Y-85159580D02*
X135809523Y-85016723D01*
X135809523Y-85016723D02*
X135857142Y-84826247D01*
X135857142Y-84826247D02*
X135857142Y-84445295D01*
X135857142Y-84445295D02*
X135809523Y-84350057D01*
X135809523Y-84350057D02*
X135761904Y-84302438D01*
X135761904Y-84302438D02*
X135666666Y-84254819D01*
X135666666Y-84254819D02*
X135476190Y-84254819D01*
X135476190Y-84254819D02*
X135380952Y-84302438D01*
X135380952Y-84302438D02*
X135333333Y-84350057D01*
X135333333Y-84350057D02*
X135285714Y-84445295D01*
X135285714Y-84445295D02*
X135285714Y-84683390D01*
X135285714Y-84683390D02*
X135333333Y-84778628D01*
X135333333Y-84778628D02*
X135380952Y-84826247D01*
X135380952Y-84826247D02*
X135476190Y-84873866D01*
X135476190Y-84873866D02*
X135666666Y-84873866D01*
X135666666Y-84873866D02*
X135761904Y-84826247D01*
X135761904Y-84826247D02*
X135809523Y-84778628D01*
X135809523Y-84778628D02*
X135857142Y-84683390D01*
X115764743Y-113914819D02*
X115764743Y-112914819D01*
X115764743Y-112914819D02*
X116098076Y-113629104D01*
X116098076Y-113629104D02*
X116431409Y-112914819D01*
X116431409Y-112914819D02*
X116431409Y-113914819D01*
X117336171Y-113248152D02*
X117336171Y-113914819D01*
X117098076Y-112867200D02*
X116859981Y-113581485D01*
X116859981Y-113581485D02*
X117479028Y-113581485D01*
X121357142Y-98004819D02*
X121023809Y-97528628D01*
X120785714Y-98004819D02*
X120785714Y-97004819D01*
X120785714Y-97004819D02*
X121166666Y-97004819D01*
X121166666Y-97004819D02*
X121261904Y-97052438D01*
X121261904Y-97052438D02*
X121309523Y-97100057D01*
X121309523Y-97100057D02*
X121357142Y-97195295D01*
X121357142Y-97195295D02*
X121357142Y-97338152D01*
X121357142Y-97338152D02*
X121309523Y-97433390D01*
X121309523Y-97433390D02*
X121261904Y-97481009D01*
X121261904Y-97481009D02*
X121166666Y-97528628D01*
X121166666Y-97528628D02*
X120785714Y-97528628D01*
X121690476Y-97004819D02*
X122357142Y-98004819D01*
X122357142Y-97004819D02*
X121690476Y-98004819D01*
X123261904Y-98004819D02*
X122690476Y-98004819D01*
X122976190Y-98004819D02*
X122976190Y-97004819D01*
X122976190Y-97004819D02*
X122880952Y-97147676D01*
X122880952Y-97147676D02*
X122785714Y-97242914D01*
X122785714Y-97242914D02*
X122690476Y-97290533D01*
X116333333Y-56359580D02*
X116285714Y-56407200D01*
X116285714Y-56407200D02*
X116142857Y-56454819D01*
X116142857Y-56454819D02*
X116047619Y-56454819D01*
X116047619Y-56454819D02*
X115904762Y-56407200D01*
X115904762Y-56407200D02*
X115809524Y-56311961D01*
X115809524Y-56311961D02*
X115761905Y-56216723D01*
X115761905Y-56216723D02*
X115714286Y-56026247D01*
X115714286Y-56026247D02*
X115714286Y-55883390D01*
X115714286Y-55883390D02*
X115761905Y-55692914D01*
X115761905Y-55692914D02*
X115809524Y-55597676D01*
X115809524Y-55597676D02*
X115904762Y-55502438D01*
X115904762Y-55502438D02*
X116047619Y-55454819D01*
X116047619Y-55454819D02*
X116142857Y-55454819D01*
X116142857Y-55454819D02*
X116285714Y-55502438D01*
X116285714Y-55502438D02*
X116333333Y-55550057D01*
X116714286Y-55550057D02*
X116761905Y-55502438D01*
X116761905Y-55502438D02*
X116857143Y-55454819D01*
X116857143Y-55454819D02*
X117095238Y-55454819D01*
X117095238Y-55454819D02*
X117190476Y-55502438D01*
X117190476Y-55502438D02*
X117238095Y-55550057D01*
X117238095Y-55550057D02*
X117285714Y-55645295D01*
X117285714Y-55645295D02*
X117285714Y-55740533D01*
X117285714Y-55740533D02*
X117238095Y-55883390D01*
X117238095Y-55883390D02*
X116666667Y-56454819D01*
X116666667Y-56454819D02*
X117285714Y-56454819D01*
X120261905Y-69454819D02*
X120261905Y-68454819D01*
X120261905Y-68454819D02*
X120500000Y-68454819D01*
X120500000Y-68454819D02*
X120642857Y-68502438D01*
X120642857Y-68502438D02*
X120738095Y-68597676D01*
X120738095Y-68597676D02*
X120785714Y-68692914D01*
X120785714Y-68692914D02*
X120833333Y-68883390D01*
X120833333Y-68883390D02*
X120833333Y-69026247D01*
X120833333Y-69026247D02*
X120785714Y-69216723D01*
X120785714Y-69216723D02*
X120738095Y-69311961D01*
X120738095Y-69311961D02*
X120642857Y-69407200D01*
X120642857Y-69407200D02*
X120500000Y-69454819D01*
X120500000Y-69454819D02*
X120261905Y-69454819D01*
X121785714Y-69454819D02*
X121214286Y-69454819D01*
X121500000Y-69454819D02*
X121500000Y-68454819D01*
X121500000Y-68454819D02*
X121404762Y-68597676D01*
X121404762Y-68597676D02*
X121309524Y-68692914D01*
X121309524Y-68692914D02*
X121214286Y-68740533D01*
X111839009Y-113914819D02*
X111839009Y-112914819D01*
X111839009Y-112914819D02*
X112172342Y-113629104D01*
X112172342Y-113629104D02*
X112505675Y-112914819D01*
X112505675Y-112914819D02*
X112505675Y-113914819D01*
X113458056Y-112914819D02*
X112981866Y-112914819D01*
X112981866Y-112914819D02*
X112934247Y-113391009D01*
X112934247Y-113391009D02*
X112981866Y-113343390D01*
X112981866Y-113343390D02*
X113077104Y-113295771D01*
X113077104Y-113295771D02*
X113315199Y-113295771D01*
X113315199Y-113295771D02*
X113410437Y-113343390D01*
X113410437Y-113343390D02*
X113458056Y-113391009D01*
X113458056Y-113391009D02*
X113505675Y-113486247D01*
X113505675Y-113486247D02*
X113505675Y-113724342D01*
X113505675Y-113724342D02*
X113458056Y-113819580D01*
X113458056Y-113819580D02*
X113410437Y-113867200D01*
X113410437Y-113867200D02*
X113315199Y-113914819D01*
X113315199Y-113914819D02*
X113077104Y-113914819D01*
X113077104Y-113914819D02*
X112981866Y-113867200D01*
X112981866Y-113867200D02*
X112934247Y-113819580D01*
D11*
X115194267Y-95480000D02*
X115194267Y-90290000D01*
X117954267Y-90290000D02*
X115194267Y-90290000D01*
X117954267Y-95480000D02*
X115194267Y-95480000D01*
X117954267Y-95480000D02*
X117954267Y-90290000D01*
X117954267Y-96750000D02*
X117954267Y-98130000D01*
X117954267Y-98130000D02*
X116574267Y-98130000D01*
X124370000Y-80980000D02*
X124370000Y-75790000D01*
X127130000Y-75790000D02*
X124370000Y-75790000D01*
X127130000Y-80980000D02*
X124370000Y-80980000D01*
X127130000Y-80980000D02*
X127130000Y-75790000D01*
X127130000Y-82250000D02*
X127130000Y-83630000D01*
X127130000Y-83630000D02*
X125750000Y-83630000D01*
X138020000Y-83210000D02*
X144480000Y-83210000D01*
X138020000Y-83250000D02*
X144480000Y-83250000D01*
X138021000Y-83170000D02*
X144479000Y-83170000D01*
X138022000Y-83130000D02*
X144478000Y-83130000D01*
X138024000Y-83090000D02*
X144476000Y-83090000D01*
X138026000Y-83050000D02*
X144474000Y-83050000D01*
X138029000Y-83010000D02*
X140210000Y-83010000D01*
X138032000Y-82970000D02*
X140210000Y-82970000D01*
X138036000Y-82930000D02*
X140210000Y-82930000D01*
X138040000Y-82890000D02*
X140210000Y-82890000D01*
X138045000Y-82850000D02*
X140210000Y-82850000D01*
X138050000Y-82810000D02*
X140210000Y-82810000D01*
X138055000Y-82770000D02*
X140210000Y-82770000D01*
X138062000Y-82730000D02*
X140210000Y-82730000D01*
X138068000Y-82690000D02*
X140210000Y-82690000D01*
X138076000Y-82650000D02*
X140210000Y-82650000D01*
X138083000Y-82610000D02*
X140210000Y-82610000D01*
X138091000Y-82570000D02*
X140210000Y-82570000D01*
X138100000Y-82530000D02*
X140210000Y-82530000D01*
X138110000Y-82490000D02*
X140210000Y-82490000D01*
X138119000Y-82450000D02*
X140210000Y-82450000D01*
X138130000Y-82410000D02*
X140210000Y-82410000D01*
X138141000Y-82370000D02*
X140210000Y-82370000D01*
X138152000Y-82330000D02*
X140210000Y-82330000D01*
X138164000Y-82290000D02*
X140210000Y-82290000D01*
X138177000Y-82250000D02*
X140210000Y-82250000D01*
X138190000Y-82210000D02*
X140210000Y-82210000D01*
X138203000Y-82170000D02*
X140210000Y-82170000D01*
X138218000Y-82130000D02*
X140210000Y-82130000D01*
X138233000Y-82090000D02*
X140210000Y-82090000D01*
X138248000Y-82050000D02*
X140210000Y-82050000D01*
X138264000Y-82010000D02*
X140210000Y-82010000D01*
X138281000Y-81970000D02*
X140210000Y-81970000D01*
X138298000Y-81930000D02*
X140210000Y-81930000D01*
X138316000Y-81890000D02*
X140210000Y-81890000D01*
X138335000Y-81850000D02*
X140210000Y-81850000D01*
X138354000Y-81810000D02*
X140210000Y-81810000D01*
X138374000Y-81770000D02*
X140210000Y-81770000D01*
X138395000Y-81730000D02*
X140210000Y-81730000D01*
X138416000Y-81690000D02*
X140210000Y-81690000D01*
X138438000Y-81650000D02*
X140210000Y-81650000D01*
X138461000Y-81610000D02*
X140210000Y-81610000D01*
X138485000Y-81570000D02*
X140210000Y-81570000D01*
X138509000Y-81530000D02*
X140210000Y-81530000D01*
X138534000Y-81490000D02*
X140210000Y-81490000D01*
X138560000Y-81450000D02*
X140210000Y-81450000D01*
X138587000Y-81410000D02*
X140210000Y-81410000D01*
X138614000Y-81370000D02*
X140210000Y-81370000D01*
X138643000Y-81330000D02*
X140210000Y-81330000D01*
X138673000Y-81290000D02*
X140210000Y-81290000D01*
X138703000Y-81250000D02*
X140210000Y-81250000D01*
X138734000Y-81210000D02*
X140210000Y-81210000D01*
X138767000Y-81170000D02*
X140210000Y-81170000D01*
X138800000Y-81130000D02*
X140210000Y-81130000D01*
X138835000Y-81090000D02*
X140210000Y-81090000D01*
X138871000Y-81050000D02*
X140210000Y-81050000D01*
X138908000Y-81010000D02*
X140210000Y-81010000D01*
X138946000Y-80970000D02*
X140210000Y-80970000D01*
X138986000Y-80930000D02*
X143514000Y-80930000D01*
X139027000Y-80890000D02*
X143473000Y-80890000D01*
X139069000Y-80850000D02*
X143431000Y-80850000D01*
X139096000Y-86435241D02*
X139726000Y-86435241D01*
X139113000Y-80810000D02*
X143387000Y-80810000D01*
X139159000Y-80770000D02*
X143341000Y-80770000D01*
X139206000Y-80730000D02*
X143294000Y-80730000D01*
X139255000Y-80690000D02*
X143245000Y-80690000D01*
X139307000Y-80650000D02*
X143193000Y-80650000D01*
X139360000Y-80610000D02*
X143140000Y-80610000D01*
X139411000Y-86750241D02*
X139411000Y-86120241D01*
X139416000Y-80570000D02*
X143084000Y-80570000D01*
X139475000Y-80530000D02*
X143025000Y-80530000D01*
X139536000Y-80490000D02*
X142964000Y-80490000D01*
X139601000Y-80450000D02*
X142899000Y-80450000D01*
X139669000Y-80410000D02*
X142831000Y-80410000D01*
X139741000Y-80370000D02*
X142759000Y-80370000D01*
X139818000Y-80330000D02*
X142682000Y-80330000D01*
X139900000Y-80290000D02*
X142600000Y-80290000D01*
X139989000Y-80250000D02*
X142511000Y-80250000D01*
X140085000Y-80210000D02*
X142415000Y-80210000D01*
X140192000Y-80170000D02*
X142308000Y-80170000D01*
X140311000Y-80130000D02*
X142189000Y-80130000D01*
X140449000Y-80090000D02*
X142051000Y-80090000D01*
X140617000Y-80050000D02*
X141883000Y-80050000D01*
X140848000Y-80010000D02*
X141652000Y-80010000D01*
X142290000Y-80970000D02*
X143554000Y-80970000D01*
X142290000Y-81010000D02*
X143592000Y-81010000D01*
X142290000Y-81050000D02*
X143629000Y-81050000D01*
X142290000Y-81090000D02*
X143665000Y-81090000D01*
X142290000Y-81130000D02*
X143700000Y-81130000D01*
X142290000Y-81170000D02*
X143733000Y-81170000D01*
X142290000Y-81210000D02*
X143766000Y-81210000D01*
X142290000Y-81250000D02*
X143797000Y-81250000D01*
X142290000Y-81290000D02*
X143827000Y-81290000D01*
X142290000Y-81330000D02*
X143857000Y-81330000D01*
X142290000Y-81370000D02*
X143886000Y-81370000D01*
X142290000Y-81410000D02*
X143913000Y-81410000D01*
X142290000Y-81450000D02*
X143940000Y-81450000D01*
X142290000Y-81490000D02*
X143966000Y-81490000D01*
X142290000Y-81530000D02*
X143991000Y-81530000D01*
X142290000Y-81570000D02*
X144015000Y-81570000D01*
X142290000Y-81610000D02*
X144039000Y-81610000D01*
X142290000Y-81650000D02*
X144062000Y-81650000D01*
X142290000Y-81690000D02*
X144084000Y-81690000D01*
X142290000Y-81730000D02*
X144105000Y-81730000D01*
X142290000Y-81770000D02*
X144126000Y-81770000D01*
X142290000Y-81810000D02*
X144146000Y-81810000D01*
X142290000Y-81850000D02*
X144165000Y-81850000D01*
X142290000Y-81890000D02*
X144184000Y-81890000D01*
X142290000Y-81930000D02*
X144202000Y-81930000D01*
X142290000Y-81970000D02*
X144219000Y-81970000D01*
X142290000Y-82010000D02*
X144236000Y-82010000D01*
X142290000Y-82050000D02*
X144252000Y-82050000D01*
X142290000Y-82090000D02*
X144267000Y-82090000D01*
X142290000Y-82130000D02*
X144282000Y-82130000D01*
X142290000Y-82170000D02*
X144297000Y-82170000D01*
X142290000Y-82210000D02*
X144310000Y-82210000D01*
X142290000Y-82250000D02*
X144323000Y-82250000D01*
X142290000Y-82290000D02*
X144336000Y-82290000D01*
X142290000Y-82330000D02*
X144348000Y-82330000D01*
X142290000Y-82370000D02*
X144359000Y-82370000D01*
X142290000Y-82410000D02*
X144370000Y-82410000D01*
X142290000Y-82450000D02*
X144381000Y-82450000D01*
X142290000Y-82490000D02*
X144390000Y-82490000D01*
X142290000Y-82530000D02*
X144400000Y-82530000D01*
X142290000Y-82570000D02*
X144409000Y-82570000D01*
X142290000Y-82610000D02*
X144417000Y-82610000D01*
X142290000Y-82650000D02*
X144424000Y-82650000D01*
X142290000Y-82690000D02*
X144432000Y-82690000D01*
X142290000Y-82730000D02*
X144438000Y-82730000D01*
X142290000Y-82770000D02*
X144445000Y-82770000D01*
X142290000Y-82810000D02*
X144450000Y-82810000D01*
X142290000Y-82850000D02*
X144455000Y-82850000D01*
X142290000Y-82890000D02*
X144460000Y-82890000D01*
X142290000Y-82930000D02*
X144464000Y-82930000D01*
X142290000Y-82970000D02*
X144468000Y-82970000D01*
X142290000Y-83010000D02*
X144471000Y-83010000D01*
X144520000Y-83250000D02*
G75*
G02*
X137980000Y-83250000I-3270000J0D01*
G01*
X137980000Y-83250000D02*
G75*
G02*
X144520000Y-83250000I3270000J0D01*
G01*
X115194267Y-123810000D02*
X115194267Y-118620000D01*
X117954267Y-118620000D02*
X115194267Y-118620000D01*
X117954267Y-123810000D02*
X115194267Y-123810000D01*
X117954267Y-123810000D02*
X117954267Y-118620000D01*
X117954267Y-125080000D02*
X117954267Y-126460000D01*
X117954267Y-126460000D02*
X116574267Y-126460000D01*
X111268533Y-95480000D02*
X111268533Y-90290000D01*
X114028533Y-90290000D02*
X111268533Y-90290000D01*
X114028533Y-95480000D02*
X111268533Y-95480000D01*
X114028533Y-95480000D02*
X114028533Y-90290000D01*
X114028533Y-96750000D02*
X114028533Y-98130000D01*
X114028533Y-98130000D02*
X112648533Y-98130000D01*
X111268533Y-123810000D02*
X111268533Y-118620000D01*
X114028533Y-118620000D02*
X111268533Y-118620000D01*
X114028533Y-123810000D02*
X111268533Y-123810000D01*
X114028533Y-123810000D02*
X114028533Y-118620000D01*
X114028533Y-125080000D02*
X114028533Y-126460000D01*
X114028533Y-126460000D02*
X112648533Y-126460000D01*
D12*
X104500000Y-55500000D02*
X112100000Y-55500000D01*
X104500000Y-65500000D02*
X104500000Y-55500000D01*
X104700000Y-56690000D02*
X106220000Y-56690000D01*
X104700000Y-61690000D02*
X106220000Y-61690000D01*
X106220000Y-56690000D02*
X106220000Y-59360000D01*
X106220000Y-59360000D02*
X104700000Y-59360000D01*
X106220000Y-61690000D02*
X106220000Y-64360000D01*
X106220000Y-64360000D02*
X104700000Y-64360000D01*
X112100000Y-55500000D02*
X112100000Y-65500000D01*
X112100000Y-65500000D02*
X104500000Y-65500000D01*
D13*
X104530000Y-55500000D02*
G75*
G02*
X104470000Y-55500000I-30000J0D01*
G01*
X104470000Y-55500000D02*
G75*
G02*
X104530000Y-55500000I30000J0D01*
G01*
D14*
G36*
X105968000Y-57960000D02*
G01*
X105333000Y-58595000D01*
X105333000Y-58214000D01*
X104444000Y-58214000D01*
X104444000Y-57706000D01*
X105333000Y-57706000D01*
X105333000Y-57325000D01*
X105968000Y-57960000D01*
G37*
G36*
X105968000Y-62959990D02*
G01*
X105333000Y-63594990D01*
X105333000Y-63213990D01*
X104444000Y-63213990D01*
X104444000Y-62705990D01*
X105333000Y-62705990D01*
X105333000Y-62324990D01*
X105968000Y-62959990D01*
G37*
D11*
X128120000Y-58910000D02*
X134580000Y-58910000D01*
X128120000Y-58950000D02*
X134580000Y-58950000D01*
X128121000Y-58870000D02*
X134579000Y-58870000D01*
X128122000Y-58830000D02*
X134578000Y-58830000D01*
X128124000Y-58790000D02*
X134576000Y-58790000D01*
X128126000Y-58750000D02*
X134574000Y-58750000D01*
X128129000Y-58710000D02*
X130310000Y-58710000D01*
X128132000Y-58670000D02*
X130310000Y-58670000D01*
X128136000Y-58630000D02*
X130310000Y-58630000D01*
X128140000Y-58590000D02*
X130310000Y-58590000D01*
X128145000Y-58550000D02*
X130310000Y-58550000D01*
X128150000Y-58510000D02*
X130310000Y-58510000D01*
X128155000Y-58470000D02*
X130310000Y-58470000D01*
X128162000Y-58430000D02*
X130310000Y-58430000D01*
X128168000Y-58390000D02*
X130310000Y-58390000D01*
X128176000Y-58350000D02*
X130310000Y-58350000D01*
X128183000Y-58310000D02*
X130310000Y-58310000D01*
X128191000Y-58270000D02*
X130310000Y-58270000D01*
X128200000Y-58230000D02*
X130310000Y-58230000D01*
X128210000Y-58190000D02*
X130310000Y-58190000D01*
X128219000Y-58150000D02*
X130310000Y-58150000D01*
X128230000Y-58110000D02*
X130310000Y-58110000D01*
X128241000Y-58070000D02*
X130310000Y-58070000D01*
X128252000Y-58030000D02*
X130310000Y-58030000D01*
X128264000Y-57990000D02*
X130310000Y-57990000D01*
X128277000Y-57950000D02*
X130310000Y-57950000D01*
X128290000Y-57910000D02*
X130310000Y-57910000D01*
X128303000Y-57870000D02*
X130310000Y-57870000D01*
X128318000Y-57830000D02*
X130310000Y-57830000D01*
X128333000Y-57790000D02*
X130310000Y-57790000D01*
X128348000Y-57750000D02*
X130310000Y-57750000D01*
X128364000Y-57710000D02*
X130310000Y-57710000D01*
X128381000Y-57670000D02*
X130310000Y-57670000D01*
X128398000Y-57630000D02*
X130310000Y-57630000D01*
X128416000Y-57590000D02*
X130310000Y-57590000D01*
X128435000Y-57550000D02*
X130310000Y-57550000D01*
X128454000Y-57510000D02*
X130310000Y-57510000D01*
X128474000Y-57470000D02*
X130310000Y-57470000D01*
X128495000Y-57430000D02*
X130310000Y-57430000D01*
X128516000Y-57390000D02*
X130310000Y-57390000D01*
X128538000Y-57350000D02*
X130310000Y-57350000D01*
X128561000Y-57310000D02*
X130310000Y-57310000D01*
X128585000Y-57270000D02*
X130310000Y-57270000D01*
X128609000Y-57230000D02*
X130310000Y-57230000D01*
X128634000Y-57190000D02*
X130310000Y-57190000D01*
X128660000Y-57150000D02*
X130310000Y-57150000D01*
X128687000Y-57110000D02*
X130310000Y-57110000D01*
X128714000Y-57070000D02*
X130310000Y-57070000D01*
X128743000Y-57030000D02*
X130310000Y-57030000D01*
X128773000Y-56990000D02*
X130310000Y-56990000D01*
X128803000Y-56950000D02*
X130310000Y-56950000D01*
X128834000Y-56910000D02*
X130310000Y-56910000D01*
X128867000Y-56870000D02*
X130310000Y-56870000D01*
X128900000Y-56830000D02*
X130310000Y-56830000D01*
X128935000Y-56790000D02*
X130310000Y-56790000D01*
X128971000Y-56750000D02*
X130310000Y-56750000D01*
X129008000Y-56710000D02*
X130310000Y-56710000D01*
X129046000Y-56670000D02*
X130310000Y-56670000D01*
X129086000Y-56630000D02*
X133614000Y-56630000D01*
X129127000Y-56590000D02*
X133573000Y-56590000D01*
X129169000Y-56550000D02*
X133531000Y-56550000D01*
X129196000Y-62135241D02*
X129826000Y-62135241D01*
X129213000Y-56510000D02*
X133487000Y-56510000D01*
X129259000Y-56470000D02*
X133441000Y-56470000D01*
X129306000Y-56430000D02*
X133394000Y-56430000D01*
X129355000Y-56390000D02*
X133345000Y-56390000D01*
X129407000Y-56350000D02*
X133293000Y-56350000D01*
X129460000Y-56310000D02*
X133240000Y-56310000D01*
X129511000Y-62450241D02*
X129511000Y-61820241D01*
X129516000Y-56270000D02*
X133184000Y-56270000D01*
X129575000Y-56230000D02*
X133125000Y-56230000D01*
X129636000Y-56190000D02*
X133064000Y-56190000D01*
X129701000Y-56150000D02*
X132999000Y-56150000D01*
X129769000Y-56110000D02*
X132931000Y-56110000D01*
X129841000Y-56070000D02*
X132859000Y-56070000D01*
X129918000Y-56030000D02*
X132782000Y-56030000D01*
X130000000Y-55990000D02*
X132700000Y-55990000D01*
X130089000Y-55950000D02*
X132611000Y-55950000D01*
X130185000Y-55910000D02*
X132515000Y-55910000D01*
X130292000Y-55870000D02*
X132408000Y-55870000D01*
X130411000Y-55830000D02*
X132289000Y-55830000D01*
X130549000Y-55790000D02*
X132151000Y-55790000D01*
X130717000Y-55750000D02*
X131983000Y-55750000D01*
X130948000Y-55710000D02*
X131752000Y-55710000D01*
X132390000Y-56670000D02*
X133654000Y-56670000D01*
X132390000Y-56710000D02*
X133692000Y-56710000D01*
X132390000Y-56750000D02*
X133729000Y-56750000D01*
X132390000Y-56790000D02*
X133765000Y-56790000D01*
X132390000Y-56830000D02*
X133800000Y-56830000D01*
X132390000Y-56870000D02*
X133833000Y-56870000D01*
X132390000Y-56910000D02*
X133866000Y-56910000D01*
X132390000Y-56950000D02*
X133897000Y-56950000D01*
X132390000Y-56990000D02*
X133927000Y-56990000D01*
X132390000Y-57030000D02*
X133957000Y-57030000D01*
X132390000Y-57070000D02*
X133986000Y-57070000D01*
X132390000Y-57110000D02*
X134013000Y-57110000D01*
X132390000Y-57150000D02*
X134040000Y-57150000D01*
X132390000Y-57190000D02*
X134066000Y-57190000D01*
X132390000Y-57230000D02*
X134091000Y-57230000D01*
X132390000Y-57270000D02*
X134115000Y-57270000D01*
X132390000Y-57310000D02*
X134139000Y-57310000D01*
X132390000Y-57350000D02*
X134162000Y-57350000D01*
X132390000Y-57390000D02*
X134184000Y-57390000D01*
X132390000Y-57430000D02*
X134205000Y-57430000D01*
X132390000Y-57470000D02*
X134226000Y-57470000D01*
X132390000Y-57510000D02*
X134246000Y-57510000D01*
X132390000Y-57550000D02*
X134265000Y-57550000D01*
X132390000Y-57590000D02*
X134284000Y-57590000D01*
X132390000Y-57630000D02*
X134302000Y-57630000D01*
X132390000Y-57670000D02*
X134319000Y-57670000D01*
X132390000Y-57710000D02*
X134336000Y-57710000D01*
X132390000Y-57750000D02*
X134352000Y-57750000D01*
X132390000Y-57790000D02*
X134367000Y-57790000D01*
X132390000Y-57830000D02*
X134382000Y-57830000D01*
X132390000Y-57870000D02*
X134397000Y-57870000D01*
X132390000Y-57910000D02*
X134410000Y-57910000D01*
X132390000Y-57950000D02*
X134423000Y-57950000D01*
X132390000Y-57990000D02*
X134436000Y-57990000D01*
X132390000Y-58030000D02*
X134448000Y-58030000D01*
X132390000Y-58070000D02*
X134459000Y-58070000D01*
X132390000Y-58110000D02*
X134470000Y-58110000D01*
X132390000Y-58150000D02*
X134481000Y-58150000D01*
X132390000Y-58190000D02*
X134490000Y-58190000D01*
X132390000Y-58230000D02*
X134500000Y-58230000D01*
X132390000Y-58270000D02*
X134509000Y-58270000D01*
X132390000Y-58310000D02*
X134517000Y-58310000D01*
X132390000Y-58350000D02*
X134524000Y-58350000D01*
X132390000Y-58390000D02*
X134532000Y-58390000D01*
X132390000Y-58430000D02*
X134538000Y-58430000D01*
X132390000Y-58470000D02*
X134545000Y-58470000D01*
X132390000Y-58510000D02*
X134550000Y-58510000D01*
X132390000Y-58550000D02*
X134555000Y-58550000D01*
X132390000Y-58590000D02*
X134560000Y-58590000D01*
X132390000Y-58630000D02*
X134564000Y-58630000D01*
X132390000Y-58670000D02*
X134568000Y-58670000D01*
X132390000Y-58710000D02*
X134571000Y-58710000D01*
X134620000Y-58950000D02*
G75*
G02*
X128080000Y-58950000I-3270000J0D01*
G01*
X128080000Y-58950000D02*
G75*
G02*
X134620000Y-58950000I3270000J0D01*
G01*
X119120000Y-109810000D02*
X119120000Y-104620000D01*
X121880000Y-104620000D02*
X119120000Y-104620000D01*
X121880000Y-109810000D02*
X119120000Y-109810000D01*
X121880000Y-109810000D02*
X121880000Y-104620000D01*
X121880000Y-111080000D02*
X121880000Y-112460000D01*
X121880000Y-112460000D02*
X120500000Y-112460000D01*
X119870000Y-80980000D02*
X119870000Y-75790000D01*
X122630000Y-75790000D02*
X119870000Y-75790000D01*
X122630000Y-80980000D02*
X119870000Y-80980000D01*
X122630000Y-80980000D02*
X122630000Y-75790000D01*
X122630000Y-82250000D02*
X122630000Y-83630000D01*
X122630000Y-83630000D02*
X121250000Y-83630000D01*
X124600000Y-87900000D02*
X124600000Y-90570000D01*
X124600000Y-93110000D02*
X124600000Y-131340000D01*
X124600000Y-131340000D02*
X129680000Y-131340000D01*
X127270000Y-90570000D02*
X124600000Y-90570000D01*
X127270000Y-93110000D02*
X124600000Y-93110000D01*
X127270000Y-93110000D02*
X127270000Y-90570000D01*
X127270000Y-93110000D02*
X127270000Y-128670000D01*
X127270000Y-128670000D02*
X124600000Y-128670000D01*
X129680000Y-123460000D02*
X137560000Y-123460000D01*
X129680000Y-133880000D02*
X129680000Y-123460000D01*
X137560000Y-123460000D02*
X137560000Y-133880000D01*
X137560000Y-133880000D02*
X129680000Y-133880000D01*
X139970000Y-90570000D02*
X139970000Y-128670000D01*
X139970000Y-90570000D02*
X142640000Y-90570000D01*
X139970000Y-128670000D02*
X142640000Y-128670000D01*
X142640000Y-87900000D02*
X124600000Y-87900000D01*
X142640000Y-131340000D02*
X137560000Y-131340000D01*
X142640000Y-131340000D02*
X142640000Y-87900000D01*
X131500000Y-68380000D02*
X131500000Y-68310000D01*
X132870000Y-69750000D02*
G75*
G02*
X130130000Y-69750000I-1370000J0D01*
G01*
X130130000Y-69750000D02*
G75*
G02*
X132870000Y-69750000I1370000J0D01*
G01*
X119120000Y-123810000D02*
X119120000Y-118620000D01*
X121880000Y-118620000D02*
X119120000Y-118620000D01*
X121880000Y-123810000D02*
X119120000Y-123810000D01*
X121880000Y-123810000D02*
X121880000Y-118620000D01*
X121880000Y-125080000D02*
X121880000Y-126460000D01*
X121880000Y-126460000D02*
X120500000Y-126460000D01*
X129120000Y-80980000D02*
X129120000Y-75790000D01*
X131880000Y-75790000D02*
X129120000Y-75790000D01*
X131880000Y-80980000D02*
X129120000Y-80980000D01*
X131880000Y-80980000D02*
X131880000Y-75790000D01*
X131880000Y-82250000D02*
X131880000Y-83630000D01*
X131880000Y-83630000D02*
X130500000Y-83630000D01*
X133620000Y-80980000D02*
X133620000Y-75790000D01*
X136380000Y-75790000D02*
X133620000Y-75790000D01*
X136380000Y-80980000D02*
X133620000Y-80980000D01*
X136380000Y-80980000D02*
X136380000Y-75790000D01*
X136380000Y-82250000D02*
X136380000Y-83630000D01*
X136380000Y-83630000D02*
X135000000Y-83630000D01*
X115194267Y-109810000D02*
X115194267Y-104620000D01*
X117954267Y-104620000D02*
X115194267Y-104620000D01*
X117954267Y-109810000D02*
X115194267Y-109810000D01*
X117954267Y-109810000D02*
X117954267Y-104620000D01*
X117954267Y-111080000D02*
X117954267Y-112460000D01*
X117954267Y-112460000D02*
X116574267Y-112460000D01*
X117370000Y-58910000D02*
X123830000Y-58910000D01*
X117370000Y-58950000D02*
X123830000Y-58950000D01*
X117371000Y-58870000D02*
X123829000Y-58870000D01*
X117372000Y-58830000D02*
X123828000Y-58830000D01*
X117374000Y-58790000D02*
X123826000Y-58790000D01*
X117376000Y-58750000D02*
X123824000Y-58750000D01*
X117379000Y-58710000D02*
X119560000Y-58710000D01*
X117382000Y-58670000D02*
X119560000Y-58670000D01*
X117386000Y-58630000D02*
X119560000Y-58630000D01*
X117390000Y-58590000D02*
X119560000Y-58590000D01*
X117395000Y-58550000D02*
X119560000Y-58550000D01*
X117400000Y-58510000D02*
X119560000Y-58510000D01*
X117405000Y-58470000D02*
X119560000Y-58470000D01*
X117412000Y-58430000D02*
X119560000Y-58430000D01*
X117418000Y-58390000D02*
X119560000Y-58390000D01*
X117426000Y-58350000D02*
X119560000Y-58350000D01*
X117433000Y-58310000D02*
X119560000Y-58310000D01*
X117441000Y-58270000D02*
X119560000Y-58270000D01*
X117450000Y-58230000D02*
X119560000Y-58230000D01*
X117460000Y-58190000D02*
X119560000Y-58190000D01*
X117469000Y-58150000D02*
X119560000Y-58150000D01*
X117480000Y-58110000D02*
X119560000Y-58110000D01*
X117491000Y-58070000D02*
X119560000Y-58070000D01*
X117502000Y-58030000D02*
X119560000Y-58030000D01*
X117514000Y-57990000D02*
X119560000Y-57990000D01*
X117527000Y-57950000D02*
X119560000Y-57950000D01*
X117540000Y-57910000D02*
X119560000Y-57910000D01*
X117553000Y-57870000D02*
X119560000Y-57870000D01*
X117568000Y-57830000D02*
X119560000Y-57830000D01*
X117583000Y-57790000D02*
X119560000Y-57790000D01*
X117598000Y-57750000D02*
X119560000Y-57750000D01*
X117614000Y-57710000D02*
X119560000Y-57710000D01*
X117631000Y-57670000D02*
X119560000Y-57670000D01*
X117648000Y-57630000D02*
X119560000Y-57630000D01*
X117666000Y-57590000D02*
X119560000Y-57590000D01*
X117685000Y-57550000D02*
X119560000Y-57550000D01*
X117704000Y-57510000D02*
X119560000Y-57510000D01*
X117724000Y-57470000D02*
X119560000Y-57470000D01*
X117745000Y-57430000D02*
X119560000Y-57430000D01*
X117766000Y-57390000D02*
X119560000Y-57390000D01*
X117788000Y-57350000D02*
X119560000Y-57350000D01*
X117811000Y-57310000D02*
X119560000Y-57310000D01*
X117835000Y-57270000D02*
X119560000Y-57270000D01*
X117859000Y-57230000D02*
X119560000Y-57230000D01*
X117884000Y-57190000D02*
X119560000Y-57190000D01*
X117910000Y-57150000D02*
X119560000Y-57150000D01*
X117937000Y-57110000D02*
X119560000Y-57110000D01*
X117964000Y-57070000D02*
X119560000Y-57070000D01*
X117993000Y-57030000D02*
X119560000Y-57030000D01*
X118023000Y-56990000D02*
X119560000Y-56990000D01*
X118053000Y-56950000D02*
X119560000Y-56950000D01*
X118084000Y-56910000D02*
X119560000Y-56910000D01*
X118117000Y-56870000D02*
X119560000Y-56870000D01*
X118150000Y-56830000D02*
X119560000Y-56830000D01*
X118185000Y-56790000D02*
X119560000Y-56790000D01*
X118221000Y-56750000D02*
X119560000Y-56750000D01*
X118258000Y-56710000D02*
X119560000Y-56710000D01*
X118296000Y-56670000D02*
X119560000Y-56670000D01*
X118336000Y-56630000D02*
X122864000Y-56630000D01*
X118377000Y-56590000D02*
X122823000Y-56590000D01*
X118419000Y-56550000D02*
X122781000Y-56550000D01*
X118446000Y-62135241D02*
X119076000Y-62135241D01*
X118463000Y-56510000D02*
X122737000Y-56510000D01*
X118509000Y-56470000D02*
X122691000Y-56470000D01*
X118556000Y-56430000D02*
X122644000Y-56430000D01*
X118605000Y-56390000D02*
X122595000Y-56390000D01*
X118657000Y-56350000D02*
X122543000Y-56350000D01*
X118710000Y-56310000D02*
X122490000Y-56310000D01*
X118761000Y-62450241D02*
X118761000Y-61820241D01*
X118766000Y-56270000D02*
X122434000Y-56270000D01*
X118825000Y-56230000D02*
X122375000Y-56230000D01*
X118886000Y-56190000D02*
X122314000Y-56190000D01*
X118951000Y-56150000D02*
X122249000Y-56150000D01*
X119019000Y-56110000D02*
X122181000Y-56110000D01*
X119091000Y-56070000D02*
X122109000Y-56070000D01*
X119168000Y-56030000D02*
X122032000Y-56030000D01*
X119250000Y-55990000D02*
X121950000Y-55990000D01*
X119339000Y-55950000D02*
X121861000Y-55950000D01*
X119435000Y-55910000D02*
X121765000Y-55910000D01*
X119542000Y-55870000D02*
X121658000Y-55870000D01*
X119661000Y-55830000D02*
X121539000Y-55830000D01*
X119799000Y-55790000D02*
X121401000Y-55790000D01*
X119967000Y-55750000D02*
X121233000Y-55750000D01*
X120198000Y-55710000D02*
X121002000Y-55710000D01*
X121640000Y-56670000D02*
X122904000Y-56670000D01*
X121640000Y-56710000D02*
X122942000Y-56710000D01*
X121640000Y-56750000D02*
X122979000Y-56750000D01*
X121640000Y-56790000D02*
X123015000Y-56790000D01*
X121640000Y-56830000D02*
X123050000Y-56830000D01*
X121640000Y-56870000D02*
X123083000Y-56870000D01*
X121640000Y-56910000D02*
X123116000Y-56910000D01*
X121640000Y-56950000D02*
X123147000Y-56950000D01*
X121640000Y-56990000D02*
X123177000Y-56990000D01*
X121640000Y-57030000D02*
X123207000Y-57030000D01*
X121640000Y-57070000D02*
X123236000Y-57070000D01*
X121640000Y-57110000D02*
X123263000Y-57110000D01*
X121640000Y-57150000D02*
X123290000Y-57150000D01*
X121640000Y-57190000D02*
X123316000Y-57190000D01*
X121640000Y-57230000D02*
X123341000Y-57230000D01*
X121640000Y-57270000D02*
X123365000Y-57270000D01*
X121640000Y-57310000D02*
X123389000Y-57310000D01*
X121640000Y-57350000D02*
X123412000Y-57350000D01*
X121640000Y-57390000D02*
X123434000Y-57390000D01*
X121640000Y-57430000D02*
X123455000Y-57430000D01*
X121640000Y-57470000D02*
X123476000Y-57470000D01*
X121640000Y-57510000D02*
X123496000Y-57510000D01*
X121640000Y-57550000D02*
X123515000Y-57550000D01*
X121640000Y-57590000D02*
X123534000Y-57590000D01*
X121640000Y-57630000D02*
X123552000Y-57630000D01*
X121640000Y-57670000D02*
X123569000Y-57670000D01*
X121640000Y-57710000D02*
X123586000Y-57710000D01*
X121640000Y-57750000D02*
X123602000Y-57750000D01*
X121640000Y-57790000D02*
X123617000Y-57790000D01*
X121640000Y-57830000D02*
X123632000Y-57830000D01*
X121640000Y-57870000D02*
X123647000Y-57870000D01*
X121640000Y-57910000D02*
X123660000Y-57910000D01*
X121640000Y-57950000D02*
X123673000Y-57950000D01*
X121640000Y-57990000D02*
X123686000Y-57990000D01*
X121640000Y-58030000D02*
X123698000Y-58030000D01*
X121640000Y-58070000D02*
X123709000Y-58070000D01*
X121640000Y-58110000D02*
X123720000Y-58110000D01*
X121640000Y-58150000D02*
X123731000Y-58150000D01*
X121640000Y-58190000D02*
X123740000Y-58190000D01*
X121640000Y-58230000D02*
X123750000Y-58230000D01*
X121640000Y-58270000D02*
X123759000Y-58270000D01*
X121640000Y-58310000D02*
X123767000Y-58310000D01*
X121640000Y-58350000D02*
X123774000Y-58350000D01*
X121640000Y-58390000D02*
X123782000Y-58390000D01*
X121640000Y-58430000D02*
X123788000Y-58430000D01*
X121640000Y-58470000D02*
X123795000Y-58470000D01*
X121640000Y-58510000D02*
X123800000Y-58510000D01*
X121640000Y-58550000D02*
X123805000Y-58550000D01*
X121640000Y-58590000D02*
X123810000Y-58590000D01*
X121640000Y-58630000D02*
X123814000Y-58630000D01*
X121640000Y-58670000D02*
X123818000Y-58670000D01*
X121640000Y-58710000D02*
X123821000Y-58710000D01*
X123870000Y-58950000D02*
G75*
G02*
X117330000Y-58950000I-3270000J0D01*
G01*
X117330000Y-58950000D02*
G75*
G02*
X123870000Y-58950000I3270000J0D01*
G01*
X122670000Y-67205000D02*
X122670000Y-70295000D01*
X122670000Y-67205170D02*
G75*
G02*
X128220000Y-68750000I2560000J-1544830D01*
G01*
X128220000Y-68750000D02*
G75*
G02*
X122670000Y-70294830I-2990000J0D01*
G01*
X127730000Y-68750000D02*
G75*
G02*
X122730000Y-68750000I-2500000J0D01*
G01*
X122730000Y-68750000D02*
G75*
G02*
X127730000Y-68750000I2500000J0D01*
G01*
X111268533Y-109810000D02*
X111268533Y-104620000D01*
X114028533Y-104620000D02*
X111268533Y-104620000D01*
X114028533Y-109810000D02*
X111268533Y-109810000D01*
X114028533Y-109810000D02*
X114028533Y-104620000D01*
X114028533Y-111080000D02*
X114028533Y-112460000D01*
X114028533Y-112460000D02*
X112648533Y-112460000D01*
M02*
