G04 #@! TF.GenerationSoftware,KiCad,Pcbnew,10.0.4*
G04 #@! TF.CreationDate,2026-07-23T16:06:34+08:00*
G04 #@! TF.ProjectId,nano_IPBL_2026,6e616e6f-5f49-4504-924c-5f323032362e,rev?*
G04 #@! TF.SameCoordinates,Original*
G04 #@! TF.FileFunction,Copper,L2,Bot*
G04 #@! TF.FilePolarity,Positive*
%FSLAX46Y46*%
G04 Gerber Fmt 4.6, Leading zero omitted, Abs format (unit mm)*
G04 Created by KiCad (PCBNEW 10.0.4) date 2026-07-23 16:06:34*
%MOMM*%
%LPD*%
G01*
G04 APERTURE LIST*
G04 Aperture macros list*
%AMRoundRect*
0 Rectangle with rounded corners*
0 $1 Rounding radius*
0 $2 $3 $4 $5 $6 $7 $8 $9 X,Y pos of 4 corners*
0 Add a 4 corners polygon primitive as box body*
4,1,4,$2,$3,$4,$5,$6,$7,$8,$9,$2,$3,0*
0 Add four circle primitives for the rounded corners*
1,1,$1+$1,$2,$3*
1,1,$1+$1,$4,$5*
1,1,$1+$1,$6,$7*
1,1,$1+$1,$8,$9*
0 Add four rect primitives between the rounded corners*
20,1,$1+$1,$2,$3,$4,$5,0*
20,1,$1+$1,$4,$5,$6,$7,0*
20,1,$1+$1,$6,$7,$8,$9,0*
20,1,$1+$1,$8,$9,$2,$3,0*%
G04 Aperture macros list end*
%ADD10C,0.300000*%
G04 #@! TA.AperFunction,NonConductor*
%ADD11C,0.300000*%
G04 #@! TD*
G04 #@! TA.AperFunction,ComponentPad*
%ADD12C,2.200000*%
G04 #@! TD*
G04 #@! TA.AperFunction,ComponentPad*
%ADD13R,2.200000X2.200000*%
G04 #@! TD*
G04 #@! TA.AperFunction,ComponentPad*
%ADD14RoundRect,0.343750X0.756250X-0.756250X0.756250X0.756250X-0.756250X0.756250X-0.756250X-0.756250X0*%
G04 #@! TD*
G04 #@! TA.AperFunction,ComponentPad*
%ADD15O,2.200000X2.200000*%
G04 #@! TD*
G04 #@! TA.AperFunction,Conductor*
%ADD16C,1.000000*%
G04 #@! TD*
G04 #@! TA.AperFunction,Conductor*
%ADD17C,0.600000*%
G04 #@! TD*
G04 APERTURE END LIST*
D10*
D11*
X140905609Y-53483082D02*
X139705609Y-53483082D01*
X140905609Y-54054511D02*
X139705609Y-54054511D01*
X139705609Y-54054511D02*
X139705609Y-54511654D01*
X139705609Y-54511654D02*
X139762752Y-54625939D01*
X139762752Y-54625939D02*
X139819895Y-54683082D01*
X139819895Y-54683082D02*
X139934181Y-54740225D01*
X139934181Y-54740225D02*
X140105609Y-54740225D01*
X140105609Y-54740225D02*
X140219895Y-54683082D01*
X140219895Y-54683082D02*
X140277038Y-54625939D01*
X140277038Y-54625939D02*
X140334181Y-54511654D01*
X140334181Y-54511654D02*
X140334181Y-54054511D01*
X140277038Y-55654511D02*
X140334181Y-55825939D01*
X140334181Y-55825939D02*
X140391324Y-55883082D01*
X140391324Y-55883082D02*
X140505609Y-55940225D01*
X140505609Y-55940225D02*
X140677038Y-55940225D01*
X140677038Y-55940225D02*
X140791324Y-55883082D01*
X140791324Y-55883082D02*
X140848467Y-55825939D01*
X140848467Y-55825939D02*
X140905609Y-55711654D01*
X140905609Y-55711654D02*
X140905609Y-55254511D01*
X140905609Y-55254511D02*
X139705609Y-55254511D01*
X139705609Y-55254511D02*
X139705609Y-55654511D01*
X139705609Y-55654511D02*
X139762752Y-55768797D01*
X139762752Y-55768797D02*
X139819895Y-55825939D01*
X139819895Y-55825939D02*
X139934181Y-55883082D01*
X139934181Y-55883082D02*
X140048467Y-55883082D01*
X140048467Y-55883082D02*
X140162752Y-55825939D01*
X140162752Y-55825939D02*
X140219895Y-55768797D01*
X140219895Y-55768797D02*
X140277038Y-55654511D01*
X140277038Y-55654511D02*
X140277038Y-55254511D01*
X140905609Y-57025939D02*
X140905609Y-56454511D01*
X140905609Y-56454511D02*
X139705609Y-56454511D01*
X139819895Y-58283083D02*
X139762752Y-58340226D01*
X139762752Y-58340226D02*
X139705609Y-58454512D01*
X139705609Y-58454512D02*
X139705609Y-58740226D01*
X139705609Y-58740226D02*
X139762752Y-58854512D01*
X139762752Y-58854512D02*
X139819895Y-58911654D01*
X139819895Y-58911654D02*
X139934181Y-58968797D01*
X139934181Y-58968797D02*
X140048467Y-58968797D01*
X140048467Y-58968797D02*
X140219895Y-58911654D01*
X140219895Y-58911654D02*
X140905609Y-58225940D01*
X140905609Y-58225940D02*
X140905609Y-58968797D01*
X139705609Y-59711654D02*
X139705609Y-59825940D01*
X139705609Y-59825940D02*
X139762752Y-59940226D01*
X139762752Y-59940226D02*
X139819895Y-59997369D01*
X139819895Y-59997369D02*
X139934181Y-60054511D01*
X139934181Y-60054511D02*
X140162752Y-60111654D01*
X140162752Y-60111654D02*
X140448467Y-60111654D01*
X140448467Y-60111654D02*
X140677038Y-60054511D01*
X140677038Y-60054511D02*
X140791324Y-59997369D01*
X140791324Y-59997369D02*
X140848467Y-59940226D01*
X140848467Y-59940226D02*
X140905609Y-59825940D01*
X140905609Y-59825940D02*
X140905609Y-59711654D01*
X140905609Y-59711654D02*
X140848467Y-59597369D01*
X140848467Y-59597369D02*
X140791324Y-59540226D01*
X140791324Y-59540226D02*
X140677038Y-59483083D01*
X140677038Y-59483083D02*
X140448467Y-59425940D01*
X140448467Y-59425940D02*
X140162752Y-59425940D01*
X140162752Y-59425940D02*
X139934181Y-59483083D01*
X139934181Y-59483083D02*
X139819895Y-59540226D01*
X139819895Y-59540226D02*
X139762752Y-59597369D01*
X139762752Y-59597369D02*
X139705609Y-59711654D01*
X139819895Y-60568797D02*
X139762752Y-60625940D01*
X139762752Y-60625940D02*
X139705609Y-60740226D01*
X139705609Y-60740226D02*
X139705609Y-61025940D01*
X139705609Y-61025940D02*
X139762752Y-61140226D01*
X139762752Y-61140226D02*
X139819895Y-61197368D01*
X139819895Y-61197368D02*
X139934181Y-61254511D01*
X139934181Y-61254511D02*
X140048467Y-61254511D01*
X140048467Y-61254511D02*
X140219895Y-61197368D01*
X140219895Y-61197368D02*
X140905609Y-60511654D01*
X140905609Y-60511654D02*
X140905609Y-61254511D01*
X139705609Y-62283083D02*
X139705609Y-62054511D01*
X139705609Y-62054511D02*
X139762752Y-61940225D01*
X139762752Y-61940225D02*
X139819895Y-61883083D01*
X139819895Y-61883083D02*
X139991324Y-61768797D01*
X139991324Y-61768797D02*
X140219895Y-61711654D01*
X140219895Y-61711654D02*
X140677038Y-61711654D01*
X140677038Y-61711654D02*
X140791324Y-61768797D01*
X140791324Y-61768797D02*
X140848467Y-61825940D01*
X140848467Y-61825940D02*
X140905609Y-61940225D01*
X140905609Y-61940225D02*
X140905609Y-62168797D01*
X140905609Y-62168797D02*
X140848467Y-62283083D01*
X140848467Y-62283083D02*
X140791324Y-62340225D01*
X140791324Y-62340225D02*
X140677038Y-62397368D01*
X140677038Y-62397368D02*
X140391324Y-62397368D01*
X140391324Y-62397368D02*
X140277038Y-62340225D01*
X140277038Y-62340225D02*
X140219895Y-62283083D01*
X140219895Y-62283083D02*
X140162752Y-62168797D01*
X140162752Y-62168797D02*
X140162752Y-61940225D01*
X140162752Y-61940225D02*
X140219895Y-61825940D01*
X140219895Y-61825940D02*
X140277038Y-61768797D01*
X140277038Y-61768797D02*
X140391324Y-61711654D01*
X142780400Y-53425939D02*
X142837542Y-53597368D01*
X142837542Y-53597368D02*
X142837542Y-53883082D01*
X142837542Y-53883082D02*
X142780400Y-53997368D01*
X142780400Y-53997368D02*
X142723257Y-54054510D01*
X142723257Y-54054510D02*
X142608971Y-54111653D01*
X142608971Y-54111653D02*
X142494685Y-54111653D01*
X142494685Y-54111653D02*
X142380400Y-54054510D01*
X142380400Y-54054510D02*
X142323257Y-53997368D01*
X142323257Y-53997368D02*
X142266114Y-53883082D01*
X142266114Y-53883082D02*
X142208971Y-53654510D01*
X142208971Y-53654510D02*
X142151828Y-53540225D01*
X142151828Y-53540225D02*
X142094685Y-53483082D01*
X142094685Y-53483082D02*
X141980400Y-53425939D01*
X141980400Y-53425939D02*
X141866114Y-53425939D01*
X141866114Y-53425939D02*
X141751828Y-53483082D01*
X141751828Y-53483082D02*
X141694685Y-53540225D01*
X141694685Y-53540225D02*
X141637542Y-53654510D01*
X141637542Y-53654510D02*
X141637542Y-53940225D01*
X141637542Y-53940225D02*
X141694685Y-54111653D01*
X142208971Y-54625939D02*
X142208971Y-55025939D01*
X142837542Y-55197367D02*
X142837542Y-54625939D01*
X142837542Y-54625939D02*
X141637542Y-54625939D01*
X141637542Y-54625939D02*
X141637542Y-55197367D01*
X142837542Y-56397367D02*
X142266114Y-55997367D01*
X142837542Y-55711653D02*
X141637542Y-55711653D01*
X141637542Y-55711653D02*
X141637542Y-56168796D01*
X141637542Y-56168796D02*
X141694685Y-56283081D01*
X141694685Y-56283081D02*
X141751828Y-56340224D01*
X141751828Y-56340224D02*
X141866114Y-56397367D01*
X141866114Y-56397367D02*
X142037542Y-56397367D01*
X142037542Y-56397367D02*
X142151828Y-56340224D01*
X142151828Y-56340224D02*
X142208971Y-56283081D01*
X142208971Y-56283081D02*
X142266114Y-56168796D01*
X142266114Y-56168796D02*
X142266114Y-55711653D01*
X141637542Y-56740224D02*
X142837542Y-57140224D01*
X142837542Y-57140224D02*
X141637542Y-57540224D01*
X141637542Y-58168795D02*
X141637542Y-58397367D01*
X141637542Y-58397367D02*
X141694685Y-58511652D01*
X141694685Y-58511652D02*
X141808971Y-58625938D01*
X141808971Y-58625938D02*
X142037542Y-58683081D01*
X142037542Y-58683081D02*
X142437542Y-58683081D01*
X142437542Y-58683081D02*
X142666114Y-58625938D01*
X142666114Y-58625938D02*
X142780400Y-58511652D01*
X142780400Y-58511652D02*
X142837542Y-58397367D01*
X142837542Y-58397367D02*
X142837542Y-58168795D01*
X142837542Y-58168795D02*
X142780400Y-58054510D01*
X142780400Y-58054510D02*
X142666114Y-57940224D01*
X142666114Y-57940224D02*
X142437542Y-57883081D01*
X142437542Y-57883081D02*
X142037542Y-57883081D01*
X142037542Y-57883081D02*
X141808971Y-57940224D01*
X141808971Y-57940224D02*
X141694685Y-58054510D01*
X141694685Y-58054510D02*
X141637542Y-58168795D01*
X142380400Y-59197367D02*
X142380400Y-60111653D01*
X142837542Y-60683081D02*
X141637542Y-60683081D01*
X141637542Y-60683081D02*
X142837542Y-61368795D01*
X142837542Y-61368795D02*
X141637542Y-61368795D01*
X142494685Y-61883081D02*
X142494685Y-62454510D01*
X142837542Y-61768795D02*
X141637542Y-62168795D01*
X141637542Y-62168795D02*
X142837542Y-62568795D01*
X142837542Y-62968795D02*
X141637542Y-62968795D01*
X141637542Y-62968795D02*
X142837542Y-63654509D01*
X142837542Y-63654509D02*
X141637542Y-63654509D01*
X141637542Y-64454509D02*
X141637542Y-64683081D01*
X141637542Y-64683081D02*
X141694685Y-64797366D01*
X141694685Y-64797366D02*
X141808971Y-64911652D01*
X141808971Y-64911652D02*
X142037542Y-64968795D01*
X142037542Y-64968795D02*
X142437542Y-64968795D01*
X142437542Y-64968795D02*
X142666114Y-64911652D01*
X142666114Y-64911652D02*
X142780400Y-64797366D01*
X142780400Y-64797366D02*
X142837542Y-64683081D01*
X142837542Y-64683081D02*
X142837542Y-64454509D01*
X142837542Y-64454509D02*
X142780400Y-64340224D01*
X142780400Y-64340224D02*
X142666114Y-64225938D01*
X142666114Y-64225938D02*
X142437542Y-64168795D01*
X142437542Y-64168795D02*
X142037542Y-64168795D01*
X142037542Y-64168795D02*
X141808971Y-64225938D01*
X141808971Y-64225938D02*
X141694685Y-64340224D01*
X141694685Y-64340224D02*
X141637542Y-64454509D01*
X142723257Y-67083081D02*
X142780400Y-67025938D01*
X142780400Y-67025938D02*
X142837542Y-66854510D01*
X142837542Y-66854510D02*
X142837542Y-66740224D01*
X142837542Y-66740224D02*
X142780400Y-66568795D01*
X142780400Y-66568795D02*
X142666114Y-66454510D01*
X142666114Y-66454510D02*
X142551828Y-66397367D01*
X142551828Y-66397367D02*
X142323257Y-66340224D01*
X142323257Y-66340224D02*
X142151828Y-66340224D01*
X142151828Y-66340224D02*
X141923257Y-66397367D01*
X141923257Y-66397367D02*
X141808971Y-66454510D01*
X141808971Y-66454510D02*
X141694685Y-66568795D01*
X141694685Y-66568795D02*
X141637542Y-66740224D01*
X141637542Y-66740224D02*
X141637542Y-66854510D01*
X141637542Y-66854510D02*
X141694685Y-67025938D01*
X141694685Y-67025938D02*
X141751828Y-67083081D01*
X141637542Y-67825938D02*
X141637542Y-68054510D01*
X141637542Y-68054510D02*
X141694685Y-68168795D01*
X141694685Y-68168795D02*
X141808971Y-68283081D01*
X141808971Y-68283081D02*
X142037542Y-68340224D01*
X142037542Y-68340224D02*
X142437542Y-68340224D01*
X142437542Y-68340224D02*
X142666114Y-68283081D01*
X142666114Y-68283081D02*
X142780400Y-68168795D01*
X142780400Y-68168795D02*
X142837542Y-68054510D01*
X142837542Y-68054510D02*
X142837542Y-67825938D01*
X142837542Y-67825938D02*
X142780400Y-67711653D01*
X142780400Y-67711653D02*
X142666114Y-67597367D01*
X142666114Y-67597367D02*
X142437542Y-67540224D01*
X142437542Y-67540224D02*
X142037542Y-67540224D01*
X142037542Y-67540224D02*
X141808971Y-67597367D01*
X141808971Y-67597367D02*
X141694685Y-67711653D01*
X141694685Y-67711653D02*
X141637542Y-67825938D01*
X142837542Y-68854510D02*
X141637542Y-68854510D01*
X141637542Y-68854510D02*
X142837542Y-69540224D01*
X142837542Y-69540224D02*
X141637542Y-69540224D01*
X142837542Y-70111653D02*
X141637542Y-70111653D01*
X141637542Y-70111653D02*
X142837542Y-70797367D01*
X142837542Y-70797367D02*
X141637542Y-70797367D01*
D10*
D11*
X107229400Y-71483082D02*
X107300828Y-71697368D01*
X107300828Y-71697368D02*
X107300828Y-72054510D01*
X107300828Y-72054510D02*
X107229400Y-72197368D01*
X107229400Y-72197368D02*
X107157971Y-72268796D01*
X107157971Y-72268796D02*
X107015114Y-72340225D01*
X107015114Y-72340225D02*
X106872257Y-72340225D01*
X106872257Y-72340225D02*
X106729400Y-72268796D01*
X106729400Y-72268796D02*
X106657971Y-72197368D01*
X106657971Y-72197368D02*
X106586542Y-72054510D01*
X106586542Y-72054510D02*
X106515114Y-71768796D01*
X106515114Y-71768796D02*
X106443685Y-71625939D01*
X106443685Y-71625939D02*
X106372257Y-71554510D01*
X106372257Y-71554510D02*
X106229400Y-71483082D01*
X106229400Y-71483082D02*
X106086542Y-71483082D01*
X106086542Y-71483082D02*
X105943685Y-71554510D01*
X105943685Y-71554510D02*
X105872257Y-71625939D01*
X105872257Y-71625939D02*
X105800828Y-71768796D01*
X105800828Y-71768796D02*
X105800828Y-72125939D01*
X105800828Y-72125939D02*
X105872257Y-72340225D01*
X107229400Y-73625939D02*
X107300828Y-73483081D01*
X107300828Y-73483081D02*
X107300828Y-73197367D01*
X107300828Y-73197367D02*
X107229400Y-73054510D01*
X107229400Y-73054510D02*
X107157971Y-72983081D01*
X107157971Y-72983081D02*
X107015114Y-72911653D01*
X107015114Y-72911653D02*
X106586542Y-72911653D01*
X106586542Y-72911653D02*
X106443685Y-72983081D01*
X106443685Y-72983081D02*
X106372257Y-73054510D01*
X106372257Y-73054510D02*
X106300828Y-73197367D01*
X106300828Y-73197367D02*
X106300828Y-73483081D01*
X106300828Y-73483081D02*
X106372257Y-73625939D01*
X107300828Y-74268795D02*
X105800828Y-74268795D01*
X107300828Y-74911653D02*
X106515114Y-74911653D01*
X106515114Y-74911653D02*
X106372257Y-74840224D01*
X106372257Y-74840224D02*
X106300828Y-74697367D01*
X106300828Y-74697367D02*
X106300828Y-74483081D01*
X106300828Y-74483081D02*
X106372257Y-74340224D01*
X106372257Y-74340224D02*
X106443685Y-74268795D01*
X107300828Y-75840224D02*
X107229400Y-75697367D01*
X107229400Y-75697367D02*
X107157971Y-75625938D01*
X107157971Y-75625938D02*
X107015114Y-75554510D01*
X107015114Y-75554510D02*
X106586542Y-75554510D01*
X106586542Y-75554510D02*
X106443685Y-75625938D01*
X106443685Y-75625938D02*
X106372257Y-75697367D01*
X106372257Y-75697367D02*
X106300828Y-75840224D01*
X106300828Y-75840224D02*
X106300828Y-76054510D01*
X106300828Y-76054510D02*
X106372257Y-76197367D01*
X106372257Y-76197367D02*
X106443685Y-76268796D01*
X106443685Y-76268796D02*
X106586542Y-76340224D01*
X106586542Y-76340224D02*
X107015114Y-76340224D01*
X107015114Y-76340224D02*
X107157971Y-76268796D01*
X107157971Y-76268796D02*
X107229400Y-76197367D01*
X107229400Y-76197367D02*
X107300828Y-76054510D01*
X107300828Y-76054510D02*
X107300828Y-75840224D01*
X107300828Y-77197367D02*
X107229400Y-77054510D01*
X107229400Y-77054510D02*
X107157971Y-76983081D01*
X107157971Y-76983081D02*
X107015114Y-76911653D01*
X107015114Y-76911653D02*
X106586542Y-76911653D01*
X106586542Y-76911653D02*
X106443685Y-76983081D01*
X106443685Y-76983081D02*
X106372257Y-77054510D01*
X106372257Y-77054510D02*
X106300828Y-77197367D01*
X106300828Y-77197367D02*
X106300828Y-77411653D01*
X106300828Y-77411653D02*
X106372257Y-77554510D01*
X106372257Y-77554510D02*
X106443685Y-77625939D01*
X106443685Y-77625939D02*
X106586542Y-77697367D01*
X106586542Y-77697367D02*
X107015114Y-77697367D01*
X107015114Y-77697367D02*
X107157971Y-77625939D01*
X107157971Y-77625939D02*
X107229400Y-77554510D01*
X107229400Y-77554510D02*
X107300828Y-77411653D01*
X107300828Y-77411653D02*
X107300828Y-77197367D01*
X107300828Y-78554510D02*
X107229400Y-78411653D01*
X107229400Y-78411653D02*
X107086542Y-78340224D01*
X107086542Y-78340224D02*
X105800828Y-78340224D01*
X107300828Y-80483081D02*
X107229400Y-80340224D01*
X107229400Y-80340224D02*
X107157971Y-80268795D01*
X107157971Y-80268795D02*
X107015114Y-80197367D01*
X107015114Y-80197367D02*
X106586542Y-80197367D01*
X106586542Y-80197367D02*
X106443685Y-80268795D01*
X106443685Y-80268795D02*
X106372257Y-80340224D01*
X106372257Y-80340224D02*
X106300828Y-80483081D01*
X106300828Y-80483081D02*
X106300828Y-80697367D01*
X106300828Y-80697367D02*
X106372257Y-80840224D01*
X106372257Y-80840224D02*
X106443685Y-80911653D01*
X106443685Y-80911653D02*
X106586542Y-80983081D01*
X106586542Y-80983081D02*
X107015114Y-80983081D01*
X107015114Y-80983081D02*
X107157971Y-80911653D01*
X107157971Y-80911653D02*
X107229400Y-80840224D01*
X107229400Y-80840224D02*
X107300828Y-80697367D01*
X107300828Y-80697367D02*
X107300828Y-80483081D01*
X106300828Y-81411653D02*
X106300828Y-81983081D01*
X107300828Y-81625938D02*
X106015114Y-81625938D01*
X106015114Y-81625938D02*
X105872257Y-81697367D01*
X105872257Y-81697367D02*
X105800828Y-81840224D01*
X105800828Y-81840224D02*
X105800828Y-81983081D01*
X107157971Y-84483081D02*
X107229400Y-84411653D01*
X107229400Y-84411653D02*
X107300828Y-84197367D01*
X107300828Y-84197367D02*
X107300828Y-84054510D01*
X107300828Y-84054510D02*
X107229400Y-83840224D01*
X107229400Y-83840224D02*
X107086542Y-83697367D01*
X107086542Y-83697367D02*
X106943685Y-83625938D01*
X106943685Y-83625938D02*
X106657971Y-83554510D01*
X106657971Y-83554510D02*
X106443685Y-83554510D01*
X106443685Y-83554510D02*
X106157971Y-83625938D01*
X106157971Y-83625938D02*
X106015114Y-83697367D01*
X106015114Y-83697367D02*
X105872257Y-83840224D01*
X105872257Y-83840224D02*
X105800828Y-84054510D01*
X105800828Y-84054510D02*
X105800828Y-84197367D01*
X105800828Y-84197367D02*
X105872257Y-84411653D01*
X105872257Y-84411653D02*
X105943685Y-84483081D01*
X107300828Y-85340224D02*
X107229400Y-85197367D01*
X107229400Y-85197367D02*
X107157971Y-85125938D01*
X107157971Y-85125938D02*
X107015114Y-85054510D01*
X107015114Y-85054510D02*
X106586542Y-85054510D01*
X106586542Y-85054510D02*
X106443685Y-85125938D01*
X106443685Y-85125938D02*
X106372257Y-85197367D01*
X106372257Y-85197367D02*
X106300828Y-85340224D01*
X106300828Y-85340224D02*
X106300828Y-85554510D01*
X106300828Y-85554510D02*
X106372257Y-85697367D01*
X106372257Y-85697367D02*
X106443685Y-85768796D01*
X106443685Y-85768796D02*
X106586542Y-85840224D01*
X106586542Y-85840224D02*
X107015114Y-85840224D01*
X107015114Y-85840224D02*
X107157971Y-85768796D01*
X107157971Y-85768796D02*
X107229400Y-85697367D01*
X107229400Y-85697367D02*
X107300828Y-85554510D01*
X107300828Y-85554510D02*
X107300828Y-85340224D01*
X107300828Y-86483081D02*
X106300828Y-86483081D01*
X106443685Y-86483081D02*
X106372257Y-86554510D01*
X106372257Y-86554510D02*
X106300828Y-86697367D01*
X106300828Y-86697367D02*
X106300828Y-86911653D01*
X106300828Y-86911653D02*
X106372257Y-87054510D01*
X106372257Y-87054510D02*
X106515114Y-87125939D01*
X106515114Y-87125939D02*
X107300828Y-87125939D01*
X106515114Y-87125939D02*
X106372257Y-87197367D01*
X106372257Y-87197367D02*
X106300828Y-87340224D01*
X106300828Y-87340224D02*
X106300828Y-87554510D01*
X106300828Y-87554510D02*
X106372257Y-87697367D01*
X106372257Y-87697367D02*
X106515114Y-87768796D01*
X106515114Y-87768796D02*
X107300828Y-87768796D01*
X106300828Y-88483081D02*
X107800828Y-88483081D01*
X106372257Y-88483081D02*
X106300828Y-88625939D01*
X106300828Y-88625939D02*
X106300828Y-88911653D01*
X106300828Y-88911653D02*
X106372257Y-89054510D01*
X106372257Y-89054510D02*
X106443685Y-89125939D01*
X106443685Y-89125939D02*
X106586542Y-89197367D01*
X106586542Y-89197367D02*
X107015114Y-89197367D01*
X107015114Y-89197367D02*
X107157971Y-89125939D01*
X107157971Y-89125939D02*
X107229400Y-89054510D01*
X107229400Y-89054510D02*
X107300828Y-88911653D01*
X107300828Y-88911653D02*
X107300828Y-88625939D01*
X107300828Y-88625939D02*
X107229400Y-88483081D01*
X106300828Y-90483082D02*
X107300828Y-90483082D01*
X106300828Y-89840224D02*
X107086542Y-89840224D01*
X107086542Y-89840224D02*
X107229400Y-89911653D01*
X107229400Y-89911653D02*
X107300828Y-90054510D01*
X107300828Y-90054510D02*
X107300828Y-90268796D01*
X107300828Y-90268796D02*
X107229400Y-90411653D01*
X107229400Y-90411653D02*
X107157971Y-90483082D01*
X106300828Y-90983082D02*
X106300828Y-91554510D01*
X105800828Y-91197367D02*
X107086542Y-91197367D01*
X107086542Y-91197367D02*
X107229400Y-91268796D01*
X107229400Y-91268796D02*
X107300828Y-91411653D01*
X107300828Y-91411653D02*
X107300828Y-91554510D01*
X107229400Y-92625939D02*
X107300828Y-92483082D01*
X107300828Y-92483082D02*
X107300828Y-92197368D01*
X107300828Y-92197368D02*
X107229400Y-92054510D01*
X107229400Y-92054510D02*
X107086542Y-91983082D01*
X107086542Y-91983082D02*
X106515114Y-91983082D01*
X106515114Y-91983082D02*
X106372257Y-92054510D01*
X106372257Y-92054510D02*
X106300828Y-92197368D01*
X106300828Y-92197368D02*
X106300828Y-92483082D01*
X106300828Y-92483082D02*
X106372257Y-92625939D01*
X106372257Y-92625939D02*
X106515114Y-92697368D01*
X106515114Y-92697368D02*
X106657971Y-92697368D01*
X106657971Y-92697368D02*
X106800828Y-91983082D01*
X107300828Y-93340224D02*
X106300828Y-93340224D01*
X106586542Y-93340224D02*
X106443685Y-93411653D01*
X106443685Y-93411653D02*
X106372257Y-93483082D01*
X106372257Y-93483082D02*
X106300828Y-93625939D01*
X106300828Y-93625939D02*
X106300828Y-93768796D01*
X107229400Y-95340224D02*
X107300828Y-95554510D01*
X107300828Y-95554510D02*
X107300828Y-95911652D01*
X107300828Y-95911652D02*
X107229400Y-96054510D01*
X107229400Y-96054510D02*
X107157971Y-96125938D01*
X107157971Y-96125938D02*
X107015114Y-96197367D01*
X107015114Y-96197367D02*
X106872257Y-96197367D01*
X106872257Y-96197367D02*
X106729400Y-96125938D01*
X106729400Y-96125938D02*
X106657971Y-96054510D01*
X106657971Y-96054510D02*
X106586542Y-95911652D01*
X106586542Y-95911652D02*
X106515114Y-95625938D01*
X106515114Y-95625938D02*
X106443685Y-95483081D01*
X106443685Y-95483081D02*
X106372257Y-95411652D01*
X106372257Y-95411652D02*
X106229400Y-95340224D01*
X106229400Y-95340224D02*
X106086542Y-95340224D01*
X106086542Y-95340224D02*
X105943685Y-95411652D01*
X105943685Y-95411652D02*
X105872257Y-95483081D01*
X105872257Y-95483081D02*
X105800828Y-95625938D01*
X105800828Y-95625938D02*
X105800828Y-95983081D01*
X105800828Y-95983081D02*
X105872257Y-96197367D01*
X106300828Y-96625938D02*
X106300828Y-97197366D01*
X105800828Y-96840223D02*
X107086542Y-96840223D01*
X107086542Y-96840223D02*
X107229400Y-96911652D01*
X107229400Y-96911652D02*
X107300828Y-97054509D01*
X107300828Y-97054509D02*
X107300828Y-97197366D01*
X106300828Y-98340224D02*
X107300828Y-98340224D01*
X106300828Y-97697366D02*
X107086542Y-97697366D01*
X107086542Y-97697366D02*
X107229400Y-97768795D01*
X107229400Y-97768795D02*
X107300828Y-97911652D01*
X107300828Y-97911652D02*
X107300828Y-98125938D01*
X107300828Y-98125938D02*
X107229400Y-98268795D01*
X107229400Y-98268795D02*
X107157971Y-98340224D01*
X107300828Y-99697367D02*
X105800828Y-99697367D01*
X107229400Y-99697367D02*
X107300828Y-99554509D01*
X107300828Y-99554509D02*
X107300828Y-99268795D01*
X107300828Y-99268795D02*
X107229400Y-99125938D01*
X107229400Y-99125938D02*
X107157971Y-99054509D01*
X107157971Y-99054509D02*
X107015114Y-98983081D01*
X107015114Y-98983081D02*
X106586542Y-98983081D01*
X106586542Y-98983081D02*
X106443685Y-99054509D01*
X106443685Y-99054509D02*
X106372257Y-99125938D01*
X106372257Y-99125938D02*
X106300828Y-99268795D01*
X106300828Y-99268795D02*
X106300828Y-99554509D01*
X106300828Y-99554509D02*
X106372257Y-99697367D01*
X107300828Y-100411652D02*
X106300828Y-100411652D01*
X105800828Y-100411652D02*
X105872257Y-100340224D01*
X105872257Y-100340224D02*
X105943685Y-100411652D01*
X105943685Y-100411652D02*
X105872257Y-100483081D01*
X105872257Y-100483081D02*
X105800828Y-100411652D01*
X105800828Y-100411652D02*
X105943685Y-100411652D01*
X107229400Y-101697367D02*
X107300828Y-101554510D01*
X107300828Y-101554510D02*
X107300828Y-101268796D01*
X107300828Y-101268796D02*
X107229400Y-101125938D01*
X107229400Y-101125938D02*
X107086542Y-101054510D01*
X107086542Y-101054510D02*
X106515114Y-101054510D01*
X106515114Y-101054510D02*
X106372257Y-101125938D01*
X106372257Y-101125938D02*
X106300828Y-101268796D01*
X106300828Y-101268796D02*
X106300828Y-101554510D01*
X106300828Y-101554510D02*
X106372257Y-101697367D01*
X106372257Y-101697367D02*
X106515114Y-101768796D01*
X106515114Y-101768796D02*
X106657971Y-101768796D01*
X106657971Y-101768796D02*
X106800828Y-101054510D01*
X107229400Y-102340224D02*
X107300828Y-102483081D01*
X107300828Y-102483081D02*
X107300828Y-102768795D01*
X107300828Y-102768795D02*
X107229400Y-102911652D01*
X107229400Y-102911652D02*
X107086542Y-102983081D01*
X107086542Y-102983081D02*
X107015114Y-102983081D01*
X107015114Y-102983081D02*
X106872257Y-102911652D01*
X106872257Y-102911652D02*
X106800828Y-102768795D01*
X106800828Y-102768795D02*
X106800828Y-102554510D01*
X106800828Y-102554510D02*
X106729400Y-102411652D01*
X106729400Y-102411652D02*
X106586542Y-102340224D01*
X106586542Y-102340224D02*
X106515114Y-102340224D01*
X106515114Y-102340224D02*
X106372257Y-102411652D01*
X106372257Y-102411652D02*
X106300828Y-102554510D01*
X106300828Y-102554510D02*
X106300828Y-102768795D01*
X106300828Y-102768795D02*
X106372257Y-102911652D01*
D10*
D11*
X107300828Y-113054510D02*
X105800828Y-113054510D01*
X105800828Y-113054510D02*
X105800828Y-113625939D01*
X105800828Y-113625939D02*
X105872257Y-113768796D01*
X105872257Y-113768796D02*
X105943685Y-113840225D01*
X105943685Y-113840225D02*
X106086542Y-113911653D01*
X106086542Y-113911653D02*
X106300828Y-113911653D01*
X106300828Y-113911653D02*
X106443685Y-113840225D01*
X106443685Y-113840225D02*
X106515114Y-113768796D01*
X106515114Y-113768796D02*
X106586542Y-113625939D01*
X106586542Y-113625939D02*
X106586542Y-113054510D01*
X107157971Y-115411653D02*
X107229400Y-115340225D01*
X107229400Y-115340225D02*
X107300828Y-115125939D01*
X107300828Y-115125939D02*
X107300828Y-114983082D01*
X107300828Y-114983082D02*
X107229400Y-114768796D01*
X107229400Y-114768796D02*
X107086542Y-114625939D01*
X107086542Y-114625939D02*
X106943685Y-114554510D01*
X106943685Y-114554510D02*
X106657971Y-114483082D01*
X106657971Y-114483082D02*
X106443685Y-114483082D01*
X106443685Y-114483082D02*
X106157971Y-114554510D01*
X106157971Y-114554510D02*
X106015114Y-114625939D01*
X106015114Y-114625939D02*
X105872257Y-114768796D01*
X105872257Y-114768796D02*
X105800828Y-114983082D01*
X105800828Y-114983082D02*
X105800828Y-115125939D01*
X105800828Y-115125939D02*
X105872257Y-115340225D01*
X105872257Y-115340225D02*
X105943685Y-115411653D01*
X106515114Y-116554510D02*
X106586542Y-116768796D01*
X106586542Y-116768796D02*
X106657971Y-116840225D01*
X106657971Y-116840225D02*
X106800828Y-116911653D01*
X106800828Y-116911653D02*
X107015114Y-116911653D01*
X107015114Y-116911653D02*
X107157971Y-116840225D01*
X107157971Y-116840225D02*
X107229400Y-116768796D01*
X107229400Y-116768796D02*
X107300828Y-116625939D01*
X107300828Y-116625939D02*
X107300828Y-116054510D01*
X107300828Y-116054510D02*
X105800828Y-116054510D01*
X105800828Y-116054510D02*
X105800828Y-116554510D01*
X105800828Y-116554510D02*
X105872257Y-116697368D01*
X105872257Y-116697368D02*
X105943685Y-116768796D01*
X105943685Y-116768796D02*
X106086542Y-116840225D01*
X106086542Y-116840225D02*
X106229400Y-116840225D01*
X106229400Y-116840225D02*
X106372257Y-116768796D01*
X106372257Y-116768796D02*
X106443685Y-116697368D01*
X106443685Y-116697368D02*
X106515114Y-116554510D01*
X106515114Y-116554510D02*
X106515114Y-116054510D01*
X107300828Y-118697367D02*
X105800828Y-118697367D01*
X105800828Y-118697367D02*
X105800828Y-119054510D01*
X105800828Y-119054510D02*
X105872257Y-119268796D01*
X105872257Y-119268796D02*
X106015114Y-119411653D01*
X106015114Y-119411653D02*
X106157971Y-119483082D01*
X106157971Y-119483082D02*
X106443685Y-119554510D01*
X106443685Y-119554510D02*
X106657971Y-119554510D01*
X106657971Y-119554510D02*
X106943685Y-119483082D01*
X106943685Y-119483082D02*
X107086542Y-119411653D01*
X107086542Y-119411653D02*
X107229400Y-119268796D01*
X107229400Y-119268796D02*
X107300828Y-119054510D01*
X107300828Y-119054510D02*
X107300828Y-118697367D01*
X107229400Y-120768796D02*
X107300828Y-120625939D01*
X107300828Y-120625939D02*
X107300828Y-120340225D01*
X107300828Y-120340225D02*
X107229400Y-120197367D01*
X107229400Y-120197367D02*
X107086542Y-120125939D01*
X107086542Y-120125939D02*
X106515114Y-120125939D01*
X106515114Y-120125939D02*
X106372257Y-120197367D01*
X106372257Y-120197367D02*
X106300828Y-120340225D01*
X106300828Y-120340225D02*
X106300828Y-120625939D01*
X106300828Y-120625939D02*
X106372257Y-120768796D01*
X106372257Y-120768796D02*
X106515114Y-120840225D01*
X106515114Y-120840225D02*
X106657971Y-120840225D01*
X106657971Y-120840225D02*
X106800828Y-120125939D01*
X107229400Y-121411653D02*
X107300828Y-121554510D01*
X107300828Y-121554510D02*
X107300828Y-121840224D01*
X107300828Y-121840224D02*
X107229400Y-121983081D01*
X107229400Y-121983081D02*
X107086542Y-122054510D01*
X107086542Y-122054510D02*
X107015114Y-122054510D01*
X107015114Y-122054510D02*
X106872257Y-121983081D01*
X106872257Y-121983081D02*
X106800828Y-121840224D01*
X106800828Y-121840224D02*
X106800828Y-121625939D01*
X106800828Y-121625939D02*
X106729400Y-121483081D01*
X106729400Y-121483081D02*
X106586542Y-121411653D01*
X106586542Y-121411653D02*
X106515114Y-121411653D01*
X106515114Y-121411653D02*
X106372257Y-121483081D01*
X106372257Y-121483081D02*
X106300828Y-121625939D01*
X106300828Y-121625939D02*
X106300828Y-121840224D01*
X106300828Y-121840224D02*
X106372257Y-121983081D01*
X107300828Y-122697367D02*
X106300828Y-122697367D01*
X105800828Y-122697367D02*
X105872257Y-122625939D01*
X105872257Y-122625939D02*
X105943685Y-122697367D01*
X105943685Y-122697367D02*
X105872257Y-122768796D01*
X105872257Y-122768796D02*
X105800828Y-122697367D01*
X105800828Y-122697367D02*
X105943685Y-122697367D01*
X106300828Y-124054511D02*
X107515114Y-124054511D01*
X107515114Y-124054511D02*
X107657971Y-123983082D01*
X107657971Y-123983082D02*
X107729400Y-123911653D01*
X107729400Y-123911653D02*
X107800828Y-123768796D01*
X107800828Y-123768796D02*
X107800828Y-123554511D01*
X107800828Y-123554511D02*
X107729400Y-123411653D01*
X107229400Y-124054511D02*
X107300828Y-123911653D01*
X107300828Y-123911653D02*
X107300828Y-123625939D01*
X107300828Y-123625939D02*
X107229400Y-123483082D01*
X107229400Y-123483082D02*
X107157971Y-123411653D01*
X107157971Y-123411653D02*
X107015114Y-123340225D01*
X107015114Y-123340225D02*
X106586542Y-123340225D01*
X106586542Y-123340225D02*
X106443685Y-123411653D01*
X106443685Y-123411653D02*
X106372257Y-123483082D01*
X106372257Y-123483082D02*
X106300828Y-123625939D01*
X106300828Y-123625939D02*
X106300828Y-123911653D01*
X106300828Y-123911653D02*
X106372257Y-124054511D01*
X106300828Y-124768796D02*
X107300828Y-124768796D01*
X106443685Y-124768796D02*
X106372257Y-124840225D01*
X106372257Y-124840225D02*
X106300828Y-124983082D01*
X106300828Y-124983082D02*
X106300828Y-125197368D01*
X106300828Y-125197368D02*
X106372257Y-125340225D01*
X106372257Y-125340225D02*
X106515114Y-125411654D01*
X106515114Y-125411654D02*
X107300828Y-125411654D01*
X106300828Y-127125939D02*
X107300828Y-127483082D01*
X107300828Y-127483082D02*
X106300828Y-127840225D01*
X105800828Y-128268796D02*
X105800828Y-129197368D01*
X105800828Y-129197368D02*
X106372257Y-128697368D01*
X106372257Y-128697368D02*
X106372257Y-128911653D01*
X106372257Y-128911653D02*
X106443685Y-129054511D01*
X106443685Y-129054511D02*
X106515114Y-129125939D01*
X106515114Y-129125939D02*
X106657971Y-129197368D01*
X106657971Y-129197368D02*
X107015114Y-129197368D01*
X107015114Y-129197368D02*
X107157971Y-129125939D01*
X107157971Y-129125939D02*
X107229400Y-129054511D01*
X107229400Y-129054511D02*
X107300828Y-128911653D01*
X107300828Y-128911653D02*
X107300828Y-128483082D01*
X107300828Y-128483082D02*
X107229400Y-128340225D01*
X107229400Y-128340225D02*
X107157971Y-128268796D01*
X107157971Y-129840224D02*
X107229400Y-129911653D01*
X107229400Y-129911653D02*
X107300828Y-129840224D01*
X107300828Y-129840224D02*
X107229400Y-129768796D01*
X107229400Y-129768796D02*
X107157971Y-129840224D01*
X107157971Y-129840224D02*
X107300828Y-129840224D01*
X105943685Y-130483082D02*
X105872257Y-130554510D01*
X105872257Y-130554510D02*
X105800828Y-130697368D01*
X105800828Y-130697368D02*
X105800828Y-131054510D01*
X105800828Y-131054510D02*
X105872257Y-131197368D01*
X105872257Y-131197368D02*
X105943685Y-131268796D01*
X105943685Y-131268796D02*
X106086542Y-131340225D01*
X106086542Y-131340225D02*
X106229400Y-131340225D01*
X106229400Y-131340225D02*
X106443685Y-131268796D01*
X106443685Y-131268796D02*
X107300828Y-130411653D01*
X107300828Y-130411653D02*
X107300828Y-131340225D01*
D12*
X122000000Y-89000000D03*
D13*
X116574267Y-96750000D03*
D12*
X116574267Y-94210000D03*
X116574267Y-91670000D03*
D13*
X125750000Y-82250000D03*
D12*
X125750000Y-79710000D03*
X125750000Y-77170000D03*
D14*
X141250000Y-84500000D03*
D12*
X141250000Y-82000000D03*
D13*
X116574267Y-125080000D03*
D12*
X116574267Y-122540000D03*
X116574267Y-120000000D03*
D13*
X112648533Y-96750000D03*
D12*
X112648533Y-94210000D03*
X112648533Y-91670000D03*
D13*
X112648533Y-125080000D03*
D12*
X112648533Y-122540000D03*
X112648533Y-120000000D03*
X108000000Y-58000000D03*
X108000000Y-63000000D03*
X116200000Y-70800000D03*
D14*
X131350000Y-60200000D03*
D12*
X131350000Y-57700000D03*
D13*
X120500000Y-111080000D03*
D12*
X120500000Y-108540000D03*
X120500000Y-106000000D03*
D13*
X121250000Y-82250000D03*
D12*
X121250000Y-79710000D03*
X121250000Y-77170000D03*
D13*
X126000000Y-91840000D03*
D15*
X126000000Y-94380000D03*
X126000000Y-96920000D03*
X126000000Y-99460000D03*
X126000000Y-102000000D03*
X126000000Y-104540000D03*
X126000000Y-107080000D03*
X126000000Y-109620000D03*
X126000000Y-112160000D03*
X126000000Y-114700000D03*
X126000000Y-117240000D03*
X126000000Y-119780000D03*
X126000000Y-122320000D03*
X126000000Y-124860000D03*
X126000000Y-127400000D03*
X141240000Y-127400000D03*
X141240000Y-124860000D03*
X141240000Y-122320000D03*
X141240000Y-119780000D03*
X141240000Y-117240000D03*
X141240000Y-114700000D03*
X141240000Y-112160000D03*
X141240000Y-109620000D03*
X141240000Y-107080000D03*
X141240000Y-104540000D03*
X141240000Y-102000000D03*
X141240000Y-99460000D03*
X141240000Y-96920000D03*
X141240000Y-94380000D03*
X141240000Y-91840000D03*
D12*
X131500000Y-69750000D03*
X131500000Y-67210000D03*
D13*
X120500000Y-125080000D03*
D12*
X120500000Y-122540000D03*
X120500000Y-120000000D03*
X112000000Y-70800000D03*
D13*
X130500000Y-82250000D03*
D12*
X130500000Y-79710000D03*
X130500000Y-77170000D03*
D13*
X135000000Y-82250000D03*
D12*
X135000000Y-79710000D03*
X135000000Y-77170000D03*
D13*
X116574267Y-111080000D03*
D12*
X116574267Y-108540000D03*
X116574267Y-106000000D03*
X122000000Y-95200000D03*
D14*
X120600000Y-60200000D03*
D12*
X120600000Y-57700000D03*
D13*
X123960000Y-68750000D03*
D12*
X126500000Y-68750000D03*
D13*
X112648533Y-111080000D03*
D12*
X112648533Y-108540000D03*
X112648533Y-106000000D03*
D16*
X124840000Y-91840000D02*
X126000000Y-91840000D01*
X122000000Y-89000000D02*
X124840000Y-91840000D01*
X125000000Y-102000000D02*
X126000000Y-102000000D01*
X116574267Y-96750000D02*
X119750000Y-96750000D01*
X119750000Y-96750000D02*
X125000000Y-102000000D01*
X141250000Y-84500000D02*
X140950000Y-84500000D01*
X118090000Y-79710000D02*
X121250000Y-79710000D01*
X116200000Y-63600000D02*
X116200000Y-70800000D01*
D17*
X135000000Y-79710000D02*
X135710000Y-79710000D01*
D16*
X131350000Y-60200000D02*
X120600000Y-60200000D01*
X112600000Y-94400000D02*
X112648533Y-94351467D01*
D17*
X121460000Y-108540000D02*
X123000000Y-107000000D01*
D16*
X141240000Y-84510000D02*
X141250000Y-84500000D01*
D17*
X111888533Y-108540000D02*
X112648533Y-108540000D01*
X113500000Y-101000000D02*
X110500000Y-98000000D01*
D16*
X116200000Y-81600000D02*
X118090000Y-79710000D01*
D17*
X114500000Y-116500000D02*
X110500000Y-112500000D01*
D16*
X116200000Y-81600000D02*
X116200000Y-84600000D01*
D17*
X120500000Y-122540000D02*
X121960000Y-122540000D01*
X110500000Y-109928533D02*
X111888533Y-108540000D01*
X140500000Y-84500000D02*
X141250000Y-84500000D01*
X123500000Y-121000000D02*
X123500000Y-118000000D01*
D16*
X119600000Y-88000000D02*
X119600000Y-93200000D01*
X116200000Y-84600000D02*
X119600000Y-88000000D01*
D17*
X111446452Y-94210000D02*
X112648533Y-94210000D01*
D16*
X141240000Y-91840000D02*
X141240000Y-84510000D01*
D17*
X116574267Y-108540000D02*
X120500000Y-108540000D01*
X112648533Y-122540000D02*
X116574267Y-122540000D01*
X135710000Y-79710000D02*
X140500000Y-84500000D01*
X123500000Y-118000000D02*
X122000000Y-116500000D01*
D16*
X118590000Y-94210000D02*
X116574267Y-94210000D01*
X120600000Y-60200000D02*
X119600000Y-60200000D01*
D17*
X110500000Y-112500000D02*
X110500000Y-109928533D01*
X130500000Y-79710000D02*
X125750000Y-79710000D01*
D16*
X120420000Y-122540000D02*
X120500000Y-122460000D01*
D17*
X110500000Y-98000000D02*
X110500000Y-95156452D01*
X120500000Y-108540000D02*
X121460000Y-108540000D01*
X119000000Y-101000000D02*
X113500000Y-101000000D01*
X123000000Y-105000000D02*
X119000000Y-101000000D01*
X116574267Y-122540000D02*
X120500000Y-122540000D01*
X123000000Y-107000000D02*
X123000000Y-105000000D01*
X122000000Y-116500000D02*
X114500000Y-116500000D01*
X112648533Y-108540000D02*
X116574267Y-108540000D01*
X110500000Y-95156452D02*
X111446452Y-94210000D01*
D16*
X119600000Y-93200000D02*
X118590000Y-94210000D01*
D17*
X121960000Y-122540000D02*
X123500000Y-121000000D01*
X135000000Y-79710000D02*
X130500000Y-79710000D01*
X112648533Y-94210000D02*
X116574267Y-94210000D01*
X125750000Y-79710000D02*
X121250000Y-79710000D01*
D16*
X119600000Y-60200000D02*
X116200000Y-63600000D01*
X116200000Y-70800000D02*
X116200000Y-81600000D01*
X125750000Y-82250000D02*
X134200000Y-90700000D01*
X129760000Y-117240000D02*
X126000000Y-117240000D01*
X134200000Y-112800000D02*
X129760000Y-117240000D01*
X134200000Y-90700000D02*
X134200000Y-112800000D01*
X116574267Y-125080000D02*
X116574267Y-126574267D01*
X125900000Y-127500000D02*
X126000000Y-127400000D01*
X117500000Y-127500000D02*
X125900000Y-127500000D01*
X116574267Y-126574267D02*
X117500000Y-127500000D01*
X124940000Y-104540000D02*
X119400000Y-99000000D01*
X126000000Y-104540000D02*
X124940000Y-104540000D01*
X114898533Y-99000000D02*
X112648533Y-96750000D01*
X119400000Y-99000000D02*
X114898533Y-99000000D01*
X116000000Y-130000000D02*
X112648533Y-126648533D01*
X138640000Y-130000000D02*
X116000000Y-130000000D01*
X112648533Y-126648533D02*
X112648533Y-125080000D01*
X141240000Y-127400000D02*
X138640000Y-130000000D01*
X112000000Y-70800000D02*
X112000000Y-64500000D01*
X110500000Y-63000000D02*
X108000000Y-63000000D01*
X112000000Y-64500000D02*
X110500000Y-63000000D01*
X125320000Y-107080000D02*
X126000000Y-107080000D01*
X120500000Y-111080000D02*
X121320000Y-111080000D01*
X121320000Y-111080000D02*
X125320000Y-107080000D01*
X121250000Y-82250000D02*
X132200000Y-93200000D01*
X132200000Y-112000000D02*
X129500000Y-114700000D01*
X129500000Y-114700000D02*
X126000000Y-114700000D01*
X132200000Y-93200000D02*
X132200000Y-112000000D01*
X126000000Y-94380000D02*
X122820000Y-94380000D01*
X122820000Y-94380000D02*
X122000000Y-95200000D01*
X121750000Y-113250000D02*
X125380000Y-109620000D01*
X116574267Y-111080000D02*
X118744267Y-113250000D01*
X118744267Y-113250000D02*
X121750000Y-113250000D01*
X125380000Y-109620000D02*
X126000000Y-109620000D01*
X126000000Y-112160000D02*
X125340000Y-112160000D01*
X125340000Y-112160000D02*
X122500000Y-115000000D01*
X116568533Y-115000000D02*
X112648533Y-111080000D01*
X122500000Y-115000000D02*
X116568533Y-115000000D01*
X136200000Y-88600000D02*
X136200000Y-113600000D01*
X130500000Y-82250000D02*
X130500000Y-82900000D01*
X136200000Y-113600000D02*
X130020000Y-119780000D01*
X130020000Y-119780000D02*
X126000000Y-119780000D01*
X130500000Y-82900000D02*
X136200000Y-88600000D01*
X138200000Y-86800000D02*
X135000000Y-83600000D01*
X135000000Y-83600000D02*
X135000000Y-82250000D01*
X126000000Y-122320000D02*
X130280000Y-122320000D01*
X130280000Y-122320000D02*
X138200000Y-114400000D01*
X138200000Y-114400000D02*
X138200000Y-86800000D01*
X120500000Y-125080000D02*
X125780000Y-125080000D01*
X125780000Y-125080000D02*
X126000000Y-124860000D01*
X138754187Y-74254187D02*
X136004187Y-74254187D01*
X141240000Y-124860000D02*
X143140000Y-124860000D01*
X144500000Y-80000000D02*
X138754187Y-74254187D01*
X136004187Y-74254187D02*
X131500000Y-69750000D01*
X144500000Y-123500000D02*
X144500000Y-80000000D01*
X143140000Y-124860000D02*
X144500000Y-123500000D01*
X128040000Y-67210000D02*
X126500000Y-68750000D01*
X131500000Y-67210000D02*
X128040000Y-67210000D01*
G04 #@! TA.AperFunction,Conductor*
G36*
X146563681Y-50436319D02*
G01*
X146600000Y-50524000D01*
X146600000Y-134476000D01*
X146563681Y-134563681D01*
X146476000Y-134600000D01*
X103524000Y-134600000D01*
X103436319Y-134563681D01*
X103400000Y-134476000D01*
X103400000Y-132105544D01*
X105035509Y-132105544D01*
X108566147Y-132105544D01*
X108566147Y-119681738D01*
X111048533Y-119681738D01*
X111048533Y-120318261D01*
X111292118Y-120906327D01*
X111340385Y-120954594D01*
X112294979Y-120000000D01*
X112212136Y-119917157D01*
X112448533Y-119917157D01*
X112448533Y-120082843D01*
X112565690Y-120200000D01*
X112731376Y-120200000D01*
X112848533Y-120082843D01*
X112848533Y-120000000D01*
X113002087Y-120000000D01*
X113956681Y-120954594D01*
X114004946Y-120906328D01*
X114004947Y-120906327D01*
X114248532Y-120318261D01*
X114248533Y-120318258D01*
X114248533Y-119681741D01*
X114248532Y-119681738D01*
X114974267Y-119681738D01*
X114974267Y-120318261D01*
X115217852Y-120906327D01*
X115266119Y-120954594D01*
X116220713Y-120000000D01*
X116137870Y-119917157D01*
X116374267Y-119917157D01*
X116374267Y-120082843D01*
X116491424Y-120200000D01*
X116657110Y-120200000D01*
X116774267Y-120082843D01*
X116774267Y-120000000D01*
X116927821Y-120000000D01*
X117882415Y-120954594D01*
X117930680Y-120906328D01*
X117930681Y-120906327D01*
X118174266Y-120318261D01*
X118174267Y-120318258D01*
X118174267Y-119681741D01*
X118174266Y-119681738D01*
X118900000Y-119681738D01*
X118900000Y-120318261D01*
X119143585Y-120906327D01*
X119191852Y-120954594D01*
X120146446Y-120000000D01*
X120063603Y-119917157D01*
X120300000Y-119917157D01*
X120300000Y-120082843D01*
X120417157Y-120200000D01*
X120582843Y-120200000D01*
X120700000Y-120082843D01*
X120700000Y-120000000D01*
X120853554Y-120000000D01*
X121808148Y-120954594D01*
X121856413Y-120906328D01*
X121856414Y-120906327D01*
X122099999Y-120318261D01*
X122100000Y-120318258D01*
X122100000Y-119681741D01*
X122099999Y-119681738D01*
X121856414Y-119093672D01*
X121808148Y-119045406D01*
X120853554Y-120000000D01*
X120700000Y-120000000D01*
X120700000Y-119917157D01*
X120582843Y-119800000D01*
X120417157Y-119800000D01*
X120300000Y-119917157D01*
X120063603Y-119917157D01*
X119191852Y-119045406D01*
X119143586Y-119093671D01*
X119143585Y-119093672D01*
X118900000Y-119681738D01*
X118174266Y-119681738D01*
X117930681Y-119093672D01*
X117882415Y-119045406D01*
X116927821Y-120000000D01*
X116774267Y-120000000D01*
X116774267Y-119917157D01*
X116657110Y-119800000D01*
X116491424Y-119800000D01*
X116374267Y-119917157D01*
X116137870Y-119917157D01*
X115266119Y-119045406D01*
X115217853Y-119093671D01*
X115217852Y-119093672D01*
X114974267Y-119681738D01*
X114248532Y-119681738D01*
X114004947Y-119093672D01*
X113956681Y-119045406D01*
X113002087Y-120000000D01*
X112848533Y-120000000D01*
X112848533Y-119917157D01*
X112731376Y-119800000D01*
X112565690Y-119800000D01*
X112448533Y-119917157D01*
X112212136Y-119917157D01*
X111340385Y-119045406D01*
X111292119Y-119093671D01*
X111292118Y-119093672D01*
X111048533Y-119681738D01*
X108566147Y-119681738D01*
X108566147Y-118691852D01*
X111693939Y-118691852D01*
X112648533Y-119646446D01*
X113603127Y-118691852D01*
X115619673Y-118691852D01*
X116574267Y-119646446D01*
X117528861Y-118691852D01*
X119545406Y-118691852D01*
X120500000Y-119646446D01*
X121454594Y-118691852D01*
X121406327Y-118643585D01*
X120818261Y-118400000D01*
X120181738Y-118400000D01*
X119593672Y-118643585D01*
X119593671Y-118643586D01*
X119545406Y-118691852D01*
X117528861Y-118691852D01*
X117480594Y-118643585D01*
X116892528Y-118400000D01*
X116256005Y-118400000D01*
X115667939Y-118643585D01*
X115667938Y-118643586D01*
X115619673Y-118691852D01*
X113603127Y-118691852D01*
X113554860Y-118643585D01*
X112966794Y-118400000D01*
X112330271Y-118400000D01*
X111742205Y-118643585D01*
X111742204Y-118643586D01*
X111693939Y-118691852D01*
X108566147Y-118691852D01*
X108566147Y-112296010D01*
X105035509Y-112296010D01*
X105035509Y-132105544D01*
X103400000Y-132105544D01*
X103400000Y-105681738D01*
X111048533Y-105681738D01*
X111048533Y-106318261D01*
X111292118Y-106906327D01*
X111340385Y-106954594D01*
X112294979Y-106000000D01*
X112212136Y-105917157D01*
X112448533Y-105917157D01*
X112448533Y-106082843D01*
X112565690Y-106200000D01*
X112731376Y-106200000D01*
X112848533Y-106082843D01*
X112848533Y-106000000D01*
X113002087Y-106000000D01*
X113956681Y-106954594D01*
X114004946Y-106906328D01*
X114004947Y-106906327D01*
X114248532Y-106318261D01*
X114248533Y-106318258D01*
X114248533Y-105681741D01*
X114248532Y-105681738D01*
X114974267Y-105681738D01*
X114974267Y-106318261D01*
X115217852Y-106906327D01*
X115266119Y-106954594D01*
X116220713Y-106000000D01*
X116137870Y-105917157D01*
X116374267Y-105917157D01*
X116374267Y-106082843D01*
X116491424Y-106200000D01*
X116657110Y-106200000D01*
X116774267Y-106082843D01*
X116774267Y-106000000D01*
X116927821Y-106000000D01*
X117882415Y-106954594D01*
X117930680Y-106906328D01*
X117930681Y-106906327D01*
X118174266Y-106318261D01*
X118174267Y-106318258D01*
X118174267Y-105681741D01*
X118174266Y-105681738D01*
X118900000Y-105681738D01*
X118900000Y-106318261D01*
X119143585Y-106906327D01*
X119191852Y-106954594D01*
X120146446Y-106000000D01*
X119191852Y-105045406D01*
X119143586Y-105093671D01*
X119143585Y-105093672D01*
X118900000Y-105681738D01*
X118174266Y-105681738D01*
X117930681Y-105093672D01*
X117882415Y-105045406D01*
X116927821Y-106000000D01*
X116774267Y-106000000D01*
X116774267Y-105917157D01*
X116657110Y-105800000D01*
X116491424Y-105800000D01*
X116374267Y-105917157D01*
X116137870Y-105917157D01*
X115266119Y-105045406D01*
X115217853Y-105093671D01*
X115217852Y-105093672D01*
X114974267Y-105681738D01*
X114248532Y-105681738D01*
X114004947Y-105093672D01*
X113956681Y-105045406D01*
X113002087Y-106000000D01*
X112848533Y-106000000D01*
X112848533Y-105917157D01*
X112731376Y-105800000D01*
X112565690Y-105800000D01*
X112448533Y-105917157D01*
X112212136Y-105917157D01*
X111340385Y-105045406D01*
X111292119Y-105093671D01*
X111292118Y-105093672D01*
X111048533Y-105681738D01*
X103400000Y-105681738D01*
X103400000Y-104691852D01*
X111693939Y-104691852D01*
X112648533Y-105646446D01*
X113603127Y-104691852D01*
X115619673Y-104691852D01*
X116574267Y-105646446D01*
X117528861Y-104691852D01*
X117480594Y-104643585D01*
X116892528Y-104400000D01*
X116256005Y-104400000D01*
X115667939Y-104643585D01*
X115667938Y-104643586D01*
X115619673Y-104691852D01*
X113603127Y-104691852D01*
X113554860Y-104643585D01*
X112966794Y-104400000D01*
X112330271Y-104400000D01*
X111742205Y-104643585D01*
X111742204Y-104643586D01*
X111693939Y-104691852D01*
X103400000Y-104691852D01*
X103400000Y-103748400D01*
X105035509Y-103748400D01*
X108559328Y-103748400D01*
X108559328Y-94821559D01*
X109691500Y-94821559D01*
X109691500Y-98334892D01*
X110182548Y-98825940D01*
X110182550Y-98825941D01*
X112674058Y-101317449D01*
X112674059Y-101317451D01*
X112691500Y-101334892D01*
X113165108Y-101808500D01*
X113165109Y-101808500D01*
X113834892Y-101808500D01*
X118613747Y-101808500D01*
X118701428Y-101844819D01*
X121125765Y-104269156D01*
X121162084Y-104356837D01*
X121125765Y-104444518D01*
X121038084Y-104480837D01*
X120990631Y-104471398D01*
X120818261Y-104400000D01*
X120181738Y-104400000D01*
X119593672Y-104643585D01*
X119593671Y-104643586D01*
X119545406Y-104691852D01*
X120589096Y-105735542D01*
X120625415Y-105823223D01*
X120619747Y-105836904D01*
X120582843Y-105800000D01*
X120417157Y-105800000D01*
X120300000Y-105917157D01*
X120300000Y-106082843D01*
X120417157Y-106200000D01*
X120582843Y-106200000D01*
X120619747Y-106163095D01*
X120625414Y-106176776D01*
X120589095Y-106264457D01*
X119757063Y-107096489D01*
X119716836Y-107123369D01*
X119588856Y-107176381D01*
X119136381Y-107628856D01*
X119136378Y-107628860D01*
X119125570Y-107654954D01*
X119058461Y-107722062D01*
X119011010Y-107731500D01*
X118063257Y-107731500D01*
X117975576Y-107695181D01*
X117948697Y-107654954D01*
X117937888Y-107628860D01*
X117937887Y-107628859D01*
X117937887Y-107628858D01*
X117485409Y-107176380D01*
X117357430Y-107123369D01*
X117317202Y-107096489D01*
X116574267Y-106353554D01*
X115831330Y-107096489D01*
X115791103Y-107123369D01*
X115663123Y-107176381D01*
X115210648Y-107628856D01*
X115210645Y-107628860D01*
X115199837Y-107654954D01*
X115132728Y-107722062D01*
X115085277Y-107731500D01*
X114137523Y-107731500D01*
X114049842Y-107695181D01*
X114022963Y-107654954D01*
X114012154Y-107628860D01*
X114012153Y-107628859D01*
X114012153Y-107628858D01*
X113559675Y-107176380D01*
X113431696Y-107123369D01*
X113391468Y-107096489D01*
X112648533Y-106353554D01*
X111905596Y-107096489D01*
X111865369Y-107123369D01*
X111737389Y-107176381D01*
X111284913Y-107628857D01*
X111035359Y-108231334D01*
X111032707Y-108230235D01*
X111007212Y-108277928D01*
X110182550Y-109102591D01*
X109691500Y-109593640D01*
X109691500Y-112834892D01*
X110182548Y-113325940D01*
X110182550Y-113325941D01*
X113674058Y-116817449D01*
X113674059Y-116817451D01*
X113691500Y-116834892D01*
X114165108Y-117308500D01*
X121613747Y-117308500D01*
X121701428Y-117344819D01*
X122655181Y-118298572D01*
X122691500Y-118386253D01*
X122691500Y-120613746D01*
X122655181Y-120701427D01*
X121883366Y-121473242D01*
X121795685Y-121509561D01*
X121708004Y-121473242D01*
X121411142Y-121176380D01*
X121283163Y-121123369D01*
X121242935Y-121096489D01*
X120500000Y-120353554D01*
X119757063Y-121096489D01*
X119716836Y-121123369D01*
X119588856Y-121176381D01*
X119136381Y-121628856D01*
X119136378Y-121628860D01*
X119125570Y-121654954D01*
X119058461Y-121722062D01*
X119011010Y-121731500D01*
X118063257Y-121731500D01*
X117975576Y-121695181D01*
X117948697Y-121654954D01*
X117937888Y-121628860D01*
X117937887Y-121628859D01*
X117937887Y-121628858D01*
X117485409Y-121176380D01*
X117357430Y-121123369D01*
X117317202Y-121096489D01*
X116574267Y-120353554D01*
X115831330Y-121096489D01*
X115791103Y-121123369D01*
X115663123Y-121176381D01*
X115210648Y-121628856D01*
X115210645Y-121628860D01*
X115199837Y-121654954D01*
X115132728Y-121722062D01*
X115085277Y-121731500D01*
X114137523Y-121731500D01*
X114049842Y-121695181D01*
X114022963Y-121654954D01*
X114012154Y-121628860D01*
X114012153Y-121628859D01*
X114012153Y-121628858D01*
X113559675Y-121176380D01*
X113431696Y-121123369D01*
X113391468Y-121096489D01*
X112648533Y-120353554D01*
X111905596Y-121096489D01*
X111865369Y-121123369D01*
X111737389Y-121176381D01*
X111284913Y-121628857D01*
X111040033Y-122220048D01*
X111040033Y-122859951D01*
X111132119Y-123082266D01*
X111276270Y-123430277D01*
X111276282Y-123430304D01*
X111276282Y-123525210D01*
X111230613Y-123580858D01*
X111181929Y-123613388D01*
X111181924Y-123613392D01*
X111069537Y-123781593D01*
X111069535Y-123781597D01*
X111040033Y-123929913D01*
X111040033Y-126230086D01*
X111069535Y-126378402D01*
X111069536Y-126378405D01*
X111069537Y-126378407D01*
X111181925Y-126546608D01*
X111350126Y-126658996D01*
X111350129Y-126658996D01*
X111350130Y-126658997D01*
X111498446Y-126688499D01*
X111498449Y-126688500D01*
X111498451Y-126688500D01*
X111516033Y-126688500D01*
X111603714Y-126724819D01*
X111640033Y-126812500D01*
X111640033Y-127066268D01*
X112248238Y-127674473D01*
X112248240Y-127674474D01*
X114974058Y-130400292D01*
X114974059Y-130400294D01*
X114991500Y-130417735D01*
X115582265Y-131008500D01*
X139057735Y-131008500D01*
X139648500Y-130417735D01*
X139648500Y-130417734D01*
X141021415Y-129044819D01*
X141109096Y-129008500D01*
X141559948Y-129008500D01*
X141559950Y-129008500D01*
X142151142Y-128763620D01*
X142603620Y-128311142D01*
X142848500Y-127719950D01*
X142848500Y-127080050D01*
X142603620Y-126488858D01*
X142332443Y-126217681D01*
X142296124Y-126130000D01*
X142332443Y-126042319D01*
X142469943Y-125904819D01*
X142557624Y-125868500D01*
X143557735Y-125868500D01*
X144148500Y-125277735D01*
X144148500Y-125277734D01*
X144917734Y-124508500D01*
X144917735Y-124508500D01*
X145508500Y-123917735D01*
X145508500Y-80442401D01*
X145508501Y-80442396D01*
X145508501Y-79582266D01*
X139171922Y-73245687D01*
X136473283Y-73245687D01*
X136385602Y-73209368D01*
X134739639Y-71563405D01*
X138940291Y-71563405D01*
X143603580Y-71563405D01*
X143603580Y-52660620D01*
X138940291Y-52660620D01*
X138940291Y-71563405D01*
X134739639Y-71563405D01*
X133144819Y-69968585D01*
X133108500Y-69880904D01*
X133108500Y-69430051D01*
X133108499Y-69430048D01*
X132959342Y-69069951D01*
X132863620Y-68838858D01*
X132592443Y-68567681D01*
X132556124Y-68480000D01*
X132592443Y-68392319D01*
X132863620Y-68121142D01*
X133108500Y-67529950D01*
X133108500Y-66890050D01*
X132863620Y-66298858D01*
X132411142Y-65846380D01*
X131819951Y-65601500D01*
X131819950Y-65601500D01*
X131180050Y-65601500D01*
X131180048Y-65601500D01*
X130588857Y-65846380D01*
X130588856Y-65846381D01*
X130270057Y-66165181D01*
X130182376Y-66201500D01*
X128482401Y-66201500D01*
X128482397Y-66201499D01*
X128457734Y-66201499D01*
X127622266Y-66201499D01*
X127622265Y-66201499D01*
X126718584Y-67105181D01*
X126630903Y-67141500D01*
X126180048Y-67141500D01*
X125601688Y-67381065D01*
X125506782Y-67381065D01*
X125451133Y-67335395D01*
X125420480Y-67289520D01*
X125255089Y-67179010D01*
X125255085Y-67179008D01*
X125109251Y-67150000D01*
X124210000Y-67150000D01*
X124210000Y-70350000D01*
X125109250Y-70350000D01*
X125109252Y-70349999D01*
X125255085Y-70320991D01*
X125255089Y-70320989D01*
X125420478Y-70210480D01*
X125451130Y-70164605D01*
X125530040Y-70111877D01*
X125601683Y-70118932D01*
X126180050Y-70358500D01*
X126180052Y-70358500D01*
X126819948Y-70358500D01*
X126819950Y-70358500D01*
X127411142Y-70113620D01*
X127863620Y-69661142D01*
X128108500Y-69069950D01*
X128108500Y-68619096D01*
X128144819Y-68531415D01*
X128421416Y-68254819D01*
X128509097Y-68218500D01*
X130182376Y-68218500D01*
X130270057Y-68254819D01*
X130407557Y-68392319D01*
X130443876Y-68480000D01*
X130407557Y-68567681D01*
X130136381Y-68838856D01*
X130136380Y-68838857D01*
X129891500Y-69430048D01*
X129891500Y-70069951D01*
X130136380Y-70661142D01*
X130588858Y-71113620D01*
X131180050Y-71358500D01*
X131630904Y-71358500D01*
X131718585Y-71394819D01*
X134978245Y-74654479D01*
X134978246Y-74654481D01*
X134995687Y-74671922D01*
X135586452Y-75262687D01*
X135586453Y-75262687D01*
X136421921Y-75262687D01*
X138285091Y-75262687D01*
X138372772Y-75299006D01*
X143455181Y-80381415D01*
X143491500Y-80469096D01*
X143491500Y-123030904D01*
X143455181Y-123118585D01*
X142758585Y-123815181D01*
X142670904Y-123851500D01*
X142557624Y-123851500D01*
X142469943Y-123815181D01*
X142332443Y-123677681D01*
X142296124Y-123590000D01*
X142332443Y-123502319D01*
X142449943Y-123384819D01*
X142603620Y-123231142D01*
X142848500Y-122639950D01*
X142848500Y-122000050D01*
X142603620Y-121408858D01*
X142332443Y-121137681D01*
X142296124Y-121050000D01*
X142332443Y-120962319D01*
X142388435Y-120906327D01*
X142603620Y-120691142D01*
X142848500Y-120099950D01*
X142848500Y-119460050D01*
X142603620Y-118868858D01*
X142332443Y-118597681D01*
X142296124Y-118510000D01*
X142332443Y-118422319D01*
X142456190Y-118298572D01*
X142603620Y-118151142D01*
X142848500Y-117559950D01*
X142848500Y-116920050D01*
X142603620Y-116328858D01*
X142332443Y-116057681D01*
X142296124Y-115970000D01*
X142332443Y-115882319D01*
X142382262Y-115832500D01*
X142603620Y-115611142D01*
X142848500Y-115019950D01*
X142848500Y-114380050D01*
X142603620Y-113788858D01*
X142332443Y-113517681D01*
X142296124Y-113430000D01*
X142332443Y-113342319D01*
X142366262Y-113308500D01*
X142603620Y-113071142D01*
X142848500Y-112479950D01*
X142848500Y-111840050D01*
X142603620Y-111248858D01*
X142332443Y-110977681D01*
X142296124Y-110890000D01*
X142332443Y-110802319D01*
X142603620Y-110531142D01*
X142848500Y-109939950D01*
X142848500Y-109300050D01*
X142603620Y-108708858D01*
X142332443Y-108437681D01*
X142296124Y-108350000D01*
X142332443Y-108262319D01*
X142374712Y-108220050D01*
X142603620Y-107991142D01*
X142848500Y-107399950D01*
X142848500Y-106760050D01*
X142603620Y-106168858D01*
X142332443Y-105897681D01*
X142296124Y-105810000D01*
X142332443Y-105722319D01*
X142408316Y-105646446D01*
X142603620Y-105451142D01*
X142848500Y-104859950D01*
X142848500Y-104220050D01*
X142603620Y-103628858D01*
X142332443Y-103357681D01*
X142296124Y-103270000D01*
X142332443Y-103182319D01*
X142603620Y-102911142D01*
X142848500Y-102319950D01*
X142848500Y-101680050D01*
X142603620Y-101088858D01*
X142332443Y-100817681D01*
X142296124Y-100730000D01*
X142332443Y-100642319D01*
X142603620Y-100371142D01*
X142848500Y-99779950D01*
X142848500Y-99140050D01*
X142603620Y-98548858D01*
X142332443Y-98277681D01*
X142296124Y-98190000D01*
X142332443Y-98102319D01*
X142443262Y-97991500D01*
X142603620Y-97831142D01*
X142848500Y-97239950D01*
X142848500Y-96600050D01*
X142603620Y-96008858D01*
X142326433Y-95731671D01*
X142290114Y-95643990D01*
X142326433Y-95556309D01*
X142596413Y-95286328D01*
X142596414Y-95286327D01*
X142839999Y-94698261D01*
X142840000Y-94698258D01*
X142840000Y-94630000D01*
X139640000Y-94630000D01*
X139640000Y-94698261D01*
X139883585Y-95286327D01*
X140153567Y-95556309D01*
X140189886Y-95643990D01*
X140153567Y-95731671D01*
X139876381Y-96008856D01*
X139876380Y-96008857D01*
X139631500Y-96600048D01*
X139631500Y-97239951D01*
X139876380Y-97831142D01*
X140147557Y-98102319D01*
X140183876Y-98190000D01*
X140147557Y-98277681D01*
X139876381Y-98548856D01*
X139876380Y-98548857D01*
X139631500Y-99140048D01*
X139631500Y-99779951D01*
X139876380Y-100371142D01*
X140147557Y-100642319D01*
X140183876Y-100730000D01*
X140147557Y-100817681D01*
X139876381Y-101088856D01*
X139876380Y-101088857D01*
X139631500Y-101680048D01*
X139631500Y-102319951D01*
X139876380Y-102911142D01*
X140147557Y-103182319D01*
X140183876Y-103270000D01*
X140147557Y-103357681D01*
X139876381Y-103628856D01*
X139876380Y-103628857D01*
X139631500Y-104220048D01*
X139631500Y-104859951D01*
X139876380Y-105451142D01*
X140147557Y-105722319D01*
X140183876Y-105810000D01*
X140147557Y-105897681D01*
X139876381Y-106168856D01*
X139876380Y-106168857D01*
X139631500Y-106760048D01*
X139631500Y-107399951D01*
X139876380Y-107991142D01*
X140147557Y-108262319D01*
X140183876Y-108350000D01*
X140147557Y-108437681D01*
X139876381Y-108708856D01*
X139876380Y-108708857D01*
X139631500Y-109300048D01*
X139631500Y-109939951D01*
X139876380Y-110531142D01*
X140147557Y-110802319D01*
X140183876Y-110890000D01*
X140147557Y-110977681D01*
X139876381Y-111248856D01*
X139876380Y-111248857D01*
X139631500Y-111840048D01*
X139631500Y-112479951D01*
X139876380Y-113071142D01*
X140147557Y-113342319D01*
X140183876Y-113430000D01*
X140147557Y-113517681D01*
X139876381Y-113788856D01*
X139876380Y-113788857D01*
X139631500Y-114380048D01*
X139631500Y-115019951D01*
X139876380Y-115611142D01*
X140147557Y-115882319D01*
X140183876Y-115970000D01*
X140147557Y-116057681D01*
X139876381Y-116328856D01*
X139876380Y-116328857D01*
X139631500Y-116920048D01*
X139631500Y-117559951D01*
X139876380Y-118151142D01*
X140147557Y-118422319D01*
X140183876Y-118510000D01*
X140147557Y-118597681D01*
X139876381Y-118868856D01*
X139876380Y-118868857D01*
X139631500Y-119460048D01*
X139631500Y-120099951D01*
X139876380Y-120691142D01*
X140147557Y-120962319D01*
X140183876Y-121050000D01*
X140147557Y-121137681D01*
X139876381Y-121408856D01*
X139876380Y-121408857D01*
X139631500Y-122000048D01*
X139631500Y-122639951D01*
X139876380Y-123231142D01*
X140147557Y-123502319D01*
X140183876Y-123590000D01*
X140147557Y-123677681D01*
X139876381Y-123948856D01*
X139876380Y-123948857D01*
X139631500Y-124540048D01*
X139631500Y-125179951D01*
X139876380Y-125771142D01*
X140147557Y-126042319D01*
X140183876Y-126130000D01*
X140147557Y-126217681D01*
X139876381Y-126488856D01*
X139876380Y-126488857D01*
X139631500Y-127080048D01*
X139631500Y-127530904D01*
X139595181Y-127618585D01*
X138258585Y-128955181D01*
X138170904Y-128991500D01*
X126978868Y-128991500D01*
X126891187Y-128955181D01*
X126854868Y-128867500D01*
X126891187Y-128779819D01*
X126909978Y-128764397D01*
X126911135Y-128763622D01*
X126911142Y-128763620D01*
X127363620Y-128311142D01*
X127608500Y-127719950D01*
X127608500Y-127080050D01*
X127363620Y-126488858D01*
X127092443Y-126217681D01*
X127056124Y-126130000D01*
X127092443Y-126042319D01*
X127363620Y-125771142D01*
X127608500Y-125179950D01*
X127608500Y-124540050D01*
X127363620Y-123948858D01*
X127092443Y-123677681D01*
X127056124Y-123590000D01*
X127092443Y-123502319D01*
X127229943Y-123364819D01*
X127317624Y-123328500D01*
X130697735Y-123328500D01*
X131288500Y-122737735D01*
X131288500Y-122737734D01*
X138617734Y-115408500D01*
X138617735Y-115408500D01*
X139208500Y-114817735D01*
X139208500Y-94297157D01*
X141040000Y-94297157D01*
X141040000Y-94462843D01*
X141157157Y-94580000D01*
X141322843Y-94580000D01*
X141440000Y-94462843D01*
X141440000Y-94297157D01*
X141322843Y-94180000D01*
X141157157Y-94180000D01*
X141040000Y-94297157D01*
X139208500Y-94297157D01*
X139208500Y-86382265D01*
X138617735Y-85791500D01*
X138600295Y-85774060D01*
X138600292Y-85774058D01*
X136569100Y-83742866D01*
X136532781Y-83655185D01*
X136553678Y-83586297D01*
X136578996Y-83548407D01*
X136608500Y-83400082D01*
X136608500Y-82051253D01*
X136644819Y-81963572D01*
X136732500Y-81927253D01*
X136820181Y-81963572D01*
X139605181Y-84748572D01*
X139641500Y-84836253D01*
X139641500Y-85340190D01*
X139641501Y-85340194D01*
X139690946Y-85588779D01*
X139690947Y-85588780D01*
X139690947Y-85588781D01*
X139690948Y-85588782D01*
X139879312Y-85870688D01*
X140161218Y-86059052D01*
X140171373Y-86065837D01*
X140168552Y-86070058D01*
X140222057Y-86123554D01*
X140231500Y-86171017D01*
X140231500Y-90522376D01*
X140195181Y-90610057D01*
X139876381Y-90928856D01*
X139876380Y-90928857D01*
X139631500Y-91520048D01*
X139631500Y-92159951D01*
X139876380Y-92751142D01*
X140153567Y-93028329D01*
X140189886Y-93116010D01*
X140153567Y-93203691D01*
X139883586Y-93473671D01*
X139883585Y-93473672D01*
X139640000Y-94061738D01*
X139640000Y-94130000D01*
X142840000Y-94130000D01*
X142840000Y-94061741D01*
X142839999Y-94061738D01*
X142596414Y-93473672D01*
X142326433Y-93203691D01*
X142290114Y-93116010D01*
X142326433Y-93028329D01*
X142364680Y-92990082D01*
X142603620Y-92751142D01*
X142848500Y-92159950D01*
X142848500Y-91520050D01*
X142603620Y-90928858D01*
X142284819Y-90610057D01*
X142248500Y-90522376D01*
X142248500Y-86178774D01*
X142284819Y-86091093D01*
X142329046Y-86067456D01*
X142327501Y-86063724D01*
X142338778Y-86059052D01*
X142338782Y-86059052D01*
X142620688Y-85870688D01*
X142809052Y-85588782D01*
X142858500Y-85340191D01*
X142858499Y-83659810D01*
X142836340Y-83548406D01*
X142809053Y-83411220D01*
X142809052Y-83411219D01*
X142809052Y-83411218D01*
X142620688Y-83129312D01*
X142604092Y-83118223D01*
X142551366Y-83039314D01*
X142569880Y-82946231D01*
X142585303Y-82927438D01*
X142606414Y-82906327D01*
X142849999Y-82318261D01*
X142850000Y-82318258D01*
X142850000Y-81681741D01*
X142849999Y-81681738D01*
X142606414Y-81093672D01*
X142558148Y-81045406D01*
X141514458Y-82089096D01*
X141426777Y-82125415D01*
X141413095Y-82119747D01*
X141450000Y-82082843D01*
X141450000Y-81917157D01*
X141332843Y-81800000D01*
X141167157Y-81800000D01*
X141050000Y-81917157D01*
X141050000Y-82082843D01*
X141086904Y-82119747D01*
X141073223Y-82125415D01*
X140985542Y-82089096D01*
X139941852Y-81045406D01*
X139893586Y-81093671D01*
X139893585Y-81093672D01*
X139650000Y-81681738D01*
X139650000Y-82207247D01*
X139613681Y-82294928D01*
X139526000Y-82331247D01*
X139438319Y-82294928D01*
X137835243Y-80691852D01*
X140295406Y-80691852D01*
X141250000Y-81646446D01*
X142204594Y-80691852D01*
X142156327Y-80643585D01*
X141568261Y-80400000D01*
X140931738Y-80400000D01*
X140343672Y-80643585D01*
X140343671Y-80643586D01*
X140295406Y-80691852D01*
X137835243Y-80691852D01*
X136644819Y-79501428D01*
X136608500Y-79413747D01*
X136608500Y-79390051D01*
X136608499Y-79390048D01*
X136515391Y-79165265D01*
X136363620Y-78798858D01*
X135911142Y-78346380D01*
X135783163Y-78293369D01*
X135742935Y-78266489D01*
X135000000Y-77523554D01*
X134257063Y-78266489D01*
X134216836Y-78293369D01*
X134088856Y-78346381D01*
X133636381Y-78798856D01*
X133636378Y-78798860D01*
X133625570Y-78824954D01*
X133558461Y-78892062D01*
X133511010Y-78901500D01*
X131988990Y-78901500D01*
X131901309Y-78865181D01*
X131874430Y-78824954D01*
X131863621Y-78798860D01*
X131863620Y-78798859D01*
X131863620Y-78798858D01*
X131411142Y-78346380D01*
X131283163Y-78293369D01*
X131242935Y-78266489D01*
X130500000Y-77523554D01*
X129757063Y-78266489D01*
X129716836Y-78293369D01*
X129588856Y-78346381D01*
X129136381Y-78798856D01*
X129136378Y-78798860D01*
X129125570Y-78824954D01*
X129058461Y-78892062D01*
X129011010Y-78901500D01*
X127238990Y-78901500D01*
X127151309Y-78865181D01*
X127124430Y-78824954D01*
X127113621Y-78798860D01*
X127113620Y-78798859D01*
X127113620Y-78798858D01*
X126661142Y-78346380D01*
X126533163Y-78293369D01*
X126492935Y-78266489D01*
X125750000Y-77523554D01*
X125007063Y-78266489D01*
X124966836Y-78293369D01*
X124838856Y-78346381D01*
X124386381Y-78798856D01*
X124386378Y-78798860D01*
X124375570Y-78824954D01*
X124308461Y-78892062D01*
X124261010Y-78901500D01*
X122738990Y-78901500D01*
X122651309Y-78865181D01*
X122624430Y-78824954D01*
X122613621Y-78798860D01*
X122613620Y-78798859D01*
X122613620Y-78798858D01*
X122161142Y-78346380D01*
X122033163Y-78293369D01*
X121992935Y-78266489D01*
X121250000Y-77523554D01*
X120507063Y-78266489D01*
X120466836Y-78293369D01*
X120338856Y-78346381D01*
X120020057Y-78665181D01*
X119932376Y-78701500D01*
X118532401Y-78701500D01*
X118532397Y-78701499D01*
X118507734Y-78701499D01*
X117672266Y-78701499D01*
X117672265Y-78701499D01*
X117420181Y-78953584D01*
X117332500Y-78989903D01*
X117244819Y-78953584D01*
X117208500Y-78865903D01*
X117208500Y-76851738D01*
X119650000Y-76851738D01*
X119650000Y-77488261D01*
X119893585Y-78076327D01*
X119941852Y-78124594D01*
X120896446Y-77170000D01*
X120813603Y-77087157D01*
X121050000Y-77087157D01*
X121050000Y-77252843D01*
X121167157Y-77370000D01*
X121332843Y-77370000D01*
X121450000Y-77252843D01*
X121450000Y-77170000D01*
X121603554Y-77170000D01*
X122558148Y-78124594D01*
X122606413Y-78076328D01*
X122606414Y-78076327D01*
X122849999Y-77488261D01*
X122850000Y-77488258D01*
X122850000Y-76851741D01*
X122849999Y-76851738D01*
X124150000Y-76851738D01*
X124150000Y-77488261D01*
X124393585Y-78076327D01*
X124441852Y-78124594D01*
X125396446Y-77170000D01*
X125313603Y-77087157D01*
X125550000Y-77087157D01*
X125550000Y-77252843D01*
X125667157Y-77370000D01*
X125832843Y-77370000D01*
X125950000Y-77252843D01*
X125950000Y-77170000D01*
X126103554Y-77170000D01*
X127058148Y-78124594D01*
X127106413Y-78076328D01*
X127106414Y-78076327D01*
X127349999Y-77488261D01*
X127350000Y-77488258D01*
X127350000Y-76851741D01*
X127349999Y-76851738D01*
X128900000Y-76851738D01*
X128900000Y-77488261D01*
X129143585Y-78076327D01*
X129191852Y-78124594D01*
X130146446Y-77170000D01*
X130063603Y-77087157D01*
X130300000Y-77087157D01*
X130300000Y-77252843D01*
X130417157Y-77370000D01*
X130582843Y-77370000D01*
X130700000Y-77252843D01*
X130700000Y-77170000D01*
X130853554Y-77170000D01*
X131808148Y-78124594D01*
X131856413Y-78076328D01*
X131856414Y-78076327D01*
X132099999Y-77488261D01*
X132100000Y-77488258D01*
X132100000Y-76851741D01*
X132099999Y-76851738D01*
X133400000Y-76851738D01*
X133400000Y-77488261D01*
X133643585Y-78076327D01*
X133691852Y-78124594D01*
X134646446Y-77170000D01*
X134563603Y-77087157D01*
X134800000Y-77087157D01*
X134800000Y-77252843D01*
X134917157Y-77370000D01*
X135082843Y-77370000D01*
X135200000Y-77252843D01*
X135200000Y-77170000D01*
X135353554Y-77170000D01*
X136308148Y-78124594D01*
X136356413Y-78076328D01*
X136356414Y-78076327D01*
X136599999Y-77488261D01*
X136600000Y-77488258D01*
X136600000Y-76851741D01*
X136599999Y-76851738D01*
X136356414Y-76263672D01*
X136308148Y-76215406D01*
X135353554Y-77170000D01*
X135200000Y-77170000D01*
X135200000Y-77087157D01*
X135082843Y-76970000D01*
X134917157Y-76970000D01*
X134800000Y-77087157D01*
X134563603Y-77087157D01*
X133691852Y-76215406D01*
X133643586Y-76263671D01*
X133643585Y-76263672D01*
X133400000Y-76851738D01*
X132099999Y-76851738D01*
X131856414Y-76263672D01*
X131808148Y-76215406D01*
X130853554Y-77170000D01*
X130700000Y-77170000D01*
X130700000Y-77087157D01*
X130582843Y-76970000D01*
X130417157Y-76970000D01*
X130300000Y-77087157D01*
X130063603Y-77087157D01*
X129191852Y-76215406D01*
X129143586Y-76263671D01*
X129143585Y-76263672D01*
X128900000Y-76851738D01*
X127349999Y-76851738D01*
X127106414Y-76263672D01*
X127058148Y-76215406D01*
X126103554Y-77170000D01*
X125950000Y-77170000D01*
X125950000Y-77087157D01*
X125832843Y-76970000D01*
X125667157Y-76970000D01*
X125550000Y-77087157D01*
X125313603Y-77087157D01*
X124441852Y-76215406D01*
X124393586Y-76263671D01*
X124393585Y-76263672D01*
X124150000Y-76851738D01*
X122849999Y-76851738D01*
X122606414Y-76263672D01*
X122558148Y-76215406D01*
X121603554Y-77170000D01*
X121450000Y-77170000D01*
X121450000Y-77087157D01*
X121332843Y-76970000D01*
X121167157Y-76970000D01*
X121050000Y-77087157D01*
X120813603Y-77087157D01*
X119941852Y-76215406D01*
X119893586Y-76263671D01*
X119893585Y-76263672D01*
X119650000Y-76851738D01*
X117208500Y-76851738D01*
X117208500Y-75861852D01*
X120295406Y-75861852D01*
X121250000Y-76816446D01*
X122204594Y-75861852D01*
X124795406Y-75861852D01*
X125750000Y-76816446D01*
X126704594Y-75861852D01*
X129545406Y-75861852D01*
X130500000Y-76816446D01*
X131454594Y-75861852D01*
X134045406Y-75861852D01*
X135000000Y-76816446D01*
X135954594Y-75861852D01*
X135906327Y-75813585D01*
X135318261Y-75570000D01*
X134681738Y-75570000D01*
X134093672Y-75813585D01*
X134093671Y-75813586D01*
X134045406Y-75861852D01*
X131454594Y-75861852D01*
X131406327Y-75813585D01*
X130818261Y-75570000D01*
X130181738Y-75570000D01*
X129593672Y-75813585D01*
X129593671Y-75813586D01*
X129545406Y-75861852D01*
X126704594Y-75861852D01*
X126656327Y-75813585D01*
X126068261Y-75570000D01*
X125431738Y-75570000D01*
X124843672Y-75813585D01*
X124843671Y-75813586D01*
X124795406Y-75861852D01*
X122204594Y-75861852D01*
X122156327Y-75813585D01*
X121568261Y-75570000D01*
X120931738Y-75570000D01*
X120343672Y-75813585D01*
X120343671Y-75813586D01*
X120295406Y-75861852D01*
X117208500Y-75861852D01*
X117208500Y-72117624D01*
X117244819Y-72029943D01*
X117563620Y-71711142D01*
X117808500Y-71119950D01*
X117808500Y-70480050D01*
X117567925Y-69899252D01*
X122360000Y-69899252D01*
X122389008Y-70045085D01*
X122389010Y-70045089D01*
X122499520Y-70210479D01*
X122664910Y-70320989D01*
X122664914Y-70320991D01*
X122810747Y-70349999D01*
X122810750Y-70350000D01*
X123710000Y-70350000D01*
X123710000Y-69000000D01*
X122360000Y-69000000D01*
X122360000Y-69899252D01*
X117567925Y-69899252D01*
X117563620Y-69888858D01*
X117244819Y-69570057D01*
X117208500Y-69482376D01*
X117208500Y-68667157D01*
X123760000Y-68667157D01*
X123760000Y-68832843D01*
X123877157Y-68950000D01*
X124042843Y-68950000D01*
X124160000Y-68832843D01*
X124160000Y-68667157D01*
X124042843Y-68550000D01*
X123877157Y-68550000D01*
X123760000Y-68667157D01*
X117208500Y-68667157D01*
X117208500Y-67600747D01*
X122360000Y-67600747D01*
X122360000Y-68500000D01*
X123710000Y-68500000D01*
X123710000Y-67150000D01*
X122810749Y-67150000D01*
X122664914Y-67179008D01*
X122664910Y-67179010D01*
X122499520Y-67289520D01*
X122389010Y-67454910D01*
X122389008Y-67454914D01*
X122360000Y-67600747D01*
X117208500Y-67600747D01*
X117208500Y-64069095D01*
X117244818Y-63981415D01*
X119427621Y-61798611D01*
X119515301Y-61762293D01*
X119539490Y-61764675D01*
X119759809Y-61808500D01*
X121440190Y-61808499D01*
X121523800Y-61791868D01*
X121688779Y-61759053D01*
X121688779Y-61759052D01*
X121688782Y-61759052D01*
X121970688Y-61570688D01*
X122159052Y-61288782D01*
X122159053Y-61288777D01*
X122160600Y-61285045D01*
X122163458Y-61282186D01*
X122165837Y-61278627D01*
X122166545Y-61279100D01*
X122227709Y-61217938D01*
X122275160Y-61208500D01*
X129674840Y-61208500D01*
X129762521Y-61244819D01*
X129789400Y-61285045D01*
X129790947Y-61288780D01*
X129790947Y-61288781D01*
X129790948Y-61288782D01*
X129979312Y-61570688D01*
X130261218Y-61759052D01*
X130261221Y-61759052D01*
X130261222Y-61759053D01*
X130385513Y-61783776D01*
X130509809Y-61808500D01*
X132190190Y-61808499D01*
X132273800Y-61791868D01*
X132438779Y-61759053D01*
X132438779Y-61759052D01*
X132438782Y-61759052D01*
X132720688Y-61570688D01*
X132909052Y-61288782D01*
X132958500Y-61040191D01*
X132958499Y-59359810D01*
X132925021Y-59191500D01*
X132909053Y-59111220D01*
X132909052Y-59111219D01*
X132909052Y-59111218D01*
X132720688Y-58829312D01*
X132704092Y-58818223D01*
X132651366Y-58739314D01*
X132669880Y-58646231D01*
X132685303Y-58627438D01*
X132706414Y-58606327D01*
X132949999Y-58018261D01*
X132950000Y-58018258D01*
X132950000Y-57381741D01*
X132949999Y-57381738D01*
X132706414Y-56793672D01*
X132658148Y-56745406D01*
X131614458Y-57789096D01*
X131526777Y-57825415D01*
X131513095Y-57819747D01*
X131550000Y-57782843D01*
X131550000Y-57617157D01*
X131432843Y-57500000D01*
X131267157Y-57500000D01*
X131150000Y-57617157D01*
X131150000Y-57782843D01*
X131186904Y-57819747D01*
X131173223Y-57825415D01*
X131085542Y-57789096D01*
X130041852Y-56745406D01*
X129993586Y-56793671D01*
X129993585Y-56793672D01*
X129750000Y-57381738D01*
X129750000Y-58018261D01*
X129993585Y-58606327D01*
X130014697Y-58627439D01*
X130051016Y-58715120D01*
X130014697Y-58802801D01*
X129995910Y-58818220D01*
X129979315Y-58829308D01*
X129979311Y-58829312D01*
X129790947Y-59111219D01*
X129789400Y-59114955D01*
X129786541Y-59117813D01*
X129784163Y-59121373D01*
X129783454Y-59120899D01*
X129722291Y-59182062D01*
X129674840Y-59191500D01*
X122275160Y-59191500D01*
X122187479Y-59155181D01*
X122160600Y-59114955D01*
X122159052Y-59111219D01*
X122159052Y-59111218D01*
X121970688Y-58829312D01*
X121954092Y-58818223D01*
X121901366Y-58739314D01*
X121919880Y-58646231D01*
X121935303Y-58627438D01*
X121956414Y-58606327D01*
X122199999Y-58018261D01*
X122200000Y-58018258D01*
X122200000Y-57381741D01*
X122199999Y-57381738D01*
X121956414Y-56793672D01*
X121908148Y-56745406D01*
X120864458Y-57789096D01*
X120776777Y-57825415D01*
X120763095Y-57819747D01*
X120800000Y-57782843D01*
X120800000Y-57617157D01*
X120682843Y-57500000D01*
X120517157Y-57500000D01*
X120400000Y-57617157D01*
X120400000Y-57782843D01*
X120436904Y-57819747D01*
X120423223Y-57825415D01*
X120335542Y-57789096D01*
X119291852Y-56745406D01*
X119243586Y-56793671D01*
X119243585Y-56793672D01*
X119000000Y-57381738D01*
X119000000Y-58018261D01*
X119243585Y-58606327D01*
X119264697Y-58627439D01*
X119301016Y-58715120D01*
X119264697Y-58802801D01*
X119245910Y-58818220D01*
X119229315Y-58829308D01*
X119229311Y-58829312D01*
X119040948Y-59111218D01*
X119040946Y-59111221D01*
X118993261Y-59350949D01*
X118959325Y-59414438D01*
X118574059Y-59799706D01*
X115191500Y-63182264D01*
X115191500Y-69482376D01*
X115155181Y-69570057D01*
X114836381Y-69888856D01*
X114836380Y-69888857D01*
X114591500Y-70480048D01*
X114591500Y-71119951D01*
X114836380Y-71711142D01*
X115155181Y-72029943D01*
X115191500Y-72117624D01*
X115191500Y-85017735D01*
X115799705Y-85625940D01*
X115799707Y-85625941D01*
X118555181Y-88381415D01*
X118591500Y-88469096D01*
X118591500Y-92730903D01*
X118555181Y-92818584D01*
X118208585Y-93165181D01*
X118120904Y-93201500D01*
X117891891Y-93201500D01*
X117804210Y-93165181D01*
X117485409Y-92846380D01*
X117357430Y-92793369D01*
X117317202Y-92766489D01*
X116574267Y-92023554D01*
X115831330Y-92766489D01*
X115791103Y-92793369D01*
X115663123Y-92846381D01*
X115210648Y-93298856D01*
X115210645Y-93298860D01*
X115199837Y-93324954D01*
X115132728Y-93392062D01*
X115085277Y-93401500D01*
X114137523Y-93401500D01*
X114049842Y-93365181D01*
X114022963Y-93324954D01*
X114012154Y-93298860D01*
X114012153Y-93298859D01*
X114012153Y-93298858D01*
X113559675Y-92846380D01*
X113490520Y-92817735D01*
X113431696Y-92793369D01*
X113391468Y-92766489D01*
X112648533Y-92023554D01*
X111905596Y-92766489D01*
X111865369Y-92793369D01*
X111737389Y-92846381D01*
X111284914Y-93298856D01*
X111284911Y-93298860D01*
X111274103Y-93324954D01*
X111206994Y-93392062D01*
X111159543Y-93401500D01*
X111111559Y-93401500D01*
X109691500Y-94821559D01*
X108559328Y-94821559D01*
X108559328Y-91351738D01*
X111048533Y-91351738D01*
X111048533Y-91988261D01*
X111292118Y-92576327D01*
X111340385Y-92624594D01*
X112294979Y-91670000D01*
X112212136Y-91587157D01*
X112448533Y-91587157D01*
X112448533Y-91752843D01*
X112565690Y-91870000D01*
X112731376Y-91870000D01*
X112848533Y-91752843D01*
X112848533Y-91670000D01*
X113002087Y-91670000D01*
X113956681Y-92624594D01*
X114004946Y-92576328D01*
X114004947Y-92576327D01*
X114248532Y-91988261D01*
X114248533Y-91988258D01*
X114248533Y-91351741D01*
X114248532Y-91351738D01*
X114974267Y-91351738D01*
X114974267Y-91988261D01*
X115217852Y-92576327D01*
X115266119Y-92624594D01*
X116220713Y-91670000D01*
X116137870Y-91587157D01*
X116374267Y-91587157D01*
X116374267Y-91752843D01*
X116491424Y-91870000D01*
X116657110Y-91870000D01*
X116774267Y-91752843D01*
X116774267Y-91670000D01*
X116927821Y-91670000D01*
X117882415Y-92624594D01*
X117930680Y-92576328D01*
X117930681Y-92576327D01*
X118174266Y-91988261D01*
X118174267Y-91988258D01*
X118174267Y-91351741D01*
X118174266Y-91351738D01*
X117930681Y-90763672D01*
X117882415Y-90715406D01*
X116927821Y-91670000D01*
X116774267Y-91670000D01*
X116774267Y-91587157D01*
X116657110Y-91470000D01*
X116491424Y-91470000D01*
X116374267Y-91587157D01*
X116137870Y-91587157D01*
X115266119Y-90715406D01*
X115217853Y-90763671D01*
X115217852Y-90763672D01*
X114974267Y-91351738D01*
X114248532Y-91351738D01*
X114004947Y-90763672D01*
X113956681Y-90715406D01*
X113002087Y-91670000D01*
X112848533Y-91670000D01*
X112848533Y-91587157D01*
X112731376Y-91470000D01*
X112565690Y-91470000D01*
X112448533Y-91587157D01*
X112212136Y-91587157D01*
X111340385Y-90715406D01*
X111292119Y-90763671D01*
X111292118Y-90763672D01*
X111048533Y-91351738D01*
X108559328Y-91351738D01*
X108559328Y-90361852D01*
X111693939Y-90361852D01*
X112648533Y-91316446D01*
X113603127Y-90361852D01*
X115619673Y-90361852D01*
X116574267Y-91316446D01*
X117528861Y-90361852D01*
X117480594Y-90313585D01*
X116892528Y-90070000D01*
X116256005Y-90070000D01*
X115667939Y-90313585D01*
X115667938Y-90313586D01*
X115619673Y-90361852D01*
X113603127Y-90361852D01*
X113554860Y-90313585D01*
X112966794Y-90070000D01*
X112330271Y-90070000D01*
X111742205Y-90313585D01*
X111742204Y-90313586D01*
X111693939Y-90361852D01*
X108559328Y-90361852D01*
X108559328Y-70717764D01*
X105035509Y-70717764D01*
X105035509Y-103748400D01*
X103400000Y-103748400D01*
X103400000Y-62680048D01*
X106391500Y-62680048D01*
X106391500Y-63319951D01*
X106462558Y-63491500D01*
X106636380Y-63911142D01*
X107088858Y-64363620D01*
X107680050Y-64608500D01*
X107680052Y-64608500D01*
X108319948Y-64608500D01*
X108319950Y-64608500D01*
X108911142Y-64363620D01*
X109229943Y-64044819D01*
X109317624Y-64008500D01*
X110030904Y-64008500D01*
X110118585Y-64044819D01*
X110955181Y-64881415D01*
X110991500Y-64969096D01*
X110991500Y-69482376D01*
X110955181Y-69570057D01*
X110636381Y-69888856D01*
X110636380Y-69888857D01*
X110391500Y-70480048D01*
X110391500Y-71119951D01*
X110575185Y-71563405D01*
X110636380Y-71711142D01*
X111088858Y-72163620D01*
X111680050Y-72408500D01*
X111680052Y-72408500D01*
X112319948Y-72408500D01*
X112319950Y-72408500D01*
X112911142Y-72163620D01*
X113363620Y-71711142D01*
X113608500Y-71119950D01*
X113608500Y-70480050D01*
X113363620Y-69888858D01*
X113044819Y-69570057D01*
X113008500Y-69482376D01*
X113008500Y-64082265D01*
X112400295Y-63474060D01*
X112400292Y-63474058D01*
X111525941Y-62599707D01*
X111525941Y-62599706D01*
X110917735Y-61991500D01*
X109317624Y-61991500D01*
X109229943Y-61955181D01*
X108911142Y-61636380D01*
X108319951Y-61391500D01*
X108319950Y-61391500D01*
X107680050Y-61391500D01*
X107680048Y-61391500D01*
X107088857Y-61636380D01*
X106636380Y-62088857D01*
X106391500Y-62680048D01*
X103400000Y-62680048D01*
X103400000Y-59308148D01*
X107045406Y-59308148D01*
X107093672Y-59356414D01*
X107681738Y-59599999D01*
X107681742Y-59600000D01*
X108318258Y-59600000D01*
X108318261Y-59599999D01*
X108906327Y-59356414D01*
X108906328Y-59356413D01*
X108954594Y-59308148D01*
X108000000Y-58353554D01*
X107045406Y-59308148D01*
X103400000Y-59308148D01*
X103400000Y-57681738D01*
X106400000Y-57681738D01*
X106400000Y-58318261D01*
X106643585Y-58906327D01*
X106691852Y-58954594D01*
X107646446Y-58000000D01*
X107563603Y-57917157D01*
X107800000Y-57917157D01*
X107800000Y-58082843D01*
X107917157Y-58200000D01*
X108082843Y-58200000D01*
X108200000Y-58082843D01*
X108200000Y-58000000D01*
X108353554Y-58000000D01*
X109308148Y-58954594D01*
X109356413Y-58906328D01*
X109356414Y-58906327D01*
X109599999Y-58318261D01*
X109600000Y-58318258D01*
X109600000Y-57681741D01*
X109599999Y-57681738D01*
X109356414Y-57093672D01*
X109308148Y-57045406D01*
X108353554Y-58000000D01*
X108200000Y-58000000D01*
X108200000Y-57917157D01*
X108082843Y-57800000D01*
X107917157Y-57800000D01*
X107800000Y-57917157D01*
X107563603Y-57917157D01*
X106691852Y-57045406D01*
X106643586Y-57093671D01*
X106643585Y-57093672D01*
X106400000Y-57681738D01*
X103400000Y-57681738D01*
X103400000Y-56691852D01*
X107045406Y-56691852D01*
X108000000Y-57646446D01*
X108954594Y-56691852D01*
X108906327Y-56643585D01*
X108451165Y-56455051D01*
X108318261Y-56400000D01*
X107681738Y-56400000D01*
X107093672Y-56643585D01*
X107093671Y-56643586D01*
X107045406Y-56691852D01*
X103400000Y-56691852D01*
X103400000Y-56391852D01*
X119645406Y-56391852D01*
X120600000Y-57346446D01*
X121554594Y-56391852D01*
X130395406Y-56391852D01*
X131350000Y-57346446D01*
X132304594Y-56391852D01*
X132256327Y-56343585D01*
X131668261Y-56100000D01*
X131031738Y-56100000D01*
X130443672Y-56343585D01*
X130443671Y-56343586D01*
X130395406Y-56391852D01*
X121554594Y-56391852D01*
X121506327Y-56343585D01*
X120918261Y-56100000D01*
X120281738Y-56100000D01*
X119693672Y-56343585D01*
X119693671Y-56343586D01*
X119645406Y-56391852D01*
X103400000Y-56391852D01*
X103400000Y-50524000D01*
X103436319Y-50436319D01*
X103524000Y-50400000D01*
X146476000Y-50400000D01*
X146563681Y-50436319D01*
G37*
G04 #@! TD.AperFunction*
M02*
