%TF.GenerationSoftware,KiCad,Pcbnew,10.0.4*%
%TF.CreationDate,2026-07-24T12:17:39+08:00*%
%TF.ProjectId,nano_IPBL_2026,6e616e6f-5f49-4504-924c-5f323032362e,rev?*%
%TF.SameCoordinates,Original*%
%TF.FileFunction,Drillmap*%
%TF.FilePolarity,Positive*%
%FSLAX45Y45*%
G04 Gerber Fmt 4.5, Leading zero omitted, Abs format (unit mm)*
G04 Created by KiCad (PCBNEW 10.0.4) date 2026-07-24 12:17:39*
%MOMM*%
%LPD*%
G01*
G04 APERTURE LIST*
%ADD10C,0.100000*%
%ADD11C,0.200000*%
G04 APERTURE END LIST*
D10*
X10300000Y-5000000D02*
X14700000Y-5000000D01*
X14700000Y-13500000D01*
X10300000Y-13500000D01*
X10300000Y-5000000D01*
D11*
X10555777Y-13816484D02*
X10555777Y-13616484D01*
X10555777Y-13616484D02*
X10603396Y-13616484D01*
X10603396Y-13616484D02*
X10631967Y-13626008D01*
X10631967Y-13626008D02*
X10651015Y-13645055D01*
X10651015Y-13645055D02*
X10660539Y-13664103D01*
X10660539Y-13664103D02*
X10670063Y-13702198D01*
X10670063Y-13702198D02*
X10670063Y-13730769D01*
X10670063Y-13730769D02*
X10660539Y-13768865D01*
X10660539Y-13768865D02*
X10651015Y-13787912D01*
X10651015Y-13787912D02*
X10631967Y-13806960D01*
X10631967Y-13806960D02*
X10603396Y-13816484D01*
X10603396Y-13816484D02*
X10555777Y-13816484D01*
X10755777Y-13816484D02*
X10755777Y-13683150D01*
X10755777Y-13721246D02*
X10765301Y-13702198D01*
X10765301Y-13702198D02*
X10774824Y-13692674D01*
X10774824Y-13692674D02*
X10793872Y-13683150D01*
X10793872Y-13683150D02*
X10812920Y-13683150D01*
X10879586Y-13816484D02*
X10879586Y-13683150D01*
X10879586Y-13616484D02*
X10870063Y-13626008D01*
X10870063Y-13626008D02*
X10879586Y-13635531D01*
X10879586Y-13635531D02*
X10889110Y-13626008D01*
X10889110Y-13626008D02*
X10879586Y-13616484D01*
X10879586Y-13616484D02*
X10879586Y-13635531D01*
X11003396Y-13816484D02*
X10984348Y-13806960D01*
X10984348Y-13806960D02*
X10974824Y-13787912D01*
X10974824Y-13787912D02*
X10974824Y-13616484D01*
X11108158Y-13816484D02*
X11089110Y-13806960D01*
X11089110Y-13806960D02*
X11079586Y-13787912D01*
X11079586Y-13787912D02*
X11079586Y-13616484D01*
X11336729Y-13816484D02*
X11336729Y-13616484D01*
X11336729Y-13616484D02*
X11403396Y-13759341D01*
X11403396Y-13759341D02*
X11470062Y-13616484D01*
X11470062Y-13616484D02*
X11470062Y-13816484D01*
X11651015Y-13816484D02*
X11651015Y-13711722D01*
X11651015Y-13711722D02*
X11641491Y-13692674D01*
X11641491Y-13692674D02*
X11622443Y-13683150D01*
X11622443Y-13683150D02*
X11584348Y-13683150D01*
X11584348Y-13683150D02*
X11565301Y-13692674D01*
X11651015Y-13806960D02*
X11631967Y-13816484D01*
X11631967Y-13816484D02*
X11584348Y-13816484D01*
X11584348Y-13816484D02*
X11565301Y-13806960D01*
X11565301Y-13806960D02*
X11555777Y-13787912D01*
X11555777Y-13787912D02*
X11555777Y-13768865D01*
X11555777Y-13768865D02*
X11565301Y-13749817D01*
X11565301Y-13749817D02*
X11584348Y-13740293D01*
X11584348Y-13740293D02*
X11631967Y-13740293D01*
X11631967Y-13740293D02*
X11651015Y-13730769D01*
X11746253Y-13683150D02*
X11746253Y-13883150D01*
X11746253Y-13692674D02*
X11765301Y-13683150D01*
X11765301Y-13683150D02*
X11803396Y-13683150D01*
X11803396Y-13683150D02*
X11822443Y-13692674D01*
X11822443Y-13692674D02*
X11831967Y-13702198D01*
X11831967Y-13702198D02*
X11841491Y-13721246D01*
X11841491Y-13721246D02*
X11841491Y-13778388D01*
X11841491Y-13778388D02*
X11831967Y-13797436D01*
X11831967Y-13797436D02*
X11822443Y-13806960D01*
X11822443Y-13806960D02*
X11803396Y-13816484D01*
X11803396Y-13816484D02*
X11765301Y-13816484D01*
X11765301Y-13816484D02*
X11746253Y-13806960D01*
X11927205Y-13797436D02*
X11936729Y-13806960D01*
X11936729Y-13806960D02*
X11927205Y-13816484D01*
X11927205Y-13816484D02*
X11917682Y-13806960D01*
X11917682Y-13806960D02*
X11927205Y-13797436D01*
X11927205Y-13797436D02*
X11927205Y-13816484D01*
X11927205Y-13692674D02*
X11936729Y-13702198D01*
X11936729Y-13702198D02*
X11927205Y-13711722D01*
X11927205Y-13711722D02*
X11917682Y-13702198D01*
X11917682Y-13702198D02*
X11927205Y-13692674D01*
X11927205Y-13692674D02*
X11927205Y-13711722D01*
M02*
