M48
; DRILL file KiCad 10.0.4 date 2026-07-24T12:17:39
; FORMAT={-:-/ absolute / metric / decimal}
; #@! TF.CreationDate,2026-07-24T12:17:39+08:00
; #@! TF.GenerationSoftware,Kicad,Pcbnew,10.0.4
; #@! TF.FileFunction,Plated,1,2,PTH
FMAT,2
METRIC
; #@! TA.AperFunction,Plated,PTH,ComponentDrill
T1C0.400
%
G90
G05
T1
X110.578Y-55.5
X110.578Y-60.5
X112.649Y-106.0
X112.649Y-108.54
X112.649Y-111.08
X112.649Y-120.0
X112.649Y-122.54
X112.649Y-125.08
X114.0Y-69.25
X116.574Y-91.67
X116.574Y-94.21
X116.574Y-96.75
X116.574Y-106.0
X116.574Y-108.54
X116.574Y-111.08
X116.574Y-120.0
X116.574Y-122.54
X116.574Y-125.08
X117.5Y-69.25
X120.5Y-91.67
X120.5Y-94.21
X120.5Y-96.75
X120.5Y-106.0
X120.5Y-108.54
X120.5Y-111.08
X120.5Y-120.0
X120.5Y-122.54
X120.5Y-125.08
X121.25Y-77.17
X121.25Y-79.71
X121.25Y-82.25
X123.25Y-57.0
X123.25Y-59.5
X123.96Y-68.75
X125.75Y-77.17
X125.75Y-79.71
X125.75Y-82.25
X126.0Y-91.84
X126.0Y-94.38
X126.0Y-96.92
X126.0Y-99.46
X126.0Y-102.0
X126.0Y-104.54
X126.0Y-107.08
X126.0Y-109.62
X126.0Y-112.16
X126.0Y-114.7
X126.0Y-117.24
X126.0Y-119.78
X126.0Y-122.32
X126.0Y-124.86
X126.0Y-127.4
X126.5Y-68.75
X130.5Y-77.17
X130.5Y-79.71
X130.5Y-82.25
X131.5Y-67.21
X131.5Y-69.75
X133.25Y-57.0
X133.25Y-59.5
X135.0Y-77.17
X135.0Y-79.71
X135.0Y-82.25
X141.24Y-91.84
X141.24Y-94.38
X141.24Y-96.92
X141.24Y-99.46
X141.24Y-102.0
X141.24Y-104.54
X141.24Y-107.08
X141.24Y-109.62
X141.24Y-112.16
X141.24Y-114.7
X141.24Y-117.24
X141.24Y-119.78
X141.24Y-122.32
X141.24Y-124.86
X141.24Y-127.4
X141.25Y-82.0
X141.25Y-84.5
M30
