<?xml version="1.0" standalone="no"?>
 <!DOCTYPE svg PUBLIC "-//W3C//DTD SVG 1.1//EN" 
 "http://www.w3.org/Graphics/SVG/1.1/DTD/svg11.dtd"> 
<svg
  xmlns:svg="http://www.w3.org/2000/svg"
  xmlns="http://www.w3.org/2000/svg"
  xmlns:xlink="http://www.w3.org/1999/xlink"
  xmlns:inkscape="http://www.inkscape.org/namespaces/inkscape"
  version="1.1"
  width="43.9928mm" height="84.9884mm" viewBox="0.0000 0.0000 43.9928 84.9884">
<title>SVG Image created as nano_IPBL_2026-B_Cu.svg date 2026-07-17T14:05:06 </title>
  <desc>Image generated by PCBNEW </desc>
<g style="fill:#000000; fill-opacity:1.0000;stroke:#000000; stroke-opacity:1.0000;
stroke-linecap:round; stroke-linejoin:round;"
 transform="translate(0 0) scale(1 1)">
</g>
<g style="fill:#000000; fill-opacity:1.0000; stroke:none;">
<circle cx="8.1928" cy="41.8400" r="0.8000" /> 
<circle cx="8.1928" cy="44.3800" r="0.8000" /> 
<circle cx="8.1928" cy="46.9200" r="0.8000" /> 
<circle cx="8.1928" cy="49.4600" r="0.8000" /> 
<circle cx="8.1928" cy="52.0000" r="0.8000" /> 
<circle cx="8.1928" cy="54.5400" r="0.8000" /> 
<circle cx="8.1928" cy="57.0800" r="0.8000" /> 
<circle cx="8.1928" cy="59.6200" r="0.8000" /> 
<circle cx="8.1928" cy="62.1600" r="0.8000" /> 
<circle cx="8.1928" cy="64.7000" r="0.8000" /> 
<circle cx="8.1928" cy="67.2400" r="0.8000" /> 
<circle cx="8.1928" cy="69.7800" r="0.8000" /> 
<circle cx="8.1928" cy="72.3200" r="0.8000" /> 
<circle cx="8.1928" cy="74.8600" r="0.8000" /> 
<circle cx="8.1928" cy="77.4000" r="0.8000" /> 
<circle cx="23.4328" cy="77.4000" r="0.8000" /> 
<circle cx="23.4328" cy="74.8600" r="0.8000" /> 
<circle cx="23.4328" cy="72.3200" r="0.8000" /> 
<circle cx="23.4328" cy="69.7800" r="0.8000" /> 
<circle cx="23.4328" cy="67.2400" r="0.8000" /> 
<circle cx="23.4328" cy="64.7000" r="0.8000" /> 
<circle cx="23.4328" cy="62.1600" r="0.8000" /> 
<circle cx="23.4328" cy="59.6200" r="0.8000" /> 
<circle cx="23.4328" cy="57.0800" r="0.8000" /> 
<circle cx="23.4328" cy="54.5400" r="0.8000" /> 
<circle cx="23.4328" cy="52.0000" r="0.8000" /> 
<circle cx="23.4328" cy="49.4600" r="0.8000" /> 
<circle cx="23.4328" cy="46.9200" r="0.8000" /> 
<circle cx="23.4328" cy="44.3800" r="0.8000" /> 
<path style="fill:#000000; fill-opacity:1.0000; stroke:none;fill-rule:evenodd;"
d="M 24.2328,42.6400
24.2328,41.0400
22.6328,41.0400
22.6328,42.6400
Z" /> 
<path style="fill:#000000; fill-opacity:1.0000; stroke:none;fill-rule:evenodd;"
d="M 35.4178,38.2845
33.7178,38.2845
33.7178,39.9845
35.4178,39.9845
Z" /> 
<circle cx="37.1078" cy="39.1345" r="0.8500" /> 
<circle cx="39.6478" cy="39.1345" r="0.8500" /> 
<path style="fill:#000000; fill-opacity:1.0000; stroke:none;fill-rule:evenodd;"
d="M 35.4178,56.6577
33.7178,56.6577
33.7178,58.3577
35.4178,58.3577
Z" /> 
<circle cx="37.1078" cy="57.5077" r="0.8500" /> 
<circle cx="39.6478" cy="57.5077" r="0.8500" /> 
<path style="fill:#000000; fill-opacity:1.0000; stroke:none;fill-rule:evenodd;"
d="M 18.0252,32.2000
18.0061,32.1043
17.9520,32.0232
17.8709,31.9690
17.7752,31.9500
16.5752,31.9500
16.4795,31.9690
16.3984,32.0232
16.3442,32.1043
16.3252,32.2000
16.3252,33.3000
16.3442,33.3957
16.3984,33.4768
16.4795,33.5310
16.5752,33.5500
17.7752,33.5500
17.8709,33.5310
17.9520,33.4768
18.0061,33.3957
18.0252,33.3000
Z" /> 
<circle cx="14.6752" cy="32.7500" r="0.8500" /> 
<path style="fill:#000000; fill-opacity:1.0000; stroke:none;fill-rule:evenodd;"
d="M 35.4178,75.2232
33.7178,75.2232
33.7178,76.9232
35.4178,76.9232
Z" /> 
<circle cx="37.1078" cy="76.0732" r="0.8500" /> 
<circle cx="39.6478" cy="76.0732" r="0.8500" /> 
<path style="fill:#000000; fill-opacity:1.0000; stroke:none;fill-rule:evenodd;"
d="M 35.4178,33.7595
33.7178,33.7595
33.7178,35.4595
35.4178,35.4595
Z" /> 
<circle cx="37.1078" cy="34.6095" r="0.8500" /> 
<circle cx="39.6478" cy="34.6095" r="0.8500" /> 
<path style="fill:#000000; fill-opacity:1.0000; stroke:none;fill-rule:evenodd;"
d="M 35.4178,79.8645
33.7178,79.8645
33.7178,81.5645
35.4178,81.5645
Z" /> 
<circle cx="37.1078" cy="80.7145" r="0.8500" /> 
<circle cx="39.6478" cy="80.7145" r="0.8500" /> 
<path style="fill:#000000; fill-opacity:1.0000; stroke:none;fill-rule:evenodd;"
d="M 23.2028,12.7500
23.2028,14.7500
24.9028,14.7500
24.9028,12.7500
Z" /> 
</g>
<g style="fill:none; 
stroke:#000000; stroke-width:1.7000; stroke-opacity:1; 
stroke-linecap:round; stroke-linejoin:round;">
<path d="M26.5928 13.9000
L26.5928 13.6000
" />
<path d="M29.1328 13.9000
L29.1328 13.6000
" />
</g>
<g style="fill:#000000; fill-opacity:1.0000; stroke:none;">
<circle cx="38.9928" cy="8.0000" r="0.8500" /> 
<circle cx="38.9928" cy="13.0000" r="0.8500" /> 
<path style="fill:#000000; fill-opacity:1.0000; stroke:none;fill-rule:evenodd;"
d="M 26.5428,8.6000
26.6385,8.5810
26.7196,8.5268
26.7738,8.4457
26.7928,8.3500
26.7928,7.1500
26.7738,7.0543
26.7196,6.9732
26.6385,6.9190
26.5428,6.9000
25.4428,6.9000
25.3471,6.9190
25.2660,6.9732
25.2118,7.0543
25.1928,7.1500
25.1928,8.3500
25.2118,8.4457
25.2660,8.5268
25.3471,8.5810
25.4428,8.6000
Z" /> 
<circle cx="25.9928" cy="5.2500" r="0.8500" /> 
<path style="fill:#000000; fill-opacity:1.0000; stroke:none;fill-rule:evenodd;"
d="M 35.4178,29.1595
33.7178,29.1595
33.7178,30.8595
35.4178,30.8595
Z" /> 
<circle cx="37.1078" cy="30.0095" r="0.8500" /> 
<circle cx="39.6478" cy="30.0095" r="0.8500" /> 
<path style="fill:#000000; fill-opacity:1.0000; stroke:none;fill-rule:evenodd;"
d="M 35.4178,52.0164
33.7178,52.0164
33.7178,53.7164
35.4178,53.7164
Z" /> 
<circle cx="37.1078" cy="52.8664" r="0.8500" /> 
<circle cx="39.6478" cy="52.8664" r="0.8500" /> 
<circle cx="8.7878" cy="33.2000" r="0.8500" /> 
<circle cx="6.2478" cy="33.2000" r="0.8500" /> 
<path style="fill:#000000; fill-opacity:1.0000; stroke:none;fill-rule:evenodd;"
d="M 35.4178,70.5818
33.7178,70.5818
33.7178,72.2818
35.4178,72.2818
Z" /> 
<circle cx="37.1078" cy="71.4318" r="0.8500" /> 
<circle cx="39.6478" cy="71.4318" r="0.8500" /> 
<circle cx="13.7428" cy="22.0000" r="0.8500" /> 
<circle cx="15.7428" cy="22.0000" r="0.8500" /> 
<circle cx="17.7428" cy="22.0000" r="0.8500" /> 
<circle cx="13.7428" cy="26.5000" r="0.8500" /> 
<circle cx="15.7428" cy="26.5000" r="0.8500" /> 
<circle cx="17.7428" cy="26.5000" r="0.8500" /> 
<path style="fill:#000000; fill-opacity:1.0000; stroke:none;fill-rule:evenodd;"
d="M 35.4178,61.2991
33.7178,61.2991
33.7178,62.9991
35.4178,62.9991
Z" /> 
<circle cx="37.1078" cy="62.1491" r="0.8500" /> 
<circle cx="39.6478" cy="62.1491" r="0.8500" /> 
<path style="fill:#000000; fill-opacity:1.0000; stroke:none;fill-rule:evenodd;"
d="M 35.4178,65.9405
33.7178,65.9405
33.7178,67.6405
35.4178,67.6405
Z" /> 
<circle cx="37.1078" cy="66.7905" r="0.8500" /> 
<circle cx="39.6478" cy="66.7905" r="0.8500" /> 
<path style="fill:#000000; fill-opacity:1.0000; stroke:none;fill-rule:evenodd;"
d="M 35.4178,42.7336
33.7178,42.7336
33.7178,44.4336
35.4178,44.4336
Z" /> 
<circle cx="37.1078" cy="43.5836" r="0.8500" /> 
<circle cx="39.6478" cy="43.5836" r="0.8500" /> 
<path style="fill:#000000; fill-opacity:1.0000; stroke:none;fill-rule:evenodd;"
d="M 23.2028,19.6500
23.2028,21.6500
24.9028,21.6500
24.9028,19.6500
Z" /> 
</g>
<g style="fill:none; 
stroke:#000000; stroke-width:1.7000; stroke-opacity:1; 
stroke-linecap:round; stroke-linejoin:round;">
<path d="M26.5928 20.8000
L26.5928 20.5000
" />
<path d="M29.1328 20.8000
L29.1328 20.5000
" />
<path style="fill:#000000; fill-opacity:1.0000; stroke:none;fill-rule:evenodd;"
d="M 38.4428,20.1500
38.3471,20.1690
38.2660,20.2232
38.2118,20.3043
38.1928,20.4000
38.1928,21.6000
38.2118,21.6957
38.2660,21.7768
38.3471,21.8310
38.4428,21.8500
39.5428,21.8500
39.6385,21.8310
39.7196,21.7768
39.7738,21.6957
39.7928,21.6000
39.7928,20.4000
39.7738,20.3043
39.7196,20.2232
39.6385,20.1690
39.5428,20.1500
Z" /> 
</g>
<g style="fill:#000000; fill-opacity:1.0000; stroke:none;">
<circle cx="38.9928" cy="23.5000" r="0.8500" /> 
<path style="fill:#000000; fill-opacity:1.0000; stroke:none;fill-rule:evenodd;"
d="M 9.6328,28.1500
9.6328,26.3500
7.9328,26.3500
7.9328,28.1500
Z" /> 
<circle cx="6.2428" cy="27.2500" r="0.8500" /> 
<path style="fill:#000000; fill-opacity:1.0000; stroke:none;fill-rule:evenodd;"
d="M 35.4178,47.3750
33.7178,47.3750
33.7178,49.0750
35.4178,49.0750
Z" /> 
<circle cx="37.1078" cy="48.2250" r="0.8500" /> 
<circle cx="39.6478" cy="48.2250" r="0.8500" /> 
</g>
<g style="fill:none; 
stroke:#000000; stroke-width:1.0000; stroke-opacity:1; 
stroke-linecap:round; stroke-linejoin:round;">
<path d="M31.4928 44.5000
L31.4928 42.2095
" />
<path d="M23.4328 52.0000
L23.9928 52.0000
" />
<path d="M23.9928 52.0000
L31.4928 44.5000
" />
<path d="M31.4928 42.2095
L34.5678 39.1345
" />
<path d="M26.5928 20.6500
L26.5928 22.6000
" />
<path d="M27.9928 24.0000
L33.1649 24.0000
" />
<path d="M37.1078 62.1491
L37.1078 66.7905
" />
<path d="M37.1078 43.5836
L37.1078 48.2250
" />
<path d="M33.1649 24.0000
L37.1078 27.9429
" />
<path d="M37.1078 66.7905
L37.1078 71.4318
" />
<path d="M26.5928 22.6000
L27.9928 24.0000
" />
<path d="M37.1078 76.0732
L37.1078 80.7145
" />
<path d="M37.1078 39.1345
L37.1078 43.5836
" />
<path d="M37.1078 52.8664
L37.1078 57.5077
" />
<path d="M37.1078 57.5077
L37.1078 62.1491
" />
<path d="M37.1078 71.4318
L37.1078 76.0732
" />
<path d="M37.1078 27.9429
L37.1078 30.0095
" />
<path d="M37.1078 34.6095
L37.1078 39.1345
" />
<path d="M37.1078 30.0095
L37.1078 34.6095
" />
<path d="M37.1078 48.2250
L37.1078 52.8664
" />
<path d="M27.7528 67.2400
L31.9928 63.0000
" />
<path d="M23.4328 67.2400
L27.7528 67.2400
" />
<path d="M31.9928 61.0000
L34.5678 58.4250
" />
<path d="M34.5678 58.4250
L34.5678 57.5077
" />
<path d="M31.9928 63.0000
L31.9928 61.0000
" />
<path d="M26.5928 13.7500
L26.5928 15.1500
" />
<path d="M17.1752 35.3176
L10.6528 41.8400
" />
<path d="M17.1752 32.7500
L17.1752 35.3176
" />
<path d="M24.4928 17.2500
L22.4928 17.2500
" />
<path d="M26.5928 13.7500
L26.4928 13.8500
" />
<path d="M17.2428 32.7500
L17.1752 32.7500
" />
<path d="M22.4928 17.2500
L20.7428 19.0000
" />
<path d="M10.6528 41.8400
L8.1928 41.8400
" />
<path d="M26.5928 15.1500
L24.4928 17.2500
" />
<path d="M20.7428 29.2500
L17.2428 32.7500
" />
<path d="M20.7428 19.0000
L20.7428 29.2500
" />
<path d="M23.4328 77.4000
L33.2410 77.4000
" />
<path d="M33.2410 77.4000
L34.5678 76.0732
" />
<path d="M32.1773 37.0000
L34.5678 34.6095
" />
<path d="M19.9928 52.0000
L19.9928 41.0000
" />
<path d="M19.9928 41.0000
L23.9928 37.0000
" />
<path d="M22.5328 54.5400
L19.9928 52.0000
" />
<path d="M23.9928 37.0000
L32.1773 37.0000
" />
<path d="M23.4328 54.5400
L22.5328 54.5400
" />
<path d="M8.1928 77.4000
L11.5073 80.7145
" />
<path d="M11.5073 80.7145
L34.5678 80.7145
" />
<path d="M13.7428 22.0000
L13.7428 17.2500
" />
<path d="M20.4928 10.5000
L27.4928 10.5000
" />
<path d="M29.1328 20.6500
L29.1328 13.7500
" />
<path d="M29.1328 12.1400
L29.1328 13.7500
" />
<path d="M27.4928 10.5000
L29.1328 12.1400
" />
<path d="M13.7428 17.2500
L20.4928 10.5000
" />
<path d="M8.7428 16.2500
L17.4928 7.5000
" />
<path d="M8.7428 22.5000
L8.7428 16.2500
" />
<path d="M25.9928 7.7500
L26.2428 7.5000
" />
<path d="M15.7428 23.0000
L14.4928 24.2500
" />
<path d="M38.9928 13.0000
L38.9928 21.0000
" />
<path d="M14.4928 24.2500
L10.4928 24.2500
" />
<path d="M17.4928 7.5000
L25.7428 7.5000
" />
<path d="M26.2428 7.5000
L33.4928 7.5000
" />
<path d="M25.7428 7.5000
L25.9928 7.7500
" />
<path d="M15.7428 22.0000
L15.7428 23.0000
" />
<path d="M10.4928 24.2500
L8.7428 22.5000
" />
<path d="M33.4928 7.5000
L38.9928 13.0000
" />
<path d="M34.5678 30.0095
L34.4833 30.0095
" />
<path d="M17.4928 39.5000
L17.4928 53.0000
" />
<path d="M29.4928 35.0000
L21.9928 35.0000
" />
<path d="M21.5728 57.0800
L23.4328 57.0800
" />
<path d="M34.4833 30.0095
L29.4928 35.0000
" />
<path d="M21.9928 35.0000
L17.4928 39.5000
" />
<path d="M17.4928 53.0000
L21.5728 57.0800
" />
<path d="M29.9928 61.5000
L26.7928 64.7000
" />
<path d="M34.5678 52.8664
L34.5678 53.9250
" />
<path d="M26.7928 64.7000
L23.4328 64.7000
" />
<path d="M34.5678 53.9250
L29.9928 58.5000
" />
<path d="M29.9928 58.5000
L29.9928 61.5000
" />
<path d="M34.5678 44.9250
L34.5678 43.5836
" />
<path d="M23.4328 59.6200
L23.8728 59.6200
" />
<path d="M23.8728 59.6200
L25.9928 57.5000
" />
<path d="M25.9928 53.5000
L34.5678 44.9250
" />
<path d="M25.9928 57.5000
L25.9928 53.5000
" />
<path d="M34.5678 48.4250
L34.5678 48.2250
" />
<path d="M25.3328 62.1600
L27.9928 59.5000
" />
<path d="M23.4328 62.1600
L25.3328 62.1600
" />
<path d="M27.9928 59.5000
L27.9928 55.0000
" />
<path d="M27.9928 55.0000
L34.5678 48.4250
" />
<path d="M23.4328 69.7800
L28.2128 69.7800
" />
<path d="M34.5678 63.4250
L34.5678 62.1491
" />
<path d="M28.2128 69.7800
L34.5678 63.4250
" />
<path d="M34.5678 66.7905
L34.5678 67.9250
" />
<path d="M30.1728 72.3200
L23.4328 72.3200
" />
<path d="M34.5678 67.9250
L30.1728 72.3200
" />
<path d="M32.1328 74.8600
L34.5678 72.4250
" />
<path d="M34.5678 72.4250
L34.5678 71.4318
" />
<path d="M23.4328 74.8600
L32.1328 74.8600
" />
<path d="M8.5378 34.4550
L4.4928 38.5000
" />
<path d="M4.4928 38.5000
L4.4928 72.5000
" />
<path d="M8.5378 33.2000
L8.5378 34.4550
" />
<path d="M6.8528 74.8600
L8.1928 74.8600
" />
<path d="M4.4928 72.5000
L6.8528 74.8600
" />
<path d="M6.2428 27.2500
L6.2428 33.1950
" />
<path d="M6.2428 33.1950
L6.2478 33.2000
" />
<path style="fill:#000000; fill-opacity:1.0000; stroke:none;fill-rule:evenodd;"
d="M 0.4498,0.4197
0.4040,0.4725
0.3928,0.5240
0.3928,84.4760
0.4125,84.5430
0.4653,84.5888
0.5168,84.6000
43.4688,84.6000
43.5358,84.5803
43.5816,84.5275
43.5928,84.4760
43.5928,81.8298
40.4095,81.8298
40.4095,81.8298
40.3554,81.8692
40.1660,81.9656
39.9639,82.0313
39.7540,82.0645
39.5416,82.0645
39.3317,82.0313
39.3317,82.0313
39.1296,81.9656
38.9402,81.8692
38.8861,81.8298
38.8861,81.8298
39.6478,81.0681
40.4095,81.8298
43.5928,81.8298
43.5928,80.6083
40.9978,80.6083
40.9978,80.8208
40.9646,81.0307
40.9646,81.0307
40.8989,81.2328
40.8024,81.4221
40.7631,81.4763
40.0014,80.7145
40.0411,80.6748
39.8478,80.6748
39.8478,80.7543
39.8174,80.8278
39.7611,80.8841
39.6876,80.9145
39.6080,80.9145
39.5345,80.8841
39.4782,80.8278
39.4478,80.7543
39.4478,80.6748
39.4782,80.6013
39.5345,80.5450
39.6080,80.5145
39.6876,80.5145
39.7611,80.5450
39.8174,80.6013
39.8478,80.6748
40.0411,80.6748
40.7631,79.9528
40.7631,79.9528
40.8024,80.0070
40.8989,80.1963
40.9646,80.3984
40.9646,80.3984
40.9978,80.6083
43.5928,80.6083
43.5928,79.5993
40.4095,79.5993
40.4095,79.5993
39.6478,80.3610
39.6478,80.3610
38.8861,79.5993
38.9402,79.5599
39.1296,79.4634
39.3317,79.3978
39.5416,79.3645
39.7540,79.3645
39.9639,79.3978
39.9639,79.3978
40.1660,79.4634
40.3554,79.5599
40.4095,79.5993
43.5928,79.5993
43.5928,77.1885
40.4095,77.1885
40.4095,77.1885
40.3554,77.2278
40.1660,77.3243
39.9639,77.3899
39.7540,77.4232
39.5416,77.4232
39.3317,77.3899
39.3317,77.3899
39.1296,77.3243
38.9402,77.2278
38.8861,77.1885
38.8861,77.1885
39.6478,76.4267
40.4095,77.1885
43.5928,77.1885
43.5928,75.9669
40.9978,75.9669
40.9978,76.1794
40.9646,76.3893
40.9646,76.3893
40.8989,76.5914
40.8024,76.7807
40.7631,76.8349
40.0014,76.0732
40.0411,76.0334
39.8478,76.0334
39.8478,76.1130
39.8174,76.1865
39.7611,76.2427
39.6876,76.2732
39.6080,76.2732
39.5345,76.2427
39.4782,76.1865
39.4478,76.1130
39.4478,76.0334
39.4782,75.9599
39.5345,75.9036
39.6080,75.8732
39.6876,75.8732
39.7611,75.9036
39.8174,75.9599
39.8478,76.0334
40.0411,76.0334
40.7631,75.3115
40.7631,75.3115
40.8024,75.3656
40.8989,75.5550
40.9646,75.7570
40.9646,75.7571
40.9978,75.9669
43.5928,75.9669
43.5928,74.9579
40.4095,74.9579
40.4095,74.9579
39.6478,75.7196
39.6478,75.7196
38.8861,74.9579
38.9402,74.9186
39.1296,74.8221
39.3317,74.7564
39.5416,74.7232
39.7540,74.7232
39.9639,74.7564
39.9639,74.7564
40.1660,74.8221
40.3554,74.9186
40.4095,74.9579
43.5928,74.9579
43.5928,72.5471
40.4095,72.5471
40.4095,72.5471
40.3554,72.5864
40.1660,72.6829
39.9639,72.7486
39.7540,72.7818
39.5416,72.7818
39.3317,72.7486
39.3317,72.7486
39.1296,72.6829
38.9402,72.5864
38.8861,72.5471
38.8861,72.5471
39.6478,71.7854
40.4095,72.5471
43.5928,72.5471
43.5928,71.3256
40.9978,71.3256
40.9978,71.5381
40.9646,71.7479
40.9646,71.7479
40.8989,71.9500
40.8024,72.1394
40.7631,72.1935
40.0014,71.4318
40.0411,71.3920
39.8478,71.3920
39.8478,71.4716
39.8174,71.5451
39.7611,71.6014
39.6876,71.6318
39.6080,71.6318
39.5345,71.6014
39.4782,71.5451
39.4478,71.4716
39.4478,71.3920
39.4782,71.3185
39.5345,71.2623
39.6080,71.2318
39.6876,71.2318
39.7611,71.2623
39.8174,71.3185
39.8478,71.3920
40.0411,71.3920
40.7631,70.6701
40.7631,70.6701
40.8024,70.7243
40.8989,70.9136
40.9646,71.1157
40.9646,71.1157
40.9978,71.3256
43.5928,71.3256
43.5928,70.3165
40.4095,70.3165
40.4095,70.3165
39.6478,71.0783
39.6478,71.0783
38.8861,70.3165
38.9402,70.2772
39.1296,70.1807
39.3317,70.1151
39.5416,70.0818
39.7540,70.0818
39.9639,70.1151
39.9639,70.1151
40.1660,70.1807
40.3554,70.2772
40.4095,70.3165
43.5928,70.3165
43.5928,67.9057
40.4095,67.9057
40.4095,67.9057
40.3554,67.9451
40.1660,68.0415
39.9639,68.1072
39.7540,68.1405
39.5416,68.1405
39.3317,68.1072
39.3317,68.1072
39.1296,68.0415
38.9402,67.9451
38.8861,67.9057
38.8861,67.9057
39.6478,67.1440
40.4095,67.9057
43.5928,67.9057
43.5928,66.6842
40.9978,66.6842
40.9978,66.8967
40.9646,67.1066
40.9646,67.1066
40.8989,67.3087
40.8024,67.4980
40.7631,67.5522
40.0014,66.7905
40.0411,66.7507
39.8478,66.7507
39.8478,66.8302
39.8174,66.9037
39.7611,66.9600
39.6876,66.9905
39.6080,66.9905
39.5345,66.9600
39.4782,66.9037
39.4478,66.8302
39.4478,66.7507
39.4782,66.6772
39.5345,66.6209
39.6080,66.5905
39.6876,66.5905
39.7611,66.6209
39.8174,66.6772
39.8478,66.7507
40.0411,66.7507
40.7631,66.0287
40.7631,66.0287
40.8024,66.0829
40.8989,66.2722
40.9646,66.4743
40.9646,66.4743
40.9978,66.6842
43.5928,66.6842
43.5928,65.6752
40.4095,65.6752
40.4095,65.6752
39.6478,66.4369
39.6478,66.4369
38.8861,65.6752
38.9402,65.6358
39.1296,65.5394
39.3317,65.4737
39.5416,65.4405
39.7540,65.4405
39.9639,65.4737
39.9639,65.4737
40.1660,65.5394
40.3554,65.6358
40.4095,65.6752
43.5928,65.6752
43.5928,63.2644
40.4095,63.2644
40.4095,63.2644
40.3554,63.3037
40.1660,63.4002
39.9639,63.4658
39.7540,63.4991
39.5416,63.4991
39.3317,63.4658
39.3317,63.4658
39.1296,63.4002
38.9402,63.3037
38.8861,63.2644
38.8861,63.2644
39.6478,62.5026
40.4095,63.2644
43.5928,63.2644
43.5928,62.0428
40.9978,62.0428
40.9978,62.2553
40.9646,62.4652
40.9646,62.4652
40.8989,62.6673
40.8024,62.8566
40.7631,62.9108
40.0014,62.1491
40.0411,62.1093
39.8478,62.1093
39.8478,62.1889
39.8174,62.2624
39.7611,62.3186
39.6876,62.3491
39.6080,62.3491
39.5345,62.3186
39.4782,62.2624
39.4478,62.1889
39.4478,62.1093
39.4782,62.0358
39.5345,61.9795
39.6080,61.9491
39.6876,61.9491
39.7611,61.9795
39.8174,62.0358
39.8478,62.1093
40.0411,62.1093
40.7631,61.3874
40.7631,61.3874
40.8024,61.4415
40.8989,61.6309
40.9646,61.8330
40.9646,61.8330
40.9978,62.0428
43.5928,62.0428
43.5928,61.0338
40.4095,61.0338
40.4095,61.0338
39.6478,61.7955
39.6478,61.7955
38.8861,61.0338
38.9402,60.9945
39.1296,60.8980
39.3317,60.8323
39.5416,60.7991
39.7540,60.7991
39.9639,60.8323
39.9639,60.8323
40.1660,60.8980
40.3554,60.9945
40.4095,61.0338
43.5928,61.0338
43.5928,58.6230
40.4095,58.6230
40.4095,58.6230
40.3554,58.6624
40.1660,58.7588
39.9639,58.8245
39.7540,58.8577
39.5416,58.8577
39.3317,58.8245
39.3317,58.8245
39.1296,58.7588
38.9402,58.6623
38.8861,58.6230
38.8861,58.6230
39.6478,57.8613
40.4095,58.6230
43.5928,58.6230
43.5928,57.4015
40.9978,57.4015
40.9978,57.6140
40.9646,57.8239
40.9646,57.8239
40.8989,58.0259
40.8024,58.2153
40.7631,58.2694
40.0014,57.5077
40.0411,57.4679
39.8478,57.4679
39.8478,57.5475
39.8174,57.6210
39.7611,57.6773
39.6876,57.7077
39.6080,57.7077
39.5345,57.6773
39.4782,57.6210
39.4478,57.5475
39.4478,57.4679
39.4782,57.3944
39.5345,57.3382
39.6080,57.3077
39.6876,57.3077
39.7611,57.3382
39.8174,57.3944
39.8478,57.4679
40.0411,57.4679
40.7631,56.7460
40.7631,56.7460
40.8024,56.8002
40.8989,56.9895
40.9646,57.1916
40.9646,57.1916
40.9978,57.4015
43.5928,57.4015
43.5928,56.3925
40.4095,56.3925
40.4095,56.3925
39.6478,57.1542
39.6478,57.1542
38.8861,56.3925
38.9402,56.3531
39.1296,56.2566
39.3317,56.1910
39.5416,56.1577
39.7540,56.1577
39.9639,56.1910
39.9639,56.1910
40.1660,56.2566
40.3554,56.3531
40.4095,56.3925
43.5928,56.3925
43.5928,53.9816
40.4095,53.9816
40.4095,53.9816
40.3554,54.0210
40.1660,54.1175
39.9639,54.1831
39.7540,54.2164
39.5416,54.2164
39.3317,54.1831
39.3317,54.1831
39.1296,54.1175
38.9402,54.0210
38.8861,53.9816
38.8861,53.9816
39.6478,53.2199
40.4095,53.9816
43.5928,53.9816
43.5928,52.7601
40.9978,52.7601
40.9978,52.9726
40.9646,53.1825
40.9646,53.1825
40.8989,53.3846
40.8024,53.5739
40.7631,53.6281
40.0014,52.8664
40.0411,52.8266
39.8478,52.8266
39.8478,52.9061
39.8174,52.9797
39.7611,53.0359
39.6876,53.0664
39.6080,53.0664
39.5345,53.0359
39.4782,52.9797
39.4478,52.9061
39.4478,52.8266
39.4782,52.7531
39.5345,52.6968
39.6080,52.6664
39.6876,52.6664
39.7611,52.6968
39.8174,52.7531
39.8478,52.8266
40.0411,52.8266
40.7631,52.1046
40.7631,52.1046
40.8024,52.1588
40.8989,52.3481
40.9646,52.5502
40.9646,52.5502
40.9978,52.7601
43.5928,52.7601
43.5928,51.7511
40.4095,51.7511
40.4095,51.7511
39.6478,52.5128
39.6478,52.5128
38.8861,51.7511
38.9402,51.7117
39.1296,51.6153
39.3317,51.5496
39.5416,51.5164
39.7540,51.5164
39.9639,51.5496
39.9639,51.5496
40.1660,51.6153
40.3554,51.7117
40.4095,51.7511
43.5928,51.7511
43.5928,49.3403
40.4095,49.3403
40.4095,49.3403
40.3554,49.3796
40.1660,49.4761
39.9639,49.5418
39.7540,49.5750
39.5416,49.5750
39.3317,49.5418
39.3317,49.5418
39.1296,49.4761
38.9402,49.3796
38.8861,49.3403
38.8861,49.3403
39.6478,48.5786
40.4095,49.3403
43.5928,49.3403
43.5928,48.1188
40.9978,48.1188
40.9978,48.3312
40.9646,48.5411
40.9646,48.5411
40.8989,48.7432
40.8024,48.9325
40.7631,48.9867
40.0014,48.2250
40.0411,48.1852
39.8478,48.1852
39.8478,48.2648
39.8174,48.3383
39.7611,48.3946
39.6876,48.4250
39.6080,48.4250
39.5345,48.3946
39.4782,48.3383
39.4478,48.2648
39.4478,48.1852
39.4782,48.1117
39.5345,48.0554
39.6080,48.0250
39.6876,48.0250
39.7611,48.0554
39.8174,48.1117
39.8478,48.1852
40.0411,48.1852
40.7631,47.4633
40.7631,47.4633
40.8024,47.5174
40.8989,47.7068
40.9646,47.9089
40.9646,47.9089
40.9978,48.1188
43.5928,48.1188
43.5928,47.1097
40.4095,47.1097
40.4095,47.1097
39.6478,47.8714
39.6478,47.8714
38.8861,47.1097
38.9402,47.0704
39.1296,46.9739
39.3317,46.9082
39.5416,46.8750
39.7540,46.8750
39.9639,46.9082
39.9639,46.9082
40.1660,46.9739
40.3554,47.0704
40.4095,47.1097
43.5928,47.1097
43.5928,44.6989
40.4095,44.6989
40.4095,44.6989
40.3554,44.7383
40.1660,44.8347
39.9639,44.9004
39.7540,44.9336
39.5416,44.9336
39.3317,44.9004
39.3317,44.9004
39.1296,44.8347
38.9402,44.7383
38.8861,44.6989
38.8861,44.6989
39.6478,43.9372
40.4095,44.6989
43.5928,44.6989
43.5928,43.4774
40.9978,43.4774
40.9978,43.6899
40.9646,43.8998
40.9646,43.8998
40.8989,44.1019
40.8024,44.2912
40.7631,44.3454
40.0014,43.5836
40.0411,43.5439
39.8478,43.5439
39.8478,43.6234
39.8174,43.6969
39.7611,43.7532
39.6876,43.7836
39.6080,43.7836
39.5345,43.7532
39.4782,43.6969
39.4478,43.6234
39.4478,43.5439
39.4782,43.4703
39.5345,43.4141
39.6080,43.3836
39.6876,43.3836
39.7611,43.4141
39.8174,43.4703
39.8478,43.5439
40.0411,43.5439
40.7631,42.8219
40.7631,42.8219
40.8024,42.8761
40.8989,43.0654
40.9646,43.2675
40.9646,43.2675
40.9978,43.4774
43.5928,43.4774
43.5928,42.4684
40.4095,42.4684
40.4095,42.4684
39.6478,43.2301
39.6478,43.2301
38.8861,42.4684
38.9402,42.4290
39.1296,42.3325
39.3317,42.2669
39.5416,42.2336
39.7540,42.2336
39.9639,42.2669
39.9639,42.2669
40.1660,42.3325
40.3554,42.4290
40.4095,42.4684
43.5928,42.4684
43.5928,40.2498
40.4095,40.2498
40.4095,40.2498
40.3554,40.2892
40.1660,40.3856
39.9639,40.4513
39.7540,40.4845
39.5416,40.4845
39.3317,40.4513
39.3317,40.4513
39.1296,40.3856
38.9402,40.2892
38.8861,40.2498
38.8861,40.2498
39.6478,39.4881
40.4095,40.2498
43.5928,40.2498
43.5928,39.0283
40.9978,39.0283
40.9978,39.2408
40.9646,39.4507
40.9646,39.4507
40.8989,39.6528
40.8024,39.8421
40.7631,39.8963
40.0014,39.1345
40.0411,39.0948
39.8478,39.0948
39.8478,39.1743
39.8174,39.2478
39.7611,39.3041
39.6876,39.3345
39.6080,39.3345
39.5345,39.3041
39.4782,39.2478
39.4478,39.1743
39.4478,39.0948
39.4782,39.0213
39.5345,38.9650
39.6080,38.9345
39.6876,38.9345
39.7611,38.9650
39.8174,39.0213
39.8478,39.0948
40.0411,39.0948
40.7631,38.3728
40.7631,38.3728
40.8024,38.4270
40.8989,38.6163
40.9646,38.8184
40.9646,38.8184
40.9978,39.0283
43.5928,39.0283
43.5928,38.0193
40.4095,38.0193
40.4095,38.0193
39.6478,38.7810
39.6478,38.7810
38.8861,38.0193
38.9402,37.9799
39.1296,37.8834
39.3317,37.8178
39.5416,37.7845
39.7540,37.7845
39.9639,37.8178
39.9639,37.8178
40.1660,37.8834
40.3554,37.9799
40.4095,38.0193
43.5928,38.0193
43.5928,35.7248
40.4095,35.7248
40.4095,35.7248
40.3554,35.7642
40.1660,35.8606
39.9639,35.9263
39.7540,35.9595
39.5416,35.9595
39.3317,35.9263
39.3317,35.9263
39.1296,35.8606
38.9402,35.7642
38.8861,35.7248
38.8861,35.7248
39.6478,34.9631
40.4095,35.7248
43.5928,35.7248
43.5928,34.5033
40.9978,34.5033
40.9978,34.7158
40.9646,34.9257
40.9646,34.9257
40.8989,35.1278
40.8024,35.3171
40.7631,35.3713
40.0014,34.6095
40.0411,34.5698
39.8478,34.5698
39.8478,34.6493
39.8174,34.7228
39.7611,34.7791
39.6876,34.8095
39.6080,34.8095
39.5345,34.7791
39.4782,34.7228
39.4478,34.6493
39.4478,34.5698
39.4782,34.4963
39.5345,34.4400
39.6080,34.4095
39.6876,34.4095
39.7611,34.4400
39.8174,34.4963
39.8478,34.5698
40.0411,34.5698
40.7631,33.8478
40.7631,33.8478
40.8024,33.9020
40.8989,34.0913
40.9646,34.2934
40.9646,34.2934
40.9978,34.5033
43.5928,34.5033
43.5928,33.4943
40.4095,33.4943
40.4095,33.4943
39.6478,34.2560
39.6478,34.2560
38.8861,33.4943
38.9402,33.4549
39.1296,33.3584
39.3317,33.2928
39.5416,33.2595
39.7540,33.2595
39.9639,33.2928
39.9639,33.2928
40.1660,33.3584
40.3554,33.4549
40.4095,33.4943
43.5928,33.4943
43.5928,31.1248
40.4095,31.1248
40.4095,31.1248
40.3554,31.1642
40.1660,31.2606
39.9639,31.3263
39.7540,31.3595
39.5416,31.3595
39.3317,31.3263
39.3317,31.3263
39.1296,31.2606
38.9402,31.1642
38.8861,31.1248
38.8861,31.1248
39.6478,30.3631
40.4095,31.1248
43.5928,31.1248
43.5928,29.9033
40.9978,29.9033
40.9978,30.1158
40.9646,30.3257
40.9646,30.3257
40.8989,30.5278
40.8024,30.7171
40.7631,30.7713
40.0014,30.0095
40.0411,29.9698
39.8478,29.9698
39.8478,30.0493
39.8174,30.1228
39.7611,30.1791
39.6876,30.2095
39.6080,30.2095
39.5345,30.1791
39.4782,30.1228
39.4478,30.0493
39.4478,29.9698
39.4782,29.8963
39.5345,29.8400
39.6080,29.8095
39.6876,29.8095
39.7611,29.8400
39.8174,29.8963
39.8478,29.9698
40.0411,29.9698
40.7631,29.2478
40.7631,29.2478
40.8024,29.3020
40.8989,29.4913
40.9646,29.6934
40.9646,29.6934
40.9978,29.9033
43.5928,29.9033
43.5928,28.8943
40.4095,28.8943
40.4095,28.8943
39.6478,29.6560
39.6478,29.6560
38.8861,28.8943
38.9402,28.8549
39.1296,28.7584
39.3317,28.6928
39.5416,28.6595
39.7540,28.6595
39.9639,28.6928
39.9639,28.6928
40.1660,28.7584
40.3554,28.8549
40.4095,28.8943
43.5928,28.8943
43.5928,24.6153
39.7545,24.6153
39.7545,24.6153
39.7004,24.6546
39.5110,24.7511
39.3089,24.8168
39.0990,24.8500
38.8866,24.8500
38.6767,24.8168
38.6767,24.8168
38.4746,24.7511
38.2852,24.6546
38.2311,24.6153
38.2311,24.6153
38.9928,23.8536
39.7545,24.6153
43.5928,24.6153
43.5928,23.3938
40.3428,23.3938
40.3428,23.6062
40.3096,23.8161
40.3096,23.8161
40.2439,24.0182
40.1474,24.2075
40.1081,24.2617
39.3464,23.5000
39.3861,23.4602
39.1928,23.4602
39.1928,23.5398
39.1624,23.6133
39.1061,23.6696
39.0326,23.7000
38.9530,23.7000
38.8795,23.6696
38.8232,23.6133
38.7928,23.5398
38.7928,23.5000
38.6392,23.5000
38.6392,23.5000
37.8775,24.2617
37.8775,24.2617
37.8382,24.2076
37.7417,24.0182
37.6760,23.8161
37.6760,23.8161
37.6428,23.6062
37.6428,23.3938
37.6760,23.1839
37.6760,23.1839
37.7417,22.9818
37.8382,22.7924
37.8775,22.7383
37.8775,22.7383
38.6392,23.5000
38.7928,23.5000
38.7928,23.4602
38.8232,23.3867
38.8795,23.3304
38.9530,23.3000
39.0326,23.3000
39.1061,23.3304
39.1624,23.3867
39.1928,23.4602
39.3861,23.4602
40.1081,22.7383
40.1081,22.7383
40.1474,22.7924
40.2439,22.9818
40.3096,23.1839
40.3096,23.1839
40.3428,23.3938
43.5928,23.3938
43.5928,12.8931
40.3513,12.8931
40.3513,13.1069
40.3178,13.3181
40.2518,13.5215
40.2518,13.5215
40.1556,13.7102
40.1547,13.7120
40.0290,13.8850
40.0290,13.8850
40.0261,13.8889
40.0277,13.8901
40.0024,13.9464
40.0013,13.9632
40.0013,19.7345
40.0210,19.8015
40.0376,19.8221
40.1418,19.9263
40.2349,20.0773
40.2349,20.0773
40.2907,20.2456
40.3013,20.3494
40.3013,21.6505
40.3013,21.6506
40.2907,21.7544
40.2349,21.9227
40.2349,21.9227
40.2108,21.9619
40.1418,22.0737
40.0165,22.1990
39.8655,22.2921
39.8425,22.2998
39.7850,22.3395
39.7746,22.3647
38.9928,23.1464
38.9928,23.1464
38.2156,22.3692
38.2134,22.3588
38.1643,22.3091
38.1431,22.2998
38.1201,22.2921
37.9691,22.1990
37.8438,22.0737
37.7507,21.9227
37.6949,21.7544
37.6843,21.6505
37.6843,20.3495
37.6949,20.2456
37.7507,20.0773
37.8438,19.9263
37.9480,19.8221
37.9815,19.7608
37.9843,19.7345
37.9843,13.9632
37.9646,13.8961
37.9593,13.8890
37.9595,13.8889
37.9566,13.8850
37.9566,13.8850
37.8309,13.7120
37.7338,13.5215
37.6678,13.3181
37.6343,13.1069
37.6343,13.1069
37.6335,13.1021
37.6316,13.1024
37.6097,13.0447
37.5986,13.0320
33.1114,8.5448
33.0501,8.5113
33.0237,8.5085
27.3789,8.5085
27.3118,8.5282
27.2661,8.5810
27.2612,8.5935
27.2349,8.6727
27.2349,8.6727
27.2349,8.6727
27.1418,8.8237
27.0165,8.9490
26.8655,9.0421
26.6972,9.0979
26.5933,9.1085
25.3923,9.1085
25.2884,9.0979
25.1201,9.0421
24.9691,8.9490
24.8438,8.8237
24.7507,8.6727
24.7507,8.6727
24.7244,8.5935
24.6847,8.5361
24.6201,8.5092
24.6067,8.5085
17.9619,8.5085
17.8949,8.5282
17.8742,8.5448
9.7876,16.6314
9.7541,16.6927
9.7513,16.7191
9.7513,22.0309
9.7710,22.0979
9.7876,22.1186
10.8742,23.2052
10.9355,23.2387
10.9619,23.2415
12.7637,23.2415
12.8308,23.2218
12.8765,23.1690
12.8865,23.0999
12.8574,23.0363
12.8514,23.0298
12.7993,22.9777
12.7066,22.8850
12.5809,22.7120
12.4838,22.5215
12.4178,22.3181
12.3843,22.1069
12.3843,21.8931
12.4178,21.6819
12.4729,21.5120
12.4838,21.4785
12.4838,21.4785
12.5638,21.3215
12.5809,21.2880
12.7066,21.1150
12.7066,21.1150
12.7095,21.1111
12.7079,21.1099
12.7332,21.0535
12.7343,21.0368
12.7343,17.1507
12.7343,17.1507
12.7731,16.9558
12.7731,16.9558
12.8045,16.8798
12.8491,16.7723
12.8846,16.7191
12.9594,16.6071
12.9594,16.6071
19.8499,9.7166
19.8499,9.7166
20.0151,9.6063
20.0151,9.6063
20.1986,9.5303
20.1986,9.5303
20.3935,9.4915
20.3935,9.4915
27.3935,9.4915
27.5921,9.4915
27.5921,9.4915
27.7870,9.5303
27.7870,9.5303
27.9705,9.6063
27.9705,9.6063
28.1357,9.7166
28.1357,9.7166
29.7757,11.3566
29.8459,11.4269
29.9162,11.4971
30.0265,11.6623
30.0265,11.6623
30.1025,11.8458
30.1025,11.8458
30.1413,12.0407
30.1413,12.6368
30.1610,12.7038
30.1663,12.7110
30.1661,12.7111
30.1690,12.7150
30.1690,12.7150
30.2293,12.7979
30.2947,12.8880
30.3918,13.0785
30.3918,13.0785
30.4578,13.2819
30.4913,13.4931
30.4913,14.0069
30.4578,14.2181
30.3918,14.4215
30.3918,14.4215
30.3123,14.5775
30.2947,14.6120
30.1690,14.7850
30.1690,14.7850
30.1661,14.7889
30.1677,14.7901
30.1424,14.8464
30.1413,14.8632
30.1413,19.5368
30.1610,19.6038
30.1663,19.6110
30.1661,19.6111
30.1690,19.6150
30.1690,19.6150
30.2293,19.6979
30.2947,19.7880
30.3918,19.9785
30.3918,19.9785
30.4578,20.1819
30.4913,20.3931
30.4913,20.9069
30.4578,21.1181
30.3918,21.3215
30.3918,21.3215
30.3123,21.4775
30.2947,21.5120
30.1690,21.6850
30.0178,21.8362
29.8448,21.9619
29.7559,22.0072
29.6543,22.0590
29.6543,22.0590
29.5526,22.0920
29.4509,22.1250
29.2397,22.1585
29.2397,22.1585
29.0259,22.1585
29.0259,22.1585
28.8147,22.1250
28.6113,22.0590
28.4208,21.9619
28.2478,21.8362
28.0966,21.6850
27.9709,21.5120
27.9709,21.5120
27.9685,21.5081
27.9441,21.4860
27.9204,21.4631
27.9183,21.4627
27.9167,21.4613
27.8842,21.4559
27.8519,21.4494
27.8499,21.4502
27.8478,21.4498
27.8175,21.4629
27.7868,21.4749
27.7851,21.4768
27.7836,21.4775
27.7623,21.5003
27.7568,21.5079
27.7547,21.5120
27.6290,21.6850
27.6283,21.6857
27.6248,21.6906
27.6148,21.7189
27.6024,21.7464
27.6018,21.7555
27.6015,21.7564
27.6017,21.7573
27.6013,21.7632
27.6013,22.1309
27.6210,22.1979
27.6376,22.2186
28.3742,22.9552
28.4355,22.9887
28.4619,22.9915
33.2642,22.9915
33.4590,23.0303
33.4590,23.0303
33.4590,23.0303
33.4590,23.0303
33.5351,23.0617
33.5351,23.0617
33.6426,23.1063
33.8078,23.2166
33.8078,23.2166
37.1291,26.5380
37.7507,27.1596
37.8013,27.2102
37.8912,27.3000
38.0015,27.4652
38.0015,27.4652
38.0775,27.6487
38.0775,27.6488
38.1163,27.8436
38.1163,29.0464
38.1221,29.0663
38.1231,29.0870
38.1336,29.1052
38.1360,29.1134
38.1393,29.1183
38.1431,29.1237
38.1440,29.1245
38.2697,29.2975
38.2763,29.3104
38.2816,29.3179
38.3021,29.3340
38.3201,29.3530
38.3292,29.3553
38.3365,29.3611
38.3625,29.3635
38.3879,29.3698
38.3968,29.3668
38.4061,29.3677
38.4293,29.3557
38.4540,29.3473
38.4608,29.3394
38.4682,29.3356
38.4763,29.3216
38.4900,29.3058
38.4906,29.3061
38.4930,29.3023
38.4931,29.3022
38.4932,29.3020
38.5325,29.2478
38.5325,29.2478
39.2942,30.0095
39.2942,30.0095
38.5325,30.7713
38.5325,30.7713
38.4932,30.7171
38.4931,30.7169
38.4930,30.7168
38.4906,30.7129
38.4898,30.7134
38.4451,30.6661
38.3773,30.6493
38.3111,30.6718
38.2816,30.7012
38.2763,30.7087
38.2697,30.7216
38.1440,30.8945
38.1431,30.8954
38.1393,30.9008
38.1296,30.9288
38.1174,30.9560
38.1168,30.9658
38.1164,30.9668
38.1166,30.9676
38.1163,30.9727
38.1163,33.6464
38.1360,33.7134
38.1413,33.7205
38.1411,33.7206
38.1440,33.7245
38.1440,33.7245
38.1797,33.7736
38.2697,33.8975
38.2721,33.9022
38.3201,33.9530
38.3879,33.9698
38.4540,33.9473
38.4900,33.9058
38.4906,33.9061
38.4930,33.9023
38.4931,33.9022
38.4932,33.9020
38.5325,33.8478
38.5325,33.8478
39.2942,34.6095
39.2942,34.6095
38.5325,35.3713
38.5325,35.3713
38.4932,35.3171
38.4931,35.3169
38.4930,35.3168
38.4906,35.3129
38.4898,35.3134
38.4451,35.2661
38.3773,35.2493
38.3111,35.2718
38.2816,35.3012
38.2763,35.3087
38.2697,35.3216
38.1440,35.4945
38.1431,35.4954
38.1393,35.5008
38.1296,35.5288
38.1174,35.5560
38.1168,35.5658
38.1164,35.5668
38.1166,35.5676
38.1163,35.5727
38.1163,38.1714
38.1360,38.2384
38.1413,38.2455
38.1411,38.2456
38.1440,38.2495
38.1440,38.2495
38.2004,38.3271
38.2697,38.4225
38.2721,38.4272
38.3201,38.4780
38.3879,38.4948
38.4540,38.4723
38.4900,38.4308
38.4906,38.4311
38.4930,38.4273
38.4931,38.4272
38.4932,38.4270
38.5325,38.3728
38.5325,38.3728
39.2942,39.1345
39.2942,39.1345
38.5325,39.8963
38.5325,39.8963
38.4932,39.8421
38.4931,39.8419
38.4930,39.8418
38.4906,39.8379
38.4898,39.8384
38.4451,39.7911
38.3773,39.7743
38.3111,39.7968
38.2816,39.8262
38.2763,39.8337
38.2697,39.8466
38.1440,40.0195
38.1431,40.0204
38.1393,40.0258
38.1296,40.0538
38.1174,40.0810
38.1168,40.0908
38.1164,40.0918
38.1166,40.0926
38.1163,40.0977
38.1163,42.6204
38.1360,42.6875
38.1413,42.6946
38.1411,42.6947
38.1440,42.6986
38.1440,42.6986
38.2004,42.7762
38.2697,42.8716
38.2721,42.8763
38.3201,42.9271
38.3879,42.9439
38.4540,42.9214
38.4900,42.8799
38.4906,42.8802
38.4930,42.8764
38.4931,42.8763
38.4932,42.8761
38.5325,42.8219
38.5325,42.8219
39.2942,43.5836
39.2942,43.5836
38.5325,44.3454
38.5325,44.3454
38.4932,44.2912
38.4931,44.2910
38.4930,44.2909
38.4906,44.2870
38.4898,44.2875
38.4451,44.2402
38.3773,44.2234
38.3111,44.2459
38.2816,44.2753
38.2763,44.2828
38.2697,44.2956
38.1440,44.4686
38.1431,44.4695
38.1393,44.4748
38.1296,44.5029
38.1174,44.5300
38.1168,44.5399
38.1164,44.5409
38.1166,44.5417
38.1163,44.5468
38.1163,47.2618
38.1360,47.3288
38.1413,47.3360
38.1411,47.3361
38.1440,47.3400
38.1440,47.3400
38.2004,47.4176
38.2697,47.5130
38.2721,47.5177
38.3201,47.5685
38.3879,47.5853
38.4540,47.5627
38.4900,47.5212
38.4906,47.5216
38.4930,47.5178
38.4931,47.5177
38.4932,47.5174
38.5325,47.4633
38.5325,47.4633
39.2942,48.2250
39.2942,48.2250
38.5325,48.9867
38.5325,48.9867
38.4932,48.9326
38.4931,48.9323
38.4930,48.9323
38.4906,48.9284
38.4898,48.9289
38.4451,48.8815
38.3773,48.8647
38.3111,48.8873
38.2816,48.9166
38.2763,48.9241
38.2697,48.9370
38.1440,49.1100
38.1431,49.1109
38.1393,49.1162
38.1296,49.1443
38.1174,49.1714
38.1168,49.1813
38.1164,49.1822
38.1166,49.1831
38.1163,49.1882
38.1163,51.9032
38.1360,51.9702
38.1413,51.9773
38.1411,51.9774
38.1440,51.9814
38.1440,51.9814
38.2004,52.0589
38.2697,52.1544
38.2721,52.1591
38.3201,52.2098
38.3879,52.2266
38.4540,52.2041
38.4900,52.1626
38.4906,52.1630
38.4930,52.1591
38.4931,52.1590
38.4932,52.1588
38.5325,52.1046
38.5325,52.1046
39.2942,52.8664
39.2942,52.8664
38.5325,53.6281
38.5325,53.6281
38.4932,53.5739
38.4931,53.5737
38.4930,53.5736
38.4906,53.5698
38.4898,53.5703
38.4451,53.5229
38.3773,53.5061
38.3111,53.5286
38.2816,53.5580
38.2763,53.5655
38.2697,53.5784
38.1440,53.7514
38.1431,53.7522
38.1393,53.7576
38.1296,53.7856
38.1174,53.8128
38.1168,53.8226
38.1164,53.8236
38.1166,53.8244
38.1163,53.8296
38.1163,56.5445
38.1360,56.6116
38.1413,56.6187
38.1411,56.6188
38.1440,56.6227
38.1440,56.6227
38.2004,56.7003
38.2697,56.7957
38.2721,56.8004
38.3201,56.8512
38.3879,56.8680
38.4540,56.8455
38.4900,56.8039
38.4906,56.8043
38.4930,56.8005
38.4931,56.8004
38.4932,56.8002
38.5325,56.7460
38.5325,56.7460
39.2942,57.5077
39.2942,57.5077
38.5325,58.2694
38.5325,58.2694
38.4932,58.2153
38.4931,58.2151
38.4930,58.2150
38.4906,58.2111
38.4898,58.2116
38.4451,58.1643
38.3773,58.1474
38.3111,58.1700
38.2816,58.1994
38.2763,58.2069
38.2697,58.2197
38.1440,58.3927
38.1431,58.3936
38.1393,58.3989
38.1296,58.4270
38.1174,58.4541
38.1168,58.4640
38.1164,58.4650
38.1166,58.4658
38.1163,58.4709
38.1163,61.1859
38.1360,61.2529
38.1413,61.2601
38.1411,61.2601
38.1440,61.2641
38.1440,61.2641
38.1756,61.3076
38.2697,61.4371
38.2721,61.4418
38.3201,61.4926
38.3879,61.5094
38.4540,61.4868
38.4900,61.4453
38.4906,61.4457
38.4930,61.4419
38.4931,61.4418
38.4932,61.4415
38.5325,61.3874
38.5325,61.3874
39.2942,62.1491
39.2942,62.1491
38.5325,62.9108
38.5325,62.9108
38.4932,62.8566
38.4931,62.8564
38.4930,62.8563
38.4906,62.8525
38.4898,62.8530
38.4451,62.8056
38.3773,62.7888
38.3111,62.8113
38.2816,62.8407
38.2763,62.8482
38.2697,62.8611
38.1440,63.0341
38.1431,63.0350
38.1393,63.0403
38.1296,63.0684
38.1174,63.0955
38.1168,63.1054
38.1164,63.1063
38.1166,63.1072
38.1163,63.1123
38.1163,65.8273
38.1360,65.8943
38.1413,65.9014
38.1411,65.9015
38.1440,65.9054
38.1440,65.9055
38.1909,65.9700
38.2697,66.0784
38.2721,66.0831
38.3201,66.1339
38.3879,66.1507
38.4540,66.1282
38.4900,66.0867
38.4906,66.0871
38.4930,66.0832
38.4931,66.0831
38.4932,66.0829
38.5325,66.0287
38.5325,66.0287
39.2942,66.7905
39.2942,66.7905
38.5325,67.5522
38.5325,67.5522
38.4932,67.4980
38.4931,67.4978
38.4930,67.4977
38.4906,67.4939
38.4898,67.4944
38.4451,67.4470
38.3773,67.4302
38.3111,67.4527
38.2816,67.4821
38.2763,67.4896
38.2697,67.5025
38.1440,67.6755
38.1431,67.6763
38.1393,67.6817
38.1296,67.7097
38.1174,67.7369
38.1168,67.7467
38.1164,67.7477
38.1166,67.7485
38.1163,67.7536
38.1163,70.4686
38.1360,70.5357
38.1413,70.5428
38.1411,70.5429
38.1440,70.5468
38.1440,70.5468
38.1560,70.5633
38.2697,70.7198
38.2721,70.7245
38.3201,70.7753
38.3879,70.7921
38.4540,70.7695
38.4900,70.7280
38.4906,70.7284
38.4930,70.7246
38.4931,70.7245
38.4932,70.7243
38.5325,70.6701
38.5325,70.6701
39.2942,71.4318
39.2942,71.4318
38.5325,72.1935
38.5325,72.1935
38.4932,72.1394
38.4931,72.1391
38.4930,72.1391
38.4906,72.1352
38.4898,72.1357
38.4451,72.0883
38.3773,72.0715
38.3111,72.0941
38.2816,72.1234
38.2763,72.1309
38.2697,72.1438
38.1440,72.3168
38.1431,72.3177
38.1393,72.3230
38.1296,72.3511
38.1174,72.3782
38.1168,72.3881
38.1164,72.3890
38.1166,72.3899
38.1163,72.3950
38.1163,75.1100
38.1360,75.1770
38.1413,75.1841
38.1411,75.1842
38.1440,75.1882
38.1440,75.1882
38.1597,75.2097
38.2697,75.3612
38.2721,75.3659
38.3201,75.4167
38.3879,75.4335
38.4540,75.4109
38.4900,75.3694
38.4906,75.3698
38.4930,75.3660
38.4931,75.3659
38.4932,75.3656
38.5325,75.3115
38.5325,75.3115
39.2942,76.0732
39.2942,76.0732
38.5325,76.8349
38.5325,76.8349
38.4932,76.7807
38.4931,76.7805
38.4930,76.7804
38.4906,76.7766
38.4898,76.7771
38.4451,76.7297
38.3773,76.7129
38.3111,76.7354
38.2816,76.7648
38.2763,76.7723
38.2697,76.7852
38.1440,76.9582
38.1431,76.9591
38.1393,76.9644
38.1296,76.9925
38.1174,77.0196
38.1168,77.0295
38.1164,77.0304
38.1166,77.0313
38.1163,77.0364
38.1163,79.7514
38.1360,79.8184
38.1413,79.8255
38.1411,79.8256
38.1440,79.8295
38.1440,79.8295
38.2004,79.9071
38.2697,80.0025
38.2721,80.0072
38.3201,80.0580
38.3879,80.0748
38.4540,80.0523
38.4900,80.0108
38.4906,80.0111
38.4930,80.0073
38.4931,80.0072
38.4932,80.0070
38.5325,79.9528
38.5325,79.9528
39.2942,80.7145
39.2942,80.7145
38.5325,81.4763
38.5325,81.4763
38.4932,81.4221
38.4931,81.4219
38.4930,81.4218
38.4906,81.4179
38.4898,81.4184
38.4451,81.3711
38.3773,81.3543
38.3111,81.3768
38.2721,81.4219
38.2697,81.4266
38.1440,81.5995
37.9928,81.7508
37.8198,81.8764
37.7264,81.9241
37.6293,81.9735
37.6293,81.9735
37.5276,82.0066
37.4259,82.0396
37.2147,82.0730
37.2147,82.0730
37.0009,82.0730
37.0009,82.0730
36.7897,82.0396
36.5863,81.9735
36.3958,81.8764
36.2228,81.7508
36.1176,81.6456
36.0563,81.6121
35.9866,81.6171
35.9307,81.6589
35.9138,81.6899
35.8687,81.8107
35.8544,81.8298
35.7811,81.9278
35.6640,82.0154
35.5270,82.0665
35.4997,82.0695
35.4665,82.0730
35.4664,82.0730
33.6692,82.0730
33.6691,82.0730
33.6421,82.0701
33.6086,82.0665
33.4716,82.0154
33.3545,81.9278
33.2669,81.8107
33.2643,81.8037
33.2224,81.7478
33.1570,81.7234
33.1481,81.7230
11.4080,81.7230
11.4080,81.7230
11.2132,81.6843
11.0296,81.6083
10.8645,81.4979
10.7240,81.3574
8.1008,78.7342
8.0395,78.7007
8.0325,78.6994
7.8864,78.6763
7.6905,78.6126
7.5070,78.5191
7.3404,78.3981
7.1947,78.2524
7.0737,78.0858
6.9802,77.9023
6.9165,77.7064
6.8843,77.5030
6.8843,77.2970
6.8860,77.2864
6.9165,77.0936
6.9515,76.9859
6.9802,76.8977
6.9802,76.8977
6.9802,76.8977
7.0399,76.7804
7.0737,76.7142
7.1629,76.5914
7.1947,76.5476
7.1947,76.5476
7.3404,76.4019
7.3404,76.4019
7.5070,76.2809
7.5070,76.2809
7.5070,76.2809
7.5863,76.2405
7.6371,76.1925
7.6538,76.1247
7.6313,76.0586
7.5863,76.0195
7.5070,75.9791
7.3873,75.8922
7.3215,75.8687
7.3144,75.8685
6.7535,75.8685
6.7535,75.8685
6.5586,75.8297
6.3751,75.7537
6.2099,75.6434
6.0694,75.5029
3.7094,73.1429
3.5991,72.9777
3.5347,72.8223
3.5231,72.7942
3.5210,72.7838
3.4843,72.5993
3.4843,72.5993
3.4843,38.4007
3.4843,38.4007
3.5144,38.2495
3.5231,38.2058
3.5453,38.1521
3.5991,38.0223
3.7094,37.8571
3.7094,37.8571
6.9060,34.6606
6.9395,34.5992
6.9345,34.5295
6.8926,34.4736
6.8272,34.4492
6.7740,34.4578
6.7739,34.4575
6.7718,34.4582
6.7709,34.4583
6.7693,34.4590
6.5659,34.5250
6.3547,34.5585
6.3547,34.5585
6.1409,34.5585
6.1409,34.5585
5.9297,34.5250
5.7263,34.4590
5.5358,34.3619
5.3628,34.2362
5.2116,34.0850
5.0859,33.9120
4.9888,33.7215
4.9228,33.5181
4.8893,33.3069
4.8893,33.0931
4.9228,32.8819
4.9888,32.6785
4.9888,32.6785
5.0543,32.5500
5.0859,32.4880
5.2106,32.3163
5.2341,32.2505
5.2343,32.2435
5.2343,28.2132
5.2146,28.1461
5.2093,28.1390
5.2095,28.1389
5.2066,28.1350
5.2066,28.1350
5.0809,27.9620
4.9838,27.7715
4.9178,27.5681
4.8843,27.3569
4.8843,27.1431
4.9178,26.9319
4.9838,26.7285
4.9838,26.7285
5.0458,26.6069
5.0809,26.5380
5.2066,26.3650
5.3578,26.2138
5.5308,26.0881
5.7213,25.9910
5.7213,25.9910
5.9247,25.9250
6.0403,25.9066
6.1359,25.8915
6.3497,25.8915
6.4201,25.9026
6.5609,25.9250
6.7643,25.9910
6.7643,25.9910
6.9548,26.0881
7.1278,26.2138
7.2285,26.3145
7.2898,26.3480
7.3595,26.3430
7.4155,26.3011
7.4357,26.2498
7.4374,26.2502
7.4392,26.2426
7.4894,26.1079
7.4894,26.1079
7.5756,25.9928
7.5756,25.9928
7.6907,25.9066
7.6907,25.9066
7.8254,25.8564
7.8254,25.8564
7.8850,25.8500
8.5328,25.8500
8.5328,28.6500
7.8850,28.6500
7.8850,28.6500
7.8254,28.6436
7.8254,28.6436
7.6907,28.5934
7.6907,28.5933
7.5756,28.5072
7.5756,28.5072
7.4894,28.3921
7.4852,28.3843
7.4826,28.3857
7.4496,28.3416
7.3841,28.3172
7.3159,28.3320
7.2665,28.3814
7.2513,28.4409
7.2513,32.2310
7.2573,32.2514
7.2585,32.2726
7.2687,32.2902
7.2710,32.2980
7.2750,32.3038
7.2806,32.3116
7.2840,32.3150
7.4097,32.4880
7.4118,32.4922
7.4175,32.5000
7.4414,32.5184
7.4639,32.5387
7.4688,32.5396
7.4728,32.5426
7.5030,32.5452
7.5328,32.5502
7.5374,32.5482
7.5424,32.5486
7.5692,32.5345
7.5970,32.5225
7.6013,32.5176
7.6042,32.5160
7.6072,32.5107
7.6235,32.4919
7.6259,32.4880
7.6652,32.4339
7.7516,32.3150
7.9028,32.1638
8.0758,32.0381
8.2663,31.9410
8.2663,31.9410
8.4697,31.8750
8.5753,31.8582
8.6809,31.8415
8.8947,31.8415
8.9651,31.8526
9.1059,31.8750
9.3093,31.9410
9.3093,31.9410
9.4998,32.0381
9.6728,32.1638
9.8240,32.3150
9.9497,32.4880
10.0468,32.6785
10.0468,32.6785
10.1128,32.8819
10.1128,32.8819
10.1463,33.0931
10.1463,33.3069
10.1381,33.3584
10.1128,33.5181
10.0468,33.7215
10.0468,33.7215
9.9535,33.9046
9.9497,33.9120
9.8240,34.0850
9.8240,34.0850
9.6728,34.2362
9.5974,34.2910
9.5547,34.3463
9.5463,34.3913
9.5463,34.5543
9.5075,34.7492
9.5075,34.7492
9.4435,34.9037
9.4435,34.9037
9.4315,34.9327
9.4315,34.9327
9.3212,35.0979
9.3212,35.0979
5.5376,38.8814
5.5041,38.9427
5.5013,38.9691
5.5013,72.0309
5.5210,72.0979
5.5376,72.1186
7.2311,73.8120
7.2924,73.8455
7.3621,73.8405
7.3916,73.8247
7.5070,73.7409
7.5070,73.7409
7.5070,73.7409
7.5863,73.7005
7.6371,73.6525
7.6538,73.5847
7.6313,73.5186
7.5863,73.4795
7.5070,73.4391
7.3404,73.3181
7.1947,73.1724
7.0737,73.0058
6.9802,72.8223
6.9165,72.6264
6.8843,72.4230
6.8843,72.2170
6.8991,72.1234
6.9165,72.0136
6.9802,71.8177
7.0157,71.7479
7.0737,71.6342
7.1384,71.5451
7.1947,71.4676
7.1947,71.4676
7.3404,71.3219
7.3404,71.3219
7.5070,71.2009
7.5070,71.2009
7.5070,71.2009
7.5863,71.1605
7.6371,71.1125
7.6538,71.0447
7.6313,70.9786
7.5863,70.9395
7.5070,70.8991
7.3404,70.7781
7.1947,70.6324
7.0737,70.4658
6.9802,70.2823
6.9165,70.0864
6.8843,69.8830
6.8843,69.6770
6.9165,69.4736
6.9802,69.2777
6.9802,69.2777
6.9802,69.2777
7.0141,69.2111
7.0737,69.0942
7.0891,69.0729
7.1947,68.9276
7.1947,68.9276
7.3404,68.7819
7.3404,68.7819
7.5070,68.6609
7.5070,68.6609
7.5070,68.6609
7.5863,68.6205
7.6371,68.5725
7.6538,68.5047
7.6313,68.4386
7.5863,68.3995
7.5070,68.3591
7.3404,68.2381
7.1947,68.0924
7.0737,67.9258
6.9802,67.7423
6.9165,67.5464
6.8843,67.3430
6.8843,67.1370
6.9165,66.9336
6.9802,66.7377
6.9802,66.7377
6.9802,66.7377
7.0397,66.6209
7.0737,66.5542
7.1317,66.4743
7.1947,66.3876
7.1947,66.3876
7.3404,66.2419
7.3404,66.2419
7.5070,66.1209
7.5070,66.1209
7.5070,66.1209
7.5863,66.0805
7.6371,66.0325
7.6538,65.9647
7.6313,65.8986
7.5863,65.8595
7.5070,65.8191
7.3404,65.6981
7.1947,65.5524
7.0737,65.3858
6.9802,65.2023
6.9165,65.0064
6.8843,64.8030
6.8843,64.5970
6.9165,64.3936
6.9802,64.1977
6.9802,64.1977
6.9802,64.1977
7.0463,64.0679
7.0737,64.0142
7.0891,63.9929
7.1947,63.8476
7.1947,63.8476
7.3404,63.7019
7.3404,63.7019
7.5070,63.5809
7.5070,63.5809
7.5070,63.5809
7.5863,63.5405
7.6371,63.4925
7.6538,63.4247
7.6313,63.3586
7.5863,63.3195
7.5070,63.2791
7.3404,63.1581
7.1947,63.0124
7.0737,62.8458
6.9802,62.6623
6.9165,62.4664
6.8843,62.2630
6.8843,62.0570
6.9165,61.8536
6.9354,61.7955
6.9802,61.6577
7.0141,61.5911
7.0737,61.4742
7.1006,61.4371
7.1947,61.3076
7.1947,61.3076
7.3404,61.1619
7.3404,61.1619
7.5070,61.0409
7.5070,61.0409
7.5070,61.0409
7.5863,61.0005
7.6371,60.9525
7.6538,60.8847
7.6313,60.8186
7.5863,60.7795
7.5070,60.7391
7.3404,60.6181
7.1947,60.4724
7.0737,60.3058
6.9802,60.1223
6.9165,59.9264
6.8843,59.7230
6.8843,59.5170
6.9165,59.3136
6.9802,59.1177
6.9802,59.1177
6.9802,59.1177
7.0244,59.0309
7.0737,58.9342
7.1292,58.8577
7.1947,58.7676
7.1947,58.7676
7.3404,58.6219
7.3404,58.6219
7.5070,58.5009
7.5070,58.5009
7.5070,58.5009
7.5863,58.4605
7.6371,58.4125
7.6538,58.3447
7.6313,58.2786
7.5863,58.2395
7.5070,58.1991
7.3404,58.0781
7.1947,57.9324
7.0737,57.7658
6.9802,57.5823
6.9165,57.3864
6.8843,57.1830
6.8843,56.9770
6.9123,56.8004
6.9165,56.7736
6.9461,56.6827
6.9802,56.5777
6.9802,56.5777
6.9802,56.5777
7.0466,56.4473
7.0737,56.3942
7.1035,56.3531
7.1947,56.2276
7.1947,56.2276
7.3404,56.0819
7.3404,56.0819
7.5070,55.9609
7.5070,55.9609
7.5070,55.9609
7.5863,55.9205
7.6371,55.8725
7.6538,55.8047
7.6313,55.7386
7.5863,55.6995
7.5070,55.6591
7.3404,55.5381
7.1947,55.3924
7.0737,55.2258
6.9802,55.0423
6.9165,54.8464
6.8843,54.6430
6.8843,54.4370
6.8963,54.3615
6.9165,54.2336
6.9543,54.1175
6.9802,54.0377
6.9802,54.0377
6.9802,54.0377
7.0151,53.9691
7.0737,53.8542
7.1235,53.7856
7.1947,53.6876
7.1947,53.6876
7.3404,53.5419
7.3404,53.5419
7.5070,53.4209
7.5070,53.4209
7.5070,53.4209
7.5863,53.3805
7.6371,53.3325
7.6538,53.2647
7.6313,53.1986
7.5863,53.1595
7.5070,53.1191
7.3404,52.9981
7.1947,52.8524
7.0737,52.6858
6.9802,52.5023
6.9165,52.3064
6.8843,52.1030
6.8843,51.8970
6.9136,51.7117
6.9165,51.6936
6.9694,51.5309
6.9802,51.4977
6.9802,51.4977
6.9802,51.4977
7.0141,51.4311
7.0737,51.3142
7.0891,51.2929
7.1947,51.1476
7.1947,51.1476
7.3404,51.0019
7.3404,51.0019
7.5070,50.8809
7.5070,50.8809
7.5070,50.8809
7.5863,50.8405
7.6371,50.7925
7.6538,50.7247
7.6313,50.6586
7.5863,50.6195
7.5070,50.5791
7.3404,50.4581
7.1947,50.3124
7.0737,50.1458
6.9802,49.9623
6.9165,49.7664
6.8843,49.5630
6.8843,49.3570
6.8983,49.2685
6.9165,49.1536
6.9707,48.9867
6.9802,48.9577
6.9802,48.9577
6.9802,48.9577
7.0190,48.8815
7.0737,48.7742
7.0962,48.7432
7.1947,48.6076
7.1947,48.6076
7.3404,48.4619
7.3404,48.4619
7.5070,48.3409
7.5070,48.3409
7.5070,48.3409
7.5863,48.3005
7.6371,48.2525
7.6538,48.1847
7.6313,48.1186
7.5863,48.0795
7.5070,48.0391
7.3404,47.9181
7.1947,47.7724
7.0737,47.6058
6.9802,47.4223
6.9165,47.2264
6.8843,47.0230
6.8843,46.8170
6.8892,46.7858
6.9165,46.6136
6.9802,46.4177
7.0141,46.3511
7.0737,46.2342
7.0891,46.2129
7.1947,46.0676
7.1947,46.0676
7.3404,45.9219
7.3404,45.9219
7.5070,45.8009
7.5070,45.8009
7.5070,45.8009
7.5863,45.7605
7.5956,45.7557
7.6464,45.7077
7.6632,45.6399
7.6407,45.5738
7.5956,45.5347
7.5115,45.4919
7.3459,45.3716
7.3459,45.3716
7.2012,45.2269
7.2012,45.2269
7.0809,45.0613
6.9880,44.8790
6.9248,44.6844
6.9162,44.6300
9.4694,44.6300
9.4608,44.6844
9.3976,44.8790
9.3047,45.0613
9.1844,45.2269
9.1844,45.2269
9.0397,45.3716
8.8741,45.4919
8.7900,45.5347
8.7392,45.5827
8.7224,45.6505
8.7449,45.7167
8.7900,45.7557
8.8786,45.8009
9.0452,45.9219
9.0452,45.9219
9.1909,46.0676
9.1909,46.0676
9.3119,46.2342
9.4054,46.4177
9.4691,46.6136
9.5013,46.8170
9.5013,47.0230
9.4691,47.2264
9.4054,47.4223
9.3592,47.5130
9.3224,47.5853
9.3119,47.6058
9.1909,47.7724
9.1909,47.7724
9.0452,47.9181
9.0452,47.9181
8.8786,48.0391
8.7993,48.0795
8.7485,48.1275
8.7318,48.1953
8.7543,48.2614
8.7993,48.3005
8.8786,48.3409
9.0452,48.4619
9.0452,48.4619
9.1909,48.6076
9.1909,48.6076
9.3119,48.7742
9.4054,48.9577
9.4691,49.1536
9.5013,49.3570
9.5013,49.5630
9.4691,49.7664
9.4054,49.9623
9.3119,50.1458
9.1909,50.3124
9.1909,50.3124
9.0452,50.4581
9.0452,50.4581
8.8786,50.5791
8.7993,50.6195
8.7485,50.6675
8.7318,50.7353
8.7543,50.8014
8.7993,50.8405
8.8786,50.8809
9.0452,51.0019
9.0452,51.0019
9.1909,51.1476
9.1909,51.1476
9.3119,51.3142
9.4054,51.4977
9.4691,51.6936
9.5013,51.8970
9.5013,52.1030
9.4691,52.3064
9.4054,52.5023
9.3119,52.6858
9.1909,52.8524
9.1909,52.8524
9.0452,52.9981
9.0452,52.9981
8.8786,53.1191
8.7993,53.1595
8.7485,53.2075
8.7318,53.2753
8.7543,53.3414
8.7993,53.3805
8.8786,53.4209
9.0452,53.5419
9.0452,53.5419
9.1909,53.6876
9.1909,53.6876
9.3119,53.8542
9.4054,54.0377
9.4691,54.2336
9.5013,54.4370
9.5013,54.6430
9.4691,54.8464
9.4054,55.0423
9.3119,55.2258
9.1909,55.3924
9.1909,55.3924
9.0452,55.5381
9.0452,55.5381
8.8786,55.6591
8.7993,55.6995
8.7485,55.7475
8.7318,55.8153
8.7543,55.8814
8.7993,55.9205
8.8786,55.9609
9.0452,56.0819
9.0452,56.0819
9.1909,56.2276
9.1909,56.2276
9.3119,56.3942
9.4054,56.5777
9.4691,56.7736
9.4869,56.8864
9.5013,56.9770
9.5013,57.1830
9.4999,57.1916
9.4691,57.3864
9.4054,57.5823
9.3119,57.7658
9.1909,57.9324
9.1909,57.9324
9.0452,58.0781
9.0452,58.0781
8.8786,58.1991
8.7993,58.2395
8.7485,58.2875
8.7318,58.3553
8.7543,58.4214
8.7993,58.4605
8.8786,58.5009
9.0452,58.6219
9.0452,58.6219
9.1909,58.7676
9.1909,58.7676
9.3119,58.9342
9.4054,59.1177
9.4691,59.3136
9.5013,59.5170
9.5013,59.7230
9.4691,59.9264
9.4054,60.1223
9.3119,60.3058
9.1909,60.4724
9.1909,60.4724
9.0452,60.6181
9.0452,60.6181
8.8786,60.7391
8.7993,60.7795
8.7485,60.8275
8.7318,60.8953
8.7543,60.9614
8.7993,61.0005
8.8786,61.0409
9.0452,61.1619
9.0452,61.1619
9.1909,61.3076
9.1909,61.3076
9.3119,61.4742
9.4054,61.6577
9.4691,61.8536
9.5013,62.0570
9.5013,62.2630
9.4691,62.4664
9.4054,62.6623
9.3411,62.7885
9.3145,62.8407
9.3119,62.8458
9.1909,63.0124
9.1909,63.0124
9.0452,63.1581
9.0452,63.1581
8.8786,63.2791
8.7993,63.3195
8.7485,63.3675
8.7318,63.4353
8.7543,63.5014
8.7993,63.5405
8.8786,63.5809
9.0452,63.7019
9.0452,63.7019
9.1909,63.8476
9.1909,63.8476
9.3119,64.0142
9.4054,64.1977
9.4691,64.3936
9.5013,64.5970
9.5013,64.8030
9.4691,65.0064
9.4054,65.2023
9.3119,65.3858
9.1909,65.5524
9.1909,65.5524
9.0452,65.6981
9.0452,65.6981
8.8786,65.8191
8.7993,65.8595
8.7485,65.9075
8.7318,65.9753
8.7543,66.0414
8.7993,66.0805
8.8786,66.1209
9.0452,66.2419
9.0452,66.2419
9.1909,66.3876
9.1909,66.3876
9.3119,66.5542
9.4054,66.7377
9.4691,66.9336
9.5013,67.1370
9.5013,67.3430
9.4691,67.5464
9.4054,67.7423
9.3119,67.9258
9.1909,68.0924
9.1909,68.0924
9.0452,68.2381
9.0452,68.2381
8.8786,68.3591
8.7993,68.3995
8.7485,68.4475
8.7318,68.5153
8.7543,68.5814
8.7993,68.6205
8.8786,68.6609
9.0452,68.7819
9.0452,68.7819
9.1909,68.9276
9.1909,68.9276
9.3119,69.0942
9.4054,69.2777
9.4691,69.4736
9.5013,69.6770
9.5013,69.8830
9.4691,70.0864
9.4054,70.2823
9.3119,70.4658
9.1909,70.6324
9.1909,70.6324
9.0452,70.7781
9.0452,70.7781
8.8786,70.8991
8.7993,70.9395
8.7485,70.9875
8.7318,71.0553
8.7543,71.1214
8.7993,71.1605
8.8786,71.2009
9.0452,71.3219
9.0452,71.3219
9.1909,71.4676
9.1909,71.4676
9.3119,71.6342
9.4054,71.8177
9.4691,72.0136
9.5013,72.2170
9.5013,72.4230
9.4691,72.6264
9.4219,72.7715
9.4173,72.7856
9.4054,72.8223
9.3119,73.0058
9.1909,73.1724
9.1909,73.1724
9.0452,73.3181
9.0452,73.3181
8.8786,73.4391
8.7993,73.4795
8.7485,73.5275
8.7318,73.5953
8.7543,73.6614
8.7993,73.7005
8.8786,73.7409
9.0452,73.8619
9.0452,73.8619
9.1909,74.0076
9.1909,74.0076
9.3119,74.1742
9.4054,74.3577
9.4691,74.5536
9.5013,74.7570
9.5013,74.9630
9.4691,75.1664
9.4054,75.3623
9.3119,75.5458
9.1909,75.7124
9.1909,75.7124
9.0452,75.8581
9.0452,75.8581
8.8786,75.9791
8.7993,76.0195
8.7485,76.0675
8.7318,76.1353
8.7543,76.2014
8.7993,76.2405
8.8786,76.2809
9.0452,76.4019
9.0452,76.4019
9.1909,76.5476
9.1909,76.5476
9.3119,76.7142
9.4054,76.8977
9.4691,77.0936
9.4922,77.2397
9.5222,77.3028
9.5270,77.3080
11.8888,79.6697
11.9501,79.7032
11.9764,79.7060
33.1481,79.7060
33.2151,79.6864
33.2609,79.6336
33.2643,79.6254
33.2669,79.6183
33.3545,79.5013
33.4716,79.4137
33.6086,79.3626
33.6691,79.3560
33.6692,79.3560
35.4664,79.3560
35.4665,79.3560
35.5270,79.3626
35.5270,79.3626
35.6640,79.4137
35.7811,79.5013
35.8687,79.6183
35.8740,79.6254
35.8761,79.6239
35.9159,79.6637
35.9841,79.6785
36.0496,79.6541
36.0915,79.5982
36.0993,79.5548
36.0993,77.2329
36.0796,77.1658
36.0268,77.1201
35.9577,77.1101
35.8941,77.1392
35.8749,77.1630
35.8740,77.1623
35.8687,77.1694
35.8687,77.1694
35.7811,77.2864
35.6640,77.3741
35.5270,77.4252
35.4997,77.4281
35.4665,77.4317
35.4664,77.4317
34.6869,77.4317
34.6199,77.4514
34.5992,77.4680
34.0243,78.0429
33.8839,78.1834
33.8839,78.1834
33.7187,78.2937
33.7187,78.2937
33.7187,78.2937
33.5352,78.3697
33.3928,78.3981
33.3403,78.4085
33.3403,78.4085
33.3403,78.4085
24.3112,78.4085
24.2441,78.4282
24.2383,78.4322
24.1186,78.5191
24.0017,78.5787
23.9351,78.6126
23.9351,78.6126
23.9351,78.6126
23.8301,78.6467
23.7392,78.6763
23.6375,78.6924
23.5358,78.7085
23.5358,78.7085
23.3298,78.7085
23.3298,78.7085
23.1264,78.6763
22.9305,78.6126
22.7470,78.5191
22.5804,78.3981
22.4347,78.2524
22.3137,78.0858
22.2202,77.9023
22.1565,77.7064
22.1243,77.5030
22.1243,77.2970
22.1260,77.2864
22.1565,77.0936
22.1915,76.9859
22.2202,76.8977
22.2202,76.8977
22.2202,76.8977
22.2799,76.7804
22.3137,76.7142
22.4029,76.5914
22.4347,76.5476
22.4347,76.5476
22.5804,76.4019
22.5804,76.4019
22.7470,76.2809
22.7470,76.2809
22.7470,76.2809
22.8263,76.2405
22.8771,76.1925
22.8939,76.1247
22.8713,76.0586
22.8263,76.0195
22.7470,75.9791
22.5804,75.8581
22.4347,75.7124
22.3137,75.5458
22.2202,75.3623
22.1565,75.1664
22.1243,74.9630
22.1243,74.7570
22.1565,74.5536
22.2202,74.3577
22.2202,74.3577
22.2202,74.3577
22.2541,74.2911
22.3137,74.1742
22.3291,74.1529
22.4347,74.0076
22.4347,74.0076
22.5804,73.8619
22.5804,73.8619
22.7470,73.7409
22.7470,73.7409
22.7470,73.7409
22.8263,73.7005
22.8771,73.6525
22.8939,73.5847
22.8713,73.5186
22.8263,73.4795
22.7470,73.4391
22.5804,73.3181
22.4347,73.1724
22.3137,73.0058
22.2202,72.8223
22.1565,72.6264
22.1243,72.4230
22.1243,72.2170
22.1391,72.1234
22.1565,72.0136
22.2202,71.8177
22.2557,71.7479
22.3137,71.6342
22.3784,71.5451
22.4347,71.4676
22.4347,71.4676
22.5804,71.3219
22.5804,71.3219
22.7470,71.2009
22.7470,71.2009
22.7470,71.2009
22.8263,71.1605
22.8771,71.1125
22.8939,71.0447
22.8713,70.9786
22.8263,70.9395
22.7470,70.8991
22.5804,70.7781
22.4347,70.6324
22.3137,70.4658
22.2202,70.2823
22.1565,70.0864
22.1243,69.8830
22.1243,69.6770
22.1565,69.4736
22.2202,69.2777
22.2202,69.2777
22.2202,69.2777
22.2541,69.2111
22.3137,69.0942
22.3291,69.0729
22.4347,68.9276
22.4347,68.9276
22.5804,68.7819
22.5804,68.7819
22.7470,68.6609
22.7470,68.6609
22.7470,68.6609
22.8263,68.6205
22.8771,68.5725
22.8939,68.5047
22.8713,68.4386
22.8263,68.3995
22.7470,68.3591
22.5804,68.2381
22.4347,68.0924
22.3137,67.9258
22.2202,67.7423
22.1565,67.5464
22.1243,67.3430
22.1243,67.1370
22.1565,66.9336
22.2202,66.7377
22.2202,66.7377
22.2202,66.7377
22.2797,66.6209
22.3137,66.5542
22.3717,66.4743
22.4347,66.3876
22.4347,66.3876
22.5804,66.2419
22.5804,66.2419
22.7470,66.1209
22.7470,66.1209
22.7470,66.1209
22.8263,66.0805
22.8771,66.0325
22.8939,65.9647
22.8713,65.8986
22.8263,65.8595
22.7470,65.8191
22.5804,65.6981
22.4347,65.5524
22.3137,65.3858
22.2202,65.2023
22.1565,65.0064
22.1243,64.8030
22.1243,64.5970
22.1565,64.3936
22.2202,64.1977
22.2202,64.1977
22.2202,64.1977
22.2863,64.0679
22.3137,64.0142
22.3291,63.9929
22.4347,63.8476
22.4347,63.8476
22.5804,63.7019
22.5804,63.7019
22.7470,63.5809
22.7470,63.5809
22.7470,63.5809
22.8263,63.5405
22.8771,63.4925
22.8939,63.4247
22.8713,63.3586
22.8263,63.3195
22.7470,63.2791
22.5804,63.1581
22.4347,63.0124
22.3137,62.8458
22.2202,62.6623
22.1565,62.4664
22.1243,62.2630
22.1243,62.0570
22.1565,61.8536
22.1754,61.7955
22.2202,61.6577
22.2541,61.5911
22.3137,61.4742
22.3406,61.4371
22.4347,61.3076
22.4347,61.3076
22.5804,61.1619
22.5804,61.1619
22.7470,61.0409
22.7470,61.0409
22.7470,61.0409
22.8263,61.0005
22.8771,60.9525
22.8939,60.8847
22.8713,60.8186
22.8263,60.7795
22.7470,60.7391
22.5804,60.6181
22.4347,60.4724
22.3137,60.3058
22.2202,60.1223
22.1565,59.9264
22.1243,59.7230
22.1243,59.5170
22.1565,59.3136
22.2202,59.1177
22.2202,59.1177
22.2202,59.1177
22.2644,59.0309
22.3137,58.9342
22.3692,58.8577
22.4347,58.7676
22.4347,58.7676
22.5804,58.6219
22.5804,58.6219
22.7470,58.5009
22.7470,58.5009
22.7470,58.5009
22.8263,58.4605
22.8771,58.4125
22.8939,58.3447
22.8713,58.2786
22.8263,58.2395
22.7470,58.1991
22.6273,58.1122
22.5615,58.0887
22.5544,58.0885
21.4735,58.0885
21.4735,58.0885
21.2786,58.0497
21.0951,57.9737
20.9299,57.8634
20.7894,57.7229
16.7094,53.6429
16.5991,53.4777
16.5231,53.2942
16.5170,53.2637
16.4843,53.0993
16.4843,44.3402
8.3928,44.3402
8.3928,44.4198
8.3624,44.4933
8.3061,44.5496
8.2326,44.5800
8.1530,44.5800
8.0795,44.5496
8.0232,44.4933
7.9928,44.4198
7.9928,44.3402
8.0232,44.2667
8.0795,44.2104
8.1530,44.1800
8.2326,44.1800
8.3061,44.2104
8.3624,44.2667
8.3928,44.3402
16.4843,44.3402
16.4843,39.4007
16.5231,39.2058
16.5991,39.0223
16.5991,39.0223
16.5991,39.0223
16.7094,38.8571
16.7501,38.8164
16.8499,38.7166
17.7905,37.7760
21.3499,34.2166
21.3499,34.2166
21.5151,34.1063
21.5151,34.1063
21.5665,34.0850
21.6986,34.0303
21.6986,34.0303
21.8935,33.9915
21.8935,33.9915
29.0237,33.9915
29.0907,33.9718
29.1114,33.9552
33.1730,29.8936
33.2065,29.8323
33.2093,29.8059
33.2093,29.1109
33.2093,29.1109
33.2141,29.0663
33.2158,29.0503
33.2173,29.0464
33.2383,28.9901
33.2669,28.9133
33.3545,28.7963
33.4716,28.7087
33.6086,28.6576
33.6691,28.6510
33.6692,28.6510
35.4664,28.6510
35.4665,28.6510
35.5270,28.6576
35.5270,28.6576
35.6640,28.7087
35.7811,28.7963
35.8740,28.9204
35.8761,28.9189
35.9159,28.9587
35.9841,28.9735
36.0496,28.9491
36.0915,28.8932
36.0993,28.8498
36.0993,28.4120
36.0796,28.3450
36.0630,28.3243
32.7835,25.0448
32.7221,25.0113
32.6958,25.0085
27.8935,25.0085
27.8935,25.0085
27.6986,24.9697
27.5151,24.8937
27.3499,24.7834
27.2094,24.6429
25.8094,23.2429
25.6991,23.0777
25.6634,22.9915
25.6231,22.8942
25.5843,22.6993
25.5843,21.9409
25.5646,21.8738
25.5118,21.8281
25.4427,21.8181
25.3791,21.8472
25.3525,21.8855
25.3504,21.8843
25.3462,21.8921
25.2600,22.0072
25.2600,22.0072
25.1449,22.0933
25.1449,22.0934
25.0102,22.1436
25.0102,22.1436
24.9506,22.1500
24.9506,22.1500
24.3028,22.1500
23.8028,22.1500
23.1550,22.1500
23.1550,22.1500
23.0954,22.1436
23.0954,22.1436
22.9607,22.0934
22.9607,22.0933
22.8456,22.0072
22.8456,22.0072
22.7594,21.8921
22.7594,21.8921
22.7092,21.7574
22.7092,21.7574
22.7028,21.6978
22.7028,21.6978
22.7028,20.9000
23.8028,20.9000
23.8028,22.1500
24.3028,22.1500
24.3028,20.6102
24.2528,20.6102
24.2528,20.6898
24.2224,20.7633
24.1661,20.8196
24.0926,20.8500
24.0130,20.8500
23.9395,20.8196
23.8832,20.7633
23.8528,20.6898
23.8528,20.6102
23.8832,20.5367
23.9395,20.4804
24.0130,20.4500
24.0926,20.4500
24.1661,20.4804
24.2224,20.5367
24.2528,20.6102
24.3028,20.6102
24.3028,20.4000
23.8028,20.4000
22.7028,20.4000
22.7028,19.6022
22.7028,19.6022
22.7092,19.5426
22.7092,19.5426
22.7594,19.4079
22.7594,19.4079
22.8456,19.2928
22.8456,19.2928
22.9607,19.2066
22.9607,19.2066
23.0954,19.1564
23.0954,19.1564
23.1550,19.1500
23.8028,19.1500
23.8028,20.4000
24.3028,20.4000
24.3028,19.1500
24.9506,19.1500
25.0102,19.1564
25.0102,19.1564
25.1449,19.2066
25.1449,19.2066
25.2600,19.2928
25.2600,19.2928
25.3462,19.4079
25.3462,19.4079
25.3921,19.5312
25.4340,19.5872
25.4995,19.6116
25.5678,19.5967
25.5960,19.5756
25.7078,19.4638
25.7078,19.4638
25.8808,19.3381
26.0713,19.2410
26.0713,19.2410
26.2747,19.1750
26.3918,19.1564
26.4859,19.1415
26.6997,19.1415
26.7701,19.1526
26.9109,19.1750
27.1143,19.2410
27.1143,19.2410
27.3048,19.3381
27.4778,19.4638
27.6290,19.6150
27.7547,19.7880
27.7571,19.7919
27.7815,19.8140
27.8052,19.8369
27.8073,19.8373
27.8089,19.8387
27.8414,19.8441
27.8737,19.8506
27.8757,19.8498
27.8778,19.8502
27.9081,19.8371
27.9388,19.8251
27.9405,19.8231
27.9420,19.8225
27.9633,19.7997
27.9688,19.7921
27.9709,19.7880
28.0966,19.6150
28.0973,19.6143
28.1008,19.6094
28.1109,19.5810
28.1232,19.5535
28.1238,19.5445
28.1241,19.5436
28.1239,19.5427
28.1243,19.5368
28.1243,14.8632
28.1046,14.7961
28.0993,14.7890
28.0995,14.7889
28.0966,14.7850
28.0966,14.7850
27.9709,14.6120
27.9709,14.6120
27.9685,14.6081
27.9441,14.5860
27.9204,14.5631
27.9183,14.5627
27.9167,14.5613
27.8842,14.5559
27.8519,14.5494
27.8499,14.5502
27.8478,14.5498
27.8175,14.5629
27.7868,14.5749
27.7851,14.5768
27.7836,14.5775
27.7623,14.6003
27.7568,14.6079
27.7547,14.6120
27.6290,14.7850
27.6283,14.7857
27.6248,14.7906
27.6148,14.8189
27.6024,14.8464
27.6018,14.8555
27.6015,14.8564
27.6017,14.8573
27.6013,14.8632
27.6013,15.2493
27.5625,15.4442
27.5625,15.4442
27.4865,15.6277
27.4865,15.6277
27.3762,15.7929
27.3762,15.7929
25.2762,17.8929
25.1357,18.0334
25.1357,18.0334
24.9705,18.1437
24.9705,18.1437
24.9705,18.1437
24.7870,18.2197
24.5921,18.2585
24.5921,18.2585
24.5921,18.2585
22.9619,18.2585
22.8949,18.2782
22.8742,18.2948
21.7876,19.3814
21.7541,19.4427
21.7513,19.4691
21.7513,29.3493
21.7125,29.5442
21.7125,29.5442
21.6365,29.7277
21.6365,29.7277
21.5262,29.8929
21.5262,29.8929
18.5700,32.8490
18.5365,32.9104
18.5337,32.9367
18.5337,33.3505
18.5337,33.3506
18.5231,33.4544
18.4673,33.6227
18.4673,33.6227
18.4320,33.6799
18.3742,33.7737
18.2488,33.8990
18.2426,33.9029
18.1959,33.9548
18.1837,34.0084
18.1837,35.4170
18.1449,35.6118
18.1449,35.6118
18.1060,35.7057
18.0689,35.7953
17.9585,35.9605
17.9585,35.9605
11.2957,42.6234
11.2957,42.6234
11.1305,42.7337
11.1305,42.7337
11.1305,42.7337
11.0007,42.7875
10.9470,42.8097
10.8046,42.8381
10.7521,42.8485
10.7521,42.8485
10.7521,42.8485
9.0712,42.8485
9.0041,42.8682
8.9983,42.8722
8.8786,42.9591
8.7900,43.0043
8.7392,43.0523
8.7224,43.1201
8.7449,43.1862
8.7900,43.2253
8.8742,43.2681
9.0397,43.3884
9.0397,43.3884
9.1844,43.5331
9.1844,43.5331
9.3047,43.6987
9.3976,43.8810
9.4608,44.0756
9.4694,44.1300
6.9162,44.1300
6.9248,44.0756
6.9880,43.8810
7.0809,43.6987
7.2012,43.5331
7.2012,43.5331
7.3459,43.3884
7.5115,43.2681
7.5956,43.2253
7.6464,43.1773
7.6632,43.1095
7.6407,43.0433
7.5956,43.0043
7.5070,42.9591
7.3404,42.8381
7.1947,42.6924
7.0737,42.5258
6.9802,42.3423
6.9165,42.1464
6.8843,41.9430
6.8843,41.7370
6.9165,41.5336
6.9802,41.3377
6.9802,41.3377
6.9802,41.3377
7.0141,41.2711
7.0737,41.1542
7.0891,41.1329
7.1947,40.9876
7.1947,40.9876
7.3404,40.8419
7.3404,40.8419
7.5070,40.7209
7.5070,40.7209
7.5070,40.7209
7.5643,40.6917
7.6905,40.6274
7.8864,40.5637
8.0620,40.5359
8.0898,40.5315
8.2958,40.5315
8.3202,40.5354
8.4992,40.5637
8.6951,40.6274
8.8786,40.7209
8.9983,40.8078
9.0641,40.8313
9.0712,40.8315
10.1837,40.8315
10.2507,40.8118
10.2714,40.7952
16.1304,34.9362
16.1638,34.8749
16.1667,34.8485
16.1667,34.0084
16.1470,33.9414
16.1078,33.9029
16.1015,33.8990
16.0678,33.8653
15.4369,33.8653
15.4369,33.8653
15.3827,33.9046
15.1934,34.0011
14.9913,34.0668
14.7814,34.1000
14.5689,34.1000
14.3591,34.0668
14.3590,34.0668
14.1570,34.0011
13.9676,33.9046
13.9135,33.8653
13.9135,33.8653
14.6752,33.1036
15.4369,33.8653
16.0678,33.8653
15.9761,33.7737
15.8831,33.6227
15.8717,33.5885
15.8660,33.5782
15.8491,33.5617
15.8357,33.5422
15.8246,33.5377
15.8161,33.5293
15.8059,33.5272
15.0287,32.7500
15.0287,32.7500
15.0685,32.7102
14.8752,32.7102
14.8752,32.7898
14.8447,32.8633
14.7885,32.9196
14.7150,32.9500
14.6354,32.9500
14.5619,32.9196
14.5056,32.8633
14.4752,32.7898
14.4752,32.7500
14.3216,32.7500
14.3216,32.7500
13.5599,33.5117
13.5599,33.5117
13.5206,33.4576
13.4241,33.2682
13.3584,33.0661
13.3584,33.0661
13.3252,32.8562
13.3252,32.6438
13.3584,32.4339
13.3584,32.4339
13.4241,32.2318
13.5206,32.0424
13.5599,31.9883
13.5599,31.9883
14.3216,32.7500
14.4752,32.7500
14.4752,32.7102
14.5056,32.6367
14.5619,32.5804
14.6354,32.5500
14.7150,32.5500
14.7885,32.5804
14.8447,32.6367
14.8752,32.7102
15.0685,32.7102
15.8060,31.9728
15.8164,31.9706
15.8660,31.9218
15.8717,31.9115
15.8831,31.8773
15.9761,31.7263
16.0678,31.6347
15.4369,31.6347
15.4369,31.6347
14.6752,32.3964
14.6752,32.3964
13.9135,31.6347
13.9676,31.5954
14.1570,31.4989
14.3590,31.4332
14.5689,31.4000
14.7814,31.4000
14.9913,31.4332
14.9913,31.4332
15.1934,31.4989
15.3827,31.5954
15.4369,31.6347
16.0678,31.6347
16.1015,31.6010
16.2524,31.5079
16.2795,31.4989
16.4208,31.4521
16.5246,31.4415
16.5246,31.4415
17.0737,31.4415
17.1407,31.4218
17.1614,31.4052
19.6980,28.8686
19.7315,28.8073
19.7343,28.7809
19.7343,28.1978
10.1328,28.1978
10.1264,28.2574
10.1264,28.2574
10.0762,28.3921
10.0762,28.3921
9.9900,28.5072
9.9900,28.5072
9.8749,28.5933
9.8749,28.5934
9.7402,28.6436
9.7402,28.6436
9.6806,28.6500
9.6806,28.6500
9.0328,28.6500
9.0328,27.5000
10.1328,27.5000
10.1328,28.1978
19.7343,28.1978
19.7343,18.9007
19.7343,18.9007
19.7731,18.7058
19.7731,18.7058
19.8045,18.6298
19.8491,18.5223
19.9594,18.3571
19.9594,18.3571
21.8499,16.4666
21.8499,16.4666
22.0151,16.3563
22.0151,16.3563
22.0151,16.3563
22.0319,16.3493
22.0319,16.3493
22.0319,16.3493
22.1986,16.2803
22.1986,16.2803
22.3935,16.2415
22.3935,16.2415
24.0237,16.2415
24.0907,16.2218
24.1114,16.2052
24.8549,15.4617
24.8884,15.4004
24.8834,15.3307
24.8415,15.2747
24.7760,15.2503
24.7672,15.2500
24.3028,15.2500
23.8028,15.2500
23.1550,15.2500
23.1550,15.2500
23.0954,15.2436
23.0954,15.2436
22.9607,15.1934
22.9607,15.1933
22.8456,15.1072
22.8456,15.1072
22.7594,14.9921
22.7594,14.9921
22.7092,14.8574
22.7092,14.8574
22.7028,14.7978
22.7028,14.7978
22.7028,14.0000
23.8028,14.0000
23.8028,15.2500
24.3028,15.2500
24.3028,13.7102
24.2528,13.7102
24.2528,13.7898
24.2224,13.8633
24.1661,13.9196
24.0926,13.9500
24.0130,13.9500
23.9395,13.9196
23.8832,13.8633
23.8528,13.7898
23.8528,13.7102
23.8832,13.6367
23.9395,13.5804
24.0130,13.5500
24.0926,13.5500
24.1661,13.5804
24.2224,13.6367
24.2528,13.7102
24.3028,13.7102
24.3028,13.5000
23.8028,13.5000
22.7028,13.5000
22.7028,12.7022
22.7028,12.7022
22.7092,12.6426
22.7092,12.6426
22.7594,12.5079
22.7594,12.5079
22.8456,12.3928
22.8456,12.3928
22.9607,12.3066
22.9607,12.3066
23.0954,12.2564
23.0954,12.2564
23.1550,12.2500
23.8028,12.2500
23.8028,13.5000
24.3028,13.5000
24.3028,12.2500
24.9506,12.2500
25.0102,12.2564
25.0102,12.2564
25.1449,12.3066
25.1449,12.3066
25.2600,12.3928
25.2600,12.3928
25.3462,12.5079
25.3462,12.5079
25.3921,12.6312
25.4340,12.6872
25.4995,12.7116
25.5678,12.6967
25.5960,12.6756
25.7078,12.5638
25.7078,12.5638
25.8808,12.4381
26.0713,12.3410
26.0713,12.3410
26.2747,12.2750
26.3918,12.2564
26.4859,12.2415
26.6997,12.2415
26.7701,12.2526
26.9109,12.2750
27.1143,12.3410
27.1143,12.3410
27.3048,12.4381
27.4778,12.5638
27.6290,12.7150
27.7547,12.8880
27.7571,12.8919
27.7815,12.9140
27.8052,12.9369
27.8073,12.9373
27.8089,12.9387
27.8414,12.9441
27.8737,12.9506
27.8757,12.9498
27.8778,12.9502
27.9081,12.9371
27.9388,12.9251
27.9405,12.9231
27.9420,12.9225
27.9633,12.8997
27.9688,12.8921
27.9709,12.8880
28.0966,12.7150
28.0973,12.7143
28.1008,12.7094
28.1109,12.6810
28.1232,12.6535
28.1238,12.6445
28.1241,12.6436
28.1239,12.6427
28.1243,12.6368
28.1243,12.6091
28.1046,12.5421
28.0880,12.5214
27.1114,11.5448
27.0501,11.5113
27.0237,11.5085
20.9619,11.5085
20.8949,11.5282
20.8742,11.5448
14.7876,17.6314
14.7541,17.6927
14.7513,17.7191
14.7513,20.7978
14.7710,20.8648
14.8238,20.9106
14.8929,20.9205
14.9482,20.8981
15.0308,20.8381
15.0308,20.8381
15.0308,20.8381
15.1099,20.7978
15.2213,20.7410
15.2213,20.7410
15.4247,20.6750
15.5303,20.6582
15.6359,20.6415
15.8497,20.6415
15.9201,20.6526
16.0609,20.6750
16.2643,20.7410
16.2643,20.7410
16.4548,20.8381
16.6278,20.9638
16.6551,20.9911
16.7164,21.0246
16.7861,21.0196
16.8305,20.9911
16.8578,20.9638
16.8578,20.9638
17.0308,20.8381
17.0672,20.8196
17.2213,20.7410
17.2213,20.7410
17.4247,20.6750
17.5303,20.6582
17.6359,20.6415
17.8497,20.6415
17.9201,20.6526
18.0609,20.6750
18.2643,20.7410
18.2643,20.7410
18.4548,20.8381
18.6278,20.9638
18.7790,21.1150
18.9047,21.2880
19.0018,21.4785
19.0018,21.4785
19.0678,21.6819
19.1013,21.8931
19.1013,22.1069
19.0678,22.3181
19.0018,22.5215
19.0018,22.5215
18.9621,22.5993
18.9047,22.7120
18.7790,22.8850
18.6278,23.0362
18.4548,23.1619
18.3699,23.2052
18.2643,23.2590
18.2643,23.2590
18.1626,23.2920
18.0609,23.3250
17.8497,23.3585
17.8497,23.3585
17.6359,23.3585
17.6359,23.3585
17.4247,23.3250
17.2213,23.2590
17.0308,23.1619
16.9324,23.0904
16.8666,23.0669
16.7986,23.0828
16.7499,23.1329
16.7379,23.1666
16.7125,23.2942
16.7125,23.2942
16.6713,23.3937
16.6365,23.4777
16.6365,23.4777
16.5262,23.6429
16.5262,23.6429
15.5538,24.6153
15.2762,24.8929
15.1993,24.9697
15.1521,25.0170
15.1186,25.0783
15.1236,25.1480
15.1654,25.2039
15.2309,25.2283
15.2781,25.2226
15.4247,25.1750
15.4247,25.1750
15.5949,25.1480
15.6359,25.1415
15.8497,25.1415
15.9201,25.1526
16.0609,25.1750
16.2643,25.2410
16.2643,25.2410
16.4548,25.3381
16.6278,25.4638
16.6551,25.4911
16.7164,25.5246
16.7861,25.5196
16.8305,25.4911
16.8578,25.4638
16.8578,25.4638
17.0308,25.3381
17.2213,25.2410
17.2213,25.2410
17.4247,25.1750
17.5303,25.1582
17.6359,25.1415
17.8497,25.1415
17.9201,25.1526
18.0609,25.1750
18.2643,25.2410
18.2643,25.2410
18.4548,25.3381
18.6278,25.4638
18.7790,25.6150
18.9047,25.7880
19.0018,25.9785
19.0018,25.9785
19.0678,26.1819
19.1013,26.3931
19.1013,26.6069
19.0678,26.8181
19.0018,27.0215
19.0018,27.0215
18.9398,27.1431
18.9047,27.2120
18.7790,27.3850
18.6278,27.5362
18.4548,27.6619
18.3614,27.7095
18.2643,27.7590
18.2643,27.7590
18.2258,27.7715
18.0609,27.8250
17.8497,27.8585
17.8497,27.8585
17.6359,27.8585
17.6359,27.8585
17.4247,27.8250
17.2213,27.7590
17.0308,27.6619
16.8578,27.5362
16.8305,27.5089
16.7692,27.4754
16.6995,27.4804
16.6551,27.5089
16.6278,27.5362
16.4548,27.6619
16.3614,27.7095
16.2643,27.7590
16.2643,27.7590
16.2258,27.7715
16.0609,27.8250
15.8497,27.8585
15.8497,27.8585
15.6359,27.8585
15.6359,27.8585
15.4247,27.8250
15.2213,27.7590
15.0308,27.6619
14.8578,27.5362
14.8305,27.5089
14.7692,27.4754
14.6995,27.4804
14.6551,27.5089
14.6278,27.5362
14.4548,27.6619
14.3614,27.7095
14.2643,27.7590
14.2643,27.7590
14.2258,27.7715
14.0609,27.8250
13.8497,27.8585
13.8497,27.8585
13.6359,27.8585
13.6359,27.8585
13.4247,27.8250
13.2213,27.7590
13.0308,27.6619
12.8578,27.5362
12.7066,27.3850
12.5809,27.2120
12.5800,27.2102
8.9828,27.2102
8.9828,27.2898
8.9524,27.3633
8.8961,27.4196
8.8226,27.4500
8.7430,27.4500
8.6695,27.4196
8.6132,27.3633
8.5828,27.2898
8.5828,27.2102
8.6132,27.1367
8.6695,27.0804
8.7430,27.0500
8.8226,27.0500
8.8961,27.0804
8.9524,27.1367
8.9828,27.2102
12.5800,27.2102
12.4838,27.0215
12.4178,26.8181
12.3843,26.6069
12.3843,26.3931
12.3987,26.3022
10.1328,26.3022
10.1328,27.0000
9.0328,27.0000
9.0328,25.8500
9.6806,25.8500
9.7402,25.8564
9.7402,25.8564
9.8749,25.9066
9.8749,25.9066
9.9900,25.9928
9.9900,25.9928
10.0762,26.1079
10.0762,26.1079
10.1264,26.2426
10.1264,26.2426
10.1328,26.3022
12.3987,26.3022
12.4178,26.1819
12.4798,25.9910
12.4838,25.9785
12.4838,25.9785
12.5809,25.7880
12.7066,25.6150
12.8514,25.4702
12.8849,25.4089
12.8799,25.3392
12.8380,25.2832
12.7726,25.2588
12.7637,25.2585
10.3935,25.2585
10.3935,25.2585
10.1986,25.2197
10.0151,25.1437
9.8499,25.0334
9.7094,24.8929
9.6509,24.8343
9.6509,24.8343
7.9594,23.1429
7.8491,22.9777
7.7731,22.7942
7.7567,22.7120
7.7343,22.5993
7.7343,16.1507
7.7731,15.9558
7.8406,15.7929
7.8491,15.7723
7.9457,15.6277
7.9594,15.6071
7.9594,15.6071
16.8499,6.7166
16.8499,6.7166
17.0151,6.6063
17.1986,6.5303
17.1986,6.5303
17.3935,6.4915
17.3935,6.4915
25.0304,6.4915
25.0418,6.4889
25.0498,6.4900
25.0693,6.4827
25.0835,6.4795
25.0897,6.4766
25.1201,6.4579
25.1504,6.4478
25.1573,6.4446
25.1779,6.4262
25.2006,6.4105
25.2036,6.4033
25.2094,6.3981
25.2137,6.3827
25.9928,5.6036
26.7700,6.3808
26.7722,6.3912
26.7875,6.4066
26.7989,6.4251
26.8145,6.4341
26.8213,6.4409
26.8283,6.4446
26.8352,6.4478
26.8655,6.4579
26.8959,6.4766
26.9021,6.4795
26.9269,6.4835
26.9552,6.4915
33.5921,6.4915
33.7870,6.5303
33.7870,6.5303
33.7870,6.5303
33.7870,6.5303
33.8630,6.5617
33.8630,6.5617
33.9705,6.6063
34.1357,6.7166
34.1357,6.7166
39.0248,11.6058
39.0862,11.6393
39.0949,11.6406
39.0949,11.6407
39.0997,11.6415
39.0997,11.6415
39.1645,11.6518
39.3109,11.6750
39.5143,11.7410
39.5143,11.7410
39.7048,11.8381
39.8778,11.9638
40.0290,12.1150
40.1547,12.2880
40.2518,12.4785
40.2518,12.4785
40.3178,12.6819
40.3513,12.8931
43.5928,12.8931
43.5928,9.1153
39.7545,9.1153
39.7545,9.1153
39.7004,9.1546
39.5110,9.2511
39.3089,9.3168
39.0990,9.3500
38.8866,9.3500
38.6767,9.3168
38.6767,9.3168
38.4746,9.2511
38.2852,9.1546
38.2311,9.1153
38.2311,9.1153
38.9928,8.3536
39.7545,9.1153
43.5928,9.1153
43.5928,7.8938
40.3428,7.8938
40.3428,8.1062
40.3096,8.3161
40.3096,8.3161
40.2439,8.5182
40.1474,8.7075
40.1081,8.7617
39.3464,8.0000
39.3861,7.9602
39.1928,7.9602
39.1928,8.0398
39.1624,8.1133
39.1061,8.1696
39.0326,8.2000
38.9530,8.2000
38.8795,8.1696
38.8232,8.1133
38.7928,8.0398
38.7928,8.0000
38.6392,8.0000
38.6392,8.0000
37.8775,8.7617
37.8775,8.7617
37.8382,8.7076
37.7417,8.5182
37.6760,8.3161
37.6760,8.3161
37.6428,8.1062
37.6428,7.8938
37.6760,7.6839
37.6760,7.6839
37.7417,7.4818
37.8382,7.2924
37.8775,7.2383
37.8775,7.2383
38.6392,8.0000
38.7928,8.0000
38.7928,7.9602
38.8232,7.8867
38.8795,7.8304
38.9530,7.8000
39.0326,7.8000
39.1061,7.8304
39.1624,7.8867
39.1928,7.9602
39.3861,7.9602
40.1081,7.2383
40.1081,7.2383
40.1474,7.2924
40.2439,7.4818
40.3096,7.6839
40.3096,7.6839
40.3428,7.8938
43.5928,7.8938
43.5928,6.8847
39.7545,6.8847
39.7545,6.8847
38.9928,7.6464
38.9928,7.6464
38.2311,6.8847
38.2852,6.8454
38.4746,6.7489
38.6767,6.6832
38.8866,6.6500
39.0990,6.6500
39.3089,6.6832
39.3089,6.6832
39.5110,6.7489
39.7004,6.8454
39.7545,6.8847
43.5928,6.8847
43.5928,5.1438
27.3428,5.1438
27.3428,5.3562
27.3096,5.5661
27.3096,5.5661
27.2439,5.7682
27.1474,5.9575
27.1081,6.0117
26.3464,5.2500
26.3861,5.2102
26.1928,5.2102
26.1928,5.2898
26.1624,5.3633
26.1061,5.4196
26.0326,5.4500
25.9530,5.4500
25.8795,5.4196
25.8232,5.3633
25.7928,5.2898
25.7928,5.2500
25.6392,5.2500
25.6392,5.2500
24.8775,6.0117
24.8775,6.0117
24.8382,5.9576
24.7417,5.7682
24.6760,5.5661
24.6760,5.5661
24.6428,5.3562
24.6428,5.1438
24.6760,4.9339
24.6760,4.9339
24.7417,4.7318
24.8382,4.5424
24.8775,4.4883
24.8775,4.4883
25.6392,5.2500
25.7928,5.2500
25.7928,5.2102
25.8232,5.1367
25.8795,5.0804
25.9530,5.0500
26.0326,5.0500
26.1061,5.0804
26.1624,5.1367
26.1928,5.2102
26.3861,5.2102
27.1081,4.4883
27.1081,4.4883
27.1474,4.5424
27.2439,4.7318
27.3096,4.9339
27.3096,4.9339
27.3428,5.1438
43.5928,5.1438
43.5928,4.1347
26.7545,4.1347
26.7545,4.1347
25.9928,4.8964
25.9928,4.8964
25.2311,4.1347
25.2852,4.0954
25.4746,3.9989
25.6767,3.9332
25.8866,3.9000
26.0990,3.9000
26.3089,3.9332
26.3089,3.9332
26.5110,3.9989
26.7004,4.0954
26.7545,4.1347
43.5928,4.1347
43.5928,0.5240
43.5731,0.4570
43.5203,0.4112
43.4688,0.4000
0.5168,0.4000
Z" /> 
<path style="fill:none; 
stroke:#000000; stroke-width:0.1000; stroke-opacity:1; 
stroke-linecap:round; stroke-linejoin:round;fill:none"
d="M 43.9928,0.0000
-0.0072,0.0000
-0.0072,85.0000
43.9928,85.0000
Z" /> 
</g>
<g style="fill:#FFFFFF; fill-opacity:1.0000; stroke:none;">
<circle cx="8.1928" cy="41.8400" r="0.2000" /> 
</g>
<g style="fill:#FFFFFF; fill-opacity:1.0000; stroke:none;">
<circle cx="8.1928" cy="44.3800" r="0.2000" /> 
</g>
<g style="fill:#FFFFFF; fill-opacity:1.0000; stroke:none;">
<circle cx="8.1928" cy="46.9200" r="0.2000" /> 
</g>
<g style="fill:#FFFFFF; fill-opacity:1.0000; stroke:none;">
<circle cx="8.1928" cy="49.4600" r="0.2000" /> 
</g>
<g style="fill:#FFFFFF; fill-opacity:1.0000; stroke:none;">
<circle cx="8.1928" cy="52.0000" r="0.2000" /> 
</g>
<g style="fill:#FFFFFF; fill-opacity:1.0000; stroke:none;">
<circle cx="8.1928" cy="54.5400" r="0.2000" /> 
</g>
<g style="fill:#FFFFFF; fill-opacity:1.0000; stroke:none;">
<circle cx="8.1928" cy="57.0800" r="0.2000" /> 
</g>
<g style="fill:#FFFFFF; fill-opacity:1.0000; stroke:none;">
<circle cx="8.1928" cy="59.6200" r="0.2000" /> 
</g>
<g style="fill:#FFFFFF; fill-opacity:1.0000; stroke:none;">
<circle cx="8.1928" cy="62.1600" r="0.2000" /> 
</g>
<g style="fill:#FFFFFF; fill-opacity:1.0000; stroke:none;">
<circle cx="8.1928" cy="64.7000" r="0.2000" /> 
</g>
<g style="fill:#FFFFFF; fill-opacity:1.0000; stroke:none;">
<circle cx="8.1928" cy="67.2400" r="0.2000" /> 
</g>
<g style="fill:#FFFFFF; fill-opacity:1.0000; stroke:none;">
<circle cx="8.1928" cy="69.7800" r="0.2000" /> 
</g>
<g style="fill:#FFFFFF; fill-opacity:1.0000; stroke:none;">
<circle cx="8.1928" cy="72.3200" r="0.2000" /> 
</g>
<g style="fill:#FFFFFF; fill-opacity:1.0000; stroke:none;">
<circle cx="8.1928" cy="74.8600" r="0.2000" /> 
</g>
<g style="fill:#FFFFFF; fill-opacity:1.0000; stroke:none;">
<circle cx="8.1928" cy="77.4000" r="0.2000" /> 
</g>
<g style="fill:#FFFFFF; fill-opacity:1.0000; stroke:none;">
<circle cx="23.4328" cy="77.4000" r="0.2000" /> 
</g>
<g style="fill:#FFFFFF; fill-opacity:1.0000; stroke:none;">
<circle cx="23.4328" cy="74.8600" r="0.2000" /> 
</g>
<g style="fill:#FFFFFF; fill-opacity:1.0000; stroke:none;">
<circle cx="23.4328" cy="72.3200" r="0.2000" /> 
</g>
<g style="fill:#FFFFFF; fill-opacity:1.0000; stroke:none;">
<circle cx="23.4328" cy="69.7800" r="0.2000" /> 
</g>
<g style="fill:#FFFFFF; fill-opacity:1.0000; stroke:none;">
<circle cx="23.4328" cy="67.2400" r="0.2000" /> 
</g>
<g style="fill:#FFFFFF; fill-opacity:1.0000; stroke:none;">
<circle cx="23.4328" cy="64.7000" r="0.2000" /> 
</g>
<g style="fill:#FFFFFF; fill-opacity:1.0000; stroke:none;">
<circle cx="23.4328" cy="62.1600" r="0.2000" /> 
</g>
<g style="fill:#FFFFFF; fill-opacity:1.0000; stroke:none;">
<circle cx="23.4328" cy="59.6200" r="0.2000" /> 
</g>
<g style="fill:#FFFFFF; fill-opacity:1.0000; stroke:none;">
<circle cx="23.4328" cy="57.0800" r="0.2000" /> 
</g>
<g style="fill:#FFFFFF; fill-opacity:1.0000; stroke:none;">
<circle cx="23.4328" cy="54.5400" r="0.2000" /> 
</g>
<g style="fill:#FFFFFF; fill-opacity:1.0000; stroke:none;">
<circle cx="23.4328" cy="52.0000" r="0.2000" /> 
</g>
<g style="fill:#FFFFFF; fill-opacity:1.0000; stroke:none;">
<circle cx="23.4328" cy="49.4600" r="0.2000" /> 
</g>
<g style="fill:#FFFFFF; fill-opacity:1.0000; stroke:none;">
<circle cx="23.4328" cy="46.9200" r="0.2000" /> 
</g>
<g style="fill:#FFFFFF; fill-opacity:1.0000; stroke:none;">
<circle cx="23.4328" cy="44.3800" r="0.2000" /> 
</g>
<g style="fill:#FFFFFF; fill-opacity:1.0000; stroke:none;">
<circle cx="23.4328" cy="41.8400" r="0.2000" /> 
</g>
<g style="fill:#FFFFFF; fill-opacity:1.0000; stroke:none;">
<circle cx="34.5678" cy="39.1345" r="0.2000" /> 
</g>
<g style="fill:#FFFFFF; fill-opacity:1.0000; stroke:none;">
<circle cx="37.1078" cy="39.1345" r="0.2000" /> 
</g>
<g style="fill:#FFFFFF; fill-opacity:1.0000; stroke:none;">
<circle cx="39.6478" cy="39.1345" r="0.2000" /> 
</g>
<g style="fill:#FFFFFF; fill-opacity:1.0000; stroke:none;">
<circle cx="34.5678" cy="57.5077" r="0.2000" /> 
</g>
<g style="fill:#FFFFFF; fill-opacity:1.0000; stroke:none;">
<circle cx="37.1078" cy="57.5077" r="0.2000" /> 
</g>
<g style="fill:#FFFFFF; fill-opacity:1.0000; stroke:none;">
<circle cx="39.6478" cy="57.5077" r="0.2000" /> 
</g>
<g style="fill:#FFFFFF; fill-opacity:1.0000; stroke:none;">
<circle cx="17.1752" cy="32.7500" r="0.2000" /> 
</g>
<g style="fill:#FFFFFF; fill-opacity:1.0000; stroke:none;">
<circle cx="14.6752" cy="32.7500" r="0.2000" /> 
</g>
<g style="fill:#FFFFFF; fill-opacity:1.0000; stroke:none;">
<circle cx="34.5678" cy="76.0732" r="0.2000" /> 
</g>
<g style="fill:#FFFFFF; fill-opacity:1.0000; stroke:none;">
<circle cx="37.1078" cy="76.0732" r="0.2000" /> 
</g>
<g style="fill:#FFFFFF; fill-opacity:1.0000; stroke:none;">
<circle cx="39.6478" cy="76.0732" r="0.2000" /> 
</g>
<g style="fill:#FFFFFF; fill-opacity:1.0000; stroke:none;">
<circle cx="34.5678" cy="34.6095" r="0.2000" /> 
</g>
<g style="fill:#FFFFFF; fill-opacity:1.0000; stroke:none;">
<circle cx="37.1078" cy="34.6095" r="0.2000" /> 
</g>
<g style="fill:#FFFFFF; fill-opacity:1.0000; stroke:none;">
<circle cx="39.6478" cy="34.6095" r="0.2000" /> 
</g>
<g style="fill:#FFFFFF; fill-opacity:1.0000; stroke:none;">
<circle cx="34.5678" cy="80.7145" r="0.2000" /> 
</g>
<g style="fill:#FFFFFF; fill-opacity:1.0000; stroke:none;">
<circle cx="37.1078" cy="80.7145" r="0.2000" /> 
</g>
<g style="fill:#FFFFFF; fill-opacity:1.0000; stroke:none;">
<circle cx="39.6478" cy="80.7145" r="0.2000" /> 
</g>
<g style="fill:#FFFFFF; fill-opacity:1.0000; stroke:none;">
<circle cx="24.0528" cy="13.7500" r="0.2000" /> 
</g>
<g style="fill:#FFFFFF; fill-opacity:1.0000; stroke:none;">
<circle cx="26.5928" cy="13.7500" r="0.2000" /> 
</g>
<g style="fill:#FFFFFF; fill-opacity:1.0000; stroke:none;">
<circle cx="29.1328" cy="13.7500" r="0.2000" /> 
</g>
<g style="fill:#FFFFFF; fill-opacity:1.0000; stroke:none;">
<circle cx="38.9928" cy="8.0000" r="0.2000" /> 
</g>
<g style="fill:#FFFFFF; fill-opacity:1.0000; stroke:none;">
<circle cx="38.9928" cy="13.0000" r="0.2000" /> 
</g>
<g style="fill:#FFFFFF; fill-opacity:1.0000; stroke:none;">
<circle cx="25.9928" cy="7.7500" r="0.2000" /> 
</g>
<g style="fill:#FFFFFF; fill-opacity:1.0000; stroke:none;">
<circle cx="25.9928" cy="5.2500" r="0.2000" /> 
</g>
<g style="fill:#FFFFFF; fill-opacity:1.0000; stroke:none;">
<circle cx="34.5678" cy="30.0095" r="0.2000" /> 
</g>
<g style="fill:#FFFFFF; fill-opacity:1.0000; stroke:none;">
<circle cx="37.1078" cy="30.0095" r="0.2000" /> 
</g>
<g style="fill:#FFFFFF; fill-opacity:1.0000; stroke:none;">
<circle cx="39.6478" cy="30.0095" r="0.2000" /> 
</g>
<g style="fill:#FFFFFF; fill-opacity:1.0000; stroke:none;">
<circle cx="34.5678" cy="52.8664" r="0.2000" /> 
</g>
<g style="fill:#FFFFFF; fill-opacity:1.0000; stroke:none;">
<circle cx="37.1078" cy="52.8664" r="0.2000" /> 
</g>
<g style="fill:#FFFFFF; fill-opacity:1.0000; stroke:none;">
<circle cx="39.6478" cy="52.8664" r="0.2000" /> 
</g>
<g style="fill:#FFFFFF; fill-opacity:1.0000; stroke:none;">
<circle cx="8.7878" cy="33.2000" r="0.2000" /> 
</g>
<g style="fill:#FFFFFF; fill-opacity:1.0000; stroke:none;">
<circle cx="6.2478" cy="33.2000" r="0.2000" /> 
</g>
<g style="fill:#FFFFFF; fill-opacity:1.0000; stroke:none;">
<circle cx="34.5678" cy="71.4318" r="0.2000" /> 
</g>
<g style="fill:#FFFFFF; fill-opacity:1.0000; stroke:none;">
<circle cx="37.1078" cy="71.4318" r="0.2000" /> 
</g>
<g style="fill:#FFFFFF; fill-opacity:1.0000; stroke:none;">
<circle cx="39.6478" cy="71.4318" r="0.2000" /> 
</g>
<g style="fill:#FFFFFF; fill-opacity:1.0000; stroke:none;">
<circle cx="13.7428" cy="22.0000" r="0.2000" /> 
</g>
<g style="fill:#FFFFFF; fill-opacity:1.0000; stroke:none;">
<circle cx="15.7428" cy="22.0000" r="0.2000" /> 
</g>
<g style="fill:#FFFFFF; fill-opacity:1.0000; stroke:none;">
<circle cx="17.7428" cy="22.0000" r="0.2000" /> 
</g>
<g style="fill:#FFFFFF; fill-opacity:1.0000; stroke:none;">
<circle cx="13.7428" cy="26.5000" r="0.2000" /> 
</g>
<g style="fill:#FFFFFF; fill-opacity:1.0000; stroke:none;">
<circle cx="15.7428" cy="26.5000" r="0.2000" /> 
</g>
<g style="fill:#FFFFFF; fill-opacity:1.0000; stroke:none;">
<circle cx="17.7428" cy="26.5000" r="0.2000" /> 
</g>
<g style="fill:#FFFFFF; fill-opacity:1.0000; stroke:none;">
<circle cx="34.5678" cy="62.1491" r="0.2000" /> 
</g>
<g style="fill:#FFFFFF; fill-opacity:1.0000; stroke:none;">
<circle cx="37.1078" cy="62.1491" r="0.2000" /> 
</g>
<g style="fill:#FFFFFF; fill-opacity:1.0000; stroke:none;">
<circle cx="39.6478" cy="62.1491" r="0.2000" /> 
</g>
<g style="fill:#FFFFFF; fill-opacity:1.0000; stroke:none;">
<circle cx="34.5678" cy="66.7905" r="0.2000" /> 
</g>
<g style="fill:#FFFFFF; fill-opacity:1.0000; stroke:none;">
<circle cx="37.1078" cy="66.7905" r="0.2000" /> 
</g>
<g style="fill:#FFFFFF; fill-opacity:1.0000; stroke:none;">
<circle cx="39.6478" cy="66.7905" r="0.2000" /> 
</g>
<g style="fill:#FFFFFF; fill-opacity:1.0000; stroke:none;">
<circle cx="34.5678" cy="43.5836" r="0.2000" /> 
</g>
<g style="fill:#FFFFFF; fill-opacity:1.0000; stroke:none;">
<circle cx="37.1078" cy="43.5836" r="0.2000" /> 
</g>
<g style="fill:#FFFFFF; fill-opacity:1.0000; stroke:none;">
<circle cx="39.6478" cy="43.5836" r="0.2000" /> 
</g>
<g style="fill:#FFFFFF; fill-opacity:1.0000; stroke:none;">
<circle cx="24.0528" cy="20.6500" r="0.2000" /> 
</g>
<g style="fill:#FFFFFF; fill-opacity:1.0000; stroke:none;">
<circle cx="26.5928" cy="20.6500" r="0.2000" /> 
</g>
<g style="fill:#FFFFFF; fill-opacity:1.0000; stroke:none;">
<circle cx="29.1328" cy="20.6500" r="0.2000" /> 
</g>
<g style="fill:#FFFFFF; fill-opacity:1.0000; stroke:none;">
<circle cx="38.9928" cy="21.0000" r="0.2000" /> 
</g>
<g style="fill:#FFFFFF; fill-opacity:1.0000; stroke:none;">
<circle cx="38.9928" cy="23.5000" r="0.2000" /> 
</g>
<g style="fill:#FFFFFF; fill-opacity:1.0000; stroke:none;">
<circle cx="8.7828" cy="27.2500" r="0.2000" /> 
</g>
<g style="fill:#FFFFFF; fill-opacity:1.0000; stroke:none;">
<circle cx="6.2428" cy="27.2500" r="0.2000" /> 
</g>
<g style="fill:#FFFFFF; fill-opacity:1.0000; stroke:none;">
<circle cx="34.5678" cy="48.2250" r="0.2000" /> 
</g>
<g style="fill:#FFFFFF; fill-opacity:1.0000; stroke:none;">
<circle cx="37.1078" cy="48.2250" r="0.2000" /> 
</g>
<g style="fill:#FFFFFF; fill-opacity:1.0000; stroke:none;">
<circle cx="39.6478" cy="48.2250" r="0.2000" /> 
</g> 
</svg>
