<?xml version="1.0" standalone="no"?>
 <!DOCTYPE svg PUBLIC "-//W3C//DTD SVG 1.1//EN" 
 "http://www.w3.org/Graphics/SVG/1.1/DTD/svg11.dtd"> 
<svg
  xmlns:svg="http://www.w3.org/2000/svg"
  xmlns="http://www.w3.org/2000/svg"
  xmlns:xlink="http://www.w3.org/1999/xlink"
  xmlns:inkscape="http://www.inkscape.org/namespaces/inkscape"
  version="1.1"
  width="43.9928mm" height="84.9884mm" viewBox="0.0000 0.0000 43.9928 84.9884">
<title>SVG Image created as nano_IPBL_2026-F_Silkscreen.svg date 2026-07-21T19:20:03 </title>
  <desc>Image generated by PCBNEW </desc>
<g style="fill:#000000; fill-opacity:1.0000;stroke:#000000; stroke-opacity:1.0000;
stroke-linecap:round; stroke-linejoin:round;"
 transform="translate(0 0) scale(1 1)">
</g>
<g style="fill:none; 
stroke:#000000; stroke-width:0.1500; stroke-opacity:1; 
stroke-linecap:round; stroke-linejoin:round;">
<g transform="rotate(90.000000 24.3928 44.2000)">
<text x="24.3928" y="44.2000"
transform="scale(-1 1) translate(-48.785600 0)"
textLength="1.5548" font-size="5.3333" lengthAdjust="spacingAndGlyphs"
text-anchor="end" opacity="0" stroke-opacity="0">.</text>
</g>
<g class="stroked-text"><desc>.</desc>
<path d="M25.2711 45.2511
L25.0806 45.0606
" />
<path d="M25.0806 45.0606
L24.8901 45.2511
" />
<path d="M24.8901 45.2511
L25.0806 45.4415
" />
<path d="M25.0806 45.4415
L25.2711 45.2511
" />
<path d="M25.2711 45.2511
L24.8901 45.2511
" />
</g><g transform="rotate(90.000000 24.3928 38.0000)">
<text x="24.3928" y="38.0000"
transform="scale(-1 1) translate(-48.785600 0)"
textLength="1.5548" font-size="5.3333" lengthAdjust="spacingAndGlyphs"
text-anchor="end" opacity="0" stroke-opacity="0">.</text>
</g>
<g class="stroked-text"><desc>.</desc>
<path d="M25.2711 39.0511
L25.0806 38.8606
" />
<path d="M25.0806 38.8606
L24.8901 39.0511
" />
<path d="M24.8901 39.0511
L25.0806 39.2415
" />
<path d="M25.0806 39.2415
L25.2711 39.0511
" />
<path d="M25.2711 39.0511
L24.8901 39.0511
" />
</g><g transform="rotate(90.000000 30.1928 19.8000)">
<text x="30.1928" y="19.8000"
transform="scale(-1 1) translate(-60.385600 0)"
textLength="1.5548" font-size="5.3333" lengthAdjust="spacingAndGlyphs"
text-anchor="end" opacity="0" stroke-opacity="0">.</text>
</g>
<g class="stroked-text"><desc>.</desc>
<path d="M31.0711 20.8511
L30.8806 20.6606
" />
<path d="M30.8806 20.6606
L30.6901 20.8511
" />
<path d="M30.6901 20.8511
L30.8806 21.0415
" />
<path d="M30.8806 21.0415
L31.0711 20.8511
" />
<path d="M31.0711 20.8511
L30.6901 20.8511
" />
</g><g transform="rotate(90.000000 34.3928 19.8000)">
<text x="34.3928" y="19.8000"
transform="scale(-1 1) translate(-68.785600 0)"
textLength="1.5548" font-size="5.3333" lengthAdjust="spacingAndGlyphs"
text-anchor="end" opacity="0" stroke-opacity="0">.</text>
</g>
<g class="stroked-text"><desc>.</desc>
<path d="M35.2711 20.8511
L35.0806 20.6606
" />
<path d="M35.0806 20.6606
L34.8901 20.8511
" />
<path d="M34.8901 20.8511
L35.0806 21.0415
" />
<path d="M35.0806 21.0415
L35.2711 20.8511
" />
<path d="M35.2711 20.8511
L34.8901 20.8511
" />
</g><g transform="rotate(90.000000 40.1525 25.0000)">
<text x="40.1525" y="25.0000"
transform="scale(-1 1) translate(-80.304928 0)"
textLength="49.6500" font-size="2.0000" lengthAdjust="spacingAndGlyphs"
text-anchor="end" opacity="0" stroke-opacity="0">International Project-Based Learning 2026</text>
</g>
<g class="stroked-text"><desc>International Project-Based Learning 2026</desc>
<path d="M40.3438 74.2415
L41.8438 74.2415
" />
<path d="M41.3438 73.5273
L40.3438 73.5273
" />
<path d="M41.2010 73.5273
L41.2724 73.4558
" />
<path d="M41.2724 73.4558
L41.3438 73.3130
" />
<path d="M41.3438 73.3130
L41.3438 73.0987
" />
<path d="M41.3438 73.0987
L41.2724 72.9558
" />
<path d="M41.2724 72.9558
L41.1295 72.8844
" />
<path d="M41.1295 72.8844
L40.3438 72.8844
" />
<path d="M41.3438 72.3844
L41.3438 71.8130
" />
<path d="M41.8438 72.1701
L40.5581 72.1701
" />
<path d="M40.5581 72.1701
L40.4153 72.0987
" />
<path d="M40.4153 72.0987
L40.3438 71.9558
" />
<path d="M40.3438 71.9558
L40.3438 71.8130
" />
<path d="M40.4153 70.7415
L40.3438 70.8844
" />
<path d="M40.3438 70.8844
L40.3438 71.1701
" />
<path d="M40.3438 71.1701
L40.4153 71.3130
" />
<path d="M40.4153 71.3130
L40.5581 71.3844
" />
<path d="M40.5581 71.3844
L41.1295 71.3844
" />
<path d="M41.1295 71.3844
L41.2724 71.3130
" />
<path d="M41.2724 71.3130
L41.3438 71.1701
" />
<path d="M41.3438 71.1701
L41.3438 70.8844
" />
<path d="M41.3438 70.8844
L41.2724 70.7415
" />
<path d="M41.2724 70.7415
L41.1295 70.6701
" />
<path d="M41.1295 70.6701
L40.9867 70.6701
" />
<path d="M40.9867 70.6701
L40.8438 71.3844
" />
<path d="M40.3438 70.0273
L41.3438 70.0273
" />
<path d="M41.0581 70.0273
L41.2010 69.9558
" />
<path d="M41.2010 69.9558
L41.2724 69.8844
" />
<path d="M41.2724 69.8844
L41.3438 69.7415
" />
<path d="M41.3438 69.7415
L41.3438 69.5987
" />
<path d="M41.3438 69.0987
L40.3438 69.0987
" />
<path d="M41.2010 69.0987
L41.2724 69.0273
" />
<path d="M41.2724 69.0273
L41.3438 68.8844
" />
<path d="M41.3438 68.8844
L41.3438 68.6701
" />
<path d="M41.3438 68.6701
L41.2724 68.5273
" />
<path d="M41.2724 68.5273
L41.1295 68.4558
" />
<path d="M41.1295 68.4558
L40.3438 68.4558
" />
<path d="M40.3438 67.0987
L41.1295 67.0987
" />
<path d="M41.1295 67.0987
L41.2724 67.1701
" />
<path d="M41.2724 67.1701
L41.3438 67.3130
" />
<path d="M41.3438 67.3130
L41.3438 67.5987
" />
<path d="M41.3438 67.5987
L41.2724 67.7415
" />
<path d="M40.4153 67.0987
L40.3438 67.2415
" />
<path d="M40.3438 67.2415
L40.3438 67.5987
" />
<path d="M40.3438 67.5987
L40.4153 67.7415
" />
<path d="M40.4153 67.7415
L40.5581 67.8130
" />
<path d="M40.5581 67.8130
L40.7010 67.8130
" />
<path d="M40.7010 67.8130
L40.8438 67.7415
" />
<path d="M40.8438 67.7415
L40.9153 67.5987
" />
<path d="M40.9153 67.5987
L40.9153 67.2415
" />
<path d="M40.9153 67.2415
L40.9867 67.0987
" />
<path d="M41.3438 66.5987
L41.3438 66.0273
" />
<path d="M41.8438 66.3844
L40.5581 66.3844
" />
<path d="M40.5581 66.3844
L40.4153 66.3130
" />
<path d="M40.4153 66.3130
L40.3438 66.1701
" />
<path d="M40.3438 66.1701
L40.3438 66.0273
" />
<path d="M40.3438 65.5273
L41.3438 65.5273
" />
<path d="M41.8438 65.5273
L41.7724 65.5987
" />
<path d="M41.7724 65.5987
L41.7010 65.5273
" />
<path d="M41.7010 65.5273
L41.7724 65.4558
" />
<path d="M41.7724 65.4558
L41.8438 65.5273
" />
<path d="M41.8438 65.5273
L41.7010 65.5273
" />
<path d="M40.3438 64.5987
L40.4153 64.7415
" />
<path d="M40.4153 64.7415
L40.4867 64.8130
" />
<path d="M40.4867 64.8130
L40.6295 64.8844
" />
<path d="M40.6295 64.8844
L41.0581 64.8844
" />
<path d="M41.0581 64.8844
L41.2010 64.8130
" />
<path d="M41.2010 64.8130
L41.2724 64.7415
" />
<path d="M41.2724 64.7415
L41.3438 64.5987
" />
<path d="M41.3438 64.5987
L41.3438 64.3844
" />
<path d="M41.3438 64.3844
L41.2724 64.2415
" />
<path d="M41.2724 64.2415
L41.2010 64.1701
" />
<path d="M41.2010 64.1701
L41.0581 64.0987
" />
<path d="M41.0581 64.0987
L40.6295 64.0987
" />
<path d="M40.6295 64.0987
L40.4867 64.1701
" />
<path d="M40.4867 64.1701
L40.4153 64.2415
" />
<path d="M40.4153 64.2415
L40.3438 64.3844
" />
<path d="M40.3438 64.3844
L40.3438 64.5987
" />
<path d="M41.3438 63.4558
L40.3438 63.4558
" />
<path d="M41.2010 63.4558
L41.2724 63.3844
" />
<path d="M41.2724 63.3844
L41.3438 63.2415
" />
<path d="M41.3438 63.2415
L41.3438 63.0273
" />
<path d="M41.3438 63.0273
L41.2724 62.8844
" />
<path d="M41.2724 62.8844
L41.1295 62.8130
" />
<path d="M41.1295 62.8130
L40.3438 62.8130
" />
<path d="M40.3438 61.4558
L41.1295 61.4558
" />
<path d="M41.1295 61.4558
L41.2724 61.5273
" />
<path d="M41.2724 61.5273
L41.3438 61.6701
" />
<path d="M41.3438 61.6701
L41.3438 61.9558
" />
<path d="M41.3438 61.9558
L41.2724 62.0987
" />
<path d="M40.4153 61.4558
L40.3438 61.5987
" />
<path d="M40.3438 61.5987
L40.3438 61.9558
" />
<path d="M40.3438 61.9558
L40.4153 62.0987
" />
<path d="M40.4153 62.0987
L40.5581 62.1701
" />
<path d="M40.5581 62.1701
L40.7010 62.1701
" />
<path d="M40.7010 62.1701
L40.8438 62.0987
" />
<path d="M40.8438 62.0987
L40.9153 61.9558
" />
<path d="M40.9153 61.9558
L40.9153 61.5987
" />
<path d="M40.9153 61.5987
L40.9867 61.4558
" />
<path d="M40.3438 60.5273
L40.4153 60.6701
" />
<path d="M40.4153 60.6701
L40.5581 60.7415
" />
<path d="M40.5581 60.7415
L41.8438 60.7415
" />
<path d="M40.3438 58.8130
L41.8438 58.8130
" />
<path d="M41.8438 58.8130
L41.8438 58.2415
" />
<path d="M41.8438 58.2415
L41.7724 58.0987
" />
<path d="M41.7724 58.0987
L41.7010 58.0273
" />
<path d="M41.7010 58.0273
L41.5581 57.9558
" />
<path d="M41.5581 57.9558
L41.3438 57.9558
" />
<path d="M41.3438 57.9558
L41.2010 58.0273
" />
<path d="M41.2010 58.0273
L41.1295 58.0987
" />
<path d="M41.1295 58.0987
L41.0581 58.2415
" />
<path d="M41.0581 58.2415
L41.0581 58.8130
" />
<path d="M40.3438 57.3130
L41.3438 57.3130
" />
<path d="M41.0581 57.3130
L41.2010 57.2415
" />
<path d="M41.2010 57.2415
L41.2724 57.1701
" />
<path d="M41.2724 57.1701
L41.3438 57.0273
" />
<path d="M41.3438 57.0273
L41.3438 56.8844
" />
<path d="M40.3438 56.1701
L40.4153 56.3130
" />
<path d="M40.4153 56.3130
L40.4867 56.3844
" />
<path d="M40.4867 56.3844
L40.6295 56.4558
" />
<path d="M40.6295 56.4558
L41.0581 56.4558
" />
<path d="M41.0581 56.4558
L41.2010 56.3844
" />
<path d="M41.2010 56.3844
L41.2724 56.3130
" />
<path d="M41.2724 56.3130
L41.3438 56.1701
" />
<path d="M41.3438 56.1701
L41.3438 55.9558
" />
<path d="M41.3438 55.9558
L41.2724 55.8130
" />
<path d="M41.2724 55.8130
L41.2010 55.7415
" />
<path d="M41.2010 55.7415
L41.0581 55.6701
" />
<path d="M41.0581 55.6701
L40.6295 55.6701
" />
<path d="M40.6295 55.6701
L40.4867 55.7415
" />
<path d="M40.4867 55.7415
L40.4153 55.8130
" />
<path d="M40.4153 55.8130
L40.3438 55.9558
" />
<path d="M40.3438 55.9558
L40.3438 56.1701
" />
<path d="M41.3438 55.0273
L40.0581 55.0273
" />
<path d="M40.0581 55.0273
L39.9153 55.0987
" />
<path d="M39.9153 55.0987
L39.8438 55.2415
" />
<path d="M39.8438 55.2415
L39.8438 55.3130
" />
<path d="M41.8438 55.0273
L41.7724 55.0987
" />
<path d="M41.7724 55.0987
L41.7010 55.0273
" />
<path d="M41.7010 55.0273
L41.7724 54.9558
" />
<path d="M41.7724 54.9558
L41.8438 55.0273
" />
<path d="M41.8438 55.0273
L41.7010 55.0273
" />
<path d="M40.4153 53.7415
L40.3438 53.8844
" />
<path d="M40.3438 53.8844
L40.3438 54.1701
" />
<path d="M40.3438 54.1701
L40.4153 54.3130
" />
<path d="M40.4153 54.3130
L40.5581 54.3844
" />
<path d="M40.5581 54.3844
L41.1295 54.3844
" />
<path d="M41.1295 54.3844
L41.2724 54.3130
" />
<path d="M41.2724 54.3130
L41.3438 54.1701
" />
<path d="M41.3438 54.1701
L41.3438 53.8844
" />
<path d="M41.3438 53.8844
L41.2724 53.7415
" />
<path d="M41.2724 53.7415
L41.1295 53.6701
" />
<path d="M41.1295 53.6701
L40.9867 53.6701
" />
<path d="M40.9867 53.6701
L40.8438 54.3844
" />
<path d="M40.4153 52.3844
L40.3438 52.5273
" />
<path d="M40.3438 52.5273
L40.3438 52.8130
" />
<path d="M40.3438 52.8130
L40.4153 52.9558
" />
<path d="M40.4153 52.9558
L40.4867 53.0273
" />
<path d="M40.4867 53.0273
L40.6295 53.0987
" />
<path d="M40.6295 53.0987
L41.0581 53.0987
" />
<path d="M41.0581 53.0987
L41.2010 53.0273
" />
<path d="M41.2010 53.0273
L41.2724 52.9558
" />
<path d="M41.2724 52.9558
L41.3438 52.8130
" />
<path d="M41.3438 52.8130
L41.3438 52.5273
" />
<path d="M41.3438 52.5273
L41.2724 52.3844
" />
<path d="M41.3438 51.9558
L41.3438 51.3844
" />
<path d="M41.8438 51.7415
L40.5581 51.7415
" />
<path d="M40.5581 51.7415
L40.4153 51.6701
" />
<path d="M40.4153 51.6701
L40.3438 51.5273
" />
<path d="M40.3438 51.5273
L40.3438 51.3844
" />
<path d="M40.9153 50.8844
L40.9153 49.7415
" />
<path d="M41.1295 48.5273
L41.0581 48.3130
" />
<path d="M41.0581 48.3130
L40.9867 48.2415
" />
<path d="M40.9867 48.2415
L40.8438 48.1701
" />
<path d="M40.8438 48.1701
L40.6295 48.1701
" />
<path d="M40.6295 48.1701
L40.4867 48.2415
" />
<path d="M40.4867 48.2415
L40.4153 48.3130
" />
<path d="M40.4153 48.3130
L40.3438 48.4558
" />
<path d="M40.3438 48.4558
L40.3438 49.0273
" />
<path d="M40.3438 49.0273
L41.8438 49.0273
" />
<path d="M41.8438 49.0273
L41.8438 48.5273
" />
<path d="M41.8438 48.5273
L41.7724 48.3844
" />
<path d="M41.7724 48.3844
L41.7010 48.3130
" />
<path d="M41.7010 48.3130
L41.5581 48.2415
" />
<path d="M41.5581 48.2415
L41.4153 48.2415
" />
<path d="M41.4153 48.2415
L41.2724 48.3130
" />
<path d="M41.2724 48.3130
L41.2010 48.3844
" />
<path d="M41.2010 48.3844
L41.1295 48.5273
" />
<path d="M41.1295 48.5273
L41.1295 49.0273
" />
<path d="M40.3438 46.8844
L41.1295 46.8844
" />
<path d="M41.1295 46.8844
L41.2724 46.9558
" />
<path d="M41.2724 46.9558
L41.3438 47.0987
" />
<path d="M41.3438 47.0987
L41.3438 47.3844
" />
<path d="M41.3438 47.3844
L41.2724 47.5273
" />
<path d="M40.4153 46.8844
L40.3438 47.0273
" />
<path d="M40.3438 47.0273
L40.3438 47.3844
" />
<path d="M40.3438 47.3844
L40.4153 47.5273
" />
<path d="M40.4153 47.5273
L40.5581 47.5987
" />
<path d="M40.5581 47.5987
L40.7010 47.5987
" />
<path d="M40.7010 47.5987
L40.8438 47.5273
" />
<path d="M40.8438 47.5273
L40.9153 47.3844
" />
<path d="M40.9153 47.3844
L40.9153 47.0273
" />
<path d="M40.9153 47.0273
L40.9867 46.8844
" />
<path d="M40.4153 46.2415
L40.3438 46.0987
" />
<path d="M40.3438 46.0987
L40.3438 45.8130
" />
<path d="M40.3438 45.8130
L40.4153 45.6701
" />
<path d="M40.4153 45.6701
L40.5581 45.5987
" />
<path d="M40.5581 45.5987
L40.6295 45.5987
" />
<path d="M40.6295 45.5987
L40.7724 45.6701
" />
<path d="M40.7724 45.6701
L40.8438 45.8130
" />
<path d="M40.8438 45.8130
L40.8438 46.0273
" />
<path d="M40.8438 46.0273
L40.9153 46.1701
" />
<path d="M40.9153 46.1701
L41.0581 46.2415
" />
<path d="M41.0581 46.2415
L41.1295 46.2415
" />
<path d="M41.1295 46.2415
L41.2724 46.1701
" />
<path d="M41.2724 46.1701
L41.3438 46.0273
" />
<path d="M41.3438 46.0273
L41.3438 45.8130
" />
<path d="M41.3438 45.8130
L41.2724 45.6701
" />
<path d="M40.4153 44.3844
L40.3438 44.5273
" />
<path d="M40.3438 44.5273
L40.3438 44.8130
" />
<path d="M40.3438 44.8130
L40.4153 44.9558
" />
<path d="M40.4153 44.9558
L40.5581 45.0273
" />
<path d="M40.5581 45.0273
L41.1295 45.0273
" />
<path d="M41.1295 45.0273
L41.2724 44.9558
" />
<path d="M41.2724 44.9558
L41.3438 44.8130
" />
<path d="M41.3438 44.8130
L41.3438 44.5273
" />
<path d="M41.3438 44.5273
L41.2724 44.3844
" />
<path d="M41.2724 44.3844
L41.1295 44.3130
" />
<path d="M41.1295 44.3130
L40.9867 44.3130
" />
<path d="M40.9867 44.3130
L40.8438 45.0273
" />
<path d="M40.3438 43.0273
L41.8438 43.0273
" />
<path d="M40.4153 43.0273
L40.3438 43.1701
" />
<path d="M40.3438 43.1701
L40.3438 43.4558
" />
<path d="M40.3438 43.4558
L40.4153 43.5987
" />
<path d="M40.4153 43.5987
L40.4867 43.6701
" />
<path d="M40.4867 43.6701
L40.6295 43.7415
" />
<path d="M40.6295 43.7415
L41.0581 43.7415
" />
<path d="M41.0581 43.7415
L41.2010 43.6701
" />
<path d="M41.2010 43.6701
L41.2724 43.5987
" />
<path d="M41.2724 43.5987
L41.3438 43.4558
" />
<path d="M41.3438 43.4558
L41.3438 43.1701
" />
<path d="M41.3438 43.1701
L41.2724 43.0273
" />
<path d="M40.3438 40.4558
L40.3438 41.1701
" />
<path d="M40.3438 41.1701
L41.8438 41.1701
" />
<path d="M40.4153 39.3844
L40.3438 39.5273
" />
<path d="M40.3438 39.5273
L40.3438 39.8130
" />
<path d="M40.3438 39.8130
L40.4153 39.9558
" />
<path d="M40.4153 39.9558
L40.5581 40.0273
" />
<path d="M40.5581 40.0273
L41.1295 40.0273
" />
<path d="M41.1295 40.0273
L41.2724 39.9558
" />
<path d="M41.2724 39.9558
L41.3438 39.8130
" />
<path d="M41.3438 39.8130
L41.3438 39.5273
" />
<path d="M41.3438 39.5273
L41.2724 39.3844
" />
<path d="M41.2724 39.3844
L41.1295 39.3130
" />
<path d="M41.1295 39.3130
L40.9867 39.3130
" />
<path d="M40.9867 39.3130
L40.8438 40.0273
" />
<path d="M40.3438 38.0273
L41.1295 38.0273
" />
<path d="M41.1295 38.0273
L41.2724 38.0987
" />
<path d="M41.2724 38.0987
L41.3438 38.2415
" />
<path d="M41.3438 38.2415
L41.3438 38.5273
" />
<path d="M41.3438 38.5273
L41.2724 38.6701
" />
<path d="M40.4153 38.0273
L40.3438 38.1701
" />
<path d="M40.3438 38.1701
L40.3438 38.5273
" />
<path d="M40.3438 38.5273
L40.4153 38.6701
" />
<path d="M40.4153 38.6701
L40.5581 38.7415
" />
<path d="M40.5581 38.7415
L40.7010 38.7415
" />
<path d="M40.7010 38.7415
L40.8438 38.6701
" />
<path d="M40.8438 38.6701
L40.9153 38.5273
" />
<path d="M40.9153 38.5273
L40.9153 38.1701
" />
<path d="M40.9153 38.1701
L40.9867 38.0273
" />
<path d="M40.3438 37.3130
L41.3438 37.3130
" />
<path d="M41.0581 37.3130
L41.2010 37.2415
" />
<path d="M41.2010 37.2415
L41.2724 37.1701
" />
<path d="M41.2724 37.1701
L41.3438 37.0273
" />
<path d="M41.3438 37.0273
L41.3438 36.8844
" />
<path d="M41.3438 36.3844
L40.3438 36.3844
" />
<path d="M41.2010 36.3844
L41.2724 36.3130
" />
<path d="M41.2724 36.3130
L41.3438 36.1701
" />
<path d="M41.3438 36.1701
L41.3438 35.9558
" />
<path d="M41.3438 35.9558
L41.2724 35.8130
" />
<path d="M41.2724 35.8130
L41.1295 35.7415
" />
<path d="M41.1295 35.7415
L40.3438 35.7415
" />
<path d="M40.3438 35.0273
L41.3438 35.0273
" />
<path d="M41.8438 35.0273
L41.7724 35.0987
" />
<path d="M41.7724 35.0987
L41.7010 35.0273
" />
<path d="M41.7010 35.0273
L41.7724 34.9558
" />
<path d="M41.7724 34.9558
L41.8438 35.0273
" />
<path d="M41.8438 35.0273
L41.7010 35.0273
" />
<path d="M41.3438 34.3130
L40.3438 34.3130
" />
<path d="M41.2010 34.3130
L41.2724 34.2415
" />
<path d="M41.2724 34.2415
L41.3438 34.0987
" />
<path d="M41.3438 34.0987
L41.3438 33.8844
" />
<path d="M41.3438 33.8844
L41.2724 33.7415
" />
<path d="M41.2724 33.7415
L41.1295 33.6701
" />
<path d="M41.1295 33.6701
L40.3438 33.6701
" />
<path d="M41.3438 32.3130
L40.1295 32.3130
" />
<path d="M40.1295 32.3130
L39.9867 32.3844
" />
<path d="M39.9867 32.3844
L39.9153 32.4558
" />
<path d="M39.9153 32.4558
L39.8438 32.5987
" />
<path d="M39.8438 32.5987
L39.8438 32.8130
" />
<path d="M39.8438 32.8130
L39.9153 32.9558
" />
<path d="M40.4153 32.3130
L40.3438 32.4558
" />
<path d="M40.3438 32.4558
L40.3438 32.7415
" />
<path d="M40.3438 32.7415
L40.4153 32.8844
" />
<path d="M40.4153 32.8844
L40.4867 32.9558
" />
<path d="M40.4867 32.9558
L40.6295 33.0273
" />
<path d="M40.6295 33.0273
L41.0581 33.0273
" />
<path d="M41.0581 33.0273
L41.2010 32.9558
" />
<path d="M41.2010 32.9558
L41.2724 32.8844
" />
<path d="M41.2724 32.8844
L41.3438 32.7415
" />
<path d="M41.3438 32.7415
L41.3438 32.4558
" />
<path d="M41.3438 32.4558
L41.2724 32.3130
" />
<path d="M41.7010 30.5273
L41.7724 30.4558
" />
<path d="M41.7724 30.4558
L41.8438 30.3130
" />
<path d="M41.8438 30.3130
L41.8438 29.9558
" />
<path d="M41.8438 29.9558
L41.7724 29.8130
" />
<path d="M41.7724 29.8130
L41.7010 29.7415
" />
<path d="M41.7010 29.7415
L41.5581 29.6701
" />
<path d="M41.5581 29.6701
L41.4153 29.6701
" />
<path d="M41.4153 29.6701
L41.2010 29.7415
" />
<path d="M41.2010 29.7415
L40.3438 30.5987
" />
<path d="M40.3438 30.5987
L40.3438 29.6701
" />
<path d="M41.8438 28.7415
L41.8438 28.5987
" />
<path d="M41.8438 28.5987
L41.7724 28.4558
" />
<path d="M41.7724 28.4558
L41.7010 28.3844
" />
<path d="M41.7010 28.3844
L41.5581 28.3130
" />
<path d="M41.5581 28.3130
L41.2724 28.2415
" />
<path d="M41.2724 28.2415
L40.9153 28.2415
" />
<path d="M40.9153 28.2415
L40.6295 28.3130
" />
<path d="M40.6295 28.3130
L40.4867 28.3844
" />
<path d="M40.4867 28.3844
L40.4153 28.4558
" />
<path d="M40.4153 28.4558
L40.3438 28.5987
" />
<path d="M40.3438 28.5987
L40.3438 28.7415
" />
<path d="M40.3438 28.7415
L40.4153 28.8844
" />
<path d="M40.4153 28.8844
L40.4867 28.9558
" />
<path d="M40.4867 28.9558
L40.6295 29.0273
" />
<path d="M40.6295 29.0273
L40.9153 29.0987
" />
<path d="M40.9153 29.0987
L41.2724 29.0987
" />
<path d="M41.2724 29.0987
L41.5581 29.0273
" />
<path d="M41.5581 29.0273
L41.7010 28.9558
" />
<path d="M41.7010 28.9558
L41.7724 28.8844
" />
<path d="M41.7724 28.8844
L41.8438 28.7415
" />
<path d="M41.7010 27.6701
L41.7724 27.5987
" />
<path d="M41.7724 27.5987
L41.8438 27.4558
" />
<path d="M41.8438 27.4558
L41.8438 27.0987
" />
<path d="M41.8438 27.0987
L41.7724 26.9558
" />
<path d="M41.7724 26.9558
L41.7010 26.8844
" />
<path d="M41.7010 26.8844
L41.5581 26.8130
" />
<path d="M41.5581 26.8130
L41.4153 26.8130
" />
<path d="M41.4153 26.8130
L41.2010 26.8844
" />
<path d="M41.2010 26.8844
L40.3438 27.7415
" />
<path d="M40.3438 27.7415
L40.3438 26.8130
" />
<path d="M41.8438 25.5273
L41.8438 25.8130
" />
<path d="M41.8438 25.8130
L41.7724 25.9558
" />
<path d="M41.7724 25.9558
L41.7010 26.0273
" />
<path d="M41.7010 26.0273
L41.4867 26.1701
" />
<path d="M41.4867 26.1701
L41.2010 26.2415
" />
<path d="M41.2010 26.2415
L40.6295 26.2415
" />
<path d="M40.6295 26.2415
L40.4867 26.1701
" />
<path d="M40.4867 26.1701
L40.4153 26.0987
" />
<path d="M40.4153 26.0987
L40.3438 25.9558
" />
<path d="M40.3438 25.9558
L40.3438 25.6701
" />
<path d="M40.3438 25.6701
L40.4153 25.5273
" />
<path d="M40.4153 25.5273
L40.4867 25.4558
" />
<path d="M40.4867 25.4558
L40.6295 25.3844
" />
<path d="M40.6295 25.3844
L40.9867 25.3844
" />
<path d="M40.9867 25.3844
L41.1295 25.4558
" />
<path d="M41.1295 25.4558
L41.2010 25.5273
" />
<path d="M41.2010 25.5273
L41.2724 25.6701
" />
<path d="M41.2724 25.6701
L41.2724 25.9558
" />
<path d="M41.2724 25.9558
L41.2010 26.0987
" />
<path d="M41.2010 26.0987
L41.1295 26.1701
" />
<path d="M41.1295 26.1701
L40.9867 26.2415
" />
</g><g transform="rotate(90.000000 37.7375 25.0000)">
<text x="37.7375" y="25.0000"
transform="scale(-1 1) translate(-75.475096 0)"
textLength="0.4500" font-size="2.0000" lengthAdjust="spacingAndGlyphs"
text-anchor="end" opacity="0" stroke-opacity="0"></text>
</g>
<g class="stroked-text"><desc></desc>
</g><g transform="rotate(90.000000 35.3226 25.0000)">
<text x="35.3226" y="25.0000"
transform="scale(-1 1) translate(-70.645264 0)"
textLength="7.6500" font-size="2.0000" lengthAdjust="spacingAndGlyphs"
text-anchor="end" opacity="0" stroke-opacity="0">USJ-R</text>
</g>
<g class="stroked-text"><desc>USJ-R</desc>
<path d="M37.0140 32.2415
L35.7997 32.2415
" />
<path d="M35.7997 32.2415
L35.6569 32.1701
" />
<path d="M35.6569 32.1701
L35.5854 32.0987
" />
<path d="M35.5854 32.0987
L35.5140 31.9558
" />
<path d="M35.5140 31.9558
L35.5140 31.6701
" />
<path d="M35.5140 31.6701
L35.5854 31.5273
" />
<path d="M35.5854 31.5273
L35.6569 31.4558
" />
<path d="M35.6569 31.4558
L35.7997 31.3844
" />
<path d="M35.7997 31.3844
L37.0140 31.3844
" />
<path d="M35.5854 30.7415
L35.5140 30.5273
" />
<path d="M35.5140 30.5273
L35.5140 30.1701
" />
<path d="M35.5140 30.1701
L35.5854 30.0273
" />
<path d="M35.5854 30.0273
L35.6569 29.9558
" />
<path d="M35.6569 29.9558
L35.7997 29.8844
" />
<path d="M35.7997 29.8844
L35.9426 29.8844
" />
<path d="M35.9426 29.8844
L36.0854 29.9558
" />
<path d="M36.0854 29.9558
L36.1569 30.0273
" />
<path d="M36.1569 30.0273
L36.2283 30.1701
" />
<path d="M36.2283 30.1701
L36.2997 30.4558
" />
<path d="M36.2997 30.4558
L36.3711 30.5987
" />
<path d="M36.3711 30.5987
L36.4426 30.6701
" />
<path d="M36.4426 30.6701
L36.5854 30.7415
" />
<path d="M36.5854 30.7415
L36.7283 30.7415
" />
<path d="M36.7283 30.7415
L36.8711 30.6701
" />
<path d="M36.8711 30.6701
L36.9426 30.5987
" />
<path d="M36.9426 30.5987
L37.0140 30.4558
" />
<path d="M37.0140 30.4558
L37.0140 30.0987
" />
<path d="M37.0140 30.0987
L36.9426 29.8844
" />
<path d="M37.0140 28.8130
L35.9426 28.8130
" />
<path d="M35.9426 28.8130
L35.7283 28.8844
" />
<path d="M35.7283 28.8844
L35.5854 29.0273
" />
<path d="M35.5854 29.0273
L35.5140 29.2415
" />
<path d="M35.5140 29.2415
L35.5140 29.3844
" />
<path d="M36.0854 28.0987
L36.0854 26.9558
" />
<path d="M35.5140 25.3844
L36.2283 25.8844
" />
<path d="M35.5140 26.2415
L37.0140 26.2415
" />
<path d="M37.0140 26.2415
L37.0140 25.6701
" />
<path d="M37.0140 25.6701
L36.9426 25.5273
" />
<path d="M36.9426 25.5273
L36.8711 25.4558
" />
<path d="M36.8711 25.4558
L36.7283 25.3844
" />
<path d="M36.7283 25.3844
L36.5140 25.3844
" />
<path d="M36.5140 25.3844
L36.3711 25.4558
" />
<path d="M36.3711 25.4558
L36.2997 25.5273
" />
<path d="M36.2997 25.5273
L36.2283 25.6701
" />
<path d="M36.2283 25.6701
L36.2283 26.2415
" />
</g><g transform="rotate(90.000000 32.9077 25.0000)">
<text x="32.9077" y="25.0000"
transform="scale(-1 1) translate(-65.815432 0)"
textLength="6.8643" font-size="2.0000" lengthAdjust="spacingAndGlyphs"
text-anchor="end" opacity="0" stroke-opacity="0">STUST</text>
</g>
<g class="stroked-text"><desc>STUST</desc>
<path d="M33.1705 31.5273
L33.0991 31.3130
" />
<path d="M33.0991 31.3130
L33.0991 30.9558
" />
<path d="M33.0991 30.9558
L33.1705 30.8130
" />
<path d="M33.1705 30.8130
L33.2419 30.7415
" />
<path d="M33.2419 30.7415
L33.3848 30.6701
" />
<path d="M33.3848 30.6701
L33.5277 30.6701
" />
<path d="M33.5277 30.6701
L33.6705 30.7415
" />
<path d="M33.6705 30.7415
L33.7419 30.8130
" />
<path d="M33.7419 30.8130
L33.8134 30.9558
" />
<path d="M33.8134 30.9558
L33.8848 31.2415
" />
<path d="M33.8848 31.2415
L33.9562 31.3844
" />
<path d="M33.9562 31.3844
L34.0277 31.4558
" />
<path d="M34.0277 31.4558
L34.1705 31.5273
" />
<path d="M34.1705 31.5273
L34.3134 31.5273
" />
<path d="M34.3134 31.5273
L34.4562 31.4558
" />
<path d="M34.4562 31.4558
L34.5277 31.3844
" />
<path d="M34.5277 31.3844
L34.5991 31.2415
" />
<path d="M34.5991 31.2415
L34.5991 30.8844
" />
<path d="M34.5991 30.8844
L34.5277 30.6701
" />
<path d="M34.5991 30.2415
L34.5991 29.3844
" />
<path d="M33.0991 29.8130
L34.5991 29.8130
" />
<path d="M34.5991 28.8844
L33.3848 28.8844
" />
<path d="M33.3848 28.8844
L33.2419 28.8130
" />
<path d="M33.2419 28.8130
L33.1705 28.7415
" />
<path d="M33.1705 28.7415
L33.0991 28.5987
" />
<path d="M33.0991 28.5987
L33.0991 28.3130
" />
<path d="M33.0991 28.3130
L33.1705 28.1701
" />
<path d="M33.1705 28.1701
L33.2419 28.0987
" />
<path d="M33.2419 28.0987
L33.3848 28.0273
" />
<path d="M33.3848 28.0273
L34.5991 28.0273
" />
<path d="M33.1705 27.3844
L33.0991 27.1701
" />
<path d="M33.0991 27.1701
L33.0991 26.8130
" />
<path d="M33.0991 26.8130
L33.1705 26.6701
" />
<path d="M33.1705 26.6701
L33.2419 26.5987
" />
<path d="M33.2419 26.5987
L33.3848 26.5273
" />
<path d="M33.3848 26.5273
L33.5277 26.5273
" />
<path d="M33.5277 26.5273
L33.6705 26.5987
" />
<path d="M33.6705 26.5987
L33.7419 26.6701
" />
<path d="M33.7419 26.6701
L33.8134 26.8130
" />
<path d="M33.8134 26.8130
L33.8848 27.0987
" />
<path d="M33.8848 27.0987
L33.9562 27.2415
" />
<path d="M33.9562 27.2415
L34.0277 27.3130
" />
<path d="M34.0277 27.3130
L34.1705 27.3844
" />
<path d="M34.1705 27.3844
L34.3134 27.3844
" />
<path d="M34.3134 27.3844
L34.4562 27.3130
" />
<path d="M34.4562 27.3130
L34.5277 27.2415
" />
<path d="M34.5277 27.2415
L34.5991 27.0987
" />
<path d="M34.5991 27.0987
L34.5991 26.7415
" />
<path d="M34.5991 26.7415
L34.5277 26.5273
" />
<path d="M34.5991 26.0987
L34.5991 25.2415
" />
<path d="M33.0991 25.6701
L34.5991 25.6701
" />
</g><g transform="rotate(90.000000 30.4928 25.0000)">
<text x="30.4928" y="25.0000"
transform="scale(-1 1) translate(-60.985600 0)"
textLength="3.5786" font-size="2.0000" lengthAdjust="spacingAndGlyphs"
text-anchor="end" opacity="0" stroke-opacity="0">OIT</text>
</g>
<g class="stroked-text"><desc>OIT</desc>
<path d="M32.1842 27.8844
L32.1842 27.5987
" />
<path d="M32.1842 27.5987
L32.1127 27.4558
" />
<path d="M32.1127 27.4558
L31.9699 27.3130
" />
<path d="M31.9699 27.3130
L31.6842 27.2415
" />
<path d="M31.6842 27.2415
L31.1842 27.2415
" />
<path d="M31.1842 27.2415
L30.8985 27.3130
" />
<path d="M30.8985 27.3130
L30.7556 27.4558
" />
<path d="M30.7556 27.4558
L30.6842 27.5987
" />
<path d="M30.6842 27.5987
L30.6842 27.8844
" />
<path d="M30.6842 27.8844
L30.7556 28.0273
" />
<path d="M30.7556 28.0273
L30.8985 28.1701
" />
<path d="M30.8985 28.1701
L31.1842 28.2415
" />
<path d="M31.1842 28.2415
L31.6842 28.2415
" />
<path d="M31.6842 28.2415
L31.9699 28.1701
" />
<path d="M31.9699 28.1701
L32.1127 28.0273
" />
<path d="M32.1127 28.0273
L32.1842 27.8844
" />
<path d="M30.6842 26.5987
L32.1842 26.5987
" />
<path d="M32.1842 26.0987
L32.1842 25.2415
" />
<path d="M30.6842 25.6701
L32.1842 25.6701
" />
</g><text x="24.9928" y="41.7000"
transform="scale(-1 1) translate(-49.985600 0)"
textLength="2.9167" font-size="1.3333" lengthAdjust="spacingAndGlyphs"
text-anchor="middle" opacity="0" stroke-opacity="0">TX1</text>
<g class="stroked-text"><desc>TX1</desc>
<path d="M26.2309 40.6548
L25.6595 40.6548
" />
<path d="M25.9452 41.6548
L25.9452 40.6548
" />
<path d="M25.4214 40.6548
L24.7547 41.6548
" />
<path d="M24.7547 40.6548
L25.4214 41.6548
" />
<path d="M23.8499 41.6548
L24.4214 41.6548
" />
<path d="M24.1357 41.6548
L24.1357 40.6548
" />
<path d="M24.1357 40.6548
L24.2309 40.7977
" />
<path d="M24.2309 40.7977
L24.3261 40.8929
" />
<path d="M24.3261 40.8929
L24.4214 40.9405
" />
</g><text x="30.4185" y="49.7000"
transform="scale(-1 1) translate(-60.837066 0)"
textLength="2.3452" font-size="1.3333" lengthAdjust="spacingAndGlyphs"
text-anchor="middle" opacity="0" stroke-opacity="0">M1</text>
<g class="stroked-text"><desc>M1</desc>
<path d="M31.2281 49.6548
L31.2281 48.6548
" />
<path d="M31.2281 48.6548
L30.8947 49.3691
" />
<path d="M30.8947 49.3691
L30.5614 48.6548
" />
<path d="M30.5614 48.6548
L30.5614 49.6548
" />
<path d="M29.5614 49.6548
L30.1328 49.6548
" />
<path d="M29.8471 49.6548
L29.8471 48.6548
" />
<path d="M29.8471 48.6548
L29.9423 48.7977
" />
<path d="M29.9423 48.7977
L30.0376 48.8929
" />
<path d="M30.0376 48.8929
L30.1328 48.9405
" />
</g><text x="21.1928" y="35.3000"
transform="scale(-1 1) translate(-42.385600 0)"
textLength="2.3452" font-size="1.3333" lengthAdjust="spacingAndGlyphs"
text-anchor="middle" opacity="0" stroke-opacity="0">M7</text>
<g class="stroked-text"><desc>M7</desc>
<path d="M22.0023 35.2548
L22.0023 34.2548
" />
<path d="M22.0023 34.2548
L21.6690 34.9691
" />
<path d="M21.6690 34.9691
L21.3357 34.2548
" />
<path d="M21.3357 34.2548
L21.3357 35.2548
" />
<path d="M20.9547 34.2548
L20.2880 34.2548
" />
<path d="M20.2880 34.2548
L20.7166 35.2548
" />
</g><text x="5.7928" y="29.5000"
transform="scale(-1 1) translate(-11.585600 0)"
textLength="2.2024" font-size="1.3333" lengthAdjust="spacingAndGlyphs"
text-anchor="middle" opacity="0" stroke-opacity="0">C3</text>
<g class="stroked-text"><desc>C3</desc>
<path d="M5.9595 29.3596
L6.0071 29.4072
" />
<path d="M6.0071 29.4072
L6.1499 29.4548
" />
<path d="M6.1499 29.4548
L6.2452 29.4548
" />
<path d="M6.2452 29.4548
L6.3880 29.4072
" />
<path d="M6.3880 29.4072
L6.4833 29.3120
" />
<path d="M6.4833 29.3120
L6.5309 29.2167
" />
<path d="M6.5309 29.2167
L6.5785 29.0262
" />
<path d="M6.5785 29.0262
L6.5785 28.8834
" />
<path d="M6.5785 28.8834
L6.5309 28.6929
" />
<path d="M6.5309 28.6929
L6.4833 28.5977
" />
<path d="M6.4833 28.5977
L6.3880 28.5024
" />
<path d="M6.3880 28.5024
L6.2452 28.4548
" />
<path d="M6.2452 28.4548
L6.1499 28.4548
" />
<path d="M6.1499 28.4548
L6.0071 28.5024
" />
<path d="M6.0071 28.5024
L5.9595 28.5501
" />
<path d="M5.6261 28.4548
L5.0071 28.4548
" />
<path d="M5.0071 28.4548
L5.3404 28.8358
" />
<path d="M5.3404 28.8358
L5.1976 28.8358
" />
<path d="M5.1976 28.8358
L5.1023 28.8834
" />
<path d="M5.1023 28.8834
L5.0547 28.9310
" />
<path d="M5.0547 28.9310
L5.0071 29.0262
" />
<path d="M5.0071 29.0262
L5.0071 29.2643
" />
<path d="M5.0071 29.2643
L5.0547 29.3596
" />
<path d="M5.0547 29.3596
L5.1023 29.4072
" />
<path d="M5.1023 29.4072
L5.1976 29.4548
" />
<path d="M5.1976 29.4548
L5.4833 29.4548
" />
<path d="M5.4833 29.4548
L5.5785 29.4072
" />
<path d="M5.5785 29.4072
L5.6261 29.3596
" />
</g><text x="30.3928" y="78.1000"
transform="scale(-1 1) translate(-60.785600 0)"
textLength="3.2976" font-size="1.3333" lengthAdjust="spacingAndGlyphs"
text-anchor="middle" opacity="0" stroke-opacity="0">M11</text>
<g class="stroked-text"><desc>M11</desc>
<path d="M31.6785 78.0548
L31.6785 77.0548
" />
<path d="M31.6785 77.0548
L31.3452 77.7691
" />
<path d="M31.3452 77.7691
L31.0118 77.0548
" />
<path d="M31.0118 77.0548
L31.0118 78.0548
" />
<path d="M30.0118 78.0548
L30.5833 78.0548
" />
<path d="M30.2976 78.0548
L30.2976 77.0548
" />
<path d="M30.2976 77.0548
L30.3928 77.1977
" />
<path d="M30.3928 77.1977
L30.4880 77.2929
" />
<path d="M30.4880 77.2929
L30.5833 77.3405
" />
<path d="M29.0595 78.0548
L29.6309 78.0548
" />
<path d="M29.3452 78.0548
L29.3452 77.0548
" />
<path d="M29.3452 77.0548
L29.4404 77.1977
" />
<path d="M29.4404 77.1977
L29.5357 77.2929
" />
<path d="M29.5357 77.2929
L29.6309 77.3405
" />
</g><text x="34.3443" y="49.6300"
transform="scale(-1 1) translate(-68.688534 0)"
textLength="2.3452" font-size="1.3333" lengthAdjust="spacingAndGlyphs"
text-anchor="middle" opacity="0" stroke-opacity="0">M2</text>
<g class="stroked-text"><desc>M2</desc>
<path d="M35.1538 49.5848
L35.1538 48.5848
" />
<path d="M35.1538 48.5848
L34.8205 49.2991
" />
<path d="M34.8205 49.2991
L34.4871 48.5848
" />
<path d="M34.4871 48.5848
L34.4871 49.5848
" />
<path d="M34.0586 48.6801
L34.0109 48.6324
" />
<path d="M34.0109 48.6324
L33.9157 48.5848
" />
<path d="M33.9157 48.5848
L33.6776 48.5848
" />
<path d="M33.6776 48.5848
L33.5824 48.6324
" />
<path d="M33.5824 48.6324
L33.5347 48.6801
" />
<path d="M33.5347 48.6801
L33.4871 48.7753
" />
<path d="M33.4871 48.7753
L33.4871 48.8705
" />
<path d="M33.4871 48.8705
L33.5347 49.0134
" />
<path d="M33.5347 49.0134
L34.1062 49.5848
" />
<path d="M34.1062 49.5848
L33.4871 49.5848
" />
</g><text x="34.3928" y="78.1000"
transform="scale(-1 1) translate(-68.785600 0)"
textLength="3.2976" font-size="1.3333" lengthAdjust="spacingAndGlyphs"
text-anchor="middle" opacity="0" stroke-opacity="0">M12</text>
<g class="stroked-text"><desc>M12</desc>
<path d="M35.6785 78.0548
L35.6785 77.0548
" />
<path d="M35.6785 77.0548
L35.3452 77.7691
" />
<path d="M35.3452 77.7691
L35.0118 77.0548
" />
<path d="M35.0118 77.0548
L35.0118 78.0548
" />
<path d="M34.0118 78.0548
L34.5833 78.0548
" />
<path d="M34.2976 78.0548
L34.2976 77.0548
" />
<path d="M34.2976 77.0548
L34.3928 77.1977
" />
<path d="M34.3928 77.1977
L34.4880 77.2929
" />
<path d="M34.4880 77.2929
L34.5833 77.3405
" />
<path d="M33.6309 77.1501
L33.5833 77.1024
" />
<path d="M33.5833 77.1024
L33.4880 77.0548
" />
<path d="M33.4880 77.0548
L33.2499 77.0548
" />
<path d="M33.2499 77.0548
L33.1547 77.1024
" />
<path d="M33.1547 77.1024
L33.1071 77.1501
" />
<path d="M33.1071 77.1501
L33.0595 77.2453
" />
<path d="M33.0595 77.2453
L33.0595 77.3405
" />
<path d="M33.0595 77.3405
L33.1071 77.4834
" />
<path d="M33.1071 77.4834
L33.6785 78.0548
" />
<path d="M33.6785 78.0548
L33.0595 78.0548
" />
</g><text x="38.9928" y="4.7500"
transform="scale(-1 1) translate(-77.985600 0)"
textLength="1.9643" font-size="1.3333" lengthAdjust="spacingAndGlyphs"
text-anchor="middle" opacity="0" stroke-opacity="0">J3</text>
<g class="stroked-text"><desc>J3</desc>
<path d="M39.3261 3.7048
L39.3261 4.4191
" />
<path d="M39.3261 4.4191
L39.3738 4.5620
" />
<path d="M39.3738 4.5620
L39.4690 4.6572
" />
<path d="M39.4690 4.6572
L39.6118 4.7048
" />
<path d="M39.6118 4.7048
L39.7071 4.7048
" />
<path d="M38.9452 3.7048
L38.3261 3.7048
" />
<path d="M38.3261 3.7048
L38.6595 4.0858
" />
<path d="M38.6595 4.0858
L38.5166 4.0858
" />
<path d="M38.5166 4.0858
L38.4214 4.1334
" />
<path d="M38.4214 4.1334
L38.3738 4.1810
" />
<path d="M38.3738 4.1810
L38.3261 4.2762
" />
<path d="M38.3261 4.2762
L38.3261 4.5143
" />
<path d="M38.3261 4.5143
L38.3738 4.6096
" />
<path d="M38.3738 4.6096
L38.4214 4.6572
" />
<path d="M38.4214 4.6572
L38.5166 4.7048
" />
<path d="M38.5166 4.7048
L38.8023 4.7048
" />
<path d="M38.8023 4.7048
L38.8976 4.6572
" />
<path d="M38.8976 4.6572
L38.9452 4.6096
" />
</g><text x="30.7928" y="19.3000"
transform="scale(-1 1) translate(-61.585600 0)"
textLength="2.2500" font-size="1.3333" lengthAdjust="spacingAndGlyphs"
text-anchor="middle" opacity="0" stroke-opacity="0">H2</text>
<g class="stroked-text"><desc>H2</desc>
<path d="M31.5547 19.2548
L31.5547 18.2548
" />
<path d="M31.5547 18.7310
L30.9833 18.7310
" />
<path d="M30.9833 19.2548
L30.9833 18.2548
" />
<path d="M30.5547 18.3501
L30.5071 18.3024
" />
<path d="M30.5071 18.3024
L30.4118 18.2548
" />
<path d="M30.4118 18.2548
L30.1738 18.2548
" />
<path d="M30.1738 18.2548
L30.0785 18.3024
" />
<path d="M30.0785 18.3024
L30.0309 18.3501
" />
<path d="M30.0309 18.3501
L29.9833 18.4453
" />
<path d="M29.9833 18.4453
L29.9833 18.5405
" />
<path d="M29.9833 18.5405
L30.0309 18.6834
" />
<path d="M30.0309 18.6834
L30.6023 19.2548
" />
<path d="M30.6023 19.2548
L29.9833 19.2548
" />
</g><text x="19.5428" y="6.4500"
transform="scale(-1 1) translate(-39.085600 0)"
textLength="2.2024" font-size="1.3333" lengthAdjust="spacingAndGlyphs"
text-anchor="middle" opacity="0" stroke-opacity="0">C1</text>
<g class="stroked-text"><desc>C1</desc>
<path d="M19.7095 6.3096
L19.7571 6.3572
" />
<path d="M19.7571 6.3572
L19.8999 6.4048
" />
<path d="M19.8999 6.4048
L19.9952 6.4048
" />
<path d="M19.9952 6.4048
L20.1380 6.3572
" />
<path d="M20.1380 6.3572
L20.2333 6.2620
" />
<path d="M20.2333 6.2620
L20.2809 6.1667
" />
<path d="M20.2809 6.1667
L20.3285 5.9762
" />
<path d="M20.3285 5.9762
L20.3285 5.8334
" />
<path d="M20.3285 5.8334
L20.2809 5.6429
" />
<path d="M20.2809 5.6429
L20.2333 5.5477
" />
<path d="M20.2333 5.5477
L20.1380 5.4524
" />
<path d="M20.1380 5.4524
L19.9952 5.4048
" />
<path d="M19.9952 5.4048
L19.8999 5.4048
" />
<path d="M19.8999 5.4048
L19.7571 5.4524
" />
<path d="M19.7571 5.4524
L19.7095 5.5001
" />
<path d="M18.7571 6.4048
L19.3285 6.4048
" />
<path d="M19.0428 6.4048
L19.0428 5.4048
" />
<path d="M19.0428 5.4048
L19.1380 5.5477
" />
<path d="M19.1380 5.5477
L19.2333 5.6429
" />
<path d="M19.2333 5.6429
L19.3285 5.6905
" />
</g><text x="26.4928" y="63.9600"
transform="scale(-1 1) translate(-52.985600 0)"
textLength="2.3452" font-size="1.3333" lengthAdjust="spacingAndGlyphs"
text-anchor="middle" opacity="0" stroke-opacity="0">M3</text>
<g class="stroked-text"><desc>M3</desc>
<path d="M27.3023 63.9148
L27.3023 62.9148
" />
<path d="M27.3023 62.9148
L26.9690 63.6291
" />
<path d="M26.9690 63.6291
L26.6357 62.9148
" />
<path d="M26.6357 62.9148
L26.6357 63.9148
" />
<path d="M26.2547 62.9148
L25.6357 62.9148
" />
<path d="M25.6357 62.9148
L25.9690 63.2958
" />
<path d="M25.9690 63.2958
L25.8261 63.2958
" />
<path d="M25.8261 63.2958
L25.7309 63.3434
" />
<path d="M25.7309 63.3434
L25.6833 63.3910
" />
<path d="M25.6833 63.3910
L25.6357 63.4862
" />
<path d="M25.6357 63.4862
L25.6357 63.7243
" />
<path d="M25.6357 63.7243
L25.6833 63.8196
" />
<path d="M25.6833 63.8196
L25.7309 63.8672
" />
<path d="M25.7309 63.8672
L25.8261 63.9148
" />
<path d="M25.8261 63.9148
L26.1118 63.9148
" />
<path d="M26.1118 63.9148
L26.2071 63.8672
" />
<path d="M26.2071 63.8672
L26.2547 63.8196
" />
</g><text x="25.7928" y="35.3000"
transform="scale(-1 1) translate(-51.585600 0)"
textLength="2.3452" font-size="1.3333" lengthAdjust="spacingAndGlyphs"
text-anchor="middle" opacity="0" stroke-opacity="0">M6</text>
<g class="stroked-text"><desc>M6</desc>
<path d="M26.6023 35.2548
L26.6023 34.2548
" />
<path d="M26.6023 34.2548
L26.2690 34.9691
" />
<path d="M26.2690 34.9691
L25.9357 34.2548
" />
<path d="M25.9357 34.2548
L25.9357 35.2548
" />
<path d="M25.0309 34.2548
L25.2214 34.2548
" />
<path d="M25.2214 34.2548
L25.3166 34.3024
" />
<path d="M25.3166 34.3024
L25.3642 34.3501
" />
<path d="M25.3642 34.3501
L25.4595 34.4929
" />
<path d="M25.4595 34.4929
L25.5071 34.6834
" />
<path d="M25.5071 34.6834
L25.5071 35.0643
" />
<path d="M25.5071 35.0643
L25.4595 35.1596
" />
<path d="M25.4595 35.1596
L25.4118 35.2072
" />
<path d="M25.4118 35.2072
L25.3166 35.2548
" />
<path d="M25.3166 35.2548
L25.1261 35.2548
" />
<path d="M25.1261 35.2548
L25.0309 35.2072
" />
<path d="M25.0309 35.2072
L24.9833 35.1596
" />
<path d="M24.9833 35.1596
L24.9357 35.0643
" />
<path d="M24.9357 35.0643
L24.9357 34.8262
" />
<path d="M24.9357 34.8262
L24.9833 34.7310
" />
<path d="M24.9833 34.7310
L25.0309 34.6834
" />
<path d="M25.0309 34.6834
L25.1261 34.6358
" />
<path d="M25.1261 34.6358
L25.3166 34.6358
" />
<path d="M25.3166 34.6358
L25.4118 34.6834
" />
<path d="M25.4118 34.6834
L25.4595 34.7310
" />
<path d="M25.4595 34.7310
L25.5071 34.8262
" />
</g><text x="13.1928" y="42.3000"
transform="scale(-1 1) translate(-26.385600 0)"
textLength="2.0595" font-size="1.3333" lengthAdjust="spacingAndGlyphs"
text-anchor="middle" opacity="0" stroke-opacity="0">A1</text>
<g class="stroked-text"><desc>A1</desc>
<path d="M13.9071 41.9691
L13.4309 41.9691
" />
<path d="M14.0023 42.2548
L13.6690 41.2548
" />
<path d="M13.6690 41.2548
L13.3357 42.2548
" />
<path d="M12.4785 42.2548
L13.0499 42.2548
" />
<path d="M12.7642 42.2548
L12.7642 41.2548
" />
<path d="M12.7642 41.2548
L12.8595 41.3977
" />
<path d="M12.8595 41.3977
L12.9547 41.4929
" />
<path d="M12.9547 41.4929
L13.0499 41.5405
" />
</g><text x="13.3728" y="77.9000"
transform="scale(-1 1) translate(-26.745600 0)"
textLength="3.2500" font-size="1.3333" lengthAdjust="spacingAndGlyphs"
text-anchor="middle" opacity="0" stroke-opacity="0">USB</text>
<g class="stroked-text"><desc>USB</desc>
<path d="M14.6347 76.8548
L14.6347 77.6643
" />
<path d="M14.6347 77.6643
L14.5871 77.7596
" />
<path d="M14.5871 77.7596
L14.5395 77.8072
" />
<path d="M14.5395 77.8072
L14.4442 77.8548
" />
<path d="M14.4442 77.8548
L14.2538 77.8548
" />
<path d="M14.2538 77.8548
L14.1585 77.8072
" />
<path d="M14.1585 77.8072
L14.1109 77.7596
" />
<path d="M14.1109 77.7596
L14.0633 77.6643
" />
<path d="M14.0633 77.6643
L14.0633 76.8548
" />
<path d="M13.6347 77.8072
L13.4918 77.8548
" />
<path d="M13.4918 77.8548
L13.2538 77.8548
" />
<path d="M13.2538 77.8548
L13.1585 77.8072
" />
<path d="M13.1585 77.8072
L13.1109 77.7596
" />
<path d="M13.1109 77.7596
L13.0633 77.6643
" />
<path d="M13.0633 77.6643
L13.0633 77.5691
" />
<path d="M13.0633 77.5691
L13.1109 77.4739
" />
<path d="M13.1109 77.4739
L13.1585 77.4262
" />
<path d="M13.1585 77.4262
L13.2538 77.3786
" />
<path d="M13.2538 77.3786
L13.4442 77.3310
" />
<path d="M13.4442 77.3310
L13.5395 77.2834
" />
<path d="M13.5395 77.2834
L13.5871 77.2358
" />
<path d="M13.5871 77.2358
L13.6347 77.1405
" />
<path d="M13.6347 77.1405
L13.6347 77.0453
" />
<path d="M13.6347 77.0453
L13.5871 76.9501
" />
<path d="M13.5871 76.9501
L13.5395 76.9024
" />
<path d="M13.5395 76.9024
L13.4442 76.8548
" />
<path d="M13.4442 76.8548
L13.2061 76.8548
" />
<path d="M13.2061 76.8548
L13.0633 76.9024
" />
<path d="M12.3014 77.3310
L12.1585 77.3786
" />
<path d="M12.1585 77.3786
L12.1109 77.4262
" />
<path d="M12.1109 77.4262
L12.0633 77.5215
" />
<path d="M12.0633 77.5215
L12.0633 77.6643
" />
<path d="M12.0633 77.6643
L12.1109 77.7596
" />
<path d="M12.1109 77.7596
L12.1585 77.8072
" />
<path d="M12.1585 77.8072
L12.2538 77.8548
" />
<path d="M12.2538 77.8548
L12.6347 77.8548
" />
<path d="M12.6347 77.8548
L12.6347 76.8548
" />
<path d="M12.6347 76.8548
L12.3014 76.8548
" />
<path d="M12.3014 76.8548
L12.2061 76.9024
" />
<path d="M12.2061 76.9024
L12.1585 76.9501
" />
<path d="M12.1585 76.9501
L12.1109 77.0453
" />
<path d="M12.1109 77.0453
L12.1109 77.1405
" />
<path d="M12.1109 77.1405
L12.1585 77.2358
" />
<path d="M12.1585 77.2358
L12.2061 77.2834
" />
<path d="M12.2061 77.2834
L12.3014 77.3310
" />
<path d="M12.3014 77.3310
L12.6347 77.3310
" />
</g><text x="12.7928" y="20.0000"
transform="scale(-1 1) translate(-25.585600 0)"
textLength="2.2024" font-size="1.3333" lengthAdjust="spacingAndGlyphs"
text-anchor="middle" opacity="0" stroke-opacity="0">R1</text>
<g class="stroked-text"><desc>R1</desc>
<path d="M12.9595 19.9548
L13.2928 19.4786
" />
<path d="M13.5309 19.9548
L13.5309 18.9548
" />
<path d="M13.5309 18.9548
L13.1499 18.9548
" />
<path d="M13.1499 18.9548
L13.0547 19.0024
" />
<path d="M13.0547 19.0024
L13.0071 19.0501
" />
<path d="M13.0071 19.0501
L12.9595 19.1453
" />
<path d="M12.9595 19.1453
L12.9595 19.2882
" />
<path d="M12.9595 19.2882
L13.0071 19.3834
" />
<path d="M13.0071 19.3834
L13.0547 19.4310
" />
<path d="M13.0547 19.4310
L13.1499 19.4786
" />
<path d="M13.1499 19.4786
L13.5309 19.4786
" />
<path d="M12.0071 19.9548
L12.5785 19.9548
" />
<path d="M12.2928 19.9548
L12.2928 18.9548
" />
<path d="M12.2928 18.9548
L12.3880 19.0977
" />
<path d="M12.3880 19.0977
L12.4833 19.1929
" />
<path d="M12.4833 19.1929
L12.5785 19.2405
" />
</g><text x="26.3928" y="78.1000"
transform="scale(-1 1) translate(-52.785600 0)"
textLength="3.2976" font-size="1.3333" lengthAdjust="spacingAndGlyphs"
text-anchor="middle" opacity="0" stroke-opacity="0">M10</text>
<g class="stroked-text"><desc>M10</desc>
<path d="M27.6785 78.0548
L27.6785 77.0548
" />
<path d="M27.6785 77.0548
L27.3452 77.7691
" />
<path d="M27.3452 77.7691
L27.0118 77.0548
" />
<path d="M27.0118 77.0548
L27.0118 78.0548
" />
<path d="M26.0118 78.0548
L26.5833 78.0548
" />
<path d="M26.2976 78.0548
L26.2976 77.0548
" />
<path d="M26.2976 77.0548
L26.3928 77.1977
" />
<path d="M26.3928 77.1977
L26.4880 77.2929
" />
<path d="M26.4880 77.2929
L26.5833 77.3405
" />
<path d="M25.3928 77.0548
L25.2976 77.0548
" />
<path d="M25.2976 77.0548
L25.2023 77.1024
" />
<path d="M25.2023 77.1024
L25.1547 77.1501
" />
<path d="M25.1547 77.1501
L25.1071 77.2453
" />
<path d="M25.1071 77.2453
L25.0595 77.4358
" />
<path d="M25.0595 77.4358
L25.0595 77.6739
" />
<path d="M25.0595 77.6739
L25.1071 77.8643
" />
<path d="M25.1071 77.8643
L25.1547 77.9596
" />
<path d="M25.1547 77.9596
L25.2023 78.0072
" />
<path d="M25.2023 78.0072
L25.2976 78.0548
" />
<path d="M25.2976 78.0548
L25.3928 78.0548
" />
<path d="M25.3928 78.0548
L25.4880 78.0072
" />
<path d="M25.4880 78.0072
L25.5357 77.9596
" />
<path d="M25.5357 77.9596
L25.5833 77.8643
" />
<path d="M25.5833 77.8643
L25.6309 77.6739
" />
<path d="M25.6309 77.6739
L25.6309 77.4358
" />
<path d="M25.6309 77.4358
L25.5833 77.2453
" />
<path d="M25.5833 77.2453
L25.5357 77.1501
" />
<path d="M25.5357 77.1501
L25.4880 77.1024
" />
<path d="M25.4880 77.1024
L25.3928 77.0548
" />
</g><text x="35.0178" y="19.2750"
transform="scale(-1 1) translate(-70.035600 0)"
textLength="2.2500" font-size="1.3333" lengthAdjust="spacingAndGlyphs"
text-anchor="middle" opacity="0" stroke-opacity="0">H1</text>
<g class="stroked-text"><desc>H1</desc>
<path d="M35.7797 19.2298
L35.7797 18.2298
" />
<path d="M35.7797 18.7060
L35.2083 18.7060
" />
<path d="M35.2083 19.2298
L35.2083 18.2298
" />
<path d="M34.2083 19.2298
L34.7797 19.2298
" />
<path d="M34.4940 19.2298
L34.4940 18.2298
" />
<path d="M34.4940 18.2298
L34.5892 18.3727
" />
<path d="M34.5892 18.3727
L34.6845 18.4679
" />
<path d="M34.6845 18.4679
L34.7797 18.5155
" />
</g><text x="16.3928" y="35.3000"
transform="scale(-1 1) translate(-32.785600 0)"
textLength="2.3452" font-size="1.3333" lengthAdjust="spacingAndGlyphs"
text-anchor="middle" opacity="0" stroke-opacity="0">M8</text>
<g class="stroked-text"><desc>M8</desc>
<path d="M17.2023 35.2548
L17.2023 34.2548
" />
<path d="M17.2023 34.2548
L16.8690 34.9691
" />
<path d="M16.8690 34.9691
L16.5357 34.2548
" />
<path d="M16.5357 34.2548
L16.5357 35.2548
" />
<path d="M15.9166 34.6834
L16.0118 34.6358
" />
<path d="M16.0118 34.6358
L16.0595 34.5882
" />
<path d="M16.0595 34.5882
L16.1071 34.4929
" />
<path d="M16.1071 34.4929
L16.1071 34.4453
" />
<path d="M16.1071 34.4453
L16.0595 34.3501
" />
<path d="M16.0595 34.3501
L16.0118 34.3024
" />
<path d="M16.0118 34.3024
L15.9166 34.2548
" />
<path d="M15.9166 34.2548
L15.7261 34.2548
" />
<path d="M15.7261 34.2548
L15.6309 34.3024
" />
<path d="M15.6309 34.3024
L15.5833 34.3501
" />
<path d="M15.5833 34.3501
L15.5357 34.4453
" />
<path d="M15.5357 34.4453
L15.5357 34.4929
" />
<path d="M15.5357 34.4929
L15.5833 34.5882
" />
<path d="M15.5833 34.5882
L15.6309 34.6358
" />
<path d="M15.6309 34.6358
L15.7261 34.6834
" />
<path d="M15.7261 34.6834
L15.9166 34.6834
" />
<path d="M15.9166 34.6834
L16.0118 34.7310
" />
<path d="M16.0118 34.7310
L16.0595 34.7786
" />
<path d="M16.0595 34.7786
L16.1071 34.8739
" />
<path d="M16.1071 34.8739
L16.1071 35.0643
" />
<path d="M16.1071 35.0643
L16.0595 35.1596
" />
<path d="M16.0595 35.1596
L16.0118 35.2072
" />
<path d="M16.0118 35.2072
L15.9166 35.2548
" />
<path d="M15.9166 35.2548
L15.7261 35.2548
" />
<path d="M15.7261 35.2548
L15.6309 35.2072
" />
<path d="M15.6309 35.2072
L15.5833 35.1596
" />
<path d="M15.5833 35.1596
L15.5357 35.0643
" />
<path d="M15.5357 35.0643
L15.5357 34.8739
" />
<path d="M15.5357 34.8739
L15.5833 34.7786
" />
<path d="M15.5833 34.7786
L15.6309 34.7310
" />
<path d="M15.6309 34.7310
L15.7261 34.6834
" />
</g><text x="11.9928" y="35.3000"
transform="scale(-1 1) translate(-23.985600 0)"
textLength="2.3452" font-size="1.3333" lengthAdjust="spacingAndGlyphs"
text-anchor="middle" opacity="0" stroke-opacity="0">M9</text>
<g class="stroked-text"><desc>M9</desc>
<path d="M12.8023 35.2548
L12.8023 34.2548
" />
<path d="M12.8023 34.2548
L12.4690 34.9691
" />
<path d="M12.4690 34.9691
L12.1357 34.2548
" />
<path d="M12.1357 34.2548
L12.1357 35.2548
" />
<path d="M11.6118 35.2548
L11.4214 35.2548
" />
<path d="M11.4214 35.2548
L11.3261 35.2072
" />
<path d="M11.3261 35.2072
L11.2785 35.1596
" />
<path d="M11.2785 35.1596
L11.1833 35.0167
" />
<path d="M11.1833 35.0167
L11.1357 34.8262
" />
<path d="M11.1357 34.8262
L11.1357 34.4453
" />
<path d="M11.1357 34.4453
L11.1833 34.3501
" />
<path d="M11.1833 34.3501
L11.2309 34.3024
" />
<path d="M11.2309 34.3024
L11.3261 34.2548
" />
<path d="M11.3261 34.2548
L11.5166 34.2548
" />
<path d="M11.5166 34.2548
L11.6118 34.3024
" />
<path d="M11.6118 34.3024
L11.6595 34.3501
" />
<path d="M11.6595 34.3501
L11.7071 34.4453
" />
<path d="M11.7071 34.4453
L11.7071 34.6834
" />
<path d="M11.7071 34.6834
L11.6595 34.7786
" />
<path d="M11.6595 34.7786
L11.6118 34.8262
" />
<path d="M11.6118 34.8262
L11.5166 34.8739
" />
<path d="M11.5166 34.8739
L11.3261 34.8739
" />
<path d="M11.3261 34.8739
L11.2309 34.8262
" />
<path d="M11.2309 34.8262
L11.1833 34.7786
" />
<path d="M11.1833 34.7786
L11.1357 34.6834
" />
</g><text x="30.4185" y="63.9600"
transform="scale(-1 1) translate(-60.837066 0)"
textLength="2.3452" font-size="1.3333" lengthAdjust="spacingAndGlyphs"
text-anchor="middle" opacity="0" stroke-opacity="0">M4</text>
<g class="stroked-text"><desc>M4</desc>
<path d="M31.2281 63.9148
L31.2281 62.9148
" />
<path d="M31.2281 62.9148
L30.8947 63.6291
" />
<path d="M30.8947 63.6291
L30.5614 62.9148
" />
<path d="M30.5614 62.9148
L30.5614 63.9148
" />
<path d="M29.6566 63.2482
L29.6566 63.9148
" />
<path d="M29.8947 62.8672
L30.1328 63.5815
" />
<path d="M30.1328 63.5815
L29.5138 63.5815
" />
</g><text x="24.9928" y="48.0500"
transform="scale(-1 1) translate(-49.985600 0)"
textLength="3.1548" font-size="1.3333" lengthAdjust="spacingAndGlyphs"
text-anchor="middle" opacity="0" stroke-opacity="0">RX1</text>
<g class="stroked-text"><desc>RX1</desc>
<path d="M25.6357 48.0048
L25.9690 47.5286
" />
<path d="M26.2071 48.0048
L26.2071 47.0048
" />
<path d="M26.2071 47.0048
L25.8261 47.0048
" />
<path d="M25.8261 47.0048
L25.7309 47.0524
" />
<path d="M25.7309 47.0524
L25.6833 47.1001
" />
<path d="M25.6833 47.1001
L25.6357 47.1953
" />
<path d="M25.6357 47.1953
L25.6357 47.3382
" />
<path d="M25.6357 47.3382
L25.6833 47.4334
" />
<path d="M25.6833 47.4334
L25.7309 47.4810
" />
<path d="M25.7309 47.4810
L25.8261 47.5286
" />
<path d="M25.8261 47.5286
L26.2071 47.5286
" />
<path d="M25.3023 47.0048
L24.6357 48.0048
" />
<path d="M24.6357 47.0048
L25.3023 48.0048
" />
<path d="M23.7309 48.0048
L24.3023 48.0048
" />
<path d="M24.0166 48.0048
L24.0166 47.0048
" />
<path d="M24.0166 47.0048
L24.1118 47.1477
" />
<path d="M24.1118 47.1477
L24.2071 47.2429
" />
<path d="M24.2071 47.2429
L24.3023 47.2905
" />
</g><text x="30.4928" y="6.5000"
transform="scale(-1 1) translate(-60.985600 0)"
textLength="2.2024" font-size="1.3333" lengthAdjust="spacingAndGlyphs"
text-anchor="middle" opacity="0" stroke-opacity="0">C2</text>
<g class="stroked-text"><desc>C2</desc>
<path d="M30.6595 6.3596
L30.7071 6.4072
" />
<path d="M30.7071 6.4072
L30.8499 6.4548
" />
<path d="M30.8499 6.4548
L30.9452 6.4548
" />
<path d="M30.9452 6.4548
L31.0880 6.4072
" />
<path d="M31.0880 6.4072
L31.1833 6.3120
" />
<path d="M31.1833 6.3120
L31.2309 6.2167
" />
<path d="M31.2309 6.2167
L31.2785 6.0262
" />
<path d="M31.2785 6.0262
L31.2785 5.8834
" />
<path d="M31.2785 5.8834
L31.2309 5.6929
" />
<path d="M31.2309 5.6929
L31.1833 5.5977
" />
<path d="M31.1833 5.5977
L31.0880 5.5024
" />
<path d="M31.0880 5.5024
L30.9452 5.4548
" />
<path d="M30.9452 5.4548
L30.8499 5.4548
" />
<path d="M30.8499 5.4548
L30.7071 5.5024
" />
<path d="M30.7071 5.5024
L30.6595 5.5501
" />
<path d="M30.2785 5.5501
L30.2309 5.5024
" />
<path d="M30.2309 5.5024
L30.1357 5.4548
" />
<path d="M30.1357 5.4548
L29.8976 5.4548
" />
<path d="M29.8976 5.4548
L29.8023 5.5024
" />
<path d="M29.8023 5.5024
L29.7547 5.5501
" />
<path d="M29.7547 5.5501
L29.7071 5.6453
" />
<path d="M29.7071 5.6453
L29.7071 5.7405
" />
<path d="M29.7071 5.7405
L29.7547 5.8834
" />
<path d="M29.7547 5.8834
L30.3261 6.4548
" />
<path d="M30.3261 6.4548
L29.7071 6.4548
" />
</g><text x="25.9928" y="19.5000"
transform="scale(-1 1) translate(-51.985600 0)"
textLength="2.2024" font-size="1.3333" lengthAdjust="spacingAndGlyphs"
text-anchor="middle" opacity="0" stroke-opacity="0">D1</text>
<g class="stroked-text"><desc>D1</desc>
<path d="M26.7309 19.4548
L26.7309 18.4548
" />
<path d="M26.7309 18.4548
L26.4928 18.4548
" />
<path d="M26.4928 18.4548
L26.3499 18.5024
" />
<path d="M26.3499 18.5024
L26.2547 18.5977
" />
<path d="M26.2547 18.5977
L26.2071 18.6929
" />
<path d="M26.2071 18.6929
L26.1595 18.8834
" />
<path d="M26.1595 18.8834
L26.1595 19.0262
" />
<path d="M26.1595 19.0262
L26.2071 19.2167
" />
<path d="M26.2071 19.2167
L26.2547 19.3120
" />
<path d="M26.2547 19.3120
L26.3499 19.4072
" />
<path d="M26.3499 19.4072
L26.4928 19.4548
" />
<path d="M26.4928 19.4548
L26.7309 19.4548
" />
<path d="M25.2071 19.4548
L25.7785 19.4548
" />
<path d="M25.4928 19.4548
L25.4928 18.4548
" />
<path d="M25.4928 18.4548
L25.5880 18.5977
" />
<path d="M25.5880 18.5977
L25.6833 18.6929
" />
<path d="M25.6833 18.6929
L25.7785 18.7405
" />
</g><text x="34.3443" y="63.9600"
transform="scale(-1 1) translate(-68.688534 0)"
textLength="2.3452" font-size="1.3333" lengthAdjust="spacingAndGlyphs"
text-anchor="middle" opacity="0" stroke-opacity="0">M5</text>
<g class="stroked-text"><desc>M5</desc>
<path d="M35.1538 63.9148
L35.1538 62.9148
" />
<path d="M35.1538 62.9148
L34.8205 63.6291
" />
<path d="M34.8205 63.6291
L34.4871 62.9148
" />
<path d="M34.4871 62.9148
L34.4871 63.9148
" />
<path d="M33.5347 62.9148
L34.0109 62.9148
" />
<path d="M34.0109 62.9148
L34.0586 63.3910
" />
<path d="M34.0586 63.3910
L34.0109 63.3434
" />
<path d="M34.0109 63.3434
L33.9157 63.2958
" />
<path d="M33.9157 63.2958
L33.6776 63.2958
" />
<path d="M33.6776 63.2958
L33.5824 63.3434
" />
<path d="M33.5824 63.3434
L33.5347 63.3910
" />
<path d="M33.5347 63.3910
L33.4871 63.4862
" />
<path d="M33.4871 63.4862
L33.4871 63.7243
" />
<path d="M33.4871 63.7243
L33.5347 63.8196
" />
<path d="M33.5347 63.8196
L33.5824 63.8672
" />
<path d="M33.5824 63.8672
L33.6776 63.9148
" />
<path d="M33.6776 63.9148
L33.9157 63.9148
" />
<path d="M33.9157 63.9148
L34.0109 63.8672
" />
<path d="M34.0109 63.8672
L34.0586 63.8196
" />
</g></g>
<g style="fill:none; 
stroke:#000000; stroke-width:0.1200; stroke-opacity:1; 
stroke-linecap:round; stroke-linejoin:round;">
<path d="M31.7985 45.4800
L31.7985 40.2900
" />
<path d="M29.0385 40.2900
L31.7985 40.2900
" />
<path d="M29.0385 45.4800
L31.7985 45.4800
" />
<path d="M29.0385 45.4800
L29.0385 40.2900
" />
<path d="M29.0385 46.7500
L29.0385 48.1300
" />
<path d="M29.0385 48.1300
L30.4185 48.1300
" />
<path d="M22.6228 30.9800
L22.6228 25.7900
" />
<path d="M19.8628 25.7900
L22.6228 25.7900
" />
<path d="M19.8628 30.9800
L22.6228 30.9800
" />
<path d="M19.8628 30.9800
L19.8628 25.7900
" />
<path d="M19.8628 32.2500
L19.8628 33.6300
" />
<path d="M19.8628 33.6300
L21.2428 33.6300
" />
<path d="M8.9728 33.2100
L2.5128 33.2100
" />
<path d="M8.9728 33.2500
L2.5128 33.2500
" />
<path d="M8.9718 33.1700
L2.5138 33.1700
" />
<path d="M8.9708 33.1300
L2.5148 33.1300
" />
<path d="M8.9688 33.0900
L2.5168 33.0900
" />
<path d="M8.9668 33.0500
L2.5188 33.0500
" />
<path d="M8.9638 33.0100
L6.7828 33.0100
" />
<path d="M8.9608 32.9700
L6.7828 32.9700
" />
<path d="M8.9568 32.9300
L6.7828 32.9300
" />
<path d="M8.9528 32.8900
L6.7828 32.8900
" />
<path d="M8.9478 32.8500
L6.7828 32.8500
" />
<path d="M8.9428 32.8100
L6.7828 32.8100
" />
<path d="M8.9378 32.7700
L6.7828 32.7700
" />
<path d="M8.9308 32.7300
L6.7828 32.7300
" />
<path d="M8.9248 32.6900
L6.7828 32.6900
" />
<path d="M8.9168 32.6500
L6.7828 32.6500
" />
<path d="M8.9098 32.6100
L6.7828 32.6100
" />
<path d="M8.9018 32.5700
L6.7828 32.5700
" />
<path d="M8.8928 32.5300
L6.7828 32.5300
" />
<path d="M8.8828 32.4900
L6.7828 32.4900
" />
<path d="M8.8738 32.4500
L6.7828 32.4500
" />
<path d="M8.8628 32.4100
L6.7828 32.4100
" />
<path d="M8.8518 32.3700
L6.7828 32.3700
" />
<path d="M8.8408 32.3300
L6.7828 32.3300
" />
<path d="M8.8288 32.2900
L6.7828 32.2900
" />
<path d="M8.8158 32.2500
L6.7828 32.2500
" />
<path d="M8.8028 32.2100
L6.7828 32.2100
" />
<path d="M8.7898 32.1700
L6.7828 32.1700
" />
<path d="M8.7748 32.1300
L6.7828 32.1300
" />
<path d="M8.7598 32.0900
L6.7828 32.0900
" />
<path d="M8.7448 32.0500
L6.7828 32.0500
" />
<path d="M8.7288 32.0100
L6.7828 32.0100
" />
<path d="M8.7118 31.9700
L6.7828 31.9700
" />
<path d="M8.6948 31.9300
L6.7828 31.9300
" />
<path d="M8.6768 31.8900
L6.7828 31.8900
" />
<path d="M8.6578 31.8500
L6.7828 31.8500
" />
<path d="M8.6388 31.8100
L6.7828 31.8100
" />
<path d="M8.6188 31.7700
L6.7828 31.7700
" />
<path d="M8.5978 31.7300
L6.7828 31.7300
" />
<path d="M8.5768 31.6900
L6.7828 31.6900
" />
<path d="M8.5548 31.6500
L6.7828 31.6500
" />
<path d="M8.5318 31.6100
L6.7828 31.6100
" />
<path d="M8.5078 31.5700
L6.7828 31.5700
" />
<path d="M8.4838 31.5300
L6.7828 31.5300
" />
<path d="M8.4588 31.4900
L6.7828 31.4900
" />
<path d="M8.4328 31.4500
L6.7828 31.4500
" />
<path d="M8.4058 31.4100
L6.7828 31.4100
" />
<path d="M8.3788 31.3700
L6.7828 31.3700
" />
<path d="M8.3498 31.3300
L6.7828 31.3300
" />
<path d="M8.3198 31.2900
L6.7828 31.2900
" />
<path d="M8.2898 31.2500
L6.7828 31.2500
" />
<path d="M8.2588 31.2100
L6.7828 31.2100
" />
<path d="M8.2258 31.1700
L6.7828 31.1700
" />
<path d="M8.1928 31.1300
L6.7828 31.1300
" />
<path d="M8.1578 31.0900
L6.7828 31.0900
" />
<path d="M8.1218 31.0500
L6.7828 31.0500
" />
<path d="M8.0848 31.0100
L6.7828 31.0100
" />
<path d="M8.0468 30.9700
L6.7828 30.9700
" />
<path d="M8.0068 30.9300
L3.4788 30.9300
" />
<path d="M7.9658 30.8900
L3.5198 30.8900
" />
<path d="M7.9238 30.8500
L3.5618 30.8500
" />
<path d="M7.8968 36.4352
L7.2668 36.4352
" />
<path d="M7.8798 30.8100
L3.6058 30.8100
" />
<path d="M7.8338 30.7700
L3.6518 30.7700
" />
<path d="M7.7868 30.7300
L3.6988 30.7300
" />
<path d="M7.7378 30.6900
L3.7478 30.6900
" />
<path d="M7.6858 30.6500
L3.7998 30.6500
" />
<path d="M7.6328 30.6100
L3.8528 30.6100
" />
<path d="M7.5818 36.7502
L7.5818 36.1202
" />
<path d="M7.5768 30.5700
L3.9088 30.5700
" />
<path d="M7.5178 30.5300
L3.9678 30.5300
" />
<path d="M7.4568 30.4900
L4.0288 30.4900
" />
<path d="M7.3918 30.4500
L4.0938 30.4500
" />
<path d="M7.3238 30.4100
L4.1618 30.4100
" />
<path d="M7.2518 30.3700
L4.2338 30.3700
" />
<path d="M7.1748 30.3300
L4.3108 30.3300
" />
<path d="M7.0928 30.2900
L4.3928 30.2900
" />
<path d="M7.0038 30.2500
L4.4818 30.2500
" />
<path d="M6.9078 30.2100
L4.5778 30.2100
" />
<path d="M6.8008 30.1700
L4.6848 30.1700
" />
<path d="M6.6818 30.1300
L4.8038 30.1300
" />
<path d="M6.5438 30.0900
L4.9418 30.0900
" />
<path d="M6.3758 30.0500
L5.1098 30.0500
" />
<path d="M6.1448 30.0100
L5.3408 30.0100
" />
<path d="M4.7028 30.9700
L3.4388 30.9700
" />
<path d="M4.7028 31.0100
L3.4008 31.0100
" />
<path d="M4.7028 31.0500
L3.3638 31.0500
" />
<path d="M4.7028 31.0900
L3.3278 31.0900
" />
<path d="M4.7028 31.1300
L3.2928 31.1300
" />
<path d="M4.7028 31.1700
L3.2598 31.1700
" />
<path d="M4.7028 31.2100
L3.2268 31.2100
" />
<path d="M4.7028 31.2500
L3.1958 31.2500
" />
<path d="M4.7028 31.2900
L3.1658 31.2900
" />
<path d="M4.7028 31.3300
L3.1358 31.3300
" />
<path d="M4.7028 31.3700
L3.1068 31.3700
" />
<path d="M4.7028 31.4100
L3.0798 31.4100
" />
<path d="M4.7028 31.4500
L3.0528 31.4500
" />
<path d="M4.7028 31.4900
L3.0268 31.4900
" />
<path d="M4.7028 31.5300
L3.0018 31.5300
" />
<path d="M4.7028 31.5700
L2.9778 31.5700
" />
<path d="M4.7028 31.6100
L2.9538 31.6100
" />
<path d="M4.7028 31.6500
L2.9308 31.6500
" />
<path d="M4.7028 31.6900
L2.9088 31.6900
" />
<path d="M4.7028 31.7300
L2.8878 31.7300
" />
<path d="M4.7028 31.7700
L2.8668 31.7700
" />
<path d="M4.7028 31.8100
L2.8468 31.8100
" />
<path d="M4.7028 31.8500
L2.8278 31.8500
" />
<path d="M4.7028 31.8900
L2.8088 31.8900
" />
<path d="M4.7028 31.9300
L2.7908 31.9300
" />
<path d="M4.7028 31.9700
L2.7738 31.9700
" />
<path d="M4.7028 32.0100
L2.7568 32.0100
" />
<path d="M4.7028 32.0500
L2.7408 32.0500
" />
<path d="M4.7028 32.0900
L2.7258 32.0900
" />
<path d="M4.7028 32.1300
L2.7108 32.1300
" />
<path d="M4.7028 32.1700
L2.6958 32.1700
" />
<path d="M4.7028 32.2100
L2.6828 32.2100
" />
<path d="M4.7028 32.2500
L2.6698 32.2500
" />
<path d="M4.7028 32.2900
L2.6568 32.2900
" />
<path d="M4.7028 32.3300
L2.6448 32.3300
" />
<path d="M4.7028 32.3700
L2.6338 32.3700
" />
<path d="M4.7028 32.4100
L2.6228 32.4100
" />
<path d="M4.7028 32.4500
L2.6118 32.4500
" />
<path d="M4.7028 32.4900
L2.6028 32.4900
" />
<path d="M4.7028 32.5300
L2.5928 32.5300
" />
<path d="M4.7028 32.5700
L2.5838 32.5700
" />
<path d="M4.7028 32.6100
L2.5758 32.6100
" />
<path d="M4.7028 32.6500
L2.5688 32.6500
" />
<path d="M4.7028 32.6900
L2.5608 32.6900
" />
<path d="M4.7028 32.7300
L2.5548 32.7300
" />
<path d="M4.7028 32.7700
L2.5478 32.7700
" />
<path d="M4.7028 32.8100
L2.5428 32.8100
" />
<path d="M4.7028 32.8500
L2.5378 32.8500
" />
<path d="M4.7028 32.8900
L2.5328 32.8900
" />
<path d="M4.7028 32.9300
L2.5288 32.9300
" />
<path d="M4.7028 32.9700
L2.5248 32.9700
" />
<path d="M4.7028 33.0100
L2.5218 33.0100
" />
<circle cx="5.7428" cy="33.2500" r="3.2700" /> 
<path d="M31.7985 73.8100
L31.7985 68.6200
" />
<path d="M29.0385 68.6200
L31.7985 68.6200
" />
<path d="M29.0385 73.8100
L31.7985 73.8100
" />
<path d="M29.0385 73.8100
L29.0385 68.6200
" />
<path d="M29.0385 75.0800
L29.0385 76.4600
" />
<path d="M29.0385 76.4600
L30.4185 76.4600
" />
<path d="M35.7243 45.4800
L35.7243 40.2900
" />
<path d="M32.9643 40.2900
L35.7243 40.2900
" />
<path d="M32.9643 45.4800
L35.7243 45.4800
" />
<path d="M32.9643 45.4800
L32.9643 40.2900
" />
<path d="M32.9643 46.7500
L32.9643 48.1300
" />
<path d="M32.9643 48.1300
L34.3443 48.1300
" />
<path d="M35.7243 73.8100
L35.7243 68.6200
" />
<path d="M32.9643 68.6200
L35.7243 68.6200
" />
<path d="M32.9643 73.8100
L35.7243 73.8100
" />
<path d="M32.9643 73.8100
L32.9643 68.6200
" />
<path d="M32.9643 75.0800
L32.9643 76.4600
" />
<path d="M32.9643 76.4600
L34.3443 76.4600
" />
</g>
<g style="fill:none; 
stroke:#000000; stroke-width:0.2500; stroke-opacity:1; 
stroke-linecap:round; stroke-linejoin:round;">
<path d="M42.4928 5.5000
L34.8928 5.5000
" />
<path d="M42.4928 15.5000
L42.4928 5.5000
" />
<path d="M42.2928 6.6900
L40.7728 6.6900
" />
<path d="M42.2928 11.6900
L40.7728 11.6900
" />
<path d="M40.7728 6.6900
L40.7728 9.3600
" />
<path d="M40.7728 9.3600
L42.2928 9.3600
" />
<path d="M40.7728 11.6900
L40.7728 14.3600
" />
<path d="M40.7728 14.3600
L42.2928 14.3600
" />
<path d="M34.8928 5.5000
L34.8928 15.5000
" />
<path d="M34.8928 15.5000
L42.4928 15.5000
" />
</g>
<g style="fill:none; 
stroke:#000000; stroke-width:0.0600; stroke-opacity:1; 
stroke-linecap:round; stroke-linejoin:round;">
<circle cx="42.4928" cy="5.5000" r="0.0300" /> 
<path style="fill:#000000; fill-opacity:1.0000; stroke:none;fill-rule:evenodd;"
d="M 41.0248,7.9600
41.6598,8.5950
41.6598,8.2140
42.5488,8.2140
42.5488,7.7060
41.6598,7.7060
41.6598,7.3250
Z" /> 
<path style="fill:#000000; fill-opacity:1.0000; stroke:none;fill-rule:evenodd;"
d="M 41.0248,12.9600
41.6598,13.5950
41.6598,13.2140
42.5488,13.2140
42.5488,12.7060
41.6598,12.7060
41.6598,12.3250
Z" /> 
</g>
<g style="fill:none; 
stroke:#000000; stroke-width:0.1200; stroke-opacity:1; 
stroke-linecap:round; stroke-linejoin:round;">
<path d="M18.8728 8.9100
L12.4128 8.9100
" />
<path d="M18.8728 8.9500
L12.4128 8.9500
" />
<path d="M18.8718 8.8700
L12.4138 8.8700
" />
<path d="M18.8708 8.8300
L12.4148 8.8300
" />
<path d="M18.8688 8.7900
L12.4168 8.7900
" />
<path d="M18.8668 8.7500
L12.4188 8.7500
" />
<path d="M18.8638 8.7100
L16.6828 8.7100
" />
<path d="M18.8608 8.6700
L16.6828 8.6700
" />
<path d="M18.8568 8.6300
L16.6828 8.6300
" />
<path d="M18.8528 8.5900
L16.6828 8.5900
" />
<path d="M18.8478 8.5500
L16.6828 8.5500
" />
<path d="M18.8428 8.5100
L16.6828 8.5100
" />
<path d="M18.8378 8.4700
L16.6828 8.4700
" />
<path d="M18.8308 8.4300
L16.6828 8.4300
" />
<path d="M18.8248 8.3900
L16.6828 8.3900
" />
<path d="M18.8168 8.3500
L16.6828 8.3500
" />
<path d="M18.8098 8.3100
L16.6828 8.3100
" />
<path d="M18.8018 8.2700
L16.6828 8.2700
" />
<path d="M18.7928 8.2300
L16.6828 8.2300
" />
<path d="M18.7828 8.1900
L16.6828 8.1900
" />
<path d="M18.7738 8.1500
L16.6828 8.1500
" />
<path d="M18.7628 8.1100
L16.6828 8.1100
" />
<path d="M18.7518 8.0700
L16.6828 8.0700
" />
<path d="M18.7408 8.0300
L16.6828 8.0300
" />
<path d="M18.7288 7.9900
L16.6828 7.9900
" />
<path d="M18.7158 7.9500
L16.6828 7.9500
" />
<path d="M18.7028 7.9100
L16.6828 7.9100
" />
<path d="M18.6898 7.8700
L16.6828 7.8700
" />
<path d="M18.6748 7.8300
L16.6828 7.8300
" />
<path d="M18.6598 7.7900
L16.6828 7.7900
" />
<path d="M18.6448 7.7500
L16.6828 7.7500
" />
<path d="M18.6288 7.7100
L16.6828 7.7100
" />
<path d="M18.6118 7.6700
L16.6828 7.6700
" />
<path d="M18.5948 7.6300
L16.6828 7.6300
" />
<path d="M18.5768 7.5900
L16.6828 7.5900
" />
<path d="M18.5578 7.5500
L16.6828 7.5500
" />
<path d="M18.5388 7.5100
L16.6828 7.5100
" />
<path d="M18.5188 7.4700
L16.6828 7.4700
" />
<path d="M18.4978 7.4300
L16.6828 7.4300
" />
<path d="M18.4768 7.3900
L16.6828 7.3900
" />
<path d="M18.4548 7.3500
L16.6828 7.3500
" />
<path d="M18.4318 7.3100
L16.6828 7.3100
" />
<path d="M18.4078 7.2700
L16.6828 7.2700
" />
<path d="M18.3838 7.2300
L16.6828 7.2300
" />
<path d="M18.3588 7.1900
L16.6828 7.1900
" />
<path d="M18.3328 7.1500
L16.6828 7.1500
" />
<path d="M18.3058 7.1100
L16.6828 7.1100
" />
<path d="M18.2788 7.0700
L16.6828 7.0700
" />
<path d="M18.2498 7.0300
L16.6828 7.0300
" />
<path d="M18.2198 6.9900
L16.6828 6.9900
" />
<path d="M18.1898 6.9500
L16.6828 6.9500
" />
<path d="M18.1588 6.9100
L16.6828 6.9100
" />
<path d="M18.1258 6.8700
L16.6828 6.8700
" />
<path d="M18.0928 6.8300
L16.6828 6.8300
" />
<path d="M18.0578 6.7900
L16.6828 6.7900
" />
<path d="M18.0218 6.7500
L16.6828 6.7500
" />
<path d="M17.9848 6.7100
L16.6828 6.7100
" />
<path d="M17.9468 6.6700
L16.6828 6.6700
" />
<path d="M17.9068 6.6300
L13.3788 6.6300
" />
<path d="M17.8658 6.5900
L13.4198 6.5900
" />
<path d="M17.8238 6.5500
L13.4618 6.5500
" />
<path d="M17.7968 12.1352
L17.1668 12.1352
" />
<path d="M17.7798 6.5100
L13.5058 6.5100
" />
<path d="M17.7338 6.4700
L13.5518 6.4700
" />
<path d="M17.6868 6.4300
L13.5988 6.4300
" />
<path d="M17.6378 6.3900
L13.6478 6.3900
" />
<path d="M17.5858 6.3500
L13.6998 6.3500
" />
<path d="M17.5328 6.3100
L13.7528 6.3100
" />
<path d="M17.4818 12.4502
L17.4818 11.8202
" />
<path d="M17.4768 6.2700
L13.8088 6.2700
" />
<path d="M17.4178 6.2300
L13.8678 6.2300
" />
<path d="M17.3568 6.1900
L13.9288 6.1900
" />
<path d="M17.2918 6.1500
L13.9938 6.1500
" />
<path d="M17.2238 6.1100
L14.0618 6.1100
" />
<path d="M17.1518 6.0700
L14.1338 6.0700
" />
<path d="M17.0748 6.0300
L14.2108 6.0300
" />
<path d="M16.9928 5.9900
L14.2928 5.9900
" />
<path d="M16.9038 5.9500
L14.3818 5.9500
" />
<path d="M16.8078 5.9100
L14.4778 5.9100
" />
<path d="M16.7008 5.8700
L14.5848 5.8700
" />
<path d="M16.5818 5.8300
L14.7038 5.8300
" />
<path d="M16.4438 5.7900
L14.8418 5.7900
" />
<path d="M16.2758 5.7500
L15.0098 5.7500
" />
<path d="M16.0448 5.7100
L15.2408 5.7100
" />
<path d="M14.6028 6.6700
L13.3388 6.6700
" />
<path d="M14.6028 6.7100
L13.3008 6.7100
" />
<path d="M14.6028 6.7500
L13.2638 6.7500
" />
<path d="M14.6028 6.7900
L13.2278 6.7900
" />
<path d="M14.6028 6.8300
L13.1928 6.8300
" />
<path d="M14.6028 6.8700
L13.1598 6.8700
" />
<path d="M14.6028 6.9100
L13.1268 6.9100
" />
<path d="M14.6028 6.9500
L13.0958 6.9500
" />
<path d="M14.6028 6.9900
L13.0658 6.9900
" />
<path d="M14.6028 7.0300
L13.0358 7.0300
" />
<path d="M14.6028 7.0700
L13.0068 7.0700
" />
<path d="M14.6028 7.1100
L12.9798 7.1100
" />
<path d="M14.6028 7.1500
L12.9528 7.1500
" />
<path d="M14.6028 7.1900
L12.9268 7.1900
" />
<path d="M14.6028 7.2300
L12.9018 7.2300
" />
<path d="M14.6028 7.2700
L12.8778 7.2700
" />
<path d="M14.6028 7.3100
L12.8538 7.3100
" />
<path d="M14.6028 7.3500
L12.8308 7.3500
" />
<path d="M14.6028 7.3900
L12.8088 7.3900
" />
<path d="M14.6028 7.4300
L12.7878 7.4300
" />
<path d="M14.6028 7.4700
L12.7668 7.4700
" />
<path d="M14.6028 7.5100
L12.7468 7.5100
" />
<path d="M14.6028 7.5500
L12.7278 7.5500
" />
<path d="M14.6028 7.5900
L12.7088 7.5900
" />
<path d="M14.6028 7.6300
L12.6908 7.6300
" />
<path d="M14.6028 7.6700
L12.6738 7.6700
" />
<path d="M14.6028 7.7100
L12.6568 7.7100
" />
<path d="M14.6028 7.7500
L12.6408 7.7500
" />
<path d="M14.6028 7.7900
L12.6258 7.7900
" />
<path d="M14.6028 7.8300
L12.6108 7.8300
" />
<path d="M14.6028 7.8700
L12.5958 7.8700
" />
<path d="M14.6028 7.9100
L12.5828 7.9100
" />
<path d="M14.6028 7.9500
L12.5698 7.9500
" />
<path d="M14.6028 7.9900
L12.5568 7.9900
" />
<path d="M14.6028 8.0300
L12.5448 8.0300
" />
<path d="M14.6028 8.0700
L12.5338 8.0700
" />
<path d="M14.6028 8.1100
L12.5228 8.1100
" />
<path d="M14.6028 8.1500
L12.5118 8.1500
" />
<path d="M14.6028 8.1900
L12.5028 8.1900
" />
<path d="M14.6028 8.2300
L12.4928 8.2300
" />
<path d="M14.6028 8.2700
L12.4838 8.2700
" />
<path d="M14.6028 8.3100
L12.4758 8.3100
" />
<path d="M14.6028 8.3500
L12.4688 8.3500
" />
<path d="M14.6028 8.3900
L12.4608 8.3900
" />
<path d="M14.6028 8.4300
L12.4548 8.4300
" />
<path d="M14.6028 8.4700
L12.4478 8.4700
" />
<path d="M14.6028 8.5100
L12.4428 8.5100
" />
<path d="M14.6028 8.5500
L12.4378 8.5500
" />
<path d="M14.6028 8.5900
L12.4328 8.5900
" />
<path d="M14.6028 8.6300
L12.4288 8.6300
" />
<path d="M14.6028 8.6700
L12.4248 8.6700
" />
<path d="M14.6028 8.7100
L12.4218 8.7100
" />
<circle cx="15.6428" cy="8.9500" r="3.2700" /> 
<path d="M27.8728 59.8100
L27.8728 54.6200
" />
<path d="M25.1128 54.6200
L27.8728 54.6200
" />
<path d="M25.1128 59.8100
L27.8728 59.8100
" />
<path d="M25.1128 59.8100
L25.1128 54.6200
" />
<path d="M25.1128 61.0800
L25.1128 62.4600
" />
<path d="M25.1128 62.4600
L26.4928 62.4600
" />
<path d="M27.1228 30.9800
L27.1228 25.7900
" />
<path d="M24.3628 25.7900
L27.1228 25.7900
" />
<path d="M24.3628 30.9800
L27.1228 30.9800
" />
<path d="M24.3628 30.9800
L24.3628 25.7900
" />
<path d="M24.3628 32.2500
L24.3628 33.6300
" />
<path d="M24.3628 33.6300
L25.7428 33.6300
" />
<path d="M22.3928 37.9000
L22.3928 40.5700
" />
<path d="M22.3928 43.1100
L22.3928 81.3400
" />
<path d="M22.3928 81.3400
L17.3128 81.3400
" />
<path d="M19.7228 40.5700
L22.3928 40.5700
" />
<path d="M19.7228 43.1100
L22.3928 43.1100
" />
<path d="M19.7228 43.1100
L19.7228 40.5700
" />
<path d="M19.7228 43.1100
L19.7228 78.6700
" />
<path d="M19.7228 78.6700
L22.3928 78.6700
" />
<path d="M17.3128 73.4600
L9.4328 73.4600
" />
<path d="M17.3128 83.8800
L17.3128 73.4600
" />
<path d="M9.4328 73.4600
L9.4328 83.8800
" />
<path d="M9.4328 83.8800
L17.3128 83.8800
" />
<path d="M7.0228 40.5700
L7.0228 78.6700
" />
<path d="M7.0228 40.5700
L4.3528 40.5700
" />
<path d="M7.0228 78.6700
L4.3528 78.6700
" />
<path d="M4.3528 37.9000
L22.3928 37.9000
" />
<path d="M4.3528 81.3400
L9.4328 81.3400
" />
<path d="M4.3528 81.3400
L4.3528 37.9000
" />
<path d="M15.4928 18.3800
L15.4928 18.3100
" />
<circle cx="15.4928" cy="19.7500" r="1.3700" /> 
<path d="M27.8728 73.8100
L27.8728 68.6200
" />
<path d="M25.1128 68.6200
L27.8728 68.6200
" />
<path d="M25.1128 73.8100
L27.8728 73.8100
" />
<path d="M25.1128 73.8100
L25.1128 68.6200
" />
<path d="M25.1128 75.0800
L25.1128 76.4600
" />
<path d="M25.1128 76.4600
L26.4928 76.4600
" />
<path d="M17.8728 30.9800
L17.8728 25.7900
" />
<path d="M15.1128 25.7900
L17.8728 25.7900
" />
<path d="M15.1128 30.9800
L17.8728 30.9800
" />
<path d="M15.1128 30.9800
L15.1128 25.7900
" />
<path d="M15.1128 32.2500
L15.1128 33.6300
" />
<path d="M15.1128 33.6300
L16.4928 33.6300
" />
<path d="M13.3728 30.9800
L13.3728 25.7900
" />
<path d="M10.6128 25.7900
L13.3728 25.7900
" />
<path d="M10.6128 30.9800
L13.3728 30.9800
" />
<path d="M10.6128 30.9800
L10.6128 25.7900
" />
<path d="M10.6128 32.2500
L10.6128 33.6300
" />
<path d="M10.6128 33.6300
L11.9928 33.6300
" />
<path d="M31.7985 59.8100
L31.7985 54.6200
" />
<path d="M29.0385 54.6200
L31.7985 54.6200
" />
<path d="M29.0385 59.8100
L31.7985 59.8100
" />
<path d="M29.0385 59.8100
L29.0385 54.6200
" />
<path d="M29.0385 61.0800
L29.0385 62.4600
" />
<path d="M29.0385 62.4600
L30.4185 62.4600
" />
<path d="M29.6228 8.9100
L23.1628 8.9100
" />
<path d="M29.6228 8.9500
L23.1628 8.9500
" />
<path d="M29.6218 8.8700
L23.1638 8.8700
" />
<path d="M29.6208 8.8300
L23.1648 8.8300
" />
<path d="M29.6188 8.7900
L23.1668 8.7900
" />
<path d="M29.6168 8.7500
L23.1688 8.7500
" />
<path d="M29.6138 8.7100
L27.4328 8.7100
" />
<path d="M29.6108 8.6700
L27.4328 8.6700
" />
<path d="M29.6068 8.6300
L27.4328 8.6300
" />
<path d="M29.6028 8.5900
L27.4328 8.5900
" />
<path d="M29.5978 8.5500
L27.4328 8.5500
" />
<path d="M29.5928 8.5100
L27.4328 8.5100
" />
<path d="M29.5878 8.4700
L27.4328 8.4700
" />
<path d="M29.5808 8.4300
L27.4328 8.4300
" />
<path d="M29.5748 8.3900
L27.4328 8.3900
" />
<path d="M29.5668 8.3500
L27.4328 8.3500
" />
<path d="M29.5598 8.3100
L27.4328 8.3100
" />
<path d="M29.5518 8.2700
L27.4328 8.2700
" />
<path d="M29.5428 8.2300
L27.4328 8.2300
" />
<path d="M29.5328 8.1900
L27.4328 8.1900
" />
<path d="M29.5238 8.1500
L27.4328 8.1500
" />
<path d="M29.5128 8.1100
L27.4328 8.1100
" />
<path d="M29.5018 8.0700
L27.4328 8.0700
" />
<path d="M29.4908 8.0300
L27.4328 8.0300
" />
<path d="M29.4788 7.9900
L27.4328 7.9900
" />
<path d="M29.4658 7.9500
L27.4328 7.9500
" />
<path d="M29.4528 7.9100
L27.4328 7.9100
" />
<path d="M29.4398 7.8700
L27.4328 7.8700
" />
<path d="M29.4248 7.8300
L27.4328 7.8300
" />
<path d="M29.4098 7.7900
L27.4328 7.7900
" />
<path d="M29.3948 7.7500
L27.4328 7.7500
" />
<path d="M29.3788 7.7100
L27.4328 7.7100
" />
<path d="M29.3618 7.6700
L27.4328 7.6700
" />
<path d="M29.3448 7.6300
L27.4328 7.6300
" />
<path d="M29.3268 7.5900
L27.4328 7.5900
" />
<path d="M29.3078 7.5500
L27.4328 7.5500
" />
<path d="M29.2888 7.5100
L27.4328 7.5100
" />
<path d="M29.2688 7.4700
L27.4328 7.4700
" />
<path d="M29.2478 7.4300
L27.4328 7.4300
" />
<path d="M29.2268 7.3900
L27.4328 7.3900
" />
<path d="M29.2048 7.3500
L27.4328 7.3500
" />
<path d="M29.1818 7.3100
L27.4328 7.3100
" />
<path d="M29.1578 7.2700
L27.4328 7.2700
" />
<path d="M29.1338 7.2300
L27.4328 7.2300
" />
<path d="M29.1088 7.1900
L27.4328 7.1900
" />
<path d="M29.0828 7.1500
L27.4328 7.1500
" />
<path d="M29.0558 7.1100
L27.4328 7.1100
" />
<path d="M29.0288 7.0700
L27.4328 7.0700
" />
<path d="M28.9998 7.0300
L27.4328 7.0300
" />
<path d="M28.9698 6.9900
L27.4328 6.9900
" />
<path d="M28.9398 6.9500
L27.4328 6.9500
" />
<path d="M28.9088 6.9100
L27.4328 6.9100
" />
<path d="M28.8758 6.8700
L27.4328 6.8700
" />
<path d="M28.8428 6.8300
L27.4328 6.8300
" />
<path d="M28.8078 6.7900
L27.4328 6.7900
" />
<path d="M28.7718 6.7500
L27.4328 6.7500
" />
<path d="M28.7348 6.7100
L27.4328 6.7100
" />
<path d="M28.6968 6.6700
L27.4328 6.6700
" />
<path d="M28.6568 6.6300
L24.1288 6.6300
" />
<path d="M28.6158 6.5900
L24.1698 6.5900
" />
<path d="M28.5738 6.5500
L24.2118 6.5500
" />
<path d="M28.5468 12.1352
L27.9168 12.1352
" />
<path d="M28.5298 6.5100
L24.2558 6.5100
" />
<path d="M28.4838 6.4700
L24.3018 6.4700
" />
<path d="M28.4368 6.4300
L24.3488 6.4300
" />
<path d="M28.3878 6.3900
L24.3978 6.3900
" />
<path d="M28.3358 6.3500
L24.4498 6.3500
" />
<path d="M28.2828 6.3100
L24.5028 6.3100
" />
<path d="M28.2318 12.4502
L28.2318 11.8202
" />
<path d="M28.2268 6.2700
L24.5588 6.2700
" />
<path d="M28.1678 6.2300
L24.6178 6.2300
" />
<path d="M28.1068 6.1900
L24.6788 6.1900
" />
<path d="M28.0418 6.1500
L24.7438 6.1500
" />
<path d="M27.9738 6.1100
L24.8118 6.1100
" />
<path d="M27.9018 6.0700
L24.8838 6.0700
" />
<path d="M27.8248 6.0300
L24.9608 6.0300
" />
<path d="M27.7428 5.9900
L25.0428 5.9900
" />
<path d="M27.6538 5.9500
L25.1318 5.9500
" />
<path d="M27.5578 5.9100
L25.2278 5.9100
" />
<path d="M27.4508 5.8700
L25.3348 5.8700
" />
<path d="M27.3318 5.8300
L25.4538 5.8300
" />
<path d="M27.1938 5.7900
L25.5918 5.7900
" />
<path d="M27.0258 5.7500
L25.7598 5.7500
" />
<path d="M26.7948 5.7100
L25.9908 5.7100
" />
<path d="M25.3528 6.6700
L24.0888 6.6700
" />
<path d="M25.3528 6.7100
L24.0508 6.7100
" />
<path d="M25.3528 6.7500
L24.0138 6.7500
" />
<path d="M25.3528 6.7900
L23.9778 6.7900
" />
<path d="M25.3528 6.8300
L23.9428 6.8300
" />
<path d="M25.3528 6.8700
L23.9098 6.8700
" />
<path d="M25.3528 6.9100
L23.8768 6.9100
" />
<path d="M25.3528 6.9500
L23.8458 6.9500
" />
<path d="M25.3528 6.9900
L23.8158 6.9900
" />
<path d="M25.3528 7.0300
L23.7858 7.0300
" />
<path d="M25.3528 7.0700
L23.7568 7.0700
" />
<path d="M25.3528 7.1100
L23.7298 7.1100
" />
<path d="M25.3528 7.1500
L23.7028 7.1500
" />
<path d="M25.3528 7.1900
L23.6768 7.1900
" />
<path d="M25.3528 7.2300
L23.6518 7.2300
" />
<path d="M25.3528 7.2700
L23.6278 7.2700
" />
<path d="M25.3528 7.3100
L23.6038 7.3100
" />
<path d="M25.3528 7.3500
L23.5808 7.3500
" />
<path d="M25.3528 7.3900
L23.5588 7.3900
" />
<path d="M25.3528 7.4300
L23.5378 7.4300
" />
<path d="M25.3528 7.4700
L23.5168 7.4700
" />
<path d="M25.3528 7.5100
L23.4968 7.5100
" />
<path d="M25.3528 7.5500
L23.4778 7.5500
" />
<path d="M25.3528 7.5900
L23.4588 7.5900
" />
<path d="M25.3528 7.6300
L23.4408 7.6300
" />
<path d="M25.3528 7.6700
L23.4238 7.6700
" />
<path d="M25.3528 7.7100
L23.4068 7.7100
" />
<path d="M25.3528 7.7500
L23.3908 7.7500
" />
<path d="M25.3528 7.7900
L23.3758 7.7900
" />
<path d="M25.3528 7.8300
L23.3608 7.8300
" />
<path d="M25.3528 7.8700
L23.3458 7.8700
" />
<path d="M25.3528 7.9100
L23.3328 7.9100
" />
<path d="M25.3528 7.9500
L23.3198 7.9500
" />
<path d="M25.3528 7.9900
L23.3068 7.9900
" />
<path d="M25.3528 8.0300
L23.2948 8.0300
" />
<path d="M25.3528 8.0700
L23.2838 8.0700
" />
<path d="M25.3528 8.1100
L23.2728 8.1100
" />
<path d="M25.3528 8.1500
L23.2618 8.1500
" />
<path d="M25.3528 8.1900
L23.2528 8.1900
" />
<path d="M25.3528 8.2300
L23.2428 8.2300
" />
<path d="M25.3528 8.2700
L23.2338 8.2700
" />
<path d="M25.3528 8.3100
L23.2258 8.3100
" />
<path d="M25.3528 8.3500
L23.2188 8.3500
" />
<path d="M25.3528 8.3900
L23.2108 8.3900
" />
<path d="M25.3528 8.4300
L23.2048 8.4300
" />
<path d="M25.3528 8.4700
L23.1978 8.4700
" />
<path d="M25.3528 8.5100
L23.1928 8.5100
" />
<path d="M25.3528 8.5500
L23.1878 8.5500
" />
<path d="M25.3528 8.5900
L23.1828 8.5900
" />
<path d="M25.3528 8.6300
L23.1788 8.6300
" />
<path d="M25.3528 8.6700
L23.1748 8.6700
" />
<path d="M25.3528 8.7100
L23.1718 8.7100
" />
<circle cx="26.3928" cy="8.9500" r="3.2700" /> 
<path d="M24.3228 17.2050
L24.3228 20.2950
" />
<path d="M24.3228 17.2052 A2.9900 2.9900 0.0 0 0 18.7728 18.7500" />
<path d="M18.7728 18.7500 A2.9900 2.9900 0.0 0 0 24.3228 20.2948" />
<circle cx="21.7628" cy="18.7500" r="2.5000" /> 
<path d="M35.7243 59.8100
L35.7243 54.6200
" />
<path d="M32.9643 54.6200
L35.7243 54.6200
" />
<path d="M32.9643 59.8100
L35.7243 59.8100
" />
<path d="M32.9643 59.8100
L32.9643 54.6200
" />
<path d="M32.9643 61.0800
L32.9643 62.4600
" />
<path d="M32.9643 62.4600
L34.3443 62.4600
" />
<path style="fill:none; 
stroke:#000000; stroke-width:0.1000; stroke-opacity:1; 
stroke-linecap:round; stroke-linejoin:round;fill:none"
d="M 43.9928,0.0000
-0.0072,0.0000
-0.0072,85.0000
43.9928,85.0000
Z" /> 
</g> 
</svg>
