<?xml version="1.0" standalone="no"?>
 <!DOCTYPE svg PUBLIC "-//W3C//DTD SVG 1.1//EN" 
 "http://www.w3.org/Graphics/SVG/1.1/DTD/svg11.dtd"> 
<svg
  xmlns:svg="http://www.w3.org/2000/svg"
  xmlns="http://www.w3.org/2000/svg"
  xmlns:xlink="http://www.w3.org/1999/xlink"
  xmlns:inkscape="http://www.inkscape.org/namespaces/inkscape"
  version="1.1"
  width="43.9928mm" height="84.9884mm" viewBox="0.0000 0.0000 43.9928 84.9884">
<title>SVG Image created as nano_IPBL_2026-F_Silkscreen.svg date 2026-07-24T12:09:58 </title>
  <desc>Image generated by PCBNEW </desc>
<g style="fill:#000000; fill-opacity:1.0000;stroke:#000000; stroke-opacity:1.0000;
stroke-linecap:round; stroke-linejoin:round;"
 transform="translate(0 0) scale(1 1)">
</g>
<g style="fill:none; 
stroke:#000000; stroke-width:0.1500; stroke-opacity:1; 
stroke-linecap:round; stroke-linejoin:round;">
<g transform="rotate(270.000000 42.4928 11.0000)">
<text x="42.4928" y="11.5000"
transform="scale(-1 1) translate(-84.985600 0)"
textLength="3.1071" font-size="1.3333" lengthAdjust="spacingAndGlyphs"
text-anchor="middle" opacity="0" stroke-opacity="0">VCC</text>
</g>
<g class="stroked-text"><desc>VCC</desc>
<path d="M41.9476 9.6667
L42.9476 10.0000
" />
<path d="M42.9476 10.0000
L41.9476 10.3333
" />
<path d="M42.8524 11.2381
L42.9000 11.1905
" />
<path d="M42.9000 11.1905
L42.9476 11.0476
" />
<path d="M42.9476 11.0476
L42.9476 10.9524
" />
<path d="M42.9476 10.9524
L42.9000 10.8095
" />
<path d="M42.9000 10.8095
L42.8048 10.7143
" />
<path d="M42.8048 10.7143
L42.7095 10.6667
" />
<path d="M42.7095 10.6667
L42.5190 10.6190
" />
<path d="M42.5190 10.6190
L42.3762 10.6190
" />
<path d="M42.3762 10.6190
L42.1857 10.6667
" />
<path d="M42.1857 10.6667
L42.0905 10.7143
" />
<path d="M42.0905 10.7143
L41.9952 10.8095
" />
<path d="M41.9952 10.8095
L41.9476 10.9524
" />
<path d="M41.9476 10.9524
L41.9476 11.0476
" />
<path d="M41.9476 11.0476
L41.9952 11.1905
" />
<path d="M41.9952 11.1905
L42.0429 11.2381
" />
<path d="M42.8524 12.2381
L42.9000 12.1905
" />
<path d="M42.9000 12.1905
L42.9476 12.0476
" />
<path d="M42.9476 12.0476
L42.9476 11.9524
" />
<path d="M42.9476 11.9524
L42.9000 11.8095
" />
<path d="M42.9000 11.8095
L42.8048 11.7143
" />
<path d="M42.8048 11.7143
L42.7095 11.6667
" />
<path d="M42.7095 11.6667
L42.5190 11.6190
" />
<path d="M42.5190 11.6190
L42.3762 11.6190
" />
<path d="M42.3762 11.6190
L42.1857 11.6667
" />
<path d="M42.1857 11.6667
L42.0905 11.7143
" />
<path d="M42.0905 11.7143
L41.9952 11.8095
" />
<path d="M41.9952 11.8095
L41.9476 11.9524
" />
<path d="M41.9476 11.9524
L41.9476 12.0476
" />
<path d="M41.9476 12.0476
L41.9952 12.1905
" />
<path d="M41.9952 12.1905
L42.0429 12.2381
" />
</g><g transform="rotate(270.000000 42.4928 5.5000)">
<text x="42.4928" y="6.0000"
transform="scale(-1 1) translate(-84.985600 0)"
textLength="3.2976" font-size="1.3333" lengthAdjust="spacingAndGlyphs"
text-anchor="middle" opacity="0" stroke-opacity="0">GND</text>
</g>
<g class="stroked-text"><desc>GND</desc>
<path d="M41.9952 4.7381
L41.9476 4.6429
" />
<path d="M41.9476 4.6429
L41.9476 4.5000
" />
<path d="M41.9476 4.5000
L41.9952 4.3571
" />
<path d="M41.9952 4.3571
L42.0905 4.2619
" />
<path d="M42.0905 4.2619
L42.1857 4.2143
" />
<path d="M42.1857 4.2143
L42.3762 4.1667
" />
<path d="M42.3762 4.1667
L42.5190 4.1667
" />
<path d="M42.5190 4.1667
L42.7095 4.2143
" />
<path d="M42.7095 4.2143
L42.8048 4.2619
" />
<path d="M42.8048 4.2619
L42.9000 4.3571
" />
<path d="M42.9000 4.3571
L42.9476 4.5000
" />
<path d="M42.9476 4.5000
L42.9476 4.5952
" />
<path d="M42.9476 4.5952
L42.9000 4.7381
" />
<path d="M42.9000 4.7381
L42.8524 4.7857
" />
<path d="M42.8524 4.7857
L42.5190 4.7857
" />
<path d="M42.5190 4.7857
L42.5190 4.5952
" />
<path d="M42.9476 5.2143
L41.9476 5.2143
" />
<path d="M41.9476 5.2143
L42.9476 5.7857
" />
<path d="M42.9476 5.7857
L41.9476 5.7857
" />
<path d="M42.9476 6.2619
L41.9476 6.2619
" />
<path d="M41.9476 6.2619
L41.9476 6.5000
" />
<path d="M41.9476 6.5000
L41.9952 6.6429
" />
<path d="M41.9952 6.6429
L42.0905 6.7381
" />
<path d="M42.0905 6.7381
L42.1857 6.7857
" />
<path d="M42.1857 6.7857
L42.3762 6.8333
" />
<path d="M42.3762 6.8333
L42.5190 6.8333
" />
<path d="M42.5190 6.8333
L42.7095 6.7857
" />
<path d="M42.7095 6.7857
L42.8048 6.7381
" />
<path d="M42.8048 6.7381
L42.9000 6.6429
" />
<path d="M42.9000 6.6429
L42.9476 6.5000
" />
<path d="M42.9476 6.5000
L42.9476 6.2619
" />
</g><text x="29.4928" y="22.5000"
transform="scale(-1 1) translate(-58.985600 0)"
textLength="3.1071" font-size="1.3333" lengthAdjust="spacingAndGlyphs"
text-anchor="middle" opacity="0" stroke-opacity="0">VCC</text>
<g class="stroked-text"><desc>VCC</desc>
<path d="M30.8261 21.4548
L30.4928 22.4548
" />
<path d="M30.4928 22.4548
L30.1595 21.4548
" />
<path d="M29.2547 22.3596
L29.3023 22.4072
" />
<path d="M29.3023 22.4072
L29.4452 22.4548
" />
<path d="M29.4452 22.4548
L29.5404 22.4548
" />
<path d="M29.5404 22.4548
L29.6833 22.4072
" />
<path d="M29.6833 22.4072
L29.7785 22.3120
" />
<path d="M29.7785 22.3120
L29.8261 22.2167
" />
<path d="M29.8261 22.2167
L29.8738 22.0262
" />
<path d="M29.8738 22.0262
L29.8738 21.8834
" />
<path d="M29.8738 21.8834
L29.8261 21.6929
" />
<path d="M29.8261 21.6929
L29.7785 21.5977
" />
<path d="M29.7785 21.5977
L29.6833 21.5024
" />
<path d="M29.6833 21.5024
L29.5404 21.4548
" />
<path d="M29.5404 21.4548
L29.4452 21.4548
" />
<path d="M29.4452 21.4548
L29.3023 21.5024
" />
<path d="M29.3023 21.5024
L29.2547 21.5501
" />
<path d="M28.2547 22.3596
L28.3023 22.4072
" />
<path d="M28.3023 22.4072
L28.4452 22.4548
" />
<path d="M28.4452 22.4548
L28.5404 22.4548
" />
<path d="M28.5404 22.4548
L28.6833 22.4072
" />
<path d="M28.6833 22.4072
L28.7785 22.3120
" />
<path d="M28.7785 22.3120
L28.8261 22.2167
" />
<path d="M28.8261 22.2167
L28.8738 22.0262
" />
<path d="M28.8738 22.0262
L28.8738 21.8834
" />
<path d="M28.8738 21.8834
L28.8261 21.6929
" />
<path d="M28.8261 21.6929
L28.7785 21.5977
" />
<path d="M28.7785 21.5977
L28.6833 21.5024
" />
<path d="M28.6833 21.5024
L28.5404 21.4548
" />
<path d="M28.5404 21.4548
L28.4452 21.4548
" />
<path d="M28.4452 21.4548
L28.3023 21.5024
" />
<path d="M28.3023 21.5024
L28.2547 21.5501
" />
</g><text x="33.2428" y="22.5000"
transform="scale(-1 1) translate(-66.485600 0)"
textLength="3.2976" font-size="1.3333" lengthAdjust="spacingAndGlyphs"
text-anchor="middle" opacity="0" stroke-opacity="0">GND</text>
<g class="stroked-text"><desc>GND</desc>
<path d="M34.0047 21.5024
L34.0999 21.4548
" />
<path d="M34.0999 21.4548
L34.2428 21.4548
" />
<path d="M34.2428 21.4548
L34.3857 21.5024
" />
<path d="M34.3857 21.5024
L34.4809 21.5977
" />
<path d="M34.4809 21.5977
L34.5285 21.6929
" />
<path d="M34.5285 21.6929
L34.5761 21.8834
" />
<path d="M34.5761 21.8834
L34.5761 22.0262
" />
<path d="M34.5761 22.0262
L34.5285 22.2167
" />
<path d="M34.5285 22.2167
L34.4809 22.3120
" />
<path d="M34.4809 22.3120
L34.3857 22.4072
" />
<path d="M34.3857 22.4072
L34.2428 22.4548
" />
<path d="M34.2428 22.4548
L34.1476 22.4548
" />
<path d="M34.1476 22.4548
L34.0047 22.4072
" />
<path d="M34.0047 22.4072
L33.9571 22.3596
" />
<path d="M33.9571 22.3596
L33.9571 22.0262
" />
<path d="M33.9571 22.0262
L34.1476 22.0262
" />
<path d="M33.5285 22.4548
L33.5285 21.4548
" />
<path d="M33.5285 21.4548
L32.9571 22.4548
" />
<path d="M32.9571 22.4548
L32.9571 21.4548
" />
<path d="M32.4809 22.4548
L32.4809 21.4548
" />
<path d="M32.4809 21.4548
L32.2428 21.4548
" />
<path d="M32.2428 21.4548
L32.0999 21.5024
" />
<path d="M32.0999 21.5024
L32.0047 21.5977
" />
<path d="M32.0047 21.5977
L31.9571 21.6929
" />
<path d="M31.9571 21.6929
L31.9095 21.8834
" />
<path d="M31.9095 21.8834
L31.9095 22.0262
" />
<path d="M31.9095 22.0262
L31.9571 22.2167
" />
<path d="M31.9571 22.2167
L32.0047 22.3120
" />
<path d="M32.0047 22.3120
L32.0999 22.4072
" />
<path d="M32.0999 22.4072
L32.2428 22.4548
" />
<path d="M32.2428 22.4548
L32.4809 22.4548
" />
</g><g transform="rotate(270.000000 5.4928 26.0000)">
<text x="5.4928" y="26.0000"
transform="scale(-1 1) translate(-10.985600 0)"
textLength="23.7929" font-size="2.0000" lengthAdjust="spacingAndGlyphs"
text-anchor="end" opacity="0" stroke-opacity="0">USJ-R . STUST . OIT</text>
</g>
<g class="stroked-text"><desc>USJ-R . STUST . OIT</desc>
<path d="M3.8014 2.6156
L5.0157 2.6156
" />
<path d="M5.0157 2.6156
L5.1586 2.6870
" />
<path d="M5.1586 2.6870
L5.2300 2.7585
" />
<path d="M5.2300 2.7585
L5.3014 2.9013
" />
<path d="M5.3014 2.9013
L5.3014 3.1870
" />
<path d="M5.3014 3.1870
L5.2300 3.3299
" />
<path d="M5.2300 3.3299
L5.1586 3.4013
" />
<path d="M5.1586 3.4013
L5.0157 3.4727
" />
<path d="M5.0157 3.4727
L3.8014 3.4727
" />
<path d="M5.2300 4.1156
L5.3014 4.3299
" />
<path d="M5.3014 4.3299
L5.3014 4.6870
" />
<path d="M5.3014 4.6870
L5.2300 4.8299
" />
<path d="M5.2300 4.8299
L5.1586 4.9013
" />
<path d="M5.1586 4.9013
L5.0157 4.9727
" />
<path d="M5.0157 4.9727
L4.8729 4.9727
" />
<path d="M4.8729 4.9727
L4.7300 4.9013
" />
<path d="M4.7300 4.9013
L4.6586 4.8299
" />
<path d="M4.6586 4.8299
L4.5871 4.6870
" />
<path d="M4.5871 4.6870
L4.5157 4.4013
" />
<path d="M4.5157 4.4013
L4.4443 4.2585
" />
<path d="M4.4443 4.2585
L4.3729 4.1870
" />
<path d="M4.3729 4.1870
L4.2300 4.1156
" />
<path d="M4.2300 4.1156
L4.0871 4.1156
" />
<path d="M4.0871 4.1156
L3.9443 4.1870
" />
<path d="M3.9443 4.1870
L3.8729 4.2585
" />
<path d="M3.8729 4.2585
L3.8014 4.4013
" />
<path d="M3.8014 4.4013
L3.8014 4.7585
" />
<path d="M3.8014 4.7585
L3.8729 4.9727
" />
<path d="M3.8014 6.0442
L4.8729 6.0442
" />
<path d="M4.8729 6.0442
L5.0871 5.9727
" />
<path d="M5.0871 5.9727
L5.2300 5.8299
" />
<path d="M5.2300 5.8299
L5.3014 5.6156
" />
<path d="M5.3014 5.6156
L5.3014 5.4727
" />
<path d="M4.7300 6.7585
L4.7300 7.9013
" />
<path d="M5.3014 9.4727
L4.5871 8.9727
" />
<path d="M5.3014 8.6156
L3.8014 8.6156
" />
<path d="M3.8014 8.6156
L3.8014 9.1870
" />
<path d="M3.8014 9.1870
L3.8729 9.3299
" />
<path d="M3.8729 9.3299
L3.9443 9.4013
" />
<path d="M3.9443 9.4013
L4.0871 9.4727
" />
<path d="M4.0871 9.4727
L4.3014 9.4727
" />
<path d="M4.3014 9.4727
L4.4443 9.4013
" />
<path d="M4.4443 9.4013
L4.5157 9.3299
" />
<path d="M4.5157 9.3299
L4.5871 9.1870
" />
<path d="M4.5871 9.1870
L4.5871 8.6156
" />
<path d="M5.1586 11.2585
L5.2300 11.3299
" />
<path d="M5.2300 11.3299
L5.3014 11.2585
" />
<path d="M5.3014 11.2585
L5.2300 11.1870
" />
<path d="M5.2300 11.1870
L5.1586 11.2585
" />
<path d="M5.1586 11.2585
L5.3014 11.2585
" />
<path d="M5.2300 13.0442
L5.3014 13.2585
" />
<path d="M5.3014 13.2585
L5.3014 13.6156
" />
<path d="M5.3014 13.6156
L5.2300 13.7585
" />
<path d="M5.2300 13.7585
L5.1586 13.8299
" />
<path d="M5.1586 13.8299
L5.0157 13.9013
" />
<path d="M5.0157 13.9013
L4.8729 13.9013
" />
<path d="M4.8729 13.9013
L4.7300 13.8299
" />
<path d="M4.7300 13.8299
L4.6586 13.7585
" />
<path d="M4.6586 13.7585
L4.5871 13.6156
" />
<path d="M4.5871 13.6156
L4.5157 13.3299
" />
<path d="M4.5157 13.3299
L4.4443 13.1870
" />
<path d="M4.4443 13.1870
L4.3729 13.1156
" />
<path d="M4.3729 13.1156
L4.2300 13.0442
" />
<path d="M4.2300 13.0442
L4.0871 13.0442
" />
<path d="M4.0871 13.0442
L3.9443 13.1156
" />
<path d="M3.9443 13.1156
L3.8729 13.1870
" />
<path d="M3.8729 13.1870
L3.8014 13.3299
" />
<path d="M3.8014 13.3299
L3.8014 13.6870
" />
<path d="M3.8014 13.6870
L3.8729 13.9013
" />
<path d="M3.8014 14.3299
L3.8014 15.1870
" />
<path d="M5.3014 14.7585
L3.8014 14.7585
" />
<path d="M3.8014 15.6870
L5.0157 15.6870
" />
<path d="M5.0157 15.6870
L5.1586 15.7585
" />
<path d="M5.1586 15.7585
L5.2300 15.8299
" />
<path d="M5.2300 15.8299
L5.3014 15.9727
" />
<path d="M5.3014 15.9727
L5.3014 16.2585
" />
<path d="M5.3014 16.2585
L5.2300 16.4013
" />
<path d="M5.2300 16.4013
L5.1586 16.4727
" />
<path d="M5.1586 16.4727
L5.0157 16.5442
" />
<path d="M5.0157 16.5442
L3.8014 16.5442
" />
<path d="M5.2300 17.1870
L5.3014 17.4013
" />
<path d="M5.3014 17.4013
L5.3014 17.7585
" />
<path d="M5.3014 17.7585
L5.2300 17.9013
" />
<path d="M5.2300 17.9013
L5.1586 17.9727
" />
<path d="M5.1586 17.9727
L5.0157 18.0442
" />
<path d="M5.0157 18.0442
L4.8729 18.0442
" />
<path d="M4.8729 18.0442
L4.7300 17.9727
" />
<path d="M4.7300 17.9727
L4.6586 17.9013
" />
<path d="M4.6586 17.9013
L4.5871 17.7585
" />
<path d="M4.5871 17.7585
L4.5157 17.4727
" />
<path d="M4.5157 17.4727
L4.4443 17.3299
" />
<path d="M4.4443 17.3299
L4.3729 17.2585
" />
<path d="M4.3729 17.2585
L4.2300 17.1870
" />
<path d="M4.2300 17.1870
L4.0871 17.1870
" />
<path d="M4.0871 17.1870
L3.9443 17.2585
" />
<path d="M3.9443 17.2585
L3.8729 17.3299
" />
<path d="M3.8729 17.3299
L3.8014 17.4727
" />
<path d="M3.8014 17.4727
L3.8014 17.8299
" />
<path d="M3.8014 17.8299
L3.8729 18.0442
" />
<path d="M3.8014 18.4727
L3.8014 19.3299
" />
<path d="M5.3014 18.9013
L3.8014 18.9013
" />
<path d="M5.1586 20.9727
L5.2300 21.0442
" />
<path d="M5.2300 21.0442
L5.3014 20.9727
" />
<path d="M5.3014 20.9727
L5.2300 20.9013
" />
<path d="M5.2300 20.9013
L5.1586 20.9727
" />
<path d="M5.1586 20.9727
L5.3014 20.9727
" />
<path d="M3.8014 23.1156
L3.8014 23.4013
" />
<path d="M3.8014 23.4013
L3.8729 23.5442
" />
<path d="M3.8729 23.5442
L4.0157 23.6870
" />
<path d="M4.0157 23.6870
L4.3014 23.7585
" />
<path d="M4.3014 23.7585
L4.8014 23.7585
" />
<path d="M4.8014 23.7585
L5.0871 23.6870
" />
<path d="M5.0871 23.6870
L5.2300 23.5442
" />
<path d="M5.2300 23.5442
L5.3014 23.4013
" />
<path d="M5.3014 23.4013
L5.3014 23.1156
" />
<path d="M5.3014 23.1156
L5.2300 22.9727
" />
<path d="M5.2300 22.9727
L5.0871 22.8299
" />
<path d="M5.0871 22.8299
L4.8014 22.7585
" />
<path d="M4.8014 22.7585
L4.3014 22.7585
" />
<path d="M4.3014 22.7585
L4.0157 22.8299
" />
<path d="M4.0157 22.8299
L3.8729 22.9727
" />
<path d="M3.8729 22.9727
L3.8014 23.1156
" />
<path d="M5.3014 24.4013
L3.8014 24.4013
" />
<path d="M3.8014 24.9013
L3.8014 25.7585
" />
<path d="M5.3014 25.3299
L3.8014 25.3299
" />
</g><g transform="rotate(90.000000 39.4928 44.5000)">
<text x="39.4928" y="44.5000"
transform="scale(-1 1) translate(-78.985600 0)"
textLength="49.6500" font-size="2.0000" lengthAdjust="spacingAndGlyphs"
text-anchor="middle" opacity="0" stroke-opacity="0">International Project-Based Learning 2026</text>
</g>
<g class="stroked-text"><desc>International Project-Based Learning 2026</desc>
<path d="M39.6842 68.8929
L41.1842 68.8929
" />
<path d="M40.6842 68.1786
L39.6842 68.1786
" />
<path d="M40.5413 68.1786
L40.6127 68.1071
" />
<path d="M40.6127 68.1071
L40.6842 67.9643
" />
<path d="M40.6842 67.9643
L40.6842 67.7500
" />
<path d="M40.6842 67.7500
L40.6127 67.6071
" />
<path d="M40.6127 67.6071
L40.4699 67.5357
" />
<path d="M40.4699 67.5357
L39.6842 67.5357
" />
<path d="M40.6842 67.0357
L40.6842 66.4643
" />
<path d="M41.1842 66.8214
L39.8985 66.8214
" />
<path d="M39.8985 66.8214
L39.7556 66.7500
" />
<path d="M39.7556 66.7500
L39.6842 66.6071
" />
<path d="M39.6842 66.6071
L39.6842 66.4643
" />
<path d="M39.7556 65.3929
L39.6842 65.5357
" />
<path d="M39.6842 65.5357
L39.6842 65.8214
" />
<path d="M39.6842 65.8214
L39.7556 65.9643
" />
<path d="M39.7556 65.9643
L39.8985 66.0357
" />
<path d="M39.8985 66.0357
L40.4699 66.0357
" />
<path d="M40.4699 66.0357
L40.6127 65.9643
" />
<path d="M40.6127 65.9643
L40.6842 65.8214
" />
<path d="M40.6842 65.8214
L40.6842 65.5357
" />
<path d="M40.6842 65.5357
L40.6127 65.3929
" />
<path d="M40.6127 65.3929
L40.4699 65.3214
" />
<path d="M40.4699 65.3214
L40.3270 65.3214
" />
<path d="M40.3270 65.3214
L40.1842 66.0357
" />
<path d="M39.6842 64.6786
L40.6842 64.6786
" />
<path d="M40.3985 64.6786
L40.5413 64.6071
" />
<path d="M40.5413 64.6071
L40.6127 64.5357
" />
<path d="M40.6127 64.5357
L40.6842 64.3929
" />
<path d="M40.6842 64.3929
L40.6842 64.2500
" />
<path d="M40.6842 63.7500
L39.6842 63.7500
" />
<path d="M40.5413 63.7500
L40.6127 63.6786
" />
<path d="M40.6127 63.6786
L40.6842 63.5357
" />
<path d="M40.6842 63.5357
L40.6842 63.3214
" />
<path d="M40.6842 63.3214
L40.6127 63.1786
" />
<path d="M40.6127 63.1786
L40.4699 63.1071
" />
<path d="M40.4699 63.1071
L39.6842 63.1071
" />
<path d="M39.6842 61.7500
L40.4699 61.7500
" />
<path d="M40.4699 61.7500
L40.6127 61.8214
" />
<path d="M40.6127 61.8214
L40.6842 61.9643
" />
<path d="M40.6842 61.9643
L40.6842 62.2500
" />
<path d="M40.6842 62.2500
L40.6127 62.3929
" />
<path d="M39.7556 61.7500
L39.6842 61.8929
" />
<path d="M39.6842 61.8929
L39.6842 62.2500
" />
<path d="M39.6842 62.2500
L39.7556 62.3929
" />
<path d="M39.7556 62.3929
L39.8985 62.4643
" />
<path d="M39.8985 62.4643
L40.0413 62.4643
" />
<path d="M40.0413 62.4643
L40.1842 62.3929
" />
<path d="M40.1842 62.3929
L40.2556 62.2500
" />
<path d="M40.2556 62.2500
L40.2556 61.8929
" />
<path d="M40.2556 61.8929
L40.3270 61.7500
" />
<path d="M40.6842 61.2500
L40.6842 60.6786
" />
<path d="M41.1842 61.0357
L39.8985 61.0357
" />
<path d="M39.8985 61.0357
L39.7556 60.9643
" />
<path d="M39.7556 60.9643
L39.6842 60.8214
" />
<path d="M39.6842 60.8214
L39.6842 60.6786
" />
<path d="M39.6842 60.1786
L40.6842 60.1786
" />
<path d="M41.1842 60.1786
L41.1127 60.2500
" />
<path d="M41.1127 60.2500
L41.0413 60.1786
" />
<path d="M41.0413 60.1786
L41.1127 60.1071
" />
<path d="M41.1127 60.1071
L41.1842 60.1786
" />
<path d="M41.1842 60.1786
L41.0413 60.1786
" />
<path d="M39.6842 59.2500
L39.7556 59.3929
" />
<path d="M39.7556 59.3929
L39.8270 59.4643
" />
<path d="M39.8270 59.4643
L39.9699 59.5357
" />
<path d="M39.9699 59.5357
L40.3985 59.5357
" />
<path d="M40.3985 59.5357
L40.5413 59.4643
" />
<path d="M40.5413 59.4643
L40.6127 59.3929
" />
<path d="M40.6127 59.3929
L40.6842 59.2500
" />
<path d="M40.6842 59.2500
L40.6842 59.0357
" />
<path d="M40.6842 59.0357
L40.6127 58.8929
" />
<path d="M40.6127 58.8929
L40.5413 58.8214
" />
<path d="M40.5413 58.8214
L40.3985 58.7500
" />
<path d="M40.3985 58.7500
L39.9699 58.7500
" />
<path d="M39.9699 58.7500
L39.8270 58.8214
" />
<path d="M39.8270 58.8214
L39.7556 58.8929
" />
<path d="M39.7556 58.8929
L39.6842 59.0357
" />
<path d="M39.6842 59.0357
L39.6842 59.2500
" />
<path d="M40.6842 58.1071
L39.6842 58.1071
" />
<path d="M40.5413 58.1071
L40.6127 58.0357
" />
<path d="M40.6127 58.0357
L40.6842 57.8929
" />
<path d="M40.6842 57.8929
L40.6842 57.6786
" />
<path d="M40.6842 57.6786
L40.6127 57.5357
" />
<path d="M40.6127 57.5357
L40.4699 57.4643
" />
<path d="M40.4699 57.4643
L39.6842 57.4643
" />
<path d="M39.6842 56.1071
L40.4699 56.1071
" />
<path d="M40.4699 56.1071
L40.6127 56.1786
" />
<path d="M40.6127 56.1786
L40.6842 56.3214
" />
<path d="M40.6842 56.3214
L40.6842 56.6071
" />
<path d="M40.6842 56.6071
L40.6127 56.7500
" />
<path d="M39.7556 56.1071
L39.6842 56.2500
" />
<path d="M39.6842 56.2500
L39.6842 56.6071
" />
<path d="M39.6842 56.6071
L39.7556 56.7500
" />
<path d="M39.7556 56.7500
L39.8985 56.8214
" />
<path d="M39.8985 56.8214
L40.0413 56.8214
" />
<path d="M40.0413 56.8214
L40.1842 56.7500
" />
<path d="M40.1842 56.7500
L40.2556 56.6071
" />
<path d="M40.2556 56.6071
L40.2556 56.2500
" />
<path d="M40.2556 56.2500
L40.3270 56.1071
" />
<path d="M39.6842 55.1786
L39.7556 55.3214
" />
<path d="M39.7556 55.3214
L39.8985 55.3929
" />
<path d="M39.8985 55.3929
L41.1842 55.3929
" />
<path d="M39.6842 53.4643
L41.1842 53.4643
" />
<path d="M41.1842 53.4643
L41.1842 52.8929
" />
<path d="M41.1842 52.8929
L41.1127 52.7500
" />
<path d="M41.1127 52.7500
L41.0413 52.6786
" />
<path d="M41.0413 52.6786
L40.8985 52.6071
" />
<path d="M40.8985 52.6071
L40.6842 52.6071
" />
<path d="M40.6842 52.6071
L40.5413 52.6786
" />
<path d="M40.5413 52.6786
L40.4699 52.7500
" />
<path d="M40.4699 52.7500
L40.3985 52.8929
" />
<path d="M40.3985 52.8929
L40.3985 53.4643
" />
<path d="M39.6842 51.9643
L40.6842 51.9643
" />
<path d="M40.3985 51.9643
L40.5413 51.8929
" />
<path d="M40.5413 51.8929
L40.6127 51.8214
" />
<path d="M40.6127 51.8214
L40.6842 51.6786
" />
<path d="M40.6842 51.6786
L40.6842 51.5357
" />
<path d="M39.6842 50.8214
L39.7556 50.9643
" />
<path d="M39.7556 50.9643
L39.8270 51.0357
" />
<path d="M39.8270 51.0357
L39.9699 51.1071
" />
<path d="M39.9699 51.1071
L40.3985 51.1071
" />
<path d="M40.3985 51.1071
L40.5413 51.0357
" />
<path d="M40.5413 51.0357
L40.6127 50.9643
" />
<path d="M40.6127 50.9643
L40.6842 50.8214
" />
<path d="M40.6842 50.8214
L40.6842 50.6071
" />
<path d="M40.6842 50.6071
L40.6127 50.4643
" />
<path d="M40.6127 50.4643
L40.5413 50.3929
" />
<path d="M40.5413 50.3929
L40.3985 50.3214
" />
<path d="M40.3985 50.3214
L39.9699 50.3214
" />
<path d="M39.9699 50.3214
L39.8270 50.3929
" />
<path d="M39.8270 50.3929
L39.7556 50.4643
" />
<path d="M39.7556 50.4643
L39.6842 50.6071
" />
<path d="M39.6842 50.6071
L39.6842 50.8214
" />
<path d="M40.6842 49.6786
L39.3985 49.6786
" />
<path d="M39.3985 49.6786
L39.2556 49.7500
" />
<path d="M39.2556 49.7500
L39.1842 49.8929
" />
<path d="M39.1842 49.8929
L39.1842 49.9643
" />
<path d="M41.1842 49.6786
L41.1127 49.7500
" />
<path d="M41.1127 49.7500
L41.0413 49.6786
" />
<path d="M41.0413 49.6786
L41.1127 49.6071
" />
<path d="M41.1127 49.6071
L41.1842 49.6786
" />
<path d="M41.1842 49.6786
L41.0413 49.6786
" />
<path d="M39.7556 48.3929
L39.6842 48.5357
" />
<path d="M39.6842 48.5357
L39.6842 48.8214
" />
<path d="M39.6842 48.8214
L39.7556 48.9643
" />
<path d="M39.7556 48.9643
L39.8985 49.0357
" />
<path d="M39.8985 49.0357
L40.4699 49.0357
" />
<path d="M40.4699 49.0357
L40.6127 48.9643
" />
<path d="M40.6127 48.9643
L40.6842 48.8214
" />
<path d="M40.6842 48.8214
L40.6842 48.5357
" />
<path d="M40.6842 48.5357
L40.6127 48.3929
" />
<path d="M40.6127 48.3929
L40.4699 48.3214
" />
<path d="M40.4699 48.3214
L40.3270 48.3214
" />
<path d="M40.3270 48.3214
L40.1842 49.0357
" />
<path d="M39.7556 47.0357
L39.6842 47.1786
" />
<path d="M39.6842 47.1786
L39.6842 47.4643
" />
<path d="M39.6842 47.4643
L39.7556 47.6071
" />
<path d="M39.7556 47.6071
L39.8270 47.6786
" />
<path d="M39.8270 47.6786
L39.9699 47.7500
" />
<path d="M39.9699 47.7500
L40.3985 47.7500
" />
<path d="M40.3985 47.7500
L40.5413 47.6786
" />
<path d="M40.5413 47.6786
L40.6127 47.6071
" />
<path d="M40.6127 47.6071
L40.6842 47.4643
" />
<path d="M40.6842 47.4643
L40.6842 47.1786
" />
<path d="M40.6842 47.1786
L40.6127 47.0357
" />
<path d="M40.6842 46.6071
L40.6842 46.0357
" />
<path d="M41.1842 46.3929
L39.8985 46.3929
" />
<path d="M39.8985 46.3929
L39.7556 46.3214
" />
<path d="M39.7556 46.3214
L39.6842 46.1786
" />
<path d="M39.6842 46.1786
L39.6842 46.0357
" />
<path d="M40.2556 45.5357
L40.2556 44.3929
" />
<path d="M40.4699 43.1786
L40.3985 42.9643
" />
<path d="M40.3985 42.9643
L40.3270 42.8929
" />
<path d="M40.3270 42.8929
L40.1842 42.8214
" />
<path d="M40.1842 42.8214
L39.9699 42.8214
" />
<path d="M39.9699 42.8214
L39.8270 42.8929
" />
<path d="M39.8270 42.8929
L39.7556 42.9643
" />
<path d="M39.7556 42.9643
L39.6842 43.1071
" />
<path d="M39.6842 43.1071
L39.6842 43.6786
" />
<path d="M39.6842 43.6786
L41.1842 43.6786
" />
<path d="M41.1842 43.6786
L41.1842 43.1786
" />
<path d="M41.1842 43.1786
L41.1127 43.0357
" />
<path d="M41.1127 43.0357
L41.0413 42.9643
" />
<path d="M41.0413 42.9643
L40.8985 42.8929
" />
<path d="M40.8985 42.8929
L40.7556 42.8929
" />
<path d="M40.7556 42.8929
L40.6127 42.9643
" />
<path d="M40.6127 42.9643
L40.5413 43.0357
" />
<path d="M40.5413 43.0357
L40.4699 43.1786
" />
<path d="M40.4699 43.1786
L40.4699 43.6786
" />
<path d="M39.6842 41.5357
L40.4699 41.5357
" />
<path d="M40.4699 41.5357
L40.6127 41.6071
" />
<path d="M40.6127 41.6071
L40.6842 41.7500
" />
<path d="M40.6842 41.7500
L40.6842 42.0357
" />
<path d="M40.6842 42.0357
L40.6127 42.1786
" />
<path d="M39.7556 41.5357
L39.6842 41.6786
" />
<path d="M39.6842 41.6786
L39.6842 42.0357
" />
<path d="M39.6842 42.0357
L39.7556 42.1786
" />
<path d="M39.7556 42.1786
L39.8985 42.2500
" />
<path d="M39.8985 42.2500
L40.0413 42.2500
" />
<path d="M40.0413 42.2500
L40.1842 42.1786
" />
<path d="M40.1842 42.1786
L40.2556 42.0357
" />
<path d="M40.2556 42.0357
L40.2556 41.6786
" />
<path d="M40.2556 41.6786
L40.3270 41.5357
" />
<path d="M39.7556 40.8929
L39.6842 40.7500
" />
<path d="M39.6842 40.7500
L39.6842 40.4643
" />
<path d="M39.6842 40.4643
L39.7556 40.3214
" />
<path d="M39.7556 40.3214
L39.8985 40.2500
" />
<path d="M39.8985 40.2500
L39.9699 40.2500
" />
<path d="M39.9699 40.2500
L40.1127 40.3214
" />
<path d="M40.1127 40.3214
L40.1842 40.4643
" />
<path d="M40.1842 40.4643
L40.1842 40.6786
" />
<path d="M40.1842 40.6786
L40.2556 40.8214
" />
<path d="M40.2556 40.8214
L40.3985 40.8929
" />
<path d="M40.3985 40.8929
L40.4699 40.8929
" />
<path d="M40.4699 40.8929
L40.6127 40.8214
" />
<path d="M40.6127 40.8214
L40.6842 40.6786
" />
<path d="M40.6842 40.6786
L40.6842 40.4643
" />
<path d="M40.6842 40.4643
L40.6127 40.3214
" />
<path d="M39.7556 39.0357
L39.6842 39.1786
" />
<path d="M39.6842 39.1786
L39.6842 39.4643
" />
<path d="M39.6842 39.4643
L39.7556 39.6071
" />
<path d="M39.7556 39.6071
L39.8985 39.6786
" />
<path d="M39.8985 39.6786
L40.4699 39.6786
" />
<path d="M40.4699 39.6786
L40.6127 39.6071
" />
<path d="M40.6127 39.6071
L40.6842 39.4643
" />
<path d="M40.6842 39.4643
L40.6842 39.1786
" />
<path d="M40.6842 39.1786
L40.6127 39.0357
" />
<path d="M40.6127 39.0357
L40.4699 38.9643
" />
<path d="M40.4699 38.9643
L40.3270 38.9643
" />
<path d="M40.3270 38.9643
L40.1842 39.6786
" />
<path d="M39.6842 37.6786
L41.1842 37.6786
" />
<path d="M39.7556 37.6786
L39.6842 37.8214
" />
<path d="M39.6842 37.8214
L39.6842 38.1071
" />
<path d="M39.6842 38.1071
L39.7556 38.2500
" />
<path d="M39.7556 38.2500
L39.8270 38.3214
" />
<path d="M39.8270 38.3214
L39.9699 38.3929
" />
<path d="M39.9699 38.3929
L40.3985 38.3929
" />
<path d="M40.3985 38.3929
L40.5413 38.3214
" />
<path d="M40.5413 38.3214
L40.6127 38.2500
" />
<path d="M40.6127 38.2500
L40.6842 38.1071
" />
<path d="M40.6842 38.1071
L40.6842 37.8214
" />
<path d="M40.6842 37.8214
L40.6127 37.6786
" />
<path d="M39.6842 35.1071
L39.6842 35.8214
" />
<path d="M39.6842 35.8214
L41.1842 35.8214
" />
<path d="M39.7556 34.0357
L39.6842 34.1786
" />
<path d="M39.6842 34.1786
L39.6842 34.4643
" />
<path d="M39.6842 34.4643
L39.7556 34.6071
" />
<path d="M39.7556 34.6071
L39.8985 34.6786
" />
<path d="M39.8985 34.6786
L40.4699 34.6786
" />
<path d="M40.4699 34.6786
L40.6127 34.6071
" />
<path d="M40.6127 34.6071
L40.6842 34.4643
" />
<path d="M40.6842 34.4643
L40.6842 34.1786
" />
<path d="M40.6842 34.1786
L40.6127 34.0357
" />
<path d="M40.6127 34.0357
L40.4699 33.9643
" />
<path d="M40.4699 33.9643
L40.3270 33.9643
" />
<path d="M40.3270 33.9643
L40.1842 34.6786
" />
<path d="M39.6842 32.6786
L40.4699 32.6786
" />
<path d="M40.4699 32.6786
L40.6127 32.7500
" />
<path d="M40.6127 32.7500
L40.6842 32.8929
" />
<path d="M40.6842 32.8929
L40.6842 33.1786
" />
<path d="M40.6842 33.1786
L40.6127 33.3214
" />
<path d="M39.7556 32.6786
L39.6842 32.8214
" />
<path d="M39.6842 32.8214
L39.6842 33.1786
" />
<path d="M39.6842 33.1786
L39.7556 33.3214
" />
<path d="M39.7556 33.3214
L39.8985 33.3929
" />
<path d="M39.8985 33.3929
L40.0413 33.3929
" />
<path d="M40.0413 33.3929
L40.1842 33.3214
" />
<path d="M40.1842 33.3214
L40.2556 33.1786
" />
<path d="M40.2556 33.1786
L40.2556 32.8214
" />
<path d="M40.2556 32.8214
L40.3270 32.6786
" />
<path d="M39.6842 31.9643
L40.6842 31.9643
" />
<path d="M40.3985 31.9643
L40.5413 31.8929
" />
<path d="M40.5413 31.8929
L40.6127 31.8214
" />
<path d="M40.6127 31.8214
L40.6842 31.6786
" />
<path d="M40.6842 31.6786
L40.6842 31.5357
" />
<path d="M40.6842 31.0357
L39.6842 31.0357
" />
<path d="M40.5413 31.0357
L40.6127 30.9643
" />
<path d="M40.6127 30.9643
L40.6842 30.8214
" />
<path d="M40.6842 30.8214
L40.6842 30.6071
" />
<path d="M40.6842 30.6071
L40.6127 30.4643
" />
<path d="M40.6127 30.4643
L40.4699 30.3929
" />
<path d="M40.4699 30.3929
L39.6842 30.3929
" />
<path d="M39.6842 29.6786
L40.6842 29.6786
" />
<path d="M41.1842 29.6786
L41.1127 29.7500
" />
<path d="M41.1127 29.7500
L41.0413 29.6786
" />
<path d="M41.0413 29.6786
L41.1127 29.6071
" />
<path d="M41.1127 29.6071
L41.1842 29.6786
" />
<path d="M41.1842 29.6786
L41.0413 29.6786
" />
<path d="M40.6842 28.9643
L39.6842 28.9643
" />
<path d="M40.5413 28.9643
L40.6127 28.8929
" />
<path d="M40.6127 28.8929
L40.6842 28.7500
" />
<path d="M40.6842 28.7500
L40.6842 28.5357
" />
<path d="M40.6842 28.5357
L40.6127 28.3929
" />
<path d="M40.6127 28.3929
L40.4699 28.3214
" />
<path d="M40.4699 28.3214
L39.6842 28.3214
" />
<path d="M40.6842 26.9643
L39.4699 26.9643
" />
<path d="M39.4699 26.9643
L39.3270 27.0357
" />
<path d="M39.3270 27.0357
L39.2556 27.1071
" />
<path d="M39.2556 27.1071
L39.1842 27.2500
" />
<path d="M39.1842 27.2500
L39.1842 27.4643
" />
<path d="M39.1842 27.4643
L39.2556 27.6071
" />
<path d="M39.7556 26.9643
L39.6842 27.1071
" />
<path d="M39.6842 27.1071
L39.6842 27.3929
" />
<path d="M39.6842 27.3929
L39.7556 27.5357
" />
<path d="M39.7556 27.5357
L39.8270 27.6071
" />
<path d="M39.8270 27.6071
L39.9699 27.6786
" />
<path d="M39.9699 27.6786
L40.3985 27.6786
" />
<path d="M40.3985 27.6786
L40.5413 27.6071
" />
<path d="M40.5413 27.6071
L40.6127 27.5357
" />
<path d="M40.6127 27.5357
L40.6842 27.3929
" />
<path d="M40.6842 27.3929
L40.6842 27.1071
" />
<path d="M40.6842 27.1071
L40.6127 26.9643
" />
<path d="M41.0413 25.1786
L41.1127 25.1071
" />
<path d="M41.1127 25.1071
L41.1842 24.9643
" />
<path d="M41.1842 24.9643
L41.1842 24.6071
" />
<path d="M41.1842 24.6071
L41.1127 24.4643
" />
<path d="M41.1127 24.4643
L41.0413 24.3929
" />
<path d="M41.0413 24.3929
L40.8985 24.3214
" />
<path d="M40.8985 24.3214
L40.7556 24.3214
" />
<path d="M40.7556 24.3214
L40.5413 24.3929
" />
<path d="M40.5413 24.3929
L39.6842 25.2500
" />
<path d="M39.6842 25.2500
L39.6842 24.3214
" />
<path d="M41.1842 23.3929
L41.1842 23.2500
" />
<path d="M41.1842 23.2500
L41.1127 23.1071
" />
<path d="M41.1127 23.1071
L41.0413 23.0357
" />
<path d="M41.0413 23.0357
L40.8985 22.9643
" />
<path d="M40.8985 22.9643
L40.6127 22.8929
" />
<path d="M40.6127 22.8929
L40.2556 22.8929
" />
<path d="M40.2556 22.8929
L39.9699 22.9643
" />
<path d="M39.9699 22.9643
L39.8270 23.0357
" />
<path d="M39.8270 23.0357
L39.7556 23.1071
" />
<path d="M39.7556 23.1071
L39.6842 23.2500
" />
<path d="M39.6842 23.2500
L39.6842 23.3929
" />
<path d="M39.6842 23.3929
L39.7556 23.5357
" />
<path d="M39.7556 23.5357
L39.8270 23.6071
" />
<path d="M39.8270 23.6071
L39.9699 23.6786
" />
<path d="M39.9699 23.6786
L40.2556 23.7500
" />
<path d="M40.2556 23.7500
L40.6127 23.7500
" />
<path d="M40.6127 23.7500
L40.8985 23.6786
" />
<path d="M40.8985 23.6786
L41.0413 23.6071
" />
<path d="M41.0413 23.6071
L41.1127 23.5357
" />
<path d="M41.1127 23.5357
L41.1842 23.3929
" />
<path d="M41.0413 22.3214
L41.1127 22.2500
" />
<path d="M41.1127 22.2500
L41.1842 22.1071
" />
<path d="M41.1842 22.1071
L41.1842 21.7500
" />
<path d="M41.1842 21.7500
L41.1127 21.6071
" />
<path d="M41.1127 21.6071
L41.0413 21.5357
" />
<path d="M41.0413 21.5357
L40.8985 21.4643
" />
<path d="M40.8985 21.4643
L40.7556 21.4643
" />
<path d="M40.7556 21.4643
L40.5413 21.5357
" />
<path d="M40.5413 21.5357
L39.6842 22.3929
" />
<path d="M39.6842 22.3929
L39.6842 21.4643
" />
<path d="M41.1842 20.1786
L41.1842 20.4643
" />
<path d="M41.1842 20.4643
L41.1127 20.6071
" />
<path d="M41.1127 20.6071
L41.0413 20.6786
" />
<path d="M41.0413 20.6786
L40.8270 20.8214
" />
<path d="M40.8270 20.8214
L40.5413 20.8929
" />
<path d="M40.5413 20.8929
L39.9699 20.8929
" />
<path d="M39.9699 20.8929
L39.8270 20.8214
" />
<path d="M39.8270 20.8214
L39.7556 20.7500
" />
<path d="M39.7556 20.7500
L39.6842 20.6071
" />
<path d="M39.6842 20.6071
L39.6842 20.3214
" />
<path d="M39.6842 20.3214
L39.7556 20.1786
" />
<path d="M39.7556 20.1786
L39.8270 20.1071
" />
<path d="M39.8270 20.1071
L39.9699 20.0357
" />
<path d="M39.9699 20.0357
L40.3270 20.0357
" />
<path d="M40.3270 20.0357
L40.4699 20.1071
" />
<path d="M40.4699 20.1071
L40.5413 20.1786
" />
<path d="M40.5413 20.1786
L40.6127 20.3214
" />
<path d="M40.6127 20.3214
L40.6127 20.6071
" />
<path d="M40.6127 20.6071
L40.5413 20.7500
" />
<path d="M40.5413 20.7500
L40.4699 20.8214
" />
<path d="M40.4699 20.8214
L40.3270 20.8929
" />
</g><text x="28.4928" y="17.2500"
transform="scale(-1 1) translate(-56.985600 0)"
textLength="4.9167" font-size="1.3333" lengthAdjust="spacingAndGlyphs"
text-anchor="middle" opacity="0" stroke-opacity="0">SW_A2</text>
<g class="stroked-text"><desc>SW_A2</desc>
<path d="M30.6357 17.1572
L30.4928 17.2048
" />
<path d="M30.4928 17.2048
L30.2547 17.2048
" />
<path d="M30.2547 17.2048
L30.1595 17.1572
" />
<path d="M30.1595 17.1572
L30.1118 17.1096
" />
<path d="M30.1118 17.1096
L30.0642 17.0143
" />
<path d="M30.0642 17.0143
L30.0642 16.9191
" />
<path d="M30.0642 16.9191
L30.1118 16.8239
" />
<path d="M30.1118 16.8239
L30.1595 16.7762
" />
<path d="M30.1595 16.7762
L30.2547 16.7286
" />
<path d="M30.2547 16.7286
L30.4452 16.6810
" />
<path d="M30.4452 16.6810
L30.5404 16.6334
" />
<path d="M30.5404 16.6334
L30.5880 16.5858
" />
<path d="M30.5880 16.5858
L30.6357 16.4905
" />
<path d="M30.6357 16.4905
L30.6357 16.3953
" />
<path d="M30.6357 16.3953
L30.5880 16.3001
" />
<path d="M30.5880 16.3001
L30.5404 16.2524
" />
<path d="M30.5404 16.2524
L30.4452 16.2048
" />
<path d="M30.4452 16.2048
L30.2071 16.2048
" />
<path d="M30.2071 16.2048
L30.0642 16.2524
" />
<path d="M29.7309 16.2048
L29.4928 17.2048
" />
<path d="M29.4928 17.2048
L29.3023 16.4905
" />
<path d="M29.3023 16.4905
L29.1118 17.2048
" />
<path d="M29.1118 17.2048
L28.8738 16.2048
" />
<path d="M28.7309 17.3001
L27.9690 17.3001
" />
<path d="M27.7785 16.9191
L27.3023 16.9191
" />
<path d="M27.8738 17.2048
L27.5404 16.2048
" />
<path d="M27.5404 16.2048
L27.2071 17.2048
" />
<path d="M26.9214 16.3001
L26.8738 16.2524
" />
<path d="M26.8738 16.2524
L26.7785 16.2048
" />
<path d="M26.7785 16.2048
L26.5404 16.2048
" />
<path d="M26.5404 16.2048
L26.4452 16.2524
" />
<path d="M26.4452 16.2524
L26.3976 16.3001
" />
<path d="M26.3976 16.3001
L26.3499 16.3953
" />
<path d="M26.3499 16.3953
L26.3499 16.4905
" />
<path d="M26.3499 16.4905
L26.3976 16.6334
" />
<path d="M26.3976 16.6334
L26.9690 17.2048
" />
<path d="M26.9690 17.2048
L26.3499 17.2048
" />
</g><text x="34.9928" y="17.2500"
transform="scale(-1 1) translate(-69.985600 0)"
textLength="4.9167" font-size="1.3333" lengthAdjust="spacingAndGlyphs"
text-anchor="middle" opacity="0" stroke-opacity="0">SW_A1</text>
<g class="stroked-text"><desc>SW_A1</desc>
<path d="M37.1357 17.1572
L36.9928 17.2048
" />
<path d="M36.9928 17.2048
L36.7547 17.2048
" />
<path d="M36.7547 17.2048
L36.6595 17.1572
" />
<path d="M36.6595 17.1572
L36.6118 17.1096
" />
<path d="M36.6118 17.1096
L36.5642 17.0143
" />
<path d="M36.5642 17.0143
L36.5642 16.9191
" />
<path d="M36.5642 16.9191
L36.6118 16.8239
" />
<path d="M36.6118 16.8239
L36.6595 16.7762
" />
<path d="M36.6595 16.7762
L36.7547 16.7286
" />
<path d="M36.7547 16.7286
L36.9452 16.6810
" />
<path d="M36.9452 16.6810
L37.0404 16.6334
" />
<path d="M37.0404 16.6334
L37.0880 16.5858
" />
<path d="M37.0880 16.5858
L37.1357 16.4905
" />
<path d="M37.1357 16.4905
L37.1357 16.3953
" />
<path d="M37.1357 16.3953
L37.0880 16.3001
" />
<path d="M37.0880 16.3001
L37.0404 16.2524
" />
<path d="M37.0404 16.2524
L36.9452 16.2048
" />
<path d="M36.9452 16.2048
L36.7071 16.2048
" />
<path d="M36.7071 16.2048
L36.5642 16.2524
" />
<path d="M36.2309 16.2048
L35.9928 17.2048
" />
<path d="M35.9928 17.2048
L35.8023 16.4905
" />
<path d="M35.8023 16.4905
L35.6118 17.2048
" />
<path d="M35.6118 17.2048
L35.3738 16.2048
" />
<path d="M35.2309 17.3001
L34.4690 17.3001
" />
<path d="M34.2785 16.9191
L33.8023 16.9191
" />
<path d="M34.3738 17.2048
L34.0404 16.2048
" />
<path d="M34.0404 16.2048
L33.7071 17.2048
" />
<path d="M32.8499 17.2048
L33.4214 17.2048
" />
<path d="M33.1357 17.2048
L33.1357 16.2048
" />
<path d="M33.1357 16.2048
L33.2309 16.3477
" />
<path d="M33.2309 16.3477
L33.3261 16.4429
" />
<path d="M33.3261 16.4429
L33.4214 16.4905
" />
</g><text x="26.4928" y="49.7000"
transform="scale(-1 1) translate(-52.985600 0)"
textLength="2.3452" font-size="1.3333" lengthAdjust="spacingAndGlyphs"
text-anchor="middle" opacity="0" stroke-opacity="0">M1</text>
<g class="stroked-text"><desc>M1</desc>
<path d="M27.3023 49.6548
L27.3023 48.6548
" />
<path d="M27.3023 48.6548
L26.9690 49.3691
" />
<path d="M26.9690 49.3691
L26.6357 48.6548
" />
<path d="M26.6357 48.6548
L26.6357 49.6548
" />
<path d="M25.6357 49.6548
L26.2071 49.6548
" />
<path d="M25.9214 49.6548
L25.9214 48.6548
" />
<path d="M25.9214 48.6548
L26.0166 48.7977
" />
<path d="M26.0166 48.7977
L26.1118 48.8929
" />
<path d="M26.1118 48.8929
L26.2071 48.9405
" />
</g><text x="21.1928" y="35.3000"
transform="scale(-1 1) translate(-42.385600 0)"
textLength="2.3452" font-size="1.3333" lengthAdjust="spacingAndGlyphs"
text-anchor="middle" opacity="0" stroke-opacity="0">M7</text>
<g class="stroked-text"><desc>M7</desc>
<path d="M22.0023 35.2548
L22.0023 34.2548
" />
<path d="M22.0023 34.2548
L21.6690 34.9691
" />
<path d="M21.6690 34.9691
L21.3357 34.2548
" />
<path d="M21.3357 34.2548
L21.3357 35.2548
" />
<path d="M20.9547 34.2548
L20.2880 34.2548
" />
<path d="M20.2880 34.2548
L20.7166 35.2548
" />
</g><text x="5.7928" y="29.5000"
transform="scale(-1 1) translate(-11.585600 0)"
textLength="2.2024" font-size="1.3333" lengthAdjust="spacingAndGlyphs"
text-anchor="middle" opacity="0" stroke-opacity="0">C3</text>
<g class="stroked-text"><desc>C3</desc>
<path d="M5.9595 29.3596
L6.0071 29.4072
" />
<path d="M6.0071 29.4072
L6.1499 29.4548
" />
<path d="M6.1499 29.4548
L6.2452 29.4548
" />
<path d="M6.2452 29.4548
L6.3880 29.4072
" />
<path d="M6.3880 29.4072
L6.4833 29.3120
" />
<path d="M6.4833 29.3120
L6.5309 29.2167
" />
<path d="M6.5309 29.2167
L6.5785 29.0262
" />
<path d="M6.5785 29.0262
L6.5785 28.8834
" />
<path d="M6.5785 28.8834
L6.5309 28.6929
" />
<path d="M6.5309 28.6929
L6.4833 28.5977
" />
<path d="M6.4833 28.5977
L6.3880 28.5024
" />
<path d="M6.3880 28.5024
L6.2452 28.4548
" />
<path d="M6.2452 28.4548
L6.1499 28.4548
" />
<path d="M6.1499 28.4548
L6.0071 28.5024
" />
<path d="M6.0071 28.5024
L5.9595 28.5501
" />
<path d="M5.6261 28.4548
L5.0071 28.4548
" />
<path d="M5.0071 28.4548
L5.3404 28.8358
" />
<path d="M5.3404 28.8358
L5.1976 28.8358
" />
<path d="M5.1976 28.8358
L5.1023 28.8834
" />
<path d="M5.1023 28.8834
L5.0547 28.9310
" />
<path d="M5.0547 28.9310
L5.0071 29.0262
" />
<path d="M5.0071 29.0262
L5.0071 29.2643
" />
<path d="M5.0071 29.2643
L5.0547 29.3596
" />
<path d="M5.0547 29.3596
L5.1023 29.4072
" />
<path d="M5.1023 29.4072
L5.1976 29.4548
" />
<path d="M5.1976 29.4548
L5.4833 29.4548
" />
<path d="M5.4833 29.4548
L5.5785 29.4072
" />
<path d="M5.5785 29.4072
L5.6261 29.3596
" />
</g><text x="30.3928" y="78.1000"
transform="scale(-1 1) translate(-60.785600 0)"
textLength="3.2976" font-size="1.3333" lengthAdjust="spacingAndGlyphs"
text-anchor="middle" opacity="0" stroke-opacity="0">M11</text>
<g class="stroked-text"><desc>M11</desc>
<path d="M31.6785 78.0548
L31.6785 77.0548
" />
<path d="M31.6785 77.0548
L31.3452 77.7691
" />
<path d="M31.3452 77.7691
L31.0118 77.0548
" />
<path d="M31.0118 77.0548
L31.0118 78.0548
" />
<path d="M30.0118 78.0548
L30.5833 78.0548
" />
<path d="M30.2976 78.0548
L30.2976 77.0548
" />
<path d="M30.2976 77.0548
L30.3928 77.1977
" />
<path d="M30.3928 77.1977
L30.4880 77.2929
" />
<path d="M30.4880 77.2929
L30.5833 77.3405
" />
<path d="M29.0595 78.0548
L29.6309 78.0548
" />
<path d="M29.3452 78.0548
L29.3452 77.0548
" />
<path d="M29.3452 77.0548
L29.4404 77.1977
" />
<path d="M29.4404 77.1977
L29.5357 77.2929
" />
<path d="M29.5357 77.2929
L29.6309 77.3405
" />
</g><text x="30.4185" y="49.6300"
transform="scale(-1 1) translate(-60.837066 0)"
textLength="2.3452" font-size="1.3333" lengthAdjust="spacingAndGlyphs"
text-anchor="middle" opacity="0" stroke-opacity="0">M2</text>
<g class="stroked-text"><desc>M2</desc>
<path d="M31.2281 49.5848
L31.2281 48.5848
" />
<path d="M31.2281 48.5848
L30.8947 49.2991
" />
<path d="M30.8947 49.2991
L30.5614 48.5848
" />
<path d="M30.5614 48.5848
L30.5614 49.5848
" />
<path d="M30.1328 48.6801
L30.0852 48.6324
" />
<path d="M30.0852 48.6324
L29.9900 48.5848
" />
<path d="M29.9900 48.5848
L29.7519 48.5848
" />
<path d="M29.7519 48.5848
L29.6566 48.6324
" />
<path d="M29.6566 48.6324
L29.6090 48.6801
" />
<path d="M29.6090 48.6801
L29.5614 48.7753
" />
<path d="M29.5614 48.7753
L29.5614 48.8705
" />
<path d="M29.5614 48.8705
L29.6090 49.0134
" />
<path d="M29.6090 49.0134
L30.1804 49.5848
" />
<path d="M30.1804 49.5848
L29.5614 49.5848
" />
</g><text x="34.2957" y="67.9800"
transform="scale(-1 1) translate(-68.591468 0)"
textLength="3.2976" font-size="1.3333" lengthAdjust="spacingAndGlyphs"
text-anchor="middle" opacity="0" stroke-opacity="0">M12</text>
<g class="stroked-text"><desc>M12</desc>
<path d="M35.5814 67.9348
L35.5814 66.9348
" />
<path d="M35.5814 66.9348
L35.2481 67.6491
" />
<path d="M35.2481 67.6491
L34.9148 66.9348
" />
<path d="M34.9148 66.9348
L34.9148 67.9348
" />
<path d="M33.9148 67.9348
L34.4862 67.9348
" />
<path d="M34.2005 67.9348
L34.2005 66.9348
" />
<path d="M34.2005 66.9348
L34.2957 67.0777
" />
<path d="M34.2957 67.0777
L34.3910 67.1729
" />
<path d="M34.3910 67.1729
L34.4862 67.2205
" />
<path d="M33.5338 67.0301
L33.4862 66.9824
" />
<path d="M33.4862 66.9824
L33.3910 66.9348
" />
<path d="M33.3910 66.9348
L33.1529 66.9348
" />
<path d="M33.1529 66.9348
L33.0576 66.9824
" />
<path d="M33.0576 66.9824
L33.0100 67.0301
" />
<path d="M33.0100 67.0301
L32.9624 67.1253
" />
<path d="M32.9624 67.1253
L32.9624 67.2205
" />
<path d="M32.9624 67.2205
L33.0100 67.3634
" />
<path d="M33.0100 67.3634
L33.5814 67.9348
" />
<path d="M33.5814 67.9348
L32.9624 67.9348
" />
</g><text x="17.6428" y="5.7500"
transform="scale(-1 1) translate(-35.285600 0)"
textLength="2.2024" font-size="1.3333" lengthAdjust="spacingAndGlyphs"
text-anchor="middle" opacity="0" stroke-opacity="0">C1</text>
<g class="stroked-text"><desc>C1</desc>
<path d="M17.8095 5.6096
L17.8571 5.6572
" />
<path d="M17.8571 5.6572
L17.9999 5.7048
" />
<path d="M17.9999 5.7048
L18.0952 5.7048
" />
<path d="M18.0952 5.7048
L18.2380 5.6572
" />
<path d="M18.2380 5.6572
L18.3333 5.5620
" />
<path d="M18.3333 5.5620
L18.3809 5.4667
" />
<path d="M18.3809 5.4667
L18.4285 5.2762
" />
<path d="M18.4285 5.2762
L18.4285 5.1334
" />
<path d="M18.4285 5.1334
L18.3809 4.9429
" />
<path d="M18.3809 4.9429
L18.3333 4.8477
" />
<path d="M18.3333 4.8477
L18.2380 4.7524
" />
<path d="M18.2380 4.7524
L18.0952 4.7048
" />
<path d="M18.0952 4.7048
L17.9999 4.7048
" />
<path d="M17.9999 4.7048
L17.8571 4.7524
" />
<path d="M17.8571 4.7524
L17.8095 4.8001
" />
<path d="M16.8571 5.7048
L17.4285 5.7048
" />
<path d="M17.1428 5.7048
L17.1428 4.7048
" />
<path d="M17.1428 4.7048
L17.2380 4.8477
" />
<path d="M17.2380 4.8477
L17.3333 4.9429
" />
<path d="M17.3333 4.9429
L17.4285 4.9905
" />
</g><text x="26.4928" y="63.9600"
transform="scale(-1 1) translate(-52.985600 0)"
textLength="2.3452" font-size="1.3333" lengthAdjust="spacingAndGlyphs"
text-anchor="middle" opacity="0" stroke-opacity="0">M3</text>
<g class="stroked-text"><desc>M3</desc>
<path d="M27.3023 63.9148
L27.3023 62.9148
" />
<path d="M27.3023 62.9148
L26.9690 63.6291
" />
<path d="M26.9690 63.6291
L26.6357 62.9148
" />
<path d="M26.6357 62.9148
L26.6357 63.9148
" />
<path d="M26.2547 62.9148
L25.6357 62.9148
" />
<path d="M25.6357 62.9148
L25.9690 63.2958
" />
<path d="M25.9690 63.2958
L25.8261 63.2958
" />
<path d="M25.8261 63.2958
L25.7309 63.3434
" />
<path d="M25.7309 63.3434
L25.6833 63.3910
" />
<path d="M25.6833 63.3910
L25.6357 63.4862
" />
<path d="M25.6357 63.4862
L25.6357 63.7243
" />
<path d="M25.6357 63.7243
L25.6833 63.8196
" />
<path d="M25.6833 63.8196
L25.7309 63.8672
" />
<path d="M25.7309 63.8672
L25.8261 63.9148
" />
<path d="M25.8261 63.9148
L26.1118 63.9148
" />
<path d="M26.1118 63.9148
L26.2071 63.8672
" />
<path d="M26.2071 63.8672
L26.2547 63.8196
" />
</g><text x="25.7928" y="35.3000"
transform="scale(-1 1) translate(-51.585600 0)"
textLength="2.3452" font-size="1.3333" lengthAdjust="spacingAndGlyphs"
text-anchor="middle" opacity="0" stroke-opacity="0">M6</text>
<g class="stroked-text"><desc>M6</desc>
<path d="M26.6023 35.2548
L26.6023 34.2548
" />
<path d="M26.6023 34.2548
L26.2690 34.9691
" />
<path d="M26.2690 34.9691
L25.9357 34.2548
" />
<path d="M25.9357 34.2548
L25.9357 35.2548
" />
<path d="M25.0309 34.2548
L25.2214 34.2548
" />
<path d="M25.2214 34.2548
L25.3166 34.3024
" />
<path d="M25.3166 34.3024
L25.3642 34.3501
" />
<path d="M25.3642 34.3501
L25.4595 34.4929
" />
<path d="M25.4595 34.4929
L25.5071 34.6834
" />
<path d="M25.5071 34.6834
L25.5071 35.0643
" />
<path d="M25.5071 35.0643
L25.4595 35.1596
" />
<path d="M25.4595 35.1596
L25.4118 35.2072
" />
<path d="M25.4118 35.2072
L25.3166 35.2548
" />
<path d="M25.3166 35.2548
L25.1261 35.2548
" />
<path d="M25.1261 35.2548
L25.0309 35.2072
" />
<path d="M25.0309 35.2072
L24.9833 35.1596
" />
<path d="M24.9833 35.1596
L24.9357 35.0643
" />
<path d="M24.9357 35.0643
L24.9357 34.8262
" />
<path d="M24.9357 34.8262
L24.9833 34.7310
" />
<path d="M24.9833 34.7310
L25.0309 34.6834
" />
<path d="M25.0309 34.6834
L25.1261 34.6358
" />
<path d="M25.1261 34.6358
L25.3166 34.6358
" />
<path d="M25.3166 34.6358
L25.4118 34.6834
" />
<path d="M25.4118 34.6834
L25.4595 34.7310
" />
<path d="M25.4595 34.7310
L25.5071 34.8262
" />
</g><text x="13.1928" y="42.3000"
transform="scale(-1 1) translate(-26.385600 0)"
textLength="2.0595" font-size="1.3333" lengthAdjust="spacingAndGlyphs"
text-anchor="middle" opacity="0" stroke-opacity="0">A1</text>
<g class="stroked-text"><desc>A1</desc>
<path d="M13.9071 41.9691
L13.4309 41.9691
" />
<path d="M14.0023 42.2548
L13.6690 41.2548
" />
<path d="M13.6690 41.2548
L13.3357 42.2548
" />
<path d="M12.4785 42.2548
L13.0499 42.2548
" />
<path d="M12.7642 42.2548
L12.7642 41.2548
" />
<path d="M12.7642 41.2548
L12.8595 41.3977
" />
<path d="M12.8595 41.3977
L12.9547 41.4929
" />
<path d="M12.9547 41.4929
L13.0499 41.5405
" />
</g><text x="13.3728" y="77.9000"
transform="scale(-1 1) translate(-26.745600 0)"
textLength="3.2500" font-size="1.3333" lengthAdjust="spacingAndGlyphs"
text-anchor="middle" opacity="0" stroke-opacity="0">USB</text>
<g class="stroked-text"><desc>USB</desc>
<path d="M14.6347 76.8548
L14.6347 77.6643
" />
<path d="M14.6347 77.6643
L14.5871 77.7596
" />
<path d="M14.5871 77.7596
L14.5395 77.8072
" />
<path d="M14.5395 77.8072
L14.4442 77.8548
" />
<path d="M14.4442 77.8548
L14.2538 77.8548
" />
<path d="M14.2538 77.8548
L14.1585 77.8072
" />
<path d="M14.1585 77.8072
L14.1109 77.7596
" />
<path d="M14.1109 77.7596
L14.0633 77.6643
" />
<path d="M14.0633 77.6643
L14.0633 76.8548
" />
<path d="M13.6347 77.8072
L13.4918 77.8548
" />
<path d="M13.4918 77.8548
L13.2538 77.8548
" />
<path d="M13.2538 77.8548
L13.1585 77.8072
" />
<path d="M13.1585 77.8072
L13.1109 77.7596
" />
<path d="M13.1109 77.7596
L13.0633 77.6643
" />
<path d="M13.0633 77.6643
L13.0633 77.5691
" />
<path d="M13.0633 77.5691
L13.1109 77.4739
" />
<path d="M13.1109 77.4739
L13.1585 77.4262
" />
<path d="M13.1585 77.4262
L13.2538 77.3786
" />
<path d="M13.2538 77.3786
L13.4442 77.3310
" />
<path d="M13.4442 77.3310
L13.5395 77.2834
" />
<path d="M13.5395 77.2834
L13.5871 77.2358
" />
<path d="M13.5871 77.2358
L13.6347 77.1405
" />
<path d="M13.6347 77.1405
L13.6347 77.0453
" />
<path d="M13.6347 77.0453
L13.5871 76.9501
" />
<path d="M13.5871 76.9501
L13.5395 76.9024
" />
<path d="M13.5395 76.9024
L13.4442 76.8548
" />
<path d="M13.4442 76.8548
L13.2061 76.8548
" />
<path d="M13.2061 76.8548
L13.0633 76.9024
" />
<path d="M12.3014 77.3310
L12.1585 77.3786
" />
<path d="M12.1585 77.3786
L12.1109 77.4262
" />
<path d="M12.1109 77.4262
L12.0633 77.5215
" />
<path d="M12.0633 77.5215
L12.0633 77.6643
" />
<path d="M12.0633 77.6643
L12.1109 77.7596
" />
<path d="M12.1109 77.7596
L12.1585 77.8072
" />
<path d="M12.1585 77.8072
L12.2538 77.8548
" />
<path d="M12.2538 77.8548
L12.6347 77.8548
" />
<path d="M12.6347 77.8548
L12.6347 76.8548
" />
<path d="M12.6347 76.8548
L12.3014 76.8548
" />
<path d="M12.3014 76.8548
L12.2061 76.9024
" />
<path d="M12.2061 76.9024
L12.1585 76.9501
" />
<path d="M12.1585 76.9501
L12.1109 77.0453
" />
<path d="M12.1109 77.0453
L12.1109 77.1405
" />
<path d="M12.1109 77.1405
L12.1585 77.2358
" />
<path d="M12.1585 77.2358
L12.2061 77.2834
" />
<path d="M12.2061 77.2834
L12.3014 77.3310
" />
<path d="M12.3014 77.3310
L12.6347 77.3310
" />
</g><text x="12.7928" y="20.0000"
transform="scale(-1 1) translate(-25.585600 0)"
textLength="2.2024" font-size="1.3333" lengthAdjust="spacingAndGlyphs"
text-anchor="middle" opacity="0" stroke-opacity="0">R1</text>
<g class="stroked-text"><desc>R1</desc>
<path d="M12.9595 19.9548
L13.2928 19.4786
" />
<path d="M13.5309 19.9548
L13.5309 18.9548
" />
<path d="M13.5309 18.9548
L13.1499 18.9548
" />
<path d="M13.1499 18.9548
L13.0547 19.0024
" />
<path d="M13.0547 19.0024
L13.0071 19.0501
" />
<path d="M13.0071 19.0501
L12.9595 19.1453
" />
<path d="M12.9595 19.1453
L12.9595 19.2882
" />
<path d="M12.9595 19.2882
L13.0071 19.3834
" />
<path d="M13.0071 19.3834
L13.0547 19.4310
" />
<path d="M13.0547 19.4310
L13.1499 19.4786
" />
<path d="M13.1499 19.4786
L13.5309 19.4786
" />
<path d="M12.0071 19.9548
L12.5785 19.9548
" />
<path d="M12.2928 19.9548
L12.2928 18.9548
" />
<path d="M12.2928 18.9548
L12.3880 19.0977
" />
<path d="M12.3880 19.0977
L12.4833 19.1929
" />
<path d="M12.4833 19.1929
L12.5785 19.2405
" />
</g><text x="26.3928" y="78.1000"
transform="scale(-1 1) translate(-52.785600 0)"
textLength="3.2976" font-size="1.3333" lengthAdjust="spacingAndGlyphs"
text-anchor="middle" opacity="0" stroke-opacity="0">M10</text>
<g class="stroked-text"><desc>M10</desc>
<path d="M27.6785 78.0548
L27.6785 77.0548
" />
<path d="M27.6785 77.0548
L27.3452 77.7691
" />
<path d="M27.3452 77.7691
L27.0118 77.0548
" />
<path d="M27.0118 77.0548
L27.0118 78.0548
" />
<path d="M26.0118 78.0548
L26.5833 78.0548
" />
<path d="M26.2976 78.0548
L26.2976 77.0548
" />
<path d="M26.2976 77.0548
L26.3928 77.1977
" />
<path d="M26.3928 77.1977
L26.4880 77.2929
" />
<path d="M26.4880 77.2929
L26.5833 77.3405
" />
<path d="M25.3928 77.0548
L25.2976 77.0548
" />
<path d="M25.2976 77.0548
L25.2023 77.1024
" />
<path d="M25.2023 77.1024
L25.1547 77.1501
" />
<path d="M25.1547 77.1501
L25.1071 77.2453
" />
<path d="M25.1071 77.2453
L25.0595 77.4358
" />
<path d="M25.0595 77.4358
L25.0595 77.6739
" />
<path d="M25.0595 77.6739
L25.1071 77.8643
" />
<path d="M25.1071 77.8643
L25.1547 77.9596
" />
<path d="M25.1547 77.9596
L25.2023 78.0072
" />
<path d="M25.2023 78.0072
L25.2976 78.0548
" />
<path d="M25.2976 78.0548
L25.3928 78.0548
" />
<path d="M25.3928 78.0548
L25.4880 78.0072
" />
<path d="M25.4880 78.0072
L25.5357 77.9596
" />
<path d="M25.5357 77.9596
L25.5833 77.8643
" />
<path d="M25.5833 77.8643
L25.6309 77.6739
" />
<path d="M25.6309 77.6739
L25.6309 77.4358
" />
<path d="M25.6309 77.4358
L25.5833 77.2453
" />
<path d="M25.5833 77.2453
L25.5357 77.1501
" />
<path d="M25.5357 77.1501
L25.4880 77.1024
" />
<path d="M25.4880 77.1024
L25.3928 77.0548
" />
</g><text x="16.3928" y="35.3000"
transform="scale(-1 1) translate(-32.785600 0)"
textLength="2.3452" font-size="1.3333" lengthAdjust="spacingAndGlyphs"
text-anchor="middle" opacity="0" stroke-opacity="0">M8</text>
<g class="stroked-text"><desc>M8</desc>
<path d="M17.2023 35.2548
L17.2023 34.2548
" />
<path d="M17.2023 34.2548
L16.8690 34.9691
" />
<path d="M16.8690 34.9691
L16.5357 34.2548
" />
<path d="M16.5357 34.2548
L16.5357 35.2548
" />
<path d="M15.9166 34.6834
L16.0118 34.6358
" />
<path d="M16.0118 34.6358
L16.0595 34.5882
" />
<path d="M16.0595 34.5882
L16.1071 34.4929
" />
<path d="M16.1071 34.4929
L16.1071 34.4453
" />
<path d="M16.1071 34.4453
L16.0595 34.3501
" />
<path d="M16.0595 34.3501
L16.0118 34.3024
" />
<path d="M16.0118 34.3024
L15.9166 34.2548
" />
<path d="M15.9166 34.2548
L15.7261 34.2548
" />
<path d="M15.7261 34.2548
L15.6309 34.3024
" />
<path d="M15.6309 34.3024
L15.5833 34.3501
" />
<path d="M15.5833 34.3501
L15.5357 34.4453
" />
<path d="M15.5357 34.4453
L15.5357 34.4929
" />
<path d="M15.5357 34.4929
L15.5833 34.5882
" />
<path d="M15.5833 34.5882
L15.6309 34.6358
" />
<path d="M15.6309 34.6358
L15.7261 34.6834
" />
<path d="M15.7261 34.6834
L15.9166 34.6834
" />
<path d="M15.9166 34.6834
L16.0118 34.7310
" />
<path d="M16.0118 34.7310
L16.0595 34.7786
" />
<path d="M16.0595 34.7786
L16.1071 34.8739
" />
<path d="M16.1071 34.8739
L16.1071 35.0643
" />
<path d="M16.1071 35.0643
L16.0595 35.1596
" />
<path d="M16.0595 35.1596
L16.0118 35.2072
" />
<path d="M16.0118 35.2072
L15.9166 35.2548
" />
<path d="M15.9166 35.2548
L15.7261 35.2548
" />
<path d="M15.7261 35.2548
L15.6309 35.2072
" />
<path d="M15.6309 35.2072
L15.5833 35.1596
" />
<path d="M15.5833 35.1596
L15.5357 35.0643
" />
<path d="M15.5357 35.0643
L15.5357 34.8739
" />
<path d="M15.5357 34.8739
L15.5833 34.7786
" />
<path d="M15.5833 34.7786
L15.6309 34.7310
" />
<path d="M15.6309 34.7310
L15.7261 34.6834
" />
</g><text x="11.9928" y="35.3000"
transform="scale(-1 1) translate(-23.985600 0)"
textLength="2.3452" font-size="1.3333" lengthAdjust="spacingAndGlyphs"
text-anchor="middle" opacity="0" stroke-opacity="0">M9</text>
<g class="stroked-text"><desc>M9</desc>
<path d="M12.8023 35.2548
L12.8023 34.2548
" />
<path d="M12.8023 34.2548
L12.4690 34.9691
" />
<path d="M12.4690 34.9691
L12.1357 34.2548
" />
<path d="M12.1357 34.2548
L12.1357 35.2548
" />
<path d="M11.6118 35.2548
L11.4214 35.2548
" />
<path d="M11.4214 35.2548
L11.3261 35.2072
" />
<path d="M11.3261 35.2072
L11.2785 35.1596
" />
<path d="M11.2785 35.1596
L11.1833 35.0167
" />
<path d="M11.1833 35.0167
L11.1357 34.8262
" />
<path d="M11.1357 34.8262
L11.1357 34.4453
" />
<path d="M11.1357 34.4453
L11.1833 34.3501
" />
<path d="M11.1833 34.3501
L11.2309 34.3024
" />
<path d="M11.2309 34.3024
L11.3261 34.2548
" />
<path d="M11.3261 34.2548
L11.5166 34.2548
" />
<path d="M11.5166 34.2548
L11.6118 34.3024
" />
<path d="M11.6118 34.3024
L11.6595 34.3501
" />
<path d="M11.6595 34.3501
L11.7071 34.4453
" />
<path d="M11.7071 34.4453
L11.7071 34.6834
" />
<path d="M11.7071 34.6834
L11.6595 34.7786
" />
<path d="M11.6595 34.7786
L11.6118 34.8262
" />
<path d="M11.6118 34.8262
L11.5166 34.8739
" />
<path d="M11.5166 34.8739
L11.3261 34.8739
" />
<path d="M11.3261 34.8739
L11.2309 34.8262
" />
<path d="M11.2309 34.8262
L11.1833 34.7786
" />
<path d="M11.1833 34.7786
L11.1357 34.6834
" />
</g><text x="30.4185" y="63.9600"
transform="scale(-1 1) translate(-60.837066 0)"
textLength="2.3452" font-size="1.3333" lengthAdjust="spacingAndGlyphs"
text-anchor="middle" opacity="0" stroke-opacity="0">M4</text>
<g class="stroked-text"><desc>M4</desc>
<path d="M31.2281 63.9148
L31.2281 62.9148
" />
<path d="M31.2281 62.9148
L30.8947 63.6291
" />
<path d="M30.8947 63.6291
L30.5614 62.9148
" />
<path d="M30.5614 62.9148
L30.5614 63.9148
" />
<path d="M29.6566 63.2482
L29.6566 63.9148
" />
<path d="M29.8947 62.8672
L30.1328 63.5815
" />
<path d="M30.1328 63.5815
L29.5138 63.5815
" />
</g><text x="27.8428" y="5.8000"
transform="scale(-1 1) translate(-55.685600 0)"
textLength="2.2024" font-size="1.3333" lengthAdjust="spacingAndGlyphs"
text-anchor="middle" opacity="0" stroke-opacity="0">C2</text>
<g class="stroked-text"><desc>C2</desc>
<path d="M28.0095 5.6596
L28.0571 5.7072
" />
<path d="M28.0571 5.7072
L28.1999 5.7548
" />
<path d="M28.1999 5.7548
L28.2952 5.7548
" />
<path d="M28.2952 5.7548
L28.4380 5.7072
" />
<path d="M28.4380 5.7072
L28.5333 5.6120
" />
<path d="M28.5333 5.6120
L28.5809 5.5167
" />
<path d="M28.5809 5.5167
L28.6285 5.3262
" />
<path d="M28.6285 5.3262
L28.6285 5.1834
" />
<path d="M28.6285 5.1834
L28.5809 4.9929
" />
<path d="M28.5809 4.9929
L28.5333 4.8977
" />
<path d="M28.5333 4.8977
L28.4380 4.8024
" />
<path d="M28.4380 4.8024
L28.2952 4.7548
" />
<path d="M28.2952 4.7548
L28.1999 4.7548
" />
<path d="M28.1999 4.7548
L28.0571 4.8024
" />
<path d="M28.0571 4.8024
L28.0095 4.8501
" />
<path d="M27.6285 4.8501
L27.5809 4.8024
" />
<path d="M27.5809 4.8024
L27.4857 4.7548
" />
<path d="M27.4857 4.7548
L27.2476 4.7548
" />
<path d="M27.2476 4.7548
L27.1523 4.8024
" />
<path d="M27.1523 4.8024
L27.1047 4.8501
" />
<path d="M27.1047 4.8501
L27.0571 4.9453
" />
<path d="M27.0571 4.9453
L27.0571 5.0405
" />
<path d="M27.0571 5.0405
L27.1047 5.1834
" />
<path d="M27.1047 5.1834
L27.6761 5.7548
" />
<path d="M27.6761 5.7548
L27.0571 5.7548
" />
</g><text x="21.7928" y="15.1000"
transform="scale(-1 1) translate(-43.585600 0)"
textLength="2.2024" font-size="1.3333" lengthAdjust="spacingAndGlyphs"
text-anchor="middle" opacity="0" stroke-opacity="0">D1</text>
<g class="stroked-text"><desc>D1</desc>
<path d="M22.5309 15.0548
L22.5309 14.0548
" />
<path d="M22.5309 14.0548
L22.2928 14.0548
" />
<path d="M22.2928 14.0548
L22.1499 14.1024
" />
<path d="M22.1499 14.1024
L22.0547 14.1977
" />
<path d="M22.0547 14.1977
L22.0071 14.2929
" />
<path d="M22.0071 14.2929
L21.9595 14.4834
" />
<path d="M21.9595 14.4834
L21.9595 14.6262
" />
<path d="M21.9595 14.6262
L22.0071 14.8167
" />
<path d="M22.0071 14.8167
L22.0547 14.9120
" />
<path d="M22.0547 14.9120
L22.1499 15.0072
" />
<path d="M22.1499 15.0072
L22.2928 15.0548
" />
<path d="M22.2928 15.0548
L22.5309 15.0548
" />
<path d="M21.0071 15.0548
L21.5785 15.0548
" />
<path d="M21.2928 15.0548
L21.2928 14.0548
" />
<path d="M21.2928 14.0548
L21.3880 14.1977
" />
<path d="M21.3880 14.1977
L21.4833 14.2929
" />
<path d="M21.4833 14.2929
L21.5785 14.3405
" />
</g><text x="34.3443" y="63.9600"
transform="scale(-1 1) translate(-68.688534 0)"
textLength="2.3452" font-size="1.3333" lengthAdjust="spacingAndGlyphs"
text-anchor="middle" opacity="0" stroke-opacity="0">M5</text>
<g class="stroked-text"><desc>M5</desc>
<path d="M35.1538 63.9148
L35.1538 62.9148
" />
<path d="M35.1538 62.9148
L34.8205 63.6291
" />
<path d="M34.8205 63.6291
L34.4871 62.9148
" />
<path d="M34.4871 62.9148
L34.4871 63.9148
" />
<path d="M33.5347 62.9148
L34.0109 62.9148
" />
<path d="M34.0109 62.9148
L34.0586 63.3910
" />
<path d="M34.0586 63.3910
L34.0109 63.3434
" />
<path d="M34.0109 63.3434
L33.9157 63.2958
" />
<path d="M33.9157 63.2958
L33.6776 63.2958
" />
<path d="M33.6776 63.2958
L33.5824 63.3434
" />
<path d="M33.5824 63.3434
L33.5347 63.3910
" />
<path d="M33.5347 63.3910
L33.4871 63.4862
" />
<path d="M33.4871 63.4862
L33.4871 63.7243
" />
<path d="M33.4871 63.7243
L33.5347 63.8196
" />
<path d="M33.5347 63.8196
L33.5824 63.8672
" />
<path d="M33.5824 63.8672
L33.6776 63.9148
" />
<path d="M33.6776 63.9148
L33.9157 63.9148
" />
<path d="M33.9157 63.9148
L34.0109 63.8672
" />
<path d="M34.0109 63.8672
L34.0586 63.8196
" />
</g><g transform="rotate(90.000000 30.0953 8.0000)">
<text x="30.0953" y="8.5000"
transform="scale(-1 1) translate(-60.190600 0)"
textLength="1.9643" font-size="1.3333" lengthAdjust="spacingAndGlyphs"
text-anchor="middle" opacity="0" stroke-opacity="0">J1</text>
</g>
<g class="stroked-text"><desc>J1</desc>
<path d="M30.6405 8.3333
L29.9262 8.3333
" />
<path d="M29.9262 8.3333
L29.7833 8.3810
" />
<path d="M29.7833 8.3810
L29.6881 8.4762
" />
<path d="M29.6881 8.4762
L29.6405 8.6190
" />
<path d="M29.6405 8.6190
L29.6405 8.7143
" />
<path d="M29.6405 7.3333
L29.6405 7.9048
" />
<path d="M29.6405 7.6190
L30.6405 7.6190
" />
<path d="M30.6405 7.6190
L30.4976 7.7143
" />
<path d="M30.4976 7.7143
L30.4024 7.8095
" />
<path d="M30.4024 7.8095
L30.3548 7.9048
" />
</g></g>
<g style="fill:none; 
stroke:#000000; stroke-width:0.1200; stroke-opacity:1; 
stroke-linecap:round; stroke-linejoin:round;">
<path d="M30.8728 17.8700
L29.4928 17.8700
" />
<path d="M30.8728 19.2500
L30.8728 17.8700
" />
<path d="M30.8728 20.5200
L30.8728 20.6300
" />
<path d="M30.8728 20.5200
L28.1128 20.5200
" />
<path d="M30.8728 20.6300
L28.1128 20.6300
" />
<path d="M28.1128 20.5200
L28.1128 20.6300
" />
<path d="M34.3728 17.8700
L32.9928 17.8700
" />
<path d="M34.3728 19.2500
L34.3728 17.8700
" />
<path d="M34.3728 20.5200
L34.3728 20.6300
" />
<path d="M34.3728 20.5200
L31.6128 20.5200
" />
<path d="M34.3728 20.6300
L31.6128 20.6300
" />
<path d="M31.6128 20.5200
L31.6128 20.6300
" />
<path d="M27.8728 45.4800
L27.8728 40.2900
" />
<path d="M25.1128 40.2900
L27.8728 40.2900
" />
<path d="M25.1128 45.4800
L27.8728 45.4800
" />
<path d="M25.1128 45.4800
L25.1128 40.2900
" />
<path d="M25.1128 46.7500
L25.1128 48.1300
" />
<path d="M25.1128 48.1300
L26.4928 48.1300
" />
<path d="M22.6228 30.9800
L22.6228 25.7900
" />
<path d="M19.8628 25.7900
L22.6228 25.7900
" />
<path d="M19.8628 30.9800
L22.6228 30.9800
" />
<path d="M19.8628 30.9800
L19.8628 25.7900
" />
<path d="M19.8628 32.2500
L19.8628 33.6300
" />
<path d="M19.8628 33.6300
L21.2428 33.6300
" />
<path d="M8.9728 33.2100
L2.5128 33.2100
" />
<path d="M8.9728 33.2500
L2.5128 33.2500
" />
<path d="M8.9718 33.1700
L2.5138 33.1700
" />
<path d="M8.9708 33.1300
L2.5148 33.1300
" />
<path d="M8.9688 33.0900
L2.5168 33.0900
" />
<path d="M8.9668 33.0500
L2.5188 33.0500
" />
<path d="M8.9638 33.0100
L6.7828 33.0100
" />
<path d="M8.9608 32.9700
L6.7828 32.9700
" />
<path d="M8.9568 32.9300
L6.7828 32.9300
" />
<path d="M8.9528 32.8900
L6.7828 32.8900
" />
<path d="M8.9478 32.8500
L6.7828 32.8500
" />
<path d="M8.9428 32.8100
L6.7828 32.8100
" />
<path d="M8.9378 32.7700
L6.7828 32.7700
" />
<path d="M8.9308 32.7300
L6.7828 32.7300
" />
<path d="M8.9248 32.6900
L6.7828 32.6900
" />
<path d="M8.9168 32.6500
L6.7828 32.6500
" />
<path d="M8.9098 32.6100
L6.7828 32.6100
" />
<path d="M8.9018 32.5700
L6.7828 32.5700
" />
<path d="M8.8928 32.5300
L6.7828 32.5300
" />
<path d="M8.8828 32.4900
L6.7828 32.4900
" />
<path d="M8.8738 32.4500
L6.7828 32.4500
" />
<path d="M8.8628 32.4100
L6.7828 32.4100
" />
<path d="M8.8518 32.3700
L6.7828 32.3700
" />
<path d="M8.8408 32.3300
L6.7828 32.3300
" />
<path d="M8.8288 32.2900
L6.7828 32.2900
" />
<path d="M8.8158 32.2500
L6.7828 32.2500
" />
<path d="M8.8028 32.2100
L6.7828 32.2100
" />
<path d="M8.7898 32.1700
L6.7828 32.1700
" />
<path d="M8.7748 32.1300
L6.7828 32.1300
" />
<path d="M8.7598 32.0900
L6.7828 32.0900
" />
<path d="M8.7448 32.0500
L6.7828 32.0500
" />
<path d="M8.7288 32.0100
L6.7828 32.0100
" />
<path d="M8.7118 31.9700
L6.7828 31.9700
" />
<path d="M8.6948 31.9300
L6.7828 31.9300
" />
<path d="M8.6768 31.8900
L6.7828 31.8900
" />
<path d="M8.6578 31.8500
L6.7828 31.8500
" />
<path d="M8.6388 31.8100
L6.7828 31.8100
" />
<path d="M8.6188 31.7700
L6.7828 31.7700
" />
<path d="M8.5978 31.7300
L6.7828 31.7300
" />
<path d="M8.5768 31.6900
L6.7828 31.6900
" />
<path d="M8.5548 31.6500
L6.7828 31.6500
" />
<path d="M8.5318 31.6100
L6.7828 31.6100
" />
<path d="M8.5078 31.5700
L6.7828 31.5700
" />
<path d="M8.4838 31.5300
L6.7828 31.5300
" />
<path d="M8.4588 31.4900
L6.7828 31.4900
" />
<path d="M8.4328 31.4500
L6.7828 31.4500
" />
<path d="M8.4058 31.4100
L6.7828 31.4100
" />
<path d="M8.3788 31.3700
L6.7828 31.3700
" />
<path d="M8.3498 31.3300
L6.7828 31.3300
" />
<path d="M8.3198 31.2900
L6.7828 31.2900
" />
<path d="M8.2898 31.2500
L6.7828 31.2500
" />
<path d="M8.2588 31.2100
L6.7828 31.2100
" />
<path d="M8.2258 31.1700
L6.7828 31.1700
" />
<path d="M8.1928 31.1300
L6.7828 31.1300
" />
<path d="M8.1578 31.0900
L6.7828 31.0900
" />
<path d="M8.1218 31.0500
L6.7828 31.0500
" />
<path d="M8.0848 31.0100
L6.7828 31.0100
" />
<path d="M8.0468 30.9700
L6.7828 30.9700
" />
<path d="M8.0068 30.9300
L3.4788 30.9300
" />
<path d="M7.9658 30.8900
L3.5198 30.8900
" />
<path d="M7.9238 30.8500
L3.5618 30.8500
" />
<path d="M7.8968 36.4352
L7.2668 36.4352
" />
<path d="M7.8798 30.8100
L3.6058 30.8100
" />
<path d="M7.8338 30.7700
L3.6518 30.7700
" />
<path d="M7.7868 30.7300
L3.6988 30.7300
" />
<path d="M7.7378 30.6900
L3.7478 30.6900
" />
<path d="M7.6858 30.6500
L3.7998 30.6500
" />
<path d="M7.6328 30.6100
L3.8528 30.6100
" />
<path d="M7.5818 36.7502
L7.5818 36.1202
" />
<path d="M7.5768 30.5700
L3.9088 30.5700
" />
<path d="M7.5178 30.5300
L3.9678 30.5300
" />
<path d="M7.4568 30.4900
L4.0288 30.4900
" />
<path d="M7.3918 30.4500
L4.0938 30.4500
" />
<path d="M7.3238 30.4100
L4.1618 30.4100
" />
<path d="M7.2518 30.3700
L4.2338 30.3700
" />
<path d="M7.1748 30.3300
L4.3108 30.3300
" />
<path d="M7.0928 30.2900
L4.3928 30.2900
" />
<path d="M7.0038 30.2500
L4.4818 30.2500
" />
<path d="M6.9078 30.2100
L4.5778 30.2100
" />
<path d="M6.8008 30.1700
L4.6848 30.1700
" />
<path d="M6.6818 30.1300
L4.8038 30.1300
" />
<path d="M6.5438 30.0900
L4.9418 30.0900
" />
<path d="M6.3758 30.0500
L5.1098 30.0500
" />
<path d="M6.1448 30.0100
L5.3408 30.0100
" />
<path d="M4.7028 30.9700
L3.4388 30.9700
" />
<path d="M4.7028 31.0100
L3.4008 31.0100
" />
<path d="M4.7028 31.0500
L3.3638 31.0500
" />
<path d="M4.7028 31.0900
L3.3278 31.0900
" />
<path d="M4.7028 31.1300
L3.2928 31.1300
" />
<path d="M4.7028 31.1700
L3.2598 31.1700
" />
<path d="M4.7028 31.2100
L3.2268 31.2100
" />
<path d="M4.7028 31.2500
L3.1958 31.2500
" />
<path d="M4.7028 31.2900
L3.1658 31.2900
" />
<path d="M4.7028 31.3300
L3.1358 31.3300
" />
<path d="M4.7028 31.3700
L3.1068 31.3700
" />
<path d="M4.7028 31.4100
L3.0798 31.4100
" />
<path d="M4.7028 31.4500
L3.0528 31.4500
" />
<path d="M4.7028 31.4900
L3.0268 31.4900
" />
<path d="M4.7028 31.5300
L3.0018 31.5300
" />
<path d="M4.7028 31.5700
L2.9778 31.5700
" />
<path d="M4.7028 31.6100
L2.9538 31.6100
" />
<path d="M4.7028 31.6500
L2.9308 31.6500
" />
<path d="M4.7028 31.6900
L2.9088 31.6900
" />
<path d="M4.7028 31.7300
L2.8878 31.7300
" />
<path d="M4.7028 31.7700
L2.8668 31.7700
" />
<path d="M4.7028 31.8100
L2.8468 31.8100
" />
<path d="M4.7028 31.8500
L2.8278 31.8500
" />
<path d="M4.7028 31.8900
L2.8088 31.8900
" />
<path d="M4.7028 31.9300
L2.7908 31.9300
" />
<path d="M4.7028 31.9700
L2.7738 31.9700
" />
<path d="M4.7028 32.0100
L2.7568 32.0100
" />
<path d="M4.7028 32.0500
L2.7408 32.0500
" />
<path d="M4.7028 32.0900
L2.7258 32.0900
" />
<path d="M4.7028 32.1300
L2.7108 32.1300
" />
<path d="M4.7028 32.1700
L2.6958 32.1700
" />
<path d="M4.7028 32.2100
L2.6828 32.2100
" />
<path d="M4.7028 32.2500
L2.6698 32.2500
" />
<path d="M4.7028 32.2900
L2.6568 32.2900
" />
<path d="M4.7028 32.3300
L2.6448 32.3300
" />
<path d="M4.7028 32.3700
L2.6338 32.3700
" />
<path d="M4.7028 32.4100
L2.6228 32.4100
" />
<path d="M4.7028 32.4500
L2.6118 32.4500
" />
<path d="M4.7028 32.4900
L2.6028 32.4900
" />
<path d="M4.7028 32.5300
L2.5928 32.5300
" />
<path d="M4.7028 32.5700
L2.5838 32.5700
" />
<path d="M4.7028 32.6100
L2.5758 32.6100
" />
<path d="M4.7028 32.6500
L2.5688 32.6500
" />
<path d="M4.7028 32.6900
L2.5608 32.6900
" />
<path d="M4.7028 32.7300
L2.5548 32.7300
" />
<path d="M4.7028 32.7700
L2.5478 32.7700
" />
<path d="M4.7028 32.8100
L2.5428 32.8100
" />
<path d="M4.7028 32.8500
L2.5378 32.8500
" />
<path d="M4.7028 32.8900
L2.5328 32.8900
" />
<path d="M4.7028 32.9300
L2.5288 32.9300
" />
<path d="M4.7028 32.9700
L2.5248 32.9700
" />
<path d="M4.7028 33.0100
L2.5218 33.0100
" />
<circle cx="5.7428" cy="33.2500" r="3.2700" /> 
<path d="M31.7985 73.8100
L31.7985 68.6200
" />
<path d="M29.0385 68.6200
L31.7985 68.6200
" />
<path d="M29.0385 73.8100
L31.7985 73.8100
" />
<path d="M29.0385 73.8100
L29.0385 68.6200
" />
<path d="M29.0385 75.0800
L29.0385 76.4600
" />
<path d="M29.0385 76.4600
L30.4185 76.4600
" />
<path d="M31.7985 45.4800
L31.7985 40.2900
" />
<path d="M29.0385 40.2900
L31.7985 40.2900
" />
<path d="M29.0385 45.4800
L31.7985 45.4800
" />
<path d="M29.0385 45.4800
L29.0385 40.2900
" />
<path d="M29.0385 46.7500
L29.0385 48.1300
" />
<path d="M29.0385 48.1300
L30.4185 48.1300
" />
<path d="M35.7243 68.6200
L34.3443 68.6200
" />
<path d="M35.7243 70.0000
L35.7243 68.6200
" />
<path d="M35.7243 71.2700
L35.7243 76.4600
" />
<path d="M35.7243 71.2700
L32.9643 71.2700
" />
<path d="M35.7243 76.4600
L32.9643 76.4600
" />
<path d="M32.9643 71.2700
L32.9643 76.4600
" />
<path d="M16.9728 8.2100
L10.5128 8.2100
" />
<path d="M16.9728 8.2500
L10.5128 8.2500
" />
<path d="M16.9718 8.1700
L10.5138 8.1700
" />
<path d="M16.9708 8.1300
L10.5148 8.1300
" />
<path d="M16.9688 8.0900
L10.5168 8.0900
" />
<path d="M16.9668 8.0500
L10.5188 8.0500
" />
<path d="M16.9638 8.0100
L14.7828 8.0100
" />
<path d="M16.9608 7.9700
L14.7828 7.9700
" />
<path d="M16.9568 7.9300
L14.7828 7.9300
" />
<path d="M16.9528 7.8900
L14.7828 7.8900
" />
<path d="M16.9478 7.8500
L14.7828 7.8500
" />
<path d="M16.9428 7.8100
L14.7828 7.8100
" />
<path d="M16.9378 7.7700
L14.7828 7.7700
" />
<path d="M16.9308 7.7300
L14.7828 7.7300
" />
<path d="M16.9248 7.6900
L14.7828 7.6900
" />
<path d="M16.9168 7.6500
L14.7828 7.6500
" />
<path d="M16.9098 7.6100
L14.7828 7.6100
" />
<path d="M16.9018 7.5700
L14.7828 7.5700
" />
<path d="M16.8928 7.5300
L14.7828 7.5300
" />
<path d="M16.8828 7.4900
L14.7828 7.4900
" />
<path d="M16.8738 7.4500
L14.7828 7.4500
" />
<path d="M16.8628 7.4100
L14.7828 7.4100
" />
<path d="M16.8518 7.3700
L14.7828 7.3700
" />
<path d="M16.8408 7.3300
L14.7828 7.3300
" />
<path d="M16.8288 7.2900
L14.7828 7.2900
" />
<path d="M16.8158 7.2500
L14.7828 7.2500
" />
<path d="M16.8028 7.2100
L14.7828 7.2100
" />
<path d="M16.7898 7.1700
L14.7828 7.1700
" />
<path d="M16.7748 7.1300
L14.7828 7.1300
" />
<path d="M16.7598 7.0900
L14.7828 7.0900
" />
<path d="M16.7448 7.0500
L14.7828 7.0500
" />
<path d="M16.7288 7.0100
L14.7828 7.0100
" />
<path d="M16.7118 6.9700
L14.7828 6.9700
" />
<path d="M16.6948 6.9300
L14.7828 6.9300
" />
<path d="M16.6768 6.8900
L14.7828 6.8900
" />
<path d="M16.6578 6.8500
L14.7828 6.8500
" />
<path d="M16.6388 6.8100
L14.7828 6.8100
" />
<path d="M16.6188 6.7700
L14.7828 6.7700
" />
<path d="M16.5978 6.7300
L14.7828 6.7300
" />
<path d="M16.5768 6.6900
L14.7828 6.6900
" />
<path d="M16.5548 6.6500
L14.7828 6.6500
" />
<path d="M16.5318 6.6100
L14.7828 6.6100
" />
<path d="M16.5078 6.5700
L14.7828 6.5700
" />
<path d="M16.4838 6.5300
L14.7828 6.5300
" />
<path d="M16.4588 6.4900
L14.7828 6.4900
" />
<path d="M16.4328 6.4500
L14.7828 6.4500
" />
<path d="M16.4058 6.4100
L14.7828 6.4100
" />
<path d="M16.3788 6.3700
L14.7828 6.3700
" />
<path d="M16.3498 6.3300
L14.7828 6.3300
" />
<path d="M16.3198 6.2900
L14.7828 6.2900
" />
<path d="M16.2898 6.2500
L14.7828 6.2500
" />
<path d="M16.2588 6.2100
L14.7828 6.2100
" />
<path d="M16.2258 6.1700
L14.7828 6.1700
" />
<path d="M16.1928 6.1300
L14.7828 6.1300
" />
<path d="M16.1578 6.0900
L14.7828 6.0900
" />
<path d="M16.1218 6.0500
L14.7828 6.0500
" />
<path d="M16.0848 6.0100
L14.7828 6.0100
" />
<path d="M16.0468 5.9700
L14.7828 5.9700
" />
<path d="M16.0068 5.9300
L11.4788 5.9300
" />
<path d="M15.9658 5.8900
L11.5198 5.8900
" />
<path d="M15.9238 5.8500
L11.5618 5.8500
" />
<path d="M15.8968 11.4352
L15.2668 11.4352
" />
<path d="M15.8798 5.8100
L11.6058 5.8100
" />
<path d="M15.8338 5.7700
L11.6518 5.7700
" />
<path d="M15.7868 5.7300
L11.6988 5.7300
" />
<path d="M15.7378 5.6900
L11.7478 5.6900
" />
<path d="M15.6858 5.6500
L11.7998 5.6500
" />
<path d="M15.6328 5.6100
L11.8528 5.6100
" />
<path d="M15.5818 11.7502
L15.5818 11.1202
" />
<path d="M15.5768 5.5700
L11.9088 5.5700
" />
<path d="M15.5178 5.5300
L11.9678 5.5300
" />
<path d="M15.4568 5.4900
L12.0288 5.4900
" />
<path d="M15.3918 5.4500
L12.0938 5.4500
" />
<path d="M15.3238 5.4100
L12.1618 5.4100
" />
<path d="M15.2518 5.3700
L12.2338 5.3700
" />
<path d="M15.1748 5.3300
L12.3108 5.3300
" />
<path d="M15.0928 5.2900
L12.3928 5.2900
" />
<path d="M15.0038 5.2500
L12.4818 5.2500
" />
<path d="M14.9078 5.2100
L12.5778 5.2100
" />
<path d="M14.8008 5.1700
L12.6848 5.1700
" />
<path d="M14.6818 5.1300
L12.8038 5.1300
" />
<path d="M14.5438 5.0900
L12.9418 5.0900
" />
<path d="M14.3758 5.0500
L13.1098 5.0500
" />
<path d="M14.1448 5.0100
L13.3408 5.0100
" />
<path d="M12.7028 5.9700
L11.4388 5.9700
" />
<path d="M12.7028 6.0100
L11.4008 6.0100
" />
<path d="M12.7028 6.0500
L11.3638 6.0500
" />
<path d="M12.7028 6.0900
L11.3278 6.0900
" />
<path d="M12.7028 6.1300
L11.2928 6.1300
" />
<path d="M12.7028 6.1700
L11.2598 6.1700
" />
<path d="M12.7028 6.2100
L11.2268 6.2100
" />
<path d="M12.7028 6.2500
L11.1958 6.2500
" />
<path d="M12.7028 6.2900
L11.1658 6.2900
" />
<path d="M12.7028 6.3300
L11.1358 6.3300
" />
<path d="M12.7028 6.3700
L11.1068 6.3700
" />
<path d="M12.7028 6.4100
L11.0798 6.4100
" />
<path d="M12.7028 6.4500
L11.0528 6.4500
" />
<path d="M12.7028 6.4900
L11.0268 6.4900
" />
<path d="M12.7028 6.5300
L11.0018 6.5300
" />
<path d="M12.7028 6.5700
L10.9778 6.5700
" />
<path d="M12.7028 6.6100
L10.9538 6.6100
" />
<path d="M12.7028 6.6500
L10.9308 6.6500
" />
<path d="M12.7028 6.6900
L10.9088 6.6900
" />
<path d="M12.7028 6.7300
L10.8878 6.7300
" />
<path d="M12.7028 6.7700
L10.8668 6.7700
" />
<path d="M12.7028 6.8100
L10.8468 6.8100
" />
<path d="M12.7028 6.8500
L10.8278 6.8500
" />
<path d="M12.7028 6.8900
L10.8088 6.8900
" />
<path d="M12.7028 6.9300
L10.7908 6.9300
" />
<path d="M12.7028 6.9700
L10.7738 6.9700
" />
<path d="M12.7028 7.0100
L10.7568 7.0100
" />
<path d="M12.7028 7.0500
L10.7408 7.0500
" />
<path d="M12.7028 7.0900
L10.7258 7.0900
" />
<path d="M12.7028 7.1300
L10.7108 7.1300
" />
<path d="M12.7028 7.1700
L10.6958 7.1700
" />
<path d="M12.7028 7.2100
L10.6828 7.2100
" />
<path d="M12.7028 7.2500
L10.6698 7.2500
" />
<path d="M12.7028 7.2900
L10.6568 7.2900
" />
<path d="M12.7028 7.3300
L10.6448 7.3300
" />
<path d="M12.7028 7.3700
L10.6338 7.3700
" />
<path d="M12.7028 7.4100
L10.6228 7.4100
" />
<path d="M12.7028 7.4500
L10.6118 7.4500
" />
<path d="M12.7028 7.4900
L10.6028 7.4900
" />
<path d="M12.7028 7.5300
L10.5928 7.5300
" />
<path d="M12.7028 7.5700
L10.5838 7.5700
" />
<path d="M12.7028 7.6100
L10.5758 7.6100
" />
<path d="M12.7028 7.6500
L10.5688 7.6500
" />
<path d="M12.7028 7.6900
L10.5608 7.6900
" />
<path d="M12.7028 7.7300
L10.5548 7.7300
" />
<path d="M12.7028 7.7700
L10.5478 7.7700
" />
<path d="M12.7028 7.8100
L10.5428 7.8100
" />
<path d="M12.7028 7.8500
L10.5378 7.8500
" />
<path d="M12.7028 7.8900
L10.5328 7.8900
" />
<path d="M12.7028 7.9300
L10.5288 7.9300
" />
<path d="M12.7028 7.9700
L10.5248 7.9700
" />
<path d="M12.7028 8.0100
L10.5218 8.0100
" />
<circle cx="13.7428" cy="8.2500" r="3.2700" /> 
<path d="M27.8728 59.8100
L27.8728 54.6200
" />
<path d="M25.1128 54.6200
L27.8728 54.6200
" />
<path d="M25.1128 59.8100
L27.8728 59.8100
" />
<path d="M25.1128 59.8100
L25.1128 54.6200
" />
<path d="M25.1128 61.0800
L25.1128 62.4600
" />
<path d="M25.1128 62.4600
L26.4928 62.4600
" />
<path d="M27.1228 30.9800
L27.1228 25.7900
" />
<path d="M24.3628 25.7900
L27.1228 25.7900
" />
<path d="M24.3628 30.9800
L27.1228 30.9800
" />
<path d="M24.3628 30.9800
L24.3628 25.7900
" />
<path d="M24.3628 32.2500
L24.3628 33.6300
" />
<path d="M24.3628 33.6300
L25.7428 33.6300
" />
<path d="M22.3928 37.9000
L22.3928 40.5700
" />
<path d="M22.3928 43.1100
L22.3928 81.3400
" />
<path d="M22.3928 81.3400
L17.3128 81.3400
" />
<path d="M19.7228 40.5700
L22.3928 40.5700
" />
<path d="M19.7228 43.1100
L22.3928 43.1100
" />
<path d="M19.7228 43.1100
L19.7228 40.5700
" />
<path d="M19.7228 43.1100
L19.7228 78.6700
" />
<path d="M19.7228 78.6700
L22.3928 78.6700
" />
<path d="M17.3128 73.4600
L9.4328 73.4600
" />
<path d="M17.3128 83.8800
L17.3128 73.4600
" />
<path d="M9.4328 73.4600
L9.4328 83.8800
" />
<path d="M9.4328 83.8800
L17.3128 83.8800
" />
<path d="M7.0228 40.5700
L7.0228 78.6700
" />
<path d="M7.0228 40.5700
L4.3528 40.5700
" />
<path d="M7.0228 78.6700
L4.3528 78.6700
" />
<path d="M4.3528 37.9000
L22.3928 37.9000
" />
<path d="M4.3528 81.3400
L9.4328 81.3400
" />
<path d="M4.3528 81.3400
L4.3528 37.9000
" />
<path d="M15.4928 18.3800
L15.4928 18.3100
" />
<circle cx="15.4928" cy="19.7500" r="1.3700" /> 
<path d="M27.8728 73.8100
L27.8728 68.6200
" />
<path d="M25.1128 68.6200
L27.8728 68.6200
" />
<path d="M25.1128 73.8100
L27.8728 73.8100
" />
<path d="M25.1128 73.8100
L25.1128 68.6200
" />
<path d="M25.1128 75.0800
L25.1128 76.4600
" />
<path d="M25.1128 76.4600
L26.4928 76.4600
" />
<path d="M17.8728 30.9800
L17.8728 25.7900
" />
<path d="M15.1128 25.7900
L17.8728 25.7900
" />
<path d="M15.1128 30.9800
L17.8728 30.9800
" />
<path d="M15.1128 30.9800
L15.1128 25.7900
" />
<path d="M15.1128 32.2500
L15.1128 33.6300
" />
<path d="M15.1128 33.6300
L16.4928 33.6300
" />
<path d="M13.3728 30.9800
L13.3728 25.7900
" />
<path d="M10.6128 25.7900
L13.3728 25.7900
" />
<path d="M10.6128 30.9800
L13.3728 30.9800
" />
<path d="M10.6128 30.9800
L10.6128 25.7900
" />
<path d="M10.6128 32.2500
L10.6128 33.6300
" />
<path d="M10.6128 33.6300
L11.9928 33.6300
" />
<path d="M31.7985 59.8100
L31.7985 54.6200
" />
<path d="M29.0385 54.6200
L31.7985 54.6200
" />
<path d="M29.0385 59.8100
L31.7985 59.8100
" />
<path d="M29.0385 59.8100
L29.0385 54.6200
" />
<path d="M29.0385 61.0800
L29.0385 62.4600
" />
<path d="M29.0385 62.4600
L30.4185 62.4600
" />
<path d="M26.9728 8.2100
L20.5128 8.2100
" />
<path d="M26.9728 8.2500
L20.5128 8.2500
" />
<path d="M26.9718 8.1700
L20.5138 8.1700
" />
<path d="M26.9708 8.1300
L20.5148 8.1300
" />
<path d="M26.9688 8.0900
L20.5168 8.0900
" />
<path d="M26.9668 8.0500
L20.5188 8.0500
" />
<path d="M26.9638 8.0100
L24.7828 8.0100
" />
<path d="M26.9608 7.9700
L24.7828 7.9700
" />
<path d="M26.9568 7.9300
L24.7828 7.9300
" />
<path d="M26.9528 7.8900
L24.7828 7.8900
" />
<path d="M26.9478 7.8500
L24.7828 7.8500
" />
<path d="M26.9428 7.8100
L24.7828 7.8100
" />
<path d="M26.9378 7.7700
L24.7828 7.7700
" />
<path d="M26.9308 7.7300
L24.7828 7.7300
" />
<path d="M26.9248 7.6900
L24.7828 7.6900
" />
<path d="M26.9168 7.6500
L24.7828 7.6500
" />
<path d="M26.9098 7.6100
L24.7828 7.6100
" />
<path d="M26.9018 7.5700
L24.7828 7.5700
" />
<path d="M26.8928 7.5300
L24.7828 7.5300
" />
<path d="M26.8828 7.4900
L24.7828 7.4900
" />
<path d="M26.8738 7.4500
L24.7828 7.4500
" />
<path d="M26.8628 7.4100
L24.7828 7.4100
" />
<path d="M26.8518 7.3700
L24.7828 7.3700
" />
<path d="M26.8408 7.3300
L24.7828 7.3300
" />
<path d="M26.8288 7.2900
L24.7828 7.2900
" />
<path d="M26.8158 7.2500
L24.7828 7.2500
" />
<path d="M26.8028 7.2100
L24.7828 7.2100
" />
<path d="M26.7898 7.1700
L24.7828 7.1700
" />
<path d="M26.7748 7.1300
L24.7828 7.1300
" />
<path d="M26.7598 7.0900
L24.7828 7.0900
" />
<path d="M26.7448 7.0500
L24.7828 7.0500
" />
<path d="M26.7288 7.0100
L24.7828 7.0100
" />
<path d="M26.7118 6.9700
L24.7828 6.9700
" />
<path d="M26.6948 6.9300
L24.7828 6.9300
" />
<path d="M26.6768 6.8900
L24.7828 6.8900
" />
<path d="M26.6578 6.8500
L24.7828 6.8500
" />
<path d="M26.6388 6.8100
L24.7828 6.8100
" />
<path d="M26.6188 6.7700
L24.7828 6.7700
" />
<path d="M26.5978 6.7300
L24.7828 6.7300
" />
<path d="M26.5768 6.6900
L24.7828 6.6900
" />
<path d="M26.5548 6.6500
L24.7828 6.6500
" />
<path d="M26.5318 6.6100
L24.7828 6.6100
" />
<path d="M26.5078 6.5700
L24.7828 6.5700
" />
<path d="M26.4838 6.5300
L24.7828 6.5300
" />
<path d="M26.4588 6.4900
L24.7828 6.4900
" />
<path d="M26.4328 6.4500
L24.7828 6.4500
" />
<path d="M26.4058 6.4100
L24.7828 6.4100
" />
<path d="M26.3788 6.3700
L24.7828 6.3700
" />
<path d="M26.3498 6.3300
L24.7828 6.3300
" />
<path d="M26.3198 6.2900
L24.7828 6.2900
" />
<path d="M26.2898 6.2500
L24.7828 6.2500
" />
<path d="M26.2588 6.2100
L24.7828 6.2100
" />
<path d="M26.2258 6.1700
L24.7828 6.1700
" />
<path d="M26.1928 6.1300
L24.7828 6.1300
" />
<path d="M26.1578 6.0900
L24.7828 6.0900
" />
<path d="M26.1218 6.0500
L24.7828 6.0500
" />
<path d="M26.0848 6.0100
L24.7828 6.0100
" />
<path d="M26.0468 5.9700
L24.7828 5.9700
" />
<path d="M26.0068 5.9300
L21.4788 5.9300
" />
<path d="M25.9658 5.8900
L21.5198 5.8900
" />
<path d="M25.9238 5.8500
L21.5618 5.8500
" />
<path d="M25.8968 11.4352
L25.2668 11.4352
" />
<path d="M25.8798 5.8100
L21.6058 5.8100
" />
<path d="M25.8338 5.7700
L21.6518 5.7700
" />
<path d="M25.7868 5.7300
L21.6988 5.7300
" />
<path d="M25.7378 5.6900
L21.7478 5.6900
" />
<path d="M25.6858 5.6500
L21.7998 5.6500
" />
<path d="M25.6328 5.6100
L21.8528 5.6100
" />
<path d="M25.5818 11.7502
L25.5818 11.1202
" />
<path d="M25.5768 5.5700
L21.9088 5.5700
" />
<path d="M25.5178 5.5300
L21.9678 5.5300
" />
<path d="M25.4568 5.4900
L22.0288 5.4900
" />
<path d="M25.3918 5.4500
L22.0938 5.4500
" />
<path d="M25.3238 5.4100
L22.1618 5.4100
" />
<path d="M25.2518 5.3700
L22.2338 5.3700
" />
<path d="M25.1748 5.3300
L22.3108 5.3300
" />
<path d="M25.0928 5.2900
L22.3928 5.2900
" />
<path d="M25.0038 5.2500
L22.4818 5.2500
" />
<path d="M24.9078 5.2100
L22.5778 5.2100
" />
<path d="M24.8008 5.1700
L22.6848 5.1700
" />
<path d="M24.6818 5.1300
L22.8038 5.1300
" />
<path d="M24.5438 5.0900
L22.9418 5.0900
" />
<path d="M24.3758 5.0500
L23.1098 5.0500
" />
<path d="M24.1448 5.0100
L23.3408 5.0100
" />
<path d="M22.7028 5.9700
L21.4388 5.9700
" />
<path d="M22.7028 6.0100
L21.4008 6.0100
" />
<path d="M22.7028 6.0500
L21.3638 6.0500
" />
<path d="M22.7028 6.0900
L21.3278 6.0900
" />
<path d="M22.7028 6.1300
L21.2928 6.1300
" />
<path d="M22.7028 6.1700
L21.2598 6.1700
" />
<path d="M22.7028 6.2100
L21.2268 6.2100
" />
<path d="M22.7028 6.2500
L21.1958 6.2500
" />
<path d="M22.7028 6.2900
L21.1658 6.2900
" />
<path d="M22.7028 6.3300
L21.1358 6.3300
" />
<path d="M22.7028 6.3700
L21.1068 6.3700
" />
<path d="M22.7028 6.4100
L21.0798 6.4100
" />
<path d="M22.7028 6.4500
L21.0528 6.4500
" />
<path d="M22.7028 6.4900
L21.0268 6.4900
" />
<path d="M22.7028 6.5300
L21.0018 6.5300
" />
<path d="M22.7028 6.5700
L20.9778 6.5700
" />
<path d="M22.7028 6.6100
L20.9538 6.6100
" />
<path d="M22.7028 6.6500
L20.9308 6.6500
" />
<path d="M22.7028 6.6900
L20.9088 6.6900
" />
<path d="M22.7028 6.7300
L20.8878 6.7300
" />
<path d="M22.7028 6.7700
L20.8668 6.7700
" />
<path d="M22.7028 6.8100
L20.8468 6.8100
" />
<path d="M22.7028 6.8500
L20.8278 6.8500
" />
<path d="M22.7028 6.8900
L20.8088 6.8900
" />
<path d="M22.7028 6.9300
L20.7908 6.9300
" />
<path d="M22.7028 6.9700
L20.7738 6.9700
" />
<path d="M22.7028 7.0100
L20.7568 7.0100
" />
<path d="M22.7028 7.0500
L20.7408 7.0500
" />
<path d="M22.7028 7.0900
L20.7258 7.0900
" />
<path d="M22.7028 7.1300
L20.7108 7.1300
" />
<path d="M22.7028 7.1700
L20.6958 7.1700
" />
<path d="M22.7028 7.2100
L20.6828 7.2100
" />
<path d="M22.7028 7.2500
L20.6698 7.2500
" />
<path d="M22.7028 7.2900
L20.6568 7.2900
" />
<path d="M22.7028 7.3300
L20.6448 7.3300
" />
<path d="M22.7028 7.3700
L20.6338 7.3700
" />
<path d="M22.7028 7.4100
L20.6228 7.4100
" />
<path d="M22.7028 7.4500
L20.6118 7.4500
" />
<path d="M22.7028 7.4900
L20.6028 7.4900
" />
<path d="M22.7028 7.5300
L20.5928 7.5300
" />
<path d="M22.7028 7.5700
L20.5838 7.5700
" />
<path d="M22.7028 7.6100
L20.5758 7.6100
" />
<path d="M22.7028 7.6500
L20.5688 7.6500
" />
<path d="M22.7028 7.6900
L20.5608 7.6900
" />
<path d="M22.7028 7.7300
L20.5548 7.7300
" />
<path d="M22.7028 7.7700
L20.5478 7.7700
" />
<path d="M22.7028 7.8100
L20.5428 7.8100
" />
<path d="M22.7028 7.8500
L20.5378 7.8500
" />
<path d="M22.7028 7.8900
L20.5328 7.8900
" />
<path d="M22.7028 7.9300
L20.5288 7.9300
" />
<path d="M22.7028 7.9700
L20.5248 7.9700
" />
<path d="M22.7028 8.0100
L20.5218 8.0100
" />
<circle cx="23.7428" cy="8.2500" r="3.2700" /> 
<path d="M24.3228 17.2050
L24.3228 20.2950
" />
<path d="M24.3228 17.2052 A2.9900 2.9900 0.0 0 0 18.7728 18.7500" />
<path d="M18.7728 18.7500 A2.9900 2.9900 0.0 0 0 24.3228 20.2948" />
<circle cx="21.7628" cy="18.7500" r="2.5000" /> 
<path d="M35.7243 59.8100
L35.7243 54.6200
" />
<path d="M32.9643 54.6200
L35.7243 54.6200
" />
<path d="M32.9643 59.8100
L35.7243 59.8100
" />
<path d="M32.9643 59.8100
L32.9643 54.6200
" />
<path d="M32.9643 61.0800
L32.9643 62.4600
" />
<path d="M32.9643 62.4600
L34.3443 62.4600
" />
<path d="M31.0953 2.8800
L31.0953 13.1200
" />
<path d="M34.1153 2.8800
L34.1153 13.1200
" />
<path d="M39.0153 2.8800
L39.0153 13.1200
" />
<path d="M40.5153 2.8800
L40.5153 13.1200
" />
<path d="M41.1353 2.8800
L31.0953 2.8800
" />
<path d="M41.1353 5.2000
L41.1353 2.8800
" />
<path d="M31.0953 13.1200
L41.1353 13.1200
" />
<path d="M41.1353 13.1200
L41.1353 5.8000
" />
<path style="fill:none; 
stroke:#000000; stroke-width:0.1200; stroke-opacity:1; 
stroke-linecap:round; stroke-linejoin:round;fill:none"
d="M 41.1353,5.5000
41.7453,5.9400
41.7453,5.0600
Z" /> 
<path style="fill:#000000; fill-opacity:1.0000; stroke:none;fill-rule:evenodd;"
d="M 41.1353,5.5000
41.7453,5.9400
41.7453,5.0600
Z" /> 
<path style="fill:none; 
stroke:#000000; stroke-width:0.1000; stroke-opacity:1; 
stroke-linecap:round; stroke-linejoin:round;fill:none"
d="M 43.9928,0.0000
-0.0072,0.0000
-0.0072,85.0000
43.9928,85.0000
Z" /> 
</g> 
</svg>
