<?xml version="1.0" standalone="no"?>
 <!DOCTYPE svg PUBLIC "-//W3C//DTD SVG 1.1//EN" 
 "http://www.w3.org/Graphics/SVG/1.1/DTD/svg11.dtd"> 
<svg
  xmlns:svg="http://www.w3.org/2000/svg"
  xmlns="http://www.w3.org/2000/svg"
  xmlns:xlink="http://www.w3.org/1999/xlink"
  xmlns:inkscape="http://www.inkscape.org/namespaces/inkscape"
  version="1.1"
  width="43.9928mm" height="84.9884mm" viewBox="0.0000 0.0000 43.9928 84.9884">
<title>SVG Image created as nano_IPBL_2026-F_Silkscreen.svg date 2026-07-17T14:35:31 </title>
  <desc>Image generated by PCBNEW </desc>
<g style="fill:#000000; fill-opacity:1.0000;stroke:#000000; stroke-opacity:1.0000;
stroke-linecap:round; stroke-linejoin:round;"
 transform="translate(0 0) scale(1 1)">
</g>
<g style="fill:none; 
stroke:#000000; stroke-width:0.3000; stroke-opacity:1; 
stroke-linecap:round; stroke-linejoin:round;">
<text x="27.0000" y="7.2000"
textLength="16.6000" font-size="2.0000" lengthAdjust="spacingAndGlyphs"
text-anchor="start" opacity="0" stroke-opacity="0">Nano - Motor</text>
<g class="stroked-text"><desc>Nano - Motor</desc>
<path d="M27.5545 7.0008
L27.5545 5.5008
" />
<path d="M27.5545 5.5008
L28.4117 7.0008
" />
<path d="M28.4117 7.0008
L28.4117 5.5008
" />
<path d="M29.7688 7.0008
L29.7688 6.2151
" />
<path d="M29.7688 6.2151
L29.6974 6.0723
" />
<path d="M29.6974 6.0723
L29.5545 6.0008
" />
<path d="M29.5545 6.0008
L29.2688 6.0008
" />
<path d="M29.2688 6.0008
L29.1259 6.0723
" />
<path d="M29.7688 6.9294
L29.6259 7.0008
" />
<path d="M29.6259 7.0008
L29.2688 7.0008
" />
<path d="M29.2688 7.0008
L29.1259 6.9294
" />
<path d="M29.1259 6.9294
L29.0545 6.7865
" />
<path d="M29.0545 6.7865
L29.0545 6.6437
" />
<path d="M29.0545 6.6437
L29.1259 6.5008
" />
<path d="M29.1259 6.5008
L29.2688 6.4294
" />
<path d="M29.2688 6.4294
L29.6259 6.4294
" />
<path d="M29.6259 6.4294
L29.7688 6.3580
" />
<path d="M30.4831 6.0008
L30.4831 7.0008
" />
<path d="M30.4831 6.1437
L30.5545 6.0723
" />
<path d="M30.5545 6.0723
L30.6974 6.0008
" />
<path d="M30.6974 6.0008
L30.9117 6.0008
" />
<path d="M30.9117 6.0008
L31.0545 6.0723
" />
<path d="M31.0545 6.0723
L31.1259 6.2151
" />
<path d="M31.1259 6.2151
L31.1259 7.0008
" />
<path d="M32.0545 7.0008
L31.9117 6.9294
" />
<path d="M31.9117 6.9294
L31.8402 6.8580
" />
<path d="M31.8402 6.8580
L31.7688 6.7151
" />
<path d="M31.7688 6.7151
L31.7688 6.2865
" />
<path d="M31.7688 6.2865
L31.8402 6.1437
" />
<path d="M31.8402 6.1437
L31.9117 6.0723
" />
<path d="M31.9117 6.0723
L32.0545 6.0008
" />
<path d="M32.0545 6.0008
L32.2688 6.0008
" />
<path d="M32.2688 6.0008
L32.4117 6.0723
" />
<path d="M32.4117 6.0723
L32.4831 6.1437
" />
<path d="M32.4831 6.1437
L32.5545 6.2865
" />
<path d="M32.5545 6.2865
L32.5545 6.7151
" />
<path d="M32.5545 6.7151
L32.4831 6.8580
" />
<path d="M32.4831 6.8580
L32.4117 6.9294
" />
<path d="M32.4117 6.9294
L32.2688 7.0008
" />
<path d="M32.2688 7.0008
L32.0545 7.0008
" />
<path d="M34.3402 6.4294
L35.4831 6.4294
" />
<path d="M37.3402 7.0008
L37.3402 5.5008
" />
<path d="M37.3402 5.5008
L37.8402 6.5723
" />
<path d="M37.8402 6.5723
L38.3402 5.5008
" />
<path d="M38.3402 5.5008
L38.3402 7.0008
" />
<path d="M39.2688 7.0008
L39.1259 6.9294
" />
<path d="M39.1259 6.9294
L39.0545 6.8580
" />
<path d="M39.0545 6.8580
L38.9831 6.7151
" />
<path d="M38.9831 6.7151
L38.9831 6.2865
" />
<path d="M38.9831 6.2865
L39.0545 6.1437
" />
<path d="M39.0545 6.1437
L39.1259 6.0723
" />
<path d="M39.1259 6.0723
L39.2688 6.0008
" />
<path d="M39.2688 6.0008
L39.4831 6.0008
" />
<path d="M39.4831 6.0008
L39.6259 6.0723
" />
<path d="M39.6259 6.0723
L39.6974 6.1437
" />
<path d="M39.6974 6.1437
L39.7688 6.2865
" />
<path d="M39.7688 6.2865
L39.7688 6.7151
" />
<path d="M39.7688 6.7151
L39.6974 6.8580
" />
<path d="M39.6974 6.8580
L39.6259 6.9294
" />
<path d="M39.6259 6.9294
L39.4831 7.0008
" />
<path d="M39.4831 7.0008
L39.2688 7.0008
" />
<path d="M40.1974 6.0008
L40.7688 6.0008
" />
<path d="M40.4117 5.5008
L40.4117 6.7865
" />
<path d="M40.4117 6.7865
L40.4831 6.9294
" />
<path d="M40.4831 6.9294
L40.6259 7.0008
" />
<path d="M40.6259 7.0008
L40.7688 7.0008
" />
<path d="M41.4831 7.0008
L41.3402 6.9294
" />
<path d="M41.3402 6.9294
L41.2688 6.8580
" />
<path d="M41.2688 6.8580
L41.1974 6.7151
" />
<path d="M41.1974 6.7151
L41.1974 6.2865
" />
<path d="M41.1974 6.2865
L41.2688 6.1437
" />
<path d="M41.2688 6.1437
L41.3402 6.0723
" />
<path d="M41.3402 6.0723
L41.4831 6.0008
" />
<path d="M41.4831 6.0008
L41.6974 6.0008
" />
<path d="M41.6974 6.0008
L41.8402 6.0723
" />
<path d="M41.8402 6.0723
L41.9117 6.1437
" />
<path d="M41.9117 6.1437
L41.9831 6.2865
" />
<path d="M41.9831 6.2865
L41.9831 6.7151
" />
<path d="M41.9831 6.7151
L41.9117 6.8580
" />
<path d="M41.9117 6.8580
L41.8402 6.9294
" />
<path d="M41.8402 6.9294
L41.6974 7.0008
" />
<path d="M41.6974 7.0008
L41.4831 7.0008
" />
<path d="M42.6259 7.0008
L42.6259 6.0008
" />
<path d="M42.6259 6.2865
L42.6974 6.1437
" />
<path d="M42.6974 6.1437
L42.7688 6.0723
" />
<path d="M42.7688 6.0723
L42.9117 6.0008
" />
<path d="M42.9117 6.0008
L43.0545 6.0008
" />
</g><text x="29.8000" y="4.4000"
textLength="12.3857" font-size="2.0000" lengthAdjust="spacingAndGlyphs"
text-anchor="start" opacity="0" stroke-opacity="0">iPBL 2026</text>
<g class="stroked-text"><desc>iPBL 2026</desc>
<path d="M30.3545 4.2008
L30.3545 3.2008
" />
<path d="M30.3545 2.7008
L30.2831 2.7723
" />
<path d="M30.2831 2.7723
L30.3545 2.8437
" />
<path d="M30.3545 2.8437
L30.4259 2.7723
" />
<path d="M30.4259 2.7723
L30.3545 2.7008
" />
<path d="M30.3545 2.7008
L30.3545 2.8437
" />
<path d="M31.0688 4.2008
L31.0688 2.7008
" />
<path d="M31.0688 2.7008
L31.6402 2.7008
" />
<path d="M31.6402 2.7008
L31.7831 2.7723
" />
<path d="M31.7831 2.7723
L31.8545 2.8437
" />
<path d="M31.8545 2.8437
L31.9259 2.9865
" />
<path d="M31.9259 2.9865
L31.9259 3.2008
" />
<path d="M31.9259 3.2008
L31.8545 3.3437
" />
<path d="M31.8545 3.3437
L31.7831 3.4151
" />
<path d="M31.7831 3.4151
L31.6402 3.4865
" />
<path d="M31.6402 3.4865
L31.0688 3.4865
" />
<path d="M33.0688 3.4151
L33.2831 3.4865
" />
<path d="M33.2831 3.4865
L33.3545 3.5580
" />
<path d="M33.3545 3.5580
L33.4259 3.7008
" />
<path d="M33.4259 3.7008
L33.4259 3.9151
" />
<path d="M33.4259 3.9151
L33.3545 4.0580
" />
<path d="M33.3545 4.0580
L33.2831 4.1294
" />
<path d="M33.2831 4.1294
L33.1402 4.2008
" />
<path d="M33.1402 4.2008
L32.5688 4.2008
" />
<path d="M32.5688 4.2008
L32.5688 2.7008
" />
<path d="M32.5688 2.7008
L33.0688 2.7008
" />
<path d="M33.0688 2.7008
L33.2117 2.7723
" />
<path d="M33.2117 2.7723
L33.2831 2.8437
" />
<path d="M33.2831 2.8437
L33.3545 2.9865
" />
<path d="M33.3545 2.9865
L33.3545 3.1294
" />
<path d="M33.3545 3.1294
L33.2831 3.2723
" />
<path d="M33.2831 3.2723
L33.2117 3.3437
" />
<path d="M33.2117 3.3437
L33.0688 3.4151
" />
<path d="M33.0688 3.4151
L32.5688 3.4151
" />
<path d="M34.7831 4.2008
L34.0688 4.2008
" />
<path d="M34.0688 4.2008
L34.0688 2.7008
" />
<path d="M36.3545 2.8437
L36.4259 2.7723
" />
<path d="M36.4259 2.7723
L36.5688 2.7008
" />
<path d="M36.5688 2.7008
L36.9259 2.7008
" />
<path d="M36.9259 2.7008
L37.0688 2.7723
" />
<path d="M37.0688 2.7723
L37.1402 2.8437
" />
<path d="M37.1402 2.8437
L37.2117 2.9865
" />
<path d="M37.2117 2.9865
L37.2117 3.1294
" />
<path d="M37.2117 3.1294
L37.1402 3.3437
" />
<path d="M37.1402 3.3437
L36.2831 4.2008
" />
<path d="M36.2831 4.2008
L37.2117 4.2008
" />
<path d="M38.1402 2.7008
L38.2831 2.7008
" />
<path d="M38.2831 2.7008
L38.4259 2.7723
" />
<path d="M38.4259 2.7723
L38.4974 2.8437
" />
<path d="M38.4974 2.8437
L38.5688 2.9865
" />
<path d="M38.5688 2.9865
L38.6402 3.2723
" />
<path d="M38.6402 3.2723
L38.6402 3.6294
" />
<path d="M38.6402 3.6294
L38.5688 3.9151
" />
<path d="M38.5688 3.9151
L38.4974 4.0580
" />
<path d="M38.4974 4.0580
L38.4259 4.1294
" />
<path d="M38.4259 4.1294
L38.2831 4.2008
" />
<path d="M38.2831 4.2008
L38.1402 4.2008
" />
<path d="M38.1402 4.2008
L37.9974 4.1294
" />
<path d="M37.9974 4.1294
L37.9259 4.0580
" />
<path d="M37.9259 4.0580
L37.8545 3.9151
" />
<path d="M37.8545 3.9151
L37.7831 3.6294
" />
<path d="M37.7831 3.6294
L37.7831 3.2723
" />
<path d="M37.7831 3.2723
L37.8545 2.9865
" />
<path d="M37.8545 2.9865
L37.9259 2.8437
" />
<path d="M37.9259 2.8437
L37.9974 2.7723
" />
<path d="M37.9974 2.7723
L38.1402 2.7008
" />
<path d="M39.2117 2.8437
L39.2831 2.7723
" />
<path d="M39.2831 2.7723
L39.4259 2.7008
" />
<path d="M39.4259 2.7008
L39.7831 2.7008
" />
<path d="M39.7831 2.7008
L39.9259 2.7723
" />
<path d="M39.9259 2.7723
L39.9974 2.8437
" />
<path d="M39.9974 2.8437
L40.0688 2.9865
" />
<path d="M40.0688 2.9865
L40.0688 3.1294
" />
<path d="M40.0688 3.1294
L39.9974 3.3437
" />
<path d="M39.9974 3.3437
L39.1402 4.2008
" />
<path d="M39.1402 4.2008
L40.0688 4.2008
" />
<path d="M41.3545 2.7008
L41.0688 2.7008
" />
<path d="M41.0688 2.7008
L40.9259 2.7723
" />
<path d="M40.9259 2.7723
L40.8545 2.8437
" />
<path d="M40.8545 2.8437
L40.7117 3.0580
" />
<path d="M40.7117 3.0580
L40.6402 3.3437
" />
<path d="M40.6402 3.3437
L40.6402 3.9151
" />
<path d="M40.6402 3.9151
L40.7117 4.0580
" />
<path d="M40.7117 4.0580
L40.7831 4.1294
" />
<path d="M40.7831 4.1294
L40.9259 4.2008
" />
<path d="M40.9259 4.2008
L41.2117 4.2008
" />
<path d="M41.2117 4.2008
L41.3545 4.1294
" />
<path d="M41.3545 4.1294
L41.4259 4.0580
" />
<path d="M41.4259 4.0580
L41.4974 3.9151
" />
<path d="M41.4974 3.9151
L41.4974 3.5580
" />
<path d="M41.4974 3.5580
L41.4259 3.4151
" />
<path d="M41.4259 3.4151
L41.3545 3.3437
" />
<path d="M41.3545 3.3437
L41.2117 3.2723
" />
<path d="M41.2117 3.2723
L40.9259 3.2723
" />
<path d="M40.9259 3.2723
L40.7831 3.3437
" />
<path d="M40.7831 3.3437
L40.7117 3.4151
" />
<path d="M40.7117 3.4151
L40.6402 3.5580
" />
</g><text x="39.4000" y="10.2000"
textLength="3.5286" font-size="2.0000" lengthAdjust="spacingAndGlyphs"
text-anchor="start" opacity="0" stroke-opacity="0">#1</text>
<g class="stroked-text"><desc>#1</desc>
<path d="M39.8831 9.0008
L40.9545 9.0008
" />
<path d="M40.3117 8.3580
L39.8831 10.2865
" />
<path d="M40.8117 9.6437
L39.7402 9.6437
" />
<path d="M40.3831 10.2865
L40.8117 8.3580
" />
<path d="M42.2402 10.0008
L41.3831 10.0008
" />
<path d="M41.8117 10.0008
L41.8117 8.5008
" />
<path d="M41.8117 8.5008
L41.6688 8.7151
" />
<path d="M41.6688 8.7151
L41.5259 8.8580
" />
<path d="M41.5259 8.8580
L41.3831 8.9294
" />
</g></g>
<g style="fill:none; 
stroke:#000000; stroke-width:0.1500; stroke-opacity:1; 
stroke-linecap:round; stroke-linejoin:round;">
<g transform="rotate(-90.000000 11.8050 39.1345)">
<text x="11.8050" y="39.6345"
textLength="2.3452" font-size="1.3333" lengthAdjust="spacingAndGlyphs"
text-anchor="middle" opacity="0" stroke-opacity="0">M1</text>
</g>
<g class="stroked-text"><desc>M1</desc>
<path d="M12.2598 39.9441
L11.2598 39.9441
" />
<path d="M11.2598 39.9441
L11.9741 39.6107
" />
<path d="M11.9741 39.6107
L11.2598 39.2774
" />
<path d="M11.2598 39.2774
L12.2598 39.2774
" />
<path d="M12.2598 38.2774
L12.2598 38.8488
" />
<path d="M12.2598 38.5631
L11.2598 38.5631
" />
<path d="M11.2598 38.5631
L11.4027 38.6584
" />
<path d="M11.4027 38.6584
L11.4979 38.7536
" />
<path d="M11.4979 38.7536
L11.5455 38.8488
" />
</g><g transform="rotate(-90.000000 11.8050 57.5077)">
<text x="11.8050" y="58.0077"
textLength="2.3452" font-size="1.3333" lengthAdjust="spacingAndGlyphs"
text-anchor="middle" opacity="0" stroke-opacity="0">M7</text>
</g>
<g class="stroked-text"><desc>M7</desc>
<path d="M12.2598 58.3172
L11.2598 58.3172
" />
<path d="M11.2598 58.3172
L11.9741 57.9839
" />
<path d="M11.9741 57.9839
L11.2598 57.6506
" />
<path d="M11.2598 57.6506
L12.2598 57.6506
" />
<path d="M11.2598 57.2696
L11.2598 56.6030
" />
<path d="M11.2598 56.6030
L12.2598 57.0315
" />
</g><text x="23.0000" y="32.7500"
textLength="2.2024" font-size="1.3333" lengthAdjust="spacingAndGlyphs"
text-anchor="middle" opacity="0" stroke-opacity="0">C3</text>
<g class="stroked-text"><desc>C3</desc>
<path d="M22.8333 32.6096
L22.7857 32.6572
" />
<path d="M22.7857 32.6572
L22.6429 32.7048
" />
<path d="M22.6429 32.7048
L22.5476 32.7048
" />
<path d="M22.5476 32.7048
L22.4048 32.6572
" />
<path d="M22.4048 32.6572
L22.3095 32.5620
" />
<path d="M22.3095 32.5620
L22.2619 32.4667
" />
<path d="M22.2619 32.4667
L22.2143 32.2762
" />
<path d="M22.2143 32.2762
L22.2143 32.1334
" />
<path d="M22.2143 32.1334
L22.2619 31.9429
" />
<path d="M22.2619 31.9429
L22.3095 31.8477
" />
<path d="M22.3095 31.8477
L22.4048 31.7524
" />
<path d="M22.4048 31.7524
L22.5476 31.7048
" />
<path d="M22.5476 31.7048
L22.6429 31.7048
" />
<path d="M22.6429 31.7048
L22.7857 31.7524
" />
<path d="M22.7857 31.7524
L22.8333 31.8001
" />
<path d="M23.1667 31.7048
L23.7857 31.7048
" />
<path d="M23.7857 31.7048
L23.4524 32.0858
" />
<path d="M23.4524 32.0858
L23.5952 32.0858
" />
<path d="M23.5952 32.0858
L23.6905 32.1334
" />
<path d="M23.6905 32.1334
L23.7381 32.1810
" />
<path d="M23.7381 32.1810
L23.7857 32.2762
" />
<path d="M23.7857 32.2762
L23.7857 32.5143
" />
<path d="M23.7857 32.5143
L23.7381 32.6096
" />
<path d="M23.7381 32.6096
L23.6905 32.6572
" />
<path d="M23.6905 32.6572
L23.5952 32.7048
" />
<path d="M23.5952 32.7048
L23.3095 32.7048
" />
<path d="M23.3095 32.7048
L23.2143 32.6572
" />
<path d="M23.2143 32.6572
L23.1667 32.6096
" />
</g><g transform="rotate(-90.000000 11.8050 76.0732)">
<text x="11.8050" y="76.5732"
textLength="3.2976" font-size="1.3333" lengthAdjust="spacingAndGlyphs"
text-anchor="middle" opacity="0" stroke-opacity="0">M11</text>
</g>
<g class="stroked-text"><desc>M11</desc>
<path d="M12.2598 77.3589
L11.2598 77.3589
" />
<path d="M11.2598 77.3589
L11.9741 77.0256
" />
<path d="M11.9741 77.0256
L11.2598 76.6922
" />
<path d="M11.2598 76.6922
L12.2598 76.6922
" />
<path d="M12.2598 75.6922
L12.2598 76.2637
" />
<path d="M12.2598 75.9779
L11.2598 75.9779
" />
<path d="M11.2598 75.9779
L11.4027 76.0732
" />
<path d="M11.4027 76.0732
L11.4979 76.1684
" />
<path d="M11.4979 76.1684
L11.5455 76.2637
" />
<path d="M12.2598 74.7398
L12.2598 75.3113
" />
<path d="M12.2598 75.0256
L11.2598 75.0256
" />
<path d="M11.2598 75.0256
L11.4027 75.1208
" />
<path d="M11.4027 75.1208
L11.4979 75.2160
" />
<path d="M11.4979 75.2160
L11.5455 75.3113
" />
</g><g transform="rotate(-90.000000 11.8050 34.6095)">
<text x="11.8050" y="35.1095"
textLength="2.3452" font-size="1.3333" lengthAdjust="spacingAndGlyphs"
text-anchor="middle" opacity="0" stroke-opacity="0">M2</text>
</g>
<g class="stroked-text"><desc>M2</desc>
<path d="M12.2598 35.4191
L11.2598 35.4191
" />
<path d="M11.2598 35.4191
L11.9741 35.0857
" />
<path d="M11.9741 35.0857
L11.2598 34.7524
" />
<path d="M11.2598 34.7524
L12.2598 34.7524
" />
<path d="M11.3551 34.3238
L11.3074 34.2762
" />
<path d="M11.3074 34.2762
L11.2598 34.1810
" />
<path d="M11.2598 34.1810
L11.2598 33.9429
" />
<path d="M11.2598 33.9429
L11.3074 33.8476
" />
<path d="M11.3074 33.8476
L11.3551 33.8000
" />
<path d="M11.3551 33.8000
L11.4503 33.7524
" />
<path d="M11.4503 33.7524
L11.5455 33.7524
" />
<path d="M11.5455 33.7524
L11.6884 33.8000
" />
<path d="M11.6884 33.8000
L12.2598 34.3714
" />
<path d="M12.2598 34.3714
L12.2598 33.7524
" />
</g><g transform="rotate(-90.000000 11.8050 80.7145)">
<text x="11.8050" y="81.2145"
textLength="3.2976" font-size="1.3333" lengthAdjust="spacingAndGlyphs"
text-anchor="middle" opacity="0" stroke-opacity="0">M12</text>
</g>
<g class="stroked-text"><desc>M12</desc>
<path d="M12.2598 82.0003
L11.2598 82.0003
" />
<path d="M11.2598 82.0003
L11.9741 81.6669
" />
<path d="M11.9741 81.6669
L11.2598 81.3336
" />
<path d="M11.2598 81.3336
L12.2598 81.3336
" />
<path d="M12.2598 80.3336
L12.2598 80.9050
" />
<path d="M12.2598 80.6193
L11.2598 80.6193
" />
<path d="M11.2598 80.6193
L11.4027 80.7145
" />
<path d="M11.4027 80.7145
L11.4979 80.8098
" />
<path d="M11.4979 80.8098
L11.5455 80.9050
" />
<path d="M11.3551 79.9526
L11.3074 79.9050
" />
<path d="M11.3074 79.9050
L11.2598 79.8098
" />
<path d="M11.2598 79.8098
L11.2598 79.5717
" />
<path d="M11.2598 79.5717
L11.3074 79.4764
" />
<path d="M11.3074 79.4764
L11.3551 79.4288
" />
<path d="M11.3551 79.4288
L11.4503 79.3812
" />
<path d="M11.4503 79.3812
L11.5455 79.3812
" />
<path d="M11.5455 79.3812
L11.6884 79.4288
" />
<path d="M11.6884 79.4288
L12.2598 80.0003
" />
<path d="M12.2598 80.0003
L12.2598 79.3812
" />
</g><text x="11.2500" y="15.2500"
textLength="2.2500" font-size="1.3333" lengthAdjust="spacingAndGlyphs"
text-anchor="middle" opacity="0" stroke-opacity="0">U1</text>
<g class="stroked-text"><desc>U1</desc>
<path d="M10.4881 14.2048
L10.4881 15.0143
" />
<path d="M10.4881 15.0143
L10.5357 15.1096
" />
<path d="M10.5357 15.1096
L10.5833 15.1572
" />
<path d="M10.5833 15.1572
L10.6786 15.2048
" />
<path d="M10.6786 15.2048
L10.8690 15.2048
" />
<path d="M10.8690 15.2048
L10.9643 15.1572
" />
<path d="M10.9643 15.1572
L11.0119 15.1096
" />
<path d="M11.0119 15.1096
L11.0595 15.0143
" />
<path d="M11.0595 15.0143
L11.0595 14.2048
" />
<path d="M12.0595 15.2048
L11.4881 15.2048
" />
<path d="M11.7738 15.2048
L11.7738 14.2048
" />
<path d="M11.7738 14.2048
L11.6786 14.3477
" />
<path d="M11.6786 14.3477
L11.5833 14.4429
" />
<path d="M11.5833 14.4429
L11.4881 14.4905
" />
</g><text x="5.0000" y="4.7500"
textLength="1.9643" font-size="1.3333" lengthAdjust="spacingAndGlyphs"
text-anchor="middle" opacity="0" stroke-opacity="0">J3</text>
<g class="stroked-text"><desc>J3</desc>
<path d="M4.6667 3.7048
L4.6667 4.4191
" />
<path d="M4.6667 4.4191
L4.6190 4.5620
" />
<path d="M4.6190 4.5620
L4.5238 4.6572
" />
<path d="M4.5238 4.6572
L4.3810 4.7048
" />
<path d="M4.3810 4.7048
L4.2857 4.7048
" />
<path d="M5.0476 3.7048
L5.6667 3.7048
" />
<path d="M5.6667 3.7048
L5.3333 4.0858
" />
<path d="M5.3333 4.0858
L5.4762 4.0858
" />
<path d="M5.4762 4.0858
L5.5714 4.1334
" />
<path d="M5.5714 4.1334
L5.6190 4.1810
" />
<path d="M5.6190 4.1810
L5.6667 4.2762
" />
<path d="M5.6667 4.2762
L5.6667 4.5143
" />
<path d="M5.6667 4.5143
L5.6190 4.6096
" />
<path d="M5.6190 4.6096
L5.5714 4.6572
" />
<path d="M5.5714 4.6572
L5.4762 4.7048
" />
<path d="M5.4762 4.7048
L5.1905 4.7048
" />
<path d="M5.1905 4.7048
L5.0952 4.6572
" />
<path d="M5.0952 4.6572
L5.0476 4.6096
" />
</g><text x="18.2500" y="2.7500"
textLength="2.2024" font-size="1.3333" lengthAdjust="spacingAndGlyphs"
text-anchor="middle" opacity="0" stroke-opacity="0">C1</text>
<g class="stroked-text"><desc>C1</desc>
<path d="M18.0833 2.6096
L18.0357 2.6572
" />
<path d="M18.0357 2.6572
L17.8929 2.7048
" />
<path d="M17.8929 2.7048
L17.7976 2.7048
" />
<path d="M17.7976 2.7048
L17.6548 2.6572
" />
<path d="M17.6548 2.6572
L17.5595 2.5620
" />
<path d="M17.5595 2.5620
L17.5119 2.4667
" />
<path d="M17.5119 2.4667
L17.4643 2.2762
" />
<path d="M17.4643 2.2762
L17.4643 2.1334
" />
<path d="M17.4643 2.1334
L17.5119 1.9429
" />
<path d="M17.5119 1.9429
L17.5595 1.8477
" />
<path d="M17.5595 1.8477
L17.6548 1.7524
" />
<path d="M17.6548 1.7524
L17.7976 1.7048
" />
<path d="M17.7976 1.7048
L17.8929 1.7048
" />
<path d="M17.8929 1.7048
L18.0357 1.7524
" />
<path d="M18.0357 1.7524
L18.0833 1.8001
" />
<path d="M19.0357 2.7048
L18.4643 2.7048
" />
<path d="M18.7500 2.7048
L18.7500 1.7048
" />
<path d="M18.7500 1.7048
L18.6548 1.8477
" />
<path d="M18.6548 1.8477
L18.5595 1.9429
" />
<path d="M18.5595 1.9429
L18.4643 1.9905
" />
</g><g transform="rotate(-90.000000 11.8050 30.0095)">
<text x="11.8050" y="30.5095"
textLength="2.3452" font-size="1.3333" lengthAdjust="spacingAndGlyphs"
text-anchor="middle" opacity="0" stroke-opacity="0">M3</text>
</g>
<g class="stroked-text"><desc>M3</desc>
<path d="M12.2598 30.8191
L11.2598 30.8191
" />
<path d="M11.2598 30.8191
L11.9741 30.4857
" />
<path d="M11.9741 30.4857
L11.2598 30.1524
" />
<path d="M11.2598 30.1524
L12.2598 30.1524
" />
<path d="M11.2598 29.7714
L11.2598 29.1524
" />
<path d="M11.2598 29.1524
L11.6408 29.4857
" />
<path d="M11.6408 29.4857
L11.6408 29.3429
" />
<path d="M11.6408 29.3429
L11.6884 29.2476
" />
<path d="M11.6884 29.2476
L11.7360 29.2000
" />
<path d="M11.7360 29.2000
L11.8312 29.1524
" />
<path d="M11.8312 29.1524
L12.0693 29.1524
" />
<path d="M12.0693 29.1524
L12.1646 29.2000
" />
<path d="M12.1646 29.2000
L12.2122 29.2476
" />
<path d="M12.2122 29.2476
L12.2598 29.3429
" />
<path d="M12.2598 29.3429
L12.2598 29.6286
" />
<path d="M12.2598 29.6286
L12.2122 29.7238
" />
<path d="M12.2122 29.7238
L12.1646 29.7714
" />
</g><g transform="rotate(-90.000000 11.8050 52.8664)">
<text x="11.8050" y="53.3664"
textLength="2.3452" font-size="1.3333" lengthAdjust="spacingAndGlyphs"
text-anchor="middle" opacity="0" stroke-opacity="0">M6</text>
</g>
<g class="stroked-text"><desc>M6</desc>
<path d="M12.2598 53.6759
L11.2598 53.6759
" />
<path d="M11.2598 53.6759
L11.9741 53.3426
" />
<path d="M11.9741 53.3426
L11.2598 53.0092
" />
<path d="M11.2598 53.0092
L12.2598 53.0092
" />
<path d="M11.2598 52.1045
L11.2598 52.2949
" />
<path d="M11.2598 52.2949
L11.3074 52.3902
" />
<path d="M11.3074 52.3902
L11.3551 52.4378
" />
<path d="M11.3551 52.4378
L11.4979 52.5330
" />
<path d="M11.4979 52.5330
L11.6884 52.5806
" />
<path d="M11.6884 52.5806
L12.0693 52.5806
" />
<path d="M12.0693 52.5806
L12.1646 52.5330
" />
<path d="M12.1646 52.5330
L12.2122 52.4854
" />
<path d="M12.2122 52.4854
L12.2598 52.3902
" />
<path d="M12.2598 52.3902
L12.2598 52.1997
" />
<path d="M12.2598 52.1997
L12.2122 52.1045
" />
<path d="M12.2122 52.1045
L12.1646 52.0568
" />
<path d="M12.1646 52.0568
L12.0693 52.0092
" />
<path d="M12.0693 52.0092
L11.8312 52.0092
" />
<path d="M11.8312 52.0092
L11.7360 52.0568
" />
<path d="M11.7360 52.0568
L11.6884 52.1045
" />
<path d="M11.6884 52.1045
L11.6408 52.1997
" />
<path d="M11.6408 52.1997
L11.6408 52.3902
" />
<path d="M11.6408 52.3902
L11.6884 52.4854
" />
<path d="M11.6884 52.4854
L11.7360 52.5330
" />
<path d="M11.7360 52.5330
L11.8312 52.5806
" />
</g><text x="28.1800" y="37.2600"
textLength="2.0595" font-size="1.3333" lengthAdjust="spacingAndGlyphs"
text-anchor="middle" opacity="0" stroke-opacity="0">A1</text>
<g class="stroked-text"><desc>A1</desc>
<path d="M27.4657 36.9291
L27.9419 36.9291
" />
<path d="M27.3705 37.2148
L27.7038 36.2148
" />
<path d="M27.7038 36.2148
L28.0371 37.2148
" />
<path d="M28.8943 37.2148
L28.3229 37.2148
" />
<path d="M28.6086 37.2148
L28.6086 36.2148
" />
<path d="M28.6086 36.2148
L28.5133 36.3577
" />
<path d="M28.5133 36.3577
L28.4181 36.4529
" />
<path d="M28.4181 36.4529
L28.3229 36.5005
" />
</g><text x="28.1800" y="77.9000"
textLength="3.2500" font-size="1.3333" lengthAdjust="spacingAndGlyphs"
text-anchor="middle" opacity="0" stroke-opacity="0">USB</text>
<g class="stroked-text"><desc>USB</desc>
<path d="M26.9181 76.8548
L26.9181 77.6643
" />
<path d="M26.9181 77.6643
L26.9657 77.7596
" />
<path d="M26.9657 77.7596
L27.0133 77.8072
" />
<path d="M27.0133 77.8072
L27.1086 77.8548
" />
<path d="M27.1086 77.8548
L27.2990 77.8548
" />
<path d="M27.2990 77.8548
L27.3943 77.8072
" />
<path d="M27.3943 77.8072
L27.4419 77.7596
" />
<path d="M27.4419 77.7596
L27.4895 77.6643
" />
<path d="M27.4895 77.6643
L27.4895 76.8548
" />
<path d="M27.9181 77.8072
L28.0610 77.8548
" />
<path d="M28.0610 77.8548
L28.2990 77.8548
" />
<path d="M28.2990 77.8548
L28.3943 77.8072
" />
<path d="M28.3943 77.8072
L28.4419 77.7596
" />
<path d="M28.4419 77.7596
L28.4895 77.6643
" />
<path d="M28.4895 77.6643
L28.4895 77.5691
" />
<path d="M28.4895 77.5691
L28.4419 77.4739
" />
<path d="M28.4419 77.4739
L28.3943 77.4262
" />
<path d="M28.3943 77.4262
L28.2990 77.3786
" />
<path d="M28.2990 77.3786
L28.1086 77.3310
" />
<path d="M28.1086 77.3310
L28.0133 77.2834
" />
<path d="M28.0133 77.2834
L27.9657 77.2358
" />
<path d="M27.9657 77.2358
L27.9181 77.1405
" />
<path d="M27.9181 77.1405
L27.9181 77.0453
" />
<path d="M27.9181 77.0453
L27.9657 76.9501
" />
<path d="M27.9657 76.9501
L28.0133 76.9024
" />
<path d="M28.0133 76.9024
L28.1086 76.8548
" />
<path d="M28.1086 76.8548
L28.3467 76.8548
" />
<path d="M28.3467 76.8548
L28.4895 76.9024
" />
<path d="M29.2514 77.3310
L29.3943 77.3786
" />
<path d="M29.3943 77.3786
L29.4419 77.4262
" />
<path d="M29.4419 77.4262
L29.4895 77.5215
" />
<path d="M29.4895 77.5215
L29.4895 77.6643
" />
<path d="M29.4895 77.6643
L29.4419 77.7596
" />
<path d="M29.4419 77.7596
L29.3943 77.8072
" />
<path d="M29.3943 77.8072
L29.2990 77.8548
" />
<path d="M29.2990 77.8548
L28.9181 77.8548
" />
<path d="M28.9181 77.8548
L28.9181 76.8548
" />
<path d="M28.9181 76.8548
L29.2514 76.8548
" />
<path d="M29.2514 76.8548
L29.3467 76.9024
" />
<path d="M29.3467 76.9024
L29.3943 76.9501
" />
<path d="M29.3943 76.9501
L29.4419 77.0453
" />
<path d="M29.4419 77.0453
L29.4419 77.1405
" />
<path d="M29.4419 77.1405
L29.3943 77.2358
" />
<path d="M29.3943 77.2358
L29.3467 77.2834
" />
<path d="M29.3467 77.2834
L29.2514 77.3310
" />
<path d="M29.2514 77.3310
L28.9181 77.3310
" />
</g><text x="37.5000" y="35.7500"
textLength="2.2024" font-size="1.3333" lengthAdjust="spacingAndGlyphs"
text-anchor="middle" opacity="0" stroke-opacity="0">R1</text>
<g class="stroked-text"><desc>R1</desc>
<path d="M37.3333 35.7048
L37.0000 35.2286
" />
<path d="M36.7619 35.7048
L36.7619 34.7048
" />
<path d="M36.7619 34.7048
L37.1429 34.7048
" />
<path d="M37.1429 34.7048
L37.2381 34.7524
" />
<path d="M37.2381 34.7524
L37.2857 34.8001
" />
<path d="M37.2857 34.8001
L37.3333 34.8953
" />
<path d="M37.3333 34.8953
L37.3333 35.0382
" />
<path d="M37.3333 35.0382
L37.2857 35.1334
" />
<path d="M37.2857 35.1334
L37.2381 35.1810
" />
<path d="M37.2381 35.1810
L37.1429 35.2286
" />
<path d="M37.1429 35.2286
L36.7619 35.2286
" />
<path d="M38.2857 35.7048
L37.7143 35.7048
" />
<path d="M38.0000 35.7048
L38.0000 34.7048
" />
<path d="M38.0000 34.7048
L37.9048 34.8477
" />
<path d="M37.9048 34.8477
L37.8095 34.9429
" />
<path d="M37.8095 34.9429
L37.7143 34.9905
" />
</g><g transform="rotate(-90.000000 11.8050 71.4318)">
<text x="11.8050" y="71.9318"
textLength="3.2976" font-size="1.3333" lengthAdjust="spacingAndGlyphs"
text-anchor="middle" opacity="0" stroke-opacity="0">M10</text>
</g>
<g class="stroked-text"><desc>M10</desc>
<path d="M12.2598 72.7175
L11.2598 72.7175
" />
<path d="M11.2598 72.7175
L11.9741 72.3842
" />
<path d="M11.9741 72.3842
L11.2598 72.0509
" />
<path d="M11.2598 72.0509
L12.2598 72.0509
" />
<path d="M12.2598 71.0509
L12.2598 71.6223
" />
<path d="M12.2598 71.3366
L11.2598 71.3366
" />
<path d="M11.2598 71.3366
L11.4027 71.4318
" />
<path d="M11.4027 71.4318
L11.4979 71.5271
" />
<path d="M11.4979 71.5271
L11.5455 71.6223
" />
<path d="M11.2598 70.4318
L11.2598 70.3366
" />
<path d="M11.2598 70.3366
L11.3074 70.2413
" />
<path d="M11.3074 70.2413
L11.3551 70.1937
" />
<path d="M11.3551 70.1937
L11.4503 70.1461
" />
<path d="M11.4503 70.1461
L11.6408 70.0985
" />
<path d="M11.6408 70.0985
L11.8789 70.0985
" />
<path d="M11.8789 70.0985
L12.0693 70.1461
" />
<path d="M12.0693 70.1461
L12.1646 70.1937
" />
<path d="M12.1646 70.1937
L12.2122 70.2413
" />
<path d="M12.2122 70.2413
L12.2598 70.3366
" />
<path d="M12.2598 70.3366
L12.2598 70.4318
" />
<path d="M12.2598 70.4318
L12.2122 70.5271
" />
<path d="M12.2122 70.5271
L12.1646 70.5747
" />
<path d="M12.1646 70.5747
L12.0693 70.6223
" />
<path d="M12.0693 70.6223
L11.8789 70.6699
" />
<path d="M11.8789 70.6699
L11.6408 70.6699
" />
<path d="M11.6408 70.6699
L11.4503 70.6223
" />
<path d="M11.4503 70.6223
L11.3551 70.5747
" />
<path d="M11.3551 70.5747
L11.3074 70.5271
" />
<path d="M11.3074 70.5271
L11.2598 70.4318
" />
</g><text x="28.5000" y="20.7500"
textLength="3.2976" font-size="1.3333" lengthAdjust="spacingAndGlyphs"
text-anchor="middle" opacity="0" stroke-opacity="0">SW1</text>
<g class="stroked-text"><desc>SW1</desc>
<path d="M27.1667 20.6572
L27.3095 20.7048
" />
<path d="M27.3095 20.7048
L27.5476 20.7048
" />
<path d="M27.5476 20.7048
L27.6429 20.6572
" />
<path d="M27.6429 20.6572
L27.6905 20.6096
" />
<path d="M27.6905 20.6096
L27.7381 20.5143
" />
<path d="M27.7381 20.5143
L27.7381 20.4191
" />
<path d="M27.7381 20.4191
L27.6905 20.3239
" />
<path d="M27.6905 20.3239
L27.6429 20.2762
" />
<path d="M27.6429 20.2762
L27.5476 20.2286
" />
<path d="M27.5476 20.2286
L27.3571 20.1810
" />
<path d="M27.3571 20.1810
L27.2619 20.1334
" />
<path d="M27.2619 20.1334
L27.2143 20.0858
" />
<path d="M27.2143 20.0858
L27.1667 19.9905
" />
<path d="M27.1667 19.9905
L27.1667 19.8953
" />
<path d="M27.1667 19.8953
L27.2143 19.8001
" />
<path d="M27.2143 19.8001
L27.2619 19.7524
" />
<path d="M27.2619 19.7524
L27.3571 19.7048
" />
<path d="M27.3571 19.7048
L27.5952 19.7048
" />
<path d="M27.5952 19.7048
L27.7381 19.7524
" />
<path d="M28.0714 19.7048
L28.3095 20.7048
" />
<path d="M28.3095 20.7048
L28.5000 19.9905
" />
<path d="M28.5000 19.9905
L28.6905 20.7048
" />
<path d="M28.6905 20.7048
L28.9286 19.7048
" />
<path d="M29.8333 20.7048
L29.2619 20.7048
" />
<path d="M29.5476 20.7048
L29.5476 19.7048
" />
<path d="M29.5476 19.7048
L29.4524 19.8477
" />
<path d="M29.4524 19.8477
L29.3571 19.9429
" />
<path d="M29.3571 19.9429
L29.2619 19.9905
" />
</g><g transform="rotate(-90.000000 11.8050 62.1491)">
<text x="11.8050" y="62.6491"
textLength="2.3452" font-size="1.3333" lengthAdjust="spacingAndGlyphs"
text-anchor="middle" opacity="0" stroke-opacity="0">M8</text>
</g>
<g class="stroked-text"><desc>M8</desc>
<path d="M12.2598 62.9586
L11.2598 62.9586
" />
<path d="M11.2598 62.9586
L11.9741 62.6253
" />
<path d="M11.9741 62.6253
L11.2598 62.2919
" />
<path d="M11.2598 62.2919
L12.2598 62.2919
" />
<path d="M11.6884 61.6729
L11.6408 61.7681
" />
<path d="M11.6408 61.7681
L11.5932 61.8158
" />
<path d="M11.5932 61.8158
L11.4979 61.8634
" />
<path d="M11.4979 61.8634
L11.4503 61.8634
" />
<path d="M11.4503 61.8634
L11.3551 61.8158
" />
<path d="M11.3551 61.8158
L11.3074 61.7681
" />
<path d="M11.3074 61.7681
L11.2598 61.6729
" />
<path d="M11.2598 61.6729
L11.2598 61.4824
" />
<path d="M11.2598 61.4824
L11.3074 61.3872
" />
<path d="M11.3074 61.3872
L11.3551 61.3396
" />
<path d="M11.3551 61.3396
L11.4503 61.2919
" />
<path d="M11.4503 61.2919
L11.4979 61.2919
" />
<path d="M11.4979 61.2919
L11.5932 61.3396
" />
<path d="M11.5932 61.3396
L11.6408 61.3872
" />
<path d="M11.6408 61.3872
L11.6884 61.4824
" />
<path d="M11.6884 61.4824
L11.6884 61.6729
" />
<path d="M11.6884 61.6729
L11.7360 61.7681
" />
<path d="M11.7360 61.7681
L11.7836 61.8158
" />
<path d="M11.7836 61.8158
L11.8789 61.8634
" />
<path d="M11.8789 61.8634
L12.0693 61.8634
" />
<path d="M12.0693 61.8634
L12.1646 61.8158
" />
<path d="M12.1646 61.8158
L12.2122 61.7681
" />
<path d="M12.2122 61.7681
L12.2598 61.6729
" />
<path d="M12.2598 61.6729
L12.2598 61.4824
" />
<path d="M12.2598 61.4824
L12.2122 61.3872
" />
<path d="M12.2122 61.3872
L12.1646 61.3396
" />
<path d="M12.1646 61.3396
L12.0693 61.2919
" />
<path d="M12.0693 61.2919
L11.8789 61.2919
" />
<path d="M11.8789 61.2919
L11.7836 61.3396
" />
<path d="M11.7836 61.3396
L11.7360 61.3872
" />
<path d="M11.7360 61.3872
L11.6884 61.4824
" />
</g><g transform="rotate(-90.000000 11.8050 66.7905)">
<text x="11.8050" y="67.2905"
textLength="2.3452" font-size="1.3333" lengthAdjust="spacingAndGlyphs"
text-anchor="middle" opacity="0" stroke-opacity="0">M9</text>
</g>
<g class="stroked-text"><desc>M9</desc>
<path d="M12.2598 67.6000
L11.2598 67.6000
" />
<path d="M11.2598 67.6000
L11.9741 67.2666
" />
<path d="M11.9741 67.2666
L11.2598 66.9333
" />
<path d="M11.2598 66.9333
L12.2598 66.9333
" />
<path d="M12.2598 66.4095
L12.2598 66.2190
" />
<path d="M12.2598 66.2190
L12.2122 66.1238
" />
<path d="M12.2122 66.1238
L12.1646 66.0762
" />
<path d="M12.1646 66.0762
L12.0217 65.9809
" />
<path d="M12.0217 65.9809
L11.8312 65.9333
" />
<path d="M11.8312 65.9333
L11.4503 65.9333
" />
<path d="M11.4503 65.9333
L11.3551 65.9809
" />
<path d="M11.3551 65.9809
L11.3074 66.0285
" />
<path d="M11.3074 66.0285
L11.2598 66.1238
" />
<path d="M11.2598 66.1238
L11.2598 66.3143
" />
<path d="M11.2598 66.3143
L11.3074 66.4095
" />
<path d="M11.3074 66.4095
L11.3551 66.4571
" />
<path d="M11.3551 66.4571
L11.4503 66.5047
" />
<path d="M11.4503 66.5047
L11.6884 66.5047
" />
<path d="M11.6884 66.5047
L11.7836 66.4571
" />
<path d="M11.7836 66.4571
L11.8312 66.4095
" />
<path d="M11.8312 66.4095
L11.8789 66.3143
" />
<path d="M11.8789 66.3143
L11.8789 66.1238
" />
<path d="M11.8789 66.1238
L11.8312 66.0285
" />
<path d="M11.8312 66.0285
L11.7836 65.9809
" />
<path d="M11.7836 65.9809
L11.6884 65.9333
" />
</g><g transform="rotate(-90.000000 11.8050 43.5836)">
<text x="11.8050" y="44.0836"
textLength="2.3452" font-size="1.3333" lengthAdjust="spacingAndGlyphs"
text-anchor="middle" opacity="0" stroke-opacity="0">M4</text>
</g>
<g class="stroked-text"><desc>M4</desc>
<path d="M12.2598 44.3932
L11.2598 44.3932
" />
<path d="M11.2598 44.3932
L11.9741 44.0598
" />
<path d="M11.9741 44.0598
L11.2598 43.7265
" />
<path d="M11.2598 43.7265
L12.2598 43.7265
" />
<path d="M11.5932 42.8217
L12.2598 42.8217
" />
<path d="M11.2122 43.0598
L11.9265 43.2979
" />
<path d="M11.9265 43.2979
L11.9265 42.6789
" />
</g><text x="11.0000" y="22.0000"
textLength="2.2500" font-size="1.3333" lengthAdjust="spacingAndGlyphs"
text-anchor="middle" opacity="0" stroke-opacity="0">U2</text>
<g class="stroked-text"><desc>U2</desc>
<path d="M10.2381 20.9548
L10.2381 21.7643
" />
<path d="M10.2381 21.7643
L10.2857 21.8596
" />
<path d="M10.2857 21.8596
L10.3333 21.9072
" />
<path d="M10.3333 21.9072
L10.4286 21.9548
" />
<path d="M10.4286 21.9548
L10.6190 21.9548
" />
<path d="M10.6190 21.9548
L10.7143 21.9072
" />
<path d="M10.7143 21.9072
L10.7619 21.8596
" />
<path d="M10.7619 21.8596
L10.8095 21.7643
" />
<path d="M10.8095 21.7643
L10.8095 20.9548
" />
<path d="M11.2381 21.0501
L11.2857 21.0024
" />
<path d="M11.2857 21.0024
L11.3810 20.9548
" />
<path d="M11.3810 20.9548
L11.6190 20.9548
" />
<path d="M11.6190 20.9548
L11.7143 21.0024
" />
<path d="M11.7143 21.0024
L11.7619 21.0501
" />
<path d="M11.7619 21.0501
L11.8095 21.1453
" />
<path d="M11.8095 21.1453
L11.8095 21.2405
" />
<path d="M11.8095 21.2405
L11.7619 21.3834
" />
<path d="M11.7619 21.3834
L11.1905 21.9548
" />
<path d="M11.1905 21.9548
L11.8095 21.9548
" />
</g><text x="5.0000" y="18.5000"
textLength="2.2024" font-size="1.3333" lengthAdjust="spacingAndGlyphs"
text-anchor="middle" opacity="0" stroke-opacity="0">C2</text>
<g class="stroked-text"><desc>C2</desc>
<path d="M4.8333 18.3596
L4.7857 18.4072
" />
<path d="M4.7857 18.4072
L4.6429 18.4548
" />
<path d="M4.6429 18.4548
L4.5476 18.4548
" />
<path d="M4.5476 18.4548
L4.4048 18.4072
" />
<path d="M4.4048 18.4072
L4.3095 18.3120
" />
<path d="M4.3095 18.3120
L4.2619 18.2167
" />
<path d="M4.2619 18.2167
L4.2143 18.0262
" />
<path d="M4.2143 18.0262
L4.2143 17.8834
" />
<path d="M4.2143 17.8834
L4.2619 17.6929
" />
<path d="M4.2619 17.6929
L4.3095 17.5977
" />
<path d="M4.3095 17.5977
L4.4048 17.5024
" />
<path d="M4.4048 17.5024
L4.5476 17.4548
" />
<path d="M4.5476 17.4548
L4.6429 17.4548
" />
<path d="M4.6429 17.4548
L4.7857 17.5024
" />
<path d="M4.7857 17.5024
L4.8333 17.5501
" />
<path d="M5.2143 17.5501
L5.2619 17.5024
" />
<path d="M5.2619 17.5024
L5.3571 17.4548
" />
<path d="M5.3571 17.4548
L5.5952 17.4548
" />
<path d="M5.5952 17.4548
L5.6905 17.5024
" />
<path d="M5.6905 17.5024
L5.7381 17.5501
" />
<path d="M5.7381 17.5501
L5.7857 17.6453
" />
<path d="M5.7857 17.6453
L5.7857 17.7405
" />
<path d="M5.7857 17.7405
L5.7381 17.8834
" />
<path d="M5.7381 17.8834
L5.1667 18.4548
" />
<path d="M5.1667 18.4548
L5.7857 18.4548
" />
</g><text x="36.5000" y="23.5000"
textLength="2.2024" font-size="1.3333" lengthAdjust="spacingAndGlyphs"
text-anchor="middle" opacity="0" stroke-opacity="0">D1</text>
<g class="stroked-text"><desc>D1</desc>
<path d="M35.7619 23.4548
L35.7619 22.4548
" />
<path d="M35.7619 22.4548
L36.0000 22.4548
" />
<path d="M36.0000 22.4548
L36.1429 22.5024
" />
<path d="M36.1429 22.5024
L36.2381 22.5977
" />
<path d="M36.2381 22.5977
L36.2857 22.6929
" />
<path d="M36.2857 22.6929
L36.3333 22.8834
" />
<path d="M36.3333 22.8834
L36.3333 23.0262
" />
<path d="M36.3333 23.0262
L36.2857 23.2167
" />
<path d="M36.2857 23.2167
L36.2381 23.3120
" />
<path d="M36.2381 23.3120
L36.1429 23.4072
" />
<path d="M36.1429 23.4072
L36.0000 23.4548
" />
<path d="M36.0000 23.4548
L35.7619 23.4548
" />
<path d="M37.2857 23.4548
L36.7143 23.4548
" />
<path d="M37.0000 23.4548
L37.0000 22.4548
" />
<path d="M37.0000 22.4548
L36.9048 22.5977
" />
<path d="M36.9048 22.5977
L36.8095 22.6929
" />
<path d="M36.8095 22.6929
L36.7143 22.7405
" />
</g><g transform="rotate(-90.000000 11.8050 48.2250)">
<text x="11.8050" y="48.7250"
textLength="2.3452" font-size="1.3333" lengthAdjust="spacingAndGlyphs"
text-anchor="middle" opacity="0" stroke-opacity="0">M5</text>
</g>
<g class="stroked-text"><desc>M5</desc>
<path d="M12.2598 49.0345
L11.2598 49.0345
" />
<path d="M11.2598 49.0345
L11.9741 48.7012
" />
<path d="M11.9741 48.7012
L11.2598 48.3679
" />
<path d="M11.2598 48.3679
L12.2598 48.3679
" />
<path d="M11.2598 47.4155
L11.2598 47.8917
" />
<path d="M11.2598 47.8917
L11.7360 47.9393
" />
<path d="M11.7360 47.9393
L11.6884 47.8917
" />
<path d="M11.6884 47.8917
L11.6408 47.7964
" />
<path d="M11.6408 47.7964
L11.6408 47.5583
" />
<path d="M11.6408 47.5583
L11.6884 47.4631
" />
<path d="M11.6884 47.4631
L11.7360 47.4155
" />
<path d="M11.7360 47.4155
L11.8312 47.3679
" />
<path d="M11.8312 47.3679
L12.0693 47.3679
" />
<path d="M12.0693 47.3679
L12.1646 47.4155
" />
<path d="M12.1646 47.4155
L12.2122 47.4631
" />
<path d="M12.2122 47.4631
L12.2598 47.5583
" />
<path d="M12.2598 47.5583
L12.2598 47.7964
" />
<path d="M12.2598 47.7964
L12.2122 47.8917
" />
<path d="M12.2122 47.8917
L12.1646 47.9393
" />
</g></g>
<g style="fill:none; 
stroke:#000000; stroke-width:0.1200; stroke-opacity:1; 
stroke-linecap:round; stroke-linejoin:round;">
<path d="M2.9650 37.7545
L2.9650 40.5145
" />
<path d="M8.1550 37.7545
L2.9650 37.7545
" />
<path d="M8.1550 37.7545
L8.1550 40.5145
" />
<path d="M8.1550 40.5145
L2.9650 40.5145
" />
<path d="M9.4250 37.7545
L10.8050 37.7545
" />
<path d="M10.8050 37.7545
L10.8050 39.1345
" />
<path d="M2.9650 56.1277
L2.9650 58.8877
" />
<path d="M8.1550 56.1277
L2.9650 56.1277
" />
<path d="M8.1550 56.1277
L8.1550 58.8877
" />
<path d="M8.1550 58.8877
L2.9650 58.8877
" />
<path d="M9.4250 56.1277
L10.8050 56.1277
" />
<path d="M10.8050 56.1277
L10.8050 57.5077
" />
<path d="M24.5674 30.9110
L25.1974 30.9110
" />
<path d="M24.8824 30.5960
L24.8824 31.2260
" />
<path d="M28.0676 29.5200
L28.0676 35.9800
" />
<path d="M28.1076 29.5200
L28.1076 35.9800
" />
<path d="M28.1476 29.5210
L28.1476 35.9790
" />
<path d="M28.1876 29.5220
L28.1876 35.9780
" />
<path d="M28.2276 29.5240
L28.2276 35.9760
" />
<path d="M28.2676 29.5260
L28.2676 35.9740
" />
<path d="M28.3076 29.5290
L28.3076 31.7100
" />
<path d="M28.3076 33.7900
L28.3076 35.9710
" />
<path d="M28.3476 29.5320
L28.3476 31.7100
" />
<path d="M28.3476 33.7900
L28.3476 35.9680
" />
<path d="M28.3876 29.5360
L28.3876 31.7100
" />
<path d="M28.3876 33.7900
L28.3876 35.9640
" />
<path d="M28.4276 29.5400
L28.4276 31.7100
" />
<path d="M28.4276 33.7900
L28.4276 35.9600
" />
<path d="M28.4676 29.5450
L28.4676 31.7100
" />
<path d="M28.4676 33.7900
L28.4676 35.9550
" />
<path d="M28.5076 29.5500
L28.5076 31.7100
" />
<path d="M28.5076 33.7900
L28.5076 35.9500
" />
<path d="M28.5476 29.5550
L28.5476 31.7100
" />
<path d="M28.5476 33.7900
L28.5476 35.9450
" />
<path d="M28.5876 29.5620
L28.5876 31.7100
" />
<path d="M28.5876 33.7900
L28.5876 35.9380
" />
<path d="M28.6276 29.5680
L28.6276 31.7100
" />
<path d="M28.6276 33.7900
L28.6276 35.9320
" />
<path d="M28.6676 29.5760
L28.6676 31.7100
" />
<path d="M28.6676 33.7900
L28.6676 35.9240
" />
<path d="M28.7076 29.5830
L28.7076 31.7100
" />
<path d="M28.7076 33.7900
L28.7076 35.9170
" />
<path d="M28.7476 29.5910
L28.7476 31.7100
" />
<path d="M28.7476 33.7900
L28.7476 35.9090
" />
<path d="M28.7876 29.6000
L28.7876 31.7100
" />
<path d="M28.7876 33.7900
L28.7876 35.9000
" />
<path d="M28.8276 29.6100
L28.8276 31.7100
" />
<path d="M28.8276 33.7900
L28.8276 35.8900
" />
<path d="M28.8676 29.6190
L28.8676 31.7100
" />
<path d="M28.8676 33.7900
L28.8676 35.8810
" />
<path d="M28.9076 29.6300
L28.9076 31.7100
" />
<path d="M28.9076 33.7900
L28.9076 35.8700
" />
<path d="M28.9476 29.6410
L28.9476 31.7100
" />
<path d="M28.9476 33.7900
L28.9476 35.8590
" />
<path d="M28.9876 29.6520
L28.9876 31.7100
" />
<path d="M28.9876 33.7900
L28.9876 35.8480
" />
<path d="M29.0276 29.6640
L29.0276 31.7100
" />
<path d="M29.0276 33.7900
L29.0276 35.8360
" />
<path d="M29.0676 29.6770
L29.0676 31.7100
" />
<path d="M29.0676 33.7900
L29.0676 35.8230
" />
<path d="M29.1076 29.6900
L29.1076 31.7100
" />
<path d="M29.1076 33.7900
L29.1076 35.8100
" />
<path d="M29.1476 29.7030
L29.1476 31.7100
" />
<path d="M29.1476 33.7900
L29.1476 35.7970
" />
<path d="M29.1876 29.7180
L29.1876 31.7100
" />
<path d="M29.1876 33.7900
L29.1876 35.7820
" />
<path d="M29.2276 29.7330
L29.2276 31.7100
" />
<path d="M29.2276 33.7900
L29.2276 35.7670
" />
<path d="M29.2676 29.7480
L29.2676 31.7100
" />
<path d="M29.2676 33.7900
L29.2676 35.7520
" />
<path d="M29.3076 29.7640
L29.3076 31.7100
" />
<path d="M29.3076 33.7900
L29.3076 35.7360
" />
<path d="M29.3476 29.7810
L29.3476 31.7100
" />
<path d="M29.3476 33.7900
L29.3476 35.7190
" />
<path d="M29.3876 29.7980
L29.3876 31.7100
" />
<path d="M29.3876 33.7900
L29.3876 35.7020
" />
<path d="M29.4276 29.8160
L29.4276 31.7100
" />
<path d="M29.4276 33.7900
L29.4276 35.6840
" />
<path d="M29.4676 29.8350
L29.4676 31.7100
" />
<path d="M29.4676 33.7900
L29.4676 35.6650
" />
<path d="M29.5076 29.8540
L29.5076 31.7100
" />
<path d="M29.5076 33.7900
L29.5076 35.6460
" />
<path d="M29.5476 29.8740
L29.5476 31.7100
" />
<path d="M29.5476 33.7900
L29.5476 35.6260
" />
<path d="M29.5876 29.8950
L29.5876 31.7100
" />
<path d="M29.5876 33.7900
L29.5876 35.6050
" />
<path d="M29.6276 29.9160
L29.6276 31.7100
" />
<path d="M29.6276 33.7900
L29.6276 35.5840
" />
<path d="M29.6676 29.9380
L29.6676 31.7100
" />
<path d="M29.6676 33.7900
L29.6676 35.5620
" />
<path d="M29.7076 29.9610
L29.7076 31.7100
" />
<path d="M29.7076 33.7900
L29.7076 35.5390
" />
<path d="M29.7476 29.9850
L29.7476 31.7100
" />
<path d="M29.7476 33.7900
L29.7476 35.5150
" />
<path d="M29.7876 30.0090
L29.7876 31.7100
" />
<path d="M29.7876 33.7900
L29.7876 35.4910
" />
<path d="M29.8276 30.0340
L29.8276 31.7100
" />
<path d="M29.8276 33.7900
L29.8276 35.4660
" />
<path d="M29.8676 30.0600
L29.8676 31.7100
" />
<path d="M29.8676 33.7900
L29.8676 35.4400
" />
<path d="M29.9076 30.0870
L29.9076 31.7100
" />
<path d="M29.9076 33.7900
L29.9076 35.4130
" />
<path d="M29.9476 30.1140
L29.9476 31.7100
" />
<path d="M29.9476 33.7900
L29.9476 35.3860
" />
<path d="M29.9876 30.1430
L29.9876 31.7100
" />
<path d="M29.9876 33.7900
L29.9876 35.3570
" />
<path d="M30.0276 30.1730
L30.0276 31.7100
" />
<path d="M30.0276 33.7900
L30.0276 35.3270
" />
<path d="M30.0676 30.2030
L30.0676 31.7100
" />
<path d="M30.0676 33.7900
L30.0676 35.2970
" />
<path d="M30.1076 30.2340
L30.1076 31.7100
" />
<path d="M30.1076 33.7900
L30.1076 35.2660
" />
<path d="M30.1476 30.2670
L30.1476 31.7100
" />
<path d="M30.1476 33.7900
L30.1476 35.2330
" />
<path d="M30.1876 30.3000
L30.1876 31.7100
" />
<path d="M30.1876 33.7900
L30.1876 35.2000
" />
<path d="M30.2276 30.3350
L30.2276 31.7100
" />
<path d="M30.2276 33.7900
L30.2276 35.1650
" />
<path d="M30.2676 30.3710
L30.2676 31.7100
" />
<path d="M30.2676 33.7900
L30.2676 35.1290
" />
<path d="M30.3076 30.4080
L30.3076 31.7100
" />
<path d="M30.3076 33.7900
L30.3076 35.0920
" />
<path d="M30.3476 30.4460
L30.3476 31.7100
" />
<path d="M30.3476 33.7900
L30.3476 35.0540
" />
<path d="M30.3876 30.4860
L30.3876 35.0140
" />
<path d="M30.4276 30.5270
L30.4276 34.9730
" />
<path d="M30.4676 30.5690
L30.4676 34.9310
" />
<path d="M30.5076 30.6130
L30.5076 34.8870
" />
<path d="M30.5476 30.6590
L30.5476 34.8410
" />
<path d="M30.5876 30.7060
L30.5876 34.7940
" />
<path d="M30.6276 30.7550
L30.6276 34.7450
" />
<path d="M30.6676 30.8070
L30.6676 34.6930
" />
<path d="M30.7076 30.8600
L30.7076 34.6400
" />
<path d="M30.7476 30.9160
L30.7476 34.5840
" />
<path d="M30.7876 30.9750
L30.7876 34.5250
" />
<path d="M30.8276 31.0360
L30.8276 34.4640
" />
<path d="M30.8676 31.1010
L30.8676 34.3990
" />
<path d="M30.9076 31.1690
L30.9076 34.3310
" />
<path d="M30.9476 31.2410
L30.9476 34.2590
" />
<path d="M30.9876 31.3180
L30.9876 34.1820
" />
<path d="M31.0276 31.4000
L31.0276 34.1000
" />
<path d="M31.0676 31.4890
L31.0676 34.0110
" />
<path d="M31.1076 31.5850
L31.1076 33.9150
" />
<path d="M31.1476 31.6920
L31.1476 33.8080
" />
<path d="M31.1876 31.8110
L31.1876 33.6890
" />
<path d="M31.2276 31.9490
L31.2276 33.5510
" />
<path d="M31.2676 32.1170
L31.2676 33.3830
" />
<path d="M31.3076 32.3480
L31.3076 33.1520
" />
<circle cx="28.0676" cy="32.7500" r="3.2700" /> 
<path d="M2.9650 74.6932
L2.9650 77.4532
" />
<path d="M8.1550 74.6932
L2.9650 74.6932
" />
<path d="M8.1550 74.6932
L8.1550 77.4532
" />
<path d="M8.1550 77.4532
L2.9650 77.4532
" />
<path d="M9.4250 74.6932
L10.8050 74.6932
" />
<path d="M10.8050 74.6932
L10.8050 76.0732
" />
<path d="M2.9650 33.2295
L2.9650 35.9895
" />
<path d="M8.1550 33.2295
L2.9650 33.2295
" />
<path d="M8.1550 33.2295
L8.1550 35.9895
" />
<path d="M8.1550 35.9895
L2.9650 35.9895
" />
<path d="M9.4250 33.2295
L10.8050 33.2295
" />
<path d="M10.8050 33.2295
L10.8050 34.6095
" />
<path d="M2.9650 79.3345
L2.9650 82.0945
" />
<path d="M8.1550 79.3345
L2.9650 79.3345
" />
<path d="M8.1550 79.3345
L8.1550 82.0945
" />
<path d="M8.1550 82.0945
L2.9650 82.0945
" />
<path d="M9.4250 79.3345
L10.8050 79.3345
" />
<path d="M10.8050 79.3345
L10.8050 80.7145
" />
<path d="M12.2900 12.3900
L22.5100 12.3900
" />
<path d="M12.2900 17.0100
L12.2900 12.3900
" />
<path d="M15.5500 17.0100
L15.5500 15.6300
" />
<path d="M19.2500 17.0100
L19.2500 15.6300
" />
<path d="M22.5100 12.3900
L22.5100 17.0100
" />
<path d="M22.5100 15.6300
L12.2900 15.6300
" />
<path d="M22.5100 17.0100
L12.2900 17.0100
" />
</g>
<g style="fill:none; 
stroke:#000000; stroke-width:0.2500; stroke-opacity:1; 
stroke-linecap:round; stroke-linejoin:round;">
<path d="M1.5000 5.5000
L9.1000 5.5000
" />
<path d="M1.5000 15.5000
L1.5000 5.5000
" />
<path d="M1.7000 6.6900
L3.2200 6.6900
" />
<path d="M1.7000 11.6900
L3.2200 11.6900
" />
<path d="M3.2200 6.6900
L3.2200 9.3600
" />
<path d="M3.2200 9.3600
L1.7000 9.3600
" />
<path d="M3.2200 11.6900
L3.2200 14.3600
" />
<path d="M3.2200 14.3600
L1.7000 14.3600
" />
<path d="M9.1000 5.5000
L9.1000 15.5000
" />
<path d="M9.1000 15.5000
L1.5000 15.5000
" />
</g>
<g style="fill:none; 
stroke:#000000; stroke-width:0.0600; stroke-opacity:1; 
stroke-linecap:round; stroke-linejoin:round;">
<circle cx="1.5000" cy="5.5000" r="0.0300" /> 
<path style="fill:#000000; fill-opacity:1.0000; stroke:none;fill-rule:evenodd;"
d="M 2.9680,7.9600
2.3330,8.5950
2.3330,8.2140
1.4440,8.2140
1.4440,7.7060
2.3330,7.7060
2.3330,7.3250
Z" /> 
<path style="fill:#000000; fill-opacity:1.0000; stroke:none;fill-rule:evenodd;"
d="M 2.9680,12.9600
2.3330,13.5950
2.3330,13.2140
1.4440,13.2140
1.4440,12.7060
2.3330,12.7060
2.3330,12.3250
Z" /> 
</g>
<g style="fill:none; 
stroke:#000000; stroke-width:0.1200; stroke-opacity:1; 
stroke-linecap:round; stroke-linejoin:round;">
<path d="M14.7700 6.4600
L21.2300 6.4600
" />
<path d="M14.7700 6.5000
L21.2300 6.5000
" />
<path d="M14.7710 6.4200
L21.2290 6.4200
" />
<path d="M14.7720 6.3800
L21.2280 6.3800
" />
<path d="M14.7740 6.3400
L21.2260 6.3400
" />
<path d="M14.7760 6.3000
L21.2240 6.3000
" />
<path d="M14.7790 6.2600
L16.9600 6.2600
" />
<path d="M14.7820 6.2200
L16.9600 6.2200
" />
<path d="M14.7860 6.1800
L16.9600 6.1800
" />
<path d="M14.7900 6.1400
L16.9600 6.1400
" />
<path d="M14.7950 6.1000
L16.9600 6.1000
" />
<path d="M14.8000 6.0600
L16.9600 6.0600
" />
<path d="M14.8050 6.0200
L16.9600 6.0200
" />
<path d="M14.8120 5.9800
L16.9600 5.9800
" />
<path d="M14.8180 5.9400
L16.9600 5.9400
" />
<path d="M14.8260 5.9000
L16.9600 5.9000
" />
<path d="M14.8330 5.8600
L16.9600 5.8600
" />
<path d="M14.8410 5.8200
L16.9600 5.8200
" />
<path d="M14.8500 5.7800
L16.9600 5.7800
" />
<path d="M14.8600 5.7400
L16.9600 5.7400
" />
<path d="M14.8690 5.7000
L16.9600 5.7000
" />
<path d="M14.8800 5.6600
L16.9600 5.6600
" />
<path d="M14.8910 5.6200
L16.9600 5.6200
" />
<path d="M14.9020 5.5800
L16.9600 5.5800
" />
<path d="M14.9140 5.5400
L16.9600 5.5400
" />
<path d="M14.9270 5.5000
L16.9600 5.5000
" />
<path d="M14.9400 5.4600
L16.9600 5.4600
" />
<path d="M14.9530 5.4200
L16.9600 5.4200
" />
<path d="M14.9680 5.3800
L16.9600 5.3800
" />
<path d="M14.9830 5.3400
L16.9600 5.3400
" />
<path d="M14.9980 5.3000
L16.9600 5.3000
" />
<path d="M15.0140 5.2600
L16.9600 5.2600
" />
<path d="M15.0310 5.2200
L16.9600 5.2200
" />
<path d="M15.0480 5.1800
L16.9600 5.1800
" />
<path d="M15.0660 5.1400
L16.9600 5.1400
" />
<path d="M15.0850 5.1000
L16.9600 5.1000
" />
<path d="M15.1040 5.0600
L16.9600 5.0600
" />
<path d="M15.1240 5.0200
L16.9600 5.0200
" />
<path d="M15.1450 4.9800
L16.9600 4.9800
" />
<path d="M15.1660 4.9400
L16.9600 4.9400
" />
<path d="M15.1880 4.9000
L16.9600 4.9000
" />
<path d="M15.2110 4.8600
L16.9600 4.8600
" />
<path d="M15.2350 4.8200
L16.9600 4.8200
" />
<path d="M15.2590 4.7800
L16.9600 4.7800
" />
<path d="M15.2840 4.7400
L16.9600 4.7400
" />
<path d="M15.3100 4.7000
L16.9600 4.7000
" />
<path d="M15.3370 4.6600
L16.9600 4.6600
" />
<path d="M15.3640 4.6200
L16.9600 4.6200
" />
<path d="M15.3930 4.5800
L16.9600 4.5800
" />
<path d="M15.4230 4.5400
L16.9600 4.5400
" />
<path d="M15.4530 4.5000
L16.9600 4.5000
" />
<path d="M15.4840 4.4600
L16.9600 4.4600
" />
<path d="M15.5170 4.4200
L16.9600 4.4200
" />
<path d="M15.5500 4.3800
L16.9600 4.3800
" />
<path d="M15.5850 4.3400
L16.9600 4.3400
" />
<path d="M15.6210 4.3000
L16.9600 4.3000
" />
<path d="M15.6580 4.2600
L16.9600 4.2600
" />
<path d="M15.6960 4.2200
L16.9600 4.2200
" />
<path d="M15.7360 4.1800
L20.2640 4.1800
" />
<path d="M15.7770 4.1400
L20.2230 4.1400
" />
<path d="M15.8190 4.1000
L20.1810 4.1000
" />
<path d="M15.8460 9.6852
L16.4760 9.6852
" />
<path d="M15.8630 4.0600
L20.1370 4.0600
" />
<path d="M15.9090 4.0200
L20.0910 4.0200
" />
<path d="M15.9560 3.9800
L20.0440 3.9800
" />
<path d="M16.0050 3.9400
L19.9950 3.9400
" />
<path d="M16.0570 3.9000
L19.9430 3.9000
" />
<path d="M16.1100 3.8600
L19.8900 3.8600
" />
<path d="M16.1610 10.0002
L16.1610 9.3702
" />
<path d="M16.1660 3.8200
L19.8340 3.8200
" />
<path d="M16.2250 3.7800
L19.7750 3.7800
" />
<path d="M16.2860 3.7400
L19.7140 3.7400
" />
<path d="M16.3510 3.7000
L19.6490 3.7000
" />
<path d="M16.4190 3.6600
L19.5810 3.6600
" />
<path d="M16.4910 3.6200
L19.5090 3.6200
" />
<path d="M16.5680 3.5800
L19.4320 3.5800
" />
<path d="M16.6500 3.5400
L19.3500 3.5400
" />
<path d="M16.7390 3.5000
L19.2610 3.5000
" />
<path d="M16.8350 3.4600
L19.1650 3.4600
" />
<path d="M16.9420 3.4200
L19.0580 3.4200
" />
<path d="M17.0610 3.3800
L18.9390 3.3800
" />
<path d="M17.1990 3.3400
L18.8010 3.3400
" />
<path d="M17.3670 3.3000
L18.6330 3.3000
" />
<path d="M17.5980 3.2600
L18.4020 3.2600
" />
<path d="M19.0400 4.2200
L20.3040 4.2200
" />
<path d="M19.0400 4.2600
L20.3420 4.2600
" />
<path d="M19.0400 4.3000
L20.3790 4.3000
" />
<path d="M19.0400 4.3400
L20.4150 4.3400
" />
<path d="M19.0400 4.3800
L20.4500 4.3800
" />
<path d="M19.0400 4.4200
L20.4830 4.4200
" />
<path d="M19.0400 4.4600
L20.5160 4.4600
" />
<path d="M19.0400 4.5000
L20.5470 4.5000
" />
<path d="M19.0400 4.5400
L20.5770 4.5400
" />
<path d="M19.0400 4.5800
L20.6070 4.5800
" />
<path d="M19.0400 4.6200
L20.6360 4.6200
" />
<path d="M19.0400 4.6600
L20.6630 4.6600
" />
<path d="M19.0400 4.7000
L20.6900 4.7000
" />
<path d="M19.0400 4.7400
L20.7160 4.7400
" />
<path d="M19.0400 4.7800
L20.7410 4.7800
" />
<path d="M19.0400 4.8200
L20.7650 4.8200
" />
<path d="M19.0400 4.8600
L20.7890 4.8600
" />
<path d="M19.0400 4.9000
L20.8120 4.9000
" />
<path d="M19.0400 4.9400
L20.8340 4.9400
" />
<path d="M19.0400 4.9800
L20.8550 4.9800
" />
<path d="M19.0400 5.0200
L20.8760 5.0200
" />
<path d="M19.0400 5.0600
L20.8960 5.0600
" />
<path d="M19.0400 5.1000
L20.9150 5.1000
" />
<path d="M19.0400 5.1400
L20.9340 5.1400
" />
<path d="M19.0400 5.1800
L20.9520 5.1800
" />
<path d="M19.0400 5.2200
L20.9690 5.2200
" />
<path d="M19.0400 5.2600
L20.9860 5.2600
" />
<path d="M19.0400 5.3000
L21.0020 5.3000
" />
<path d="M19.0400 5.3400
L21.0170 5.3400
" />
<path d="M19.0400 5.3800
L21.0320 5.3800
" />
<path d="M19.0400 5.4200
L21.0470 5.4200
" />
<path d="M19.0400 5.4600
L21.0600 5.4600
" />
<path d="M19.0400 5.5000
L21.0730 5.5000
" />
<path d="M19.0400 5.5400
L21.0860 5.5400
" />
<path d="M19.0400 5.5800
L21.0980 5.5800
" />
<path d="M19.0400 5.6200
L21.1090 5.6200
" />
<path d="M19.0400 5.6600
L21.1200 5.6600
" />
<path d="M19.0400 5.7000
L21.1310 5.7000
" />
<path d="M19.0400 5.7400
L21.1400 5.7400
" />
<path d="M19.0400 5.7800
L21.1500 5.7800
" />
<path d="M19.0400 5.8200
L21.1590 5.8200
" />
<path d="M19.0400 5.8600
L21.1670 5.8600
" />
<path d="M19.0400 5.9000
L21.1740 5.9000
" />
<path d="M19.0400 5.9400
L21.1820 5.9400
" />
<path d="M19.0400 5.9800
L21.1880 5.9800
" />
<path d="M19.0400 6.0200
L21.1950 6.0200
" />
<path d="M19.0400 6.0600
L21.2000 6.0600
" />
<path d="M19.0400 6.1000
L21.2050 6.1000
" />
<path d="M19.0400 6.1400
L21.2100 6.1400
" />
<path d="M19.0400 6.1800
L21.2140 6.1800
" />
<path d="M19.0400 6.2200
L21.2180 6.2200
" />
<path d="M19.0400 6.2600
L21.2210 6.2600
" />
<circle cx="18.0000" cy="6.5000" r="3.2700" /> 
<path d="M2.9650 28.6295
L2.9650 31.3895
" />
<path d="M8.1550 28.6295
L2.9650 28.6295
" />
<path d="M8.1550 28.6295
L8.1550 31.3895
" />
<path d="M8.1550 31.3895
L2.9650 31.3895
" />
<path d="M9.4250 28.6295
L10.8050 28.6295
" />
<path d="M10.8050 28.6295
L10.8050 30.0095
" />
<path d="M2.9650 51.4864
L2.9650 54.2464
" />
<path d="M8.1550 51.4864
L2.9650 51.4864
" />
<path d="M8.1550 51.4864
L8.1550 54.2464
" />
<path d="M8.1550 54.2464
L2.9650 54.2464
" />
<path d="M9.4250 51.4864
L10.8050 51.4864
" />
<path d="M10.8050 51.4864
L10.8050 52.8664
" />
<path d="M19.1600 37.9000
L19.1600 40.5700
" />
<path d="M19.1600 43.1100
L19.1600 81.3400
" />
<path d="M19.1600 81.3400
L24.2400 81.3400
" />
<path d="M21.8300 40.5700
L19.1600 40.5700
" />
<path d="M21.8300 43.1100
L19.1600 43.1100
" />
<path d="M21.8300 43.1100
L21.8300 40.5700
" />
<path d="M21.8300 43.1100
L21.8300 78.6700
" />
<path d="M21.8300 78.6700
L19.1600 78.6700
" />
<path d="M24.2400 73.4600
L32.1200 73.4600
" />
<path d="M24.2400 83.8800
L24.2400 73.4600
" />
<path d="M32.1200 73.4600
L32.1200 83.8800
" />
<path d="M32.1200 83.8800
L24.2400 83.8800
" />
<path d="M34.5300 40.5700
L34.5300 78.6700
" />
<path d="M34.5300 40.5700
L37.2000 40.5700
" />
<path d="M34.5300 78.6700
L37.2000 78.6700
" />
<path d="M37.2000 37.9000
L19.1600 37.9000
" />
<path d="M37.2000 81.3400
L32.1200 81.3400
" />
<path d="M37.2000 81.3400
L37.2000 37.9000
" />
<path d="M36.5750 33.2000
L36.6450 33.2000
" />
<circle cx="35.2050" cy="33.2000" r="1.3700" /> 
<path d="M2.9650 70.0518
L2.9650 72.8118
" />
<path d="M8.1550 70.0518
L2.9650 70.0518
" />
<path d="M8.1550 70.0518
L8.1550 72.8118
" />
<path d="M8.1550 72.8118
L2.9650 72.8118
" />
<path d="M9.4250 70.0518
L10.8050 70.0518
" />
<path d="M10.8050 70.0518
L10.8050 71.4318
" />
</g>
<g style="fill:none; 
stroke:#000000; stroke-width:0.2500; stroke-opacity:1; 
stroke-linecap:round; stroke-linejoin:round;">
<path d="M25.3500 21.3500
L25.5200 21.3500
" />
<path d="M25.3500 22.5000
L25.3500 21.3500
" />
<path d="M25.3500 26.0000
L25.3500 22.5000
" />
<path d="M25.3500 27.1500
L25.3500 26.0000
" />
<path d="M25.5200 27.1500
L25.3500 27.1500
" />
<path d="M26.6500 23.2500
L26.6500 25.2500
" />
<path d="M26.6500 25.2500
L29.8500 25.2500
" />
<path d="M26.9800 21.3500
L27.5200 21.3500
" />
<path d="M27.5200 27.1500
L26.9800 27.1500
" />
<path d="M28.9800 21.3500
L29.5200 21.3500
" />
<path d="M29.5200 27.1500
L28.9800 27.1500
" />
<path d="M29.8500 23.2500
L26.6500 23.2500
" />
<path d="M29.8500 25.2500
L29.8500 23.2500
" />
<path d="M30.9800 21.3500
L31.1500 21.3500
" />
<path d="M31.1500 21.3500
L31.1500 22.5000
" />
<path d="M31.1500 22.5000
L31.1500 26.0000
" />
<path d="M31.1500 26.0000
L31.1500 27.1500
" />
<path d="M31.1500 27.1500
L30.9800 27.1500
" />
</g>
<g style="fill:none; 
stroke:#000000; stroke-width:0.0600; stroke-opacity:1; 
stroke-linecap:round; stroke-linejoin:round;">
<circle cx="31.1500" cy="21.3500" r="0.0300" /> 
<path style="fill:#000000; fill-opacity:1.0000; stroke:none;fill-rule:evenodd;"
d="M 29.7302,24.9300
28.9901,24.9300
28.9901,23.5900
28.9901,23.5800
29.7302,23.5800
Z" /> 
</g>
<g style="fill:none; 
stroke:#000000; stroke-width:0.1200; stroke-opacity:1; 
stroke-linecap:round; stroke-linejoin:round;">
<path d="M2.9650 60.7691
L2.9650 63.5291
" />
<path d="M8.1550 60.7691
L2.9650 60.7691
" />
<path d="M8.1550 60.7691
L8.1550 63.5291
" />
<path d="M8.1550 63.5291
L2.9650 63.5291
" />
<path d="M9.4250 60.7691
L10.8050 60.7691
" />
<path d="M10.8050 60.7691
L10.8050 62.1491
" />
<path d="M2.9650 65.4105
L2.9650 68.1705
" />
<path d="M8.1550 65.4105
L2.9650 65.4105
" />
<path d="M8.1550 65.4105
L8.1550 68.1705
" />
<path d="M8.1550 68.1705
L2.9650 68.1705
" />
<path d="M9.4250 65.4105
L10.8050 65.4105
" />
<path d="M10.8050 65.4105
L10.8050 66.7905
" />
<path d="M2.9650 42.2036
L2.9650 44.9636
" />
<path d="M8.1550 42.2036
L2.9650 42.2036
" />
<path d="M8.1550 42.2036
L8.1550 44.9636
" />
<path d="M8.1550 44.9636
L2.9650 44.9636
" />
<path d="M9.4250 42.2036
L10.8050 42.2036
" />
<path d="M10.8050 42.2036
L10.8050 43.5836
" />
<path d="M12.2900 19.2900
L22.5100 19.2900
" />
<path d="M12.2900 23.9100
L12.2900 19.2900
" />
<path d="M15.5500 23.9100
L15.5500 22.5300
" />
<path d="M19.2500 23.9100
L19.2500 22.5300
" />
<path d="M22.5100 19.2900
L22.5100 23.9100
" />
<path d="M22.5100 22.5300
L12.2900 22.5300
" />
<path d="M22.5100 23.9100
L12.2900 23.9100
" />
<path d="M3.9600 22.4900
L1.7790 22.4900
" />
<path d="M3.9600 22.5300
L1.7820 22.5300
" />
<path d="M3.9600 22.5700
L1.7860 22.5700
" />
<path d="M3.9600 22.6100
L1.7900 22.6100
" />
<path d="M3.9600 22.6500
L1.7950 22.6500
" />
<path d="M3.9600 22.6900
L1.8000 22.6900
" />
<path d="M3.9600 22.7300
L1.8050 22.7300
" />
<path d="M3.9600 22.7700
L1.8120 22.7700
" />
<path d="M3.9600 22.8100
L1.8180 22.8100
" />
<path d="M3.9600 22.8500
L1.8260 22.8500
" />
<path d="M3.9600 22.8900
L1.8330 22.8900
" />
<path d="M3.9600 22.9300
L1.8410 22.9300
" />
<path d="M3.9600 22.9700
L1.8500 22.9700
" />
<path d="M3.9600 23.0100
L1.8600 23.0100
" />
<path d="M3.9600 23.0500
L1.8690 23.0500
" />
<path d="M3.9600 23.0900
L1.8800 23.0900
" />
<path d="M3.9600 23.1300
L1.8910 23.1300
" />
<path d="M3.9600 23.1700
L1.9020 23.1700
" />
<path d="M3.9600 23.2100
L1.9140 23.2100
" />
<path d="M3.9600 23.2500
L1.9270 23.2500
" />
<path d="M3.9600 23.2900
L1.9400 23.2900
" />
<path d="M3.9600 23.3300
L1.9530 23.3300
" />
<path d="M3.9600 23.3700
L1.9680 23.3700
" />
<path d="M3.9600 23.4100
L1.9830 23.4100
" />
<path d="M3.9600 23.4500
L1.9980 23.4500
" />
<path d="M3.9600 23.4900
L2.0140 23.4900
" />
<path d="M3.9600 23.5300
L2.0310 23.5300
" />
<path d="M3.9600 23.5700
L2.0480 23.5700
" />
<path d="M3.9600 23.6100
L2.0660 23.6100
" />
<path d="M3.9600 23.6500
L2.0850 23.6500
" />
<path d="M3.9600 23.6900
L2.1040 23.6900
" />
<path d="M3.9600 23.7300
L2.1240 23.7300
" />
<path d="M3.9600 23.7700
L2.1450 23.7700
" />
<path d="M3.9600 23.8100
L2.1660 23.8100
" />
<path d="M3.9600 23.8500
L2.1880 23.8500
" />
<path d="M3.9600 23.8900
L2.2110 23.8900
" />
<path d="M3.9600 23.9300
L2.2350 23.9300
" />
<path d="M3.9600 23.9700
L2.2590 23.9700
" />
<path d="M3.9600 24.0100
L2.2840 24.0100
" />
<path d="M3.9600 24.0500
L2.3100 24.0500
" />
<path d="M3.9600 24.0900
L2.3370 24.0900
" />
<path d="M3.9600 24.1300
L2.3640 24.1300
" />
<path d="M3.9600 24.1700
L2.3930 24.1700
" />
<path d="M3.9600 24.2100
L2.4230 24.2100
" />
<path d="M3.9600 24.2500
L2.4530 24.2500
" />
<path d="M3.9600 24.2900
L2.4840 24.2900
" />
<path d="M3.9600 24.3300
L2.5170 24.3300
" />
<path d="M3.9600 24.3700
L2.5500 24.3700
" />
<path d="M3.9600 24.4100
L2.5850 24.4100
" />
<path d="M3.9600 24.4500
L2.6210 24.4500
" />
<path d="M3.9600 24.4900
L2.6580 24.4900
" />
<path d="M3.9600 24.5300
L2.6960 24.5300
" />
<path d="M5.4020 25.4900
L4.5980 25.4900
" />
<path d="M5.6330 25.4500
L4.3670 25.4500
" />
<path d="M5.8010 25.4100
L4.1990 25.4100
" />
<path d="M5.9390 25.3700
L4.0610 25.3700
" />
<path d="M6.0580 25.3300
L3.9420 25.3300
" />
<path d="M6.1650 25.2900
L3.8350 25.2900
" />
<path d="M6.2610 25.2500
L3.7390 25.2500
" />
<path d="M6.3500 25.2100
L3.6500 25.2100
" />
<path d="M6.4320 25.1700
L3.5680 25.1700
" />
<path d="M6.5090 25.1300
L3.4910 25.1300
" />
<path d="M6.5810 25.0900
L3.4190 25.0900
" />
<path d="M6.6490 25.0500
L3.3510 25.0500
" />
<path d="M6.7140 25.0100
L3.2860 25.0100
" />
<path d="M6.7750 24.9700
L3.2250 24.9700
" />
<path d="M6.8340 24.9300
L3.1660 24.9300
" />
<path d="M6.8390 18.7498
L6.8390 19.3798
" />
<path d="M6.8900 24.8900
L3.1100 24.8900
" />
<path d="M6.9430 24.8500
L3.0570 24.8500
" />
<path d="M6.9950 24.8100
L3.0050 24.8100
" />
<path d="M7.0440 24.7700
L2.9560 24.7700
" />
<path d="M7.0910 24.7300
L2.9090 24.7300
" />
<path d="M7.1370 24.6900
L2.8630 24.6900
" />
<path d="M7.1540 19.0648
L6.5240 19.0648
" />
<path d="M7.1810 24.6500
L2.8190 24.6500
" />
<path d="M7.2230 24.6100
L2.7770 24.6100
" />
<path d="M7.2640 24.5700
L2.7360 24.5700
" />
<path d="M7.3040 24.5300
L6.0400 24.5300
" />
<path d="M7.3420 24.4900
L6.0400 24.4900
" />
<path d="M7.3790 24.4500
L6.0400 24.4500
" />
<path d="M7.4150 24.4100
L6.0400 24.4100
" />
<path d="M7.4500 24.3700
L6.0400 24.3700
" />
<path d="M7.4830 24.3300
L6.0400 24.3300
" />
<path d="M7.5160 24.2900
L6.0400 24.2900
" />
<path d="M7.5470 24.2500
L6.0400 24.2500
" />
<path d="M7.5770 24.2100
L6.0400 24.2100
" />
<path d="M7.6070 24.1700
L6.0400 24.1700
" />
<path d="M7.6360 24.1300
L6.0400 24.1300
" />
<path d="M7.6630 24.0900
L6.0400 24.0900
" />
<path d="M7.6900 24.0500
L6.0400 24.0500
" />
<path d="M7.7160 24.0100
L6.0400 24.0100
" />
<path d="M7.7410 23.9700
L6.0400 23.9700
" />
<path d="M7.7650 23.9300
L6.0400 23.9300
" />
<path d="M7.7890 23.8900
L6.0400 23.8900
" />
<path d="M7.8120 23.8500
L6.0400 23.8500
" />
<path d="M7.8340 23.8100
L6.0400 23.8100
" />
<path d="M7.8550 23.7700
L6.0400 23.7700
" />
<path d="M7.8760 23.7300
L6.0400 23.7300
" />
<path d="M7.8960 23.6900
L6.0400 23.6900
" />
<path d="M7.9150 23.6500
L6.0400 23.6500
" />
<path d="M7.9340 23.6100
L6.0400 23.6100
" />
<path d="M7.9520 23.5700
L6.0400 23.5700
" />
<path d="M7.9690 23.5300
L6.0400 23.5300
" />
<path d="M7.9860 23.4900
L6.0400 23.4900
" />
<path d="M8.0020 23.4500
L6.0400 23.4500
" />
<path d="M8.0170 23.4100
L6.0400 23.4100
" />
<path d="M8.0320 23.3700
L6.0400 23.3700
" />
<path d="M8.0470 23.3300
L6.0400 23.3300
" />
<path d="M8.0600 23.2900
L6.0400 23.2900
" />
<path d="M8.0730 23.2500
L6.0400 23.2500
" />
<path d="M8.0860 23.2100
L6.0400 23.2100
" />
<path d="M8.0980 23.1700
L6.0400 23.1700
" />
<path d="M8.1090 23.1300
L6.0400 23.1300
" />
<path d="M8.1200 23.0900
L6.0400 23.0900
" />
<path d="M8.1310 23.0500
L6.0400 23.0500
" />
<path d="M8.1400 23.0100
L6.0400 23.0100
" />
<path d="M8.1500 22.9700
L6.0400 22.9700
" />
<path d="M8.1590 22.9300
L6.0400 22.9300
" />
<path d="M8.1670 22.8900
L6.0400 22.8900
" />
<path d="M8.1740 22.8500
L6.0400 22.8500
" />
<path d="M8.1820 22.8100
L6.0400 22.8100
" />
<path d="M8.1880 22.7700
L6.0400 22.7700
" />
<path d="M8.1950 22.7300
L6.0400 22.7300
" />
<path d="M8.2000 22.6900
L6.0400 22.6900
" />
<path d="M8.2050 22.6500
L6.0400 22.6500
" />
<path d="M8.2100 22.6100
L6.0400 22.6100
" />
<path d="M8.2140 22.5700
L6.0400 22.5700
" />
<path d="M8.2180 22.5300
L6.0400 22.5300
" />
<path d="M8.2210 22.4900
L6.0400 22.4900
" />
<path d="M8.2240 22.4500
L1.7760 22.4500
" />
<path d="M8.2260 22.4100
L1.7740 22.4100
" />
<path d="M8.2280 22.3700
L1.7720 22.3700
" />
<path d="M8.2290 22.3300
L1.7710 22.3300
" />
<path d="M8.2300 22.2500
L1.7700 22.2500
" />
<path d="M8.2300 22.2900
L1.7700 22.2900
" />
<circle cx="5.0000" cy="22.2500" r="3.2700" /> 
<path d="M33.9200 25.7050
L33.9200 28.7950
" />
<path d="M39.4700 27.2500 A2.9900 2.9900 0.0 0 0 33.9200 25.7052" />
<path d="M33.9200 28.7948 A2.9900 2.9900 0.0 0 0 39.4700 27.2500" />
<circle cx="36.4800" cy="27.2500" r="2.5000" /> 
<path d="M2.9650 46.8450
L2.9650 49.6050
" />
<path d="M8.1550 46.8450
L2.9650 46.8450
" />
<path d="M8.1550 46.8450
L8.1550 49.6050
" />
<path d="M8.1550 49.6050
L2.9650 49.6050
" />
<path d="M9.4250 46.8450
L10.8050 46.8450
" />
<path d="M10.8050 46.8450
L10.8050 48.2250
" />
<path style="fill:none; 
stroke:#000000; stroke-width:0.1000; stroke-opacity:1; 
stroke-linecap:round; stroke-linejoin:round;fill:none"
d="M 0.0000,0.0000
44.0000,0.0000
44.0000,85.0000
0.0000,85.0000
Z" /> 
</g> 
</svg>
