<?xml version="1.0" standalone="no"?>
 <!DOCTYPE svg PUBLIC "-//W3C//DTD SVG 1.1//EN" 
 "http://www.w3.org/Graphics/SVG/1.1/DTD/svg11.dtd"> 
<svg
  xmlns:svg="http://www.w3.org/2000/svg"
  xmlns="http://www.w3.org/2000/svg"
  xmlns:xlink="http://www.w3.org/1999/xlink"
  xmlns:inkscape="http://www.inkscape.org/namespaces/inkscape"
  version="1.1"
  width="43.9928mm" height="84.9884mm" viewBox="0.0000 0.0000 43.9928 84.9884">
<title>SVG Image created as nano_IPBL_2026-B_Cu.svg date 2026-07-24T12:07:28 </title>
  <desc>Image generated by PCBNEW </desc>
<g style="fill:#000000; fill-opacity:1.0000;stroke:#000000; stroke-opacity:1.0000;
stroke-linecap:round; stroke-linejoin:round;"
 transform="translate(0 0) scale(1 1)">
</g>
<g style="fill:none; 
stroke:#4D7FC4; stroke-width:0.2500; stroke-opacity:1; 
stroke-linecap:round; stroke-linejoin:round;">
<g transform="rotate(-90.000000 3.7500 68.2500)">
<text x="3.7500" y="68.2500"
transform="scale(-1 1) translate(-7.500000 0)"
textLength="15.0262" font-size="1.3333" lengthAdjust="spacingAndGlyphs"
text-anchor="start" opacity="0" stroke-opacity="0">PCB Design Rev3.3</text>
</g>
<g class="stroked-text"><desc>PCB Design Rev3.3</desc>
<path d="M3.6146 68.6526
L2.6146 68.6526
" />
<path d="M2.6146 68.6526
L2.6146 69.0335
" />
<path d="M2.6146 69.0335
L2.6622 69.1288
" />
<path d="M2.6622 69.1288
L2.7099 69.1764
" />
<path d="M2.7099 69.1764
L2.8051 69.2240
" />
<path d="M2.8051 69.2240
L2.9480 69.2240
" />
<path d="M2.9480 69.2240
L3.0432 69.1764
" />
<path d="M3.0432 69.1764
L3.0908 69.1288
" />
<path d="M3.0908 69.1288
L3.1384 69.0335
" />
<path d="M3.1384 69.0335
L3.1384 68.6526
" />
<path d="M3.5194 70.2240
L3.5670 70.1764
" />
<path d="M3.5670 70.1764
L3.6146 70.0335
" />
<path d="M3.6146 70.0335
L3.6146 69.9383
" />
<path d="M3.6146 69.9383
L3.5670 69.7954
" />
<path d="M3.5670 69.7954
L3.4718 69.7002
" />
<path d="M3.4718 69.7002
L3.3765 69.6526
" />
<path d="M3.3765 69.6526
L3.1860 69.6049
" />
<path d="M3.1860 69.6049
L3.0432 69.6049
" />
<path d="M3.0432 69.6049
L2.8527 69.6526
" />
<path d="M2.8527 69.6526
L2.7575 69.7002
" />
<path d="M2.7575 69.7002
L2.6622 69.7954
" />
<path d="M2.6622 69.7954
L2.6146 69.9383
" />
<path d="M2.6146 69.9383
L2.6146 70.0335
" />
<path d="M2.6146 70.0335
L2.6622 70.1764
" />
<path d="M2.6622 70.1764
L2.7099 70.2240
" />
<path d="M3.0908 70.9859
L3.1384 71.1288
" />
<path d="M3.1384 71.1288
L3.1860 71.1764
" />
<path d="M3.1860 71.1764
L3.2813 71.2240
" />
<path d="M3.2813 71.2240
L3.4241 71.2240
" />
<path d="M3.4241 71.2240
L3.5194 71.1764
" />
<path d="M3.5194 71.1764
L3.5670 71.1288
" />
<path d="M3.5670 71.1288
L3.6146 71.0335
" />
<path d="M3.6146 71.0335
L3.6146 70.6526
" />
<path d="M3.6146 70.6526
L2.6146 70.6526
" />
<path d="M2.6146 70.6526
L2.6146 70.9859
" />
<path d="M2.6146 70.9859
L2.6622 71.0811
" />
<path d="M2.6622 71.0811
L2.7099 71.1288
" />
<path d="M2.7099 71.1288
L2.8051 71.1764
" />
<path d="M2.8051 71.1764
L2.9003 71.1764
" />
<path d="M2.9003 71.1764
L2.9956 71.1288
" />
<path d="M2.9956 71.1288
L3.0432 71.0811
" />
<path d="M3.0432 71.0811
L3.0908 70.9859
" />
<path d="M3.0908 70.9859
L3.0908 70.6526
" />
<path d="M3.6146 72.4145
L2.6146 72.4145
" />
<path d="M2.6146 72.4145
L2.6146 72.6526
" />
<path d="M2.6146 72.6526
L2.6622 72.7954
" />
<path d="M2.6622 72.7954
L2.7575 72.8907
" />
<path d="M2.7575 72.8907
L2.8527 72.9383
" />
<path d="M2.8527 72.9383
L3.0432 72.9859
" />
<path d="M3.0432 72.9859
L3.1860 72.9859
" />
<path d="M3.1860 72.9859
L3.3765 72.9383
" />
<path d="M3.3765 72.9383
L3.4718 72.8907
" />
<path d="M3.4718 72.8907
L3.5670 72.7954
" />
<path d="M3.5670 72.7954
L3.6146 72.6526
" />
<path d="M3.6146 72.6526
L3.6146 72.4145
" />
<path d="M3.5670 73.7954
L3.6146 73.7002
" />
<path d="M3.6146 73.7002
L3.6146 73.5097
" />
<path d="M3.6146 73.5097
L3.5670 73.4145
" />
<path d="M3.5670 73.4145
L3.4718 73.3669
" />
<path d="M3.4718 73.3669
L3.0908 73.3669
" />
<path d="M3.0908 73.3669
L2.9956 73.4145
" />
<path d="M2.9956 73.4145
L2.9480 73.5097
" />
<path d="M2.9480 73.5097
L2.9480 73.7002
" />
<path d="M2.9480 73.7002
L2.9956 73.7954
" />
<path d="M2.9956 73.7954
L3.0908 73.8430
" />
<path d="M3.0908 73.8430
L3.1860 73.8430
" />
<path d="M3.1860 73.8430
L3.2813 73.3669
" />
<path d="M3.5670 74.2240
L3.6146 74.3192
" />
<path d="M3.6146 74.3192
L3.6146 74.5097
" />
<path d="M3.6146 74.5097
L3.5670 74.6049
" />
<path d="M3.5670 74.6049
L3.4718 74.6526
" />
<path d="M3.4718 74.6526
L3.4241 74.6526
" />
<path d="M3.4241 74.6526
L3.3289 74.6049
" />
<path d="M3.3289 74.6049
L3.2813 74.5097
" />
<path d="M3.2813 74.5097
L3.2813 74.3669
" />
<path d="M3.2813 74.3669
L3.2337 74.2716
" />
<path d="M3.2337 74.2716
L3.1384 74.2240
" />
<path d="M3.1384 74.2240
L3.0908 74.2240
" />
<path d="M3.0908 74.2240
L2.9956 74.2716
" />
<path d="M2.9956 74.2716
L2.9480 74.3669
" />
<path d="M2.9480 74.3669
L2.9480 74.5097
" />
<path d="M2.9480 74.5097
L2.9956 74.6049
" />
<path d="M3.6146 75.0811
L2.9480 75.0811
" />
<path d="M2.6146 75.0811
L2.6622 75.0335
" />
<path d="M2.6622 75.0335
L2.7099 75.0811
" />
<path d="M2.7099 75.0811
L2.6622 75.1288
" />
<path d="M2.6622 75.1288
L2.6146 75.0811
" />
<path d="M2.6146 75.0811
L2.7099 75.0811
" />
<path d="M2.9480 75.9859
L3.7575 75.9859
" />
<path d="M3.7575 75.9859
L3.8527 75.9383
" />
<path d="M3.8527 75.9383
L3.9003 75.8907
" />
<path d="M3.9003 75.8907
L3.9480 75.7954
" />
<path d="M3.9480 75.7954
L3.9480 75.6526
" />
<path d="M3.9480 75.6526
L3.9003 75.5573
" />
<path d="M3.5670 75.9859
L3.6146 75.8907
" />
<path d="M3.6146 75.8907
L3.6146 75.7002
" />
<path d="M3.6146 75.7002
L3.5670 75.6049
" />
<path d="M3.5670 75.6049
L3.5194 75.5573
" />
<path d="M3.5194 75.5573
L3.4241 75.5097
" />
<path d="M3.4241 75.5097
L3.1384 75.5097
" />
<path d="M3.1384 75.5097
L3.0432 75.5573
" />
<path d="M3.0432 75.5573
L2.9956 75.6049
" />
<path d="M2.9956 75.6049
L2.9480 75.7002
" />
<path d="M2.9480 75.7002
L2.9480 75.8907
" />
<path d="M2.9480 75.8907
L2.9956 75.9859
" />
<path d="M2.9480 76.4621
L3.6146 76.4621
" />
<path d="M3.0432 76.4621
L2.9956 76.5097
" />
<path d="M2.9956 76.5097
L2.9480 76.6049
" />
<path d="M2.9480 76.6049
L2.9480 76.7478
" />
<path d="M2.9480 76.7478
L2.9956 76.8430
" />
<path d="M2.9956 76.8430
L3.0908 76.8907
" />
<path d="M3.0908 76.8907
L3.6146 76.8907
" />
<path d="M3.6146 78.7002
L3.1384 78.3669
" />
<path d="M3.6146 78.1288
L2.6146 78.1288
" />
<path d="M2.6146 78.1288
L2.6146 78.5097
" />
<path d="M2.6146 78.5097
L2.6622 78.6049
" />
<path d="M2.6622 78.6049
L2.7099 78.6526
" />
<path d="M2.7099 78.6526
L2.8051 78.7002
" />
<path d="M2.8051 78.7002
L2.9480 78.7002
" />
<path d="M2.9480 78.7002
L3.0432 78.6526
" />
<path d="M3.0432 78.6526
L3.0908 78.6049
" />
<path d="M3.0908 78.6049
L3.1384 78.5097
" />
<path d="M3.1384 78.5097
L3.1384 78.1288
" />
<path d="M3.5670 79.5097
L3.6146 79.4145
" />
<path d="M3.6146 79.4145
L3.6146 79.2240
" />
<path d="M3.6146 79.2240
L3.5670 79.1288
" />
<path d="M3.5670 79.1288
L3.4718 79.0811
" />
<path d="M3.4718 79.0811
L3.0908 79.0811
" />
<path d="M3.0908 79.0811
L2.9956 79.1288
" />
<path d="M2.9956 79.1288
L2.9480 79.2240
" />
<path d="M2.9480 79.2240
L2.9480 79.4145
" />
<path d="M2.9480 79.4145
L2.9956 79.5097
" />
<path d="M2.9956 79.5097
L3.0908 79.5573
" />
<path d="M3.0908 79.5573
L3.1860 79.5573
" />
<path d="M3.1860 79.5573
L3.2813 79.0811
" />
<path d="M2.9480 79.8907
L3.6146 80.1288
" />
<path d="M3.6146 80.1288
L2.9480 80.3669
" />
<path d="M2.6146 80.6526
L2.6146 81.2716
" />
<path d="M2.6146 81.2716
L2.9956 80.9383
" />
<path d="M2.9956 80.9383
L2.9956 81.0811
" />
<path d="M2.9956 81.0811
L3.0432 81.1764
" />
<path d="M3.0432 81.1764
L3.0908 81.2240
" />
<path d="M3.0908 81.2240
L3.1860 81.2716
" />
<path d="M3.1860 81.2716
L3.4241 81.2716
" />
<path d="M3.4241 81.2716
L3.5194 81.2240
" />
<path d="M3.5194 81.2240
L3.5670 81.1764
" />
<path d="M3.5670 81.1764
L3.6146 81.0811
" />
<path d="M3.6146 81.0811
L3.6146 80.7954
" />
<path d="M3.6146 80.7954
L3.5670 80.7002
" />
<path d="M3.5670 80.7002
L3.5194 80.6526
" />
<path d="M3.5194 81.7002
L3.5670 81.7478
" />
<path d="M3.5670 81.7478
L3.6146 81.7002
" />
<path d="M3.6146 81.7002
L3.5670 81.6526
" />
<path d="M3.5670 81.6526
L3.5194 81.7002
" />
<path d="M3.5194 81.7002
L3.6146 81.7002
" />
<path d="M2.6146 82.0811
L2.6146 82.7002
" />
<path d="M2.6146 82.7002
L2.9956 82.3669
" />
<path d="M2.9956 82.3669
L2.9956 82.5097
" />
<path d="M2.9956 82.5097
L3.0432 82.6049
" />
<path d="M3.0432 82.6049
L3.0908 82.6526
" />
<path d="M3.0908 82.6526
L3.1860 82.7002
" />
<path d="M3.1860 82.7002
L3.4241 82.7002
" />
<path d="M3.4241 82.7002
L3.5194 82.6526
" />
<path d="M3.5194 82.6526
L3.5670 82.6049
" />
<path d="M3.5670 82.6049
L3.6146 82.5097
" />
<path d="M3.6146 82.5097
L3.6146 82.2240
" />
<path d="M3.6146 82.2240
L3.5670 82.1288
" />
<path d="M3.5670 82.1288
L3.5194 82.0811
" />
</g></g>
<g style="fill:none; 
stroke:#4D7FC4; stroke-width:0.3000; stroke-opacity:1; 
stroke-linecap:round; stroke-linejoin:round;">
<g transform="rotate(-90.000000 38.0681 3.0000)">
<text x="38.0681" y="3.0000"
transform="scale(-1 1) translate(-76.136134 0)"
textLength="10.0886" font-size="1.6000" lengthAdjust="spacingAndGlyphs"
text-anchor="start" opacity="0" stroke-opacity="0">IPBL 2026</text>
</g>
<g class="stroked-text"><desc>IPBL 2026</desc>
<path d="M37.9056 3.4831
L36.7056 3.4831
" />
<path d="M37.9056 4.0545
L36.7056 4.0545
" />
<path d="M36.7056 4.0545
L36.7056 4.5117
" />
<path d="M36.7056 4.5117
L36.7628 4.6259
" />
<path d="M36.7628 4.6259
L36.8199 4.6831
" />
<path d="M36.8199 4.6831
L36.9342 4.7402
" />
<path d="M36.9342 4.7402
L37.1056 4.7402
" />
<path d="M37.1056 4.7402
L37.2199 4.6831
" />
<path d="M37.2199 4.6831
L37.2770 4.6259
" />
<path d="M37.2770 4.6259
L37.3342 4.5117
" />
<path d="M37.3342 4.5117
L37.3342 4.0545
" />
<path d="M37.2770 5.6545
L37.3342 5.8259
" />
<path d="M37.3342 5.8259
L37.3913 5.8831
" />
<path d="M37.3913 5.8831
L37.5056 5.9402
" />
<path d="M37.5056 5.9402
L37.6770 5.9402
" />
<path d="M37.6770 5.9402
L37.7913 5.8831
" />
<path d="M37.7913 5.8831
L37.8485 5.8259
" />
<path d="M37.8485 5.8259
L37.9056 5.7117
" />
<path d="M37.9056 5.7117
L37.9056 5.2545
" />
<path d="M37.9056 5.2545
L36.7056 5.2545
" />
<path d="M36.7056 5.2545
L36.7056 5.6545
" />
<path d="M36.7056 5.6545
L36.7628 5.7688
" />
<path d="M36.7628 5.7688
L36.8199 5.8259
" />
<path d="M36.8199 5.8259
L36.9342 5.8831
" />
<path d="M36.9342 5.8831
L37.0485 5.8831
" />
<path d="M37.0485 5.8831
L37.1628 5.8259
" />
<path d="M37.1628 5.8259
L37.2199 5.7688
" />
<path d="M37.2199 5.7688
L37.2770 5.6545
" />
<path d="M37.2770 5.6545
L37.2770 5.2545
" />
<path d="M37.9056 7.0259
L37.9056 6.4545
" />
<path d="M37.9056 6.4545
L36.7056 6.4545
" />
<path d="M36.8199 8.2831
L36.7628 8.3402
" />
<path d="M36.7628 8.3402
L36.7056 8.4545
" />
<path d="M36.7056 8.4545
L36.7056 8.7402
" />
<path d="M36.7056 8.7402
L36.7628 8.8545
" />
<path d="M36.7628 8.8545
L36.8199 8.9117
" />
<path d="M36.8199 8.9117
L36.9342 8.9688
" />
<path d="M36.9342 8.9688
L37.0485 8.9688
" />
<path d="M37.0485 8.9688
L37.2199 8.9117
" />
<path d="M37.2199 8.9117
L37.9056 8.2259
" />
<path d="M37.9056 8.2259
L37.9056 8.9688
" />
<path d="M36.7056 9.7117
L36.7056 9.8259
" />
<path d="M36.7056 9.8259
L36.7628 9.9402
" />
<path d="M36.7628 9.9402
L36.8199 9.9974
" />
<path d="M36.8199 9.9974
L36.9342 10.0545
" />
<path d="M36.9342 10.0545
L37.1628 10.1117
" />
<path d="M37.1628 10.1117
L37.4485 10.1117
" />
<path d="M37.4485 10.1117
L37.6770 10.0545
" />
<path d="M37.6770 10.0545
L37.7913 9.9974
" />
<path d="M37.7913 9.9974
L37.8485 9.9402
" />
<path d="M37.8485 9.9402
L37.9056 9.8259
" />
<path d="M37.9056 9.8259
L37.9056 9.7117
" />
<path d="M37.9056 9.7117
L37.8485 9.5974
" />
<path d="M37.8485 9.5974
L37.7913 9.5402
" />
<path d="M37.7913 9.5402
L37.6770 9.4831
" />
<path d="M37.6770 9.4831
L37.4485 9.4259
" />
<path d="M37.4485 9.4259
L37.1628 9.4259
" />
<path d="M37.1628 9.4259
L36.9342 9.4831
" />
<path d="M36.9342 9.4831
L36.8199 9.5402
" />
<path d="M36.8199 9.5402
L36.7628 9.5974
" />
<path d="M36.7628 9.5974
L36.7056 9.7117
" />
<path d="M36.8199 10.5688
L36.7628 10.6259
" />
<path d="M36.7628 10.6259
L36.7056 10.7402
" />
<path d="M36.7056 10.7402
L36.7056 11.0259
" />
<path d="M36.7056 11.0259
L36.7628 11.1402
" />
<path d="M36.7628 11.1402
L36.8199 11.1974
" />
<path d="M36.8199 11.1974
L36.9342 11.2545
" />
<path d="M36.9342 11.2545
L37.0485 11.2545
" />
<path d="M37.0485 11.2545
L37.2199 11.1974
" />
<path d="M37.2199 11.1974
L37.9056 10.5117
" />
<path d="M37.9056 10.5117
L37.9056 11.2545
" />
<path d="M36.7056 12.2831
L36.7056 12.0545
" />
<path d="M36.7056 12.0545
L36.7628 11.9402
" />
<path d="M36.7628 11.9402
L36.8199 11.8831
" />
<path d="M36.8199 11.8831
L36.9913 11.7688
" />
<path d="M36.9913 11.7688
L37.2199 11.7117
" />
<path d="M37.2199 11.7117
L37.6770 11.7117
" />
<path d="M37.6770 11.7117
L37.7913 11.7688
" />
<path d="M37.7913 11.7688
L37.8485 11.8259
" />
<path d="M37.8485 11.8259
L37.9056 11.9402
" />
<path d="M37.9056 11.9402
L37.9056 12.1688
" />
<path d="M37.9056 12.1688
L37.8485 12.2831
" />
<path d="M37.8485 12.2831
L37.7913 12.3402
" />
<path d="M37.7913 12.3402
L37.6770 12.3974
" />
<path d="M37.6770 12.3974
L37.3913 12.3974
" />
<path d="M37.3913 12.3974
L37.2770 12.3402
" />
<path d="M37.2770 12.3402
L37.2199 12.2831
" />
<path d="M37.2199 12.2831
L37.1628 12.1688
" />
<path d="M37.1628 12.1688
L37.1628 11.9402
" />
<path d="M37.1628 11.9402
L37.2199 11.8259
" />
<path d="M37.2199 11.8259
L37.2770 11.7688
" />
<path d="M37.2770 11.7688
L37.3913 11.7117
" />
</g><g transform="rotate(-90.000000 40.0000 3.0000)">
<text x="40.0000" y="3.0000"
transform="scale(-1 1) translate(-80.000000 0)"
textLength="18.5457" font-size="1.6000" lengthAdjust="spacingAndGlyphs"
text-anchor="start" opacity="0" stroke-opacity="0">SERVO-NANO CONN</text>
</g>
<g class="stroked-text"><desc>SERVO-NANO CONN</desc>
<path d="M39.7804 3.4259
L39.8375 3.5974
" />
<path d="M39.8375 3.5974
L39.8375 3.8831
" />
<path d="M39.8375 3.8831
L39.7804 3.9974
" />
<path d="M39.7804 3.9974
L39.7233 4.0545
" />
<path d="M39.7233 4.0545
L39.6090 4.1117
" />
<path d="M39.6090 4.1117
L39.4947 4.1117
" />
<path d="M39.4947 4.1117
L39.3804 4.0545
" />
<path d="M39.3804 4.0545
L39.3233 3.9974
" />
<path d="M39.3233 3.9974
L39.2661 3.8831
" />
<path d="M39.2661 3.8831
L39.2090 3.6545
" />
<path d="M39.2090 3.6545
L39.1518 3.5402
" />
<path d="M39.1518 3.5402
L39.0947 3.4831
" />
<path d="M39.0947 3.4831
L38.9804 3.4259
" />
<path d="M38.9804 3.4259
L38.8661 3.4259
" />
<path d="M38.8661 3.4259
L38.7518 3.4831
" />
<path d="M38.7518 3.4831
L38.6947 3.5402
" />
<path d="M38.6947 3.5402
L38.6375 3.6545
" />
<path d="M38.6375 3.6545
L38.6375 3.9402
" />
<path d="M38.6375 3.9402
L38.6947 4.1117
" />
<path d="M39.2090 4.6259
L39.2090 5.0259
" />
<path d="M39.8375 5.1974
L39.8375 4.6259
" />
<path d="M39.8375 4.6259
L38.6375 4.6259
" />
<path d="M38.6375 4.6259
L38.6375 5.1974
" />
<path d="M39.8375 6.3974
L39.2661 5.9974
" />
<path d="M39.8375 5.7117
L38.6375 5.7117
" />
<path d="M38.6375 5.7117
L38.6375 6.1688
" />
<path d="M38.6375 6.1688
L38.6947 6.2831
" />
<path d="M38.6947 6.2831
L38.7518 6.3402
" />
<path d="M38.7518 6.3402
L38.8661 6.3974
" />
<path d="M38.8661 6.3974
L39.0375 6.3974
" />
<path d="M39.0375 6.3974
L39.1518 6.3402
" />
<path d="M39.1518 6.3402
L39.2090 6.2831
" />
<path d="M39.2090 6.2831
L39.2661 6.1688
" />
<path d="M39.2661 6.1688
L39.2661 5.7117
" />
<path d="M38.6375 6.7402
L39.8375 7.1402
" />
<path d="M39.8375 7.1402
L38.6375 7.5402
" />
<path d="M38.6375 8.1688
L38.6375 8.3974
" />
<path d="M38.6375 8.3974
L38.6947 8.5117
" />
<path d="M38.6947 8.5117
L38.8090 8.6259
" />
<path d="M38.8090 8.6259
L39.0375 8.6831
" />
<path d="M39.0375 8.6831
L39.4375 8.6831
" />
<path d="M39.4375 8.6831
L39.6661 8.6259
" />
<path d="M39.6661 8.6259
L39.7804 8.5117
" />
<path d="M39.7804 8.5117
L39.8375 8.3974
" />
<path d="M39.8375 8.3974
L39.8375 8.1688
" />
<path d="M39.8375 8.1688
L39.7804 8.0545
" />
<path d="M39.7804 8.0545
L39.6661 7.9402
" />
<path d="M39.6661 7.9402
L39.4375 7.8831
" />
<path d="M39.4375 7.8831
L39.0375 7.8831
" />
<path d="M39.0375 7.8831
L38.8090 7.9402
" />
<path d="M38.8090 7.9402
L38.6947 8.0545
" />
<path d="M38.6947 8.0545
L38.6375 8.1688
" />
<path d="M39.3804 9.1974
L39.3804 10.1117
" />
<path d="M39.8375 10.6831
L38.6375 10.6831
" />
<path d="M38.6375 10.6831
L39.8375 11.3688
" />
<path d="M39.8375 11.3688
L38.6375 11.3688
" />
<path d="M39.4947 11.8831
L39.4947 12.4545
" />
<path d="M39.8375 11.7688
L38.6375 12.1688
" />
<path d="M38.6375 12.1688
L39.8375 12.5688
" />
<path d="M39.8375 12.9688
L38.6375 12.9688
" />
<path d="M38.6375 12.9688
L39.8375 13.6545
" />
<path d="M39.8375 13.6545
L38.6375 13.6545
" />
<path d="M38.6375 14.4545
L38.6375 14.6831
" />
<path d="M38.6375 14.6831
L38.6947 14.7974
" />
<path d="M38.6947 14.7974
L38.8090 14.9117
" />
<path d="M38.8090 14.9117
L39.0375 14.9688
" />
<path d="M39.0375 14.9688
L39.4375 14.9688
" />
<path d="M39.4375 14.9688
L39.6661 14.9117
" />
<path d="M39.6661 14.9117
L39.7804 14.7974
" />
<path d="M39.7804 14.7974
L39.8375 14.6831
" />
<path d="M39.8375 14.6831
L39.8375 14.4545
" />
<path d="M39.8375 14.4545
L39.7804 14.3402
" />
<path d="M39.7804 14.3402
L39.6661 14.2259
" />
<path d="M39.6661 14.2259
L39.4375 14.1688
" />
<path d="M39.4375 14.1688
L39.0375 14.1688
" />
<path d="M39.0375 14.1688
L38.8090 14.2259
" />
<path d="M38.8090 14.2259
L38.6947 14.3402
" />
<path d="M38.6947 14.3402
L38.6375 14.4545
" />
<path d="M39.7233 17.0831
L39.7804 17.0259
" />
<path d="M39.7804 17.0259
L39.8375 16.8545
" />
<path d="M39.8375 16.8545
L39.8375 16.7402
" />
<path d="M39.8375 16.7402
L39.7804 16.5688
" />
<path d="M39.7804 16.5688
L39.6661 16.4545
" />
<path d="M39.6661 16.4545
L39.5518 16.3974
" />
<path d="M39.5518 16.3974
L39.3233 16.3402
" />
<path d="M39.3233 16.3402
L39.1518 16.3402
" />
<path d="M39.1518 16.3402
L38.9233 16.3974
" />
<path d="M38.9233 16.3974
L38.8090 16.4545
" />
<path d="M38.8090 16.4545
L38.6947 16.5688
" />
<path d="M38.6947 16.5688
L38.6375 16.7402
" />
<path d="M38.6375 16.7402
L38.6375 16.8545
" />
<path d="M38.6375 16.8545
L38.6947 17.0259
" />
<path d="M38.6947 17.0259
L38.7518 17.0831
" />
<path d="M38.6375 17.8259
L38.6375 18.0545
" />
<path d="M38.6375 18.0545
L38.6947 18.1688
" />
<path d="M38.6947 18.1688
L38.8090 18.2831
" />
<path d="M38.8090 18.2831
L39.0375 18.3402
" />
<path d="M39.0375 18.3402
L39.4375 18.3402
" />
<path d="M39.4375 18.3402
L39.6661 18.2831
" />
<path d="M39.6661 18.2831
L39.7804 18.1688
" />
<path d="M39.7804 18.1688
L39.8375 18.0545
" />
<path d="M39.8375 18.0545
L39.8375 17.8259
" />
<path d="M39.8375 17.8259
L39.7804 17.7117
" />
<path d="M39.7804 17.7117
L39.6661 17.5974
" />
<path d="M39.6661 17.5974
L39.4375 17.5402
" />
<path d="M39.4375 17.5402
L39.0375 17.5402
" />
<path d="M39.0375 17.5402
L38.8090 17.5974
" />
<path d="M38.8090 17.5974
L38.6947 17.7117
" />
<path d="M38.6947 17.7117
L38.6375 17.8259
" />
<path d="M39.8375 18.8545
L38.6375 18.8545
" />
<path d="M38.6375 18.8545
L39.8375 19.5402
" />
<path d="M39.8375 19.5402
L38.6375 19.5402
" />
<path d="M39.8375 20.1117
L38.6375 20.1117
" />
<path d="M38.6375 20.1117
L39.8375 20.7974
" />
<path d="M39.8375 20.7974
L38.6375 20.7974
" />
</g><g transform="rotate(-90.000000 4.5000 21.0000)">
<text x="4.5000" y="21.0000"
transform="scale(-1 1) translate(-9.000000 0)"
textLength="32.6714" font-size="2.0000" lengthAdjust="spacingAndGlyphs"
text-anchor="start" opacity="0" stroke-opacity="0">School of Computer Studies</text>
</g>
<g class="stroked-text"><desc>School of Computer Studies</desc>
<path d="M4.2294 21.4831
L4.3008 21.6974
" />
<path d="M4.3008 21.6974
L4.3008 22.0545
" />
<path d="M4.3008 22.0545
L4.2294 22.1974
" />
<path d="M4.2294 22.1974
L4.1580 22.2688
" />
<path d="M4.1580 22.2688
L4.0151 22.3402
" />
<path d="M4.0151 22.3402
L3.8723 22.3402
" />
<path d="M3.8723 22.3402
L3.7294 22.2688
" />
<path d="M3.7294 22.2688
L3.6580 22.1974
" />
<path d="M3.6580 22.1974
L3.5865 22.0545
" />
<path d="M3.5865 22.0545
L3.5151 21.7688
" />
<path d="M3.5151 21.7688
L3.4437 21.6259
" />
<path d="M3.4437 21.6259
L3.3723 21.5545
" />
<path d="M3.3723 21.5545
L3.2294 21.4831
" />
<path d="M3.2294 21.4831
L3.0865 21.4831
" />
<path d="M3.0865 21.4831
L2.9437 21.5545
" />
<path d="M2.9437 21.5545
L2.8723 21.6259
" />
<path d="M2.8723 21.6259
L2.8008 21.7688
" />
<path d="M2.8008 21.7688
L2.8008 22.1259
" />
<path d="M2.8008 22.1259
L2.8723 22.3402
" />
<path d="M4.2294 23.6259
L4.3008 23.4831
" />
<path d="M4.3008 23.4831
L4.3008 23.1974
" />
<path d="M4.3008 23.1974
L4.2294 23.0545
" />
<path d="M4.2294 23.0545
L4.1580 22.9831
" />
<path d="M4.1580 22.9831
L4.0151 22.9117
" />
<path d="M4.0151 22.9117
L3.5865 22.9117
" />
<path d="M3.5865 22.9117
L3.4437 22.9831
" />
<path d="M3.4437 22.9831
L3.3723 23.0545
" />
<path d="M3.3723 23.0545
L3.3008 23.1974
" />
<path d="M3.3008 23.1974
L3.3008 23.4831
" />
<path d="M3.3008 23.4831
L3.3723 23.6259
" />
<path d="M4.3008 24.2688
L2.8008 24.2688
" />
<path d="M4.3008 24.9117
L3.5151 24.9117
" />
<path d="M3.5151 24.9117
L3.3723 24.8402
" />
<path d="M3.3723 24.8402
L3.3008 24.6974
" />
<path d="M3.3008 24.6974
L3.3008 24.4831
" />
<path d="M3.3008 24.4831
L3.3723 24.3402
" />
<path d="M3.3723 24.3402
L3.4437 24.2688
" />
<path d="M4.3008 25.8402
L4.2294 25.6974
" />
<path d="M4.2294 25.6974
L4.1580 25.6259
" />
<path d="M4.1580 25.6259
L4.0151 25.5545
" />
<path d="M4.0151 25.5545
L3.5865 25.5545
" />
<path d="M3.5865 25.5545
L3.4437 25.6259
" />
<path d="M3.4437 25.6259
L3.3723 25.6974
" />
<path d="M3.3723 25.6974
L3.3008 25.8402
" />
<path d="M3.3008 25.8402
L3.3008 26.0545
" />
<path d="M3.3008 26.0545
L3.3723 26.1974
" />
<path d="M3.3723 26.1974
L3.4437 26.2688
" />
<path d="M3.4437 26.2688
L3.5865 26.3402
" />
<path d="M3.5865 26.3402
L4.0151 26.3402
" />
<path d="M4.0151 26.3402
L4.1580 26.2688
" />
<path d="M4.1580 26.2688
L4.2294 26.1974
" />
<path d="M4.2294 26.1974
L4.3008 26.0545
" />
<path d="M4.3008 26.0545
L4.3008 25.8402
" />
<path d="M4.3008 27.1974
L4.2294 27.0545
" />
<path d="M4.2294 27.0545
L4.1580 26.9831
" />
<path d="M4.1580 26.9831
L4.0151 26.9117
" />
<path d="M4.0151 26.9117
L3.5865 26.9117
" />
<path d="M3.5865 26.9117
L3.4437 26.9831
" />
<path d="M3.4437 26.9831
L3.3723 27.0545
" />
<path d="M3.3723 27.0545
L3.3008 27.1974
" />
<path d="M3.3008 27.1974
L3.3008 27.4117
" />
<path d="M3.3008 27.4117
L3.3723 27.5545
" />
<path d="M3.3723 27.5545
L3.4437 27.6259
" />
<path d="M3.4437 27.6259
L3.5865 27.6974
" />
<path d="M3.5865 27.6974
L4.0151 27.6974
" />
<path d="M4.0151 27.6974
L4.1580 27.6259
" />
<path d="M4.1580 27.6259
L4.2294 27.5545
" />
<path d="M4.2294 27.5545
L4.3008 27.4117
" />
<path d="M4.3008 27.4117
L4.3008 27.1974
" />
<path d="M4.3008 28.5545
L4.2294 28.4117
" />
<path d="M4.2294 28.4117
L4.0865 28.3402
" />
<path d="M4.0865 28.3402
L2.8008 28.3402
" />
<path d="M4.3008 30.4831
L4.2294 30.3402
" />
<path d="M4.2294 30.3402
L4.1580 30.2688
" />
<path d="M4.1580 30.2688
L4.0151 30.1974
" />
<path d="M4.0151 30.1974
L3.5865 30.1974
" />
<path d="M3.5865 30.1974
L3.4437 30.2688
" />
<path d="M3.4437 30.2688
L3.3723 30.3402
" />
<path d="M3.3723 30.3402
L3.3008 30.4831
" />
<path d="M3.3008 30.4831
L3.3008 30.6974
" />
<path d="M3.3008 30.6974
L3.3723 30.8402
" />
<path d="M3.3723 30.8402
L3.4437 30.9117
" />
<path d="M3.4437 30.9117
L3.5865 30.9831
" />
<path d="M3.5865 30.9831
L4.0151 30.9831
" />
<path d="M4.0151 30.9831
L4.1580 30.9117
" />
<path d="M4.1580 30.9117
L4.2294 30.8402
" />
<path d="M4.2294 30.8402
L4.3008 30.6974
" />
<path d="M4.3008 30.6974
L4.3008 30.4831
" />
<path d="M3.3008 31.4117
L3.3008 31.9831
" />
<path d="M4.3008 31.6259
L3.0151 31.6259
" />
<path d="M3.0151 31.6259
L2.8723 31.6974
" />
<path d="M2.8723 31.6974
L2.8008 31.8402
" />
<path d="M2.8008 31.8402
L2.8008 31.9831
" />
<path d="M4.1580 34.4831
L4.2294 34.4117
" />
<path d="M4.2294 34.4117
L4.3008 34.1974
" />
<path d="M4.3008 34.1974
L4.3008 34.0545
" />
<path d="M4.3008 34.0545
L4.2294 33.8402
" />
<path d="M4.2294 33.8402
L4.0865 33.6974
" />
<path d="M4.0865 33.6974
L3.9437 33.6259
" />
<path d="M3.9437 33.6259
L3.6580 33.5545
" />
<path d="M3.6580 33.5545
L3.4437 33.5545
" />
<path d="M3.4437 33.5545
L3.1580 33.6259
" />
<path d="M3.1580 33.6259
L3.0151 33.6974
" />
<path d="M3.0151 33.6974
L2.8723 33.8402
" />
<path d="M2.8723 33.8402
L2.8008 34.0545
" />
<path d="M2.8008 34.0545
L2.8008 34.1974
" />
<path d="M2.8008 34.1974
L2.8723 34.4117
" />
<path d="M2.8723 34.4117
L2.9437 34.4831
" />
<path d="M4.3008 35.3402
L4.2294 35.1974
" />
<path d="M4.2294 35.1974
L4.1580 35.1259
" />
<path d="M4.1580 35.1259
L4.0151 35.0545
" />
<path d="M4.0151 35.0545
L3.5865 35.0545
" />
<path d="M3.5865 35.0545
L3.4437 35.1259
" />
<path d="M3.4437 35.1259
L3.3723 35.1974
" />
<path d="M3.3723 35.1974
L3.3008 35.3402
" />
<path d="M3.3008 35.3402
L3.3008 35.5545
" />
<path d="M3.3008 35.5545
L3.3723 35.6974
" />
<path d="M3.3723 35.6974
L3.4437 35.7688
" />
<path d="M3.4437 35.7688
L3.5865 35.8402
" />
<path d="M3.5865 35.8402
L4.0151 35.8402
" />
<path d="M4.0151 35.8402
L4.1580 35.7688
" />
<path d="M4.1580 35.7688
L4.2294 35.6974
" />
<path d="M4.2294 35.6974
L4.3008 35.5545
" />
<path d="M4.3008 35.5545
L4.3008 35.3402
" />
<path d="M4.3008 36.4831
L3.3008 36.4831
" />
<path d="M3.4437 36.4831
L3.3723 36.5545
" />
<path d="M3.3723 36.5545
L3.3008 36.6974
" />
<path d="M3.3008 36.6974
L3.3008 36.9117
" />
<path d="M3.3008 36.9117
L3.3723 37.0545
" />
<path d="M3.3723 37.0545
L3.5151 37.1259
" />
<path d="M3.5151 37.1259
L4.3008 37.1259
" />
<path d="M3.5151 37.1259
L3.3723 37.1974
" />
<path d="M3.3723 37.1974
L3.3008 37.3402
" />
<path d="M3.3008 37.3402
L3.3008 37.5545
" />
<path d="M3.3008 37.5545
L3.3723 37.6974
" />
<path d="M3.3723 37.6974
L3.5151 37.7688
" />
<path d="M3.5151 37.7688
L4.3008 37.7688
" />
<path d="M3.3008 38.4831
L4.8008 38.4831
" />
<path d="M3.3723 38.4831
L3.3008 38.6259
" />
<path d="M3.3008 38.6259
L3.3008 38.9117
" />
<path d="M3.3008 38.9117
L3.3723 39.0545
" />
<path d="M3.3723 39.0545
L3.4437 39.1259
" />
<path d="M3.4437 39.1259
L3.5865 39.1974
" />
<path d="M3.5865 39.1974
L4.0151 39.1974
" />
<path d="M4.0151 39.1974
L4.1580 39.1259
" />
<path d="M4.1580 39.1259
L4.2294 39.0545
" />
<path d="M4.2294 39.0545
L4.3008 38.9117
" />
<path d="M4.3008 38.9117
L4.3008 38.6259
" />
<path d="M4.3008 38.6259
L4.2294 38.4831
" />
<path d="M3.3008 40.4831
L4.3008 40.4831
" />
<path d="M3.3008 39.8402
L4.0865 39.8402
" />
<path d="M4.0865 39.8402
L4.2294 39.9117
" />
<path d="M4.2294 39.9117
L4.3008 40.0545
" />
<path d="M4.3008 40.0545
L4.3008 40.2688
" />
<path d="M4.3008 40.2688
L4.2294 40.4117
" />
<path d="M4.2294 40.4117
L4.1580 40.4831
" />
<path d="M3.3008 40.9831
L3.3008 41.5545
" />
<path d="M2.8008 41.1974
L4.0865 41.1974
" />
<path d="M4.0865 41.1974
L4.2294 41.2688
" />
<path d="M4.2294 41.2688
L4.3008 41.4117
" />
<path d="M4.3008 41.4117
L4.3008 41.5545
" />
<path d="M4.2294 42.6259
L4.3008 42.4831
" />
<path d="M4.3008 42.4831
L4.3008 42.1974
" />
<path d="M4.3008 42.1974
L4.2294 42.0545
" />
<path d="M4.2294 42.0545
L4.0865 41.9831
" />
<path d="M4.0865 41.9831
L3.5151 41.9831
" />
<path d="M3.5151 41.9831
L3.3723 42.0545
" />
<path d="M3.3723 42.0545
L3.3008 42.1974
" />
<path d="M3.3008 42.1974
L3.3008 42.4831
" />
<path d="M3.3008 42.4831
L3.3723 42.6259
" />
<path d="M3.3723 42.6259
L3.5151 42.6974
" />
<path d="M3.5151 42.6974
L3.6580 42.6974
" />
<path d="M3.6580 42.6974
L3.8008 41.9831
" />
<path d="M4.3008 43.3402
L3.3008 43.3402
" />
<path d="M3.5865 43.3402
L3.4437 43.4117
" />
<path d="M3.4437 43.4117
L3.3723 43.4831
" />
<path d="M3.3723 43.4831
L3.3008 43.6259
" />
<path d="M3.3008 43.6259
L3.3008 43.7688
" />
<path d="M4.2294 45.3402
L4.3008 45.5545
" />
<path d="M4.3008 45.5545
L4.3008 45.9117
" />
<path d="M4.3008 45.9117
L4.2294 46.0545
" />
<path d="M4.2294 46.0545
L4.1580 46.1259
" />
<path d="M4.1580 46.1259
L4.0151 46.1974
" />
<path d="M4.0151 46.1974
L3.8723 46.1974
" />
<path d="M3.8723 46.1974
L3.7294 46.1259
" />
<path d="M3.7294 46.1259
L3.6580 46.0545
" />
<path d="M3.6580 46.0545
L3.5865 45.9117
" />
<path d="M3.5865 45.9117
L3.5151 45.6259
" />
<path d="M3.5151 45.6259
L3.4437 45.4831
" />
<path d="M3.4437 45.4831
L3.3723 45.4117
" />
<path d="M3.3723 45.4117
L3.2294 45.3402
" />
<path d="M3.2294 45.3402
L3.0865 45.3402
" />
<path d="M3.0865 45.3402
L2.9437 45.4117
" />
<path d="M2.9437 45.4117
L2.8723 45.4831
" />
<path d="M2.8723 45.4831
L2.8008 45.6259
" />
<path d="M2.8008 45.6259
L2.8008 45.9831
" />
<path d="M2.8008 45.9831
L2.8723 46.1974
" />
<path d="M3.3008 46.6259
L3.3008 47.1974
" />
<path d="M2.8008 46.8402
L4.0865 46.8402
" />
<path d="M4.0865 46.8402
L4.2294 46.9117
" />
<path d="M4.2294 46.9117
L4.3008 47.0545
" />
<path d="M4.3008 47.0545
L4.3008 47.1974
" />
<path d="M3.3008 48.3402
L4.3008 48.3402
" />
<path d="M3.3008 47.6974
L4.0865 47.6974
" />
<path d="M4.0865 47.6974
L4.2294 47.7688
" />
<path d="M4.2294 47.7688
L4.3008 47.9117
" />
<path d="M4.3008 47.9117
L4.3008 48.1259
" />
<path d="M4.3008 48.1259
L4.2294 48.2688
" />
<path d="M4.2294 48.2688
L4.1580 48.3402
" />
<path d="M4.3008 49.6974
L2.8008 49.6974
" />
<path d="M4.2294 49.6974
L4.3008 49.5545
" />
<path d="M4.3008 49.5545
L4.3008 49.2688
" />
<path d="M4.3008 49.2688
L4.2294 49.1259
" />
<path d="M4.2294 49.1259
L4.1580 49.0545
" />
<path d="M4.1580 49.0545
L4.0151 48.9831
" />
<path d="M4.0151 48.9831
L3.5865 48.9831
" />
<path d="M3.5865 48.9831
L3.4437 49.0545
" />
<path d="M3.4437 49.0545
L3.3723 49.1259
" />
<path d="M3.3723 49.1259
L3.3008 49.2688
" />
<path d="M3.3008 49.2688
L3.3008 49.5545
" />
<path d="M3.3008 49.5545
L3.3723 49.6974
" />
<path d="M4.3008 50.4117
L3.3008 50.4117
" />
<path d="M2.8008 50.4117
L2.8723 50.3402
" />
<path d="M2.8723 50.3402
L2.9437 50.4117
" />
<path d="M2.9437 50.4117
L2.8723 50.4831
" />
<path d="M2.8723 50.4831
L2.8008 50.4117
" />
<path d="M2.8008 50.4117
L2.9437 50.4117
" />
<path d="M4.2294 51.6974
L4.3008 51.5545
" />
<path d="M4.3008 51.5545
L4.3008 51.2688
" />
<path d="M4.3008 51.2688
L4.2294 51.1259
" />
<path d="M4.2294 51.1259
L4.0865 51.0545
" />
<path d="M4.0865 51.0545
L3.5151 51.0545
" />
<path d="M3.5151 51.0545
L3.3723 51.1259
" />
<path d="M3.3723 51.1259
L3.3008 51.2688
" />
<path d="M3.3008 51.2688
L3.3008 51.5545
" />
<path d="M3.3008 51.5545
L3.3723 51.6974
" />
<path d="M3.3723 51.6974
L3.5151 51.7688
" />
<path d="M3.5151 51.7688
L3.6580 51.7688
" />
<path d="M3.6580 51.7688
L3.8008 51.0545
" />
<path d="M4.2294 52.3402
L4.3008 52.4831
" />
<path d="M4.3008 52.4831
L4.3008 52.7688
" />
<path d="M4.3008 52.7688
L4.2294 52.9117
" />
<path d="M4.2294 52.9117
L4.0865 52.9831
" />
<path d="M4.0865 52.9831
L4.0151 52.9831
" />
<path d="M4.0151 52.9831
L3.8723 52.9117
" />
<path d="M3.8723 52.9117
L3.8008 52.7688
" />
<path d="M3.8008 52.7688
L3.8008 52.5545
" />
<path d="M3.8008 52.5545
L3.7294 52.4117
" />
<path d="M3.7294 52.4117
L3.5865 52.3402
" />
<path d="M3.5865 52.3402
L3.5151 52.3402
" />
<path d="M3.5151 52.3402
L3.3723 52.4117
" />
<path d="M3.3723 52.4117
L3.3008 52.5545
" />
<path d="M3.3008 52.5545
L3.3008 52.7688
" />
<path d="M3.3008 52.7688
L3.3723 52.9117
" />
</g><path style="fill:#4D7FC4; fill-opacity:1.0000; stroke:none;fill-rule:evenodd;"
d="M 13.4000,20.3500
13.4000,18.1500
15.6000,18.1500
15.6000,20.3500
Z" /> 
<path style="fill:#4D7FC4; fill-opacity:1.0000; stroke:none;fill-rule:evenodd;"
d="M 9.9000,20.3500
9.9000,18.1500
12.1000,18.1500
12.1000,20.3500
Z" /> 
<path style="fill:#4D7FC4; fill-opacity:1.0000; stroke:none;fill-rule:evenodd;"
d="M 18.6000,45.6500
18.6000,47.8500
16.4000,47.8500
16.4000,45.6500
Z" /> 
</g>
<g style="fill:#4D7FC4; fill-opacity:1.0000; stroke:none;">
<circle cx="17.5000" cy="44.2100" r="1.1000" /> 
<circle cx="17.5000" cy="41.6700" r="1.1000" /> 
<path style="fill:#4D7FC4; fill-opacity:1.0000; stroke:none;fill-rule:evenodd;"
d="M 23.8500,31.1500
23.8500,33.3500
21.6500,33.3500
21.6500,31.1500
Z" /> 
<circle cx="22.7500" cy="29.7100" r="1.1000" /> 
<circle cx="22.7500" cy="27.1700" r="1.1000" /> 
<path style="fill:#4D7FC4; fill-opacity:1.0000; stroke:none;fill-rule:evenodd;"
d="M 37.4937,35.6000
37.4048,35.5883
37.2966,35.5378
37.2122,35.4534
37.1617,35.3452
37.1500,35.2563
37.1500,33.7437
37.1617,33.6548
37.2122,33.5466
37.2966,33.4622
37.4048,33.4117
37.4937,33.4000
39.0063,33.4000
39.0952,33.4117
39.2034,33.4622
39.2878,33.5466
39.3383,33.6548
39.3500,33.7437
39.3500,35.2563
39.3383,35.3452
39.2878,35.4534
39.2034,35.5378
39.0952,35.5883
39.0063,35.6000
Z" /> 
<circle cx="38.2500" cy="32.0000" r="1.1000" /> 
<path style="fill:#4D7FC4; fill-opacity:1.0000; stroke:none;fill-rule:evenodd;"
d="M 14.6743,73.9800
14.6743,76.1800
12.4743,76.1800
12.4743,73.9800
Z" /> 
<circle cx="13.5743" cy="72.5400" r="1.1000" /> 
<circle cx="13.5743" cy="70.0000" r="1.1000" /> 
<path style="fill:#4D7FC4; fill-opacity:1.0000; stroke:none;fill-rule:evenodd;"
d="M 14.6743,45.6500
14.6743,47.8500
12.4743,47.8500
12.4743,45.6500
Z" /> 
<circle cx="13.5743" cy="44.2100" r="1.1000" /> 
<circle cx="13.5743" cy="41.6700" r="1.1000" /> 
<path style="fill:#4D7FC4; fill-opacity:1.0000; stroke:none;fill-rule:evenodd;"
d="M 8.5485,71.1000
8.5485,68.9000
10.7485,68.9000
10.7485,71.1000
Z" /> 
<circle cx="9.6485" cy="72.5400" r="1.1000" /> 
<circle cx="9.6485" cy="75.0800" r="1.1000" /> 
<path style="fill:#4D7FC4; fill-opacity:1.0000; stroke:none;fill-rule:evenodd;"
d="M 29.4937,10.6000
29.4048,10.5883
29.2966,10.5378
29.2122,10.4534
29.1617,10.3452
29.1500,10.2562
29.1500,8.7438
29.1617,8.6548
29.2122,8.5466
29.2966,8.4622
29.4048,8.4117
29.4937,8.4000
31.0062,8.4000
31.0952,8.4117
31.2034,8.4622
31.2878,8.5466
31.3383,8.6548
31.3500,8.7438
31.3500,10.2562
31.3383,10.3452
31.2878,10.4534
31.2034,10.5378
31.0952,10.5883
31.0062,10.6000
Z" /> 
<circle cx="30.2500" cy="7.0000" r="1.1000" /> 
<path style="fill:#4D7FC4; fill-opacity:1.0000; stroke:none;fill-rule:evenodd;"
d="M 18.6000,59.9800
18.6000,62.1800
16.4000,62.1800
16.4000,59.9800
Z" /> 
<circle cx="17.5000" cy="58.5400" r="1.1000" /> 
<circle cx="17.5000" cy="56.0000" r="1.1000" /> 
<path style="fill:#4D7FC4; fill-opacity:1.0000; stroke:none;fill-rule:evenodd;"
d="M 19.3500,31.1500
19.3500,33.3500
17.1500,33.3500
17.1500,31.1500
Z" /> 
<circle cx="18.2500" cy="29.7100" r="1.1000" /> 
<circle cx="18.2500" cy="27.1700" r="1.1000" /> 
<path style="fill:#4D7FC4; fill-opacity:1.0000; stroke:none;fill-rule:evenodd;"
d="M 21.9000,42.9400
21.9000,40.7400
24.1000,40.7400
24.1000,42.9400
Z" /> 
<circle cx="23.0000" cy="44.3800" r="1.1000" /> 
<circle cx="23.0000" cy="46.9200" r="1.1000" /> 
<circle cx="23.0000" cy="49.4600" r="1.1000" /> 
<circle cx="23.0000" cy="52.0000" r="1.1000" /> 
<circle cx="23.0000" cy="54.5400" r="1.1000" /> 
<circle cx="23.0000" cy="57.0800" r="1.1000" /> 
<circle cx="23.0000" cy="59.6200" r="1.1000" /> 
<circle cx="23.0000" cy="62.1600" r="1.1000" /> 
<circle cx="23.0000" cy="64.7000" r="1.1000" /> 
<circle cx="23.0000" cy="67.2400" r="1.1000" /> 
<circle cx="23.0000" cy="69.7800" r="1.1000" /> 
<circle cx="23.0000" cy="72.3200" r="1.1000" /> 
<circle cx="23.0000" cy="74.8600" r="1.1000" /> 
<circle cx="23.0000" cy="77.4000" r="1.1000" /> 
<circle cx="38.2400" cy="77.4000" r="1.1000" /> 
<circle cx="38.2400" cy="74.8600" r="1.1000" /> 
<circle cx="38.2400" cy="72.3200" r="1.1000" /> 
<circle cx="38.2400" cy="69.7800" r="1.1000" /> 
<circle cx="38.2400" cy="67.2400" r="1.1000" /> 
<circle cx="38.2400" cy="64.7000" r="1.1000" /> 
<circle cx="38.2400" cy="62.1600" r="1.1000" /> 
<circle cx="38.2400" cy="59.6200" r="1.1000" /> 
<circle cx="38.2400" cy="57.0800" r="1.1000" /> 
<circle cx="38.2400" cy="54.5400" r="1.1000" /> 
<circle cx="38.2400" cy="52.0000" r="1.1000" /> 
<circle cx="38.2400" cy="49.4600" r="1.1000" /> 
<circle cx="38.2400" cy="46.9200" r="1.1000" /> 
<circle cx="38.2400" cy="44.3800" r="1.1000" /> 
<circle cx="38.2400" cy="41.8400" r="1.1000" /> 
<circle cx="28.5000" cy="19.7500" r="1.1000" /> 
<circle cx="28.5000" cy="17.2100" r="1.1000" /> 
<path style="fill:#4D7FC4; fill-opacity:1.0000; stroke:none;fill-rule:evenodd;"
d="M 18.6000,73.9800
18.6000,76.1800
16.4000,76.1800
16.4000,73.9800
Z" /> 
<circle cx="17.5000" cy="72.5400" r="1.1000" /> 
<circle cx="17.5000" cy="70.0000" r="1.1000" /> 
<path style="fill:#4D7FC4; fill-opacity:1.0000; stroke:none;fill-rule:evenodd;"
d="M 28.6000,31.1500
28.6000,33.3500
26.4000,33.3500
26.4000,31.1500
Z" /> 
<circle cx="27.5000" cy="29.7100" r="1.1000" /> 
<circle cx="27.5000" cy="27.1700" r="1.1000" /> 
<path style="fill:#4D7FC4; fill-opacity:1.0000; stroke:none;fill-rule:evenodd;"
d="M 33.1000,31.1500
33.1000,33.3500
30.9000,33.3500
30.9000,31.1500
Z" /> 
<circle cx="32.0000" cy="29.7100" r="1.1000" /> 
<circle cx="32.0000" cy="27.1700" r="1.1000" /> 
<path style="fill:#4D7FC4; fill-opacity:1.0000; stroke:none;fill-rule:evenodd;"
d="M 14.6743,59.9800
14.6743,62.1800
12.4743,62.1800
12.4743,59.9800
Z" /> 
<circle cx="13.5743" cy="58.5400" r="1.1000" /> 
<circle cx="13.5743" cy="56.0000" r="1.1000" /> 
<path style="fill:#4D7FC4; fill-opacity:1.0000; stroke:none;fill-rule:evenodd;"
d="M 19.4937,10.6000
19.4048,10.5883
19.2966,10.5378
19.2122,10.4534
19.1617,10.3452
19.1500,10.2562
19.1500,8.7438
19.1617,8.6548
19.2122,8.5466
19.2966,8.4622
19.4048,8.4117
19.4937,8.4000
21.0062,8.4000
21.0952,8.4117
21.2034,8.4622
21.2878,8.5466
21.3383,8.6548
21.3500,8.7438
21.3500,10.2562
21.3383,10.3452
21.2878,10.4534
21.2034,10.5378
21.0952,10.5883
21.0062,10.6000
Z" /> 
<circle cx="20.2500" cy="7.0000" r="1.1000" /> 
<path style="fill:#4D7FC4; fill-opacity:1.0000; stroke:none;fill-rule:evenodd;"
d="M 19.8600,19.8500
19.8600,17.6500
22.0600,17.6500
22.0600,19.8500
Z" /> 
<circle cx="23.5000" cy="18.7500" r="1.1000" /> 
<path style="fill:#4D7FC4; fill-opacity:1.0000; stroke:none;fill-rule:evenodd;"
d="M 10.7485,59.9800
10.7485,62.1800
8.5485,62.1800
8.5485,59.9800
Z" /> 
<circle cx="9.6485" cy="58.5400" r="1.1000" /> 
<circle cx="9.6485" cy="56.0000" r="1.1000" /> 
<path style="fill:#4D7FC4; fill-opacity:1.0000; stroke:none;fill-rule:evenodd;"
d="M 8.4660,4.4000
8.5469,4.4161
8.6155,4.4620
8.6614,4.5306
8.6775,4.6115
8.6775,6.3885
8.6614,6.4694
8.6155,6.5380
8.5469,6.5839
8.4660,6.6000
6.6890,6.6000
6.6081,6.5839
6.5395,6.5380
6.4936,6.4694
6.4775,6.3885
6.4775,4.6115
6.4936,4.5306
6.5395,4.4620
6.6081,4.4161
6.6890,4.4000
Z" /> 
<circle cx="7.5775" cy="10.5000" r="1.1000" /> 
</g>
<g style="fill:none; 
stroke:#4D7FC4; stroke-width:1.0000; stroke-opacity:1; 
stroke-linecap:round; stroke-linejoin:round;">
<path d="M11.0000 13.9225
L7.5775 10.5000
" />
<path d="M11.0000 19.2500
L11.0000 13.9225
" />
<path d="M31.2500 19.7500
L28.5000 19.7500
" />
<path d="M42.0000 30.5000
L31.2500 19.7500
" />
<path d="M40.1400 74.8600
L42.0000 73.0000
" />
<path d="M42.0000 73.0000
L42.0000 30.5000
" />
<path d="M38.2400 74.8600
L40.1400 74.8600
" />
<path d="M14.5000 27.5156
L14.5000 19.2500
" />
<path d="M16.6944 29.7100
L14.5000 27.5156
" />
<path d="M14.5000 14.5000
L14.5000 19.2500
" />
<path d="M19.5000 9.5000
L14.5000 14.5000
" />
<path d="M20.2500 9.5000
L19.5000 9.5000
" />
</g>
<g style="fill:none; 
stroke:#4D7FC4; stroke-width:0.6000; stroke-opacity:1; 
stroke-linecap:round; stroke-linejoin:round;">
<path d="M6.5000 76.6250
L11.6250 81.7500
" />
<path d="M6.5000 71.2500
L6.5000 76.6250
" />
<path d="M11.6250 81.7500
L33.8900 81.7500
" />
<path d="M7.7500 70.0000
L6.5000 71.2500
" />
<path d="M9.6485 70.0000
L7.7500 70.0000
" />
<path d="M33.8900 81.7500
L38.2400 77.4000
" />
<path d="M35.4100 41.8400
L38.2400 41.8400
" />
<path d="M33.7500 71.0000
L33.7500 43.5000
" />
<path d="M13.8750 79.5000
L25.2500 79.5000
" />
<path d="M25.2500 79.5000
L33.7500 71.0000
" />
<path d="M11.5000 72.5400
L11.5000 77.1250
" />
<path d="M11.5000 77.1250
L13.8750 79.5000
" />
<path d="M33.7500 43.5000
L35.4100 41.8400
" />
</g>
<g style="fill:none; 
stroke:#4D7FC4; stroke-width:1.0000; stroke-opacity:1; 
stroke-linecap:round; stroke-linejoin:round;">
<path d="M26.7500 62.2500
L24.3000 64.7000
" />
<path d="M24.3000 64.7000
L23.0000 64.7000
" />
<path d="M26.7500 40.7500
L26.7500 62.2500
" />
<path d="M18.2500 32.2500
L26.7500 40.7500
" />
<path d="M28.5000 39.5000
L28.5000 65.0000
" />
<path d="M22.7500 33.7500
L28.5000 39.5000
" />
<path d="M22.7500 32.2500
L22.7500 33.7500
" />
<path d="M28.5000 65.0000
L26.2600 67.2400
" />
<path d="M26.2600 67.2400
L23.0000 67.2400
" />
<path d="M26.4700 69.7800
L23.0000 69.7800
" />
<path d="M30.2500 66.0000
L26.4700 69.7800
" />
<path d="M27.5000 35.7500
L30.2500 38.5000
" />
<path d="M27.5000 32.2500
L27.5000 35.7500
" />
<path d="M30.2500 38.5000
L30.2500 66.0000
" />
<path d="M32.0000 67.0000
L32.0000 32.2500
" />
<path d="M26.6800 72.3200
L32.0000 67.0000
" />
<path d="M23.0000 72.3200
L26.6800 72.3200
" />
<path d="M18.2500 29.7100
L16.6944 29.7100
" />
<path d="M20.2500 9.5000
L30.2500 9.5000
" />
<path d="M21.4444 52.0000
L23.0000 52.0000
" />
<path d="M17.5000 46.7500
L17.5000 48.0556
" />
<path d="M17.5000 48.0556
L21.4444 52.0000
" />
<path d="M25.0400 17.2100
L23.5000 18.7500
" />
<path d="M28.5000 17.2100
L25.0400 17.2100
" />
<path d="M18.7500 63.2500
L22.3800 59.6200
" />
<path d="M13.5743 61.0800
L15.7443 63.2500
" />
<path d="M15.7443 63.2500
L18.7500 63.2500
" />
<path d="M22.3800 59.6200
L23.0000 59.6200
" />
</g>
<g style="fill:none; 
stroke:#4D7FC4; stroke-width:0.6000; stroke-opacity:1; 
stroke-linecap:round; stroke-linejoin:round;">
<path d="M14.2500 49.5000
L19.7500 55.0000
" />
<path d="M20.7500 71.5000
L19.7100 72.5400
" />
<path d="M20.7500 67.7500
L20.7500 71.5000
" />
<path d="M32.0000 29.7100
L32.7100 29.7100
" />
</g>
<g style="fill:none; 
stroke:#4D7FC4; stroke-width:1.0000; stroke-opacity:1; 
stroke-linecap:round; stroke-linejoin:round;">
<path d="M35.0000 33.5000
L35.0000 30.2500
" />
<path d="M38.2400 34.5100
L38.2500 34.5000
" />
</g>
<g style="fill:none; 
stroke:#4D7FC4; stroke-width:0.6000; stroke-opacity:1; 
stroke-linecap:round; stroke-linejoin:round;">
<path d="M19.5000 66.5000
L20.7500 67.7500
" />
</g>
<g style="fill:none; 
stroke:#4D7FC4; stroke-width:1.0000; stroke-opacity:1; 
stroke-linecap:round; stroke-linejoin:round;">
<path d="M38.2500 34.5000
L36.0000 34.5000
" />
<path d="M35.0000 30.2500
L34.4600 29.7100
" />
</g>
<g style="fill:none; 
stroke:#4D7FC4; stroke-width:0.6000; stroke-opacity:1; 
stroke-linecap:round; stroke-linejoin:round;">
<path d="M11.0000 45.0000
L11.0000 48.5000
" />
<path d="M37.5000 34.5000
L38.2500 34.5000
" />
<path d="M13.5743 44.2100
L11.7900 44.2100
" />
</g>
<g style="fill:none; 
stroke:#4D7FC4; stroke-width:1.0000; stroke-opacity:1; 
stroke-linecap:round; stroke-linejoin:round;">
<path d="M34.4600 29.7100
L32.0000 29.7100
" />
<path d="M38.2400 41.8400
L38.2400 34.5100
" />
</g>
<g style="fill:none; 
stroke:#4D7FC4; stroke-width:0.6000; stroke-opacity:1; 
stroke-linecap:round; stroke-linejoin:round;">
<path d="M13.5743 58.5400
L17.5000 58.5400
" />
<path d="M8.2100 58.5400
L7.0000 59.7500
" />
</g>
<g style="fill:none; 
stroke:#4D7FC4; stroke-width:1.0000; stroke-opacity:1; 
stroke-linecap:round; stroke-linejoin:round;">
<path d="M36.0000 34.5000
L35.0000 33.5000
" />
</g>
<g style="fill:none; 
stroke:#4D7FC4; stroke-width:0.6000; stroke-opacity:1; 
stroke-linecap:round; stroke-linejoin:round;">
<path d="M11.0000 66.5000
L19.5000 66.5000
" />
<path d="M13.5743 44.2100
L17.5000 44.2100
" />
<path d="M19.7500 55.0000
L19.7500 57.2500
" />
<path d="M12.0000 49.5000
L14.2500 49.5000
" />
</g>
<g style="fill:none; 
stroke:#4D7FC4; stroke-width:1.0000; stroke-opacity:1; 
stroke-linecap:round; stroke-linejoin:round;">
<path d="M17.4200 72.5400
L17.5000 72.4600
" />
</g>
<g style="fill:none; 
stroke:#4D7FC4; stroke-width:0.6000; stroke-opacity:1; 
stroke-linecap:round; stroke-linejoin:round;">
<path d="M18.4600 58.5400
L17.5000 58.5400
" />
</g>
<g style="fill:none; 
stroke:#4D7FC4; stroke-width:1.0000; stroke-opacity:1; 
stroke-linecap:round; stroke-linejoin:round;">
<path d="M27.5000 29.7100
L32.0000 29.7100
" />
<path d="M18.2500 29.7100
L22.7500 29.7100
" />
</g>
<g style="fill:none; 
stroke:#4D7FC4; stroke-width:0.6000; stroke-opacity:1; 
stroke-linecap:round; stroke-linejoin:round;">
<path d="M13.5743 72.5400
L17.5000 72.5400
" />
<path d="M9.6485 58.5400
L8.2100 58.5400
" />
<path d="M9.6485 58.5400
L13.5743 58.5400
" />
<path d="M11.5000 72.5400
L9.6485 72.5400
" />
<path d="M19.7500 57.2500
L18.4600 58.5400
" />
<path d="M7.0000 62.5000
L11.0000 66.5000
" />
<path d="M13.5743 72.5400
L11.5000 72.5400
" />
<path d="M7.0000 59.7500
L7.0000 62.5000
" />
<path d="M11.0000 48.5000
L12.0000 49.5000
" />
<path d="M19.7100 72.5400
L17.5000 72.5400
" />
</g>
<g style="fill:none; 
stroke:#4D7FC4; stroke-width:1.0000; stroke-opacity:1; 
stroke-linecap:round; stroke-linejoin:round;">
<path d="M22.7500 29.7100
L27.5000 29.7100
" />
</g>
<g style="fill:none; 
stroke:#4D7FC4; stroke-width:0.6000; stroke-opacity:1; 
stroke-linecap:round; stroke-linejoin:round;">
<path d="M11.7900 44.2100
L11.0000 45.0000
" />
</g>
<g style="fill:none; 
stroke:#4D7FC4; stroke-width:1.0000; stroke-opacity:1; 
stroke-linecap:round; stroke-linejoin:round;">
<path d="M13.5743 75.0800
L13.5743 76.5743
" />
<path d="M22.9000 77.5000
L23.0000 77.4000
" />
<path d="M14.5000 77.5000
L22.9000 77.5000
" />
<path d="M13.5743 76.5743
L14.5000 77.5000
" />
<path d="M17.5000 75.0800
L22.7800 75.0800
" />
<path d="M22.7800 75.0800
L23.0000 74.8600
" />
<path d="M22.3200 57.0800
L23.0000 57.0800
" />
<path d="M17.5000 61.0800
L18.3200 61.0800
" />
<path d="M18.3200 61.0800
L22.3200 57.0800
" />
<path d="M13.5743 46.7500
L21.3643 54.5400
" />
<path d="M21.3643 54.5400
L23.0000 54.5400
" />
<path d="M23.0000 62.1600
L22.3400 62.1600
" />
<path d="M22.3400 62.1600
L19.5000 65.0000
" />
<path d="M13.5685 65.0000
L9.6485 61.0800
" />
<path d="M19.5000 65.0000
L13.5685 65.0000
" />
<path style="fill:#4D7FC4; fill-opacity:1.0000; stroke:none;fill-rule:evenodd;"
d="M 43.9132,0.0868
43.9495,0.1745
43.9495,84.8255
43.9132,84.9132
43.8255,84.9495
0.1745,84.9495
0.0868,84.9132
0.0505,84.8255
0.0505,83.4385
1.8763,83.4385
4.6863,83.4385
4.6863,70.9151
5.6915,70.9151
5.6915,76.9599
6.1825,77.4509
6.1825,77.4509
10.7991,82.0674
10.7991,82.0675
10.8165,82.0849
11.2901,82.5585
11.2901,82.5585
11.9846,82.5585
11.9846,82.5585
34.2249,82.5585
34.6985,82.0849
34.6985,82.0849
37.7588,79.0246
37.8465,78.9883
37.8940,78.9977
37.9200,79.0085
37.9200,79.0085
37.9200,79.0085
37.9201,79.0085
38.5599,79.0085
38.5600,79.0085
39.1511,78.7636
39.6036,78.3111
39.8485,77.7199
39.8485,77.0800
39.6036,76.4889
39.3324,76.2177
39.2961,76.1300
39.3324,76.0423
39.4699,75.9048
39.5576,75.8685
40.5577,75.8685
41.1485,75.2777
41.1485,75.2777
42.4177,74.0085
42.4177,74.0085
43.0085,73.4177
43.0085,30.9424
43.0085,30.9424
43.0085,30.0823
34.4896,21.5634
35.9403,21.5634
40.6036,21.5634
40.6036,2.6606
35.9403,2.6606
35.9403,21.5634
34.4896,21.5634
31.6677,18.7415
29.8176,18.7415
29.7299,18.7052
29.5924,18.5677
29.5561,18.4800
29.5924,18.3923
29.8636,18.1211
30.1085,17.5299
30.1085,16.8900
29.8636,16.2989
29.4111,15.8464
28.8200,15.6015
28.8199,15.6015
28.1800,15.6015
28.1800,15.6015
27.5889,15.8464
27.5889,15.8464
27.2701,16.1652
27.1824,16.2015
25.4824,16.2015
25.4824,16.2015
25.4577,16.2015
24.6223,16.2015
24.6223,16.2015
23.7186,17.1052
23.6309,17.1415
23.1800,17.1415
22.6017,17.3811
22.5068,17.3811
22.4511,17.3354
22.4205,17.2895
22.2551,17.1790
22.2551,17.1790
22.1093,17.1500
21.2100,17.1500
21.2100,20.3500
22.1092,20.3500
22.1093,20.3500
22.2551,20.3210
22.2551,20.3210
22.4205,20.2105
22.4511,20.1646
22.5300,20.1119
22.6017,20.1189
23.1800,20.3585
23.1801,20.3585
23.8199,20.3585
23.8199,20.3585
24.4111,20.1136
24.8636,19.6611
25.1085,19.0699
25.1085,18.6191
25.1448,18.5314
25.4214,18.2548
25.5091,18.2185
27.1824,18.2185
27.2701,18.2548
27.4076,18.3923
27.4439,18.4800
27.4076,18.5677
27.1364,18.8389
27.1364,18.8389
26.8915,19.4300
26.8915,20.0700
27.0897,20.5484
27.1364,20.6611
27.5889,21.1136
28.1800,21.3585
28.1801,21.3585
28.8199,21.3585
28.8199,21.3585
29.4111,21.1136
29.7299,20.7948
29.8176,20.7585
30.7809,20.7585
30.8686,20.7948
40.9552,30.8814
40.9915,30.9691
40.9915,72.5309
40.9552,72.6186
39.7586,73.8152
39.6709,73.8515
39.5576,73.8515
39.4699,73.8152
39.3324,73.6777
39.2961,73.5900
39.3324,73.5023
39.4499,73.3848
39.6036,73.2311
39.8485,72.6399
39.8485,72.0001
39.6036,71.4089
39.3324,71.1377
39.2961,71.0500
39.3324,70.9623
39.4414,70.8534
39.6036,70.6911
39.8485,70.0999
39.8485,69.4600
39.6036,68.8689
39.3324,68.5977
39.2961,68.5100
39.3324,68.4223
39.3823,68.3725
39.6036,68.1511
39.8485,67.5600
39.8485,66.9201
39.6036,66.3289
39.3324,66.0577
39.2961,65.9700
39.3324,65.8823
39.4110,65.8037
39.6036,65.6111
39.8485,65.0199
39.8485,64.3800
39.6036,63.7889
39.3324,63.5177
39.2961,63.4300
39.3324,63.3423
39.4663,63.2084
39.6036,63.0711
39.8485,62.4799
39.8485,61.8400
39.6036,61.2489
39.3324,60.9777
39.2961,60.8900
39.3324,60.8023
39.6036,60.5311
39.8485,59.9399
39.8485,59.3000
39.6036,58.7089
39.3324,58.4377
39.2961,58.3500
39.3324,58.2623
39.6036,57.9911
39.8485,57.3999
39.8485,56.7600
39.6036,56.1689
39.3324,55.8977
39.2961,55.8100
39.3324,55.7223
39.4083,55.6464
39.6036,55.4511
39.8485,54.8599
39.8485,54.2201
39.6036,53.6289
39.3324,53.3577
39.2961,53.2700
39.3324,53.1823
39.3823,53.1325
39.6036,52.9111
39.8485,52.3199
39.8485,51.6800
39.6036,51.0889
39.3324,50.8177
39.2961,50.7300
39.3324,50.6423
39.3324,50.6423
39.6036,50.3711
39.8485,49.7799
39.8485,49.1400
39.6036,48.5489
39.3324,48.2777
39.2961,48.1900
39.3324,48.1023
39.3864,48.0484
39.6036,47.8311
39.8485,47.2400
39.8485,46.6000
39.6036,46.0089
39.3264,45.7317
39.2901,45.6440
39.3264,45.5563
39.5964,45.2863
39.5964,45.2863
39.8400,44.6983
39.8400,44.6983
39.8400,44.6300
36.6400,44.6300
36.6400,44.6983
36.8836,45.2863
37.1536,45.5563
37.1899,45.6440
37.1536,45.7317
36.8764,46.0089
36.8764,46.0089
36.6315,46.6000
36.6315,47.2400
36.8764,47.8311
37.1476,48.1023
37.1839,48.1900
37.1476,48.2777
36.8764,48.5489
36.8764,48.5489
36.6315,49.1400
36.6315,49.7800
36.8764,50.3711
37.1476,50.6423
37.1839,50.7300
37.1476,50.8177
36.8764,51.0889
36.8764,51.0889
36.6315,51.6800
36.6315,52.3200
36.8764,52.9111
37.1476,53.1823
37.1839,53.2700
37.1476,53.3577
36.8764,53.6289
36.8764,53.6289
36.6315,54.2200
36.6315,54.8600
36.8764,55.4511
37.1476,55.7223
37.1839,55.8100
37.1476,55.8977
36.8764,56.1689
36.8764,56.1689
36.6315,56.7600
36.6315,57.4000
36.8764,57.9911
37.1476,58.2623
37.1839,58.3500
37.1476,58.4377
36.8764,58.7089
36.8764,58.7089
36.6315,59.3000
36.6315,59.9400
36.8764,60.5311
37.1476,60.8023
37.1839,60.8900
37.1476,60.9777
36.8764,61.2489
36.8764,61.2489
36.6315,61.8400
36.6315,62.4800
36.8764,63.0711
37.1476,63.3423
37.1839,63.4300
37.1476,63.5177
36.8764,63.7889
36.8764,63.7889
36.6315,64.3800
36.6315,65.0200
36.8764,65.6111
37.1476,65.8823
37.1839,65.9700
37.1476,66.0577
36.8764,66.3289
36.8764,66.3289
36.6315,66.9200
36.6315,67.5600
36.8764,68.1511
37.1476,68.4223
37.1839,68.5100
37.1476,68.5977
36.8764,68.8689
36.8764,68.8689
36.6315,69.4600
36.6315,70.1000
36.8764,70.6911
37.1476,70.9623
37.1839,71.0500
37.1476,71.1377
36.8764,71.4089
36.8764,71.4089
36.6315,72.0000
36.6315,72.6400
36.8764,73.2311
37.1476,73.5023
37.1839,73.5900
37.1476,73.6777
36.8764,73.9489
36.8764,73.9489
36.6315,74.5400
36.6315,75.1800
36.8764,75.7711
37.1476,76.0423
37.1839,76.1300
37.1476,76.2177
36.8764,76.4889
36.8764,76.4889
36.6315,77.0800
36.6315,77.7199
36.6423,77.7460
36.6423,77.8410
36.6154,77.8812
33.5914,80.9052
33.5037,80.9415
12.0113,80.9415
11.9236,80.9052
7.3448,76.3264
7.3085,76.2387
7.3085,74.7617
8.0485,74.7617
8.0485,75.3983
8.2921,75.9863
8.3404,76.0346
9.2950,75.0800
8.3404,74.1254
8.2921,74.1737
8.2921,74.1737
8.0485,74.7617
7.3085,74.7617
7.3085,71.6363
7.3448,71.5486
7.8284,71.0650
7.9160,71.0287
8.0037,71.0650
8.0365,71.1443
8.0394,71.1440
8.0400,71.1501
8.0695,71.2984
8.0695,71.2984
8.0695,71.2984
8.1433,71.4089
8.1819,71.4666
8.2306,71.4991
8.2833,71.5780
8.2763,71.6497
8.0400,72.2200
8.0400,72.8600
8.2849,73.4511
8.7374,73.9036
8.8298,73.9419
8.8654,73.9566
8.9056,73.9835
9.7376,74.8155
9.7739,74.9032
9.7683,74.9169
9.7314,74.8800
9.5657,74.8800
9.4485,74.9972
9.4485,75.1628
9.5657,75.2800
9.7314,75.2800
9.7683,75.2431
9.7739,75.2568
9.7376,75.3445
8.6939,76.3881
8.7422,76.4364
9.3303,76.6800
9.3303,76.6800
9.9668,76.6800
9.9668,76.6800
10.5200,76.4508
10.6150,76.4508
10.6821,76.5179
10.6915,76.5654
10.6915,77.4599
11.1825,77.9509
11.1825,77.9509
13.0491,79.8174
13.0491,79.8175
13.0665,79.8349
13.5401,80.3085
25.5849,80.3085
26.0585,79.8349
26.0585,79.8349
34.5585,71.3349
34.5585,70.6651
34.5585,44.2972
38.0400,44.2972
38.0400,44.4628
38.1572,44.5800
38.3228,44.5800
38.4400,44.4628
38.4400,44.2972
38.3228,44.1800
38.1572,44.1800
38.0400,44.2972
34.5585,44.2972
34.5585,43.8863
34.5948,43.7986
35.7086,42.6848
35.7963,42.6485
36.7510,42.6485
36.8387,42.6848
36.8656,42.7250
36.8764,42.7511
36.8764,42.7511
37.1536,43.0283
37.1899,43.1160
37.1536,43.2037
36.8836,43.4737
36.8836,43.4737
36.6400,44.0617
36.6400,44.1300
39.8400,44.1300
39.8400,44.0617
39.8400,44.0617
39.5964,43.4737
39.3264,43.2037
39.2901,43.1160
39.3264,43.0283
39.4320,42.9227
39.6036,42.7511
39.8485,42.1599
39.8485,41.5200
39.6036,40.9289
39.2848,40.6101
39.2485,40.5224
39.2485,36.1788
39.2848,36.0911
39.3290,36.0675
39.3275,36.0637
39.3388,36.0591
39.3388,36.0591
39.6207,35.8707
39.8091,35.5888
39.8585,35.3402
39.8585,33.6598
39.8363,33.5484
39.8091,33.4112
39.8091,33.4112
39.8091,33.4112
39.6207,33.1293
39.6041,33.1182
39.5514,33.0393
39.5699,32.9462
39.5853,32.9274
39.6064,32.9063
39.8500,32.3183
39.8500,32.3183
39.8500,31.6817
39.8500,31.6817
39.6064,31.0937
39.5581,31.0454
38.5145,32.0891
38.4268,32.1254
38.4131,32.1197
38.4500,32.0828
38.4500,31.9172
38.3328,31.8000
38.1672,31.8000
38.0500,31.9172
38.0500,32.0828
38.0869,32.1197
38.0732,32.1254
37.9855,32.0891
36.9419,31.0454
36.8936,31.0937
36.8936,31.0937
36.6500,31.6817
36.6500,32.3183
36.8936,32.9063
36.9147,32.9274
36.9510,33.0151
36.9147,33.1028
36.8959,33.1182
36.8793,33.1293
36.8793,33.1293
36.6909,33.4112
36.6894,33.4150
36.6865,33.4178
36.6842,33.4214
36.6835,33.4209
36.6720,33.4324
36.6625,33.4552
36.6397,33.4646
36.6223,33.4821
36.5748,33.4915
36.4691,33.4915
36.3814,33.4552
36.0448,33.1186
36.0085,33.0309
36.0085,30.6919
37.2954,30.6919
38.2500,31.6464
39.2046,30.6919
39.1563,30.6436
38.5683,30.4000
37.9317,30.4000
37.3437,30.6436
37.3437,30.6436
37.2954,30.6919
36.0085,30.6919
36.0085,29.8323
34.8777,28.7015
33.3176,28.7015
33.2299,28.6652
32.9111,28.3464
32.7832,28.2934
32.7429,28.2665
32.0000,27.5236
31.2571,28.2665
31.2168,28.2934
31.0889,28.3464
30.7701,28.6652
30.6824,28.7015
28.8176,28.7015
28.7299,28.6652
28.4111,28.3464
28.2832,28.2934
28.2429,28.2665
27.5000,27.5236
26.7571,28.2665
26.7168,28.2934
26.5889,28.3464
26.2701,28.6652
26.1824,28.7015
24.0676,28.7015
23.9799,28.6652
23.6611,28.3464
23.5332,28.2934
23.4929,28.2665
22.7500,27.5236
22.0071,28.2665
21.9668,28.2934
21.8389,28.3464
21.5201,28.6652
21.4324,28.7015
19.5676,28.7015
19.4799,28.6652
19.1611,28.3464
19.0332,28.2934
18.9929,28.2665
18.2500,27.5236
17.5071,28.2665
17.4668,28.2934
17.3389,28.3464
17.1356,28.5496
17.0479,28.5860
16.9602,28.5496
15.5448,27.1342
15.5085,27.0465
15.5085,26.8517
16.6500,26.8517
16.6500,27.4883
16.8936,28.0763
16.9419,28.1246
17.8964,27.1700
17.8136,27.0872
18.0500,27.0872
18.0500,27.2528
18.1672,27.3700
18.3328,27.3700
18.4500,27.2528
18.4500,27.1700
18.6036,27.1700
19.5581,28.1246
19.6064,28.0763
19.6064,28.0763
19.8500,27.4883
19.8500,27.4883
19.8500,26.8517
19.8500,26.8517
21.1500,26.8517
21.1500,27.4883
21.3936,28.0763
21.4419,28.1246
22.3964,27.1700
22.3136,27.0872
22.5500,27.0872
22.5500,27.2528
22.6672,27.3700
22.8328,27.3700
22.9500,27.2528
22.9500,27.1700
23.1036,27.1700
24.0581,28.1246
24.1064,28.0763
24.1064,28.0763
24.3500,27.4883
24.3500,27.4883
24.3500,26.8517
24.3500,26.8517
25.9000,26.8517
25.9000,27.4883
26.1436,28.0763
26.1919,28.1246
27.1464,27.1700
27.0636,27.0872
27.3000,27.0872
27.3000,27.2528
27.4172,27.3700
27.5828,27.3700
27.7000,27.2528
27.7000,27.1700
27.8536,27.1700
28.8081,28.1246
28.8564,28.0763
28.8564,28.0763
29.1000,27.4883
29.1000,27.4883
29.1000,26.8517
29.1000,26.8517
30.4000,26.8517
30.4000,27.4883
30.6436,28.0763
30.6919,28.1246
31.6464,27.1700
31.5636,27.0872
31.8000,27.0872
31.8000,27.2528
31.9172,27.3700
32.0828,27.3700
32.2000,27.2528
32.2000,27.1700
32.3536,27.1700
33.3081,28.1246
33.3564,28.0763
33.3564,28.0763
33.6000,27.4883
33.6000,27.4883
33.6000,26.8517
33.6000,26.8517
33.3564,26.2637
33.3081,26.2154
32.3536,27.1700
32.2000,27.1700
32.2000,27.0872
32.0828,26.9700
31.9172,26.9700
31.8000,27.0872
31.5636,27.0872
30.6919,26.2154
30.6436,26.2637
30.6436,26.2637
30.4000,26.8517
29.1000,26.8517
28.8564,26.2637
28.8081,26.2154
27.8536,27.1700
27.7000,27.1700
27.7000,27.0872
27.5828,26.9700
27.4172,26.9700
27.3000,27.0872
27.0636,27.0872
26.1919,26.2154
26.1436,26.2637
26.1436,26.2637
25.9000,26.8517
24.3500,26.8517
24.1064,26.2637
24.0581,26.2154
23.1036,27.1700
22.9500,27.1700
22.9500,27.0872
22.8328,26.9700
22.6672,26.9700
22.5500,27.0872
22.3136,27.0872
21.4419,26.2154
21.3936,26.2637
21.3936,26.2637
21.1500,26.8517
19.8500,26.8517
19.6064,26.2637
19.5581,26.2154
18.6036,27.1700
18.4500,27.1700
18.4500,27.0872
18.3328,26.9700
18.1672,26.9700
18.0500,27.0872
17.8136,27.0872
16.9419,26.2154
16.8936,26.2637
16.8936,26.2637
16.6500,26.8517
15.5085,26.8517
15.5085,25.8619
17.2954,25.8619
18.2500,26.8164
19.2046,25.8619
21.7954,25.8619
22.7500,26.8164
23.7046,25.8619
26.5454,25.8619
27.5000,26.8164
28.4546,25.8619
31.0454,25.8619
32.0000,26.8164
32.9546,25.8619
32.9063,25.8136
32.3183,25.5700
31.6817,25.5700
31.0937,25.8136
31.0937,25.8136
31.0454,25.8619
28.4546,25.8619
28.4063,25.8136
27.8183,25.5700
27.1817,25.5700
26.5937,25.8136
26.5937,25.8136
26.5454,25.8619
23.7046,25.8619
23.6563,25.8136
23.0683,25.5700
22.4317,25.5700
21.8437,25.8136
21.8437,25.8136
21.7954,25.8619
19.2046,25.8619
19.1563,25.8136
18.5683,25.5700
17.9317,25.5700
17.3437,25.8136
17.3437,25.8136
17.2954,25.8619
15.5085,25.8619
15.5085,20.9825
15.5448,20.8948
15.6325,20.8585
15.6501,20.8585
15.6501,20.8585
15.7984,20.8290
15.9666,20.7166
16.0790,20.5484
16.1085,20.4001
16.1085,19.8993
19.3600,19.8993
19.3890,20.0451
19.3890,20.0451
19.4995,20.2105
19.6649,20.3210
19.6649,20.3210
19.8107,20.3500
19.8107,20.3500
20.7100,20.3500
20.7100,19.0000
19.3600,19.0000
19.3600,19.8993
16.1085,19.8993
16.1085,18.6672
20.7600,18.6672
20.7600,18.8328
20.8772,18.9500
21.0428,18.9500
21.1600,18.8328
21.1600,18.6672
21.0428,18.5500
20.8772,18.5500
20.7600,18.6672
16.1085,18.6672
16.1085,18.0999
16.1085,18.0999
16.1085,18.0999
16.0790,17.9516
16.0790,17.9516
16.0790,17.9516
15.9666,17.7834
15.8385,17.6978
15.8385,17.6978
15.7984,17.6710
15.7984,17.6710
15.6501,17.6415
15.6501,17.6415
15.6325,17.6415
15.5448,17.6052
15.5430,17.6007
19.3600,17.6007
19.3600,18.5000
20.7100,18.5000
20.7100,17.1500
19.8107,17.1500
19.6649,17.1790
19.6649,17.1790
19.4995,17.2895
19.3890,17.4549
19.3890,17.4549
19.3600,17.6007
15.5430,17.6007
15.5085,17.5175
15.5085,14.9691
15.5448,14.8814
19.2861,11.1401
19.3738,11.1038
19.3980,11.1062
19.4098,11.1085
21.0902,11.1085
21.1738,11.0919
21.3388,11.0591
21.3388,11.0591
21.3388,11.0591
21.6207,10.8707
21.8091,10.5888
21.8091,10.5888
21.8106,10.5850
21.8135,10.5822
21.8158,10.5786
21.8165,10.5791
21.8777,10.5179
21.9252,10.5085
28.5748,10.5085
28.6625,10.5448
28.6894,10.5850
28.6909,10.5888
28.6909,10.5888
28.6909,10.5888
28.8793,10.8707
29.1612,11.0591
29.1612,11.0591
29.1612,11.0591
29.2855,11.0838
29.4098,11.1085
31.0902,11.1085
31.1738,11.0919
31.3388,11.0591
31.3388,11.0591
31.3388,11.0591
31.6207,10.8707
31.8091,10.5888
31.8585,10.3402
31.8585,8.6598
31.8250,8.4915
31.8091,8.4112
31.8091,8.4112
31.8091,8.4112
31.6207,8.1293
31.6041,8.1182
31.5514,8.0393
31.5699,7.9462
31.5853,7.9274
31.6064,7.9063
31.8500,7.3183
31.8500,7.3183
31.8500,6.6817
31.8500,6.6817
31.6064,6.0937
31.5581,6.0454
30.5145,7.0891
30.4268,7.1254
30.4131,7.1197
30.4500,7.0828
30.4500,6.9172
30.3328,6.8000
30.1672,6.8000
30.0500,6.9172
30.0500,7.0828
30.0869,7.1197
30.0732,7.1254
29.9855,7.0891
28.9419,6.0454
28.8936,6.0937
28.8936,6.0937
28.6500,6.6817
28.6500,7.3183
28.8936,7.9063
28.9147,7.9274
28.9510,8.0151
28.9147,8.1028
28.8959,8.1182
28.8793,8.1293
28.8793,8.1293
28.6909,8.4112
28.6894,8.4150
28.6865,8.4178
28.6842,8.4214
28.6835,8.4209
28.6223,8.4821
28.5748,8.4915
21.9252,8.4915
21.8375,8.4552
21.8106,8.4150
21.8091,8.4112
21.8091,8.4112
21.6207,8.1293
21.6041,8.1182
21.5514,8.0393
21.5699,7.9462
21.5853,7.9274
21.6064,7.9063
21.8500,7.3183
21.8500,7.3183
21.8500,6.6817
21.8500,6.6817
21.6064,6.0937
21.5581,6.0454
20.5145,7.0891
20.4268,7.1254
20.4131,7.1197
20.4500,7.0828
20.4500,6.9172
20.3328,6.8000
20.1672,6.8000
20.0500,6.9172
20.0500,7.0828
20.0869,7.1197
20.0732,7.1254
19.9855,7.0891
18.9419,6.0454
18.8936,6.0937
18.8936,6.0937
18.6500,6.6817
18.6500,7.3183
18.8936,7.9063
18.9147,7.9274
18.9510,8.0151
18.9147,8.1028
18.8959,8.1182
18.8793,8.1293
18.8793,8.1293
18.6909,8.4112
18.6909,8.4112
18.6415,8.6598
18.6415,8.8809
18.6052,8.9686
14.0997,13.4741
13.4915,14.0823
13.4915,17.5175
13.4552,17.6052
13.3675,17.6415
13.3499,17.6415
13.2016,17.6710
13.2016,17.6710
13.0334,17.7834
12.9210,17.9516
12.9210,17.9516
12.8915,18.0999
12.8915,20.4001
12.9210,20.5484
12.9210,20.5484
12.9210,20.5484
13.0334,20.7166
13.2016,20.8290
13.2016,20.8290
13.2016,20.8290
13.3499,20.8585
13.3499,20.8585
13.3499,20.8585
13.3675,20.8585
13.4552,20.8948
13.4915,20.9825
13.4915,27.9334
14.0997,28.5416
14.0997,28.5416
15.6684,30.1103
15.6684,30.1103
15.6859,30.1277
16.2766,30.7185
16.2766,30.7185
16.5948,30.7185
16.6824,30.7548
16.7188,30.8425
16.6979,30.9114
16.6710,30.9516
16.6710,30.9516
16.6415,31.0999
16.6415,33.4001
16.6710,33.5484
16.6710,33.5484
16.6710,33.5484
16.7834,33.7166
16.9516,33.8290
16.9516,33.8290
16.9516,33.8290
17.0999,33.8585
17.0999,33.8585
17.0999,33.8585
18.3809,33.8585
18.4686,33.8948
25.7052,41.1314
25.7415,41.2191
25.7415,61.7809
25.7052,61.8686
24.7061,62.8676
24.6185,62.9040
24.5308,62.8676
24.4945,62.7800
24.5039,62.7325
24.6085,62.4799
24.6085,61.8400
24.3636,61.2489
24.0924,60.9777
24.0561,60.8900
24.0924,60.8023
24.3636,60.5311
24.6085,59.9399
24.6085,59.3000
24.3636,58.7089
24.0924,58.4377
24.0561,58.3500
24.0924,58.2623
24.3636,57.9911
24.6085,57.3999
24.6085,56.7600
24.3636,56.1689
24.0924,55.8977
24.0561,55.8100
24.0924,55.7223
24.1683,55.6464
24.3636,55.4511
24.6085,54.8599
24.6085,54.2201
24.3636,53.6289
24.0924,53.3577
24.0561,53.2700
24.0924,53.1823
24.1423,53.1325
24.3636,52.9111
24.6085,52.3199
24.6085,51.6800
24.3636,51.0889
24.0924,50.8177
24.0561,50.7300
24.0924,50.6423
24.0924,50.6423
24.3636,50.3711
24.6085,49.7799
24.6085,49.1400
24.3636,48.5489
24.0924,48.2777
24.0561,48.1900
24.0924,48.1023
24.1464,48.0484
24.3636,47.8311
24.6085,47.2400
24.6085,46.6000
24.3636,46.0089
24.0924,45.7377
24.0561,45.6500
24.0924,45.5623
24.2032,45.4516
24.3636,45.2911
24.6085,44.7000
24.6085,44.0600
24.3722,43.4897
24.3722,43.3948
24.4179,43.3391
24.4666,43.3066
24.5790,43.1384
24.6085,42.9901
24.6085,40.6899
24.6085,40.6899
24.6085,40.6899
24.5790,40.5416
24.5790,40.5416
24.5790,40.5416
24.4666,40.3734
24.2984,40.2610
24.2984,40.2610
24.2984,40.2610
24.1501,40.2315
24.1501,40.2315
21.8499,40.2315
21.8499,40.2315
21.7016,40.2610
21.7016,40.2610
21.5334,40.3734
21.4210,40.5416
21.4210,40.5416
21.3915,40.6899
21.3915,42.9901
21.4210,43.1384
21.4210,43.1384
21.4210,43.1384
21.5282,43.2989
21.5334,43.3066
21.5821,43.3391
21.6348,43.4180
21.6277,43.4897
21.3915,44.0600
21.3915,44.7000
21.6364,45.2911
21.9076,45.5623
21.9439,45.6500
21.9076,45.7377
21.6364,46.0089
21.6364,46.0089
21.3915,46.6000
21.3915,47.2400
21.6364,47.8311
21.9076,48.1023
21.9439,48.1900
21.9076,48.2777
21.6364,48.5489
21.6364,48.5489
21.3915,49.1400
21.3915,49.7800
21.6364,50.3711
21.9076,50.6423
21.9252,50.6849
21.9439,50.7300
21.9439,50.7300
21.9439,50.7300
21.9076,50.8177
21.8856,50.8396
21.7979,50.8760
21.7102,50.8396
21.7102,50.8396
19.0869,48.2163
19.0506,48.1286
19.0714,48.0597
19.0790,48.0484
19.1085,47.9001
19.1085,45.5999
19.1085,45.5999
19.1085,45.5999
19.0790,45.4516
19.0790,45.4516
19.0790,45.4516
18.9666,45.2834
18.9666,45.2834
18.9179,45.2509
18.8652,45.1719
18.8722,45.1003
19.1085,44.5299
19.1085,43.8900
18.8636,43.2989
18.4111,42.8464
18.2832,42.7934
18.2429,42.7665
17.5000,42.0236
16.7571,42.7665
16.7168,42.7934
16.5889,42.8464
16.1364,43.2989
16.1364,43.2989
16.1256,43.3250
16.0585,43.3921
16.0110,43.4015
15.0633,43.4015
14.9756,43.3652
14.9487,43.3250
14.9379,43.2989
14.9379,43.2989
14.9379,43.2989
14.4854,42.8464
14.3574,42.7934
14.3172,42.7665
13.5743,42.0236
12.8313,42.7665
12.7911,42.7934
12.6631,42.8464
12.2106,43.2989
12.2106,43.2989
12.1998,43.3250
12.1327,43.3921
12.0853,43.4015
11.4551,43.4015
10.1915,44.6651
10.1915,48.8349
10.6825,49.3259
10.6825,49.3259
11.1741,49.8174
11.1741,49.8175
11.1915,49.8349
11.6651,50.3085
11.6651,50.3085
12.3596,50.3085
12.3596,50.3085
13.8637,50.3085
13.9514,50.3448
17.7949,54.1883
17.8312,54.2760
17.7949,54.3637
17.7072,54.4000
17.1817,54.4000
16.5937,54.6436
16.5937,54.6436
16.5454,54.6919
17.5891,55.7355
17.6254,55.8232
17.6197,55.8369
17.5828,55.8000
17.4172,55.8000
17.3000,55.9172
17.3000,56.0828
17.4172,56.2000
17.5828,56.2000
17.6197,56.1631
17.6254,56.1768
17.5891,56.2645
16.7571,57.0965
16.7168,57.1234
16.5889,57.1764
16.1364,57.6289
16.1364,57.6289
16.1256,57.6550
16.0585,57.7221
16.0110,57.7315
15.0633,57.7315
14.9756,57.6952
14.9487,57.6550
14.9379,57.6289
14.9379,57.6289
14.9379,57.6289
14.4854,57.1764
14.3574,57.1234
14.3172,57.0965
13.5743,56.3536
12.8313,57.0965
12.7911,57.1234
12.6631,57.1764
12.2106,57.6289
12.2106,57.6289
12.1998,57.6550
12.1327,57.7221
12.0853,57.7315
11.1375,57.7315
11.0498,57.6952
11.0230,57.6550
11.0122,57.6289
11.0122,57.6289
11.0122,57.6289
10.5597,57.1764
10.4317,57.1234
10.3915,57.0965
9.6485,56.3536
8.9056,57.0965
8.8654,57.1234
8.7374,57.1764
8.2849,57.6289
8.2849,57.6289
8.2741,57.6550
8.2070,57.7221
8.1595,57.7315
7.8751,57.7315
6.1915,59.4151
6.1915,62.8349
6.6825,63.3259
6.6825,63.3259
10.1741,66.8174
10.1741,66.8175
10.1915,66.8349
10.6651,67.3085
11.3349,67.3085
19.1137,67.3085
19.2014,67.3448
19.9052,68.0486
19.9415,68.1363
19.9415,71.1137
19.9052,71.2014
19.4114,71.6952
19.3237,71.7315
18.9890,71.7315
18.9013,71.6952
18.8744,71.6550
18.8636,71.6289
18.8636,71.6289
18.8636,71.6289
18.4111,71.1764
18.2832,71.1234
18.2429,71.0965
17.5000,70.3536
16.7571,71.0965
16.7168,71.1234
16.5889,71.1764
16.1364,71.6289
16.1364,71.6289
16.1256,71.6550
16.0585,71.7221
16.0110,71.7315
15.0633,71.7315
14.9756,71.6952
14.9487,71.6550
14.9379,71.6289
14.9379,71.6289
14.9379,71.6289
14.4854,71.1764
14.3574,71.1234
14.3172,71.0965
13.5743,70.3536
12.8313,71.0965
12.7911,71.1234
12.6631,71.1764
12.2106,71.6289
12.2106,71.6289
12.1998,71.6550
12.1327,71.7221
12.0853,71.7315
11.1375,71.7315
11.1147,71.7221
11.0901,71.7221
11.0726,71.7046
11.0498,71.6952
11.0230,71.6550
11.0228,71.6545
11.0208,71.6497
11.0208,71.5548
11.0665,71.4991
11.1151,71.4666
11.2275,71.2984
11.2570,71.1501
11.2570,69.6817
11.9743,69.6817
11.9743,70.3183
12.2179,70.9063
12.2661,70.9546
13.2207,70.0000
13.1379,69.9172
13.3743,69.9172
13.3743,70.0828
13.4914,70.2000
13.6571,70.2000
13.7743,70.0828
13.7743,70.0000
13.9278,70.0000
14.8824,70.9546
14.9307,70.9063
14.9307,70.9063
15.1743,70.3183
15.1743,70.3183
15.1743,69.6817
15.1743,69.6817
15.9000,69.6817
15.9000,70.3183
16.1436,70.9063
16.1919,70.9546
17.1464,70.0000
17.0636,69.9172
17.3000,69.9172
17.3000,70.0828
17.4172,70.2000
17.5828,70.2000
17.7000,70.0828
17.7000,70.0000
17.8536,70.0000
18.8081,70.9546
18.8564,70.9063
18.8564,70.9063
19.1000,70.3183
19.1000,70.3183
19.1000,69.6817
19.1000,69.6817
18.8564,69.0937
18.8081,69.0454
17.8536,70.0000
17.7000,70.0000
17.7000,69.9172
17.5828,69.8000
17.4172,69.8000
17.3000,69.9172
17.0636,69.9172
16.1919,69.0454
16.1436,69.0937
16.1436,69.0937
15.9000,69.6817
15.1743,69.6817
14.9307,69.0937
14.8824,69.0454
13.9278,70.0000
13.7743,70.0000
13.7743,69.9172
13.6571,69.8000
13.4914,69.8000
13.3743,69.9172
13.1379,69.9172
12.2661,69.0454
12.2179,69.0937
12.2179,69.0937
11.9743,69.6817
11.2570,69.6817
11.2570,68.8499
11.2570,68.8499
11.2570,68.8499
11.2275,68.7016
11.2275,68.7016
11.2275,68.7016
11.2210,68.6919
12.6197,68.6919
13.5743,69.6464
14.5289,68.6919
16.5454,68.6919
17.5000,69.6464
18.4546,68.6919
18.4063,68.6436
17.8183,68.4000
17.1817,68.4000
16.5937,68.6436
16.5937,68.6436
16.5454,68.6919
14.5289,68.6919
14.4806,68.6436
13.8925,68.4000
13.2560,68.4000
12.6679,68.6436
12.6679,68.6436
12.6197,68.6919
11.2210,68.6919
11.1151,68.5334
10.9469,68.4210
10.9469,68.4210
10.9469,68.4210
10.7986,68.3915
10.7986,68.3915
8.4985,68.3915
8.4984,68.3915
8.3501,68.4210
8.3501,68.4210
8.1819,68.5334
8.0695,68.7016
8.0695,68.7016
8.0400,68.8499
8.0400,69.0675
8.0037,69.1552
7.9160,69.1915
7.4151,69.1915
5.6915,70.9151
4.6863,70.9151
4.6863,67.9191
1.8763,67.9191
1.8763,83.4385
0.0505,83.4385
0.0505,55.6817
8.0485,55.6817
8.0485,56.3183
8.2921,56.9063
8.3404,56.9546
9.2950,56.0000
9.2121,55.9172
9.4485,55.9172
9.4485,56.0828
9.5657,56.2000
9.7314,56.2000
9.8485,56.0828
9.8485,56.0000
10.0021,56.0000
10.9567,56.9546
11.0049,56.9063
11.0049,56.9063
11.2485,56.3183
11.2485,56.3183
11.2485,55.6817
11.2485,55.6817
11.9743,55.6817
11.9743,56.3183
12.2179,56.9063
12.2661,56.9546
13.2207,56.0000
13.1379,55.9172
13.3743,55.9172
13.3743,56.0828
13.4914,56.2000
13.6571,56.2000
13.7743,56.0828
13.7743,56.0000
13.9278,56.0000
14.8824,56.9546
14.9307,56.9063
14.9307,56.9063
15.1743,56.3183
15.1743,56.3183
15.1743,55.6817
15.1743,55.6817
15.9000,55.6817
15.9000,56.3183
16.1436,56.9063
16.1919,56.9546
17.1464,56.0000
16.1919,55.0454
16.1436,55.0937
16.1436,55.0937
15.9000,55.6817
15.1743,55.6817
14.9307,55.0937
14.8824,55.0454
13.9278,56.0000
13.7743,56.0000
13.7743,55.9172
13.6571,55.8000
13.4914,55.8000
13.3743,55.9172
13.1379,55.9172
12.2661,55.0454
12.2179,55.0937
12.2179,55.0937
11.9743,55.6817
11.2485,55.6817
11.0049,55.0937
10.9567,55.0454
10.0021,56.0000
9.8485,56.0000
9.8485,55.9172
9.7314,55.8000
9.5657,55.8000
9.4485,55.9172
9.2121,55.9172
8.3404,55.0454
8.2921,55.0937
8.2921,55.0937
8.0485,55.6817
0.0505,55.6817
0.0505,54.6919
8.6939,54.6919
9.6485,55.6464
10.6031,54.6919
12.6197,54.6919
13.5743,55.6464
14.5289,54.6919
14.4806,54.6436
13.8925,54.4000
13.2560,54.4000
12.6679,54.6436
12.6679,54.6436
12.6197,54.6919
10.6031,54.6919
10.5549,54.6436
9.9668,54.4000
9.3303,54.4000
8.7422,54.6436
8.7422,54.6436
8.6939,54.6919
0.0505,54.6919
0.0505,53.7484
2.0355,53.7484
5.5593,53.7484
5.5593,41.3517
11.9743,41.3517
11.9743,41.9883
12.2179,42.5763
12.2661,42.6246
13.2207,41.6700
13.1379,41.5872
13.3743,41.5872
13.3743,41.7528
13.4914,41.8700
13.6571,41.8700
13.7743,41.7528
13.7743,41.6700
13.9278,41.6700
14.8824,42.6246
14.9307,42.5763
14.9307,42.5763
15.1743,41.9883
15.1743,41.9883
15.1743,41.3517
15.1743,41.3517
15.9000,41.3517
15.9000,41.9883
16.1436,42.5763
16.1919,42.6246
17.1464,41.6700
17.0636,41.5872
17.3000,41.5872
17.3000,41.7528
17.4172,41.8700
17.5828,41.8700
17.7000,41.7528
17.7000,41.6700
17.8536,41.6700
18.8081,42.6246
18.8564,42.5763
18.8564,42.5763
19.1000,41.9883
19.1000,41.9883
19.1000,41.3517
19.1000,41.3517
18.8564,40.7637
18.8081,40.7154
17.8536,41.6700
17.7000,41.6700
17.7000,41.5872
17.5828,41.4700
17.4172,41.4700
17.3000,41.5872
17.0636,41.5872
16.1919,40.7154
16.1436,40.7637
16.1436,40.7637
15.9000,41.3517
15.1743,41.3517
14.9307,40.7637
14.8824,40.7154
13.9278,41.6700
13.7743,41.6700
13.7743,41.5872
13.6571,41.4700
13.4914,41.4700
13.3743,41.5872
13.1379,41.5872
12.2661,40.7154
12.2179,40.7637
12.2179,40.7637
11.9743,41.3517
5.5593,41.3517
5.5593,40.3619
12.6197,40.3619
13.5743,41.3164
14.5289,40.3619
16.5454,40.3619
17.5000,41.3164
18.4546,40.3619
18.4063,40.3136
17.8183,40.0700
17.1817,40.0700
16.5937,40.3136
16.5937,40.3136
16.5454,40.3619
14.5289,40.3619
14.4806,40.3136
13.8925,40.0700
13.2560,40.0700
12.6679,40.3136
12.6679,40.3136
12.6197,40.3619
5.5593,40.3619
5.5593,20.7178
2.0355,20.7178
2.0355,53.7484
0.0505,53.7484
0.0505,10.1800
5.9690,10.1800
5.9690,10.8200
6.0885,11.1085
6.2139,11.4111
6.6664,11.8636
7.2575,12.1085
7.7084,12.1085
7.7961,12.1448
9.9552,14.3039
9.9915,14.3916
9.9915,17.5175
9.9552,17.6052
9.8675,17.6415
9.8499,17.6415
9.7016,17.6710
9.7016,17.6710
9.5334,17.7834
9.4210,17.9516
9.4210,17.9516
9.3915,18.0999
9.3915,20.4001
9.4210,20.5484
9.4210,20.5484
9.4210,20.5484
9.5334,20.7166
9.7016,20.8290
9.7016,20.8290
9.7016,20.8290
9.8499,20.8585
9.8499,20.8585
9.8499,20.8585
12.1501,20.8585
12.1501,20.8585
12.2984,20.8290
12.4666,20.7166
12.5790,20.5484
12.6085,20.4001
12.6085,18.0999
12.6085,18.0999
12.6085,18.0999
12.5790,17.9516
12.5790,17.9516
12.5790,17.9516
12.4666,17.7834
12.2984,17.6710
12.2984,17.6710
12.2984,17.6710
12.1501,17.6415
12.1501,17.6415
12.1325,17.6415
12.0448,17.6052
12.0085,17.5175
12.0085,13.5048
11.4003,12.8966
11.4003,12.8966
9.2223,10.7186
9.1860,10.6309
9.1860,10.1801
9.1860,10.1800
8.9411,9.5889
8.4886,9.1364
8.0835,8.9686
7.8975,8.8915
7.8975,8.8915
7.2575,8.8915
7.2575,8.8915
6.6664,9.1364
6.2139,9.5889
5.9690,10.1800
0.0505,10.1800
0.0505,6.4585
5.9775,6.4585
6.0188,6.6661
6.0188,6.6661
6.1760,6.9015
6.4114,7.0587
6.4114,7.0587
6.6190,7.1000
6.6190,7.1000
7.3275,7.1000
7.8275,7.1000
8.5360,7.1000
8.5360,7.1000
8.7436,7.0587
8.7436,7.0587
8.9790,6.9015
9.1362,6.6661
9.1362,6.6661
9.1775,6.4585
9.1775,6.4585
9.1775,5.7500
7.8275,5.7500
7.8275,7.1000
7.3275,7.1000
7.3275,5.7500
5.9775,5.7500
5.9775,6.4585
0.0505,6.4585
0.0505,5.4172
7.3775,5.4172
7.3775,5.5828
7.4947,5.7000
7.6603,5.7000
7.6685,5.6919
19.2954,5.6919
20.2500,6.6464
21.2046,5.6919
29.2954,5.6919
30.2500,6.6464
31.2046,5.6919
31.1563,5.6436
30.5683,5.4000
29.9317,5.4000
29.3437,5.6436
29.3437,5.6436
29.2954,5.6919
21.2046,5.6919
21.1563,5.6436
20.5683,5.4000
19.9317,5.4000
19.3437,5.6436
19.3437,5.6436
19.2954,5.6919
7.6685,5.6919
7.7775,5.5828
7.7775,5.4172
7.6603,5.3000
7.4947,5.3000
7.3775,5.4172
0.0505,5.4172
0.0505,4.5415
5.9775,4.5415
5.9775,5.2500
7.3275,5.2500
7.8275,5.2500
9.1775,5.2500
9.1775,4.5415
9.1775,4.5415
9.1362,4.3339
9.1362,4.3339
8.9790,4.0985
8.7436,3.9413
8.7436,3.9413
8.5360,3.9000
7.8275,3.9000
7.8275,5.2500
7.3275,5.2500
7.3275,3.9000
6.6190,3.9000
6.4114,3.9413
6.4114,3.9413
6.1760,4.0985
6.0188,4.3339
6.0188,4.3339
5.9775,4.5415
0.0505,4.5415
0.0505,0.1745
0.0868,0.0868
0.1745,0.0505
43.8255,0.0505
Z" /> 
<path style="fill:none; 
stroke:#D0D2CD; stroke-width:0.1000; stroke-opacity:1; 
stroke-linecap:round; stroke-linejoin:round;fill:none"
d="M 0.0000,0.0000
44.0000,0.0000
44.0000,85.0000
0.0000,85.0000
Z" /> 
</g>
<g style="fill:#FFFFFF; fill-opacity:1.0000; stroke:none;">
<circle cx="14.5000" cy="19.2500" r="0.2000" /> 
</g>
<g style="fill:#FFFFFF; fill-opacity:1.0000; stroke:none;">
<circle cx="11.0000" cy="19.2500" r="0.2000" /> 
</g>
<g style="fill:#FFFFFF; fill-opacity:1.0000; stroke:none;">
<circle cx="17.5000" cy="46.7500" r="0.2000" /> 
</g>
<g style="fill:#FFFFFF; fill-opacity:1.0000; stroke:none;">
<circle cx="17.5000" cy="44.2100" r="0.2000" /> 
</g>
<g style="fill:#FFFFFF; fill-opacity:1.0000; stroke:none;">
<circle cx="17.5000" cy="41.6700" r="0.2000" /> 
</g>
<g style="fill:#FFFFFF; fill-opacity:1.0000; stroke:none;">
<circle cx="22.7500" cy="32.2500" r="0.2000" /> 
</g>
<g style="fill:#FFFFFF; fill-opacity:1.0000; stroke:none;">
<circle cx="22.7500" cy="29.7100" r="0.2000" /> 
</g>
<g style="fill:#FFFFFF; fill-opacity:1.0000; stroke:none;">
<circle cx="22.7500" cy="27.1700" r="0.2000" /> 
</g>
<g style="fill:#FFFFFF; fill-opacity:1.0000; stroke:none;">
<circle cx="38.2500" cy="34.5000" r="0.2000" /> 
</g>
<g style="fill:#FFFFFF; fill-opacity:1.0000; stroke:none;">
<circle cx="38.2500" cy="32.0000" r="0.2000" /> 
</g>
<g style="fill:#FFFFFF; fill-opacity:1.0000; stroke:none;">
<circle cx="13.5743" cy="75.0800" r="0.2000" /> 
</g>
<g style="fill:#FFFFFF; fill-opacity:1.0000; stroke:none;">
<circle cx="13.5743" cy="72.5400" r="0.2000" /> 
</g>
<g style="fill:#FFFFFF; fill-opacity:1.0000; stroke:none;">
<circle cx="13.5743" cy="70.0000" r="0.2000" /> 
</g>
<g style="fill:#FFFFFF; fill-opacity:1.0000; stroke:none;">
<circle cx="13.5743" cy="46.7500" r="0.2000" /> 
</g>
<g style="fill:#FFFFFF; fill-opacity:1.0000; stroke:none;">
<circle cx="13.5743" cy="44.2100" r="0.2000" /> 
</g>
<g style="fill:#FFFFFF; fill-opacity:1.0000; stroke:none;">
<circle cx="13.5743" cy="41.6700" r="0.2000" /> 
</g>
<g style="fill:#FFFFFF; fill-opacity:1.0000; stroke:none;">
<circle cx="9.6485" cy="70.0000" r="0.2000" /> 
</g>
<g style="fill:#FFFFFF; fill-opacity:1.0000; stroke:none;">
<circle cx="9.6485" cy="72.5400" r="0.2000" /> 
</g>
<g style="fill:#FFFFFF; fill-opacity:1.0000; stroke:none;">
<circle cx="9.6485" cy="75.0800" r="0.2000" /> 
</g>
<g style="fill:#FFFFFF; fill-opacity:1.0000; stroke:none;">
<circle cx="30.2500" cy="9.5000" r="0.2000" /> 
</g>
<g style="fill:#FFFFFF; fill-opacity:1.0000; stroke:none;">
<circle cx="30.2500" cy="7.0000" r="0.2000" /> 
</g>
<g style="fill:#FFFFFF; fill-opacity:1.0000; stroke:none;">
<circle cx="17.5000" cy="61.0800" r="0.2000" /> 
</g>
<g style="fill:#FFFFFF; fill-opacity:1.0000; stroke:none;">
<circle cx="17.5000" cy="58.5400" r="0.2000" /> 
</g>
<g style="fill:#FFFFFF; fill-opacity:1.0000; stroke:none;">
<circle cx="17.5000" cy="56.0000" r="0.2000" /> 
</g>
<g style="fill:#FFFFFF; fill-opacity:1.0000; stroke:none;">
<circle cx="18.2500" cy="32.2500" r="0.2000" /> 
</g>
<g style="fill:#FFFFFF; fill-opacity:1.0000; stroke:none;">
<circle cx="18.2500" cy="29.7100" r="0.2000" /> 
</g>
<g style="fill:#FFFFFF; fill-opacity:1.0000; stroke:none;">
<circle cx="18.2500" cy="27.1700" r="0.2000" /> 
</g>
<g style="fill:#FFFFFF; fill-opacity:1.0000; stroke:none;">
<circle cx="23.0000" cy="41.8400" r="0.2000" /> 
</g>
<g style="fill:#FFFFFF; fill-opacity:1.0000; stroke:none;">
<circle cx="23.0000" cy="44.3800" r="0.2000" /> 
</g>
<g style="fill:#FFFFFF; fill-opacity:1.0000; stroke:none;">
<circle cx="23.0000" cy="46.9200" r="0.2000" /> 
</g>
<g style="fill:#FFFFFF; fill-opacity:1.0000; stroke:none;">
<circle cx="23.0000" cy="49.4600" r="0.2000" /> 
</g>
<g style="fill:#FFFFFF; fill-opacity:1.0000; stroke:none;">
<circle cx="23.0000" cy="52.0000" r="0.2000" /> 
</g>
<g style="fill:#FFFFFF; fill-opacity:1.0000; stroke:none;">
<circle cx="23.0000" cy="54.5400" r="0.2000" /> 
</g>
<g style="fill:#FFFFFF; fill-opacity:1.0000; stroke:none;">
<circle cx="23.0000" cy="57.0800" r="0.2000" /> 
</g>
<g style="fill:#FFFFFF; fill-opacity:1.0000; stroke:none;">
<circle cx="23.0000" cy="59.6200" r="0.2000" /> 
</g>
<g style="fill:#FFFFFF; fill-opacity:1.0000; stroke:none;">
<circle cx="23.0000" cy="62.1600" r="0.2000" /> 
</g>
<g style="fill:#FFFFFF; fill-opacity:1.0000; stroke:none;">
<circle cx="23.0000" cy="64.7000" r="0.2000" /> 
</g>
<g style="fill:#FFFFFF; fill-opacity:1.0000; stroke:none;">
<circle cx="23.0000" cy="67.2400" r="0.2000" /> 
</g>
<g style="fill:#FFFFFF; fill-opacity:1.0000; stroke:none;">
<circle cx="23.0000" cy="69.7800" r="0.2000" /> 
</g>
<g style="fill:#FFFFFF; fill-opacity:1.0000; stroke:none;">
<circle cx="23.0000" cy="72.3200" r="0.2000" /> 
</g>
<g style="fill:#FFFFFF; fill-opacity:1.0000; stroke:none;">
<circle cx="23.0000" cy="74.8600" r="0.2000" /> 
</g>
<g style="fill:#FFFFFF; fill-opacity:1.0000; stroke:none;">
<circle cx="23.0000" cy="77.4000" r="0.2000" /> 
</g>
<g style="fill:#FFFFFF; fill-opacity:1.0000; stroke:none;">
<circle cx="38.2400" cy="77.4000" r="0.2000" /> 
</g>
<g style="fill:#FFFFFF; fill-opacity:1.0000; stroke:none;">
<circle cx="38.2400" cy="74.8600" r="0.2000" /> 
</g>
<g style="fill:#FFFFFF; fill-opacity:1.0000; stroke:none;">
<circle cx="38.2400" cy="72.3200" r="0.2000" /> 
</g>
<g style="fill:#FFFFFF; fill-opacity:1.0000; stroke:none;">
<circle cx="38.2400" cy="69.7800" r="0.2000" /> 
</g>
<g style="fill:#FFFFFF; fill-opacity:1.0000; stroke:none;">
<circle cx="38.2400" cy="67.2400" r="0.2000" /> 
</g>
<g style="fill:#FFFFFF; fill-opacity:1.0000; stroke:none;">
<circle cx="38.2400" cy="64.7000" r="0.2000" /> 
</g>
<g style="fill:#FFFFFF; fill-opacity:1.0000; stroke:none;">
<circle cx="38.2400" cy="62.1600" r="0.2000" /> 
</g>
<g style="fill:#FFFFFF; fill-opacity:1.0000; stroke:none;">
<circle cx="38.2400" cy="59.6200" r="0.2000" /> 
</g>
<g style="fill:#FFFFFF; fill-opacity:1.0000; stroke:none;">
<circle cx="38.2400" cy="57.0800" r="0.2000" /> 
</g>
<g style="fill:#FFFFFF; fill-opacity:1.0000; stroke:none;">
<circle cx="38.2400" cy="54.5400" r="0.2000" /> 
</g>
<g style="fill:#FFFFFF; fill-opacity:1.0000; stroke:none;">
<circle cx="38.2400" cy="52.0000" r="0.2000" /> 
</g>
<g style="fill:#FFFFFF; fill-opacity:1.0000; stroke:none;">
<circle cx="38.2400" cy="49.4600" r="0.2000" /> 
</g>
<g style="fill:#FFFFFF; fill-opacity:1.0000; stroke:none;">
<circle cx="38.2400" cy="46.9200" r="0.2000" /> 
</g>
<g style="fill:#FFFFFF; fill-opacity:1.0000; stroke:none;">
<circle cx="38.2400" cy="44.3800" r="0.2000" /> 
</g>
<g style="fill:#FFFFFF; fill-opacity:1.0000; stroke:none;">
<circle cx="38.2400" cy="41.8400" r="0.2000" /> 
</g>
<g style="fill:#FFFFFF; fill-opacity:1.0000; stroke:none;">
<circle cx="28.5000" cy="19.7500" r="0.2000" /> 
</g>
<g style="fill:#FFFFFF; fill-opacity:1.0000; stroke:none;">
<circle cx="28.5000" cy="17.2100" r="0.2000" /> 
</g>
<g style="fill:#FFFFFF; fill-opacity:1.0000; stroke:none;">
<circle cx="17.5000" cy="75.0800" r="0.2000" /> 
</g>
<g style="fill:#FFFFFF; fill-opacity:1.0000; stroke:none;">
<circle cx="17.5000" cy="72.5400" r="0.2000" /> 
</g>
<g style="fill:#FFFFFF; fill-opacity:1.0000; stroke:none;">
<circle cx="17.5000" cy="70.0000" r="0.2000" /> 
</g>
<g style="fill:#FFFFFF; fill-opacity:1.0000; stroke:none;">
<circle cx="27.5000" cy="32.2500" r="0.2000" /> 
</g>
<g style="fill:#FFFFFF; fill-opacity:1.0000; stroke:none;">
<circle cx="27.5000" cy="29.7100" r="0.2000" /> 
</g>
<g style="fill:#FFFFFF; fill-opacity:1.0000; stroke:none;">
<circle cx="27.5000" cy="27.1700" r="0.2000" /> 
</g>
<g style="fill:#FFFFFF; fill-opacity:1.0000; stroke:none;">
<circle cx="32.0000" cy="32.2500" r="0.2000" /> 
</g>
<g style="fill:#FFFFFF; fill-opacity:1.0000; stroke:none;">
<circle cx="32.0000" cy="29.7100" r="0.2000" /> 
</g>
<g style="fill:#FFFFFF; fill-opacity:1.0000; stroke:none;">
<circle cx="32.0000" cy="27.1700" r="0.2000" /> 
</g>
<g style="fill:#FFFFFF; fill-opacity:1.0000; stroke:none;">
<circle cx="13.5743" cy="61.0800" r="0.2000" /> 
</g>
<g style="fill:#FFFFFF; fill-opacity:1.0000; stroke:none;">
<circle cx="13.5743" cy="58.5400" r="0.2000" /> 
</g>
<g style="fill:#FFFFFF; fill-opacity:1.0000; stroke:none;">
<circle cx="13.5743" cy="56.0000" r="0.2000" /> 
</g>
<g style="fill:#FFFFFF; fill-opacity:1.0000; stroke:none;">
<circle cx="20.2500" cy="9.5000" r="0.2000" /> 
</g>
<g style="fill:#FFFFFF; fill-opacity:1.0000; stroke:none;">
<circle cx="20.2500" cy="7.0000" r="0.2000" /> 
</g>
<g style="fill:#FFFFFF; fill-opacity:1.0000; stroke:none;">
<circle cx="20.9600" cy="18.7500" r="0.2000" /> 
</g>
<g style="fill:#FFFFFF; fill-opacity:1.0000; stroke:none;">
<circle cx="23.5000" cy="18.7500" r="0.2000" /> 
</g>
<g style="fill:#FFFFFF; fill-opacity:1.0000; stroke:none;">
<circle cx="9.6485" cy="61.0800" r="0.2000" /> 
</g>
<g style="fill:#FFFFFF; fill-opacity:1.0000; stroke:none;">
<circle cx="9.6485" cy="58.5400" r="0.2000" /> 
</g>
<g style="fill:#FFFFFF; fill-opacity:1.0000; stroke:none;">
<circle cx="9.6485" cy="56.0000" r="0.2000" /> 
</g>
<g style="fill:#FFFFFF; fill-opacity:1.0000; stroke:none;">
<circle cx="7.5775" cy="5.5000" r="0.2000" /> 
</g>
<g style="fill:#FFFFFF; fill-opacity:1.0000; stroke:none;">
<circle cx="7.5775" cy="10.5000" r="0.2000" /> 
</g> 
</svg>
