<?xml version="1.0" standalone="no"?>
 <!DOCTYPE svg PUBLIC "-//W3C//DTD SVG 1.1//EN" 
 "http://www.w3.org/Graphics/SVG/1.1/DTD/svg11.dtd"> 
<svg
  xmlns:svg="http://www.w3.org/2000/svg"
  xmlns="http://www.w3.org/2000/svg"
  xmlns:xlink="http://www.w3.org/1999/xlink"
  xmlns:inkscape="http://www.inkscape.org/namespaces/inkscape"
  version="1.1"
  width="43.9928mm" height="84.9884mm" viewBox="0.0000 0.0000 43.9928 84.9884">
<title>SVG Image created as nano_IPBL_2026-B_Cu.svg date 2026-07-21T19:20:11 </title>
  <desc>Image generated by PCBNEW </desc>
<g style="fill:#000000; fill-opacity:1.0000;stroke:#000000; stroke-opacity:1.0000;
stroke-linecap:round; stroke-linejoin:round;"
 transform="translate(0 0) scale(1 1)">
</g>
<g style="fill:none; 
stroke:#000000; stroke-width:0.3000; stroke-opacity:1; 
stroke-linecap:round; stroke-linejoin:round;">
<g transform="rotate(90.000000 5.9247 3.0000)">
<text x="5.9247" y="3.0000"
textLength="10.0886" font-size="1.6000" lengthAdjust="spacingAndGlyphs"
text-anchor="start" opacity="0" stroke-opacity="0">IPBL 2026</text>
</g>
<g class="stroked-text"><desc>IPBL 2026</desc>
<path d="M6.0872 3.4831
L7.2872 3.4831
" />
<path d="M6.0872 4.0545
L7.2872 4.0545
" />
<path d="M7.2872 4.0545
L7.2872 4.5117
" />
<path d="M7.2872 4.5117
L7.2300 4.6259
" />
<path d="M7.2300 4.6259
L7.1729 4.6831
" />
<path d="M7.1729 4.6831
L7.0586 4.7402
" />
<path d="M7.0586 4.7402
L6.8872 4.7402
" />
<path d="M6.8872 4.7402
L6.7729 4.6831
" />
<path d="M6.7729 4.6831
L6.7158 4.6259
" />
<path d="M6.7158 4.6259
L6.6586 4.5117
" />
<path d="M6.6586 4.5117
L6.6586 4.0545
" />
<path d="M6.7158 5.6545
L6.6586 5.8259
" />
<path d="M6.6586 5.8259
L6.6015 5.8831
" />
<path d="M6.6015 5.8831
L6.4872 5.9402
" />
<path d="M6.4872 5.9402
L6.3158 5.9402
" />
<path d="M6.3158 5.9402
L6.2015 5.8831
" />
<path d="M6.2015 5.8831
L6.1443 5.8259
" />
<path d="M6.1443 5.8259
L6.0872 5.7117
" />
<path d="M6.0872 5.7117
L6.0872 5.2545
" />
<path d="M6.0872 5.2545
L7.2872 5.2545
" />
<path d="M7.2872 5.2545
L7.2872 5.6545
" />
<path d="M7.2872 5.6545
L7.2300 5.7688
" />
<path d="M7.2300 5.7688
L7.1729 5.8259
" />
<path d="M7.1729 5.8259
L7.0586 5.8831
" />
<path d="M7.0586 5.8831
L6.9443 5.8831
" />
<path d="M6.9443 5.8831
L6.8300 5.8259
" />
<path d="M6.8300 5.8259
L6.7729 5.7688
" />
<path d="M6.7729 5.7688
L6.7158 5.6545
" />
<path d="M6.7158 5.6545
L6.7158 5.2545
" />
<path d="M6.0872 7.0259
L6.0872 6.4545
" />
<path d="M6.0872 6.4545
L7.2872 6.4545
" />
<path d="M7.1729 8.2831
L7.2300 8.3402
" />
<path d="M7.2300 8.3402
L7.2872 8.4545
" />
<path d="M7.2872 8.4545
L7.2872 8.7402
" />
<path d="M7.2872 8.7402
L7.2300 8.8545
" />
<path d="M7.2300 8.8545
L7.1729 8.9117
" />
<path d="M7.1729 8.9117
L7.0586 8.9688
" />
<path d="M7.0586 8.9688
L6.9443 8.9688
" />
<path d="M6.9443 8.9688
L6.7729 8.9117
" />
<path d="M6.7729 8.9117
L6.0872 8.2259
" />
<path d="M6.0872 8.2259
L6.0872 8.9688
" />
<path d="M7.2872 9.7117
L7.2872 9.8259
" />
<path d="M7.2872 9.8259
L7.2300 9.9402
" />
<path d="M7.2300 9.9402
L7.1729 9.9974
" />
<path d="M7.1729 9.9974
L7.0586 10.0545
" />
<path d="M7.0586 10.0545
L6.8300 10.1117
" />
<path d="M6.8300 10.1117
L6.5443 10.1117
" />
<path d="M6.5443 10.1117
L6.3158 10.0545
" />
<path d="M6.3158 10.0545
L6.2015 9.9974
" />
<path d="M6.2015 9.9974
L6.1443 9.9402
" />
<path d="M6.1443 9.9402
L6.0872 9.8259
" />
<path d="M6.0872 9.8259
L6.0872 9.7117
" />
<path d="M6.0872 9.7117
L6.1443 9.5974
" />
<path d="M6.1443 9.5974
L6.2015 9.5402
" />
<path d="M6.2015 9.5402
L6.3158 9.4831
" />
<path d="M6.3158 9.4831
L6.5443 9.4259
" />
<path d="M6.5443 9.4259
L6.8300 9.4259
" />
<path d="M6.8300 9.4259
L7.0586 9.4831
" />
<path d="M7.0586 9.4831
L7.1729 9.5402
" />
<path d="M7.1729 9.5402
L7.2300 9.5974
" />
<path d="M7.2300 9.5974
L7.2872 9.7117
" />
<path d="M7.1729 10.5688
L7.2300 10.6259
" />
<path d="M7.2300 10.6259
L7.2872 10.7402
" />
<path d="M7.2872 10.7402
L7.2872 11.0259
" />
<path d="M7.2872 11.0259
L7.2300 11.1402
" />
<path d="M7.2300 11.1402
L7.1729 11.1974
" />
<path d="M7.1729 11.1974
L7.0586 11.2545
" />
<path d="M7.0586 11.2545
L6.9443 11.2545
" />
<path d="M6.9443 11.2545
L6.7729 11.1974
" />
<path d="M6.7729 11.1974
L6.0872 10.5117
" />
<path d="M6.0872 10.5117
L6.0872 11.2545
" />
<path d="M7.2872 12.2831
L7.2872 12.0545
" />
<path d="M7.2872 12.0545
L7.2300 11.9402
" />
<path d="M7.2300 11.9402
L7.1729 11.8831
" />
<path d="M7.1729 11.8831
L7.0015 11.7688
" />
<path d="M7.0015 11.7688
L6.7729 11.7117
" />
<path d="M6.7729 11.7117
L6.3158 11.7117
" />
<path d="M6.3158 11.7117
L6.2015 11.7688
" />
<path d="M6.2015 11.7688
L6.1443 11.8259
" />
<path d="M6.1443 11.8259
L6.0872 11.9402
" />
<path d="M6.0872 11.9402
L6.0872 12.1688
" />
<path d="M6.0872 12.1688
L6.1443 12.2831
" />
<path d="M6.1443 12.2831
L6.2015 12.3402
" />
<path d="M6.2015 12.3402
L6.3158 12.3974
" />
<path d="M6.3158 12.3974
L6.6015 12.3974
" />
<path d="M6.6015 12.3974
L6.7158 12.3402
" />
<path d="M6.7158 12.3402
L6.7729 12.2831
" />
<path d="M6.7729 12.2831
L6.8300 12.1688
" />
<path d="M6.8300 12.1688
L6.8300 11.9402
" />
<path d="M6.8300 11.9402
L6.7729 11.8259
" />
<path d="M6.7729 11.8259
L6.7158 11.7688
" />
<path d="M6.7158 11.7688
L6.6015 11.7117
" />
</g><g transform="rotate(90.000000 3.9928 3.0000)">
<text x="3.9928" y="3.0000"
textLength="18.5457" font-size="1.6000" lengthAdjust="spacingAndGlyphs"
text-anchor="start" opacity="0" stroke-opacity="0">SERVO-NANO CONN</text>
</g>
<g class="stroked-text"><desc>SERVO-NANO CONN</desc>
<path d="M4.2124 3.4259
L4.1553 3.5974
" />
<path d="M4.1553 3.5974
L4.1553 3.8831
" />
<path d="M4.1553 3.8831
L4.2124 3.9974
" />
<path d="M4.2124 3.9974
L4.2695 4.0545
" />
<path d="M4.2695 4.0545
L4.3838 4.1117
" />
<path d="M4.3838 4.1117
L4.4981 4.1117
" />
<path d="M4.4981 4.1117
L4.6124 4.0545
" />
<path d="M4.6124 4.0545
L4.6695 3.9974
" />
<path d="M4.6695 3.9974
L4.7267 3.8831
" />
<path d="M4.7267 3.8831
L4.7838 3.6545
" />
<path d="M4.7838 3.6545
L4.8410 3.5402
" />
<path d="M4.8410 3.5402
L4.8981 3.4831
" />
<path d="M4.8981 3.4831
L5.0124 3.4259
" />
<path d="M5.0124 3.4259
L5.1267 3.4259
" />
<path d="M5.1267 3.4259
L5.2410 3.4831
" />
<path d="M5.2410 3.4831
L5.2981 3.5402
" />
<path d="M5.2981 3.5402
L5.3553 3.6545
" />
<path d="M5.3553 3.6545
L5.3553 3.9402
" />
<path d="M5.3553 3.9402
L5.2981 4.1117
" />
<path d="M4.7838 4.6259
L4.7838 5.0259
" />
<path d="M4.1553 5.1974
L4.1553 4.6259
" />
<path d="M4.1553 4.6259
L5.3553 4.6259
" />
<path d="M5.3553 4.6259
L5.3553 5.1974
" />
<path d="M4.1553 6.3974
L4.7267 5.9974
" />
<path d="M4.1553 5.7117
L5.3553 5.7117
" />
<path d="M5.3553 5.7117
L5.3553 6.1688
" />
<path d="M5.3553 6.1688
L5.2981 6.2831
" />
<path d="M5.2981 6.2831
L5.2410 6.3402
" />
<path d="M5.2410 6.3402
L5.1267 6.3974
" />
<path d="M5.1267 6.3974
L4.9553 6.3974
" />
<path d="M4.9553 6.3974
L4.8410 6.3402
" />
<path d="M4.8410 6.3402
L4.7838 6.2831
" />
<path d="M4.7838 6.2831
L4.7267 6.1688
" />
<path d="M4.7267 6.1688
L4.7267 5.7117
" />
<path d="M5.3553 6.7402
L4.1553 7.1402
" />
<path d="M4.1553 7.1402
L5.3553 7.5402
" />
<path d="M5.3553 8.1688
L5.3553 8.3974
" />
<path d="M5.3553 8.3974
L5.2981 8.5117
" />
<path d="M5.2981 8.5117
L5.1838 8.6259
" />
<path d="M5.1838 8.6259
L4.9553 8.6831
" />
<path d="M4.9553 8.6831
L4.5553 8.6831
" />
<path d="M4.5553 8.6831
L4.3267 8.6259
" />
<path d="M4.3267 8.6259
L4.2124 8.5117
" />
<path d="M4.2124 8.5117
L4.1553 8.3974
" />
<path d="M4.1553 8.3974
L4.1553 8.1688
" />
<path d="M4.1553 8.1688
L4.2124 8.0545
" />
<path d="M4.2124 8.0545
L4.3267 7.9402
" />
<path d="M4.3267 7.9402
L4.5553 7.8831
" />
<path d="M4.5553 7.8831
L4.9553 7.8831
" />
<path d="M4.9553 7.8831
L5.1838 7.9402
" />
<path d="M5.1838 7.9402
L5.2981 8.0545
" />
<path d="M5.2981 8.0545
L5.3553 8.1688
" />
<path d="M4.6124 9.1974
L4.6124 10.1117
" />
<path d="M4.1553 10.6831
L5.3553 10.6831
" />
<path d="M5.3553 10.6831
L4.1553 11.3688
" />
<path d="M4.1553 11.3688
L5.3553 11.3688
" />
<path d="M4.4981 11.8831
L4.4981 12.4545
" />
<path d="M4.1553 11.7688
L5.3553 12.1688
" />
<path d="M5.3553 12.1688
L4.1553 12.5688
" />
<path d="M4.1553 12.9688
L5.3553 12.9688
" />
<path d="M5.3553 12.9688
L4.1553 13.6545
" />
<path d="M4.1553 13.6545
L5.3553 13.6545
" />
<path d="M5.3553 14.4545
L5.3553 14.6831
" />
<path d="M5.3553 14.6831
L5.2981 14.7974
" />
<path d="M5.2981 14.7974
L5.1838 14.9117
" />
<path d="M5.1838 14.9117
L4.9553 14.9688
" />
<path d="M4.9553 14.9688
L4.5553 14.9688
" />
<path d="M4.5553 14.9688
L4.3267 14.9117
" />
<path d="M4.3267 14.9117
L4.2124 14.7974
" />
<path d="M4.2124 14.7974
L4.1553 14.6831
" />
<path d="M4.1553 14.6831
L4.1553 14.4545
" />
<path d="M4.1553 14.4545
L4.2124 14.3402
" />
<path d="M4.2124 14.3402
L4.3267 14.2259
" />
<path d="M4.3267 14.2259
L4.5553 14.1688
" />
<path d="M4.5553 14.1688
L4.9553 14.1688
" />
<path d="M4.9553 14.1688
L5.1838 14.2259
" />
<path d="M5.1838 14.2259
L5.2981 14.3402
" />
<path d="M5.2981 14.3402
L5.3553 14.4545
" />
<path d="M4.2695 17.0831
L4.2124 17.0259
" />
<path d="M4.2124 17.0259
L4.1553 16.8545
" />
<path d="M4.1553 16.8545
L4.1553 16.7402
" />
<path d="M4.1553 16.7402
L4.2124 16.5688
" />
<path d="M4.2124 16.5688
L4.3267 16.4545
" />
<path d="M4.3267 16.4545
L4.4410 16.3974
" />
<path d="M4.4410 16.3974
L4.6695 16.3402
" />
<path d="M4.6695 16.3402
L4.8410 16.3402
" />
<path d="M4.8410 16.3402
L5.0695 16.3974
" />
<path d="M5.0695 16.3974
L5.1838 16.4545
" />
<path d="M5.1838 16.4545
L5.2981 16.5688
" />
<path d="M5.2981 16.5688
L5.3553 16.7402
" />
<path d="M5.3553 16.7402
L5.3553 16.8545
" />
<path d="M5.3553 16.8545
L5.2981 17.0259
" />
<path d="M5.2981 17.0259
L5.2410 17.0831
" />
<path d="M5.3553 17.8259
L5.3553 18.0545
" />
<path d="M5.3553 18.0545
L5.2981 18.1688
" />
<path d="M5.2981 18.1688
L5.1838 18.2831
" />
<path d="M5.1838 18.2831
L4.9553 18.3402
" />
<path d="M4.9553 18.3402
L4.5553 18.3402
" />
<path d="M4.5553 18.3402
L4.3267 18.2831
" />
<path d="M4.3267 18.2831
L4.2124 18.1688
" />
<path d="M4.2124 18.1688
L4.1553 18.0545
" />
<path d="M4.1553 18.0545
L4.1553 17.8259
" />
<path d="M4.1553 17.8259
L4.2124 17.7117
" />
<path d="M4.2124 17.7117
L4.3267 17.5974
" />
<path d="M4.3267 17.5974
L4.5553 17.5402
" />
<path d="M4.5553 17.5402
L4.9553 17.5402
" />
<path d="M4.9553 17.5402
L5.1838 17.5974
" />
<path d="M5.1838 17.5974
L5.2981 17.7117
" />
<path d="M5.2981 17.7117
L5.3553 17.8259
" />
<path d="M4.1553 18.8545
L5.3553 18.8545
" />
<path d="M5.3553 18.8545
L4.1553 19.5402
" />
<path d="M4.1553 19.5402
L5.3553 19.5402
" />
<path d="M4.1553 20.1117
L5.3553 20.1117
" />
<path d="M5.3553 20.1117
L4.1553 20.7974
" />
<path d="M4.1553 20.7974
L5.3553 20.7974
" />
</g><g transform="rotate(90.000000 39.4928 21.0000)">
<text x="39.4928" y="21.0000"
textLength="32.6714" font-size="2.0000" lengthAdjust="spacingAndGlyphs"
text-anchor="start" opacity="0" stroke-opacity="0">School of Computer Studies</text>
</g>
<g class="stroked-text"><desc>School of Computer Studies</desc>
<path d="M39.7634 21.4831
L39.6920 21.6974
" />
<path d="M39.6920 21.6974
L39.6920 22.0545
" />
<path d="M39.6920 22.0545
L39.7634 22.1974
" />
<path d="M39.7634 22.1974
L39.8348 22.2688
" />
<path d="M39.8348 22.2688
L39.9777 22.3402
" />
<path d="M39.9777 22.3402
L40.1205 22.3402
" />
<path d="M40.1205 22.3402
L40.2634 22.2688
" />
<path d="M40.2634 22.2688
L40.3348 22.1974
" />
<path d="M40.3348 22.1974
L40.4063 22.0545
" />
<path d="M40.4063 22.0545
L40.4777 21.7688
" />
<path d="M40.4777 21.7688
L40.5491 21.6259
" />
<path d="M40.5491 21.6259
L40.6205 21.5545
" />
<path d="M40.6205 21.5545
L40.7634 21.4831
" />
<path d="M40.7634 21.4831
L40.9063 21.4831
" />
<path d="M40.9063 21.4831
L41.0491 21.5545
" />
<path d="M41.0491 21.5545
L41.1205 21.6259
" />
<path d="M41.1205 21.6259
L41.1920 21.7688
" />
<path d="M41.1920 21.7688
L41.1920 22.1259
" />
<path d="M41.1920 22.1259
L41.1205 22.3402
" />
<path d="M39.7634 23.6259
L39.6920 23.4831
" />
<path d="M39.6920 23.4831
L39.6920 23.1974
" />
<path d="M39.6920 23.1974
L39.7634 23.0545
" />
<path d="M39.7634 23.0545
L39.8348 22.9831
" />
<path d="M39.8348 22.9831
L39.9777 22.9117
" />
<path d="M39.9777 22.9117
L40.4063 22.9117
" />
<path d="M40.4063 22.9117
L40.5491 22.9831
" />
<path d="M40.5491 22.9831
L40.6205 23.0545
" />
<path d="M40.6205 23.0545
L40.6920 23.1974
" />
<path d="M40.6920 23.1974
L40.6920 23.4831
" />
<path d="M40.6920 23.4831
L40.6205 23.6259
" />
<path d="M39.6920 24.2688
L41.1920 24.2688
" />
<path d="M39.6920 24.9117
L40.4777 24.9117
" />
<path d="M40.4777 24.9117
L40.6205 24.8402
" />
<path d="M40.6205 24.8402
L40.6920 24.6974
" />
<path d="M40.6920 24.6974
L40.6920 24.4831
" />
<path d="M40.6920 24.4831
L40.6205 24.3402
" />
<path d="M40.6205 24.3402
L40.5491 24.2688
" />
<path d="M39.6920 25.8402
L39.7634 25.6974
" />
<path d="M39.7634 25.6974
L39.8348 25.6259
" />
<path d="M39.8348 25.6259
L39.9777 25.5545
" />
<path d="M39.9777 25.5545
L40.4063 25.5545
" />
<path d="M40.4063 25.5545
L40.5491 25.6259
" />
<path d="M40.5491 25.6259
L40.6205 25.6974
" />
<path d="M40.6205 25.6974
L40.6920 25.8402
" />
<path d="M40.6920 25.8402
L40.6920 26.0545
" />
<path d="M40.6920 26.0545
L40.6205 26.1974
" />
<path d="M40.6205 26.1974
L40.5491 26.2688
" />
<path d="M40.5491 26.2688
L40.4063 26.3402
" />
<path d="M40.4063 26.3402
L39.9777 26.3402
" />
<path d="M39.9777 26.3402
L39.8348 26.2688
" />
<path d="M39.8348 26.2688
L39.7634 26.1974
" />
<path d="M39.7634 26.1974
L39.6920 26.0545
" />
<path d="M39.6920 26.0545
L39.6920 25.8402
" />
<path d="M39.6920 27.1974
L39.7634 27.0545
" />
<path d="M39.7634 27.0545
L39.8348 26.9831
" />
<path d="M39.8348 26.9831
L39.9777 26.9117
" />
<path d="M39.9777 26.9117
L40.4063 26.9117
" />
<path d="M40.4063 26.9117
L40.5491 26.9831
" />
<path d="M40.5491 26.9831
L40.6205 27.0545
" />
<path d="M40.6205 27.0545
L40.6920 27.1974
" />
<path d="M40.6920 27.1974
L40.6920 27.4117
" />
<path d="M40.6920 27.4117
L40.6205 27.5545
" />
<path d="M40.6205 27.5545
L40.5491 27.6259
" />
<path d="M40.5491 27.6259
L40.4063 27.6974
" />
<path d="M40.4063 27.6974
L39.9777 27.6974
" />
<path d="M39.9777 27.6974
L39.8348 27.6259
" />
<path d="M39.8348 27.6259
L39.7634 27.5545
" />
<path d="M39.7634 27.5545
L39.6920 27.4117
" />
<path d="M39.6920 27.4117
L39.6920 27.1974
" />
<path d="M39.6920 28.5545
L39.7634 28.4117
" />
<path d="M39.7634 28.4117
L39.9063 28.3402
" />
<path d="M39.9063 28.3402
L41.1920 28.3402
" />
<path d="M39.6920 30.4831
L39.7634 30.3402
" />
<path d="M39.7634 30.3402
L39.8348 30.2688
" />
<path d="M39.8348 30.2688
L39.9777 30.1974
" />
<path d="M39.9777 30.1974
L40.4063 30.1974
" />
<path d="M40.4063 30.1974
L40.5491 30.2688
" />
<path d="M40.5491 30.2688
L40.6205 30.3402
" />
<path d="M40.6205 30.3402
L40.6920 30.4831
" />
<path d="M40.6920 30.4831
L40.6920 30.6974
" />
<path d="M40.6920 30.6974
L40.6205 30.8402
" />
<path d="M40.6205 30.8402
L40.5491 30.9117
" />
<path d="M40.5491 30.9117
L40.4063 30.9831
" />
<path d="M40.4063 30.9831
L39.9777 30.9831
" />
<path d="M39.9777 30.9831
L39.8348 30.9117
" />
<path d="M39.8348 30.9117
L39.7634 30.8402
" />
<path d="M39.7634 30.8402
L39.6920 30.6974
" />
<path d="M39.6920 30.6974
L39.6920 30.4831
" />
<path d="M40.6920 31.4117
L40.6920 31.9831
" />
<path d="M39.6920 31.6259
L40.9777 31.6259
" />
<path d="M40.9777 31.6259
L41.1205 31.6974
" />
<path d="M41.1205 31.6974
L41.1920 31.8402
" />
<path d="M41.1920 31.8402
L41.1920 31.9831
" />
<path d="M39.8348 34.4831
L39.7634 34.4117
" />
<path d="M39.7634 34.4117
L39.6920 34.1974
" />
<path d="M39.6920 34.1974
L39.6920 34.0545
" />
<path d="M39.6920 34.0545
L39.7634 33.8402
" />
<path d="M39.7634 33.8402
L39.9063 33.6974
" />
<path d="M39.9063 33.6974
L40.0491 33.6259
" />
<path d="M40.0491 33.6259
L40.3348 33.5545
" />
<path d="M40.3348 33.5545
L40.5491 33.5545
" />
<path d="M40.5491 33.5545
L40.8348 33.6259
" />
<path d="M40.8348 33.6259
L40.9777 33.6974
" />
<path d="M40.9777 33.6974
L41.1205 33.8402
" />
<path d="M41.1205 33.8402
L41.1920 34.0545
" />
<path d="M41.1920 34.0545
L41.1920 34.1974
" />
<path d="M41.1920 34.1974
L41.1205 34.4117
" />
<path d="M41.1205 34.4117
L41.0491 34.4831
" />
<path d="M39.6920 35.3402
L39.7634 35.1974
" />
<path d="M39.7634 35.1974
L39.8348 35.1259
" />
<path d="M39.8348 35.1259
L39.9777 35.0545
" />
<path d="M39.9777 35.0545
L40.4063 35.0545
" />
<path d="M40.4063 35.0545
L40.5491 35.1259
" />
<path d="M40.5491 35.1259
L40.6205 35.1974
" />
<path d="M40.6205 35.1974
L40.6920 35.3402
" />
<path d="M40.6920 35.3402
L40.6920 35.5545
" />
<path d="M40.6920 35.5545
L40.6205 35.6974
" />
<path d="M40.6205 35.6974
L40.5491 35.7688
" />
<path d="M40.5491 35.7688
L40.4063 35.8402
" />
<path d="M40.4063 35.8402
L39.9777 35.8402
" />
<path d="M39.9777 35.8402
L39.8348 35.7688
" />
<path d="M39.8348 35.7688
L39.7634 35.6974
" />
<path d="M39.7634 35.6974
L39.6920 35.5545
" />
<path d="M39.6920 35.5545
L39.6920 35.3402
" />
<path d="M39.6920 36.4831
L40.6920 36.4831
" />
<path d="M40.5491 36.4831
L40.6205 36.5545
" />
<path d="M40.6205 36.5545
L40.6920 36.6974
" />
<path d="M40.6920 36.6974
L40.6920 36.9117
" />
<path d="M40.6920 36.9117
L40.6205 37.0545
" />
<path d="M40.6205 37.0545
L40.4777 37.1259
" />
<path d="M40.4777 37.1259
L39.6920 37.1259
" />
<path d="M40.4777 37.1259
L40.6205 37.1974
" />
<path d="M40.6205 37.1974
L40.6920 37.3402
" />
<path d="M40.6920 37.3402
L40.6920 37.5545
" />
<path d="M40.6920 37.5545
L40.6205 37.6974
" />
<path d="M40.6205 37.6974
L40.4777 37.7688
" />
<path d="M40.4777 37.7688
L39.6920 37.7688
" />
<path d="M40.6920 38.4831
L39.1920 38.4831
" />
<path d="M40.6205 38.4831
L40.6920 38.6259
" />
<path d="M40.6920 38.6259
L40.6920 38.9117
" />
<path d="M40.6920 38.9117
L40.6205 39.0545
" />
<path d="M40.6205 39.0545
L40.5491 39.1259
" />
<path d="M40.5491 39.1259
L40.4063 39.1974
" />
<path d="M40.4063 39.1974
L39.9777 39.1974
" />
<path d="M39.9777 39.1974
L39.8348 39.1259
" />
<path d="M39.8348 39.1259
L39.7634 39.0545
" />
<path d="M39.7634 39.0545
L39.6920 38.9117
" />
<path d="M39.6920 38.9117
L39.6920 38.6259
" />
<path d="M39.6920 38.6259
L39.7634 38.4831
" />
<path d="M40.6920 40.4831
L39.6920 40.4831
" />
<path d="M40.6920 39.8402
L39.9063 39.8402
" />
<path d="M39.9063 39.8402
L39.7634 39.9117
" />
<path d="M39.7634 39.9117
L39.6920 40.0545
" />
<path d="M39.6920 40.0545
L39.6920 40.2688
" />
<path d="M39.6920 40.2688
L39.7634 40.4117
" />
<path d="M39.7634 40.4117
L39.8348 40.4831
" />
<path d="M40.6920 40.9831
L40.6920 41.5545
" />
<path d="M41.1920 41.1974
L39.9063 41.1974
" />
<path d="M39.9063 41.1974
L39.7634 41.2688
" />
<path d="M39.7634 41.2688
L39.6920 41.4117
" />
<path d="M39.6920 41.4117
L39.6920 41.5545
" />
<path d="M39.7634 42.6259
L39.6920 42.4831
" />
<path d="M39.6920 42.4831
L39.6920 42.1974
" />
<path d="M39.6920 42.1974
L39.7634 42.0545
" />
<path d="M39.7634 42.0545
L39.9063 41.9831
" />
<path d="M39.9063 41.9831
L40.4777 41.9831
" />
<path d="M40.4777 41.9831
L40.6205 42.0545
" />
<path d="M40.6205 42.0545
L40.6920 42.1974
" />
<path d="M40.6920 42.1974
L40.6920 42.4831
" />
<path d="M40.6920 42.4831
L40.6205 42.6259
" />
<path d="M40.6205 42.6259
L40.4777 42.6974
" />
<path d="M40.4777 42.6974
L40.3348 42.6974
" />
<path d="M40.3348 42.6974
L40.1920 41.9831
" />
<path d="M39.6920 43.3402
L40.6920 43.3402
" />
<path d="M40.4063 43.3402
L40.5491 43.4117
" />
<path d="M40.5491 43.4117
L40.6205 43.4831
" />
<path d="M40.6205 43.4831
L40.6920 43.6259
" />
<path d="M40.6920 43.6259
L40.6920 43.7688
" />
<path d="M39.7634 45.3402
L39.6920 45.5545
" />
<path d="M39.6920 45.5545
L39.6920 45.9117
" />
<path d="M39.6920 45.9117
L39.7634 46.0545
" />
<path d="M39.7634 46.0545
L39.8348 46.1259
" />
<path d="M39.8348 46.1259
L39.9777 46.1974
" />
<path d="M39.9777 46.1974
L40.1205 46.1974
" />
<path d="M40.1205 46.1974
L40.2634 46.1259
" />
<path d="M40.2634 46.1259
L40.3348 46.0545
" />
<path d="M40.3348 46.0545
L40.4063 45.9117
" />
<path d="M40.4063 45.9117
L40.4777 45.6259
" />
<path d="M40.4777 45.6259
L40.5491 45.4831
" />
<path d="M40.5491 45.4831
L40.6205 45.4117
" />
<path d="M40.6205 45.4117
L40.7634 45.3402
" />
<path d="M40.7634 45.3402
L40.9063 45.3402
" />
<path d="M40.9063 45.3402
L41.0491 45.4117
" />
<path d="M41.0491 45.4117
L41.1205 45.4831
" />
<path d="M41.1205 45.4831
L41.1920 45.6259
" />
<path d="M41.1920 45.6259
L41.1920 45.9831
" />
<path d="M41.1920 45.9831
L41.1205 46.1974
" />
<path d="M40.6920 46.6259
L40.6920 47.1974
" />
<path d="M41.1920 46.8402
L39.9063 46.8402
" />
<path d="M39.9063 46.8402
L39.7634 46.9117
" />
<path d="M39.7634 46.9117
L39.6920 47.0545
" />
<path d="M39.6920 47.0545
L39.6920 47.1974
" />
<path d="M40.6920 48.3402
L39.6920 48.3402
" />
<path d="M40.6920 47.6974
L39.9063 47.6974
" />
<path d="M39.9063 47.6974
L39.7634 47.7688
" />
<path d="M39.7634 47.7688
L39.6920 47.9117
" />
<path d="M39.6920 47.9117
L39.6920 48.1259
" />
<path d="M39.6920 48.1259
L39.7634 48.2688
" />
<path d="M39.7634 48.2688
L39.8348 48.3402
" />
<path d="M39.6920 49.6974
L41.1920 49.6974
" />
<path d="M39.7634 49.6974
L39.6920 49.5545
" />
<path d="M39.6920 49.5545
L39.6920 49.2688
" />
<path d="M39.6920 49.2688
L39.7634 49.1259
" />
<path d="M39.7634 49.1259
L39.8348 49.0545
" />
<path d="M39.8348 49.0545
L39.9777 48.9831
" />
<path d="M39.9777 48.9831
L40.4063 48.9831
" />
<path d="M40.4063 48.9831
L40.5491 49.0545
" />
<path d="M40.5491 49.0545
L40.6205 49.1259
" />
<path d="M40.6205 49.1259
L40.6920 49.2688
" />
<path d="M40.6920 49.2688
L40.6920 49.5545
" />
<path d="M40.6920 49.5545
L40.6205 49.6974
" />
<path d="M39.6920 50.4117
L40.6920 50.4117
" />
<path d="M41.1920 50.4117
L41.1205 50.3402
" />
<path d="M41.1205 50.3402
L41.0491 50.4117
" />
<path d="M41.0491 50.4117
L41.1205 50.4831
" />
<path d="M41.1205 50.4831
L41.1920 50.4117
" />
<path d="M41.1920 50.4117
L41.0491 50.4117
" />
<path d="M39.7634 51.6974
L39.6920 51.5545
" />
<path d="M39.6920 51.5545
L39.6920 51.2688
" />
<path d="M39.6920 51.2688
L39.7634 51.1259
" />
<path d="M39.7634 51.1259
L39.9063 51.0545
" />
<path d="M39.9063 51.0545
L40.4777 51.0545
" />
<path d="M40.4777 51.0545
L40.6205 51.1259
" />
<path d="M40.6205 51.1259
L40.6920 51.2688
" />
<path d="M40.6920 51.2688
L40.6920 51.5545
" />
<path d="M40.6920 51.5545
L40.6205 51.6974
" />
<path d="M40.6205 51.6974
L40.4777 51.7688
" />
<path d="M40.4777 51.7688
L40.3348 51.7688
" />
<path d="M40.3348 51.7688
L40.1920 51.0545
" />
<path d="M39.7634 52.3402
L39.6920 52.4831
" />
<path d="M39.6920 52.4831
L39.6920 52.7688
" />
<path d="M39.6920 52.7688
L39.7634 52.9117
" />
<path d="M39.7634 52.9117
L39.9063 52.9831
" />
<path d="M39.9063 52.9831
L39.9777 52.9831
" />
<path d="M39.9777 52.9831
L40.1205 52.9117
" />
<path d="M40.1205 52.9117
L40.1920 52.7688
" />
<path d="M40.1920 52.7688
L40.1920 52.5545
" />
<path d="M40.1920 52.5545
L40.2634 52.4117
" />
<path d="M40.2634 52.4117
L40.4063 52.3402
" />
<path d="M40.4063 52.3402
L40.4777 52.3402
" />
<path d="M40.4777 52.3402
L40.6205 52.4117
" />
<path d="M40.6205 52.4117
L40.6920 52.5545
" />
<path d="M40.6920 52.5545
L40.6920 52.7688
" />
<path d="M40.6920 52.7688
L40.6205 52.9117
" />
</g><g transform="rotate(90.000000 39.4928 62.5000)">
<text x="39.4928" y="62.5000"
textLength="19.5286" font-size="2.0000" lengthAdjust="spacingAndGlyphs"
text-anchor="start" opacity="0" stroke-opacity="0">PCB Design v3.2</text>
</g>
<g class="stroked-text"><desc>PCB Design v3.2</desc>
<path d="M39.6920 63.0545
L41.1920 63.0545
" />
<path d="M41.1920 63.0545
L41.1920 63.6259
" />
<path d="M41.1920 63.6259
L41.1205 63.7688
" />
<path d="M41.1205 63.7688
L41.0491 63.8402
" />
<path d="M41.0491 63.8402
L40.9063 63.9117
" />
<path d="M40.9063 63.9117
L40.6920 63.9117
" />
<path d="M40.6920 63.9117
L40.5491 63.8402
" />
<path d="M40.5491 63.8402
L40.4777 63.7688
" />
<path d="M40.4777 63.7688
L40.4063 63.6259
" />
<path d="M40.4063 63.6259
L40.4063 63.0545
" />
<path d="M39.8348 65.4117
L39.7634 65.3402
" />
<path d="M39.7634 65.3402
L39.6920 65.1259
" />
<path d="M39.6920 65.1259
L39.6920 64.9831
" />
<path d="M39.6920 64.9831
L39.7634 64.7688
" />
<path d="M39.7634 64.7688
L39.9063 64.6259
" />
<path d="M39.9063 64.6259
L40.0491 64.5545
" />
<path d="M40.0491 64.5545
L40.3348 64.4831
" />
<path d="M40.3348 64.4831
L40.5491 64.4831
" />
<path d="M40.5491 64.4831
L40.8348 64.5545
" />
<path d="M40.8348 64.5545
L40.9777 64.6259
" />
<path d="M40.9777 64.6259
L41.1205 64.7688
" />
<path d="M41.1205 64.7688
L41.1920 64.9831
" />
<path d="M41.1920 64.9831
L41.1920 65.1259
" />
<path d="M41.1920 65.1259
L41.1205 65.3402
" />
<path d="M41.1205 65.3402
L41.0491 65.4117
" />
<path d="M40.4777 66.5545
L40.4063 66.7688
" />
<path d="M40.4063 66.7688
L40.3348 66.8402
" />
<path d="M40.3348 66.8402
L40.1920 66.9117
" />
<path d="M40.1920 66.9117
L39.9777 66.9117
" />
<path d="M39.9777 66.9117
L39.8348 66.8402
" />
<path d="M39.8348 66.8402
L39.7634 66.7688
" />
<path d="M39.7634 66.7688
L39.6920 66.6259
" />
<path d="M39.6920 66.6259
L39.6920 66.0545
" />
<path d="M39.6920 66.0545
L41.1920 66.0545
" />
<path d="M41.1920 66.0545
L41.1920 66.5545
" />
<path d="M41.1920 66.5545
L41.1205 66.6974
" />
<path d="M41.1205 66.6974
L41.0491 66.7688
" />
<path d="M41.0491 66.7688
L40.9063 66.8402
" />
<path d="M40.9063 66.8402
L40.7634 66.8402
" />
<path d="M40.7634 66.8402
L40.6205 66.7688
" />
<path d="M40.6205 66.7688
L40.5491 66.6974
" />
<path d="M40.5491 66.6974
L40.4777 66.5545
" />
<path d="M40.4777 66.5545
L40.4777 66.0545
" />
<path d="M39.6920 68.6974
L41.1920 68.6974
" />
<path d="M41.1920 68.6974
L41.1920 69.0545
" />
<path d="M41.1920 69.0545
L41.1205 69.2688
" />
<path d="M41.1205 69.2688
L40.9777 69.4117
" />
<path d="M40.9777 69.4117
L40.8348 69.4831
" />
<path d="M40.8348 69.4831
L40.5491 69.5545
" />
<path d="M40.5491 69.5545
L40.3348 69.5545
" />
<path d="M40.3348 69.5545
L40.0491 69.4831
" />
<path d="M40.0491 69.4831
L39.9063 69.4117
" />
<path d="M39.9063 69.4117
L39.7634 69.2688
" />
<path d="M39.7634 69.2688
L39.6920 69.0545
" />
<path d="M39.6920 69.0545
L39.6920 68.6974
" />
<path d="M39.7634 70.7688
L39.6920 70.6259
" />
<path d="M39.6920 70.6259
L39.6920 70.3402
" />
<path d="M39.6920 70.3402
L39.7634 70.1974
" />
<path d="M39.7634 70.1974
L39.9063 70.1259
" />
<path d="M39.9063 70.1259
L40.4777 70.1259
" />
<path d="M40.4777 70.1259
L40.6205 70.1974
" />
<path d="M40.6205 70.1974
L40.6920 70.3402
" />
<path d="M40.6920 70.3402
L40.6920 70.6259
" />
<path d="M40.6920 70.6259
L40.6205 70.7688
" />
<path d="M40.6205 70.7688
L40.4777 70.8402
" />
<path d="M40.4777 70.8402
L40.3348 70.8402
" />
<path d="M40.3348 70.8402
L40.1920 70.1259
" />
<path d="M39.7634 71.4117
L39.6920 71.5545
" />
<path d="M39.6920 71.5545
L39.6920 71.8402
" />
<path d="M39.6920 71.8402
L39.7634 71.9831
" />
<path d="M39.7634 71.9831
L39.9063 72.0545
" />
<path d="M39.9063 72.0545
L39.9777 72.0545
" />
<path d="M39.9777 72.0545
L40.1205 71.9831
" />
<path d="M40.1205 71.9831
L40.1920 71.8402
" />
<path d="M40.1920 71.8402
L40.1920 71.6259
" />
<path d="M40.1920 71.6259
L40.2634 71.4831
" />
<path d="M40.2634 71.4831
L40.4063 71.4117
" />
<path d="M40.4063 71.4117
L40.4777 71.4117
" />
<path d="M40.4777 71.4117
L40.6205 71.4831
" />
<path d="M40.6205 71.4831
L40.6920 71.6259
" />
<path d="M40.6920 71.6259
L40.6920 71.8402
" />
<path d="M40.6920 71.8402
L40.6205 71.9831
" />
<path d="M39.6920 72.6974
L40.6920 72.6974
" />
<path d="M41.1920 72.6974
L41.1205 72.6259
" />
<path d="M41.1205 72.6259
L41.0491 72.6974
" />
<path d="M41.0491 72.6974
L41.1205 72.7688
" />
<path d="M41.1205 72.7688
L41.1920 72.6974
" />
<path d="M41.1920 72.6974
L41.0491 72.6974
" />
<path d="M40.6920 74.0545
L39.4777 74.0545
" />
<path d="M39.4777 74.0545
L39.3348 73.9831
" />
<path d="M39.3348 73.9831
L39.2634 73.9117
" />
<path d="M39.2634 73.9117
L39.1920 73.7688
" />
<path d="M39.1920 73.7688
L39.1920 73.5545
" />
<path d="M39.1920 73.5545
L39.2634 73.4117
" />
<path d="M39.7634 74.0545
L39.6920 73.9117
" />
<path d="M39.6920 73.9117
L39.6920 73.6259
" />
<path d="M39.6920 73.6259
L39.7634 73.4831
" />
<path d="M39.7634 73.4831
L39.8348 73.4117
" />
<path d="M39.8348 73.4117
L39.9777 73.3402
" />
<path d="M39.9777 73.3402
L40.4063 73.3402
" />
<path d="M40.4063 73.3402
L40.5491 73.4117
" />
<path d="M40.5491 73.4117
L40.6205 73.4831
" />
<path d="M40.6205 73.4831
L40.6920 73.6259
" />
<path d="M40.6920 73.6259
L40.6920 73.9117
" />
<path d="M40.6920 73.9117
L40.6205 74.0545
" />
<path d="M40.6920 74.7688
L39.6920 74.7688
" />
<path d="M40.5491 74.7688
L40.6205 74.8402
" />
<path d="M40.6205 74.8402
L40.6920 74.9831
" />
<path d="M40.6920 74.9831
L40.6920 75.1974
" />
<path d="M40.6920 75.1974
L40.6205 75.3402
" />
<path d="M40.6205 75.3402
L40.4777 75.4117
" />
<path d="M40.4777 75.4117
L39.6920 75.4117
" />
<path d="M40.6920 77.1259
L39.6920 77.4831
" />
<path d="M39.6920 77.4831
L40.6920 77.8402
" />
<path d="M41.1920 78.2688
L41.1920 79.1974
" />
<path d="M41.1920 79.1974
L40.6205 78.6974
" />
<path d="M40.6205 78.6974
L40.6205 78.9117
" />
<path d="M40.6205 78.9117
L40.5491 79.0545
" />
<path d="M40.5491 79.0545
L40.4777 79.1259
" />
<path d="M40.4777 79.1259
L40.3348 79.1974
" />
<path d="M40.3348 79.1974
L39.9777 79.1974
" />
<path d="M39.9777 79.1974
L39.8348 79.1259
" />
<path d="M39.8348 79.1259
L39.7634 79.0545
" />
<path d="M39.7634 79.0545
L39.6920 78.9117
" />
<path d="M39.6920 78.9117
L39.6920 78.4831
" />
<path d="M39.6920 78.4831
L39.7634 78.3402
" />
<path d="M39.7634 78.3402
L39.8348 78.2688
" />
<path d="M39.8348 79.8402
L39.7634 79.9117
" />
<path d="M39.7634 79.9117
L39.6920 79.8402
" />
<path d="M39.6920 79.8402
L39.7634 79.7688
" />
<path d="M39.7634 79.7688
L39.8348 79.8402
" />
<path d="M39.8348 79.8402
L39.6920 79.8402
" />
<path d="M41.0491 80.4831
L41.1205 80.5545
" />
<path d="M41.1205 80.5545
L41.1920 80.6974
" />
<path d="M41.1920 80.6974
L41.1920 81.0545
" />
<path d="M41.1920 81.0545
L41.1205 81.1974
" />
<path d="M41.1205 81.1974
L41.0491 81.2688
" />
<path d="M41.0491 81.2688
L40.9063 81.3402
" />
<path d="M40.9063 81.3402
L40.7634 81.3402
" />
<path d="M40.7634 81.3402
L40.5491 81.2688
" />
<path d="M40.5491 81.2688
L39.6920 80.4117
" />
<path d="M39.6920 80.4117
L39.6920 81.3402
" />
</g></g>
<g style="fill:#000000; fill-opacity:1.0000; stroke:none;">
<circle cx="24.9928" cy="39.0000" r="1.1000" /> 
<path style="fill:#000000; fill-opacity:1.0000; stroke:none;fill-rule:evenodd;"
d="M 29.3185,45.6500
29.3185,47.8500
31.5185,47.8500
31.5185,45.6500
Z" /> 
<circle cx="30.4185" cy="44.2100" r="1.1000" /> 
<circle cx="30.4185" cy="41.6700" r="1.1000" /> 
<path style="fill:#000000; fill-opacity:1.0000; stroke:none;fill-rule:evenodd;"
d="M 20.1428,31.1500
20.1428,33.3500
22.3428,33.3500
22.3428,31.1500
Z" /> 
<circle cx="21.2428" cy="29.7100" r="1.1000" /> 
<circle cx="21.2428" cy="27.1700" r="1.1000" /> 
<path style="fill:#000000; fill-opacity:1.0000; stroke:none;fill-rule:evenodd;"
d="M 6.4990,35.6000
6.5880,35.5883
6.6962,35.5378
6.7806,35.4534
6.8311,35.3452
6.8428,35.2563
6.8428,33.7437
6.8311,33.6548
6.7806,33.5466
6.6962,33.4622
6.5880,33.4117
6.4990,33.4000
4.9865,33.4000
4.8976,33.4117
4.7894,33.4622
4.7050,33.5466
4.6545,33.6548
4.6428,33.7437
4.6428,35.2563
4.6545,35.3452
4.7050,35.4534
4.7894,35.5378
4.8976,35.5883
4.9865,35.6000
Z" /> 
<circle cx="5.7428" cy="32.0000" r="1.1000" /> 
<path style="fill:#000000; fill-opacity:1.0000; stroke:none;fill-rule:evenodd;"
d="M 29.3185,73.9800
29.3185,76.1800
31.5185,76.1800
31.5185,73.9800
Z" /> 
<circle cx="30.4185" cy="72.5400" r="1.1000" /> 
<circle cx="30.4185" cy="70.0000" r="1.1000" /> 
<path style="fill:#000000; fill-opacity:1.0000; stroke:none;fill-rule:evenodd;"
d="M 33.2443,45.6500
33.2443,47.8500
35.4443,47.8500
35.4443,45.6500
Z" /> 
<circle cx="34.3443" cy="44.2100" r="1.1000" /> 
<circle cx="34.3443" cy="41.6700" r="1.1000" /> 
<path style="fill:#000000; fill-opacity:1.0000; stroke:none;fill-rule:evenodd;"
d="M 33.2443,73.9800
33.2443,76.1800
35.4443,76.1800
35.4443,73.9800
Z" /> 
<circle cx="34.3443" cy="72.5400" r="1.1000" /> 
<circle cx="34.3443" cy="70.0000" r="1.1000" /> 
<circle cx="38.9928" cy="8.0000" r="1.1000" /> 
<circle cx="38.9928" cy="13.0000" r="1.1000" /> 
<circle cx="30.7928" cy="20.8000" r="1.1000" /> 
<path style="fill:#000000; fill-opacity:1.0000; stroke:none;fill-rule:evenodd;"
d="M 16.3990,11.3000
16.4880,11.2883
16.5962,11.2378
16.6806,11.1534
16.7311,11.0452
16.7428,10.9562
16.7428,9.4437
16.7311,9.3548
16.6806,9.2466
16.5962,9.1622
16.4880,9.1117
16.3990,9.1000
14.8865,9.1000
14.7976,9.1117
14.6894,9.1622
14.6050,9.2466
14.5545,9.3548
14.5428,9.4437
14.5428,10.9562
14.5545,11.0452
14.6050,11.1534
14.6894,11.2378
14.7976,11.2883
14.8865,11.3000
Z" /> 
<circle cx="15.6428" cy="7.7000" r="1.1000" /> 
<path style="fill:#000000; fill-opacity:1.0000; stroke:none;fill-rule:evenodd;"
d="M 25.3928,59.9800
25.3928,62.1800
27.5928,62.1800
27.5928,59.9800
Z" /> 
<circle cx="26.4928" cy="58.5400" r="1.1000" /> 
<circle cx="26.4928" cy="56.0000" r="1.1000" /> 
<path style="fill:#000000; fill-opacity:1.0000; stroke:none;fill-rule:evenodd;"
d="M 24.6428,31.1500
24.6428,33.3500
26.8428,33.3500
26.8428,31.1500
Z" /> 
<circle cx="25.7428" cy="29.7100" r="1.1000" /> 
<circle cx="25.7428" cy="27.1700" r="1.1000" /> 
<path style="fill:#000000; fill-opacity:1.0000; stroke:none;fill-rule:evenodd;"
d="M 22.0928,42.9400
22.0928,40.7400
19.8928,40.7400
19.8928,42.9400
Z" /> 
<circle cx="20.9928" cy="44.3800" r="1.1000" /> 
<circle cx="20.9928" cy="46.9200" r="1.1000" /> 
<circle cx="20.9928" cy="49.4600" r="1.1000" /> 
<circle cx="20.9928" cy="52.0000" r="1.1000" /> 
<circle cx="20.9928" cy="54.5400" r="1.1000" /> 
<circle cx="20.9928" cy="57.0800" r="1.1000" /> 
<circle cx="20.9928" cy="59.6200" r="1.1000" /> 
<circle cx="20.9928" cy="62.1600" r="1.1000" /> 
<circle cx="20.9928" cy="64.7000" r="1.1000" /> 
<circle cx="20.9928" cy="67.2400" r="1.1000" /> 
<circle cx="20.9928" cy="69.7800" r="1.1000" /> 
<circle cx="20.9928" cy="72.3200" r="1.1000" /> 
<circle cx="20.9928" cy="74.8600" r="1.1000" /> 
<circle cx="20.9928" cy="77.4000" r="1.1000" /> 
<circle cx="5.7528" cy="77.4000" r="1.1000" /> 
<circle cx="5.7528" cy="74.8600" r="1.1000" /> 
<circle cx="5.7528" cy="72.3200" r="1.1000" /> 
<circle cx="5.7528" cy="69.7800" r="1.1000" /> 
<circle cx="5.7528" cy="67.2400" r="1.1000" /> 
<circle cx="5.7528" cy="64.7000" r="1.1000" /> 
<circle cx="5.7528" cy="62.1600" r="1.1000" /> 
<circle cx="5.7528" cy="59.6200" r="1.1000" /> 
<circle cx="5.7528" cy="57.0800" r="1.1000" /> 
<circle cx="5.7528" cy="54.5400" r="1.1000" /> 
<circle cx="5.7528" cy="52.0000" r="1.1000" /> 
<circle cx="5.7528" cy="49.4600" r="1.1000" /> 
<circle cx="5.7528" cy="46.9200" r="1.1000" /> 
<circle cx="5.7528" cy="44.3800" r="1.1000" /> 
<circle cx="5.7528" cy="41.8400" r="1.1000" /> 
<circle cx="15.4928" cy="19.7500" r="1.1000" /> 
<circle cx="15.4928" cy="17.2100" r="1.1000" /> 
<path style="fill:#000000; fill-opacity:1.0000; stroke:none;fill-rule:evenodd;"
d="M 25.3928,73.9800
25.3928,76.1800
27.5928,76.1800
27.5928,73.9800
Z" /> 
<circle cx="26.4928" cy="72.5400" r="1.1000" /> 
<circle cx="26.4928" cy="70.0000" r="1.1000" /> 
<circle cx="34.9928" cy="20.8000" r="1.1000" /> 
<path style="fill:#000000; fill-opacity:1.0000; stroke:none;fill-rule:evenodd;"
d="M 15.3928,31.1500
15.3928,33.3500
17.5928,33.3500
17.5928,31.1500
Z" /> 
<circle cx="16.4928" cy="29.7100" r="1.1000" /> 
<circle cx="16.4928" cy="27.1700" r="1.1000" /> 
<path style="fill:#000000; fill-opacity:1.0000; stroke:none;fill-rule:evenodd;"
d="M 10.8928,31.1500
10.8928,33.3500
13.0928,33.3500
13.0928,31.1500
Z" /> 
<circle cx="11.9928" cy="29.7100" r="1.1000" /> 
<circle cx="11.9928" cy="27.1700" r="1.1000" /> 
<path style="fill:#000000; fill-opacity:1.0000; stroke:none;fill-rule:evenodd;"
d="M 29.3185,59.9800
29.3185,62.1800
31.5185,62.1800
31.5185,59.9800
Z" /> 
<circle cx="30.4185" cy="58.5400" r="1.1000" /> 
<circle cx="30.4185" cy="56.0000" r="1.1000" /> 
<circle cx="24.9928" cy="45.2000" r="1.1000" /> 
<path style="fill:#000000; fill-opacity:1.0000; stroke:none;fill-rule:evenodd;"
d="M 27.1490,11.3000
27.2380,11.2883
27.3462,11.2378
27.4306,11.1534
27.4811,11.0452
27.4928,10.9562
27.4928,9.4437
27.4811,9.3548
27.4306,9.2466
27.3462,9.1622
27.2380,9.1117
27.1490,9.1000
25.6365,9.1000
25.5476,9.1117
25.4394,9.1622
25.3550,9.2466
25.3045,9.3548
25.2928,9.4437
25.2928,10.9562
25.3045,11.0452
25.3550,11.1534
25.4394,11.2378
25.5476,11.2883
25.6365,11.3000
Z" /> 
<circle cx="26.3928" cy="7.7000" r="1.1000" /> 
<path style="fill:#000000; fill-opacity:1.0000; stroke:none;fill-rule:evenodd;"
d="M 24.1328,19.8500
24.1328,17.6500
21.9328,17.6500
21.9328,19.8500
Z" /> 
<circle cx="20.4928" cy="18.7500" r="1.1000" /> 
<path style="fill:#000000; fill-opacity:1.0000; stroke:none;fill-rule:evenodd;"
d="M 33.2443,59.9800
33.2443,62.1800
35.4443,62.1800
35.4443,59.9800
Z" /> 
<circle cx="34.3443" cy="58.5400" r="1.1000" /> 
<circle cx="34.3443" cy="56.0000" r="1.1000" /> 
</g>
<g style="fill:none; 
stroke:#000000; stroke-width:1.0000; stroke-opacity:1; 
stroke-linecap:round; stroke-linejoin:round;">
<path d="M22.1528 41.8400
L20.9928 41.8400
" />
<path d="M24.9928 39.0000
L22.1528 41.8400
" />
<path d="M21.9928 52.0000
L20.9928 52.0000
" />
<path d="M30.4185 46.7500
L27.2428 46.7500
" />
<path d="M27.2428 46.7500
L21.9928 52.0000
" />
<path d="M5.7428 34.5000
L6.0428 34.5000
" />
<path d="M28.9028 29.7100
L25.7428 29.7100
" />
<path d="M30.7928 13.6000
L30.7928 20.8000
" />
</g>
<g style="fill:none; 
stroke:#000000; stroke-width:0.6000; stroke-opacity:1; 
stroke-linecap:round; stroke-linejoin:round;">
<path d="M11.9928 29.7100
L11.2828 29.7100
" />
</g>
<g style="fill:none; 
stroke:#000000; stroke-width:1.0000; stroke-opacity:1; 
stroke-linecap:round; stroke-linejoin:round;">
<path d="M15.6428 10.2000
L26.3928 10.2000
" />
<path d="M34.3928 44.4000
L34.3443 44.3515
" />
</g>
<g style="fill:none; 
stroke:#000000; stroke-width:0.6000; stroke-opacity:1; 
stroke-linecap:round; stroke-linejoin:round;">
<path d="M25.5328 58.5400
L23.9928 57.0000
" />
</g>
<g style="fill:none; 
stroke:#000000; stroke-width:1.0000; stroke-opacity:1; 
stroke-linecap:round; stroke-linejoin:round;">
<path d="M5.7528 34.5100
L5.7428 34.5000
" />
</g>
<g style="fill:none; 
stroke:#000000; stroke-width:0.6000; stroke-opacity:1; 
stroke-linecap:round; stroke-linejoin:round;">
<path d="M35.1043 58.5400
L34.3443 58.5400
" />
<path d="M33.4928 51.0000
L36.4928 48.0000
" />
</g>
<g style="fill:none; 
stroke:#000000; stroke-width:1.0000; stroke-opacity:1; 
stroke-linecap:round; stroke-linejoin:round;">
<path d="M30.7928 31.6000
L28.9028 29.7100
" />
</g>
<g style="fill:none; 
stroke:#000000; stroke-width:0.6000; stroke-opacity:1; 
stroke-linecap:round; stroke-linejoin:round;">
<path d="M32.4928 66.5000
L36.4928 62.5000
" />
</g>
<g style="fill:none; 
stroke:#000000; stroke-width:1.0000; stroke-opacity:1; 
stroke-linecap:round; stroke-linejoin:round;">
<path d="M30.7928 31.6000
L30.7928 34.6000
" />
</g>
<g style="fill:none; 
stroke:#000000; stroke-width:0.6000; stroke-opacity:1; 
stroke-linecap:round; stroke-linejoin:round;">
<path d="M26.4928 72.5400
L25.0328 72.5400
" />
<path d="M36.4928 59.9285
L35.1043 58.5400
" />
<path d="M6.4928 34.5000
L5.7428 34.5000
" />
<path d="M23.4928 71.0000
L23.4928 68.0000
" />
</g>
<g style="fill:none; 
stroke:#000000; stroke-width:1.0000; stroke-opacity:1; 
stroke-linecap:round; stroke-linejoin:round;">
<path d="M27.3928 38.0000
L27.3928 43.2000
" />
<path d="M30.7928 34.6000
L27.3928 38.0000
" />
</g>
<g style="fill:none; 
stroke:#000000; stroke-width:0.6000; stroke-opacity:1; 
stroke-linecap:round; stroke-linejoin:round;">
<path d="M35.5463 44.2100
L34.3443 44.2100
" />
</g>
<g style="fill:none; 
stroke:#000000; stroke-width:1.0000; stroke-opacity:1; 
stroke-linecap:round; stroke-linejoin:round;">
<path d="M5.7528 41.8400
L5.7528 34.5100
" />
</g>
<g style="fill:none; 
stroke:#000000; stroke-width:0.6000; stroke-opacity:1; 
stroke-linecap:round; stroke-linejoin:round;">
<path d="M30.4185 58.5400
L26.4928 58.5400
" />
<path d="M34.3443 72.5400
L30.4185 72.5400
" />
<path d="M11.2828 29.7100
L6.4928 34.5000
" />
<path d="M23.4928 68.0000
L24.9928 66.5000
" />
</g>
<g style="fill:none; 
stroke:#000000; stroke-width:1.0000; stroke-opacity:1; 
stroke-linecap:round; stroke-linejoin:round;">
<path d="M28.4028 44.2100
L30.4185 44.2100
" />
<path d="M26.3928 10.2000
L27.3928 10.2000
" />
</g>
<g style="fill:none; 
stroke:#000000; stroke-width:0.6000; stroke-opacity:1; 
stroke-linecap:round; stroke-linejoin:round;">
<path d="M36.4928 62.5000
L36.4928 59.9285
" />
<path d="M16.4928 29.7100
L21.2428 29.7100
" />
</g>
<g style="fill:none; 
stroke:#000000; stroke-width:1.0000; stroke-opacity:1; 
stroke-linecap:round; stroke-linejoin:round;">
<path d="M26.5728 72.5400
L26.4928 72.4600
" />
</g>
<g style="fill:none; 
stroke:#000000; stroke-width:0.6000; stroke-opacity:1; 
stroke-linecap:round; stroke-linejoin:round;">
<path d="M36.4928 48.0000
L36.4928 45.1565
" />
<path d="M26.4928 58.5400
L25.5328 58.5400
" />
<path d="M27.9928 51.0000
L33.4928 51.0000
" />
<path d="M23.9928 55.0000
L27.9928 51.0000
" />
<path d="M30.4185 72.5400
L26.4928 72.5400
" />
<path d="M23.9928 57.0000
L23.9928 55.0000
" />
<path d="M24.9928 66.5000
L32.4928 66.5000
" />
<path d="M34.3443 58.5400
L30.4185 58.5400
" />
<path d="M36.4928 45.1565
L35.5463 44.2100
" />
</g>
<g style="fill:none; 
stroke:#000000; stroke-width:1.0000; stroke-opacity:1; 
stroke-linecap:round; stroke-linejoin:round;">
<path d="M27.3928 43.2000
L28.4028 44.2100
" />
</g>
<g style="fill:none; 
stroke:#000000; stroke-width:0.6000; stroke-opacity:1; 
stroke-linecap:round; stroke-linejoin:round;">
<path d="M25.0328 72.5400
L23.4928 71.0000
" />
<path d="M11.9928 29.7100
L16.4928 29.7100
" />
<path d="M34.3443 44.2100
L30.4185 44.2100
" />
<path d="M21.2428 29.7100
L25.7428 29.7100
" />
</g>
<g style="fill:none; 
stroke:#000000; stroke-width:1.0000; stroke-opacity:1; 
stroke-linecap:round; stroke-linejoin:round;">
<path d="M27.3928 10.2000
L30.7928 13.6000
" />
<path d="M30.7928 20.8000
L30.7928 31.6000
" />
<path d="M21.2428 32.2500
L12.7928 40.7000
" />
<path d="M17.2328 67.2400
L20.9928 67.2400
" />
<path d="M12.7928 62.8000
L17.2328 67.2400
" />
<path d="M12.7928 40.7000
L12.7928 62.8000
" />
<path d="M30.4185 75.0800
L30.4185 76.5743
" />
<path d="M21.0928 77.5000
L20.9928 77.4000
" />
<path d="M29.4928 77.5000
L21.0928 77.5000
" />
<path d="M30.4185 76.5743
L29.4928 77.5000
" />
<path d="M22.0528 54.5400
L27.5928 49.0000
" />
<path d="M20.9928 54.5400
L22.0528 54.5400
" />
<path d="M32.0943 49.0000
L34.3443 46.7500
" />
<path d="M27.5928 49.0000
L32.0943 49.0000
" />
<path d="M30.9928 80.0000
L34.3443 76.6485
" />
<path d="M8.3528 80.0000
L30.9928 80.0000
" />
<path d="M34.3443 76.6485
L34.3443 75.0800
" />
<path d="M5.7528 77.4000
L8.3528 80.0000
" />
<path d="M34.9928 20.8000
L34.9928 14.5000
" />
<path d="M36.4928 13.0000
L38.9928 13.0000
" />
<path d="M34.9928 14.5000
L36.4928 13.0000
" />
<path d="M21.6728 57.0800
L20.9928 57.0800
" />
<path d="M26.4928 61.0800
L25.6728 61.0800
" />
<path d="M25.6728 61.0800
L21.6728 57.0800
" />
<path d="M25.7428 32.2500
L14.7928 43.2000
" />
<path d="M14.7928 62.0000
L17.4928 64.7000
" />
<path d="M17.4928 64.7000
L20.9928 64.7000
" />
<path d="M14.7928 43.2000
L14.7928 62.0000
" />
<path d="M20.9928 44.3800
L24.1728 44.3800
" />
<path d="M24.1728 44.3800
L24.9928 45.2000
" />
<path d="M25.2428 63.2500
L21.6128 59.6200
" />
<path d="M30.4185 61.0800
L28.2485 63.2500
" />
<path d="M28.2485 63.2500
L25.2428 63.2500
" />
<path d="M21.6128 59.6200
L20.9928 59.6200
" />
<path d="M20.9928 62.1600
L21.6528 62.1600
" />
<path d="M21.6528 62.1600
L24.4928 65.0000
" />
<path d="M30.4243 65.0000
L34.3443 61.0800
" />
<path d="M24.4928 65.0000
L30.4243 65.0000
" />
<path d="M10.7928 38.6000
L10.7928 63.6000
" />
<path d="M16.4928 32.2500
L16.4928 32.9000
" />
<path d="M10.7928 63.6000
L16.9728 69.7800
" />
<path d="M16.9728 69.7800
L20.9928 69.7800
" />
<path d="M16.4928 32.9000
L10.7928 38.6000
" />
<path d="M8.7928 36.8000
L11.9928 33.6000
" />
<path d="M11.9928 33.6000
L11.9928 32.2500
" />
<path d="M20.9928 72.3200
L16.7128 72.3200
" />
<path d="M16.7128 72.3200
L8.7928 64.4000
" />
<path d="M8.7928 64.4000
L8.7928 36.8000
" />
<path d="M26.4928 75.0800
L21.2128 75.0800
" />
<path d="M21.2128 75.0800
L20.9928 74.8600
" />
<path d="M8.2386 24.2542
L10.9886 24.2542
" />
<path d="M5.7528 74.8600
L3.8528 74.8600
" />
<path d="M2.4928 30.0000
L8.2386 24.2542
" />
<path d="M10.9886 24.2542
L15.4928 19.7500
" />
<path d="M2.4928 73.5000
L2.4928 30.0000
" />
<path d="M3.8528 74.8600
L2.4928 73.5000
" />
<path d="M18.9528 17.2100
L20.4928 18.7500
" />
<path d="M15.4928 17.2100
L18.9528 17.2100
" />
<path style="fill:#000000; fill-opacity:1.0000; stroke:none;fill-rule:evenodd;"
d="M 0.4291,0.4363
0.3928,0.5240
0.3928,84.4760
0.4291,84.5637
0.5168,84.6000
43.4688,84.6000
43.5565,84.5637
43.5928,84.4760
43.5928,82.1055
41.9573,82.1055
38.4267,82.1055
38.4267,69.6817
35.9443,69.6817
35.9443,70.3183
35.7007,70.9063
35.6524,70.9546
34.6978,70.0000
34.7807,69.9172
34.5443,69.9172
34.5443,70.0828
34.4271,70.2000
34.2614,70.2000
34.1443,70.0828
34.1443,70.0000
33.9907,70.0000
33.0361,70.9546
32.9879,70.9063
32.9879,70.9063
32.7443,70.3183
32.7443,70.3183
32.7443,69.6817
32.7443,69.6817
32.0185,69.6817
32.0185,70.3183
31.7749,70.9063
31.7267,70.9546
30.7721,70.0000
30.8549,69.9172
30.6185,69.9172
30.6185,70.0828
30.5014,70.2000
30.3357,70.2000
30.2185,70.0828
30.2185,70.0000
30.0650,70.0000
29.1104,70.9546
29.0621,70.9063
29.0621,70.9063
28.8185,70.3183
28.8185,70.3183
28.8185,69.6817
28.8185,69.6817
28.0928,69.6817
28.0928,70.3183
27.8492,70.9063
27.8009,70.9546
26.8464,70.0000
26.9292,69.9172
26.6928,69.9172
26.6928,70.0828
26.5756,70.2000
26.4100,70.2000
26.2928,70.0828
26.2928,70.0000
26.1392,70.0000
25.1847,70.9546
25.1364,70.9063
25.1364,70.9063
24.8928,70.3183
24.8928,70.3183
24.8928,69.6817
24.8928,69.6817
25.1364,69.0937
25.1847,69.0454
26.1392,70.0000
26.2928,70.0000
26.2928,69.9172
26.4100,69.8000
26.5756,69.8000
26.6928,69.9172
26.9292,69.9172
27.8009,69.0454
27.8492,69.0937
27.8492,69.0937
28.0928,69.6817
28.8185,69.6817
29.0621,69.0937
29.1104,69.0454
30.0650,70.0000
30.2185,70.0000
30.2185,69.9172
30.3357,69.8000
30.5014,69.8000
30.6185,69.9172
30.8549,69.9172
31.7267,69.0454
31.7749,69.0937
31.7749,69.0937
32.0185,69.6817
32.7443,69.6817
32.9879,69.0937
33.0361,69.0454
33.9907,70.0000
34.1443,70.0000
34.1443,69.9172
34.2614,69.8000
34.4271,69.8000
34.5443,69.9172
34.7807,69.9172
35.6524,69.0454
35.7007,69.0937
35.7007,69.0937
35.9443,69.6817
38.4267,69.6817
38.4267,68.6919
35.2989,68.6919
34.3443,69.6464
33.3897,68.6919
31.3731,68.6919
30.4185,69.6464
29.4639,68.6919
27.4474,68.6919
26.4928,69.6464
25.5382,68.6919
25.5865,68.6436
26.1745,68.4000
26.8111,68.4000
27.3991,68.6436
27.3991,68.6436
27.4474,68.6919
29.4639,68.6919
29.5122,68.6436
30.1003,68.4000
30.7368,68.4000
31.3249,68.6436
31.3249,68.6436
31.3731,68.6919
33.3897,68.6919
33.4379,68.6436
34.0260,68.4000
34.6625,68.4000
35.2506,68.6436
35.2506,68.6436
35.2989,68.6919
38.4267,68.6919
38.4267,62.2960
41.9573,62.2960
41.9573,82.1055
43.5928,82.1055
43.5928,55.6817
35.9443,55.6817
35.9443,56.3183
35.7007,56.9063
35.6524,56.9546
34.6978,56.0000
34.7807,55.9172
34.5443,55.9172
34.5443,56.0828
34.4271,56.2000
34.2614,56.2000
34.1443,56.0828
34.1443,56.0000
33.9907,56.0000
33.0361,56.9546
32.9879,56.9063
32.9879,56.9063
32.7443,56.3183
32.7443,56.3183
32.7443,55.6817
32.7443,55.6817
32.0185,55.6817
32.0185,56.3183
31.7749,56.9063
31.7267,56.9546
30.7721,56.0000
30.8549,55.9172
30.6185,55.9172
30.6185,56.0828
30.5014,56.2000
30.3357,56.2000
30.2185,56.0828
30.2185,56.0000
30.0650,56.0000
29.1104,56.9546
29.0621,56.9063
29.0621,56.9063
28.8185,56.3183
28.8185,56.3183
28.8185,55.6817
28.8185,55.6817
28.0928,55.6817
28.0928,56.3183
27.8492,56.9063
27.8009,56.9546
26.8464,56.0000
27.8009,55.0454
27.8492,55.0937
27.8492,55.0937
28.0928,55.6817
28.8185,55.6817
29.0621,55.0937
29.1104,55.0454
30.0650,56.0000
30.2185,56.0000
30.2185,55.9172
30.3357,55.8000
30.5014,55.8000
30.6185,55.9172
30.8549,55.9172
31.7267,55.0454
31.7749,55.0937
31.7749,55.0937
32.0185,55.6817
32.7443,55.6817
32.9879,55.0937
33.0361,55.0454
33.9907,56.0000
34.1443,56.0000
34.1443,55.9172
34.2614,55.8000
34.4271,55.8000
34.5443,55.9172
34.7807,55.9172
35.6524,55.0454
35.7007,55.0937
35.7007,55.0937
35.9443,55.6817
43.5928,55.6817
43.5928,54.6919
35.2989,54.6919
34.3443,55.6464
33.3897,54.6919
31.3731,54.6919
30.4185,55.6464
29.4639,54.6919
29.5122,54.6436
30.1003,54.4000
30.7368,54.4000
31.3249,54.6436
31.3249,54.6436
31.3731,54.6919
33.3897,54.6919
33.4379,54.6436
34.0260,54.4000
34.6625,54.4000
35.2506,54.6436
35.2506,54.6436
35.2989,54.6919
43.5928,54.6919
43.5928,53.7484
41.9573,53.7484
38.4335,53.7484
38.4335,44.8216
37.3013,44.8216
37.3013,48.3349
36.8103,48.8259
36.8102,48.8259
34.3187,51.3174
34.3187,51.3175
34.3013,51.3349
33.8277,51.8085
33.8277,51.8085
33.1579,51.8085
28.3791,51.8085
28.2914,51.8448
25.8670,54.2692
25.8307,54.3568
25.8670,54.4445
25.9547,54.4808
26.0022,54.4714
26.1745,54.4000
26.8111,54.4000
27.3991,54.6436
27.3991,54.6436
27.4474,54.6919
26.4037,55.7355
26.3674,55.8232
26.3731,55.8369
26.4100,55.8000
26.5756,55.8000
26.6928,55.9172
26.6928,56.0828
26.5756,56.2000
26.4100,56.2000
26.3731,56.1631
26.3674,56.1768
26.4037,56.2645
27.2357,57.0965
27.2760,57.1234
27.4039,57.1764
27.8564,57.6289
27.8564,57.6289
27.8672,57.6550
27.9343,57.7221
27.9818,57.7315
28.9295,57.7315
29.0172,57.6952
29.0441,57.6550
29.0549,57.6289
29.0549,57.6289
29.0549,57.6289
29.5074,57.1764
29.6354,57.1234
29.6756,57.0965
30.4185,56.3536
31.1615,57.0965
31.2017,57.1234
31.3297,57.1764
31.7822,57.6289
31.7822,57.6289
31.7930,57.6550
31.8601,57.7221
31.9075,57.7315
32.8553,57.7315
32.9430,57.6952
32.9698,57.6550
32.9806,57.6289
32.9806,57.6289
32.9806,57.6289
33.4331,57.1764
33.5611,57.1234
33.6013,57.0965
34.3443,56.3536
35.0872,57.0965
35.1274,57.1234
35.2554,57.1764
35.7079,57.6289
35.9574,58.2313
35.9601,58.2302
35.9856,58.2779
36.8102,59.1026
37.3013,59.5936
37.3013,62.8349
36.8103,63.3259
36.8102,63.3259
33.3187,66.8174
33.3187,66.8175
33.3013,66.8349
32.8277,67.3085
25.3791,67.3085
25.2914,67.3448
24.3376,68.2986
24.3013,68.3863
24.3013,70.6137
24.3376,70.7014
25.1094,71.4732
25.1971,71.5096
25.2848,71.4732
25.5817,71.1764
25.7096,71.1234
25.7499,71.0965
26.4928,70.3536
27.2357,71.0965
27.2760,71.1234
27.4039,71.1764
27.8564,71.6289
27.8564,71.6289
27.8672,71.6550
27.9343,71.7221
27.9818,71.7315
28.9295,71.7315
29.0172,71.6952
29.0441,71.6550
29.0549,71.6289
29.0549,71.6289
29.0549,71.6289
29.5074,71.1764
29.6354,71.1234
29.6756,71.0965
30.4185,70.3536
31.1615,71.0965
31.2017,71.1234
31.3297,71.1764
31.7822,71.6289
31.7822,71.6289
31.7930,71.6550
31.8601,71.7221
31.9075,71.7315
32.8553,71.7315
32.9430,71.6952
32.9698,71.6550
32.9806,71.6289
32.9806,71.6289
32.9806,71.6289
33.4331,71.1764
33.5611,71.1234
33.6013,71.0965
34.3443,70.3536
35.0872,71.0965
35.1274,71.1234
35.2554,71.1764
35.7079,71.6289
35.9528,72.2200
35.9528,72.8600
35.8607,73.0823
35.7165,73.4303
35.7165,73.4303
35.7165,73.5252
35.7622,73.5809
35.8109,73.6134
35.8109,73.6134
35.9233,73.7816
35.9233,73.7816
35.9528,73.9299
35.9528,76.2301
35.9233,76.3784
35.9233,76.3784
35.9233,76.3784
35.8109,76.5466
35.6427,76.6590
35.6427,76.6590
35.6427,76.6590
35.4944,76.6885
35.4944,76.6885
35.4943,76.6885
35.4768,76.6885
35.3891,76.7248
35.3528,76.8125
35.3528,77.0663
34.7446,77.6745
34.7446,77.6745
32.0187,80.4003
32.0187,80.4003
32.0013,80.4177
31.4105,81.0085
7.9351,81.0085
7.3443,80.4177
7.3443,80.4177
5.9714,79.0448
5.8837,79.0085
5.4329,79.0085
5.4329,79.0085
4.8417,78.7636
4.3892,78.3111
4.1443,77.7199
4.1443,77.0800
4.3892,76.4889
4.6604,76.2177
4.6967,76.1300
4.6604,76.0423
4.5229,75.9048
4.4352,75.8685
3.4351,75.8685
2.8443,75.2777
2.8443,75.2777
2.0751,74.5085
2.0751,74.5085
1.4843,73.9177
1.4843,30.4424
1.4843,30.4424
1.4843,29.5823
7.8209,23.2457
10.5195,23.2457
10.6072,23.2094
12.2532,21.5634
8.0525,21.5634
3.3892,21.5634
3.3892,2.6606
8.0525,2.6606
8.0525,21.5634
12.2532,21.5634
13.8480,19.9686
13.8843,19.8809
13.8843,19.4301
13.8843,19.4300
14.0335,19.0700
14.1292,18.8389
14.4004,18.5677
14.4367,18.4800
14.4004,18.3923
14.1292,18.1211
13.8843,17.5299
13.8843,16.8900
14.1292,16.2989
14.5817,15.8464
15.1728,15.6015
15.1728,15.6015
15.8127,15.6015
15.8128,15.6015
16.4039,15.8464
16.4039,15.8464
16.7227,16.1652
16.8104,16.2015
18.5104,16.2015
18.5104,16.2015
18.5351,16.2015
19.3705,16.2015
19.3705,16.2015
20.2742,17.1052
20.3619,17.1415
20.8128,17.1415
21.3911,17.3811
21.4860,17.3811
21.5417,17.3354
21.5723,17.2895
21.7377,17.1790
21.7377,17.1790
21.8835,17.1500
22.7828,17.1500
22.7828,20.3500
21.8835,20.3500
21.8835,20.3500
21.7377,20.3210
21.7377,20.3210
21.5723,20.2105
21.5417,20.1646
21.4628,20.1119
21.3911,20.1189
20.8127,20.3585
20.8127,20.3585
20.1729,20.3585
20.1729,20.3585
19.5817,20.1136
19.1292,19.6611
18.8843,19.0699
18.8843,18.6191
18.8480,18.5314
18.5714,18.2548
18.4837,18.2185
16.8104,18.2185
16.7227,18.2548
16.5852,18.3923
16.5489,18.4800
16.5852,18.5677
16.8564,18.8389
16.8564,18.8389
17.1013,19.4300
17.1013,20.0700
16.8564,20.6611
16.4039,21.1136
15.8127,21.3585
15.3619,21.3585
15.2742,21.3948
12.0146,24.6545
12.0146,24.6545
11.9971,24.6719
11.4063,25.2627
11.4063,25.2627
10.5709,25.2627
8.7077,25.2627
8.6200,25.2990
3.5376,30.3814
3.5013,30.4691
3.5013,73.0309
3.5376,73.1186
4.2342,73.8152
4.3219,73.8515
4.4352,73.8515
4.5229,73.8152
4.6604,73.6777
4.6967,73.5900
4.6604,73.5023
4.5429,73.3848
4.3892,73.2311
4.1443,72.6399
4.1443,72.0001
4.3892,71.4089
4.6604,71.1377
4.6967,71.0500
4.6604,70.9623
4.6044,70.9063
4.3892,70.6911
4.1443,70.0999
4.1443,69.4600
4.3892,68.8689
4.6604,68.5977
4.6967,68.5100
4.6604,68.4223
4.5366,68.2986
4.3892,68.1511
4.1443,67.5600
4.1443,66.9201
4.3892,66.3289
4.6604,66.0577
4.6967,65.9700
4.6604,65.8823
4.6105,65.8325
4.3892,65.6111
4.1443,65.0199
4.1443,64.3800
4.3892,63.7889
4.6604,63.5177
4.6967,63.4300
4.6604,63.3423
4.6265,63.3085
4.3892,63.0711
4.1443,62.4799
4.1443,61.8400
4.3892,61.2489
4.6604,60.9777
4.6967,60.8900
4.6604,60.8023
4.3892,60.5311
4.1443,59.9399
4.1443,59.3000
4.3892,58.7089
4.6604,58.4377
4.6967,58.3500
4.6604,58.2623
4.6181,58.2201
4.3892,57.9911
4.1443,57.3999
4.1443,56.7600
4.3892,56.1689
4.6604,55.8977
4.6967,55.8100
4.6604,55.7223
4.5845,55.6464
4.3892,55.4511
4.1443,54.8599
4.1443,54.2201
4.3892,53.6289
4.6604,53.3577
4.6967,53.2700
4.6604,53.1823
4.3892,52.9111
4.1443,52.3199
4.1443,51.6800
4.3892,51.0889
4.6604,50.8177
4.6967,50.7300
4.6604,50.6423
4.3892,50.3711
4.1443,49.7799
4.1443,49.1400
4.3892,48.5489
4.6604,48.2777
4.6967,48.1900
4.6604,48.1023
4.5495,47.9915
4.3892,47.8311
4.1443,47.2400
4.1443,46.6000
4.3892,46.0089
4.6664,45.7317
4.7027,45.6440
4.6664,45.5563
4.3964,45.2863
4.3964,45.2863
4.1528,44.6983
4.1528,44.6983
4.1528,44.6300
7.3528,44.6300
7.3528,44.6983
7.1092,45.2863
6.8392,45.5563
6.8029,45.6440
6.8392,45.7317
7.1164,46.0089
7.1164,46.0089
7.3613,46.6000
7.3613,47.2400
7.1164,47.8311
6.8452,48.1023
6.8089,48.1900
6.8452,48.2777
7.1164,48.5489
7.1164,48.5489
7.3613,49.1400
7.3613,49.7800
7.1164,50.3711
6.8452,50.6423
6.8089,50.7300
6.8452,50.8177
7.1164,51.0889
7.1164,51.0889
7.3613,51.6800
7.3613,52.3200
7.1164,52.9111
6.8452,53.1823
6.8089,53.2700
6.8452,53.3577
7.1164,53.6289
7.1164,53.6289
7.3613,54.2200
7.3613,54.8600
7.1164,55.4511
6.8452,55.7223
6.8089,55.8100
6.8452,55.8977
7.1164,56.1689
7.1164,56.1689
7.3613,56.7600
7.3613,57.4000
7.1164,57.9911
6.8452,58.2623
6.8089,58.3500
6.8452,58.4377
7.1164,58.7089
7.1164,58.7089
7.3613,59.3000
7.3613,59.9400
7.1164,60.5311
6.8452,60.8023
6.8089,60.8900
6.8452,60.9777
7.1164,61.2489
7.1164,61.2489
7.3613,61.8400
7.3613,62.4800
7.1164,63.0711
6.8452,63.3423
6.8089,63.4300
6.8452,63.5177
7.1164,63.7889
7.1164,63.7889
7.3613,64.3800
7.3613,65.0200
7.1164,65.6111
6.8452,65.8823
6.8089,65.9700
6.8452,66.0577
7.1164,66.3289
7.1164,66.3289
7.3613,66.9200
7.3613,67.5600
7.1164,68.1511
6.8452,68.4223
6.8089,68.5100
6.8452,68.5977
7.1164,68.8689
7.1164,68.8689
7.3613,69.4600
7.3613,70.1000
7.1164,70.6911
6.8452,70.9623
6.8089,71.0500
6.8452,71.1377
7.1164,71.4089
7.1164,71.4089
7.3613,72.0000
7.3613,72.6400
7.1164,73.2311
6.8452,73.5023
6.8089,73.5900
6.8452,73.6777
7.1164,73.9489
7.1164,73.9489
7.3613,74.5400
7.3613,75.1800
7.1164,75.7711
6.8452,76.0423
6.8089,76.1300
6.8452,76.2177
7.1164,76.4889
7.1164,76.4889
7.3613,77.0800
7.3613,77.5309
7.3976,77.6186
8.7342,78.9552
8.8219,78.9915
20.0139,78.9915
20.1016,78.9552
20.1379,78.8675
20.1016,78.7798
20.0828,78.7644
20.0817,78.7636
20.0817,78.7636
19.6292,78.3111
19.3843,77.7199
19.3843,77.0800
19.6292,76.4889
19.9004,76.2177
19.9367,76.1300
19.9004,76.0423
19.6292,75.7711
19.3843,75.1799
19.3843,74.5400
19.6292,73.9489
19.9004,73.6777
19.9367,73.5900
19.9004,73.5023
19.7629,73.3648
19.6752,73.3285
16.2951,73.3285
15.7043,72.7377
15.7043,72.7377
8.3751,65.4085
8.3751,65.4085
7.7843,64.8177
7.7843,44.2972
5.9528,44.2972
5.9528,44.4628
5.8356,44.5800
5.6700,44.5800
5.5528,44.4628
5.5528,44.2972
5.6700,44.1800
5.8356,44.1800
5.9528,44.2972
7.7843,44.2972
7.7843,36.3823
8.3751,35.7915
8.3925,35.7741
8.3925,35.7741
10.4237,33.7429
10.4600,33.6552
10.4391,33.5863
10.4138,33.5484
10.3843,33.4001
10.3843,32.0513
10.3480,31.9636
10.2603,31.9273
10.1726,31.9636
7.3876,34.7486
7.3513,34.8363
7.3513,35.3402
7.3513,35.3402
7.3019,35.5888
7.3019,35.5888
7.3019,35.5888
7.3019,35.5888
7.1135,35.8707
6.8316,36.0591
6.8214,36.0658
6.8242,36.0701
6.7707,36.1236
6.7613,36.1710
6.7613,40.5224
6.7976,40.6101
7.1164,40.9289
7.1164,40.9289
7.3613,41.5200
7.3613,42.1600
7.1164,42.7511
6.8392,43.0283
6.8029,43.1160
6.8392,43.2037
7.1092,43.4737
7.1092,43.4737
7.3528,44.0617
7.3528,44.1300
4.1528,44.1300
4.1528,44.0617
4.1528,44.0617
4.3964,43.4737
4.6664,43.2037
4.7027,43.1160
4.6664,43.0283
4.6281,42.9901
4.3892,42.7511
4.1443,42.1599
4.1443,41.5200
4.3892,40.9289
4.7080,40.6101
4.7443,40.5224
4.7443,36.1788
4.7080,36.0911
4.6638,36.0675
4.6653,36.0637
4.6540,36.0591
4.6540,36.0591
4.3721,35.8707
4.1837,35.5888
4.1343,35.3402
4.1343,33.6598
4.1565,33.5484
4.1837,33.4112
4.1837,33.4112
4.1837,33.4112
4.3721,33.1293
4.3887,33.1182
4.4414,33.0393
4.4229,32.9462
4.4075,32.9274
4.3864,32.9063
4.1428,32.3183
4.1428,32.3183
4.1428,31.6817
4.1428,31.6817
4.3864,31.0937
4.4347,31.0454
5.4783,32.0891
5.5660,32.1254
5.5797,32.1197
5.5428,32.0828
5.5428,31.9172
5.6600,31.8000
5.8256,31.8000
5.9428,31.9172
5.9428,32.0828
5.9059,32.1197
5.9196,32.1254
6.0073,32.0891
7.0509,31.0454
7.0992,31.0937
7.0992,31.0937
7.3428,31.6817
7.3428,32.2072
7.3791,32.2949
7.4668,32.3312
7.5545,32.2949
9.1576,30.6919
6.6974,30.6919
5.7428,31.6464
4.7882,30.6919
4.8365,30.6436
5.4245,30.4000
6.0611,30.4000
6.6491,30.6436
6.6491,30.6436
6.6974,30.6919
9.1576,30.6919
10.3480,29.5014
10.3843,29.4137
10.3843,29.3901
10.3843,29.3900
10.4774,29.1653
10.6292,28.7989
11.0817,28.3464
11.2096,28.2934
11.2499,28.2665
11.9928,27.5236
12.7357,28.2665
12.7760,28.2934
12.9039,28.3464
13.3564,28.7989
13.3564,28.7989
13.3672,28.8250
13.4343,28.8921
13.4818,28.9015
15.0038,28.9015
15.0915,28.8652
15.1184,28.8250
15.1292,28.7989
15.1292,28.7989
15.1292,28.7989
15.5817,28.3464
15.7096,28.2934
15.7499,28.2665
16.4928,27.5236
17.2357,28.2665
17.2760,28.2934
17.4039,28.3464
17.8564,28.7989
17.8564,28.7989
17.8672,28.8250
17.9343,28.8921
17.9818,28.9015
19.7538,28.9015
19.8415,28.8652
19.8684,28.8250
19.8792,28.7989
19.8792,28.7989
19.8792,28.7989
20.3317,28.3464
20.4596,28.2934
20.4999,28.2665
21.2428,27.5236
21.9857,28.2665
22.0260,28.2934
22.1539,28.3464
22.6064,28.7989
22.6064,28.7989
22.6172,28.8250
22.6843,28.8921
22.7318,28.9015
24.2538,28.9015
24.3415,28.8652
24.3684,28.8250
24.3792,28.7989
24.3792,28.7989
24.3792,28.7989
24.8317,28.3464
24.9596,28.2934
24.9999,28.2665
25.7428,27.5236
26.4857,28.2665
26.5260,28.2934
26.6539,28.3464
26.9727,28.6652
27.0604,28.7015
28.4604,28.7015
28.4604,28.7015
28.4851,28.7015
29.3205,28.7015
29.3205,28.7015
29.5726,28.9536
29.6603,28.9899
29.7480,28.9536
29.7843,28.8659
29.7843,26.8517
27.3428,26.8517
27.3428,27.4883
27.0992,28.0763
27.0509,28.1246
26.0964,27.1700
26.1792,27.0872
25.9428,27.0872
25.9428,27.2528
25.8256,27.3700
25.6600,27.3700
25.5428,27.2528
25.5428,27.1700
25.3892,27.1700
24.4347,28.1246
24.3864,28.0763
24.3864,28.0763
24.1428,27.4883
24.1428,27.4883
24.1428,26.8517
24.1428,26.8517
22.8428,26.8517
22.8428,27.4883
22.5992,28.0763
22.5509,28.1246
21.5964,27.1700
21.6792,27.0872
21.4428,27.0872
21.4428,27.2528
21.3256,27.3700
21.1600,27.3700
21.0428,27.2528
21.0428,27.1700
20.8892,27.1700
19.9347,28.1246
19.8864,28.0763
19.8864,28.0763
19.6428,27.4883
19.6428,27.4883
19.6428,26.8517
19.6428,26.8517
18.0928,26.8517
18.0928,27.4883
17.8492,28.0763
17.8009,28.1246
16.8464,27.1700
16.9292,27.0872
16.6928,27.0872
16.6928,27.2528
16.5756,27.3700
16.4100,27.3700
16.2928,27.2528
16.2928,27.1700
16.1392,27.1700
15.1847,28.1246
15.1364,28.0763
15.1364,28.0763
14.8928,27.4883
14.8928,27.4883
14.8928,26.8517
14.8928,26.8517
13.5928,26.8517
13.5928,27.4883
13.3492,28.0763
13.3009,28.1246
12.3464,27.1700
12.4292,27.0872
12.1928,27.0872
12.1928,27.2528
12.0756,27.3700
11.9100,27.3700
11.7928,27.2528
11.7928,27.1700
11.6392,27.1700
10.6847,28.1246
10.6364,28.0763
10.6364,28.0763
10.3928,27.4883
10.3928,27.4883
10.3928,26.8517
10.3928,26.8517
10.6364,26.2637
10.6847,26.2154
11.6392,27.1700
11.7928,27.1700
11.7928,27.0872
11.9100,26.9700
12.0756,26.9700
12.1928,27.0872
12.4292,27.0872
13.3009,26.2154
13.3492,26.2637
13.3492,26.2637
13.5928,26.8517
14.8928,26.8517
15.1364,26.2637
15.1847,26.2154
16.1392,27.1700
16.2928,27.1700
16.2928,27.0872
16.4100,26.9700
16.5756,26.9700
16.6928,27.0872
16.9292,27.0872
17.8009,26.2154
17.8492,26.2637
17.8492,26.2637
18.0928,26.8517
19.6428,26.8517
19.8864,26.2637
19.9347,26.2154
20.8892,27.1700
21.0428,27.1700
21.0428,27.0872
21.1600,26.9700
21.3256,26.9700
21.4428,27.0872
21.6792,27.0872
22.5509,26.2154
22.5992,26.2637
22.5992,26.2637
22.8428,26.8517
24.1428,26.8517
24.3864,26.2637
24.4347,26.2154
25.3892,27.1700
25.5428,27.1700
25.5428,27.0872
25.6600,26.9700
25.8256,26.9700
25.9428,27.0872
26.1792,27.0872
27.0509,26.2154
27.0992,26.2637
27.0992,26.2637
27.3428,26.8517
29.7843,26.8517
29.7843,25.8619
26.6974,25.8619
25.7428,26.8164
24.7882,25.8619
22.1974,25.8619
21.2428,26.8164
20.2882,25.8619
17.4474,25.8619
16.4928,26.8164
15.5382,25.8619
12.9474,25.8619
11.9928,26.8164
11.0382,25.8619
11.0865,25.8136
11.6745,25.5700
12.3111,25.5700
12.8991,25.8136
12.8991,25.8136
12.9474,25.8619
15.5382,25.8619
15.5865,25.8136
16.1745,25.5700
16.8111,25.5700
17.3991,25.8136
17.3991,25.8136
17.4474,25.8619
20.2882,25.8619
20.3365,25.8136
20.9245,25.5700
21.5611,25.5700
22.1491,25.8136
22.1491,25.8136
22.1974,25.8619
24.7882,25.8619
24.8365,25.8136
25.4245,25.5700
26.0611,25.5700
26.6491,25.8136
26.6491,25.8136
26.6974,25.8619
29.7843,25.8619
29.7843,22.1176
29.7480,22.0299
29.4292,21.7111
29.1843,21.1199
29.1843,20.4800
29.4249,19.8993
24.6328,19.8993
24.6038,20.0451
24.6038,20.0451
24.4933,20.2105
24.3279,20.3210
24.3279,20.3210
24.1821,20.3500
24.1821,20.3500
23.2828,20.3500
23.2828,19.0000
24.6328,19.0000
24.6328,19.8993
29.4249,19.8993
29.4292,19.8889
29.7480,19.5701
29.7843,19.4824
29.7843,18.6672
23.2328,18.6672
23.2328,18.8328
23.1156,18.9500
22.9500,18.9500
22.8328,18.8328
22.8328,18.6672
22.9500,18.5500
23.1156,18.5500
23.2328,18.6672
29.7843,18.6672
29.7843,17.6007
24.6328,17.6007
24.6328,18.5000
23.2828,18.5000
23.2828,17.1500
24.1821,17.1500
24.3279,17.1790
24.3279,17.1790
24.4933,17.2895
24.6038,17.4549
24.6038,17.4549
24.6328,17.6007
29.7843,17.6007
29.7843,14.0691
29.7480,13.9814
27.5652,11.7986
27.4775,11.7623
27.4533,11.7647
27.2330,11.8085
25.5526,11.8085
25.4690,11.7919
25.3040,11.7591
25.3040,11.7591
25.3040,11.7591
25.0221,11.5707
24.8337,11.2888
24.8337,11.2888
24.8322,11.2850
24.8293,11.2822
24.8270,11.2786
24.8263,11.2791
24.7651,11.2179
24.7176,11.2085
17.3180,11.2085
17.2303,11.2448
17.2034,11.2850
17.2019,11.2888
17.2019,11.2888
17.2019,11.2888
17.0135,11.5707
16.7316,11.7591
16.7316,11.7591
16.7316,11.7591
16.6073,11.7838
16.4830,11.8085
14.8026,11.8085
14.7190,11.7919
14.5540,11.7591
14.5540,11.7591
14.5540,11.7591
14.2721,11.5707
14.0837,11.2888
14.0343,11.0402
14.0343,9.3598
14.0678,9.1915
14.0837,9.1112
14.0837,9.1112
14.0837,9.1112
14.2721,8.8293
14.2887,8.8182
14.3414,8.7393
14.3229,8.6462
14.3075,8.6274
14.2864,8.6063
14.0428,8.0183
14.0428,8.0183
14.0428,7.3817
14.0428,7.3817
14.2864,6.7937
14.3347,6.7454
15.3783,7.7891
15.4660,7.8254
15.4797,7.8197
15.4428,7.7828
15.4428,7.6172
15.5600,7.5000
15.7256,7.5000
15.8428,7.6172
15.8428,7.7828
15.8059,7.8197
15.8196,7.8254
15.9073,7.7891
16.9509,6.7454
16.9992,6.7937
16.9992,6.7937
17.2428,7.3817
17.2428,8.0183
16.9992,8.6063
16.9781,8.6274
16.9418,8.7151
16.9781,8.8028
16.9969,8.8182
17.0135,8.8293
17.0135,8.8293
17.2019,9.1112
17.2034,9.1150
17.2063,9.1178
17.2086,9.1214
17.2093,9.1209
17.2705,9.1821
17.3180,9.1915
24.7176,9.1915
24.8053,9.1552
24.8322,9.1150
24.8337,9.1112
24.8337,9.1112
25.0221,8.8293
25.0387,8.8182
25.0914,8.7393
25.0729,8.6462
25.0575,8.6274
25.0364,8.6063
24.7928,8.0183
24.7928,8.0183
24.7928,7.3817
24.7928,7.3817
25.0364,6.7937
25.0847,6.7454
26.1283,7.7891
26.2160,7.8254
26.2297,7.8197
26.1928,7.7828
26.1928,7.6172
26.3100,7.5000
26.4756,7.5000
26.5928,7.6172
26.5928,7.7828
26.5559,7.8197
26.5696,7.8254
26.6573,7.7891
27.7009,6.7454
27.7492,6.7937
27.7492,6.7937
27.9928,7.3817
27.9928,8.0183
27.7492,8.6063
27.7281,8.6274
27.6918,8.7151
27.7281,8.8028
27.7469,8.8182
27.7635,8.8293
27.7635,8.8293
27.9519,9.1112
27.9519,9.1112
27.9995,9.3509
28.0335,9.4144
28.4187,9.7997
31.8013,13.1823
31.8013,19.4824
31.8376,19.5701
32.1564,19.8889
32.1564,19.8889
32.4013,20.4800
32.4013,21.1200
32.1564,21.7111
31.8376,22.0299
31.8013,22.1176
31.8013,35.0177
31.1931,35.6259
31.1931,35.6259
28.4376,38.3814
28.4013,38.4691
28.4013,42.7309
28.4376,42.8186
28.7842,43.1652
28.8719,43.2015
29.1009,43.2015
29.1886,43.1652
29.5074,42.8464
29.6354,42.7934
29.6756,42.7665
30.4185,42.0236
31.1615,42.7665
31.2017,42.7934
31.3297,42.8464
31.7822,43.2989
31.7822,43.2989
31.7930,43.3250
31.8601,43.3921
31.9075,43.4015
32.8553,43.4015
32.9430,43.3652
32.9698,43.3250
32.9806,43.2989
32.9806,43.2989
32.9806,43.2989
33.4331,42.8464
33.5023,42.8177
33.5611,42.7934
33.6013,42.7665
34.3443,42.0236
35.0872,42.7665
35.1274,42.7934
35.2554,42.8464
35.7079,43.2989
35.7079,43.2989
35.7187,43.3250
35.7858,43.3921
35.8333,43.4015
35.8812,43.4015
37.3013,44.8216
38.4335,44.8216
38.4335,41.3517
35.9443,41.3517
35.9443,41.9883
35.7007,42.5763
35.6524,42.6246
34.6978,41.6700
34.7807,41.5872
34.5443,41.5872
34.5443,41.7528
34.4271,41.8700
34.2614,41.8700
34.1443,41.7528
34.1443,41.6700
33.9907,41.6700
33.0361,42.6246
32.9879,42.5763
32.9879,42.5763
32.7443,41.9883
32.7443,41.9883
32.7443,41.3517
32.7443,41.3517
32.0185,41.3517
32.0185,41.9883
31.7749,42.5763
31.7267,42.6246
30.7721,41.6700
30.8549,41.5872
30.6185,41.5872
30.6185,41.7528
30.5014,41.8700
30.3357,41.8700
30.2185,41.7528
30.2185,41.6700
30.0650,41.6700
29.1104,42.6246
29.0621,42.5763
29.0621,42.5763
28.8185,41.9883
28.8185,41.9883
28.8185,41.3517
28.8185,41.3517
29.0621,40.7637
29.1104,40.7154
30.0650,41.6700
30.2185,41.6700
30.2185,41.5872
30.3357,41.4700
30.5014,41.4700
30.6185,41.5872
30.8549,41.5872
31.7267,40.7154
31.7749,40.7637
31.7749,40.7637
32.0185,41.3517
32.7443,41.3517
32.9879,40.7637
33.0361,40.7154
33.9907,41.6700
34.1443,41.6700
34.1443,41.5872
34.2614,41.4700
34.4271,41.4700
34.5443,41.5872
34.7807,41.5872
35.6524,40.7154
35.7007,40.7637
35.7007,40.7637
35.9443,41.3517
38.4335,41.3517
38.4335,40.3619
35.2989,40.3619
34.3443,41.3164
33.3897,40.3619
31.3731,40.3619
30.4185,41.3164
29.4639,40.3619
29.5122,40.3136
30.1003,40.0700
30.7368,40.0700
31.3249,40.3136
31.3249,40.3136
31.3731,40.3619
33.3897,40.3619
33.4379,40.3136
34.0260,40.0700
34.6625,40.0700
35.2506,40.3136
35.2506,40.3136
35.2989,40.3619
38.4335,40.3619
38.4335,20.7178
41.9573,20.7178
41.9573,53.7484
43.5928,53.7484
43.5928,12.6800
40.6013,12.6800
40.6013,13.3200
40.5302,13.4915
40.3564,13.9111
39.9039,14.3636
39.3128,14.6085
39.3127,14.6085
38.6729,14.6085
38.6728,14.6085
38.0817,14.3636
37.7629,14.0448
37.6752,14.0085
36.9619,14.0085
36.8742,14.0448
36.0376,14.8814
36.0013,14.9691
36.0013,19.4824
36.0376,19.5701
36.3564,19.8889
36.3564,19.8889
36.6013,20.4800
36.6013,21.1200
36.4176,21.5634
36.3564,21.7111
35.9039,22.1636
35.3128,22.4085
35.3127,22.4085
34.6729,22.4085
34.6728,22.4085
34.0817,22.1636
33.6292,21.7111
33.3843,21.1199
33.3843,20.4800
33.6292,19.8889
33.9480,19.5701
33.9843,19.4824
33.9843,14.0823
34.5925,13.4741
34.5925,13.4741
35.4669,12.5997
35.4669,12.5997
36.0751,11.9915
37.6752,11.9915
37.7629,11.9552
38.0817,11.6364
38.6728,11.3915
38.6728,11.3915
39.3128,11.3915
39.3128,11.3915
39.9039,11.6364
40.3564,12.0889
40.6013,12.6800
43.5928,12.6800
43.5928,9.3081
39.9474,9.3081
39.8991,9.3564
39.3111,9.6000
39.3111,9.6000
38.6745,9.6000
38.6745,9.6000
38.0865,9.3564
38.0865,9.3564
38.0382,9.3081
38.9928,8.3536
39.9474,9.3081
43.5928,9.3081
43.5928,7.6817
40.5928,7.6817
40.5928,8.3183
40.3492,8.9063
40.3009,8.9546
39.3464,8.0000
39.4292,7.9172
39.1928,7.9172
39.1928,8.0828
39.0756,8.2000
38.9100,8.2000
38.7928,8.0828
38.7928,8.0000
38.6392,8.0000
37.6847,8.9546
37.6364,8.9063
37.6364,8.9063
37.3928,8.3183
37.3928,8.3183
37.3928,7.6817
37.3928,7.6817
37.6364,7.0937
37.6847,7.0454
38.6392,8.0000
38.7928,8.0000
38.7928,7.9172
38.9100,7.8000
39.0756,7.8000
39.1928,7.9172
39.4292,7.9172
40.3009,7.0454
40.3492,7.0937
40.3492,7.0937
40.5928,7.6817
43.5928,7.6817
43.5928,6.6919
39.9474,6.6919
38.9928,7.6464
38.0382,6.6919
38.0865,6.6436
38.5416,6.4551
38.6745,6.4000
39.3111,6.4000
39.8991,6.6436
39.8991,6.6436
39.9474,6.6919
43.5928,6.6919
43.5928,6.3919
27.3474,6.3919
26.3928,7.3464
25.4382,6.3919
16.5974,6.3919
15.6428,7.3464
14.6882,6.3919
14.7365,6.3436
15.3245,6.1000
15.9611,6.1000
16.5491,6.3436
16.5491,6.3436
16.5974,6.3919
25.4382,6.3919
25.4865,6.3436
26.0745,6.1000
26.7111,6.1000
27.2991,6.3436
27.2991,6.3436
27.3474,6.3919
43.5928,6.3919
43.5928,0.5240
43.5565,0.4363
43.4688,0.4000
0.5168,0.4000
Z" /> 
<path style="fill:none; 
stroke:#000000; stroke-width:0.1000; stroke-opacity:1; 
stroke-linecap:round; stroke-linejoin:round;fill:none"
d="M 43.9928,0.0000
-0.0072,0.0000
-0.0072,85.0000
43.9928,85.0000
Z" /> 
</g>
<g style="fill:#FFFFFF; fill-opacity:1.0000; stroke:none;">
<circle cx="24.9928" cy="39.0000" r="0.2000" /> 
</g>
<g style="fill:#FFFFFF; fill-opacity:1.0000; stroke:none;">
<circle cx="30.4185" cy="46.7500" r="0.2000" /> 
</g>
<g style="fill:#FFFFFF; fill-opacity:1.0000; stroke:none;">
<circle cx="30.4185" cy="44.2100" r="0.2000" /> 
</g>
<g style="fill:#FFFFFF; fill-opacity:1.0000; stroke:none;">
<circle cx="30.4185" cy="41.6700" r="0.2000" /> 
</g>
<g style="fill:#FFFFFF; fill-opacity:1.0000; stroke:none;">
<circle cx="21.2428" cy="32.2500" r="0.2000" /> 
</g>
<g style="fill:#FFFFFF; fill-opacity:1.0000; stroke:none;">
<circle cx="21.2428" cy="29.7100" r="0.2000" /> 
</g>
<g style="fill:#FFFFFF; fill-opacity:1.0000; stroke:none;">
<circle cx="21.2428" cy="27.1700" r="0.2000" /> 
</g>
<g style="fill:#FFFFFF; fill-opacity:1.0000; stroke:none;">
<circle cx="5.7428" cy="34.5000" r="0.2000" /> 
</g>
<g style="fill:#FFFFFF; fill-opacity:1.0000; stroke:none;">
<circle cx="5.7428" cy="32.0000" r="0.2000" /> 
</g>
<g style="fill:#FFFFFF; fill-opacity:1.0000; stroke:none;">
<circle cx="30.4185" cy="75.0800" r="0.2000" /> 
</g>
<g style="fill:#FFFFFF; fill-opacity:1.0000; stroke:none;">
<circle cx="30.4185" cy="72.5400" r="0.2000" /> 
</g>
<g style="fill:#FFFFFF; fill-opacity:1.0000; stroke:none;">
<circle cx="30.4185" cy="70.0000" r="0.2000" /> 
</g>
<g style="fill:#FFFFFF; fill-opacity:1.0000; stroke:none;">
<circle cx="34.3443" cy="46.7500" r="0.2000" /> 
</g>
<g style="fill:#FFFFFF; fill-opacity:1.0000; stroke:none;">
<circle cx="34.3443" cy="44.2100" r="0.2000" /> 
</g>
<g style="fill:#FFFFFF; fill-opacity:1.0000; stroke:none;">
<circle cx="34.3443" cy="41.6700" r="0.2000" /> 
</g>
<g style="fill:#FFFFFF; fill-opacity:1.0000; stroke:none;">
<circle cx="34.3443" cy="75.0800" r="0.2000" /> 
</g>
<g style="fill:#FFFFFF; fill-opacity:1.0000; stroke:none;">
<circle cx="34.3443" cy="72.5400" r="0.2000" /> 
</g>
<g style="fill:#FFFFFF; fill-opacity:1.0000; stroke:none;">
<circle cx="34.3443" cy="70.0000" r="0.2000" /> 
</g>
<g style="fill:#FFFFFF; fill-opacity:1.0000; stroke:none;">
<circle cx="38.9928" cy="8.0000" r="0.2000" /> 
</g>
<g style="fill:#FFFFFF; fill-opacity:1.0000; stroke:none;">
<circle cx="38.9928" cy="13.0000" r="0.2000" /> 
</g>
<g style="fill:#FFFFFF; fill-opacity:1.0000; stroke:none;">
<circle cx="30.7928" cy="20.8000" r="0.2000" /> 
</g>
<g style="fill:#FFFFFF; fill-opacity:1.0000; stroke:none;">
<circle cx="15.6428" cy="10.2000" r="0.2000" /> 
</g>
<g style="fill:#FFFFFF; fill-opacity:1.0000; stroke:none;">
<circle cx="15.6428" cy="7.7000" r="0.2000" /> 
</g>
<g style="fill:#FFFFFF; fill-opacity:1.0000; stroke:none;">
<circle cx="26.4928" cy="61.0800" r="0.2000" /> 
</g>
<g style="fill:#FFFFFF; fill-opacity:1.0000; stroke:none;">
<circle cx="26.4928" cy="58.5400" r="0.2000" /> 
</g>
<g style="fill:#FFFFFF; fill-opacity:1.0000; stroke:none;">
<circle cx="26.4928" cy="56.0000" r="0.2000" /> 
</g>
<g style="fill:#FFFFFF; fill-opacity:1.0000; stroke:none;">
<circle cx="25.7428" cy="32.2500" r="0.2000" /> 
</g>
<g style="fill:#FFFFFF; fill-opacity:1.0000; stroke:none;">
<circle cx="25.7428" cy="29.7100" r="0.2000" /> 
</g>
<g style="fill:#FFFFFF; fill-opacity:1.0000; stroke:none;">
<circle cx="25.7428" cy="27.1700" r="0.2000" /> 
</g>
<g style="fill:#FFFFFF; fill-opacity:1.0000; stroke:none;">
<circle cx="20.9928" cy="41.8400" r="0.2000" /> 
</g>
<g style="fill:#FFFFFF; fill-opacity:1.0000; stroke:none;">
<circle cx="20.9928" cy="44.3800" r="0.2000" /> 
</g>
<g style="fill:#FFFFFF; fill-opacity:1.0000; stroke:none;">
<circle cx="20.9928" cy="46.9200" r="0.2000" /> 
</g>
<g style="fill:#FFFFFF; fill-opacity:1.0000; stroke:none;">
<circle cx="20.9928" cy="49.4600" r="0.2000" /> 
</g>
<g style="fill:#FFFFFF; fill-opacity:1.0000; stroke:none;">
<circle cx="20.9928" cy="52.0000" r="0.2000" /> 
</g>
<g style="fill:#FFFFFF; fill-opacity:1.0000; stroke:none;">
<circle cx="20.9928" cy="54.5400" r="0.2000" /> 
</g>
<g style="fill:#FFFFFF; fill-opacity:1.0000; stroke:none;">
<circle cx="20.9928" cy="57.0800" r="0.2000" /> 
</g>
<g style="fill:#FFFFFF; fill-opacity:1.0000; stroke:none;">
<circle cx="20.9928" cy="59.6200" r="0.2000" /> 
</g>
<g style="fill:#FFFFFF; fill-opacity:1.0000; stroke:none;">
<circle cx="20.9928" cy="62.1600" r="0.2000" /> 
</g>
<g style="fill:#FFFFFF; fill-opacity:1.0000; stroke:none;">
<circle cx="20.9928" cy="64.7000" r="0.2000" /> 
</g>
<g style="fill:#FFFFFF; fill-opacity:1.0000; stroke:none;">
<circle cx="20.9928" cy="67.2400" r="0.2000" /> 
</g>
<g style="fill:#FFFFFF; fill-opacity:1.0000; stroke:none;">
<circle cx="20.9928" cy="69.7800" r="0.2000" /> 
</g>
<g style="fill:#FFFFFF; fill-opacity:1.0000; stroke:none;">
<circle cx="20.9928" cy="72.3200" r="0.2000" /> 
</g>
<g style="fill:#FFFFFF; fill-opacity:1.0000; stroke:none;">
<circle cx="20.9928" cy="74.8600" r="0.2000" /> 
</g>
<g style="fill:#FFFFFF; fill-opacity:1.0000; stroke:none;">
<circle cx="20.9928" cy="77.4000" r="0.2000" /> 
</g>
<g style="fill:#FFFFFF; fill-opacity:1.0000; stroke:none;">
<circle cx="5.7528" cy="77.4000" r="0.2000" /> 
</g>
<g style="fill:#FFFFFF; fill-opacity:1.0000; stroke:none;">
<circle cx="5.7528" cy="74.8600" r="0.2000" /> 
</g>
<g style="fill:#FFFFFF; fill-opacity:1.0000; stroke:none;">
<circle cx="5.7528" cy="72.3200" r="0.2000" /> 
</g>
<g style="fill:#FFFFFF; fill-opacity:1.0000; stroke:none;">
<circle cx="5.7528" cy="69.7800" r="0.2000" /> 
</g>
<g style="fill:#FFFFFF; fill-opacity:1.0000; stroke:none;">
<circle cx="5.7528" cy="67.2400" r="0.2000" /> 
</g>
<g style="fill:#FFFFFF; fill-opacity:1.0000; stroke:none;">
<circle cx="5.7528" cy="64.7000" r="0.2000" /> 
</g>
<g style="fill:#FFFFFF; fill-opacity:1.0000; stroke:none;">
<circle cx="5.7528" cy="62.1600" r="0.2000" /> 
</g>
<g style="fill:#FFFFFF; fill-opacity:1.0000; stroke:none;">
<circle cx="5.7528" cy="59.6200" r="0.2000" /> 
</g>
<g style="fill:#FFFFFF; fill-opacity:1.0000; stroke:none;">
<circle cx="5.7528" cy="57.0800" r="0.2000" /> 
</g>
<g style="fill:#FFFFFF; fill-opacity:1.0000; stroke:none;">
<circle cx="5.7528" cy="54.5400" r="0.2000" /> 
</g>
<g style="fill:#FFFFFF; fill-opacity:1.0000; stroke:none;">
<circle cx="5.7528" cy="52.0000" r="0.2000" /> 
</g>
<g style="fill:#FFFFFF; fill-opacity:1.0000; stroke:none;">
<circle cx="5.7528" cy="49.4600" r="0.2000" /> 
</g>
<g style="fill:#FFFFFF; fill-opacity:1.0000; stroke:none;">
<circle cx="5.7528" cy="46.9200" r="0.2000" /> 
</g>
<g style="fill:#FFFFFF; fill-opacity:1.0000; stroke:none;">
<circle cx="5.7528" cy="44.3800" r="0.2000" /> 
</g>
<g style="fill:#FFFFFF; fill-opacity:1.0000; stroke:none;">
<circle cx="5.7528" cy="41.8400" r="0.2000" /> 
</g>
<g style="fill:#FFFFFF; fill-opacity:1.0000; stroke:none;">
<circle cx="15.4928" cy="19.7500" r="0.2000" /> 
</g>
<g style="fill:#FFFFFF; fill-opacity:1.0000; stroke:none;">
<circle cx="15.4928" cy="17.2100" r="0.2000" /> 
</g>
<g style="fill:#FFFFFF; fill-opacity:1.0000; stroke:none;">
<circle cx="26.4928" cy="75.0800" r="0.2000" /> 
</g>
<g style="fill:#FFFFFF; fill-opacity:1.0000; stroke:none;">
<circle cx="26.4928" cy="72.5400" r="0.2000" /> 
</g>
<g style="fill:#FFFFFF; fill-opacity:1.0000; stroke:none;">
<circle cx="26.4928" cy="70.0000" r="0.2000" /> 
</g>
<g style="fill:#FFFFFF; fill-opacity:1.0000; stroke:none;">
<circle cx="34.9928" cy="20.8000" r="0.2000" /> 
</g>
<g style="fill:#FFFFFF; fill-opacity:1.0000; stroke:none;">
<circle cx="16.4928" cy="32.2500" r="0.2000" /> 
</g>
<g style="fill:#FFFFFF; fill-opacity:1.0000; stroke:none;">
<circle cx="16.4928" cy="29.7100" r="0.2000" /> 
</g>
<g style="fill:#FFFFFF; fill-opacity:1.0000; stroke:none;">
<circle cx="16.4928" cy="27.1700" r="0.2000" /> 
</g>
<g style="fill:#FFFFFF; fill-opacity:1.0000; stroke:none;">
<circle cx="11.9928" cy="32.2500" r="0.2000" /> 
</g>
<g style="fill:#FFFFFF; fill-opacity:1.0000; stroke:none;">
<circle cx="11.9928" cy="29.7100" r="0.2000" /> 
</g>
<g style="fill:#FFFFFF; fill-opacity:1.0000; stroke:none;">
<circle cx="11.9928" cy="27.1700" r="0.2000" /> 
</g>
<g style="fill:#FFFFFF; fill-opacity:1.0000; stroke:none;">
<circle cx="30.4185" cy="61.0800" r="0.2000" /> 
</g>
<g style="fill:#FFFFFF; fill-opacity:1.0000; stroke:none;">
<circle cx="30.4185" cy="58.5400" r="0.2000" /> 
</g>
<g style="fill:#FFFFFF; fill-opacity:1.0000; stroke:none;">
<circle cx="30.4185" cy="56.0000" r="0.2000" /> 
</g>
<g style="fill:#FFFFFF; fill-opacity:1.0000; stroke:none;">
<circle cx="24.9928" cy="45.2000" r="0.2000" /> 
</g>
<g style="fill:#FFFFFF; fill-opacity:1.0000; stroke:none;">
<circle cx="26.3928" cy="10.2000" r="0.2000" /> 
</g>
<g style="fill:#FFFFFF; fill-opacity:1.0000; stroke:none;">
<circle cx="26.3928" cy="7.7000" r="0.2000" /> 
</g>
<g style="fill:#FFFFFF; fill-opacity:1.0000; stroke:none;">
<circle cx="23.0328" cy="18.7500" r="0.2000" /> 
</g>
<g style="fill:#FFFFFF; fill-opacity:1.0000; stroke:none;">
<circle cx="20.4928" cy="18.7500" r="0.2000" /> 
</g>
<g style="fill:#FFFFFF; fill-opacity:1.0000; stroke:none;">
<circle cx="34.3443" cy="61.0800" r="0.2000" /> 
</g>
<g style="fill:#FFFFFF; fill-opacity:1.0000; stroke:none;">
<circle cx="34.3443" cy="58.5400" r="0.2000" /> 
</g>
<g style="fill:#FFFFFF; fill-opacity:1.0000; stroke:none;">
<circle cx="34.3443" cy="56.0000" r="0.2000" /> 
</g> 
</svg>
