<?xml version="1.0" standalone="no"?>
 <!DOCTYPE svg PUBLIC "-//W3C//DTD SVG 1.1//EN" 
 "http://www.w3.org/Graphics/SVG/1.1/DTD/svg11.dtd"> 
<svg
  xmlns:svg="http://www.w3.org/2000/svg"
  xmlns="http://www.w3.org/2000/svg"
  xmlns:xlink="http://www.w3.org/1999/xlink"
  xmlns:inkscape="http://www.inkscape.org/namespaces/inkscape"
  version="1.1"
  width="43.9928mm" height="84.9884mm" viewBox="0.0000 0.0000 43.9928 84.9884">
<title>SVG Image created as nano_IPBL_2026-B_Mask.svg date 2026-07-24T12:12:13 </title>
  <desc>Image generated by PCBNEW </desc>
<g style="fill:#000000; fill-opacity:1.0000;stroke:#000000; stroke-opacity:1.0000;
stroke-linecap:round; stroke-linejoin:round;"
 transform="translate(0 0) scale(1 1)">
<path style="fill:#000000; fill-opacity:1.0000; stroke:none;fill-rule:evenodd;"
d="M 30.6928,18.1500
30.6852,18.1117
30.6635,18.0793
30.6311,18.0576
30.5928,18.0500
28.3928,18.0500
28.3545,18.0576
28.3221,18.0793
28.3004,18.1117
28.2928,18.1500
28.2928,20.3500
28.3004,20.3883
28.3221,20.4207
28.3545,20.4424
28.3928,20.4500
30.5928,20.4500
30.6311,20.4424
30.6635,20.4207
30.6852,20.3883
30.6928,20.3500
Z" /> 
<path style="fill:#000000; fill-opacity:1.0000; stroke:none;fill-rule:evenodd;"
d="M 34.1928,18.1500
34.1852,18.1117
34.1635,18.0793
34.1311,18.0576
34.0928,18.0500
31.8928,18.0500
31.8545,18.0576
31.8221,18.0793
31.8004,18.1117
31.7928,18.1500
31.7928,20.3500
31.8004,20.3883
31.8221,20.4207
31.8545,20.4424
31.8928,20.4500
34.0928,20.4500
34.1311,20.4424
34.1635,20.4207
34.1852,20.3883
34.1928,20.3500
Z" /> 
<path style="fill:#000000; fill-opacity:1.0000; stroke:none;fill-rule:evenodd;"
d="M 25.2928,47.8500
25.3004,47.8883
25.3221,47.9207
25.3545,47.9424
25.3928,47.9500
27.5928,47.9500
27.6311,47.9424
27.6635,47.9207
27.6852,47.8883
27.6928,47.8500
27.6928,45.6500
27.6852,45.6117
27.6635,45.5793
27.6311,45.5576
27.5928,45.5500
25.3928,45.5500
25.3545,45.5576
25.3221,45.5793
25.3004,45.6117
25.2928,45.6500
Z" /> 
</g>
<g style="fill:#000000; fill-opacity:1.0000; stroke:none;">
<circle cx="26.4928" cy="44.2100" r="1.2000" /> 
<circle cx="26.4928" cy="41.6700" r="1.2000" /> 
<path style="fill:#000000; fill-opacity:1.0000; stroke:none;fill-rule:evenodd;"
d="M 20.0428,33.3500
20.0504,33.3883
20.0721,33.4207
20.1045,33.4424
20.1428,33.4500
22.3428,33.4500
22.3811,33.4424
22.4135,33.4207
22.4352,33.3883
22.4428,33.3500
22.4428,31.1500
22.4352,31.1117
22.4135,31.0793
22.3811,31.0576
22.3428,31.0500
20.1428,31.0500
20.1045,31.0576
20.0721,31.0793
20.0504,31.1117
20.0428,31.1500
Z" /> 
<circle cx="21.2428" cy="29.7100" r="1.2000" /> 
<circle cx="21.2428" cy="27.1700" r="1.2000" /> 
<path style="fill:#000000; fill-opacity:1.0000; stroke:none;fill-rule:evenodd;"
d="M 6.4990,35.7000
6.5815,35.6923
6.7064,35.6486
6.8128,35.5700
6.8914,35.4636
6.9351,35.3387
6.9428,35.2563
6.9428,33.7437
6.9351,33.6613
6.8914,33.5364
6.8128,33.4300
6.7064,33.3514
6.5815,33.3077
6.4990,33.3000
4.9865,33.3000
4.9041,33.3077
4.7792,33.3514
4.6728,33.4300
4.5942,33.5364
4.5505,33.6613
4.5428,33.7437
4.5428,35.2563
4.5505,35.3387
4.5942,35.4636
4.6728,35.5700
4.7792,35.6486
4.9041,35.6923
4.9865,35.7000
Z" /> 
<circle cx="5.7428" cy="32.0000" r="1.2000" /> 
<path style="fill:#000000; fill-opacity:1.0000; stroke:none;fill-rule:evenodd;"
d="M 29.2185,76.1800
29.2261,76.2183
29.2478,76.2507
29.2803,76.2724
29.3185,76.2800
31.5185,76.2800
31.5568,76.2724
31.5892,76.2507
31.6109,76.2183
31.6185,76.1800
31.6185,73.9800
31.6109,73.9417
31.5892,73.9093
31.5568,73.8876
31.5185,73.8800
29.3185,73.8800
29.2803,73.8876
29.2478,73.9093
29.2261,73.9417
29.2185,73.9800
Z" /> 
<circle cx="30.4185" cy="72.5400" r="1.2000" /> 
<circle cx="30.4185" cy="70.0000" r="1.2000" /> 
<path style="fill:#000000; fill-opacity:1.0000; stroke:none;fill-rule:evenodd;"
d="M 29.2185,47.8500
29.2261,47.8883
29.2478,47.9207
29.2803,47.9424
29.3185,47.9500
31.5185,47.9500
31.5568,47.9424
31.5892,47.9207
31.6109,47.8883
31.6185,47.8500
31.6185,45.6500
31.6109,45.6117
31.5892,45.5793
31.5568,45.5576
31.5185,45.5500
29.3185,45.5500
29.2803,45.5576
29.2478,45.5793
29.2261,45.6117
29.2185,45.6500
Z" /> 
<circle cx="30.4185" cy="44.2100" r="1.2000" /> 
<circle cx="30.4185" cy="41.6700" r="1.2000" /> 
<path style="fill:#000000; fill-opacity:1.0000; stroke:none;fill-rule:evenodd;"
d="M 35.5443,68.9000
35.5367,68.8617
35.5150,68.8293
35.4825,68.8076
35.4443,68.8000
33.2443,68.8000
33.2060,68.8076
33.1736,68.8293
33.1519,68.8617
33.1443,68.9000
33.1443,71.1000
33.1519,71.1383
33.1736,71.1707
33.2060,71.1924
33.2443,71.2000
35.4443,71.2000
35.4825,71.1924
35.5150,71.1707
35.5367,71.1383
35.5443,71.1000
Z" /> 
<circle cx="34.3443" cy="72.5400" r="1.2000" /> 
<circle cx="34.3443" cy="75.0800" r="1.2000" /> 
<path style="fill:#000000; fill-opacity:1.0000; stroke:none;fill-rule:evenodd;"
d="M 14.4990,10.7000
14.5815,10.6923
14.7064,10.6486
14.8128,10.5700
14.8914,10.4636
14.9351,10.3387
14.9428,10.2562
14.9428,8.7438
14.9351,8.6613
14.8914,8.5364
14.8128,8.4300
14.7064,8.3514
14.5815,8.3077
14.4990,8.3000
12.9865,8.3000
12.9041,8.3077
12.7792,8.3514
12.6728,8.4300
12.5942,8.5364
12.5505,8.6613
12.5428,8.7438
12.5428,10.2562
12.5505,10.3387
12.5942,10.4636
12.6728,10.5700
12.7792,10.6486
12.9041,10.6923
12.9865,10.7000
Z" /> 
<circle cx="13.7428" cy="7.0000" r="1.2000" /> 
<path style="fill:#000000; fill-opacity:1.0000; stroke:none;fill-rule:evenodd;"
d="M 25.2928,62.1800
25.3004,62.2183
25.3221,62.2507
25.3545,62.2724
25.3928,62.2800
27.5928,62.2800
27.6311,62.2724
27.6635,62.2507
27.6852,62.2183
27.6928,62.1800
27.6928,59.9800
27.6852,59.9417
27.6635,59.9093
27.6311,59.8876
27.5928,59.8800
25.3928,59.8800
25.3545,59.8876
25.3221,59.9093
25.3004,59.9417
25.2928,59.9800
Z" /> 
<circle cx="26.4928" cy="58.5400" r="1.2000" /> 
<circle cx="26.4928" cy="56.0000" r="1.2000" /> 
<path style="fill:#000000; fill-opacity:1.0000; stroke:none;fill-rule:evenodd;"
d="M 24.5428,33.3500
24.5504,33.3883
24.5721,33.4207
24.6045,33.4424
24.6428,33.4500
26.8428,33.4500
26.8811,33.4424
26.9135,33.4207
26.9352,33.3883
26.9428,33.3500
26.9428,31.1500
26.9352,31.1117
26.9135,31.0793
26.8811,31.0576
26.8428,31.0500
24.6428,31.0500
24.6045,31.0576
24.5721,31.0793
24.5504,31.1117
24.5428,31.1500
Z" /> 
<circle cx="25.7428" cy="29.7100" r="1.2000" /> 
<circle cx="25.7428" cy="27.1700" r="1.2000" /> 
<path style="fill:#000000; fill-opacity:1.0000; stroke:none;fill-rule:evenodd;"
d="M 22.1928,40.7400
22.1852,40.7017
22.1635,40.6693
22.1311,40.6476
22.0928,40.6400
19.8928,40.6400
19.8545,40.6476
19.8221,40.6693
19.8004,40.7017
19.7928,40.7400
19.7928,42.9400
19.8004,42.9783
19.8221,43.0107
19.8545,43.0324
19.8928,43.0400
22.0928,43.0400
22.1311,43.0324
22.1635,43.0107
22.1852,42.9783
22.1928,42.9400
Z" /> 
<circle cx="20.9928" cy="44.3800" r="1.2000" /> 
<circle cx="20.9928" cy="46.9200" r="1.2000" /> 
<circle cx="20.9928" cy="49.4600" r="1.2000" /> 
<circle cx="20.9928" cy="52.0000" r="1.2000" /> 
<circle cx="20.9928" cy="54.5400" r="1.2000" /> 
<circle cx="20.9928" cy="57.0800" r="1.2000" /> 
<circle cx="20.9928" cy="59.6200" r="1.2000" /> 
<circle cx="20.9928" cy="62.1600" r="1.2000" /> 
<circle cx="20.9928" cy="64.7000" r="1.2000" /> 
<circle cx="20.9928" cy="67.2400" r="1.2000" /> 
<circle cx="20.9928" cy="69.7800" r="1.2000" /> 
<circle cx="20.9928" cy="72.3200" r="1.2000" /> 
<circle cx="20.9928" cy="74.8600" r="1.2000" /> 
<circle cx="20.9928" cy="77.4000" r="1.2000" /> 
<circle cx="5.7528" cy="77.4000" r="1.2000" /> 
<circle cx="5.7528" cy="74.8600" r="1.2000" /> 
<circle cx="5.7528" cy="72.3200" r="1.2000" /> 
<circle cx="5.7528" cy="69.7800" r="1.2000" /> 
<circle cx="5.7528" cy="67.2400" r="1.2000" /> 
<circle cx="5.7528" cy="64.7000" r="1.2000" /> 
<circle cx="5.7528" cy="62.1600" r="1.2000" /> 
<circle cx="5.7528" cy="59.6200" r="1.2000" /> 
<circle cx="5.7528" cy="57.0800" r="1.2000" /> 
<circle cx="5.7528" cy="54.5400" r="1.2000" /> 
<circle cx="5.7528" cy="52.0000" r="1.2000" /> 
<circle cx="5.7528" cy="49.4600" r="1.2000" /> 
<circle cx="5.7528" cy="46.9200" r="1.2000" /> 
<circle cx="5.7528" cy="44.3800" r="1.2000" /> 
<circle cx="5.7528" cy="41.8400" r="1.2000" /> 
<circle cx="15.4928" cy="19.7500" r="1.2000" /> 
<circle cx="15.4928" cy="17.2100" r="1.2000" /> 
<path style="fill:#000000; fill-opacity:1.0000; stroke:none;fill-rule:evenodd;"
d="M 25.2928,76.1800
25.3004,76.2183
25.3221,76.2507
25.3545,76.2724
25.3928,76.2800
27.5928,76.2800
27.6311,76.2724
27.6635,76.2507
27.6852,76.2183
27.6928,76.1800
27.6928,73.9800
27.6852,73.9417
27.6635,73.9093
27.6311,73.8876
27.5928,73.8800
25.3928,73.8800
25.3545,73.8876
25.3221,73.9093
25.3004,73.9417
25.2928,73.9800
Z" /> 
<circle cx="26.4928" cy="72.5400" r="1.2000" /> 
<circle cx="26.4928" cy="70.0000" r="1.2000" /> 
<path style="fill:#000000; fill-opacity:1.0000; stroke:none;fill-rule:evenodd;"
d="M 15.2928,33.3500
15.3004,33.3883
15.3221,33.4207
15.3545,33.4424
15.3928,33.4500
17.5928,33.4500
17.6311,33.4424
17.6635,33.4207
17.6852,33.3883
17.6928,33.3500
17.6928,31.1500
17.6852,31.1117
17.6635,31.0793
17.6311,31.0576
17.5928,31.0500
15.3928,31.0500
15.3545,31.0576
15.3221,31.0793
15.3004,31.1117
15.2928,31.1500
Z" /> 
<circle cx="16.4928" cy="29.7100" r="1.2000" /> 
<circle cx="16.4928" cy="27.1700" r="1.2000" /> 
<path style="fill:#000000; fill-opacity:1.0000; stroke:none;fill-rule:evenodd;"
d="M 10.7928,33.3500
10.8004,33.3883
10.8221,33.4207
10.8545,33.4424
10.8928,33.4500
13.0928,33.4500
13.1311,33.4424
13.1635,33.4207
13.1852,33.3883
13.1928,33.3500
13.1928,31.1500
13.1852,31.1117
13.1635,31.0793
13.1311,31.0576
13.0928,31.0500
10.8928,31.0500
10.8545,31.0576
10.8221,31.0793
10.8004,31.1117
10.7928,31.1500
Z" /> 
<circle cx="11.9928" cy="29.7100" r="1.2000" /> 
<circle cx="11.9928" cy="27.1700" r="1.2000" /> 
<path style="fill:#000000; fill-opacity:1.0000; stroke:none;fill-rule:evenodd;"
d="M 29.2185,62.1800
29.2261,62.2183
29.2478,62.2507
29.2803,62.2724
29.3185,62.2800
31.5185,62.2800
31.5568,62.2724
31.5892,62.2507
31.6109,62.2183
31.6185,62.1800
31.6185,59.9800
31.6109,59.9417
31.5892,59.9093
31.5568,59.8876
31.5185,59.8800
29.3185,59.8800
29.2803,59.8876
29.2478,59.9093
29.2261,59.9417
29.2185,59.9800
Z" /> 
<circle cx="30.4185" cy="58.5400" r="1.2000" /> 
<circle cx="30.4185" cy="56.0000" r="1.2000" /> 
<path style="fill:#000000; fill-opacity:1.0000; stroke:none;fill-rule:evenodd;"
d="M 24.4991,10.7000
24.5815,10.6923
24.7064,10.6486
24.8128,10.5700
24.8914,10.4636
24.9351,10.3387
24.9428,10.2562
24.9428,8.7438
24.9351,8.6613
24.8914,8.5364
24.8128,8.4300
24.7064,8.3514
24.5815,8.3077
24.4991,8.3000
22.9865,8.3000
22.9041,8.3077
22.7792,8.3514
22.6728,8.4300
22.5942,8.5364
22.5505,8.6613
22.5428,8.7438
22.5428,10.2562
22.5505,10.3387
22.5942,10.4636
22.6728,10.5700
22.7792,10.6486
22.9041,10.6923
22.9865,10.7000
Z" /> 
<circle cx="23.7428" cy="7.0000" r="1.2000" /> 
<path style="fill:#000000; fill-opacity:1.0000; stroke:none;fill-rule:evenodd;"
d="M 24.2328,17.6500
24.2252,17.6117
24.2035,17.5793
24.1711,17.5576
24.1328,17.5500
21.9328,17.5500
21.8945,17.5576
21.8621,17.5793
21.8404,17.6117
21.8328,17.6500
21.8328,19.8500
21.8404,19.8883
21.8621,19.9207
21.8945,19.9424
21.9328,19.9500
24.1328,19.9500
24.1711,19.9424
24.2035,19.9207
24.2252,19.8883
24.2328,19.8500
Z" /> 
<circle cx="20.4928" cy="18.7500" r="1.2000" /> 
<path style="fill:#000000; fill-opacity:1.0000; stroke:none;fill-rule:evenodd;"
d="M 33.1443,62.1800
33.1519,62.2183
33.1736,62.2507
33.2060,62.2724
33.2443,62.2800
35.4443,62.2800
35.4825,62.2724
35.5150,62.2507
35.5367,62.2183
35.5443,62.1800
35.5443,59.9800
35.5367,59.9417
35.5150,59.9093
35.4825,59.8876
35.4443,59.8800
33.2443,59.8800
33.2060,59.8876
33.1736,59.9093
33.1519,59.9417
33.1443,59.9800
Z" /> 
<circle cx="34.3443" cy="58.5400" r="1.2000" /> 
<circle cx="34.3443" cy="56.0000" r="1.2000" /> 
<path style="fill:#000000; fill-opacity:1.0000; stroke:none;fill-rule:evenodd;"
d="M 35.5268,4.4000
35.4459,4.4161
35.3773,4.4620
35.3314,4.5306
35.3153,4.6115
35.3153,6.3885
35.3314,6.4694
35.3773,6.5380
35.4459,6.5839
35.5268,6.6000
37.3038,6.6000
37.3847,6.5839
37.4533,6.5380
37.4992,6.4694
37.5153,6.3885
37.5153,4.6115
37.4992,4.5306
37.4533,4.4620
37.3847,4.4161
37.3038,4.4000
Z" /> 
<circle cx="36.4153" cy="10.5000" r="1.1000" /> 
<path style="fill:none; 
stroke:#000000; stroke-width:0.1000; stroke-opacity:1; 
stroke-linecap:round; stroke-linejoin:round;fill:none"
d="M 43.9928,0.0000
-0.0072,0.0000
-0.0072,85.0000
43.9928,85.0000
Z" /> 
</g>
<g style="fill:#FFFFFF; fill-opacity:1.0000; stroke:none;">
<circle cx="29.4928" cy="19.2500" r="0.2000" /> 
</g>
<g style="fill:#FFFFFF; fill-opacity:1.0000; stroke:none;">
<circle cx="32.9928" cy="19.2500" r="0.2000" /> 
</g>
<g style="fill:#FFFFFF; fill-opacity:1.0000; stroke:none;">
<circle cx="26.4928" cy="46.7500" r="0.2000" /> 
</g>
<g style="fill:#FFFFFF; fill-opacity:1.0000; stroke:none;">
<circle cx="26.4928" cy="44.2100" r="0.2000" /> 
</g>
<g style="fill:#FFFFFF; fill-opacity:1.0000; stroke:none;">
<circle cx="26.4928" cy="41.6700" r="0.2000" /> 
</g>
<g style="fill:#FFFFFF; fill-opacity:1.0000; stroke:none;">
<circle cx="21.2428" cy="32.2500" r="0.2000" /> 
</g>
<g style="fill:#FFFFFF; fill-opacity:1.0000; stroke:none;">
<circle cx="21.2428" cy="29.7100" r="0.2000" /> 
</g>
<g style="fill:#FFFFFF; fill-opacity:1.0000; stroke:none;">
<circle cx="21.2428" cy="27.1700" r="0.2000" /> 
</g>
<g style="fill:#FFFFFF; fill-opacity:1.0000; stroke:none;">
<circle cx="5.7428" cy="34.5000" r="0.2000" /> 
</g>
<g style="fill:#FFFFFF; fill-opacity:1.0000; stroke:none;">
<circle cx="5.7428" cy="32.0000" r="0.2000" /> 
</g>
<g style="fill:#FFFFFF; fill-opacity:1.0000; stroke:none;">
<circle cx="30.4185" cy="75.0800" r="0.2000" /> 
</g>
<g style="fill:#FFFFFF; fill-opacity:1.0000; stroke:none;">
<circle cx="30.4185" cy="72.5400" r="0.2000" /> 
</g>
<g style="fill:#FFFFFF; fill-opacity:1.0000; stroke:none;">
<circle cx="30.4185" cy="70.0000" r="0.2000" /> 
</g>
<g style="fill:#FFFFFF; fill-opacity:1.0000; stroke:none;">
<circle cx="30.4185" cy="46.7500" r="0.2000" /> 
</g>
<g style="fill:#FFFFFF; fill-opacity:1.0000; stroke:none;">
<circle cx="30.4185" cy="44.2100" r="0.2000" /> 
</g>
<g style="fill:#FFFFFF; fill-opacity:1.0000; stroke:none;">
<circle cx="30.4185" cy="41.6700" r="0.2000" /> 
</g>
<g style="fill:#FFFFFF; fill-opacity:1.0000; stroke:none;">
<circle cx="34.3443" cy="70.0000" r="0.2000" /> 
</g>
<g style="fill:#FFFFFF; fill-opacity:1.0000; stroke:none;">
<circle cx="34.3443" cy="72.5400" r="0.2000" /> 
</g>
<g style="fill:#FFFFFF; fill-opacity:1.0000; stroke:none;">
<circle cx="34.3443" cy="75.0800" r="0.2000" /> 
</g>
<g style="fill:#FFFFFF; fill-opacity:1.0000; stroke:none;">
<circle cx="13.7428" cy="9.5000" r="0.2000" /> 
</g>
<g style="fill:#FFFFFF; fill-opacity:1.0000; stroke:none;">
<circle cx="13.7428" cy="7.0000" r="0.2000" /> 
</g>
<g style="fill:#FFFFFF; fill-opacity:1.0000; stroke:none;">
<circle cx="26.4928" cy="61.0800" r="0.2000" /> 
</g>
<g style="fill:#FFFFFF; fill-opacity:1.0000; stroke:none;">
<circle cx="26.4928" cy="58.5400" r="0.2000" /> 
</g>
<g style="fill:#FFFFFF; fill-opacity:1.0000; stroke:none;">
<circle cx="26.4928" cy="56.0000" r="0.2000" /> 
</g>
<g style="fill:#FFFFFF; fill-opacity:1.0000; stroke:none;">
<circle cx="25.7428" cy="32.2500" r="0.2000" /> 
</g>
<g style="fill:#FFFFFF; fill-opacity:1.0000; stroke:none;">
<circle cx="25.7428" cy="29.7100" r="0.2000" /> 
</g>
<g style="fill:#FFFFFF; fill-opacity:1.0000; stroke:none;">
<circle cx="25.7428" cy="27.1700" r="0.2000" /> 
</g>
<g style="fill:#FFFFFF; fill-opacity:1.0000; stroke:none;">
<circle cx="20.9928" cy="41.8400" r="0.2000" /> 
</g>
<g style="fill:#FFFFFF; fill-opacity:1.0000; stroke:none;">
<circle cx="20.9928" cy="44.3800" r="0.2000" /> 
</g>
<g style="fill:#FFFFFF; fill-opacity:1.0000; stroke:none;">
<circle cx="20.9928" cy="46.9200" r="0.2000" /> 
</g>
<g style="fill:#FFFFFF; fill-opacity:1.0000; stroke:none;">
<circle cx="20.9928" cy="49.4600" r="0.2000" /> 
</g>
<g style="fill:#FFFFFF; fill-opacity:1.0000; stroke:none;">
<circle cx="20.9928" cy="52.0000" r="0.2000" /> 
</g>
<g style="fill:#FFFFFF; fill-opacity:1.0000; stroke:none;">
<circle cx="20.9928" cy="54.5400" r="0.2000" /> 
</g>
<g style="fill:#FFFFFF; fill-opacity:1.0000; stroke:none;">
<circle cx="20.9928" cy="57.0800" r="0.2000" /> 
</g>
<g style="fill:#FFFFFF; fill-opacity:1.0000; stroke:none;">
<circle cx="20.9928" cy="59.6200" r="0.2000" /> 
</g>
<g style="fill:#FFFFFF; fill-opacity:1.0000; stroke:none;">
<circle cx="20.9928" cy="62.1600" r="0.2000" /> 
</g>
<g style="fill:#FFFFFF; fill-opacity:1.0000; stroke:none;">
<circle cx="20.9928" cy="64.7000" r="0.2000" /> 
</g>
<g style="fill:#FFFFFF; fill-opacity:1.0000; stroke:none;">
<circle cx="20.9928" cy="67.2400" r="0.2000" /> 
</g>
<g style="fill:#FFFFFF; fill-opacity:1.0000; stroke:none;">
<circle cx="20.9928" cy="69.7800" r="0.2000" /> 
</g>
<g style="fill:#FFFFFF; fill-opacity:1.0000; stroke:none;">
<circle cx="20.9928" cy="72.3200" r="0.2000" /> 
</g>
<g style="fill:#FFFFFF; fill-opacity:1.0000; stroke:none;">
<circle cx="20.9928" cy="74.8600" r="0.2000" /> 
</g>
<g style="fill:#FFFFFF; fill-opacity:1.0000; stroke:none;">
<circle cx="20.9928" cy="77.4000" r="0.2000" /> 
</g>
<g style="fill:#FFFFFF; fill-opacity:1.0000; stroke:none;">
<circle cx="5.7528" cy="77.4000" r="0.2000" /> 
</g>
<g style="fill:#FFFFFF; fill-opacity:1.0000; stroke:none;">
<circle cx="5.7528" cy="74.8600" r="0.2000" /> 
</g>
<g style="fill:#FFFFFF; fill-opacity:1.0000; stroke:none;">
<circle cx="5.7528" cy="72.3200" r="0.2000" /> 
</g>
<g style="fill:#FFFFFF; fill-opacity:1.0000; stroke:none;">
<circle cx="5.7528" cy="69.7800" r="0.2000" /> 
</g>
<g style="fill:#FFFFFF; fill-opacity:1.0000; stroke:none;">
<circle cx="5.7528" cy="67.2400" r="0.2000" /> 
</g>
<g style="fill:#FFFFFF; fill-opacity:1.0000; stroke:none;">
<circle cx="5.7528" cy="64.7000" r="0.2000" /> 
</g>
<g style="fill:#FFFFFF; fill-opacity:1.0000; stroke:none;">
<circle cx="5.7528" cy="62.1600" r="0.2000" /> 
</g>
<g style="fill:#FFFFFF; fill-opacity:1.0000; stroke:none;">
<circle cx="5.7528" cy="59.6200" r="0.2000" /> 
</g>
<g style="fill:#FFFFFF; fill-opacity:1.0000; stroke:none;">
<circle cx="5.7528" cy="57.0800" r="0.2000" /> 
</g>
<g style="fill:#FFFFFF; fill-opacity:1.0000; stroke:none;">
<circle cx="5.7528" cy="54.5400" r="0.2000" /> 
</g>
<g style="fill:#FFFFFF; fill-opacity:1.0000; stroke:none;">
<circle cx="5.7528" cy="52.0000" r="0.2000" /> 
</g>
<g style="fill:#FFFFFF; fill-opacity:1.0000; stroke:none;">
<circle cx="5.7528" cy="49.4600" r="0.2000" /> 
</g>
<g style="fill:#FFFFFF; fill-opacity:1.0000; stroke:none;">
<circle cx="5.7528" cy="46.9200" r="0.2000" /> 
</g>
<g style="fill:#FFFFFF; fill-opacity:1.0000; stroke:none;">
<circle cx="5.7528" cy="44.3800" r="0.2000" /> 
</g>
<g style="fill:#FFFFFF; fill-opacity:1.0000; stroke:none;">
<circle cx="5.7528" cy="41.8400" r="0.2000" /> 
</g>
<g style="fill:#FFFFFF; fill-opacity:1.0000; stroke:none;">
<circle cx="15.4928" cy="19.7500" r="0.2000" /> 
</g>
<g style="fill:#FFFFFF; fill-opacity:1.0000; stroke:none;">
<circle cx="15.4928" cy="17.2100" r="0.2000" /> 
</g>
<g style="fill:#FFFFFF; fill-opacity:1.0000; stroke:none;">
<circle cx="26.4928" cy="75.0800" r="0.2000" /> 
</g>
<g style="fill:#FFFFFF; fill-opacity:1.0000; stroke:none;">
<circle cx="26.4928" cy="72.5400" r="0.2000" /> 
</g>
<g style="fill:#FFFFFF; fill-opacity:1.0000; stroke:none;">
<circle cx="26.4928" cy="70.0000" r="0.2000" /> 
</g>
<g style="fill:#FFFFFF; fill-opacity:1.0000; stroke:none;">
<circle cx="16.4928" cy="32.2500" r="0.2000" /> 
</g>
<g style="fill:#FFFFFF; fill-opacity:1.0000; stroke:none;">
<circle cx="16.4928" cy="29.7100" r="0.2000" /> 
</g>
<g style="fill:#FFFFFF; fill-opacity:1.0000; stroke:none;">
<circle cx="16.4928" cy="27.1700" r="0.2000" /> 
</g>
<g style="fill:#FFFFFF; fill-opacity:1.0000; stroke:none;">
<circle cx="11.9928" cy="32.2500" r="0.2000" /> 
</g>
<g style="fill:#FFFFFF; fill-opacity:1.0000; stroke:none;">
<circle cx="11.9928" cy="29.7100" r="0.2000" /> 
</g>
<g style="fill:#FFFFFF; fill-opacity:1.0000; stroke:none;">
<circle cx="11.9928" cy="27.1700" r="0.2000" /> 
</g>
<g style="fill:#FFFFFF; fill-opacity:1.0000; stroke:none;">
<circle cx="30.4185" cy="61.0800" r="0.2000" /> 
</g>
<g style="fill:#FFFFFF; fill-opacity:1.0000; stroke:none;">
<circle cx="30.4185" cy="58.5400" r="0.2000" /> 
</g>
<g style="fill:#FFFFFF; fill-opacity:1.0000; stroke:none;">
<circle cx="30.4185" cy="56.0000" r="0.2000" /> 
</g>
<g style="fill:#FFFFFF; fill-opacity:1.0000; stroke:none;">
<circle cx="23.7428" cy="9.5000" r="0.2000" /> 
</g>
<g style="fill:#FFFFFF; fill-opacity:1.0000; stroke:none;">
<circle cx="23.7428" cy="7.0000" r="0.2000" /> 
</g>
<g style="fill:#FFFFFF; fill-opacity:1.0000; stroke:none;">
<circle cx="23.0328" cy="18.7500" r="0.2000" /> 
</g>
<g style="fill:#FFFFFF; fill-opacity:1.0000; stroke:none;">
<circle cx="20.4928" cy="18.7500" r="0.2000" /> 
</g>
<g style="fill:#FFFFFF; fill-opacity:1.0000; stroke:none;">
<circle cx="34.3443" cy="61.0800" r="0.2000" /> 
</g>
<g style="fill:#FFFFFF; fill-opacity:1.0000; stroke:none;">
<circle cx="34.3443" cy="58.5400" r="0.2000" /> 
</g>
<g style="fill:#FFFFFF; fill-opacity:1.0000; stroke:none;">
<circle cx="34.3443" cy="56.0000" r="0.2000" /> 
</g>
<g style="fill:#FFFFFF; fill-opacity:1.0000; stroke:none;">
<circle cx="36.4153" cy="5.5000" r="0.2000" /> 
</g>
<g style="fill:#FFFFFF; fill-opacity:1.0000; stroke:none;">
<circle cx="36.4153" cy="10.5000" r="0.2000" /> 
</g> 
</svg>
