<?xml version="1.0" standalone="no"?>
 <!DOCTYPE svg PUBLIC "-//W3C//DTD SVG 1.1//EN" 
 "http://www.w3.org/Graphics/SVG/1.1/DTD/svg11.dtd"> 
<svg
  xmlns:svg="http://www.w3.org/2000/svg"
  xmlns="http://www.w3.org/2000/svg"
  xmlns:xlink="http://www.w3.org/1999/xlink"
  xmlns:inkscape="http://www.inkscape.org/namespaces/inkscape"
  version="1.1"
  width="43.9928mm" height="84.9884mm" viewBox="0.0000 0.0000 43.9928 84.9884">
<title>SVG Image created as nano_IPBL_2026-B_Cu.svg date 2026-07-21T21:09:26 </title>
  <desc>Image generated by PCBNEW </desc>
<g style="fill:#000000; fill-opacity:1.0000;stroke:#000000; stroke-opacity:1.0000;
stroke-linecap:round; stroke-linejoin:round;"
 transform="translate(0 0) scale(1 1)">
</g>
<g style="fill:#000000; fill-opacity:1.0000; stroke:none;">
<rect x="-5.050000" y="-5.050000" width="54.100000" height="95.100000" rx="0.000000" />
</g>
<g style="fill:none; 
stroke:#FFFFFF; stroke-width:0.3000; stroke-opacity:1; 
stroke-linecap:round; stroke-linejoin:round;">
<g transform="rotate(-90.000000 38.0681 3.0000)">
<text x="38.0681" y="3.0000"
transform="scale(-1 1) translate(-76.136134 0)"
textLength="10.0886" font-size="1.6000" lengthAdjust="spacingAndGlyphs"
text-anchor="start" opacity="0" stroke-opacity="0">IPBL 2026</text>
</g>
<g class="stroked-text"><desc>IPBL 2026</desc>
<path d="M37.9056 3.4831
L36.7056 3.4831
" />
<path d="M37.9056 4.0545
L36.7056 4.0545
" />
<path d="M36.7056 4.0545
L36.7056 4.5117
" />
<path d="M36.7056 4.5117
L36.7628 4.6259
" />
<path d="M36.7628 4.6259
L36.8199 4.6831
" />
<path d="M36.8199 4.6831
L36.9342 4.7402
" />
<path d="M36.9342 4.7402
L37.1056 4.7402
" />
<path d="M37.1056 4.7402
L37.2199 4.6831
" />
<path d="M37.2199 4.6831
L37.2770 4.6259
" />
<path d="M37.2770 4.6259
L37.3342 4.5117
" />
<path d="M37.3342 4.5117
L37.3342 4.0545
" />
<path d="M37.2770 5.6545
L37.3342 5.8259
" />
<path d="M37.3342 5.8259
L37.3913 5.8831
" />
<path d="M37.3913 5.8831
L37.5056 5.9402
" />
<path d="M37.5056 5.9402
L37.6770 5.9402
" />
<path d="M37.6770 5.9402
L37.7913 5.8831
" />
<path d="M37.7913 5.8831
L37.8485 5.8259
" />
<path d="M37.8485 5.8259
L37.9056 5.7117
" />
<path d="M37.9056 5.7117
L37.9056 5.2545
" />
<path d="M37.9056 5.2545
L36.7056 5.2545
" />
<path d="M36.7056 5.2545
L36.7056 5.6545
" />
<path d="M36.7056 5.6545
L36.7628 5.7688
" />
<path d="M36.7628 5.7688
L36.8199 5.8259
" />
<path d="M36.8199 5.8259
L36.9342 5.8831
" />
<path d="M36.9342 5.8831
L37.0485 5.8831
" />
<path d="M37.0485 5.8831
L37.1628 5.8259
" />
<path d="M37.1628 5.8259
L37.2199 5.7688
" />
<path d="M37.2199 5.7688
L37.2770 5.6545
" />
<path d="M37.2770 5.6545
L37.2770 5.2545
" />
<path d="M37.9056 7.0259
L37.9056 6.4545
" />
<path d="M37.9056 6.4545
L36.7056 6.4545
" />
<path d="M36.8199 8.2831
L36.7628 8.3402
" />
<path d="M36.7628 8.3402
L36.7056 8.4545
" />
<path d="M36.7056 8.4545
L36.7056 8.7402
" />
<path d="M36.7056 8.7402
L36.7628 8.8545
" />
<path d="M36.7628 8.8545
L36.8199 8.9117
" />
<path d="M36.8199 8.9117
L36.9342 8.9688
" />
<path d="M36.9342 8.9688
L37.0485 8.9688
" />
<path d="M37.0485 8.9688
L37.2199 8.9117
" />
<path d="M37.2199 8.9117
L37.9056 8.2259
" />
<path d="M37.9056 8.2259
L37.9056 8.9688
" />
<path d="M36.7056 9.7117
L36.7056 9.8259
" />
<path d="M36.7056 9.8259
L36.7628 9.9402
" />
<path d="M36.7628 9.9402
L36.8199 9.9974
" />
<path d="M36.8199 9.9974
L36.9342 10.0545
" />
<path d="M36.9342 10.0545
L37.1628 10.1117
" />
<path d="M37.1628 10.1117
L37.4485 10.1117
" />
<path d="M37.4485 10.1117
L37.6770 10.0545
" />
<path d="M37.6770 10.0545
L37.7913 9.9974
" />
<path d="M37.7913 9.9974
L37.8485 9.9402
" />
<path d="M37.8485 9.9402
L37.9056 9.8259
" />
<path d="M37.9056 9.8259
L37.9056 9.7117
" />
<path d="M37.9056 9.7117
L37.8485 9.5974
" />
<path d="M37.8485 9.5974
L37.7913 9.5402
" />
<path d="M37.7913 9.5402
L37.6770 9.4831
" />
<path d="M37.6770 9.4831
L37.4485 9.4259
" />
<path d="M37.4485 9.4259
L37.1628 9.4259
" />
<path d="M37.1628 9.4259
L36.9342 9.4831
" />
<path d="M36.9342 9.4831
L36.8199 9.5402
" />
<path d="M36.8199 9.5402
L36.7628 9.5974
" />
<path d="M36.7628 9.5974
L36.7056 9.7117
" />
<path d="M36.8199 10.5688
L36.7628 10.6259
" />
<path d="M36.7628 10.6259
L36.7056 10.7402
" />
<path d="M36.7056 10.7402
L36.7056 11.0259
" />
<path d="M36.7056 11.0259
L36.7628 11.1402
" />
<path d="M36.7628 11.1402
L36.8199 11.1974
" />
<path d="M36.8199 11.1974
L36.9342 11.2545
" />
<path d="M36.9342 11.2545
L37.0485 11.2545
" />
<path d="M37.0485 11.2545
L37.2199 11.1974
" />
<path d="M37.2199 11.1974
L37.9056 10.5117
" />
<path d="M37.9056 10.5117
L37.9056 11.2545
" />
<path d="M36.7056 12.2831
L36.7056 12.0545
" />
<path d="M36.7056 12.0545
L36.7628 11.9402
" />
<path d="M36.7628 11.9402
L36.8199 11.8831
" />
<path d="M36.8199 11.8831
L36.9913 11.7688
" />
<path d="M36.9913 11.7688
L37.2199 11.7117
" />
<path d="M37.2199 11.7117
L37.6770 11.7117
" />
<path d="M37.6770 11.7117
L37.7913 11.7688
" />
<path d="M37.7913 11.7688
L37.8485 11.8259
" />
<path d="M37.8485 11.8259
L37.9056 11.9402
" />
<path d="M37.9056 11.9402
L37.9056 12.1688
" />
<path d="M37.9056 12.1688
L37.8485 12.2831
" />
<path d="M37.8485 12.2831
L37.7913 12.3402
" />
<path d="M37.7913 12.3402
L37.6770 12.3974
" />
<path d="M37.6770 12.3974
L37.3913 12.3974
" />
<path d="M37.3913 12.3974
L37.2770 12.3402
" />
<path d="M37.2770 12.3402
L37.2199 12.2831
" />
<path d="M37.2199 12.2831
L37.1628 12.1688
" />
<path d="M37.1628 12.1688
L37.1628 11.9402
" />
<path d="M37.1628 11.9402
L37.2199 11.8259
" />
<path d="M37.2199 11.8259
L37.2770 11.7688
" />
<path d="M37.2770 11.7688
L37.3913 11.7117
" />
</g><g transform="rotate(-90.000000 40.0000 3.0000)">
<text x="40.0000" y="3.0000"
transform="scale(-1 1) translate(-80.000000 0)"
textLength="18.5457" font-size="1.6000" lengthAdjust="spacingAndGlyphs"
text-anchor="start" opacity="0" stroke-opacity="0">SERVO-NANO CONN</text>
</g>
<g class="stroked-text"><desc>SERVO-NANO CONN</desc>
<path d="M39.7804 3.4259
L39.8375 3.5974
" />
<path d="M39.8375 3.5974
L39.8375 3.8831
" />
<path d="M39.8375 3.8831
L39.7804 3.9974
" />
<path d="M39.7804 3.9974
L39.7233 4.0545
" />
<path d="M39.7233 4.0545
L39.6090 4.1117
" />
<path d="M39.6090 4.1117
L39.4947 4.1117
" />
<path d="M39.4947 4.1117
L39.3804 4.0545
" />
<path d="M39.3804 4.0545
L39.3233 3.9974
" />
<path d="M39.3233 3.9974
L39.2661 3.8831
" />
<path d="M39.2661 3.8831
L39.2090 3.6545
" />
<path d="M39.2090 3.6545
L39.1518 3.5402
" />
<path d="M39.1518 3.5402
L39.0947 3.4831
" />
<path d="M39.0947 3.4831
L38.9804 3.4259
" />
<path d="M38.9804 3.4259
L38.8661 3.4259
" />
<path d="M38.8661 3.4259
L38.7518 3.4831
" />
<path d="M38.7518 3.4831
L38.6947 3.5402
" />
<path d="M38.6947 3.5402
L38.6375 3.6545
" />
<path d="M38.6375 3.6545
L38.6375 3.9402
" />
<path d="M38.6375 3.9402
L38.6947 4.1117
" />
<path d="M39.2090 4.6259
L39.2090 5.0259
" />
<path d="M39.8375 5.1974
L39.8375 4.6259
" />
<path d="M39.8375 4.6259
L38.6375 4.6259
" />
<path d="M38.6375 4.6259
L38.6375 5.1974
" />
<path d="M39.8375 6.3974
L39.2661 5.9974
" />
<path d="M39.8375 5.7117
L38.6375 5.7117
" />
<path d="M38.6375 5.7117
L38.6375 6.1688
" />
<path d="M38.6375 6.1688
L38.6947 6.2831
" />
<path d="M38.6947 6.2831
L38.7518 6.3402
" />
<path d="M38.7518 6.3402
L38.8661 6.3974
" />
<path d="M38.8661 6.3974
L39.0375 6.3974
" />
<path d="M39.0375 6.3974
L39.1518 6.3402
" />
<path d="M39.1518 6.3402
L39.2090 6.2831
" />
<path d="M39.2090 6.2831
L39.2661 6.1688
" />
<path d="M39.2661 6.1688
L39.2661 5.7117
" />
<path d="M38.6375 6.7402
L39.8375 7.1402
" />
<path d="M39.8375 7.1402
L38.6375 7.5402
" />
<path d="M38.6375 8.1688
L38.6375 8.3974
" />
<path d="M38.6375 8.3974
L38.6947 8.5117
" />
<path d="M38.6947 8.5117
L38.8090 8.6259
" />
<path d="M38.8090 8.6259
L39.0375 8.6831
" />
<path d="M39.0375 8.6831
L39.4375 8.6831
" />
<path d="M39.4375 8.6831
L39.6661 8.6259
" />
<path d="M39.6661 8.6259
L39.7804 8.5117
" />
<path d="M39.7804 8.5117
L39.8375 8.3974
" />
<path d="M39.8375 8.3974
L39.8375 8.1688
" />
<path d="M39.8375 8.1688
L39.7804 8.0545
" />
<path d="M39.7804 8.0545
L39.6661 7.9402
" />
<path d="M39.6661 7.9402
L39.4375 7.8831
" />
<path d="M39.4375 7.8831
L39.0375 7.8831
" />
<path d="M39.0375 7.8831
L38.8090 7.9402
" />
<path d="M38.8090 7.9402
L38.6947 8.0545
" />
<path d="M38.6947 8.0545
L38.6375 8.1688
" />
<path d="M39.3804 9.1974
L39.3804 10.1117
" />
<path d="M39.8375 10.6831
L38.6375 10.6831
" />
<path d="M38.6375 10.6831
L39.8375 11.3688
" />
<path d="M39.8375 11.3688
L38.6375 11.3688
" />
<path d="M39.4947 11.8831
L39.4947 12.4545
" />
<path d="M39.8375 11.7688
L38.6375 12.1688
" />
<path d="M38.6375 12.1688
L39.8375 12.5688
" />
<path d="M39.8375 12.9688
L38.6375 12.9688
" />
<path d="M38.6375 12.9688
L39.8375 13.6545
" />
<path d="M39.8375 13.6545
L38.6375 13.6545
" />
<path d="M38.6375 14.4545
L38.6375 14.6831
" />
<path d="M38.6375 14.6831
L38.6947 14.7974
" />
<path d="M38.6947 14.7974
L38.8090 14.9117
" />
<path d="M38.8090 14.9117
L39.0375 14.9688
" />
<path d="M39.0375 14.9688
L39.4375 14.9688
" />
<path d="M39.4375 14.9688
L39.6661 14.9117
" />
<path d="M39.6661 14.9117
L39.7804 14.7974
" />
<path d="M39.7804 14.7974
L39.8375 14.6831
" />
<path d="M39.8375 14.6831
L39.8375 14.4545
" />
<path d="M39.8375 14.4545
L39.7804 14.3402
" />
<path d="M39.7804 14.3402
L39.6661 14.2259
" />
<path d="M39.6661 14.2259
L39.4375 14.1688
" />
<path d="M39.4375 14.1688
L39.0375 14.1688
" />
<path d="M39.0375 14.1688
L38.8090 14.2259
" />
<path d="M38.8090 14.2259
L38.6947 14.3402
" />
<path d="M38.6947 14.3402
L38.6375 14.4545
" />
<path d="M39.7233 17.0831
L39.7804 17.0259
" />
<path d="M39.7804 17.0259
L39.8375 16.8545
" />
<path d="M39.8375 16.8545
L39.8375 16.7402
" />
<path d="M39.8375 16.7402
L39.7804 16.5688
" />
<path d="M39.7804 16.5688
L39.6661 16.4545
" />
<path d="M39.6661 16.4545
L39.5518 16.3974
" />
<path d="M39.5518 16.3974
L39.3233 16.3402
" />
<path d="M39.3233 16.3402
L39.1518 16.3402
" />
<path d="M39.1518 16.3402
L38.9233 16.3974
" />
<path d="M38.9233 16.3974
L38.8090 16.4545
" />
<path d="M38.8090 16.4545
L38.6947 16.5688
" />
<path d="M38.6947 16.5688
L38.6375 16.7402
" />
<path d="M38.6375 16.7402
L38.6375 16.8545
" />
<path d="M38.6375 16.8545
L38.6947 17.0259
" />
<path d="M38.6947 17.0259
L38.7518 17.0831
" />
<path d="M38.6375 17.8259
L38.6375 18.0545
" />
<path d="M38.6375 18.0545
L38.6947 18.1688
" />
<path d="M38.6947 18.1688
L38.8090 18.2831
" />
<path d="M38.8090 18.2831
L39.0375 18.3402
" />
<path d="M39.0375 18.3402
L39.4375 18.3402
" />
<path d="M39.4375 18.3402
L39.6661 18.2831
" />
<path d="M39.6661 18.2831
L39.7804 18.1688
" />
<path d="M39.7804 18.1688
L39.8375 18.0545
" />
<path d="M39.8375 18.0545
L39.8375 17.8259
" />
<path d="M39.8375 17.8259
L39.7804 17.7117
" />
<path d="M39.7804 17.7117
L39.6661 17.5974
" />
<path d="M39.6661 17.5974
L39.4375 17.5402
" />
<path d="M39.4375 17.5402
L39.0375 17.5402
" />
<path d="M39.0375 17.5402
L38.8090 17.5974
" />
<path d="M38.8090 17.5974
L38.6947 17.7117
" />
<path d="M38.6947 17.7117
L38.6375 17.8259
" />
<path d="M39.8375 18.8545
L38.6375 18.8545
" />
<path d="M38.6375 18.8545
L39.8375 19.5402
" />
<path d="M39.8375 19.5402
L38.6375 19.5402
" />
<path d="M39.8375 20.1117
L38.6375 20.1117
" />
<path d="M38.6375 20.1117
L39.8375 20.7974
" />
<path d="M39.8375 20.7974
L38.6375 20.7974
" />
</g><g transform="rotate(-90.000000 4.5000 21.0000)">
<text x="4.5000" y="21.0000"
transform="scale(-1 1) translate(-9.000000 0)"
textLength="32.6714" font-size="2.0000" lengthAdjust="spacingAndGlyphs"
text-anchor="start" opacity="0" stroke-opacity="0">School of Computer Studies</text>
</g>
<g class="stroked-text"><desc>School of Computer Studies</desc>
<path d="M4.2294 21.4831
L4.3008 21.6974
" />
<path d="M4.3008 21.6974
L4.3008 22.0545
" />
<path d="M4.3008 22.0545
L4.2294 22.1974
" />
<path d="M4.2294 22.1974
L4.1580 22.2688
" />
<path d="M4.1580 22.2688
L4.0151 22.3402
" />
<path d="M4.0151 22.3402
L3.8723 22.3402
" />
<path d="M3.8723 22.3402
L3.7294 22.2688
" />
<path d="M3.7294 22.2688
L3.6580 22.1974
" />
<path d="M3.6580 22.1974
L3.5865 22.0545
" />
<path d="M3.5865 22.0545
L3.5151 21.7688
" />
<path d="M3.5151 21.7688
L3.4437 21.6259
" />
<path d="M3.4437 21.6259
L3.3723 21.5545
" />
<path d="M3.3723 21.5545
L3.2294 21.4831
" />
<path d="M3.2294 21.4831
L3.0865 21.4831
" />
<path d="M3.0865 21.4831
L2.9437 21.5545
" />
<path d="M2.9437 21.5545
L2.8723 21.6259
" />
<path d="M2.8723 21.6259
L2.8008 21.7688
" />
<path d="M2.8008 21.7688
L2.8008 22.1259
" />
<path d="M2.8008 22.1259
L2.8723 22.3402
" />
<path d="M4.2294 23.6259
L4.3008 23.4831
" />
<path d="M4.3008 23.4831
L4.3008 23.1974
" />
<path d="M4.3008 23.1974
L4.2294 23.0545
" />
<path d="M4.2294 23.0545
L4.1580 22.9831
" />
<path d="M4.1580 22.9831
L4.0151 22.9117
" />
<path d="M4.0151 22.9117
L3.5865 22.9117
" />
<path d="M3.5865 22.9117
L3.4437 22.9831
" />
<path d="M3.4437 22.9831
L3.3723 23.0545
" />
<path d="M3.3723 23.0545
L3.3008 23.1974
" />
<path d="M3.3008 23.1974
L3.3008 23.4831
" />
<path d="M3.3008 23.4831
L3.3723 23.6259
" />
<path d="M4.3008 24.2688
L2.8008 24.2688
" />
<path d="M4.3008 24.9117
L3.5151 24.9117
" />
<path d="M3.5151 24.9117
L3.3723 24.8402
" />
<path d="M3.3723 24.8402
L3.3008 24.6974
" />
<path d="M3.3008 24.6974
L3.3008 24.4831
" />
<path d="M3.3008 24.4831
L3.3723 24.3402
" />
<path d="M3.3723 24.3402
L3.4437 24.2688
" />
<path d="M4.3008 25.8402
L4.2294 25.6974
" />
<path d="M4.2294 25.6974
L4.1580 25.6259
" />
<path d="M4.1580 25.6259
L4.0151 25.5545
" />
<path d="M4.0151 25.5545
L3.5865 25.5545
" />
<path d="M3.5865 25.5545
L3.4437 25.6259
" />
<path d="M3.4437 25.6259
L3.3723 25.6974
" />
<path d="M3.3723 25.6974
L3.3008 25.8402
" />
<path d="M3.3008 25.8402
L3.3008 26.0545
" />
<path d="M3.3008 26.0545
L3.3723 26.1974
" />
<path d="M3.3723 26.1974
L3.4437 26.2688
" />
<path d="M3.4437 26.2688
L3.5865 26.3402
" />
<path d="M3.5865 26.3402
L4.0151 26.3402
" />
<path d="M4.0151 26.3402
L4.1580 26.2688
" />
<path d="M4.1580 26.2688
L4.2294 26.1974
" />
<path d="M4.2294 26.1974
L4.3008 26.0545
" />
<path d="M4.3008 26.0545
L4.3008 25.8402
" />
<path d="M4.3008 27.1974
L4.2294 27.0545
" />
<path d="M4.2294 27.0545
L4.1580 26.9831
" />
<path d="M4.1580 26.9831
L4.0151 26.9117
" />
<path d="M4.0151 26.9117
L3.5865 26.9117
" />
<path d="M3.5865 26.9117
L3.4437 26.9831
" />
<path d="M3.4437 26.9831
L3.3723 27.0545
" />
<path d="M3.3723 27.0545
L3.3008 27.1974
" />
<path d="M3.3008 27.1974
L3.3008 27.4117
" />
<path d="M3.3008 27.4117
L3.3723 27.5545
" />
<path d="M3.3723 27.5545
L3.4437 27.6259
" />
<path d="M3.4437 27.6259
L3.5865 27.6974
" />
<path d="M3.5865 27.6974
L4.0151 27.6974
" />
<path d="M4.0151 27.6974
L4.1580 27.6259
" />
<path d="M4.1580 27.6259
L4.2294 27.5545
" />
<path d="M4.2294 27.5545
L4.3008 27.4117
" />
<path d="M4.3008 27.4117
L4.3008 27.1974
" />
<path d="M4.3008 28.5545
L4.2294 28.4117
" />
<path d="M4.2294 28.4117
L4.0865 28.3402
" />
<path d="M4.0865 28.3402
L2.8008 28.3402
" />
<path d="M4.3008 30.4831
L4.2294 30.3402
" />
<path d="M4.2294 30.3402
L4.1580 30.2688
" />
<path d="M4.1580 30.2688
L4.0151 30.1974
" />
<path d="M4.0151 30.1974
L3.5865 30.1974
" />
<path d="M3.5865 30.1974
L3.4437 30.2688
" />
<path d="M3.4437 30.2688
L3.3723 30.3402
" />
<path d="M3.3723 30.3402
L3.3008 30.4831
" />
<path d="M3.3008 30.4831
L3.3008 30.6974
" />
<path d="M3.3008 30.6974
L3.3723 30.8402
" />
<path d="M3.3723 30.8402
L3.4437 30.9117
" />
<path d="M3.4437 30.9117
L3.5865 30.9831
" />
<path d="M3.5865 30.9831
L4.0151 30.9831
" />
<path d="M4.0151 30.9831
L4.1580 30.9117
" />
<path d="M4.1580 30.9117
L4.2294 30.8402
" />
<path d="M4.2294 30.8402
L4.3008 30.6974
" />
<path d="M4.3008 30.6974
L4.3008 30.4831
" />
<path d="M3.3008 31.4117
L3.3008 31.9831
" />
<path d="M4.3008 31.6259
L3.0151 31.6259
" />
<path d="M3.0151 31.6259
L2.8723 31.6974
" />
<path d="M2.8723 31.6974
L2.8008 31.8402
" />
<path d="M2.8008 31.8402
L2.8008 31.9831
" />
<path d="M4.1580 34.4831
L4.2294 34.4117
" />
<path d="M4.2294 34.4117
L4.3008 34.1974
" />
<path d="M4.3008 34.1974
L4.3008 34.0545
" />
<path d="M4.3008 34.0545
L4.2294 33.8402
" />
<path d="M4.2294 33.8402
L4.0865 33.6974
" />
<path d="M4.0865 33.6974
L3.9437 33.6259
" />
<path d="M3.9437 33.6259
L3.6580 33.5545
" />
<path d="M3.6580 33.5545
L3.4437 33.5545
" />
<path d="M3.4437 33.5545
L3.1580 33.6259
" />
<path d="M3.1580 33.6259
L3.0151 33.6974
" />
<path d="M3.0151 33.6974
L2.8723 33.8402
" />
<path d="M2.8723 33.8402
L2.8008 34.0545
" />
<path d="M2.8008 34.0545
L2.8008 34.1974
" />
<path d="M2.8008 34.1974
L2.8723 34.4117
" />
<path d="M2.8723 34.4117
L2.9437 34.4831
" />
<path d="M4.3008 35.3402
L4.2294 35.1974
" />
<path d="M4.2294 35.1974
L4.1580 35.1259
" />
<path d="M4.1580 35.1259
L4.0151 35.0545
" />
<path d="M4.0151 35.0545
L3.5865 35.0545
" />
<path d="M3.5865 35.0545
L3.4437 35.1259
" />
<path d="M3.4437 35.1259
L3.3723 35.1974
" />
<path d="M3.3723 35.1974
L3.3008 35.3402
" />
<path d="M3.3008 35.3402
L3.3008 35.5545
" />
<path d="M3.3008 35.5545
L3.3723 35.6974
" />
<path d="M3.3723 35.6974
L3.4437 35.7688
" />
<path d="M3.4437 35.7688
L3.5865 35.8402
" />
<path d="M3.5865 35.8402
L4.0151 35.8402
" />
<path d="M4.0151 35.8402
L4.1580 35.7688
" />
<path d="M4.1580 35.7688
L4.2294 35.6974
" />
<path d="M4.2294 35.6974
L4.3008 35.5545
" />
<path d="M4.3008 35.5545
L4.3008 35.3402
" />
<path d="M4.3008 36.4831
L3.3008 36.4831
" />
<path d="M3.4437 36.4831
L3.3723 36.5545
" />
<path d="M3.3723 36.5545
L3.3008 36.6974
" />
<path d="M3.3008 36.6974
L3.3008 36.9117
" />
<path d="M3.3008 36.9117
L3.3723 37.0545
" />
<path d="M3.3723 37.0545
L3.5151 37.1259
" />
<path d="M3.5151 37.1259
L4.3008 37.1259
" />
<path d="M3.5151 37.1259
L3.3723 37.1974
" />
<path d="M3.3723 37.1974
L3.3008 37.3402
" />
<path d="M3.3008 37.3402
L3.3008 37.5545
" />
<path d="M3.3008 37.5545
L3.3723 37.6974
" />
<path d="M3.3723 37.6974
L3.5151 37.7688
" />
<path d="M3.5151 37.7688
L4.3008 37.7688
" />
<path d="M3.3008 38.4831
L4.8008 38.4831
" />
<path d="M3.3723 38.4831
L3.3008 38.6259
" />
<path d="M3.3008 38.6259
L3.3008 38.9117
" />
<path d="M3.3008 38.9117
L3.3723 39.0545
" />
<path d="M3.3723 39.0545
L3.4437 39.1259
" />
<path d="M3.4437 39.1259
L3.5865 39.1974
" />
<path d="M3.5865 39.1974
L4.0151 39.1974
" />
<path d="M4.0151 39.1974
L4.1580 39.1259
" />
<path d="M4.1580 39.1259
L4.2294 39.0545
" />
<path d="M4.2294 39.0545
L4.3008 38.9117
" />
<path d="M4.3008 38.9117
L4.3008 38.6259
" />
<path d="M4.3008 38.6259
L4.2294 38.4831
" />
<path d="M3.3008 40.4831
L4.3008 40.4831
" />
<path d="M3.3008 39.8402
L4.0865 39.8402
" />
<path d="M4.0865 39.8402
L4.2294 39.9117
" />
<path d="M4.2294 39.9117
L4.3008 40.0545
" />
<path d="M4.3008 40.0545
L4.3008 40.2688
" />
<path d="M4.3008 40.2688
L4.2294 40.4117
" />
<path d="M4.2294 40.4117
L4.1580 40.4831
" />
<path d="M3.3008 40.9831
L3.3008 41.5545
" />
<path d="M2.8008 41.1974
L4.0865 41.1974
" />
<path d="M4.0865 41.1974
L4.2294 41.2688
" />
<path d="M4.2294 41.2688
L4.3008 41.4117
" />
<path d="M4.3008 41.4117
L4.3008 41.5545
" />
<path d="M4.2294 42.6259
L4.3008 42.4831
" />
<path d="M4.3008 42.4831
L4.3008 42.1974
" />
<path d="M4.3008 42.1974
L4.2294 42.0545
" />
<path d="M4.2294 42.0545
L4.0865 41.9831
" />
<path d="M4.0865 41.9831
L3.5151 41.9831
" />
<path d="M3.5151 41.9831
L3.3723 42.0545
" />
<path d="M3.3723 42.0545
L3.3008 42.1974
" />
<path d="M3.3008 42.1974
L3.3008 42.4831
" />
<path d="M3.3008 42.4831
L3.3723 42.6259
" />
<path d="M3.3723 42.6259
L3.5151 42.6974
" />
<path d="M3.5151 42.6974
L3.6580 42.6974
" />
<path d="M3.6580 42.6974
L3.8008 41.9831
" />
<path d="M4.3008 43.3402
L3.3008 43.3402
" />
<path d="M3.5865 43.3402
L3.4437 43.4117
" />
<path d="M3.4437 43.4117
L3.3723 43.4831
" />
<path d="M3.3723 43.4831
L3.3008 43.6259
" />
<path d="M3.3008 43.6259
L3.3008 43.7688
" />
<path d="M4.2294 45.3402
L4.3008 45.5545
" />
<path d="M4.3008 45.5545
L4.3008 45.9117
" />
<path d="M4.3008 45.9117
L4.2294 46.0545
" />
<path d="M4.2294 46.0545
L4.1580 46.1259
" />
<path d="M4.1580 46.1259
L4.0151 46.1974
" />
<path d="M4.0151 46.1974
L3.8723 46.1974
" />
<path d="M3.8723 46.1974
L3.7294 46.1259
" />
<path d="M3.7294 46.1259
L3.6580 46.0545
" />
<path d="M3.6580 46.0545
L3.5865 45.9117
" />
<path d="M3.5865 45.9117
L3.5151 45.6259
" />
<path d="M3.5151 45.6259
L3.4437 45.4831
" />
<path d="M3.4437 45.4831
L3.3723 45.4117
" />
<path d="M3.3723 45.4117
L3.2294 45.3402
" />
<path d="M3.2294 45.3402
L3.0865 45.3402
" />
<path d="M3.0865 45.3402
L2.9437 45.4117
" />
<path d="M2.9437 45.4117
L2.8723 45.4831
" />
<path d="M2.8723 45.4831
L2.8008 45.6259
" />
<path d="M2.8008 45.6259
L2.8008 45.9831
" />
<path d="M2.8008 45.9831
L2.8723 46.1974
" />
<path d="M3.3008 46.6259
L3.3008 47.1974
" />
<path d="M2.8008 46.8402
L4.0865 46.8402
" />
<path d="M4.0865 46.8402
L4.2294 46.9117
" />
<path d="M4.2294 46.9117
L4.3008 47.0545
" />
<path d="M4.3008 47.0545
L4.3008 47.1974
" />
<path d="M3.3008 48.3402
L4.3008 48.3402
" />
<path d="M3.3008 47.6974
L4.0865 47.6974
" />
<path d="M4.0865 47.6974
L4.2294 47.7688
" />
<path d="M4.2294 47.7688
L4.3008 47.9117
" />
<path d="M4.3008 47.9117
L4.3008 48.1259
" />
<path d="M4.3008 48.1259
L4.2294 48.2688
" />
<path d="M4.2294 48.2688
L4.1580 48.3402
" />
<path d="M4.3008 49.6974
L2.8008 49.6974
" />
<path d="M4.2294 49.6974
L4.3008 49.5545
" />
<path d="M4.3008 49.5545
L4.3008 49.2688
" />
<path d="M4.3008 49.2688
L4.2294 49.1259
" />
<path d="M4.2294 49.1259
L4.1580 49.0545
" />
<path d="M4.1580 49.0545
L4.0151 48.9831
" />
<path d="M4.0151 48.9831
L3.5865 48.9831
" />
<path d="M3.5865 48.9831
L3.4437 49.0545
" />
<path d="M3.4437 49.0545
L3.3723 49.1259
" />
<path d="M3.3723 49.1259
L3.3008 49.2688
" />
<path d="M3.3008 49.2688
L3.3008 49.5545
" />
<path d="M3.3008 49.5545
L3.3723 49.6974
" />
<path d="M4.3008 50.4117
L3.3008 50.4117
" />
<path d="M2.8008 50.4117
L2.8723 50.3402
" />
<path d="M2.8723 50.3402
L2.9437 50.4117
" />
<path d="M2.9437 50.4117
L2.8723 50.4831
" />
<path d="M2.8723 50.4831
L2.8008 50.4117
" />
<path d="M2.8008 50.4117
L2.9437 50.4117
" />
<path d="M4.2294 51.6974
L4.3008 51.5545
" />
<path d="M4.3008 51.5545
L4.3008 51.2688
" />
<path d="M4.3008 51.2688
L4.2294 51.1259
" />
<path d="M4.2294 51.1259
L4.0865 51.0545
" />
<path d="M4.0865 51.0545
L3.5151 51.0545
" />
<path d="M3.5151 51.0545
L3.3723 51.1259
" />
<path d="M3.3723 51.1259
L3.3008 51.2688
" />
<path d="M3.3008 51.2688
L3.3008 51.5545
" />
<path d="M3.3008 51.5545
L3.3723 51.6974
" />
<path d="M3.3723 51.6974
L3.5151 51.7688
" />
<path d="M3.5151 51.7688
L3.6580 51.7688
" />
<path d="M3.6580 51.7688
L3.8008 51.0545
" />
<path d="M4.2294 52.3402
L4.3008 52.4831
" />
<path d="M4.3008 52.4831
L4.3008 52.7688
" />
<path d="M4.3008 52.7688
L4.2294 52.9117
" />
<path d="M4.2294 52.9117
L4.0865 52.9831
" />
<path d="M4.0865 52.9831
L4.0151 52.9831
" />
<path d="M4.0151 52.9831
L3.8723 52.9117
" />
<path d="M3.8723 52.9117
L3.8008 52.7688
" />
<path d="M3.8008 52.7688
L3.8008 52.5545
" />
<path d="M3.8008 52.5545
L3.7294 52.4117
" />
<path d="M3.7294 52.4117
L3.5865 52.3402
" />
<path d="M3.5865 52.3402
L3.5151 52.3402
" />
<path d="M3.5151 52.3402
L3.3723 52.4117
" />
<path d="M3.3723 52.4117
L3.3008 52.5545
" />
<path d="M3.3008 52.5545
L3.3008 52.7688
" />
<path d="M3.3008 52.7688
L3.3723 52.9117
" />
</g><g transform="rotate(-90.000000 4.5000 62.5000)">
<text x="4.5000" y="62.5000"
transform="scale(-1 1) translate(-9.000000 0)"
textLength="19.5286" font-size="2.0000" lengthAdjust="spacingAndGlyphs"
text-anchor="start" opacity="0" stroke-opacity="0">PCB Design v3.2</text>
</g>
<g class="stroked-text"><desc>PCB Design v3.2</desc>
<path d="M4.3008 63.0545
L2.8008 63.0545
" />
<path d="M2.8008 63.0545
L2.8008 63.6259
" />
<path d="M2.8008 63.6259
L2.8723 63.7688
" />
<path d="M2.8723 63.7688
L2.9437 63.8402
" />
<path d="M2.9437 63.8402
L3.0865 63.9117
" />
<path d="M3.0865 63.9117
L3.3008 63.9117
" />
<path d="M3.3008 63.9117
L3.4437 63.8402
" />
<path d="M3.4437 63.8402
L3.5151 63.7688
" />
<path d="M3.5151 63.7688
L3.5865 63.6259
" />
<path d="M3.5865 63.6259
L3.5865 63.0545
" />
<path d="M4.1580 65.4117
L4.2294 65.3402
" />
<path d="M4.2294 65.3402
L4.3008 65.1259
" />
<path d="M4.3008 65.1259
L4.3008 64.9831
" />
<path d="M4.3008 64.9831
L4.2294 64.7688
" />
<path d="M4.2294 64.7688
L4.0865 64.6259
" />
<path d="M4.0865 64.6259
L3.9437 64.5545
" />
<path d="M3.9437 64.5545
L3.6580 64.4831
" />
<path d="M3.6580 64.4831
L3.4437 64.4831
" />
<path d="M3.4437 64.4831
L3.1580 64.5545
" />
<path d="M3.1580 64.5545
L3.0151 64.6259
" />
<path d="M3.0151 64.6259
L2.8723 64.7688
" />
<path d="M2.8723 64.7688
L2.8008 64.9831
" />
<path d="M2.8008 64.9831
L2.8008 65.1259
" />
<path d="M2.8008 65.1259
L2.8723 65.3402
" />
<path d="M2.8723 65.3402
L2.9437 65.4117
" />
<path d="M3.5151 66.5545
L3.5865 66.7688
" />
<path d="M3.5865 66.7688
L3.6580 66.8402
" />
<path d="M3.6580 66.8402
L3.8008 66.9117
" />
<path d="M3.8008 66.9117
L4.0151 66.9117
" />
<path d="M4.0151 66.9117
L4.1580 66.8402
" />
<path d="M4.1580 66.8402
L4.2294 66.7688
" />
<path d="M4.2294 66.7688
L4.3008 66.6259
" />
<path d="M4.3008 66.6259
L4.3008 66.0545
" />
<path d="M4.3008 66.0545
L2.8008 66.0545
" />
<path d="M2.8008 66.0545
L2.8008 66.5545
" />
<path d="M2.8008 66.5545
L2.8723 66.6974
" />
<path d="M2.8723 66.6974
L2.9437 66.7688
" />
<path d="M2.9437 66.7688
L3.0865 66.8402
" />
<path d="M3.0865 66.8402
L3.2294 66.8402
" />
<path d="M3.2294 66.8402
L3.3723 66.7688
" />
<path d="M3.3723 66.7688
L3.4437 66.6974
" />
<path d="M3.4437 66.6974
L3.5151 66.5545
" />
<path d="M3.5151 66.5545
L3.5151 66.0545
" />
<path d="M4.3008 68.6974
L2.8008 68.6974
" />
<path d="M2.8008 68.6974
L2.8008 69.0545
" />
<path d="M2.8008 69.0545
L2.8723 69.2688
" />
<path d="M2.8723 69.2688
L3.0151 69.4117
" />
<path d="M3.0151 69.4117
L3.1580 69.4831
" />
<path d="M3.1580 69.4831
L3.4437 69.5545
" />
<path d="M3.4437 69.5545
L3.6580 69.5545
" />
<path d="M3.6580 69.5545
L3.9437 69.4831
" />
<path d="M3.9437 69.4831
L4.0865 69.4117
" />
<path d="M4.0865 69.4117
L4.2294 69.2688
" />
<path d="M4.2294 69.2688
L4.3008 69.0545
" />
<path d="M4.3008 69.0545
L4.3008 68.6974
" />
<path d="M4.2294 70.7688
L4.3008 70.6259
" />
<path d="M4.3008 70.6259
L4.3008 70.3402
" />
<path d="M4.3008 70.3402
L4.2294 70.1974
" />
<path d="M4.2294 70.1974
L4.0865 70.1259
" />
<path d="M4.0865 70.1259
L3.5151 70.1259
" />
<path d="M3.5151 70.1259
L3.3723 70.1974
" />
<path d="M3.3723 70.1974
L3.3008 70.3402
" />
<path d="M3.3008 70.3402
L3.3008 70.6259
" />
<path d="M3.3008 70.6259
L3.3723 70.7688
" />
<path d="M3.3723 70.7688
L3.5151 70.8402
" />
<path d="M3.5151 70.8402
L3.6580 70.8402
" />
<path d="M3.6580 70.8402
L3.8008 70.1259
" />
<path d="M4.2294 71.4117
L4.3008 71.5545
" />
<path d="M4.3008 71.5545
L4.3008 71.8402
" />
<path d="M4.3008 71.8402
L4.2294 71.9831
" />
<path d="M4.2294 71.9831
L4.0865 72.0545
" />
<path d="M4.0865 72.0545
L4.0151 72.0545
" />
<path d="M4.0151 72.0545
L3.8723 71.9831
" />
<path d="M3.8723 71.9831
L3.8008 71.8402
" />
<path d="M3.8008 71.8402
L3.8008 71.6259
" />
<path d="M3.8008 71.6259
L3.7294 71.4831
" />
<path d="M3.7294 71.4831
L3.5865 71.4117
" />
<path d="M3.5865 71.4117
L3.5151 71.4117
" />
<path d="M3.5151 71.4117
L3.3723 71.4831
" />
<path d="M3.3723 71.4831
L3.3008 71.6259
" />
<path d="M3.3008 71.6259
L3.3008 71.8402
" />
<path d="M3.3008 71.8402
L3.3723 71.9831
" />
<path d="M4.3008 72.6974
L3.3008 72.6974
" />
<path d="M2.8008 72.6974
L2.8723 72.6259
" />
<path d="M2.8723 72.6259
L2.9437 72.6974
" />
<path d="M2.9437 72.6974
L2.8723 72.7688
" />
<path d="M2.8723 72.7688
L2.8008 72.6974
" />
<path d="M2.8008 72.6974
L2.9437 72.6974
" />
<path d="M3.3008 74.0545
L4.5151 74.0545
" />
<path d="M4.5151 74.0545
L4.6580 73.9831
" />
<path d="M4.6580 73.9831
L4.7294 73.9117
" />
<path d="M4.7294 73.9117
L4.8008 73.7688
" />
<path d="M4.8008 73.7688
L4.8008 73.5545
" />
<path d="M4.8008 73.5545
L4.7294 73.4117
" />
<path d="M4.2294 74.0545
L4.3008 73.9117
" />
<path d="M4.3008 73.9117
L4.3008 73.6259
" />
<path d="M4.3008 73.6259
L4.2294 73.4831
" />
<path d="M4.2294 73.4831
L4.1580 73.4117
" />
<path d="M4.1580 73.4117
L4.0151 73.3402
" />
<path d="M4.0151 73.3402
L3.5865 73.3402
" />
<path d="M3.5865 73.3402
L3.4437 73.4117
" />
<path d="M3.4437 73.4117
L3.3723 73.4831
" />
<path d="M3.3723 73.4831
L3.3008 73.6259
" />
<path d="M3.3008 73.6259
L3.3008 73.9117
" />
<path d="M3.3008 73.9117
L3.3723 74.0545
" />
<path d="M3.3008 74.7688
L4.3008 74.7688
" />
<path d="M3.4437 74.7688
L3.3723 74.8402
" />
<path d="M3.3723 74.8402
L3.3008 74.9831
" />
<path d="M3.3008 74.9831
L3.3008 75.1974
" />
<path d="M3.3008 75.1974
L3.3723 75.3402
" />
<path d="M3.3723 75.3402
L3.5151 75.4117
" />
<path d="M3.5151 75.4117
L4.3008 75.4117
" />
<path d="M3.3008 77.1259
L4.3008 77.4831
" />
<path d="M4.3008 77.4831
L3.3008 77.8402
" />
<path d="M2.8008 78.2688
L2.8008 79.1974
" />
<path d="M2.8008 79.1974
L3.3723 78.6974
" />
<path d="M3.3723 78.6974
L3.3723 78.9117
" />
<path d="M3.3723 78.9117
L3.4437 79.0545
" />
<path d="M3.4437 79.0545
L3.5151 79.1259
" />
<path d="M3.5151 79.1259
L3.6580 79.1974
" />
<path d="M3.6580 79.1974
L4.0151 79.1974
" />
<path d="M4.0151 79.1974
L4.1580 79.1259
" />
<path d="M4.1580 79.1259
L4.2294 79.0545
" />
<path d="M4.2294 79.0545
L4.3008 78.9117
" />
<path d="M4.3008 78.9117
L4.3008 78.4831
" />
<path d="M4.3008 78.4831
L4.2294 78.3402
" />
<path d="M4.2294 78.3402
L4.1580 78.2688
" />
<path d="M4.1580 79.8402
L4.2294 79.9117
" />
<path d="M4.2294 79.9117
L4.3008 79.8402
" />
<path d="M4.3008 79.8402
L4.2294 79.7688
" />
<path d="M4.2294 79.7688
L4.1580 79.8402
" />
<path d="M4.1580 79.8402
L4.3008 79.8402
" />
<path d="M2.9437 80.4831
L2.8723 80.5545
" />
<path d="M2.8723 80.5545
L2.8008 80.6974
" />
<path d="M2.8008 80.6974
L2.8008 81.0545
" />
<path d="M2.8008 81.0545
L2.8723 81.1974
" />
<path d="M2.8723 81.1974
L2.9437 81.2688
" />
<path d="M2.9437 81.2688
L3.0865 81.3402
" />
<path d="M3.0865 81.3402
L3.2294 81.3402
" />
<path d="M3.2294 81.3402
L3.4437 81.2688
" />
<path d="M3.4437 81.2688
L4.3008 80.4117
" />
<path d="M4.3008 80.4117
L4.3008 81.3402
" />
</g></g>
<g style="fill:#FFFFFF; fill-opacity:1.0000; stroke:none;">
<circle cx="19.0000" cy="39.0000" r="1.1000" /> 
<path style="fill:#FFFFFF; fill-opacity:1.0000; stroke:none;fill-rule:evenodd;"
d="M 14.6743,45.6500
14.6743,47.8500
12.4743,47.8500
12.4743,45.6500
Z" /> 
<circle cx="13.5743" cy="44.2100" r="1.1000" /> 
<circle cx="13.5743" cy="41.6700" r="1.1000" /> 
<path style="fill:#FFFFFF; fill-opacity:1.0000; stroke:none;fill-rule:evenodd;"
d="M 23.8500,31.1500
23.8500,33.3500
21.6500,33.3500
21.6500,31.1500
Z" /> 
<circle cx="22.7500" cy="29.7100" r="1.1000" /> 
<circle cx="22.7500" cy="27.1700" r="1.1000" /> 
<path style="fill:#FFFFFF; fill-opacity:1.0000; stroke:none;fill-rule:evenodd;"
d="M 37.4937,35.6000
37.4048,35.5883
37.2966,35.5378
37.2122,35.4534
37.1617,35.3452
37.1500,35.2563
37.1500,33.7437
37.1617,33.6548
37.2122,33.5466
37.2966,33.4622
37.4048,33.4117
37.4937,33.4000
39.0063,33.4000
39.0952,33.4117
39.2034,33.4622
39.2878,33.5466
39.3383,33.6548
39.3500,33.7437
39.3500,35.2563
39.3383,35.3452
39.2878,35.4534
39.2034,35.5378
39.0952,35.5883
39.0063,35.6000
Z" /> 
<circle cx="38.2500" cy="32.0000" r="1.1000" /> 
<path style="fill:#FFFFFF; fill-opacity:1.0000; stroke:none;fill-rule:evenodd;"
d="M 14.6743,73.9800
14.6743,76.1800
12.4743,76.1800
12.4743,73.9800
Z" /> 
<circle cx="13.5743" cy="72.5400" r="1.1000" /> 
<circle cx="13.5743" cy="70.0000" r="1.1000" /> 
<path style="fill:#FFFFFF; fill-opacity:1.0000; stroke:none;fill-rule:evenodd;"
d="M 10.7485,45.6500
10.7485,47.8500
8.5485,47.8500
8.5485,45.6500
Z" /> 
<circle cx="9.6485" cy="44.2100" r="1.1000" /> 
<circle cx="9.6485" cy="41.6700" r="1.1000" /> 
<path style="fill:#FFFFFF; fill-opacity:1.0000; stroke:none;fill-rule:evenodd;"
d="M 10.7485,73.9800
10.7485,76.1800
8.5485,76.1800
8.5485,73.9800
Z" /> 
<circle cx="9.6485" cy="72.5400" r="1.1000" /> 
<circle cx="9.6485" cy="70.0000" r="1.1000" /> 
<circle cx="5.0000" cy="8.0000" r="1.1000" /> 
<circle cx="5.0000" cy="13.0000" r="1.1000" /> 
<circle cx="13.2000" cy="20.8000" r="1.1000" /> 
<path style="fill:#FFFFFF; fill-opacity:1.0000; stroke:none;fill-rule:evenodd;"
d="M 27.5938,11.3000
27.5048,11.2883
27.3966,11.2378
27.3122,11.1534
27.2617,11.0452
27.2500,10.9562
27.2500,9.4437
27.2617,9.3548
27.3122,9.2466
27.3966,9.1622
27.5048,9.1117
27.5938,9.1000
29.1062,9.1000
29.1952,9.1117
29.3034,9.1622
29.3878,9.2466
29.4383,9.3548
29.4500,9.4437
29.4500,10.9562
29.4383,11.0452
29.3878,11.1534
29.3034,11.2378
29.1952,11.2883
29.1062,11.3000
Z" /> 
<circle cx="28.3500" cy="7.7000" r="1.1000" /> 
<path style="fill:#FFFFFF; fill-opacity:1.0000; stroke:none;fill-rule:evenodd;"
d="M 18.6000,59.9800
18.6000,62.1800
16.4000,62.1800
16.4000,59.9800
Z" /> 
<circle cx="17.5000" cy="58.5400" r="1.1000" /> 
<circle cx="17.5000" cy="56.0000" r="1.1000" /> 
<path style="fill:#FFFFFF; fill-opacity:1.0000; stroke:none;fill-rule:evenodd;"
d="M 19.3500,31.1500
19.3500,33.3500
17.1500,33.3500
17.1500,31.1500
Z" /> 
<circle cx="18.2500" cy="29.7100" r="1.1000" /> 
<circle cx="18.2500" cy="27.1700" r="1.1000" /> 
<path style="fill:#FFFFFF; fill-opacity:1.0000; stroke:none;fill-rule:evenodd;"
d="M 21.9000,42.9400
21.9000,40.7400
24.1000,40.7400
24.1000,42.9400
Z" /> 
<circle cx="23.0000" cy="44.3800" r="1.1000" /> 
<circle cx="23.0000" cy="46.9200" r="1.1000" /> 
<circle cx="23.0000" cy="49.4600" r="1.1000" /> 
<circle cx="23.0000" cy="52.0000" r="1.1000" /> 
<circle cx="23.0000" cy="54.5400" r="1.1000" /> 
<circle cx="23.0000" cy="57.0800" r="1.1000" /> 
<circle cx="23.0000" cy="59.6200" r="1.1000" /> 
<circle cx="23.0000" cy="62.1600" r="1.1000" /> 
<circle cx="23.0000" cy="64.7000" r="1.1000" /> 
<circle cx="23.0000" cy="67.2400" r="1.1000" /> 
<circle cx="23.0000" cy="69.7800" r="1.1000" /> 
<circle cx="23.0000" cy="72.3200" r="1.1000" /> 
<circle cx="23.0000" cy="74.8600" r="1.1000" /> 
<circle cx="23.0000" cy="77.4000" r="1.1000" /> 
<circle cx="38.2400" cy="77.4000" r="1.1000" /> 
<circle cx="38.2400" cy="74.8600" r="1.1000" /> 
<circle cx="38.2400" cy="72.3200" r="1.1000" /> 
<circle cx="38.2400" cy="69.7800" r="1.1000" /> 
<circle cx="38.2400" cy="67.2400" r="1.1000" /> 
<circle cx="38.2400" cy="64.7000" r="1.1000" /> 
<circle cx="38.2400" cy="62.1600" r="1.1000" /> 
<circle cx="38.2400" cy="59.6200" r="1.1000" /> 
<circle cx="38.2400" cy="57.0800" r="1.1000" /> 
<circle cx="38.2400" cy="54.5400" r="1.1000" /> 
<circle cx="38.2400" cy="52.0000" r="1.1000" /> 
<circle cx="38.2400" cy="49.4600" r="1.1000" /> 
<circle cx="38.2400" cy="46.9200" r="1.1000" /> 
<circle cx="38.2400" cy="44.3800" r="1.1000" /> 
<circle cx="38.2400" cy="41.8400" r="1.1000" /> 
<circle cx="28.5000" cy="19.7500" r="1.1000" /> 
<circle cx="28.5000" cy="17.2100" r="1.1000" /> 
<path style="fill:#FFFFFF; fill-opacity:1.0000; stroke:none;fill-rule:evenodd;"
d="M 18.6000,73.9800
18.6000,76.1800
16.4000,76.1800
16.4000,73.9800
Z" /> 
<circle cx="17.5000" cy="72.5400" r="1.1000" /> 
<circle cx="17.5000" cy="70.0000" r="1.1000" /> 
<circle cx="9.0000" cy="20.8000" r="1.1000" /> 
<path style="fill:#FFFFFF; fill-opacity:1.0000; stroke:none;fill-rule:evenodd;"
d="M 28.6000,31.1500
28.6000,33.3500
26.4000,33.3500
26.4000,31.1500
Z" /> 
<circle cx="27.5000" cy="29.7100" r="1.1000" /> 
<circle cx="27.5000" cy="27.1700" r="1.1000" /> 
<path style="fill:#FFFFFF; fill-opacity:1.0000; stroke:none;fill-rule:evenodd;"
d="M 33.1000,31.1500
33.1000,33.3500
30.9000,33.3500
30.9000,31.1500
Z" /> 
<circle cx="32.0000" cy="29.7100" r="1.1000" /> 
<circle cx="32.0000" cy="27.1700" r="1.1000" /> 
<path style="fill:#FFFFFF; fill-opacity:1.0000; stroke:none;fill-rule:evenodd;"
d="M 14.6743,59.9800
14.6743,62.1800
12.4743,62.1800
12.4743,59.9800
Z" /> 
<circle cx="13.5743" cy="58.5400" r="1.1000" /> 
<circle cx="13.5743" cy="56.0000" r="1.1000" /> 
<circle cx="19.0000" cy="45.2000" r="1.1000" /> 
<path style="fill:#FFFFFF; fill-opacity:1.0000; stroke:none;fill-rule:evenodd;"
d="M 16.8438,11.3000
16.7548,11.2883
16.6466,11.2378
16.5622,11.1534
16.5117,11.0452
16.5000,10.9562
16.5000,9.4437
16.5117,9.3548
16.5622,9.2466
16.6466,9.1622
16.7548,9.1117
16.8438,9.1000
18.3562,9.1000
18.4452,9.1117
18.5534,9.1622
18.6378,9.2466
18.6883,9.3548
18.7000,9.4437
18.7000,10.9562
18.6883,11.0452
18.6378,11.1534
18.5534,11.2378
18.4452,11.2883
18.3562,11.3000
Z" /> 
<circle cx="17.6000" cy="7.7000" r="1.1000" /> 
<path style="fill:#FFFFFF; fill-opacity:1.0000; stroke:none;fill-rule:evenodd;"
d="M 19.8600,19.8500
19.8600,17.6500
22.0600,17.6500
22.0600,19.8500
Z" /> 
<circle cx="23.5000" cy="18.7500" r="1.1000" /> 
<path style="fill:#FFFFFF; fill-opacity:1.0000; stroke:none;fill-rule:evenodd;"
d="M 10.7485,59.9800
10.7485,62.1800
8.5485,62.1800
8.5485,59.9800
Z" /> 
<circle cx="9.6485" cy="58.5400" r="1.1000" /> 
<circle cx="9.6485" cy="56.0000" r="1.1000" /> 
</g>
<g style="fill:none; 
stroke:#FFFFFF; stroke-width:1.0000; stroke-opacity:1; 
stroke-linecap:round; stroke-linejoin:round;">
<path d="M21.8400 41.8400
L23.0000 41.8400
" />
<path d="M19.0000 39.0000
L21.8400 41.8400
" />
<path d="M22.0000 52.0000
L23.0000 52.0000
" />
<path d="M13.5743 46.7500
L16.7500 46.7500
" />
<path d="M16.7500 46.7500
L22.0000 52.0000
" />
<path d="M38.2500 34.5000
L37.9500 34.5000
" />
<path d="M15.0900 29.7100
L18.2500 29.7100
" />
<path d="M13.2000 13.6000
L13.2000 20.8000
" />
</g>
<g style="fill:none; 
stroke:#FFFFFF; stroke-width:0.6000; stroke-opacity:1; 
stroke-linecap:round; stroke-linejoin:round;">
<path d="M32.0000 29.7100
L32.7100 29.7100
" />
</g>
<g style="fill:none; 
stroke:#FFFFFF; stroke-width:1.0000; stroke-opacity:1; 
stroke-linecap:round; stroke-linejoin:round;">
<path d="M28.3500 10.2000
L17.6000 10.2000
" />
<path d="M9.6000 44.4000
L9.6485 44.3515
" />
</g>
<g style="fill:none; 
stroke:#FFFFFF; stroke-width:0.6000; stroke-opacity:1; 
stroke-linecap:round; stroke-linejoin:round;">
<path d="M18.4600 58.5400
L20.0000 57.0000
" />
</g>
<g style="fill:none; 
stroke:#FFFFFF; stroke-width:1.0000; stroke-opacity:1; 
stroke-linecap:round; stroke-linejoin:round;">
<path d="M38.2400 34.5100
L38.2500 34.5000
" />
</g>
<g style="fill:none; 
stroke:#FFFFFF; stroke-width:0.6000; stroke-opacity:1; 
stroke-linecap:round; stroke-linejoin:round;">
<path d="M8.8885 58.5400
L9.6485 58.5400
" />
<path d="M10.5000 51.0000
L7.5000 48.0000
" />
</g>
<g style="fill:none; 
stroke:#FFFFFF; stroke-width:1.0000; stroke-opacity:1; 
stroke-linecap:round; stroke-linejoin:round;">
<path d="M13.2000 31.6000
L15.0900 29.7100
" />
</g>
<g style="fill:none; 
stroke:#FFFFFF; stroke-width:0.6000; stroke-opacity:1; 
stroke-linecap:round; stroke-linejoin:round;">
<path d="M11.5000 66.5000
L7.5000 62.5000
" />
</g>
<g style="fill:none; 
stroke:#FFFFFF; stroke-width:1.0000; stroke-opacity:1; 
stroke-linecap:round; stroke-linejoin:round;">
<path d="M13.2000 31.6000
L13.2000 34.6000
" />
</g>
<g style="fill:none; 
stroke:#FFFFFF; stroke-width:0.6000; stroke-opacity:1; 
stroke-linecap:round; stroke-linejoin:round;">
<path d="M17.5000 72.5400
L18.9600 72.5400
" />
<path d="M7.5000 59.9285
L8.8885 58.5400
" />
<path d="M37.5000 34.5000
L38.2500 34.5000
" />
<path d="M20.5000 71.0000
L20.5000 68.0000
" />
</g>
<g style="fill:none; 
stroke:#FFFFFF; stroke-width:1.0000; stroke-opacity:1; 
stroke-linecap:round; stroke-linejoin:round;">
<path d="M16.6000 38.0000
L16.6000 43.2000
" />
<path d="M13.2000 34.6000
L16.6000 38.0000
" />
</g>
<g style="fill:none; 
stroke:#FFFFFF; stroke-width:0.6000; stroke-opacity:1; 
stroke-linecap:round; stroke-linejoin:round;">
<path d="M8.4465 44.2100
L9.6485 44.2100
" />
</g>
<g style="fill:none; 
stroke:#FFFFFF; stroke-width:1.0000; stroke-opacity:1; 
stroke-linecap:round; stroke-linejoin:round;">
<path d="M38.2400 41.8400
L38.2400 34.5100
" />
</g>
<g style="fill:none; 
stroke:#FFFFFF; stroke-width:0.6000; stroke-opacity:1; 
stroke-linecap:round; stroke-linejoin:round;">
<path d="M13.5743 58.5400
L17.5000 58.5400
" />
<path d="M9.6485 72.5400
L13.5743 72.5400
" />
<path d="M32.7100 29.7100
L37.5000 34.5000
" />
<path d="M20.5000 68.0000
L19.0000 66.5000
" />
</g>
<g style="fill:none; 
stroke:#FFFFFF; stroke-width:1.0000; stroke-opacity:1; 
stroke-linecap:round; stroke-linejoin:round;">
<path d="M15.5900 44.2100
L13.5743 44.2100
" />
<path d="M17.6000 10.2000
L16.6000 10.2000
" />
</g>
<g style="fill:none; 
stroke:#FFFFFF; stroke-width:0.6000; stroke-opacity:1; 
stroke-linecap:round; stroke-linejoin:round;">
<path d="M7.5000 62.5000
L7.5000 59.9285
" />
<path d="M27.5000 29.7100
L22.7500 29.7100
" />
</g>
<g style="fill:none; 
stroke:#FFFFFF; stroke-width:1.0000; stroke-opacity:1; 
stroke-linecap:round; stroke-linejoin:round;">
<path d="M17.4200 72.5400
L17.5000 72.4600
" />
</g>
<g style="fill:none; 
stroke:#FFFFFF; stroke-width:0.6000; stroke-opacity:1; 
stroke-linecap:round; stroke-linejoin:round;">
<path d="M7.5000 48.0000
L7.5000 45.1565
" />
<path d="M17.5000 58.5400
L18.4600 58.5400
" />
<path d="M16.0000 51.0000
L10.5000 51.0000
" />
<path d="M20.0000 55.0000
L16.0000 51.0000
" />
<path d="M13.5743 72.5400
L17.5000 72.5400
" />
<path d="M20.0000 57.0000
L20.0000 55.0000
" />
<path d="M19.0000 66.5000
L11.5000 66.5000
" />
<path d="M9.6485 58.5400
L13.5743 58.5400
" />
<path d="M7.5000 45.1565
L8.4465 44.2100
" />
</g>
<g style="fill:none; 
stroke:#FFFFFF; stroke-width:1.0000; stroke-opacity:1; 
stroke-linecap:round; stroke-linejoin:round;">
<path d="M16.6000 43.2000
L15.5900 44.2100
" />
</g>
<g style="fill:none; 
stroke:#FFFFFF; stroke-width:0.6000; stroke-opacity:1; 
stroke-linecap:round; stroke-linejoin:round;">
<path d="M18.9600 72.5400
L20.5000 71.0000
" />
<path d="M32.0000 29.7100
L27.5000 29.7100
" />
<path d="M9.6485 44.2100
L13.5743 44.2100
" />
<path d="M22.7500 29.7100
L18.2500 29.7100
" />
</g>
<g style="fill:none; 
stroke:#FFFFFF; stroke-width:1.0000; stroke-opacity:1; 
stroke-linecap:round; stroke-linejoin:round;">
<path d="M16.6000 10.2000
L13.2000 13.6000
" />
<path d="M13.2000 20.8000
L13.2000 31.6000
" />
<path d="M22.7500 32.2500
L31.2000 40.7000
" />
<path d="M26.7600 67.2400
L23.0000 67.2400
" />
<path d="M31.2000 62.8000
L26.7600 67.2400
" />
<path d="M31.2000 40.7000
L31.2000 62.8000
" />
<path d="M13.5743 75.0800
L13.5743 76.5743
" />
<path d="M22.9000 77.5000
L23.0000 77.4000
" />
<path d="M14.5000 77.5000
L22.9000 77.5000
" />
<path d="M13.5743 76.5743
L14.5000 77.5000
" />
<path d="M21.9400 54.5400
L16.4000 49.0000
" />
<path d="M23.0000 54.5400
L21.9400 54.5400
" />
<path d="M11.8985 49.0000
L9.6485 46.7500
" />
<path d="M16.4000 49.0000
L11.8985 49.0000
" />
<path d="M13.0000 80.0000
L9.6485 76.6485
" />
<path d="M35.6400 80.0000
L13.0000 80.0000
" />
<path d="M9.6485 76.6485
L9.6485 75.0800
" />
<path d="M38.2400 77.4000
L35.6400 80.0000
" />
<path d="M9.0000 20.8000
L9.0000 14.5000
" />
<path d="M7.5000 13.0000
L5.0000 13.0000
" />
<path d="M9.0000 14.5000
L7.5000 13.0000
" />
<path d="M22.3200 57.0800
L23.0000 57.0800
" />
<path d="M17.5000 61.0800
L18.3200 61.0800
" />
<path d="M18.3200 61.0800
L22.3200 57.0800
" />
<path d="M18.2500 32.2500
L29.2000 43.2000
" />
<path d="M29.2000 62.0000
L26.5000 64.7000
" />
<path d="M26.5000 64.7000
L23.0000 64.7000
" />
<path d="M29.2000 43.2000
L29.2000 62.0000
" />
<path d="M23.0000 44.3800
L19.8200 44.3800
" />
<path d="M19.8200 44.3800
L19.0000 45.2000
" />
<path d="M18.7500 63.2500
L22.3800 59.6200
" />
<path d="M13.5743 61.0800
L15.7443 63.2500
" />
<path d="M15.7443 63.2500
L18.7500 63.2500
" />
<path d="M22.3800 59.6200
L23.0000 59.6200
" />
<path d="M23.0000 62.1600
L22.3400 62.1600
" />
<path d="M22.3400 62.1600
L19.5000 65.0000
" />
<path d="M13.5685 65.0000
L9.6485 61.0800
" />
<path d="M19.5000 65.0000
L13.5685 65.0000
" />
<path d="M33.2000 38.6000
L33.2000 63.6000
" />
<path d="M27.5000 32.2500
L27.5000 32.9000
" />
<path d="M33.2000 63.6000
L27.0200 69.7800
" />
<path d="M27.0200 69.7800
L23.0000 69.7800
" />
<path d="M27.5000 32.9000
L33.2000 38.6000
" />
<path d="M35.2000 36.8000
L32.0000 33.6000
" />
<path d="M32.0000 33.6000
L32.0000 32.2500
" />
<path d="M23.0000 72.3200
L27.2800 72.3200
" />
<path d="M27.2800 72.3200
L35.2000 64.4000
" />
<path d="M35.2000 64.4000
L35.2000 36.8000
" />
<path d="M17.5000 75.0800
L22.7800 75.0800
" />
<path d="M22.7800 75.0800
L23.0000 74.8600
" />
<path d="M35.7542 24.2542
L33.0042 24.2542
" />
<path d="M38.2400 74.8600
L40.1400 74.8600
" />
<path d="M41.5000 30.0000
L35.7542 24.2542
" />
<path d="M33.0042 24.2542
L28.5000 19.7500
" />
<path d="M41.5000 73.5000
L41.5000 30.0000
" />
<path d="M40.1400 74.8600
L41.5000 73.5000
" />
<path d="M25.0400 17.2100
L23.5000 18.7500
" />
<path d="M28.5000 17.2100
L25.0400 17.2100
" />
<path style="fill:#FFFFFF; fill-opacity:1.0000; stroke:none;fill-rule:evenodd;"
d="M 43.5637,0.4363
43.6000,0.5240
43.6000,84.4760
43.5637,84.5637
43.4760,84.6000
0.5240,84.6000
0.4363,84.5637
0.4000,84.4760
0.4000,82.1055
2.0355,82.1055
5.5661,82.1055
5.5661,69.6817
8.0485,69.6817
8.0485,70.3183
8.2921,70.9063
8.3404,70.9546
9.2950,70.0000
9.2121,69.9172
9.4485,69.9172
9.4485,70.0828
9.5657,70.2000
9.7314,70.2000
9.8485,70.0828
9.8485,70.0000
10.0021,70.0000
10.9567,70.9546
11.0049,70.9063
11.0049,70.9063
11.2485,70.3183
11.2485,70.3183
11.2485,69.6817
11.2485,69.6817
11.9743,69.6817
11.9743,70.3183
12.2179,70.9063
12.2661,70.9546
13.2207,70.0000
13.1379,69.9172
13.3743,69.9172
13.3743,70.0828
13.4914,70.2000
13.6571,70.2000
13.7743,70.0828
13.7743,70.0000
13.9278,70.0000
14.8824,70.9546
14.9307,70.9063
14.9307,70.9063
15.1743,70.3183
15.1743,70.3183
15.1743,69.6817
15.1743,69.6817
15.9000,69.6817
15.9000,70.3183
16.1436,70.9063
16.1919,70.9546
17.1464,70.0000
17.0636,69.9172
17.3000,69.9172
17.3000,70.0828
17.4172,70.2000
17.5828,70.2000
17.7000,70.0828
17.7000,70.0000
17.8536,70.0000
18.8081,70.9546
18.8564,70.9063
18.8564,70.9063
19.1000,70.3183
19.1000,70.3183
19.1000,69.6817
19.1000,69.6817
18.8564,69.0937
18.8081,69.0454
17.8536,70.0000
17.7000,70.0000
17.7000,69.9172
17.5828,69.8000
17.4172,69.8000
17.3000,69.9172
17.0636,69.9172
16.1919,69.0454
16.1436,69.0937
16.1436,69.0937
15.9000,69.6817
15.1743,69.6817
14.9307,69.0937
14.8824,69.0454
13.9278,70.0000
13.7743,70.0000
13.7743,69.9172
13.6571,69.8000
13.4914,69.8000
13.3743,69.9172
13.1379,69.9172
12.2661,69.0454
12.2179,69.0937
12.2179,69.0937
11.9743,69.6817
11.2485,69.6817
11.0049,69.0937
10.9567,69.0454
10.0021,70.0000
9.8485,70.0000
9.8485,69.9172
9.7314,69.8000
9.5657,69.8000
9.4485,69.9172
9.2121,69.9172
8.3404,69.0454
8.2921,69.0937
8.2921,69.0937
8.0485,69.6817
5.5661,69.6817
5.5661,68.6919
8.6939,68.6919
9.6485,69.6464
10.6031,68.6919
12.6197,68.6919
13.5743,69.6464
14.5289,68.6919
16.5454,68.6919
17.5000,69.6464
18.4546,68.6919
18.4063,68.6436
17.8183,68.4000
17.1817,68.4000
16.5937,68.6436
16.5937,68.6436
16.5454,68.6919
14.5289,68.6919
14.4806,68.6436
13.8925,68.4000
13.2560,68.4000
12.6679,68.6436
12.6679,68.6436
12.6197,68.6919
10.6031,68.6919
10.5549,68.6436
9.9668,68.4000
9.3303,68.4000
8.7422,68.6436
8.7422,68.6436
8.6939,68.6919
5.5661,68.6919
5.5661,62.2960
2.0355,62.2960
2.0355,82.1055
0.4000,82.1055
0.4000,55.6817
8.0485,55.6817
8.0485,56.3183
8.2921,56.9063
8.3404,56.9546
9.2950,56.0000
9.2121,55.9172
9.4485,55.9172
9.4485,56.0828
9.5657,56.2000
9.7314,56.2000
9.8485,56.0828
9.8485,56.0000
10.0021,56.0000
10.9567,56.9546
11.0049,56.9063
11.0049,56.9063
11.2485,56.3183
11.2485,56.3183
11.2485,55.6817
11.2485,55.6817
11.9743,55.6817
11.9743,56.3183
12.2179,56.9063
12.2661,56.9546
13.2207,56.0000
13.1379,55.9172
13.3743,55.9172
13.3743,56.0828
13.4914,56.2000
13.6571,56.2000
13.7743,56.0828
13.7743,56.0000
13.9278,56.0000
14.8824,56.9546
14.9307,56.9063
14.9307,56.9063
15.1743,56.3183
15.1743,56.3183
15.1743,55.6817
15.1743,55.6817
15.9000,55.6817
15.9000,56.3183
16.1436,56.9063
16.1919,56.9546
17.1464,56.0000
16.1919,55.0454
16.1436,55.0937
16.1436,55.0937
15.9000,55.6817
15.1743,55.6817
14.9307,55.0937
14.8824,55.0454
13.9278,56.0000
13.7743,56.0000
13.7743,55.9172
13.6571,55.8000
13.4914,55.8000
13.3743,55.9172
13.1379,55.9172
12.2661,55.0454
12.2179,55.0937
12.2179,55.0937
11.9743,55.6817
11.2485,55.6817
11.0049,55.0937
10.9567,55.0454
10.0021,56.0000
9.8485,56.0000
9.8485,55.9172
9.7314,55.8000
9.5657,55.8000
9.4485,55.9172
9.2121,55.9172
8.3404,55.0454
8.2921,55.0937
8.2921,55.0937
8.0485,55.6817
0.4000,55.6817
0.4000,54.6919
8.6939,54.6919
9.6485,55.6464
10.6031,54.6919
12.6197,54.6919
13.5743,55.6464
14.5289,54.6919
14.4806,54.6436
13.8925,54.4000
13.2560,54.4000
12.6679,54.6436
12.6679,54.6436
12.6197,54.6919
10.6031,54.6919
10.5549,54.6436
9.9668,54.4000
9.3303,54.4000
8.7422,54.6436
8.7422,54.6436
8.6939,54.6919
0.4000,54.6919
0.4000,53.7484
2.0355,53.7484
5.5593,53.7484
5.5593,44.8216
6.6915,44.8216
6.6915,48.3349
7.1825,48.8259
7.1825,48.8259
9.6741,51.3174
9.6741,51.3175
9.6915,51.3349
10.1651,51.8085
10.1651,51.8085
10.8349,51.8085
15.6137,51.8085
15.7014,51.8448
18.1258,54.2692
18.1621,54.3568
18.1258,54.4445
18.0381,54.4808
17.9906,54.4714
17.8183,54.4000
17.1817,54.4000
16.5937,54.6436
16.5937,54.6436
16.5454,54.6919
17.5891,55.7355
17.6254,55.8232
17.6197,55.8369
17.5828,55.8000
17.4172,55.8000
17.3000,55.9172
17.3000,56.0828
17.4172,56.2000
17.5828,56.2000
17.6197,56.1631
17.6254,56.1768
17.5891,56.2645
16.7571,57.0965
16.7168,57.1234
16.5889,57.1764
16.1364,57.6289
16.1364,57.6289
16.1256,57.6550
16.0585,57.7221
16.0110,57.7315
15.0633,57.7315
14.9756,57.6952
14.9487,57.6550
14.9379,57.6289
14.9379,57.6289
14.9379,57.6289
14.4854,57.1764
14.3574,57.1234
14.3172,57.0965
13.5743,56.3536
12.8313,57.0965
12.7911,57.1234
12.6631,57.1764
12.2106,57.6289
12.2106,57.6289
12.1998,57.6550
12.1327,57.7221
12.0853,57.7315
11.1375,57.7315
11.0498,57.6952
11.0230,57.6550
11.0122,57.6289
11.0122,57.6289
11.0122,57.6289
10.5597,57.1764
10.4317,57.1234
10.3915,57.0965
9.6485,56.3536
8.9056,57.0965
8.8654,57.1234
8.7374,57.1764
8.2849,57.6289
8.0354,58.2313
8.0327,58.2302
8.0072,58.2779
7.1825,59.1026
6.6915,59.5936
6.6915,62.8349
7.1825,63.3259
7.1825,63.3259
10.6741,66.8174
10.6741,66.8175
10.6915,66.8349
11.1651,67.3085
18.6137,67.3085
18.7014,67.3448
19.6552,68.2986
19.6915,68.3863
19.6915,70.6137
19.6552,70.7014
18.8834,71.4732
18.7957,71.5096
18.7080,71.4732
18.4111,71.1764
18.2832,71.1234
18.2429,71.0965
17.5000,70.3536
16.7571,71.0965
16.7168,71.1234
16.5889,71.1764
16.1364,71.6289
16.1364,71.6289
16.1256,71.6550
16.0585,71.7221
16.0110,71.7315
15.0633,71.7315
14.9756,71.6952
14.9487,71.6550
14.9379,71.6289
14.9379,71.6289
14.9379,71.6289
14.4854,71.1764
14.3574,71.1234
14.3172,71.0965
13.5743,70.3536
12.8313,71.0965
12.7911,71.1234
12.6631,71.1764
12.2106,71.6289
12.2106,71.6289
12.1998,71.6550
12.1327,71.7221
12.0853,71.7315
11.1375,71.7315
11.0498,71.6952
11.0230,71.6550
11.0122,71.6289
11.0122,71.6289
11.0122,71.6289
10.5597,71.1764
10.4317,71.1234
10.3915,71.0965
9.6485,70.3536
8.9056,71.0965
8.8654,71.1234
8.7374,71.1764
8.2849,71.6289
8.0400,72.2200
8.0400,72.8600
8.1321,73.0823
8.2763,73.4303
8.2763,73.4303
8.2763,73.5252
8.2306,73.5809
8.1819,73.6134
8.1819,73.6134
8.0695,73.7816
8.0695,73.7816
8.0400,73.9299
8.0400,76.2301
8.0695,76.3784
8.0695,76.3784
8.0695,76.3784
8.1819,76.5466
8.3501,76.6590
8.3501,76.6590
8.3501,76.6590
8.4984,76.6885
8.4984,76.6885
8.4985,76.6885
8.5160,76.6885
8.6037,76.7248
8.6400,76.8125
8.6400,77.0663
9.2482,77.6745
9.2482,77.6745
11.9741,80.4003
11.9741,80.4003
11.9915,80.4177
12.5823,81.0085
36.0577,81.0085
36.6485,80.4177
36.6485,80.4177
38.0214,79.0448
38.1091,79.0085
38.5599,79.0085
38.5600,79.0085
39.1511,78.7636
39.6036,78.3111
39.8485,77.7199
39.8485,77.0800
39.6036,76.4889
39.3324,76.2177
39.2961,76.1300
39.3324,76.0423
39.4699,75.9048
39.5576,75.8685
40.5577,75.8685
41.1485,75.2777
41.1485,75.2777
41.9177,74.5085
41.9177,74.5085
42.5085,73.9177
42.5085,30.4424
42.5085,30.4424
42.5085,29.5823
36.1719,23.2457
33.4733,23.2457
33.3856,23.2094
31.7396,21.5634
35.9403,21.5634
40.6036,21.5634
40.6036,2.6606
35.9403,2.6606
35.9403,21.5634
31.7396,21.5634
30.1448,19.9686
30.1085,19.8809
30.1085,19.4301
30.1085,19.4300
29.9593,19.0700
29.8636,18.8389
29.5924,18.5677
29.5561,18.4800
29.5924,18.3923
29.8636,18.1211
30.1085,17.5299
30.1085,16.8900
29.8636,16.2989
29.4111,15.8464
28.8200,15.6015
28.8199,15.6015
28.1800,15.6015
28.1800,15.6015
27.5889,15.8464
27.5889,15.8464
27.2701,16.1652
27.1824,16.2015
25.4824,16.2015
25.4824,16.2015
25.4577,16.2015
24.6223,16.2015
24.6223,16.2015
23.7186,17.1052
23.6309,17.1415
23.1800,17.1415
22.6017,17.3811
22.5068,17.3811
22.4511,17.3354
22.4205,17.2895
22.2551,17.1790
22.2551,17.1790
22.1093,17.1500
21.2100,17.1500
21.2100,20.3500
22.1092,20.3500
22.1093,20.3500
22.2551,20.3210
22.2551,20.3210
22.4205,20.2105
22.4511,20.1646
22.5300,20.1119
22.6017,20.1189
23.1800,20.3585
23.1801,20.3585
23.8199,20.3585
23.8199,20.3585
24.4111,20.1136
24.8636,19.6611
25.1085,19.0699
25.1085,18.6191
25.1448,18.5314
25.4214,18.2548
25.5091,18.2185
27.1824,18.2185
27.2701,18.2548
27.4076,18.3923
27.4439,18.4800
27.4076,18.5677
27.1364,18.8389
27.1364,18.8389
26.8915,19.4300
26.8915,20.0700
27.1364,20.6611
27.5889,21.1136
28.1800,21.3585
28.6309,21.3585
28.7186,21.3948
31.9782,24.6545
31.9782,24.6545
31.9957,24.6719
32.5865,25.2627
32.5865,25.2627
33.4219,25.2627
35.2851,25.2627
35.3728,25.2990
40.4552,30.3814
40.4915,30.4691
40.4915,73.0309
40.4552,73.1186
39.7586,73.8152
39.6709,73.8515
39.5576,73.8515
39.4699,73.8152
39.3324,73.6777
39.2961,73.5900
39.3324,73.5023
39.4499,73.3848
39.6036,73.2311
39.8485,72.6399
39.8485,72.0001
39.6036,71.4089
39.3324,71.1377
39.2961,71.0500
39.3324,70.9623
39.3884,70.9063
39.6036,70.6911
39.8485,70.0999
39.8485,69.4600
39.6036,68.8689
39.3324,68.5977
39.2961,68.5100
39.3324,68.4223
39.4562,68.2986
39.6036,68.1511
39.8485,67.5600
39.8485,66.9201
39.6036,66.3289
39.3324,66.0577
39.2961,65.9700
39.3324,65.8823
39.3823,65.8325
39.6036,65.6111
39.8485,65.0199
39.8485,64.3800
39.6036,63.7889
39.3324,63.5177
39.2961,63.4300
39.3324,63.3423
39.3663,63.3085
39.6036,63.0711
39.8485,62.4799
39.8485,61.8400
39.6036,61.2489
39.3324,60.9777
39.2961,60.8900
39.3324,60.8023
39.6036,60.5311
39.8485,59.9399
39.8485,59.3000
39.6036,58.7089
39.3324,58.4377
39.2961,58.3500
39.3324,58.2623
39.3747,58.2201
39.6036,57.9911
39.8485,57.3999
39.8485,56.7600
39.6036,56.1689
39.3324,55.8977
39.2961,55.8100
39.3324,55.7223
39.4083,55.6464
39.6036,55.4511
39.8485,54.8599
39.8485,54.2201
39.6036,53.6289
39.3324,53.3577
39.2961,53.2700
39.3324,53.1823
39.6036,52.9111
39.8485,52.3199
39.8485,51.6800
39.6036,51.0889
39.3324,50.8177
39.2961,50.7300
39.3324,50.6423
39.6036,50.3711
39.8485,49.7799
39.8485,49.1400
39.6036,48.5489
39.3324,48.2777
39.2961,48.1900
39.3324,48.1023
39.4433,47.9915
39.6036,47.8311
39.8485,47.2400
39.8485,46.6000
39.6036,46.0089
39.3264,45.7317
39.2901,45.6440
39.3264,45.5563
39.5964,45.2863
39.5964,45.2863
39.8400,44.6983
39.8400,44.6983
39.8400,44.6300
36.6400,44.6300
36.6400,44.6983
36.8836,45.2863
37.1536,45.5563
37.1899,45.6440
37.1536,45.7317
36.8764,46.0089
36.8764,46.0089
36.6315,46.6000
36.6315,47.2400
36.8764,47.8311
37.1476,48.1023
37.1839,48.1900
37.1476,48.2777
36.8764,48.5489
36.8764,48.5489
36.6315,49.1400
36.6315,49.7800
36.8764,50.3711
37.1476,50.6423
37.1839,50.7300
37.1476,50.8177
36.8764,51.0889
36.8764,51.0889
36.6315,51.6800
36.6315,52.3200
36.8764,52.9111
37.1476,53.1823
37.1839,53.2700
37.1476,53.3577
36.8764,53.6289
36.8764,53.6289
36.6315,54.2200
36.6315,54.8600
36.8764,55.4511
37.1476,55.7223
37.1839,55.8100
37.1476,55.8977
36.8764,56.1689
36.8764,56.1689
36.6315,56.7600
36.6315,57.4000
36.8764,57.9911
37.1476,58.2623
37.1839,58.3500
37.1476,58.4377
36.8764,58.7089
36.8764,58.7089
36.6315,59.3000
36.6315,59.9400
36.8764,60.5311
37.1476,60.8023
37.1839,60.8900
37.1476,60.9777
36.8764,61.2489
36.8764,61.2489
36.6315,61.8400
36.6315,62.4800
36.8764,63.0711
37.1476,63.3423
37.1839,63.4300
37.1476,63.5177
36.8764,63.7889
36.8764,63.7889
36.6315,64.3800
36.6315,65.0200
36.8764,65.6111
37.1476,65.8823
37.1839,65.9700
37.1476,66.0577
36.8764,66.3289
36.8764,66.3289
36.6315,66.9200
36.6315,67.5600
36.8764,68.1511
37.1476,68.4223
37.1839,68.5100
37.1476,68.5977
36.8764,68.8689
36.8764,68.8689
36.6315,69.4600
36.6315,70.1000
36.8764,70.6911
37.1476,70.9623
37.1839,71.0500
37.1476,71.1377
36.8764,71.4089
36.8764,71.4089
36.6315,72.0000
36.6315,72.6400
36.8764,73.2311
37.1476,73.5023
37.1839,73.5900
37.1476,73.6777
36.8764,73.9489
36.8764,73.9489
36.6315,74.5400
36.6315,75.1800
36.8764,75.7711
37.1476,76.0423
37.1839,76.1300
37.1476,76.2177
36.8764,76.4889
36.8764,76.4889
36.6315,77.0800
36.6315,77.5309
36.5952,77.6186
35.2586,78.9552
35.1709,78.9915
23.9789,78.9915
23.8912,78.9552
23.8549,78.8675
23.8912,78.7798
23.9100,78.7644
23.9111,78.7636
23.9111,78.7636
24.3636,78.3111
24.6085,77.7199
24.6085,77.0800
24.3636,76.4889
24.0924,76.2177
24.0561,76.1300
24.0924,76.0423
24.3636,75.7711
24.6085,75.1799
24.6085,74.5400
24.3636,73.9489
24.0924,73.6777
24.0561,73.5900
24.0924,73.5023
24.2299,73.3648
24.3176,73.3285
27.6977,73.3285
28.2885,72.7377
28.2885,72.7377
35.6177,65.4085
35.6177,65.4085
36.2085,64.8177
36.2085,44.2972
38.0400,44.2972
38.0400,44.4628
38.1572,44.5800
38.3228,44.5800
38.4400,44.4628
38.4400,44.2972
38.3228,44.1800
38.1572,44.1800
38.0400,44.2972
36.2085,44.2972
36.2085,36.3823
35.6177,35.7915
35.6003,35.7741
35.6003,35.7741
33.5691,33.7429
33.5328,33.6552
33.5537,33.5863
33.5790,33.5484
33.6085,33.4001
33.6085,32.0513
33.6448,31.9636
33.7325,31.9273
33.8202,31.9636
36.6052,34.7486
36.6415,34.8363
36.6415,35.3402
36.6415,35.3402
36.6909,35.5888
36.6909,35.5888
36.6909,35.5888
36.6909,35.5888
36.8793,35.8707
37.1612,36.0591
37.1714,36.0658
37.1686,36.0701
37.2221,36.1236
37.2315,36.1710
37.2315,40.5224
37.1952,40.6101
36.8764,40.9289
36.8764,40.9289
36.6315,41.5200
36.6315,42.1600
36.8764,42.7511
37.1536,43.0283
37.1899,43.1160
37.1536,43.2037
36.8836,43.4737
36.8836,43.4737
36.6400,44.0617
36.6400,44.1300
39.8400,44.1300
39.8400,44.0617
39.8400,44.0617
39.5964,43.4737
39.3264,43.2037
39.2901,43.1160
39.3264,43.0283
39.3647,42.9901
39.6036,42.7511
39.8485,42.1599
39.8485,41.5200
39.6036,40.9289
39.2848,40.6101
39.2485,40.5224
39.2485,36.1788
39.2848,36.0911
39.3290,36.0675
39.3275,36.0637
39.3388,36.0591
39.3388,36.0591
39.6207,35.8707
39.8091,35.5888
39.8585,35.3402
39.8585,33.6598
39.8363,33.5484
39.8091,33.4112
39.8091,33.4112
39.8091,33.4112
39.6207,33.1293
39.6041,33.1182
39.5514,33.0393
39.5699,32.9462
39.5853,32.9274
39.6064,32.9063
39.8500,32.3183
39.8500,32.3183
39.8500,31.6817
39.8500,31.6817
39.6064,31.0937
39.5581,31.0454
38.5145,32.0891
38.4268,32.1254
38.4131,32.1197
38.4500,32.0828
38.4500,31.9172
38.3328,31.8000
38.1672,31.8000
38.0500,31.9172
38.0500,32.0828
38.0869,32.1197
38.0732,32.1254
37.9855,32.0891
36.9419,31.0454
36.8936,31.0937
36.8936,31.0937
36.6500,31.6817
36.6500,32.2072
36.6137,32.2949
36.5260,32.3312
36.4383,32.2949
34.8352,30.6919
37.2954,30.6919
38.2500,31.6464
39.2046,30.6919
39.1563,30.6436
38.5683,30.4000
37.9317,30.4000
37.3437,30.6436
37.3437,30.6436
37.2954,30.6919
34.8352,30.6919
33.6448,29.5014
33.6085,29.4137
33.6085,29.3901
33.6085,29.3900
33.5154,29.1653
33.3636,28.7989
32.9111,28.3464
32.7832,28.2934
32.7429,28.2665
32.0000,27.5236
31.2571,28.2665
31.2168,28.2934
31.0889,28.3464
30.6364,28.7989
30.6364,28.7989
30.6256,28.8250
30.5585,28.8921
30.5110,28.9015
28.9890,28.9015
28.9013,28.8652
28.8744,28.8250
28.8636,28.7989
28.8636,28.7989
28.8636,28.7989
28.4111,28.3464
28.2832,28.2934
28.2429,28.2665
27.5000,27.5236
26.7571,28.2665
26.7168,28.2934
26.5889,28.3464
26.1364,28.7989
26.1364,28.7989
26.1256,28.8250
26.0585,28.8921
26.0110,28.9015
24.2390,28.9015
24.1513,28.8652
24.1244,28.8250
24.1136,28.7989
24.1136,28.7989
24.1136,28.7989
23.6611,28.3464
23.5332,28.2934
23.4929,28.2665
22.7500,27.5236
22.0071,28.2665
21.9668,28.2934
21.8389,28.3464
21.3864,28.7989
21.3864,28.7989
21.3756,28.8250
21.3085,28.8921
21.2610,28.9015
19.7390,28.9015
19.6513,28.8652
19.6244,28.8250
19.6136,28.7989
19.6136,28.7989
19.6136,28.7989
19.1611,28.3464
19.0332,28.2934
18.9929,28.2665
18.2500,27.5236
17.5071,28.2665
17.4668,28.2934
17.3389,28.3464
17.0201,28.6652
16.9324,28.7015
15.5324,28.7015
15.5324,28.7015
15.5077,28.7015
14.6723,28.7015
14.6723,28.7015
14.4202,28.9536
14.3325,28.9899
14.2448,28.9536
14.2085,28.8659
14.2085,26.8517
16.6500,26.8517
16.6500,27.4883
16.8936,28.0763
16.9419,28.1246
17.8964,27.1700
17.8136,27.0872
18.0500,27.0872
18.0500,27.2528
18.1672,27.3700
18.3328,27.3700
18.4500,27.2528
18.4500,27.1700
18.6036,27.1700
19.5581,28.1246
19.6064,28.0763
19.6064,28.0763
19.8500,27.4883
19.8500,27.4883
19.8500,26.8517
19.8500,26.8517
21.1500,26.8517
21.1500,27.4883
21.3936,28.0763
21.4419,28.1246
22.3964,27.1700
22.3136,27.0872
22.5500,27.0872
22.5500,27.2528
22.6672,27.3700
22.8328,27.3700
22.9500,27.2528
22.9500,27.1700
23.1036,27.1700
24.0581,28.1246
24.1064,28.0763
24.1064,28.0763
24.3500,27.4883
24.3500,27.4883
24.3500,26.8517
24.3500,26.8517
25.9000,26.8517
25.9000,27.4883
26.1436,28.0763
26.1919,28.1246
27.1464,27.1700
27.0636,27.0872
27.3000,27.0872
27.3000,27.2528
27.4172,27.3700
27.5828,27.3700
27.7000,27.2528
27.7000,27.1700
27.8536,27.1700
28.8081,28.1246
28.8564,28.0763
28.8564,28.0763
29.1000,27.4883
29.1000,27.4883
29.1000,26.8517
29.1000,26.8517
30.4000,26.8517
30.4000,27.4883
30.6436,28.0763
30.6919,28.1246
31.6464,27.1700
31.5636,27.0872
31.8000,27.0872
31.8000,27.2528
31.9172,27.3700
32.0828,27.3700
32.2000,27.2528
32.2000,27.1700
32.3536,27.1700
33.3081,28.1246
33.3564,28.0763
33.3564,28.0763
33.6000,27.4883
33.6000,27.4883
33.6000,26.8517
33.6000,26.8517
33.3564,26.2637
33.3081,26.2154
32.3536,27.1700
32.2000,27.1700
32.2000,27.0872
32.0828,26.9700
31.9172,26.9700
31.8000,27.0872
31.5636,27.0872
30.6919,26.2154
30.6436,26.2637
30.6436,26.2637
30.4000,26.8517
29.1000,26.8517
28.8564,26.2637
28.8081,26.2154
27.8536,27.1700
27.7000,27.1700
27.7000,27.0872
27.5828,26.9700
27.4172,26.9700
27.3000,27.0872
27.0636,27.0872
26.1919,26.2154
26.1436,26.2637
26.1436,26.2637
25.9000,26.8517
24.3500,26.8517
24.1064,26.2637
24.0581,26.2154
23.1036,27.1700
22.9500,27.1700
22.9500,27.0872
22.8328,26.9700
22.6672,26.9700
22.5500,27.0872
22.3136,27.0872
21.4419,26.2154
21.3936,26.2637
21.3936,26.2637
21.1500,26.8517
19.8500,26.8517
19.6064,26.2637
19.5581,26.2154
18.6036,27.1700
18.4500,27.1700
18.4500,27.0872
18.3328,26.9700
18.1672,26.9700
18.0500,27.0872
17.8136,27.0872
16.9419,26.2154
16.8936,26.2637
16.8936,26.2637
16.6500,26.8517
14.2085,26.8517
14.2085,25.8619
17.2954,25.8619
18.2500,26.8164
19.2046,25.8619
21.7954,25.8619
22.7500,26.8164
23.7046,25.8619
26.5454,25.8619
27.5000,26.8164
28.4546,25.8619
31.0454,25.8619
32.0000,26.8164
32.9546,25.8619
32.9063,25.8136
32.3183,25.5700
31.6817,25.5700
31.0937,25.8136
31.0937,25.8136
31.0454,25.8619
28.4546,25.8619
28.4063,25.8136
27.8183,25.5700
27.1817,25.5700
26.5937,25.8136
26.5937,25.8136
26.5454,25.8619
23.7046,25.8619
23.6563,25.8136
23.0683,25.5700
22.4317,25.5700
21.8437,25.8136
21.8437,25.8136
21.7954,25.8619
19.2046,25.8619
19.1563,25.8136
18.5683,25.5700
17.9317,25.5700
17.3437,25.8136
17.3437,25.8136
17.2954,25.8619
14.2085,25.8619
14.2085,22.1176
14.2448,22.0299
14.5636,21.7111
14.8085,21.1199
14.8085,20.4800
14.5679,19.8993
19.3600,19.8993
19.3890,20.0451
19.3890,20.0451
19.4995,20.2105
19.6649,20.3210
19.6649,20.3210
19.8107,20.3500
19.8107,20.3500
20.7100,20.3500
20.7100,19.0000
19.3600,19.0000
19.3600,19.8993
14.5679,19.8993
14.5636,19.8889
14.2448,19.5701
14.2085,19.4824
14.2085,18.6672
20.7600,18.6672
20.7600,18.8328
20.8772,18.9500
21.0428,18.9500
21.1600,18.8328
21.1600,18.6672
21.0428,18.5500
20.8772,18.5500
20.7600,18.6672
14.2085,18.6672
14.2085,17.6007
19.3600,17.6007
19.3600,18.5000
20.7100,18.5000
20.7100,17.1500
19.8107,17.1500
19.6649,17.1790
19.6649,17.1790
19.4995,17.2895
19.3890,17.4549
19.3890,17.4549
19.3600,17.6007
14.2085,17.6007
14.2085,14.0691
14.2448,13.9814
16.4276,11.7986
16.5153,11.7623
16.5395,11.7647
16.7598,11.8085
18.4402,11.8085
18.5238,11.7919
18.6888,11.7591
18.6888,11.7591
18.6888,11.7591
18.9707,11.5707
19.1591,11.2888
19.1591,11.2888
19.1606,11.2850
19.1635,11.2822
19.1658,11.2786
19.1665,11.2791
19.2277,11.2179
19.2752,11.2085
26.6748,11.2085
26.7625,11.2448
26.7894,11.2850
26.7909,11.2888
26.7909,11.2888
26.7909,11.2888
26.9793,11.5707
27.2612,11.7591
27.2612,11.7591
27.2612,11.7591
27.3855,11.7838
27.5098,11.8085
29.1902,11.8085
29.2738,11.7919
29.4388,11.7591
29.4388,11.7591
29.4388,11.7591
29.7207,11.5707
29.9091,11.2888
29.9585,11.0402
29.9585,9.3598
29.9250,9.1915
29.9091,9.1112
29.9091,9.1112
29.9091,9.1112
29.7207,8.8293
29.7041,8.8182
29.6514,8.7393
29.6699,8.6462
29.6853,8.6274
29.7064,8.6063
29.9500,8.0183
29.9500,8.0183
29.9500,7.3817
29.9500,7.3817
29.7064,6.7937
29.6581,6.7454
28.6145,7.7891
28.5268,7.8254
28.5131,7.8197
28.5500,7.7828
28.5500,7.6172
28.4328,7.5000
28.2672,7.5000
28.1500,7.6172
28.1500,7.7828
28.1869,7.8197
28.1732,7.8254
28.0855,7.7891
27.0419,6.7454
26.9936,6.7937
26.9936,6.7937
26.7500,7.3817
26.7500,8.0183
26.9936,8.6063
27.0147,8.6274
27.0510,8.7151
27.0147,8.8028
26.9959,8.8182
26.9793,8.8293
26.9793,8.8293
26.7909,9.1112
26.7894,9.1150
26.7865,9.1178
26.7842,9.1214
26.7835,9.1209
26.7223,9.1821
26.6748,9.1915
19.2752,9.1915
19.1875,9.1552
19.1606,9.1150
19.1591,9.1112
19.1591,9.1112
18.9707,8.8293
18.9541,8.8182
18.9014,8.7393
18.9199,8.6462
18.9353,8.6274
18.9564,8.6063
19.2000,8.0183
19.2000,8.0183
19.2000,7.3817
19.2000,7.3817
18.9564,6.7937
18.9081,6.7454
17.8645,7.7891
17.7768,7.8254
17.7631,7.8197
17.8000,7.7828
17.8000,7.6172
17.6828,7.5000
17.5172,7.5000
17.4000,7.6172
17.4000,7.7828
17.4369,7.8197
17.4232,7.8254
17.3355,7.7891
16.2919,6.7454
16.2436,6.7937
16.2436,6.7937
16.0000,7.3817
16.0000,8.0183
16.2436,8.6063
16.2647,8.6274
16.3010,8.7151
16.2647,8.8028
16.2459,8.8182
16.2293,8.8293
16.2293,8.8293
16.0409,9.1112
16.0409,9.1112
15.9933,9.3509
15.9593,9.4144
15.5741,9.7997
12.1915,13.1823
12.1915,19.4824
12.1552,19.5701
11.8364,19.8889
11.8364,19.8889
11.5915,20.4800
11.5915,21.1200
11.8364,21.7111
12.1552,22.0299
12.1915,22.1176
12.1915,35.0177
12.7997,35.6259
12.7997,35.6259
15.5552,38.3814
15.5915,38.4691
15.5915,42.7309
15.5552,42.8186
15.2086,43.1652
15.1209,43.2015
14.8919,43.2015
14.8042,43.1652
14.4854,42.8464
14.3574,42.7934
14.3172,42.7665
13.5743,42.0236
12.8313,42.7665
12.7911,42.7934
12.6631,42.8464
12.2106,43.2989
12.2106,43.2989
12.1998,43.3250
12.1327,43.3921
12.0853,43.4015
11.1375,43.4015
11.0498,43.3652
11.0230,43.3250
11.0122,43.2989
11.0122,43.2989
11.0122,43.2989
10.5597,42.8464
10.4905,42.8177
10.4317,42.7934
10.3915,42.7665
9.6485,42.0236
8.9056,42.7665
8.8654,42.7934
8.7374,42.8464
8.2849,43.2989
8.2849,43.2989
8.2741,43.3250
8.2070,43.3921
8.1595,43.4015
8.1116,43.4015
6.6915,44.8216
5.5593,44.8216
5.5593,41.3517
8.0485,41.3517
8.0485,41.9883
8.2921,42.5763
8.3404,42.6246
9.2950,41.6700
9.2121,41.5872
9.4485,41.5872
9.4485,41.7528
9.5657,41.8700
9.7314,41.8700
9.8485,41.7528
9.8485,41.6700
10.0021,41.6700
10.9567,42.6246
11.0049,42.5763
11.0049,42.5763
11.2485,41.9883
11.2485,41.9883
11.2485,41.3517
11.2485,41.3517
11.9743,41.3517
11.9743,41.9883
12.2179,42.5763
12.2661,42.6246
13.2207,41.6700
13.1379,41.5872
13.3743,41.5872
13.3743,41.7528
13.4914,41.8700
13.6571,41.8700
13.7743,41.7528
13.7743,41.6700
13.9278,41.6700
14.8824,42.6246
14.9307,42.5763
14.9307,42.5763
15.1743,41.9883
15.1743,41.9883
15.1743,41.3517
15.1743,41.3517
14.9307,40.7637
14.8824,40.7154
13.9278,41.6700
13.7743,41.6700
13.7743,41.5872
13.6571,41.4700
13.4914,41.4700
13.3743,41.5872
13.1379,41.5872
12.2661,40.7154
12.2179,40.7637
12.2179,40.7637
11.9743,41.3517
11.2485,41.3517
11.0049,40.7637
10.9567,40.7154
10.0021,41.6700
9.8485,41.6700
9.8485,41.5872
9.7314,41.4700
9.5657,41.4700
9.4485,41.5872
9.2121,41.5872
8.3404,40.7154
8.2921,40.7637
8.2921,40.7637
8.0485,41.3517
5.5593,41.3517
5.5593,40.3619
8.6939,40.3619
9.6485,41.3164
10.6031,40.3619
12.6197,40.3619
13.5743,41.3164
14.5289,40.3619
14.4806,40.3136
13.8925,40.0700
13.2560,40.0700
12.6679,40.3136
12.6679,40.3136
12.6197,40.3619
10.6031,40.3619
10.5549,40.3136
9.9668,40.0700
9.3303,40.0700
8.7422,40.3136
8.7422,40.3136
8.6939,40.3619
5.5593,40.3619
5.5593,20.7178
2.0355,20.7178
2.0355,53.7484
0.4000,53.7484
0.4000,12.6800
3.3915,12.6800
3.3915,13.3200
3.4626,13.4915
3.6364,13.9111
4.0889,14.3636
4.6800,14.6085
4.6801,14.6085
5.3199,14.6085
5.3199,14.6085
5.9111,14.3636
6.2299,14.0448
6.3176,14.0085
7.0309,14.0085
7.1186,14.0448
7.9552,14.8814
7.9915,14.9691
7.9915,19.4824
7.9552,19.5701
7.6364,19.8889
7.6364,19.8889
7.3915,20.4800
7.3915,21.1200
7.5752,21.5634
7.6364,21.7111
8.0889,22.1636
8.6800,22.4085
8.6801,22.4085
9.3199,22.4085
9.3200,22.4085
9.9111,22.1636
10.3636,21.7111
10.6085,21.1199
10.6085,20.4800
10.3636,19.8889
10.0448,19.5701
10.0085,19.4824
10.0085,14.0823
9.4003,13.4741
9.4003,13.4741
8.5259,12.5997
8.5259,12.5997
7.9177,11.9915
6.3176,11.9915
6.2299,11.9552
5.9111,11.6364
5.3200,11.3915
5.3199,11.3915
4.6800,11.3915
4.6800,11.3915
4.0889,11.6364
3.6364,12.0889
3.3915,12.6800
0.4000,12.6800
0.4000,9.3081
4.0454,9.3081
4.0937,9.3564
4.6817,9.6000
4.6817,9.6000
5.3183,9.6000
5.3183,9.6000
5.9063,9.3564
5.9063,9.3564
5.9546,9.3081
5.0000,8.3536
4.0454,9.3081
0.4000,9.3081
0.4000,7.6817
3.4000,7.6817
3.4000,8.3183
3.6436,8.9063
3.6919,8.9546
4.6464,8.0000
4.5636,7.9172
4.8000,7.9172
4.8000,8.0828
4.9172,8.2000
5.0828,8.2000
5.2000,8.0828
5.2000,8.0000
5.3536,8.0000
6.3081,8.9546
6.3564,8.9063
6.3564,8.9063
6.6000,8.3183
6.6000,8.3183
6.6000,7.6817
6.6000,7.6817
6.3564,7.0937
6.3081,7.0454
5.3536,8.0000
5.2000,8.0000
5.2000,7.9172
5.0828,7.8000
4.9172,7.8000
4.8000,7.9172
4.5636,7.9172
3.6919,7.0454
3.6436,7.0937
3.6436,7.0937
3.4000,7.6817
0.4000,7.6817
0.4000,6.6919
4.0454,6.6919
5.0000,7.6464
5.9546,6.6919
5.9063,6.6436
5.4512,6.4551
5.3183,6.4000
4.6817,6.4000
4.0937,6.6436
4.0937,6.6436
4.0454,6.6919
0.4000,6.6919
0.4000,6.3919
16.6454,6.3919
17.6000,7.3464
18.5546,6.3919
27.3954,6.3919
28.3500,7.3464
29.3046,6.3919
29.2563,6.3436
28.6683,6.1000
28.0317,6.1000
27.4437,6.3436
27.4437,6.3436
27.3954,6.3919
18.5546,6.3919
18.5063,6.3436
17.9183,6.1000
17.2817,6.1000
16.6937,6.3436
16.6937,6.3436
16.6454,6.3919
0.4000,6.3919
0.4000,0.5240
0.4363,0.4363
0.5240,0.4000
43.4760,0.4000
Z" /> 
<path style="fill:none; 
stroke:#FFFFFF; stroke-width:0.1000; stroke-opacity:1; 
stroke-linecap:round; stroke-linejoin:round;fill:none"
d="M 0.0000,0.0000
44.0000,0.0000
44.0000,85.0000
0.0000,85.0000
Z" /> 
</g>
<g style="fill:#000000; fill-opacity:1.0000; stroke:none;">
<circle cx="19.0000" cy="39.0000" r="0.2000" /> 
</g>
<g style="fill:#000000; fill-opacity:1.0000; stroke:none;">
<circle cx="13.5743" cy="46.7500" r="0.2000" /> 
</g>
<g style="fill:#000000; fill-opacity:1.0000; stroke:none;">
<circle cx="13.5743" cy="44.2100" r="0.2000" /> 
</g>
<g style="fill:#000000; fill-opacity:1.0000; stroke:none;">
<circle cx="13.5743" cy="41.6700" r="0.2000" /> 
</g>
<g style="fill:#000000; fill-opacity:1.0000; stroke:none;">
<circle cx="22.7500" cy="32.2500" r="0.2000" /> 
</g>
<g style="fill:#000000; fill-opacity:1.0000; stroke:none;">
<circle cx="22.7500" cy="29.7100" r="0.2000" /> 
</g>
<g style="fill:#000000; fill-opacity:1.0000; stroke:none;">
<circle cx="22.7500" cy="27.1700" r="0.2000" /> 
</g>
<g style="fill:#000000; fill-opacity:1.0000; stroke:none;">
<circle cx="38.2500" cy="34.5000" r="0.2000" /> 
</g>
<g style="fill:#000000; fill-opacity:1.0000; stroke:none;">
<circle cx="38.2500" cy="32.0000" r="0.2000" /> 
</g>
<g style="fill:#000000; fill-opacity:1.0000; stroke:none;">
<circle cx="13.5743" cy="75.0800" r="0.2000" /> 
</g>
<g style="fill:#000000; fill-opacity:1.0000; stroke:none;">
<circle cx="13.5743" cy="72.5400" r="0.2000" /> 
</g>
<g style="fill:#000000; fill-opacity:1.0000; stroke:none;">
<circle cx="13.5743" cy="70.0000" r="0.2000" /> 
</g>
<g style="fill:#000000; fill-opacity:1.0000; stroke:none;">
<circle cx="9.6485" cy="46.7500" r="0.2000" /> 
</g>
<g style="fill:#000000; fill-opacity:1.0000; stroke:none;">
<circle cx="9.6485" cy="44.2100" r="0.2000" /> 
</g>
<g style="fill:#000000; fill-opacity:1.0000; stroke:none;">
<circle cx="9.6485" cy="41.6700" r="0.2000" /> 
</g>
<g style="fill:#000000; fill-opacity:1.0000; stroke:none;">
<circle cx="9.6485" cy="75.0800" r="0.2000" /> 
</g>
<g style="fill:#000000; fill-opacity:1.0000; stroke:none;">
<circle cx="9.6485" cy="72.5400" r="0.2000" /> 
</g>
<g style="fill:#000000; fill-opacity:1.0000; stroke:none;">
<circle cx="9.6485" cy="70.0000" r="0.2000" /> 
</g>
<g style="fill:#000000; fill-opacity:1.0000; stroke:none;">
<circle cx="5.0000" cy="8.0000" r="0.2000" /> 
</g>
<g style="fill:#000000; fill-opacity:1.0000; stroke:none;">
<circle cx="5.0000" cy="13.0000" r="0.2000" /> 
</g>
<g style="fill:#000000; fill-opacity:1.0000; stroke:none;">
<circle cx="13.2000" cy="20.8000" r="0.2000" /> 
</g>
<g style="fill:#000000; fill-opacity:1.0000; stroke:none;">
<circle cx="28.3500" cy="10.2000" r="0.2000" /> 
</g>
<g style="fill:#000000; fill-opacity:1.0000; stroke:none;">
<circle cx="28.3500" cy="7.7000" r="0.2000" /> 
</g>
<g style="fill:#000000; fill-opacity:1.0000; stroke:none;">
<circle cx="17.5000" cy="61.0800" r="0.2000" /> 
</g>
<g style="fill:#000000; fill-opacity:1.0000; stroke:none;">
<circle cx="17.5000" cy="58.5400" r="0.2000" /> 
</g>
<g style="fill:#000000; fill-opacity:1.0000; stroke:none;">
<circle cx="17.5000" cy="56.0000" r="0.2000" /> 
</g>
<g style="fill:#000000; fill-opacity:1.0000; stroke:none;">
<circle cx="18.2500" cy="32.2500" r="0.2000" /> 
</g>
<g style="fill:#000000; fill-opacity:1.0000; stroke:none;">
<circle cx="18.2500" cy="29.7100" r="0.2000" /> 
</g>
<g style="fill:#000000; fill-opacity:1.0000; stroke:none;">
<circle cx="18.2500" cy="27.1700" r="0.2000" /> 
</g>
<g style="fill:#000000; fill-opacity:1.0000; stroke:none;">
<circle cx="23.0000" cy="41.8400" r="0.2000" /> 
</g>
<g style="fill:#000000; fill-opacity:1.0000; stroke:none;">
<circle cx="23.0000" cy="44.3800" r="0.2000" /> 
</g>
<g style="fill:#000000; fill-opacity:1.0000; stroke:none;">
<circle cx="23.0000" cy="46.9200" r="0.2000" /> 
</g>
<g style="fill:#000000; fill-opacity:1.0000; stroke:none;">
<circle cx="23.0000" cy="49.4600" r="0.2000" /> 
</g>
<g style="fill:#000000; fill-opacity:1.0000; stroke:none;">
<circle cx="23.0000" cy="52.0000" r="0.2000" /> 
</g>
<g style="fill:#000000; fill-opacity:1.0000; stroke:none;">
<circle cx="23.0000" cy="54.5400" r="0.2000" /> 
</g>
<g style="fill:#000000; fill-opacity:1.0000; stroke:none;">
<circle cx="23.0000" cy="57.0800" r="0.2000" /> 
</g>
<g style="fill:#000000; fill-opacity:1.0000; stroke:none;">
<circle cx="23.0000" cy="59.6200" r="0.2000" /> 
</g>
<g style="fill:#000000; fill-opacity:1.0000; stroke:none;">
<circle cx="23.0000" cy="62.1600" r="0.2000" /> 
</g>
<g style="fill:#000000; fill-opacity:1.0000; stroke:none;">
<circle cx="23.0000" cy="64.7000" r="0.2000" /> 
</g>
<g style="fill:#000000; fill-opacity:1.0000; stroke:none;">
<circle cx="23.0000" cy="67.2400" r="0.2000" /> 
</g>
<g style="fill:#000000; fill-opacity:1.0000; stroke:none;">
<circle cx="23.0000" cy="69.7800" r="0.2000" /> 
</g>
<g style="fill:#000000; fill-opacity:1.0000; stroke:none;">
<circle cx="23.0000" cy="72.3200" r="0.2000" /> 
</g>
<g style="fill:#000000; fill-opacity:1.0000; stroke:none;">
<circle cx="23.0000" cy="74.8600" r="0.2000" /> 
</g>
<g style="fill:#000000; fill-opacity:1.0000; stroke:none;">
<circle cx="23.0000" cy="77.4000" r="0.2000" /> 
</g>
<g style="fill:#000000; fill-opacity:1.0000; stroke:none;">
<circle cx="38.2400" cy="77.4000" r="0.2000" /> 
</g>
<g style="fill:#000000; fill-opacity:1.0000; stroke:none;">
<circle cx="38.2400" cy="74.8600" r="0.2000" /> 
</g>
<g style="fill:#000000; fill-opacity:1.0000; stroke:none;">
<circle cx="38.2400" cy="72.3200" r="0.2000" /> 
</g>
<g style="fill:#000000; fill-opacity:1.0000; stroke:none;">
<circle cx="38.2400" cy="69.7800" r="0.2000" /> 
</g>
<g style="fill:#000000; fill-opacity:1.0000; stroke:none;">
<circle cx="38.2400" cy="67.2400" r="0.2000" /> 
</g>
<g style="fill:#000000; fill-opacity:1.0000; stroke:none;">
<circle cx="38.2400" cy="64.7000" r="0.2000" /> 
</g>
<g style="fill:#000000; fill-opacity:1.0000; stroke:none;">
<circle cx="38.2400" cy="62.1600" r="0.2000" /> 
</g>
<g style="fill:#000000; fill-opacity:1.0000; stroke:none;">
<circle cx="38.2400" cy="59.6200" r="0.2000" /> 
</g>
<g style="fill:#000000; fill-opacity:1.0000; stroke:none;">
<circle cx="38.2400" cy="57.0800" r="0.2000" /> 
</g>
<g style="fill:#000000; fill-opacity:1.0000; stroke:none;">
<circle cx="38.2400" cy="54.5400" r="0.2000" /> 
</g>
<g style="fill:#000000; fill-opacity:1.0000; stroke:none;">
<circle cx="38.2400" cy="52.0000" r="0.2000" /> 
</g>
<g style="fill:#000000; fill-opacity:1.0000; stroke:none;">
<circle cx="38.2400" cy="49.4600" r="0.2000" /> 
</g>
<g style="fill:#000000; fill-opacity:1.0000; stroke:none;">
<circle cx="38.2400" cy="46.9200" r="0.2000" /> 
</g>
<g style="fill:#000000; fill-opacity:1.0000; stroke:none;">
<circle cx="38.2400" cy="44.3800" r="0.2000" /> 
</g>
<g style="fill:#000000; fill-opacity:1.0000; stroke:none;">
<circle cx="38.2400" cy="41.8400" r="0.2000" /> 
</g>
<g style="fill:#000000; fill-opacity:1.0000; stroke:none;">
<circle cx="28.5000" cy="19.7500" r="0.2000" /> 
</g>
<g style="fill:#000000; fill-opacity:1.0000; stroke:none;">
<circle cx="28.5000" cy="17.2100" r="0.2000" /> 
</g>
<g style="fill:#000000; fill-opacity:1.0000; stroke:none;">
<circle cx="17.5000" cy="75.0800" r="0.2000" /> 
</g>
<g style="fill:#000000; fill-opacity:1.0000; stroke:none;">
<circle cx="17.5000" cy="72.5400" r="0.2000" /> 
</g>
<g style="fill:#000000; fill-opacity:1.0000; stroke:none;">
<circle cx="17.5000" cy="70.0000" r="0.2000" /> 
</g>
<g style="fill:#000000; fill-opacity:1.0000; stroke:none;">
<circle cx="9.0000" cy="20.8000" r="0.2000" /> 
</g>
<g style="fill:#000000; fill-opacity:1.0000; stroke:none;">
<circle cx="27.5000" cy="32.2500" r="0.2000" /> 
</g>
<g style="fill:#000000; fill-opacity:1.0000; stroke:none;">
<circle cx="27.5000" cy="29.7100" r="0.2000" /> 
</g>
<g style="fill:#000000; fill-opacity:1.0000; stroke:none;">
<circle cx="27.5000" cy="27.1700" r="0.2000" /> 
</g>
<g style="fill:#000000; fill-opacity:1.0000; stroke:none;">
<circle cx="32.0000" cy="32.2500" r="0.2000" /> 
</g>
<g style="fill:#000000; fill-opacity:1.0000; stroke:none;">
<circle cx="32.0000" cy="29.7100" r="0.2000" /> 
</g>
<g style="fill:#000000; fill-opacity:1.0000; stroke:none;">
<circle cx="32.0000" cy="27.1700" r="0.2000" /> 
</g>
<g style="fill:#000000; fill-opacity:1.0000; stroke:none;">
<circle cx="13.5743" cy="61.0800" r="0.2000" /> 
</g>
<g style="fill:#000000; fill-opacity:1.0000; stroke:none;">
<circle cx="13.5743" cy="58.5400" r="0.2000" /> 
</g>
<g style="fill:#000000; fill-opacity:1.0000; stroke:none;">
<circle cx="13.5743" cy="56.0000" r="0.2000" /> 
</g>
<g style="fill:#000000; fill-opacity:1.0000; stroke:none;">
<circle cx="19.0000" cy="45.2000" r="0.2000" /> 
</g>
<g style="fill:#000000; fill-opacity:1.0000; stroke:none;">
<circle cx="17.6000" cy="10.2000" r="0.2000" /> 
</g>
<g style="fill:#000000; fill-opacity:1.0000; stroke:none;">
<circle cx="17.6000" cy="7.7000" r="0.2000" /> 
</g>
<g style="fill:#000000; fill-opacity:1.0000; stroke:none;">
<circle cx="20.9600" cy="18.7500" r="0.2000" /> 
</g>
<g style="fill:#000000; fill-opacity:1.0000; stroke:none;">
<circle cx="23.5000" cy="18.7500" r="0.2000" /> 
</g>
<g style="fill:#000000; fill-opacity:1.0000; stroke:none;">
<circle cx="9.6485" cy="61.0800" r="0.2000" /> 
</g>
<g style="fill:#000000; fill-opacity:1.0000; stroke:none;">
<circle cx="9.6485" cy="58.5400" r="0.2000" /> 
</g>
<g style="fill:#000000; fill-opacity:1.0000; stroke:none;">
<circle cx="9.6485" cy="56.0000" r="0.2000" /> 
</g> 
</svg>
